<svg width="120" height="112" viewBox="0 0 120 112" fill="none" xmlns="http://www.w3.org/2000/svg">
<path d="M117.766 41.9493C124.265 64.0047 113.331 89.1686 95.2286 101.829C77.1268 114.58 51.7657 114.736 31.4134 101.678C10.9697 88.5284 -4.46578 62.0727 1.66905 39.8482C7.89535 17.7141 35.7828 -0.189403 61.6029 0.378409C87.5139 0.945658 111.357 19.8933 117.766 41.9493Z" fill="#E6F6FD"/>
<path d="M90.6493 65.9585C91.6572 64.0449 92.2344 61.8693 92.2344 59.556C92.2344 53.6766 88.5412 48.6718 83.3535 46.6996C83.3535 46.6933 83.3544 46.6871 83.3544 46.68C83.3544 36.381 75.0054 28.032 64.7064 28.032C56.0182 28.032 48.7392 33.9825 46.6684 42.0242C45.3577 41.5936 43.9609 41.352 42.5064 41.352C35.6758 41.352 30.0539 46.4962 29.284 53.1198C24.6629 54.0975 21.1943 58.1965 21.1943 63.108C21.1943 68.7477 25.7667 73.32 31.4063 73.32C31.5635 73.32 31.7189 73.3094 31.8734 73.3005C31.8699 73.4559 31.8503 73.6078 31.8503 73.764C31.8503 83.818 40.0004 91.9681 50.0544 91.9681C55.7704 91.9681 60.8658 89.3289 64.2038 85.2068C66.1378 87.1826 68.8267 88.416 71.8104 88.416C75.9396 88.416 79.5129 86.0629 81.2818 82.6281C82.216 82.9255 83.2096 83.088 84.2424 83.088C89.637 83.088 94.0104 78.7146 94.0104 73.32C94.0104 70.3799 92.705 67.7496 90.6493 65.9585Z" fill="#C7EDE6"/>
<path d="M70.145 47.1241C70.145 47.1241 66.9126 47.1241 64.706 47.1241C62.4993 47.1241 60.71 45.3347 60.71 43.1281C60.71 41.0563 62.2924 39.3727 64.3108 39.172C64.2913 39.0113 64.262 38.8541 64.262 38.688C64.262 36.4814 66.0513 34.692 68.258 34.692C69.5349 34.692 70.6582 35.3012 71.3899 36.2336C71.5143 33.8928 73.4341 32.028 75.806 32.028C78.2577 32.028 80.246 34.0163 80.246 36.468C80.246 36.8641 80.1776 37.2406 80.0799 37.6065C80.65 36.9165 81.5007 36.468 82.466 36.468C84.0475 36.468 85.3378 37.6535 85.534 39.1809C85.6947 39.1614 85.8519 39.1321 86.018 39.1321C88.2247 39.1321 90.014 40.9214 90.014 43.1281C90.014 45.3347 88.2247 47.1241 86.018 47.1241C83.8113 47.1241 77.582 47.1241 77.582 47.1241H72.809V47.5681H70.145V47.1241Z" fill="#FDFCEF"/>
<path d="M75.8056 31.584C78.4989 31.584 80.6896 33.7747 80.6896 36.468C80.6896 36.4823 80.6896 36.4956 80.6896 36.5098C81.2242 36.1945 81.8352 36.024 82.4656 36.024C84.0916 36.024 85.4946 37.1438 85.8915 38.6925C85.9333 38.6898 85.975 38.688 86.0176 38.688C88.4659 38.688 90.4576 40.6798 90.4576 43.1281C90.4576 45.5763 88.4659 47.5681 86.0176 47.5681H72.8086C72.5635 47.5681 72.3646 47.3691 72.3646 47.1241C72.3646 46.879 72.5635 46.6801 72.8086 46.6801H86.0176C87.9766 46.6801 89.5696 45.087 89.5696 43.1281C89.5696 41.1691 87.9766 39.5761 86.0176 39.5761C85.9137 39.5761 85.8134 39.5911 85.7131 39.6045L85.5878 39.6213C85.5692 39.624 85.5514 39.6249 85.5328 39.6249C85.3143 39.6249 85.1225 39.4606 85.0932 39.2368C84.9236 37.911 83.7941 36.912 82.4656 36.912C81.6798 36.912 80.9356 37.2681 80.4223 37.8888C80.3353 37.9936 80.2083 38.0505 80.0796 38.0505C80.0103 38.0505 79.9411 38.0345 79.8771 38.0007C79.6915 37.9057 79.5983 37.6935 79.6516 37.4919C79.7537 37.1056 79.8016 36.7806 79.8016 36.468C79.8016 34.2649 78.0088 32.472 75.8056 32.472C73.6913 32.472 71.9455 34.1344 71.8327 36.2576C71.823 36.4423 71.6995 36.6012 71.5228 36.6572C71.4784 36.6714 71.4331 36.6785 71.3878 36.6785C71.2546 36.6785 71.125 36.6172 71.0397 36.508C70.3551 35.636 69.3419 35.136 68.2576 35.136C66.2987 35.136 64.7056 36.7291 64.7056 38.688C64.7056 38.7919 64.7207 38.8923 64.734 38.9926L64.7509 39.1178C64.7651 39.2368 64.7314 39.3558 64.6568 39.4491C64.5822 39.5423 64.473 39.6018 64.3549 39.6133C62.5291 39.7954 61.1536 41.3068 61.1536 43.1281C61.1536 45.087 62.7467 46.6801 64.7056 46.6801H70.1446C70.3897 46.6801 70.5886 46.879 70.5886 47.1241C70.5886 47.3691 70.3897 47.5681 70.1446 47.5681H64.7056C62.2574 47.5681 60.2656 45.5763 60.2656 43.1281C60.2656 40.9995 61.7655 39.2093 63.8203 38.7973C63.8185 38.7609 63.8176 38.7245 63.8176 38.688C63.8176 36.2398 65.8094 34.248 68.2576 34.248C69.3019 34.248 70.2938 34.6175 71.0841 35.2817C71.6152 33.1469 73.5368 31.584 75.8056 31.584Z" fill="#472B29"/>
<path d="M77.1376 37.8C78.3835 37.8 79.4544 38.6872 79.7244 39.8789C80.0503 39.6817 80.4224 39.576 80.8006 39.576C81.868 39.576 82.7525 40.3726 82.8901 41.4124C83.0704 41.3716 83.2418 41.3521 83.4096 41.3521C84.7673 41.3521 85.9058 42.4177 86.0008 43.7781C86.0088 43.9006 85.9164 44.0072 85.7948 44.0161C85.7894 44.0161 85.7841 44.0161 85.7788 44.0161C85.6633 44.0161 85.5657 43.9264 85.5577 43.81C85.4786 42.6814 84.5356 41.7961 83.4096 41.7961C83.2062 41.7961 82.9922 41.8333 82.7542 41.9088C82.7347 41.915 82.7143 41.9177 82.6948 41.9177C82.6459 41.9177 82.5971 41.8999 82.5562 41.8698C82.4994 41.8289 82.4656 41.7561 82.4656 41.6851C82.4656 40.7669 81.7188 40.0201 80.8006 40.0201C80.4037 40.0201 80.0148 40.1692 79.7075 40.4401C79.6658 40.4765 79.6134 40.496 79.561 40.496C79.5326 40.496 79.5051 40.4907 79.4784 40.4791C79.4003 40.4481 79.347 40.3753 79.3408 40.2909C79.2484 39.1427 78.2814 38.244 77.1376 38.244C76.9529 38.244 76.7602 38.2742 76.532 38.3391C76.5116 38.3453 76.4903 38.3479 76.4699 38.3479C76.3731 38.3479 76.2861 38.2831 76.2576 38.1863C76.2239 38.0682 76.2923 37.9457 76.4104 37.9119C76.6785 37.8356 76.9103 37.8 77.1376 37.8Z" fill="#472B29"/>
<path d="M64.8102 39.132C65.9877 39.132 67.0373 39.9286 67.3624 41.0696C67.3961 41.1877 67.3277 41.3103 67.2096 41.344C67.1883 41.3494 67.1679 41.352 67.1483 41.352C67.0516 41.352 66.9627 41.2881 66.9352 41.1904C66.6644 40.2402 65.7906 39.576 64.8102 39.576C64.7063 39.576 64.606 39.5885 64.5065 39.6018C64.4959 39.6035 64.4861 39.6044 64.4755 39.6044C64.368 39.6044 64.2721 39.5227 64.257 39.4117C64.2401 39.2901 64.3254 39.1782 64.447 39.1622C64.566 39.1462 64.6868 39.132 64.8102 39.132Z" fill="#472B29"/>
<path d="M74.1415 82.2001H46.3915C43.2648 82.2001 40.7305 79.6657 40.7305 76.5391V48.7891C40.7305 45.6624 43.2648 43.1281 46.3915 43.1281H74.1415C77.2681 43.1281 79.8025 45.6624 79.8025 48.7891V76.5391C79.8025 79.6657 77.2681 82.2001 74.1415 82.2001Z" fill="#A1A1CA"/>
<path d="M74.141 82.8217H46.391C42.9269 82.8217 40.1084 80.0031 40.1084 76.5391V48.789C40.1084 45.325 42.9269 42.5064 46.391 42.5064H74.141C77.6051 42.5064 80.4236 45.325 80.4236 48.789V76.5391C80.4236 80.0031 77.6051 82.8217 74.141 82.8217ZM46.391 43.7496C43.6124 43.7496 41.3516 46.0105 41.3516 48.789V76.5391C41.3516 79.3176 43.6124 81.5785 46.391 81.5785H74.141C76.9196 81.5785 79.1804 79.3176 79.1804 76.5391V48.789C79.1804 46.0105 76.9196 43.7496 74.141 43.7496H46.391Z" fill="#472B29"/>
<path d="M31.3217 52.8961H22.526C22.2809 52.8961 22.082 52.6972 22.082 52.4521C22.082 52.207 22.2809 52.0081 22.526 52.0081H31.3217C31.5668 52.0081 31.7657 52.207 31.7657 52.4521C31.7657 52.6972 31.5677 52.8961 31.3217 52.8961Z" fill="white"/>
<path d="M34.0703 52.8961H33.1823C32.9372 52.8961 32.7383 52.6972 32.7383 52.4521C32.7383 52.207 32.9372 52.0081 33.1823 52.0081H34.0703C34.3154 52.0081 34.5143 52.207 34.5143 52.4521C34.5143 52.6972 34.3163 52.8961 34.0703 52.8961Z" fill="white"/>
<path d="M38.5013 54.6721H30.5172C30.2722 54.6721 30.0732 54.4731 30.0732 54.2281C30.0732 53.983 30.2722 53.7841 30.5172 53.7841H38.5013C38.7463 53.7841 38.9453 53.983 38.9453 54.2281C38.9453 54.4731 38.7463 54.6721 38.5013 54.6721Z" fill="white"/>
<path d="M28.7422 54.6721H27.8542C27.6091 54.6721 27.4102 54.4732 27.4102 54.2281C27.4102 53.983 27.6091 53.7841 27.8542 53.7841H28.7422C28.9872 53.7841 29.1862 53.983 29.1862 54.2281C29.1862 54.4732 28.9881 54.6721 28.7422 54.6721Z" fill="white"/>
<path d="M26.0774 54.6721H24.3014C24.0563 54.6721 23.8574 54.4732 23.8574 54.2281C23.8574 53.983 24.0563 53.7841 24.3014 53.7841H26.0774C26.3225 53.7841 26.5214 53.983 26.5214 54.2281C26.5214 54.4732 26.3234 54.6721 26.0774 54.6721Z" fill="white"/>
<path d="M31.4065 56.4481H29.6305C29.3854 56.4481 29.1865 56.2491 29.1865 56.0041C29.1865 55.759 29.3854 55.5601 29.6305 55.5601H31.4065C31.6516 55.5601 31.8505 55.759 31.8505 56.0041C31.8505 56.2491 31.6516 56.4481 31.4065 56.4481Z" fill="white"/>
<path d="M34.0703 48.4561C33.9131 48.4561 33.3395 48.4561 33.1823 48.4561C32.9372 48.4561 32.7383 48.655 32.7383 48.9001C32.7383 49.1451 32.9372 49.3441 33.1823 49.3441C33.3395 49.3441 33.9131 49.3441 34.0703 49.3441C34.3154 49.3441 34.5143 49.1451 34.5143 48.9001C34.5143 48.655 34.3154 48.4561 34.0703 48.4561Z" fill="white"/>
<path d="M34.0705 50.232C33.9134 50.232 29.7877 50.232 29.6305 50.232C29.3854 50.232 29.1865 50.4309 29.1865 50.676C29.1865 50.9211 29.3854 51.12 29.6305 51.12C29.7877 51.12 33.9134 51.12 34.0705 51.12C34.3156 51.12 34.5145 50.9211 34.5145 50.676C34.5145 50.4309 34.3156 50.232 34.0705 50.232Z" fill="white"/>
<path d="M38.5103 52.0081C38.3532 52.0081 36.0035 52.0081 35.8463 52.0081C35.6013 52.0081 35.4023 52.207 35.4023 52.4521C35.4023 52.6972 35.6013 52.8961 35.8463 52.8961C36.0035 52.8961 38.3532 52.8961 38.5103 52.8961C38.7554 52.8961 38.9543 52.6972 38.9543 52.4521C38.9543 52.207 38.7554 52.0081 38.5103 52.0081Z" fill="white"/>
<path d="M90.9021 72.4321H82.0221C81.777 72.4321 81.5781 72.2332 81.5781 71.9881C81.5781 71.743 81.777 71.5441 82.0221 71.5441H90.9021C91.1472 71.5441 91.3461 71.743 91.3461 71.9881C91.3461 72.2332 91.1472 72.4321 90.9021 72.4321Z" fill="white"/>
<path d="M94.4544 72.4321H92.6784C92.4333 72.4321 92.2344 72.2332 92.2344 71.9881C92.2344 71.743 92.4333 71.5441 92.6784 71.5441H94.4544C94.6995 71.5441 94.8984 71.743 94.8984 71.9881C94.8984 72.2332 94.6995 72.4321 94.4544 72.4321Z" fill="white"/>
<path d="M98.8933 74.208H90.0133C89.7682 74.208 89.5693 74.0091 89.5693 73.764C89.5693 73.5189 89.7682 73.32 90.0133 73.32H98.8933C99.1384 73.32 99.3373 73.5189 99.3373 73.764C99.3373 74.0091 99.1393 74.208 98.8933 74.208Z" fill="white"/>
<path d="M88.2383 74.2081H87.3503C87.1052 74.2081 86.9062 74.0092 86.9062 73.7641C86.9062 73.519 87.1052 73.3201 87.3503 73.3201H88.2383C88.4833 73.3201 88.6823 73.519 88.6823 73.7641C88.6823 74.0092 88.4833 74.2081 88.2383 74.2081Z" fill="white"/>
<path d="M85.5469 74.2081H83.7975C83.5524 74.2081 83.3535 74.0092 83.3535 73.7641C83.3535 73.519 83.5524 73.3201 83.7975 73.3201H85.5469C85.792 73.3201 85.9909 73.519 85.9909 73.7641C85.9909 74.0092 85.792 74.2081 85.5469 74.2081Z" fill="white"/>
<path d="M93.5666 70.6561H89.1266C88.8815 70.6561 88.6826 70.4572 88.6826 70.2121C88.6826 69.967 88.8815 69.7681 89.1266 69.7681H93.5666C93.8117 69.7681 94.0106 69.967 94.0106 70.2121C94.0106 70.4572 93.8126 70.6561 93.5666 70.6561Z" fill="white"/>
<path d="M90.9026 75.9841H89.1266C88.8815 75.9841 88.6826 75.7852 88.6826 75.5401C88.6826 75.295 88.8815 75.0961 89.1266 75.0961H90.9026C91.1477 75.0961 91.3466 75.295 91.3466 75.5401C91.3466 75.7852 91.1477 75.9841 90.9026 75.9841Z" fill="white"/>
<path d="M72.2551 78.648H48.2773C46.0707 78.648 44.2822 76.8596 44.2822 74.6529V49.7871C44.2822 47.5805 46.0707 45.792 48.2773 45.792H72.256C74.4618 45.792 76.2502 47.5805 76.2502 49.7871V74.6538C76.2502 76.8596 74.4618 78.648 72.2551 78.648Z" fill="#EDF7F5"/>
<path d="M71.2218 78.6481C70.958 77.9643 70.4936 77.1997 69.6171 76.5879C69.1811 76.2833 63.5858 74.3448 63.5858 74.3448C63.2298 74.2507 63.0326 73.9621 62.9687 73.6415C62.7893 72.7322 62.8106 70.5433 62.8151 70.1526C62.8159 70.1215 62.7875 70.0984 62.752 70.0984H62.5407H57.353H57.1416C57.1061 70.0984 57.0786 70.1224 57.0786 70.1526C57.0821 70.5397 57.1008 72.6834 56.9249 73.6415C56.8655 73.9639 56.6639 74.2507 56.3078 74.3448L51.7346 75.9175C51.2773 76.0427 50.8368 76.222 50.4505 76.4716C49.4773 77.1003 48.9658 77.9208 48.6816 78.6481H71.2218Z" fill="#FABF82"/>
<path d="M65.1505 46.68H55.3825C55.1374 46.68 54.9385 46.4811 54.9385 46.236C54.9385 45.9909 55.1374 45.792 55.3825 45.792H65.1505C65.3956 45.792 65.5945 45.9909 65.5945 46.236C65.5945 46.4811 65.3956 46.68 65.1505 46.68Z" fill="#472B29"/>
<path d="M44.7262 55.56C44.4811 55.56 44.2822 55.3611 44.2822 55.116V49.4124C44.2822 47.4162 45.9064 45.792 47.9026 45.792H51.8302C52.0753 45.792 52.2742 45.9909 52.2742 46.236C52.2742 46.4811 52.0753 46.68 51.8302 46.68H47.9026C46.3966 46.68 45.1702 47.9055 45.1702 49.4124V55.116C45.1702 55.3611 44.9713 55.56 44.7262 55.56Z" fill="#472B29"/>
<path d="M71.3158 78.6481C71.053 77.9465 70.585 77.1571 69.6943 76.5266C69.2565 76.2167 68.7521 75.9894 68.2176 75.8411L67.6555 75.691C67.659 75.6901 67.6635 75.6892 67.6661 75.6875L64.7348 74.7346C63.2474 75.1351 61.6526 75.3545 59.9894 75.3545C58.3261 75.3545 56.7304 75.1342 55.2439 74.7346L52.3126 75.6875C52.3161 75.6884 52.3206 75.6892 52.3241 75.691L51.7478 75.8447C51.2878 75.9716 50.8465 76.1537 50.4593 76.4076C49.4701 77.055 48.9542 77.9021 48.6709 78.6472L71.3158 78.6481Z" fill="#EE3E54"/>
<path d="M48.6822 78.6481C48.9663 77.9208 49.4778 77.0994 50.4519 76.4707C50.8382 76.2211 51.2787 76.0418 51.736 75.9166L56.3092 74.3439C56.6653 74.2498 56.8669 73.963 56.9264 73.6406C57.1022 72.6825 57.0835 70.5388 57.08 70.1517C57.0791 70.1206 57.1075 70.0975 57.1421 70.0975H57.3535H62.5412H62.7525C62.7881 70.0975 62.8156 70.1206 62.8156 70.1517C62.8111 70.5424 62.7898 72.7304 62.9692 73.6406C63.0331 73.9621 63.2303 74.2498 63.5864 74.3439C63.5864 74.3439 69.1817 76.2815 69.6177 76.587C70.4941 77.1997 70.9585 77.9643 71.2223 78.6481H71.914C71.637 77.8213 71.1024 76.8401 69.9906 76.0631C69.5466 75.7532 65.9209 74.4736 63.7995 73.7383L63.7764 73.7303L63.7533 73.7241C63.7258 73.7161 63.6405 73.6939 63.6059 73.5181C63.4789 72.8752 63.4496 71.362 63.4647 70.1597C63.4665 69.9732 63.3954 69.7974 63.2622 69.665C63.1299 69.5318 62.9443 69.4555 62.7534 69.4555H62.5421H57.3535H57.1421C56.9512 69.4555 56.7647 69.5318 56.6315 69.665C56.4992 69.7982 56.4264 69.9732 56.4291 70.1597C56.4424 71.3398 56.4104 72.845 56.2861 73.5261C56.2559 73.693 56.168 73.7161 56.1396 73.7241L56.1165 73.7303L56.0943 73.7383L51.5397 75.3038C50.9919 75.4557 50.5061 75.667 50.0941 75.9334C48.8775 76.7193 48.2923 77.7752 47.9922 78.6481H48.6822Z" fill="#472B29"/>
<path d="M75.8062 65.328C75.5611 65.328 75.3622 65.1291 75.3622 64.884V49.4124C75.3622 47.9055 74.404 46.68 73.2257 46.68H70.4782C70.2331 46.68 70.0342 46.4811 70.0342 46.236C70.0342 45.9909 70.2331 45.792 70.4782 45.792H73.2257C74.8933 45.792 76.2502 47.4162 76.2502 49.4124V64.884C76.2502 65.1291 76.0513 65.328 75.8062 65.328Z" fill="#472B29"/>
<path d="M68.8134 63.2989C68.9128 62.9615 68.9963 62.6303 69.1153 62.3008C69.2698 61.8702 69.1606 61.594 68.6775 61.3276C68.6553 61.3152 68.6375 61.3009 68.618 61.2867C68.5407 61.2743 68.4662 61.2645 68.404 61.2574C67.9698 61.2068 67.1981 61.1846 66.9734 60.7371C66.7195 60.23 66.8456 59.6919 66.9113 59.1564C66.9832 58.5677 66.7594 58.0002 66.7576 57.4124C66.7177 57.3547 66.6884 57.2863 66.6804 57.2046C66.5916 56.3379 66.3358 55.5094 65.9949 54.7075C64.7943 53.134 62.5512 52.0728 59.9849 52.0728C56.1576 52.0728 53.0425 54.4323 53.0425 57.3316C53.0425 57.4692 53.0514 57.6042 53.0656 57.7392C53.0283 58.2631 52.9777 58.7302 53.0016 59.3047C53.0229 59.8127 52.9484 60.1892 52.9981 60.8596C53.0256 61.237 52.8516 60.9937 52.2415 61.0239C52.1634 61.0239 52.0879 61.0248 52.0142 61.0301C51.3446 61.0745 50.8029 61.5007 50.6875 62.0282C50.7692 62.0779 50.8349 62.1579 50.8651 62.276C51.1093 63.2554 51.0756 64.3876 51.5684 65.2978C51.8437 65.8058 52.2744 65.8768 52.7166 66.2045C52.9617 66.3865 53.0087 66.5917 53.0753 66.8634C53.324 67.8686 54.0122 68.7237 54.7679 69.4537C55.1506 69.8231 55.5608 70.1552 55.9747 70.4918C56.3183 70.7706 56.6788 71.0929 57.1051 71.259C57.2472 71.314 57.336 71.4135 57.3786 71.5254C57.661 71.6755 58.0597 71.8859 58.0597 71.8824C59.4228 72.424 60.7308 72.4702 62.1107 71.8557C62.1107 71.861 62.1107 71.8664 62.1107 71.8708C62.1178 71.8664 62.7821 71.5494 63.0538 71.4002C63.0751 71.3709 63.1 71.3425 63.1328 71.3149C63.5511 70.9651 64.0137 70.6738 64.4444 70.3399C64.7978 70.0646 65.0882 69.7609 65.3617 69.4306C65.2987 69.2876 65.4381 69.4111 65.5686 69.261C66.1804 68.5586 66.755 67.4521 66.8544 66.5517C66.8598 66.5055 66.8935 66.4718 66.9184 66.4389C66.8393 66.1894 67.0356 66.0526 67.397 66.0429C67.7238 66.0349 67.9174 65.669 68.1678 65.4932C68.3543 64.7837 68.6065 63.9978 68.8134 63.2989Z" fill="#FDDBBC"/>
<g opacity="0.8">
<path d="M67.1588 62.7076C67.1668 62.593 67.1686 62.4785 67.1553 62.3648L68.0211 62.5309L67.7067 64.0849L67.3577 64.0218L67.6055 62.7937L67.1588 62.7076Z" fill="#8E7469"/>
</g>
<path d="M68.3284 61.0444C68.0309 60.9698 67.7148 60.9627 67.38 60.9218C67.38 60.8863 67.2948 60.96 67.2948 60.9245C67.0834 60.9041 66.9715 60.6572 66.968 60.3997C66.9618 59.8802 66.896 59.3101 66.9431 58.7649C66.9564 58.2729 66.8676 57.9595 66.7717 57.6114C66.7868 57.4684 66.7957 57.3245 66.7957 57.1789C66.7957 54.1988 63.6815 51.7737 59.8533 51.7737C56.0251 51.7737 52.9109 54.1988 52.9109 57.1789C52.9109 57.3201 52.9198 57.4595 52.934 57.598C52.8967 58.1371 52.8461 58.6175 52.8701 59.2062C52.8914 59.7284 52.8168 60.1155 52.8665 60.8037C52.894 61.1918 52.72 60.9423 52.1099 60.9725C52.0318 60.9725 51.9563 60.9733 51.8826 60.9787C51.0523 61.0355 50.4174 61.6944 50.5497 62.4075C50.7025 63.2333 50.8854 64.0556 51.0923 64.8717C51.2974 65.6789 51.7006 66.3395 52.68 66.4337C52.8061 67.4833 53.0308 68.017 53.7012 68.8446C54.6106 69.9688 55.6895 70.9278 56.9931 71.6267C57.128 71.6995 57.929 72.1373 57.929 72.132C59.2921 72.6887 60.6001 72.7358 61.9801 72.1053C61.9801 72.1106 61.9801 72.116 61.9801 72.1213C61.9889 72.116 62.8485 71.6933 63.011 71.5858C63.6655 71.1516 64.3324 70.7174 64.9078 70.1979C66.0489 69.1687 67.126 68.0773 67.2379 66.4319C68.2058 66.3457 68.6063 65.6939 68.8132 64.9063C69.0157 64.1337 69.1622 63.3478 69.3256 62.5673C69.4828 61.8152 69.1152 61.2406 68.3284 61.0444ZM52.6783 65.8662C52.1934 65.8787 51.872 65.6895 51.7024 65.154C51.4697 64.4197 51.1225 62.887 51.118 62.8737C50.7513 61.7566 51.4439 61.2602 52.6783 61.4946V62.1437C52.672 62.1437 52.6658 62.6827 52.6792 62.6854L52.6783 65.8662ZM66.7025 66.6326C66.6998 66.9221 66.651 67.2497 66.5044 67.4957C65.1511 69.7592 63.2472 71.4056 60.5184 72.0591C59.5718 72.2856 58.6847 71.9606 57.8615 71.5698C56.1361 70.7529 54.7562 69.5532 53.7012 68.0258C53.3558 67.525 53.1711 66.9878 53.1977 66.3733C53.2333 65.5607 53.2066 64.7465 53.2066 63.9322C53.2066 63.8318 53.2146 63.7315 53.2057 63.6329C53.0033 61.3987 53.473 57.2606 53.473 57.1789C53.473 54.4892 56.3368 52.3002 59.8569 52.3002C63.3769 52.3002 66.3552 54.4883 66.3552 57.1789C66.3552 57.234 66.3774 57.2988 66.3757 57.3538C66.6172 57.5821 66.4387 59.7559 66.6891 60.8526C66.7167 60.9769 66.7122 61.1083 66.7122 61.2362C66.7122 63.0353 66.7202 64.8344 66.7025 66.6326ZM68.8718 62.3782C68.6925 63.315 68.474 64.2474 68.2076 65.1656C68.0575 65.6842 67.7743 65.8405 67.2379 65.8902V62.6925L67.2415 62.6916C67.2406 62.681 67.2388 62.6721 67.2388 62.6614V61.9865C67.2353 61.9848 67.2308 61.983 67.2273 61.9803V61.4413C67.5159 61.4413 67.784 61.4236 68.0504 61.4449C68.5868 61.4884 68.9677 61.8738 68.8718 62.3782Z" fill="#472B29"/>
<g opacity="0.8">
<path d="M52.8052 62.9864C52.7963 62.8665 52.7954 62.7458 52.8087 62.6259L51.8994 62.7999L52.2289 64.433L52.5965 64.3664L52.3354 63.0752L52.8052 62.9864Z" fill="#8E7469"/>
</g>
<path d="M59.9148 65.8529C60.3748 65.8529 60.8206 65.654 61.1083 65.3219C61.1367 65.2881 61.1331 65.2384 61.0994 65.2091C61.0657 65.1807 61.015 65.1842 60.9857 65.2171C60.7513 65.4808 60.3615 65.6327 59.9157 65.6327C59.469 65.6327 59.0792 65.4808 58.8448 65.2171C58.8288 65.1993 58.8066 65.1904 58.7835 65.1904C58.7649 65.1904 58.7462 65.1967 58.7311 65.21C58.6974 65.2393 58.6938 65.289 58.7222 65.3228C59.0091 65.654 59.4548 65.8529 59.9148 65.8529Z" fill="#472B29"/>
<path d="M58.4472 59.7106L58.7394 59.1565C57.5051 58.8706 56.0843 58.9159 54.9121 59.2764L55.2797 59.8163C56.2432 59.501 57.4287 59.462 58.4472 59.7106Z" fill="#472B29"/>
<path d="M64.6269 59.7106L64.9191 59.1565C63.6848 58.8706 62.264 58.9159 61.0918 59.2764L61.4594 59.8163C62.4229 59.5011 63.6084 59.462 64.6269 59.7106Z" fill="#472B29"/>
<path d="M56.6715 60.492C56.3749 60.492 56.1147 60.6865 55.9646 60.9787C56.0019 60.9671 56.041 60.9591 56.0818 60.9591C56.3251 60.9591 56.5223 61.1767 56.5223 61.4449C56.5223 61.713 56.3251 61.9306 56.0818 61.9306C56.0028 61.9306 55.9282 61.9057 55.8643 61.864C55.9682 62.3044 56.2905 62.625 56.6715 62.625C57.1368 62.625 57.5151 62.1473 57.5151 61.5585C57.5142 60.9698 57.1377 60.492 56.6715 60.492Z" fill="#472B29"/>
<path d="M63.123 60.4921C62.8699 60.4921 62.6435 60.6333 62.489 60.857C62.5369 60.8375 62.5893 60.8242 62.6435 60.8242C62.8868 60.8242 63.0839 61.0417 63.0839 61.3099C63.0839 61.5781 62.8868 61.7956 62.6435 61.7956C62.4925 61.7956 62.3602 61.7113 62.2803 61.5843C62.2909 62.1615 62.6639 62.625 63.1221 62.625C63.5874 62.625 63.9657 62.1473 63.9657 61.5586C63.9666 60.9698 63.5892 60.4921 63.123 60.4921Z" fill="#472B29"/>
<path d="M63.4813 67.0881C63.5159 67.0605 63.5213 67.0099 63.4929 66.9762C63.4653 66.9424 63.4138 66.9362 63.3792 66.9637C62.6191 67.5623 61.3563 67.9059 59.916 67.9059C58.4748 67.9059 57.2129 67.5623 56.4519 66.9637C56.4368 66.9522 56.419 66.946 56.4013 66.946C56.3782 66.946 56.3542 66.9566 56.3382 66.9753C56.3107 67.009 56.3151 67.0596 56.3498 67.0881C57.2085 67.7816 58.5414 68.1954 59.9151 68.1954C61.2897 68.1954 62.6226 67.7816 63.4813 67.0881Z" fill="#472B29"/>
<path d="M59.9344 75.517C58.368 75.517 56.5334 75.2648 54.9003 74.8261C54.8142 74.8031 54.7627 74.7143 54.7858 74.629C54.8089 74.5438 54.8977 74.494 54.9856 74.5162C56.592 74.9478 58.3964 75.1956 59.9344 75.1956C60.5383 75.1956 61.1483 75.1654 61.7486 75.1059C61.8418 75.0961 61.9173 75.1627 61.9262 75.2506C61.9351 75.3385 61.8703 75.4176 61.7806 75.4264C61.1705 75.4859 60.5498 75.517 59.9344 75.517Z" fill="#472B29"/>
<path d="M62.9432 75.2719C62.865 75.2719 62.7967 75.2159 62.7833 75.1369C62.7691 75.0499 62.8286 74.9664 62.9174 74.9522C63.04 74.9327 63.1625 74.9113 63.2833 74.8883C63.3943 74.8678 63.5053 74.8456 63.6172 74.8226C63.7033 74.8092 63.7903 74.8607 63.809 74.9478C63.8267 75.0348 63.7699 75.1191 63.682 75.1369C63.5701 75.1591 63.4573 75.1813 63.3437 75.2035C63.2194 75.2266 63.095 75.2488 62.9698 75.2701C62.9609 75.271 62.9512 75.2719 62.9432 75.2719Z" fill="#472B29"/>
<path d="M60.6765 70.1126C60.7164 70.1126 60.7511 70.0664 60.7511 70.0114C60.7511 69.9563 60.7173 69.9102 60.6765 69.9102H59.0053C58.9653 69.9102 58.9307 69.9563 58.9307 70.0114C58.9307 70.0664 58.9644 70.1126 59.0053 70.1126H60.6765Z" fill="#512C2B"/>
<path d="M51.7031 54.0371C51.9429 53.4005 52.782 53.3516 52.782 53.3516C52.782 53.3516 52.0654 52.4494 52.3043 52.0374C52.5432 51.6253 55.1086 48.7029 61.3424 49.3503C67.5761 49.9976 68.3496 53.9999 68.3496 53.9999L67.0815 61.3117C67.0815 61.3117 64.5942 54.0585 54.5447 55.4286C54.5447 55.4286 54.9825 56.3504 52.8593 60.0143L51.7031 54.0371Z" fill="#512C2B"/>
<path d="M51.7717 78.6481L54.0983 75.1298C54.1285 75.0854 54.1151 75.0259 54.0707 74.9966C54.0255 74.9682 53.9651 74.9807 53.9358 75.0251L51.5391 78.6481H51.7717Z" fill="#472B29"/>
<path d="M55.0436 76.8064C54.9984 76.7779 54.938 76.7904 54.9087 76.8348L53.709 78.6481H53.9416L55.0712 76.9404C55.1014 76.896 55.088 76.8357 55.0436 76.8064Z" fill="#472B29"/>
<path d="M52.8528 78.6481L55.0746 75.2897C55.1047 75.2453 55.0914 75.1858 55.047 75.1565C55.0017 75.1272 54.9414 75.1396 54.912 75.1849L52.6201 78.6481H52.8528Z" fill="#472B29"/>
<path d="M49.6106 78.6481L51.5713 75.6831C51.6015 75.6387 51.5882 75.5792 51.5438 75.549C51.4994 75.5197 51.4381 75.533 51.4088 75.5774L49.3779 78.6481H49.6106Z" fill="#472B29"/>
<path d="M50.6829 78.6481L52.9046 75.2897C52.9348 75.2453 52.9215 75.1858 52.8771 75.1565C52.8327 75.1272 52.7714 75.1396 52.7421 75.1849L50.4502 78.6481H50.6829Z" fill="#472B29"/>
<path d="M72.7178 79.5361H47.8147C45.8664 79.5361 44.2822 77.9119 44.2822 75.9157V60.4441C44.2822 60.199 44.4811 60.0001 44.7262 60.0001C44.9713 60.0001 45.1702 60.199 45.1702 60.4441V75.9157C45.1702 77.4226 46.3566 78.6481 47.8147 78.6481H72.7187C74.1759 78.6481 75.3622 77.4226 75.3622 75.9157V70.2121C75.3622 69.967 75.5612 69.7681 75.8062 69.7681C76.0513 69.7681 76.2502 69.967 76.2502 70.2121V75.9157C76.2502 77.9119 74.6661 79.5361 72.7178 79.5361Z" fill="#472B29"/>
<path d="M31.4074 75.54C31.4074 75.54 30.0159 75.54 28.2994 75.54C26.5829 75.54 25.1914 74.1485 25.1914 72.432C25.1914 70.8505 26.3769 69.5602 27.9042 69.364C27.8794 69.205 27.8554 69.0461 27.8554 68.88C27.8554 67.1635 29.2469 65.772 30.9634 65.772C31.8798 65.772 32.695 66.1761 33.2633 66.8066C33.6043 65.2011 35.0278 63.996 36.7354 63.996C38.697 63.996 40.2874 65.5864 40.2874 67.548C40.2874 67.7176 40.2608 67.8801 40.2377 68.0435C40.6178 67.7381 41.0937 67.548 41.6194 67.548C42.7099 67.548 43.613 68.3357 43.7995 69.3729C43.9584 69.348 44.1174 69.324 44.2834 69.324C45.9999 69.324 47.3914 70.7155 47.3914 72.432C47.3914 74.1485 45.9999 75.54 44.2834 75.54C42.5669 75.54 37.6234 75.54 37.6234 75.54V75.984H31.4074V75.54Z" fill="#FDFCEF"/>
<path d="M29.8532 71.5441C29.9757 71.5441 30.0752 71.4446 30.0752 71.3221C30.0752 70.236 29.1916 69.3525 28.1056 69.3525C28.0754 69.3605 27.4511 69.3516 27.0009 69.4732C26.8828 69.5052 26.8127 69.6269 26.8446 69.745C26.8766 69.864 26.9983 69.9341 27.1164 69.9013C27.5106 69.7947 28.0932 69.7947 28.1047 69.7965C28.9465 69.7965 29.6312 70.4811 29.6312 71.3221C29.6312 71.4446 29.7306 71.5441 29.8532 71.5441Z" fill="#472B29"/>
<path d="M35.8473 75.9841C36.0925 75.9841 36.2913 75.7853 36.2913 75.5401C36.2913 75.2949 36.0925 75.0961 35.8473 75.0961C35.6021 75.0961 35.4033 75.2949 35.4033 75.5401C35.4033 75.7853 35.6021 75.9841 35.8473 75.9841Z" fill="#472B29"/>
<path d="M28.2991 75.984H31.4071C31.6522 75.984 31.8511 75.7851 31.8511 75.54C31.8511 75.295 31.6522 75.096 31.4071 75.096H28.2991C26.8303 75.096 25.6351 73.9008 25.6351 72.432C25.6351 71.1036 26.6341 69.9741 27.9599 69.8044C28.0788 69.7885 28.1863 69.7263 28.2582 69.6304C28.3302 69.5345 28.3603 69.4137 28.3417 69.2956C28.3213 69.1589 28.2991 69.0221 28.2991 68.88C28.2991 67.4113 29.4943 66.216 30.9631 66.216C31.7179 66.216 32.4176 66.5313 32.9335 67.104C33.0445 67.2275 33.2186 67.2799 33.3775 67.2355C33.5392 67.1919 33.6626 67.0623 33.6972 66.8989C34 65.4746 35.2779 64.44 36.7351 64.44C38.4489 64.44 39.8431 65.8342 39.8431 67.548C39.8431 67.675 39.8244 67.7967 39.8067 67.9192C39.7809 68.0995 39.8626 68.3082 40.0216 68.3987C40.1805 68.4893 40.3732 68.5035 40.5153 68.3899C40.8394 68.1297 41.2204 67.992 41.6191 67.992C42.4769 67.992 43.2104 68.6056 43.3622 69.4519C43.4049 69.689 43.6251 69.848 43.8675 69.8115C44.0043 69.7902 44.141 69.768 44.2831 69.768C45.7518 69.768 46.9471 70.9633 46.9471 72.432C46.9471 73.9008 45.7518 75.096 44.2831 75.096H37.6231C37.378 75.096 37.1791 75.295 37.1791 75.54C37.1791 75.7851 37.378 75.984 37.6231 75.984H44.2831C46.242 75.984 47.8351 74.391 47.8351 72.432C47.8351 70.4731 46.242 68.88 44.2831 68.88C44.2307 68.88 44.1801 68.8818 44.1286 68.8854C43.7609 67.8322 42.7637 67.104 41.6191 67.104C41.3092 67.104 41.0072 67.1582 40.7213 67.2639C40.5748 65.1922 38.8432 63.552 36.7351 63.552C35.1091 63.552 33.6573 64.5528 33.0472 66.0153C32.4434 65.5731 31.7134 65.328 30.9631 65.328C29.0041 65.328 27.4111 66.9211 27.4111 68.88C27.4111 68.9227 27.412 68.9644 27.4146 69.0061C25.8668 69.404 24.7471 70.8061 24.7471 72.432C24.7471 74.391 26.3401 75.984 28.2991 75.984Z" fill="#472B29"/>
<path d="M33.1833 75.096C33.3245 75.096 33.9301 75.096 34.0713 75.096C34.3163 75.096 34.5153 75.295 34.5153 75.54C34.5153 75.7851 34.3163 75.984 34.0713 75.984C33.9301 75.984 33.3245 75.984 33.1833 75.984C32.9382 75.984 32.7393 75.7851 32.7393 75.54C32.7393 75.295 32.9382 75.096 33.1833 75.096Z" fill="#472B29"/>
</svg>
