<svg width="514" height="301" viewBox="0 0 514 301" fill="none" xmlns="http://www.w3.org/2000/svg">
<path opacity="0.1" d="M514.009 286.529C514.009 292.623 412.863 301 265.973 301C119.083 301 0 296.088 0 289.954C0 283.82 119.083 278.94 265.973 278.94C412.863 278.94 514.009 280.427 514.009 286.529Z" fill="black"/>
<path d="M399.07 141.823L421.765 149.048L448.083 156.64L440.126 167.185L435.517 176.787L432.093 190.861V217.408L403.521 215.964L396.841 201.131L389.051 143.975L399.07 141.823Z" fill="#FFA400"/>
<path d="M336.413 112.549L355.751 111.873L383.405 111.03L395.921 114.326L409.598 124.303L413.631 134.023V143.976L407.452 152.619L401.507 163.431L398.151 176.529L398.025 188.467L402.634 206.679L383.405 213.095L364.552 207.922L335.578 127.624L336.413 112.549Z" fill="#CBD200"/>
<path d="M129.65 143.975L119.931 150.775L106.379 160.386L91.0912 168.027L81.4473 173.609L85.9978 186.29L92.7778 206.112L110.387 206.679L133.182 211.826L137.841 211.443V153.403L129.65 143.975Z" fill="#FFA400"/>
<path d="M167.082 112.548L154.29 113.666L137.249 119.556L123.505 126.823L120.057 131.194L124.223 146.987L128.548 163.43L131.972 184.713L133.182 211.826L164.293 209.749L180.859 108.736L167.082 112.548Z" fill="#CBD200"/>
<path d="M233.671 106.859L246.822 103.856L251.982 107.46L257.443 110.313L263.813 111.873L273.282 109.779L279.962 103.856L282.116 101.211L292.453 101.52L351.452 137.243L365.596 148.088L380.5 163.431C380.5 163.431 389.485 177.463 391.597 184.713C392.792 188.735 393.762 192.821 394.503 196.952L393.517 204.66L391.505 208.648L387.673 213.095L380.158 217.525L368.301 221.337L353.957 226.568L350.667 228.72L351.318 221.663L351.043 210.308L349.732 204.11L347.369 197.502L341.365 192.855L351.452 186.098L358.132 181.426L358.966 171.415V160.794L351.009 153.403L341.658 147.821L308.351 153.928L304.827 161.111L290.215 163.439L276.622 167.769L264.732 173.567L233.396 166.059L223.484 165.024L201.041 163.623L194.636 168.945L184.775 168.027L187.28 190.87L186.17 192.847L181.043 197.702L177.762 205.561L176.476 214.605L177.211 223.832L171.867 222.739L157.146 218.317L148.145 213.095L142.117 206.679L137.842 194.807L138.042 187.216L141.758 173.584L150.416 158.717L157.138 149.649L213.715 102.93L233.671 106.859Z" fill="#64BDBF"/>
<path d="M293.471 115.61V121.784L293.963 130.268L295.116 136.934L298.664 145.043L303.073 149.448L308.675 152.618L317.618 153.403L326.719 152.86L336.705 149.048L344.195 142.19L347.368 132.988L347.961 131.111L351.042 129.434L353.964 126.514L353.739 124.095L351.451 122.318L349.155 120.816L346.241 122.952L344.195 126.823L341.364 124.12L337.474 119.339L333.933 113.666L332.046 102.738L325.325 106.383L317.618 110.446L310.646 112.991L316.173 106.241L317.292 103.155L309.369 107.643L293.471 115.61Z" fill="#F7B399"/>
<g style="mix-blend-mode:multiply">
<path d="M255.821 109.779C255.821 109.779 242.528 108.869 249.141 122.293C252.331 128.75 254.101 137.41 250.811 144.176C249.049 147.796 245.225 149.565 242.887 152.677C239.948 156.589 239.957 161.211 239.823 165.825C235.005 165.825 229.862 164.565 225.027 163.839L223.224 158.266L213.764 153.377L224.351 110.288L233.644 106.834L246.795 103.83L255.821 109.779Z" fill="#DADADA"/>
</g>
<g style="mix-blend-mode:multiply">
<path d="M293.471 115.61V120.216L311.256 112.549L312.091 112.791L311.256 113.8C311.256 113.8 318.837 115.861 328.314 109.137C328.314 109.137 331.938 117.813 336.447 122.318C346.099 131.962 344.195 126.823 344.195 126.823L337.474 119.315L333.466 110.922L332.046 102.713L319.255 109.62L316.173 106.217L317.292 103.13L305.603 109.754L298.03 113.3L293.471 115.61Z" fill="#DADADA"/>
</g>
<path d="M229.253 34.7115L225.487 41.2856L225.07 55.9437L222.523 58.4798L220.461 61.9504L221.129 66.4638L223.342 69.292H226.489L227.4 78.9945L230.088 89.5897L235.916 97.7489L242.604 102.054L250.779 104.899L259.203 106.258L270.601 105.658L282.132 101.211L291.408 91.8422L294.898 83.0157L294.589 73.2214L298.021 72.6541L302.547 69.5589L303.023 64.9121L302.355 62.2507L299.524 60.0233L294.397 59.5143L289.07 61.0494L286.49 58.4798L284.461 54.5755V49.8368V45.3902L285.012 41.8362V37.4646L281.347 31.9752L276.921 30.4818L273.264 30.2148H268.263L263.145 31.5664L257.442 34.261L249.176 35.5542L242.521 34.795L234.555 33.3016L229.253 34.7115Z" fill="#F7B399"/>
<path d="M225.068 55.9435L225.26 43.0708L226.488 36.2131L231.055 33.7353L240.849 34.603L249.174 35.554L260.788 33.7353L271.551 30.3899L281.345 31.975L283.892 34.7865L285.219 43.1625L284.46 48.36V54.5753L286.488 58.4797L289.069 61.0492L294.396 59.5142L299.522 60.0231L302.353 62.2506L305.593 51.1882L306.336 42.053L303.964 31.975L298.019 20.2535L290.538 12.1695L279.976 5.65385L271.317 2.80065L265.698 1.90799H259.202L251.462 2.87574L244.423 0.881836H237.067L228.55 5.0198L222.538 11.0265L219.424 17.5505L216.777 25.2508L215.842 31.975L216.777 42.37L220.2 50.2288L225.068 55.9435Z" fill="#3C3C3B"/>
<g style="mix-blend-mode:overlay">
<path d="M263.876 11.0429C263.876 11.0429 258.499 4.86101 251.46 2.87546C244.421 0.889899 235.596 -3.22304 228.548 5.01953C221.501 13.2621 214.897 21.5714 215.84 31.9747C216.784 42.3781 218.095 45.3898 218.095 45.3898L225.067 55.9433C225.067 55.9433 220.007 38.7156 222.562 26.2016C225.117 13.6876 226.737 8.03958 237.09 5.65357C247.444 3.26756 263.876 11.0429 263.876 11.0429Z" fill="white"/>
</g>
<path d="M269.998 86.5777C271.134 89.8731 266.007 93.3019 263.252 93.5939C260.146 93.9192 255.144 91.0911 254.067 88.021C253.232 85.6767 259.077 86.2607 262.116 85.635C265.155 85.0093 269.188 84.2334 269.998 86.5777Z" fill="#2B2523" stroke="#2B2523" stroke-width="2" stroke-miterlimit="10"/>
<g style="mix-blend-mode:overlay">
<path d="M251.465 2.87541C251.465 2.87541 273.775 -4.56625 290.541 12.1692C307.308 28.9046 306.097 45.0393 306.097 45.0393L302.365 62.2503C302.365 62.2503 306.756 32.6254 295.317 21.1959C283.878 9.76647 272.974 5.65353 267.688 5.65353C264.103 5.69139 260.522 5.94491 256.967 6.41271L251.465 2.87541Z" fill="white"/>
</g>
<path d="M185.563 125.171L189.454 119.557L192.117 112.549L192.969 105.658L192.485 97.7488L199.323 102.905L206.888 106.584L220.114 109.287L222.777 114.634L231.594 122.468L236.262 125.171L235.719 118.981L233.406 109.061L230.851 97.7488L225.491 89.5897L216.999 83.0156L204.992 79.6118L192.618 81.7559L181.989 88.697L176.637 89.5897L171.861 91.8422L167.085 99.5842L164.947 109.137V120.216L165.799 131.145L164.947 138.995L161.491 144.476L158.284 145.911L154.686 146.337L156.23 152.135L159.386 156.848L164.296 160.386L171.861 162.346L173.915 162.321L177.046 157.658L184.753 150.733L191.24 147.563L187.016 144.301L183.083 140.38L181.037 137.56L177.53 128.308L175.652 127.691L173.514 124.304L172.738 119.34L173.881 115.652L178.015 116.278L181.722 119.306L185.563 125.171Z" fill="#7D4E24"/>
<g style="mix-blend-mode:overlay" opacity="0.6">
<path d="M233.671 106.859L230.849 97.7486L225.488 89.5895L219.643 84.5838L213.798 80.7545L204.998 79.6533L195.813 80.7545L188.349 84.5672L181.961 88.7385L175.632 90.2152L170.581 93.9026L168.293 96.1885L165.704 103.855L164.285 115.61L165.12 127.657L165.278 135.708L164.276 141.823L161.471 146.061L154.666 146.336L155.083 147.821C155.083 147.821 166.932 152.368 168.526 143.934C170.121 135.499 165.813 118.071 168.602 109.061C171.39 100.051 178.972 92.8264 182.379 91.842C182.7 91.7565 183.006 91.6244 183.289 91.4499C183.495 91.329 183.656 91.1446 183.748 90.9243C185.51 89.0055 192.356 82.5816 204.505 83.0154C218.758 83.5577 222.365 88.9721 225.463 93.9777C228.561 98.9833 237.044 126.055 237.044 126.055L233.671 106.859Z" fill="white"/>
</g>
<path d="M300.626 95.0622L292.469 101.519L287.041 110.313L285.396 117.421H288.503L305.594 109.779L317.292 103.155L316.173 106.241L312.057 112.548L320.724 108.894L332.046 102.737L332.998 109.136L336.279 117.371L344.195 126.823L346.241 122.952L349.155 120.816L352.803 122.318L353.112 117.371V111.406L350.791 106.383L346.491 100.502L343.059 97.8654L337.139 96.1217H333.507L329.057 93.2352L320.724 90.6489L308.316 92.2674L300.626 95.0622Z" fill="#683C11"/>
<g style="mix-blend-mode:overlay" opacity="0.6">
<path d="M352.803 122.318L353.112 117.362L352.803 112.857L351.968 109.136L349.063 102.954L344.22 98.1239L337.165 96.1217L332.071 96.7641V94.2613L327.354 92.9265L319.113 91.4331H309.368L300.626 95.0455L295.316 98.6579L291.024 103.872L288.01 108.753L285.396 117.437C285.396 117.437 289.872 104.014 302.547 98.3826C315.222 92.7513 328.389 96.1884 328.389 96.1884V98.3659C328.389 98.3659 343.418 97.3064 347.385 105.657C349.847 110.976 351.666 116.569 352.803 122.318Z" fill="white"/>
</g>
<path d="M90.0157 206.929L84.4632 211.935L81.4489 223.339L77.5997 244.396L76.6646 251.438L75.0781 268.407L81.1316 284.641L96.996 291.441L116.301 290.606L161.389 284.708L204.548 284.074L273.968 286.577L340.373 289.764L406.335 292.267H420.813L435.141 289.872L443.616 283.407L448.083 274.897V255.384L448.359 236.579L445.178 225.959L436.043 213.445L428.228 208.898L413.708 206.604L399.647 208.356L389.694 210.934C389.694 210.934 388.024 213.645 383.081 215.939C378.138 218.234 368.302 221.312 368.302 221.312L360.604 223.623L355.753 225.675L350.668 228.754L350.626 226.159L348.43 228.178L343.053 233.301L343.362 236.579L343.053 241.927L341.684 242.578L309.362 248.025L277.057 253.957L268.649 255.626L267.296 256.26L263.355 241.084L259.18 256.935L256.433 255.434C256.433 255.434 244.51 250.253 236.235 248.418C227.961 246.582 215.845 244.864 215.845 244.864L199.672 244.438L193.126 244.864L191.406 234.711L184.726 230.598L177.211 222.989L171.868 222.73L160.754 219.694L150.609 214.905L143.253 209.466L137.851 211.434L133.192 211.818L124.233 210.508L115.532 207.914L104.018 205.136H96.0609L90.0157 206.929Z" fill="#A03D8F"/>
<path d="M192.483 97.7488L199.322 102.905L204.991 105.658L213.717 107.977L219.035 109.061L221.131 113.667L228.445 120.975L231.593 122.468L229.84 126.823L228.554 131.145L228.011 140.055L225.49 146.337L222.542 150.6L216.781 152.135H210.26H202.937L195.873 149.048L188.943 146.987L181.036 137.56L177.529 128.308L175.65 127.691L173.513 124.304L172.736 119.34L173.88 115.652L178.013 116.278L181.721 119.306L185.561 125.171L188.375 121.467L190.805 116.637L192.759 110.313L193.118 102.054L192.483 97.7488Z" fill="#F7B399"/>
<path d="M250.781 104.898L255.824 109.779L261.97 112.549L273.267 109.779L278.511 105.658L282.134 101.211L276.807 103.856L264.124 106L257.06 105.658L250.781 104.898Z" fill="#F7B399"/>
<g style="mix-blend-mode:multiply">
<path d="M250.781 104.898L255.824 109.779L261.97 112.549L273.267 109.779L278.511 105.658L282.134 101.211L276.807 103.856L264.124 106L257.06 105.658L250.781 104.898Z" fill="#DADADA"/>
</g>
<g style="mix-blend-mode:multiply">
<path d="M225.487 57.0697L225.053 44.2804L226.522 36.213L231.09 33.7102L239.339 34.2441L246.854 35.4622L256.431 34.7697L265.315 31.9999L276.921 30.4565L281.346 31.9499L285.396 38.6908L284.461 49.8116L285.012 57.0447C285.012 57.0447 282.131 57.4785 282.131 45.3649C282.131 33.2513 280.219 35.7792 275.785 35.7792C271.352 35.7792 256.331 41.302 252.406 41.302C248.482 41.302 239.882 39.8504 233.402 39.8504C226.923 39.8504 225.487 57.0697 225.487 57.0697Z" fill="#DADADA"/>
</g>
<g style="mix-blend-mode:multiply">
<path d="M185.561 126.005C185.561 126.005 190.804 124.946 194.637 116.278C196.288 112.337 196.43 107.928 195.037 103.889C198.393 107.288 202.431 109.938 206.886 111.664C213.707 114.075 216.78 113.667 216.78 113.667C216.78 113.667 220.729 120.858 224.587 122.61C226.519 123.458 228.401 124.416 230.223 125.48L231.592 122.468L225.489 118.055L221.13 113.692L220.112 109.312L213.716 108.002L204.99 105.683L197.183 101.511L192.482 97.7405L192.967 105.649L192.132 112.54L189.468 119.548L185.577 125.163L185.561 126.005Z" fill="#DADADA"/>
</g>
<path d="M340.352 147.021L351.04 153.403L357.519 160.385L358.997 165.024V171.448L358.137 181.426L351.449 186.098L344.218 190.861L345.304 168.945L341.822 166.417L329.665 165.533L320.873 160.886L304.791 161.103L308.315 153.92L316.305 154.721L326.717 152.86L336.704 149.048L340.352 147.021Z" fill="#E83873"/>
<path d="M187.014 149.632L178.455 156.014L172.736 165.024L168.586 182.227L171.859 184.713L181.277 187.199L186.079 190.861L184.751 168.027L192.758 168.57L201.049 163.622L210.752 163.864L223.493 165.024L225.055 163.864V162.187L223.251 158.291L219.427 155.663L213.791 153.403L213.683 156.648L211.311 158.7L208.573 158.125L205.917 153.403L201.743 152.635L197.927 155.663L194.595 158.125L187.014 149.632Z" fill="#FFA400"/>
<path d="M265.973 122.952C266.964 122.952 267.768 122.149 267.768 121.158C267.768 120.168 266.964 119.365 265.973 119.365C264.981 119.365 264.178 120.168 264.178 121.158C264.178 122.149 264.981 122.952 265.973 122.952Z" fill="white"/>
<path d="M265.526 138.027C266.517 138.027 267.321 137.224 267.321 136.233C267.321 135.243 266.517 134.44 265.526 134.44C264.534 134.44 263.73 135.243 263.73 136.233C263.73 137.224 264.534 138.027 265.526 138.027Z" fill="white"/>
<path d="M193.458 156.848L187.012 149.632L191.237 147.563L195.871 149.048L202.935 152.135L196.814 156.481L194.593 158.125L193.458 156.848Z" fill="#E83873"/>
<path d="M205.916 153.403L207.695 156.564L211.31 158.7L213.681 156.648L213.79 153.403H208.571H205.916Z" fill="#E83873"/>
<path d="M183.08 73.2629L188.942 73.4799L188.374 77.8431L186.011 84.0751L183.523 87.2953L181.986 88.6969L182.395 83.7497L183.08 73.2629Z" fill="#E83873"/>
<path d="M178.749 87.1619L176.737 85.7937L172.737 80.9799L170.007 75.9827L167.227 82.0978L170.591 85.4599L178.457 88.7219L178.749 87.1619Z" fill="#E83873"/>
<path d="M273.264 108.603L287.041 109.061L291.023 101.937L282.131 101.211L279.977 103.497L276.704 106.6L273.264 108.603Z" fill="#0093A5"/>
<g style="mix-blend-mode:multiply">
<path d="M194.594 158.125L202.936 152.135L205.916 153.403L211.31 158.7L212.88 158.717L213.79 153.403L219.426 155.663L225.054 162.187L223.493 165.024L201.049 163.622L192.757 168.57L184.75 168.027L194.594 158.125Z" fill="#DADADA"/>
</g>
<g style="mix-blend-mode:multiply">
<path d="M308.346 153.928C308.346 153.928 325.98 152.869 340.383 156.857C354.787 160.844 358.995 171.448 358.995 171.448V165.024L354.745 156.848L347.364 149.757L341.686 147.846L330.598 151.826L320.72 154.37L308.346 153.928Z" fill="#DADADA"/>
</g>
<g style="mix-blend-mode:overlay">
<path d="M124.223 146.987L116.783 153.928L103.332 163.439L91.0912 168.027L83.0755 171.364L81.4473 173.567L82.4576 177.488C82.4576 177.488 80.1113 179.157 97.9212 170.914C115.731 162.671 121.434 157.007 121.434 157.007L125.283 153.161L124.223 146.987Z" fill="white"/>
</g>
<g style="mix-blend-mode:overlay">
<path d="M122.378 127.432L120.057 134.064C134.602 121.784 164.577 116.453 164.577 116.453L164.945 115.994L164.577 112.549L157.138 112.824L144.162 117.362L122.378 127.432Z" fill="white"/>
</g>
<g style="mix-blend-mode:overlay">
<path d="M353.113 117.362C353.113 117.362 381.594 111.472 394.503 118.472C402.489 122.979 409.092 129.579 413.599 137.56V134.023L409.566 124.303L400.698 115.435L385.777 111.664L371.282 111.03L353.08 111.406L353.113 117.362Z" fill="white"/>
</g>
<g style="mix-blend-mode:overlay">
<path d="M410.568 146.987L448.083 156.64L443.674 161.72L409.123 150.116L410.568 146.987Z" fill="white"/>
</g>
<g style="mix-blend-mode:overlay">
<path d="M147.301 211.426C147.301 211.426 143.185 216.891 126.953 216.891C118.345 216.891 110.905 209.299 102.004 209.808C96.6437 210.116 83.0003 214.938 81.4473 220.812L84.4615 211.91L90.014 206.904L104.008 205.119L115.522 207.897L124.223 210.492L137.841 211.418L143.243 209.449L147.301 211.426Z" fill="white"/>
</g>
<path d="M164.295 160.385L155.102 178.556L168.586 182.227L171.183 171.448L173.913 162.321L164.295 160.385Z" fill="#0093A5"/>
<g style="mix-blend-mode:multiply">
<path d="M346.533 140.48C346.533 140.48 363.6 152.994 366.865 160.794C368.871 165.807 369.979 171.133 370.138 176.529L358.139 181.459L358.749 174.351L358.999 165.057V160.828L351.042 153.436L340.855 147.021L346.533 140.48Z" fill="#DADADA"/>
</g>
<g style="mix-blend-mode:overlay">
<path d="M343.062 233.301L350.626 226.126L350.668 228.72L360.604 223.648L380.143 217.525L391.54 208.648L407.454 207.397L417.474 206.679L428.212 208.915L439.158 216.315C439.158 216.315 431.334 208.806 401.835 214.146C372.336 219.485 343.045 241.927 343.045 241.927L343.062 233.301Z" fill="white"/>
</g>
<path d="M184.75 168.027L186.161 192.847L193.116 244.872L202.226 244.355L215.844 244.872L236.259 248.367L259.204 256.885L256.399 175.486L239.791 173.433L184.75 168.027Z" fill="#683C11"/>
<path d="M183.95 194.791L195.472 195.692L204.807 198.729L207.279 201.131L207.396 202.474L202.461 205.144L188.943 206.679L200.332 208.64L207.179 210.125L209.391 211.827L207.671 215.481L205.183 216.448L188.934 216.398L196.675 218.426L204.415 220.995L207.721 223.648L206.886 226.343L202.92 227.027L194.637 226.568L203.121 230.756L205.884 233.292L204.899 236.579L200.691 236.521L194.637 235.261L191.398 234.719L181.954 228.72L177.203 223.006L176.443 215.964L176.635 206.679L181.036 197.702L183.95 194.791Z" fill="#F7B399"/>
<g style="mix-blend-mode:multiply">
<path d="M183.936 194.807C183.936 194.807 179.677 207.939 181.698 218.935C182.424 223.337 183.931 227.575 186.148 231.449L177.189 223.882L176.555 210.025L178.442 203.025L182.383 194.841L183.936 194.807Z" fill="#DADADA"/>
</g>
<path d="M270.598 176.32L268.652 223.648V255.601L285.009 252.497L327.342 244.872L343.056 241.927L344.192 187.458L345.302 168.945L341.821 166.417L333.463 165.808L316.88 165.024L298.018 168.57L270.598 176.32Z" fill="#683C11"/>
<path d="M343.06 193.614L338.526 196.126L330.602 198.745L324.173 199.479L319.255 200.597L318.228 203.409L320.724 205.903L326.778 208.373L325.392 209.749L320.724 211.017L316.884 213.445L316.416 215.347L320.724 217.349L323.689 217.967L332.047 218.642L327.271 220.928L318.503 223.398L317.309 225.926L319.255 228.178L325.868 228.153L334.226 228.687L329.041 231.398L324.148 234.719V236.971L326.068 239.015H329.742L343.527 232.007L350.625 226.126L351.318 221.662L351.451 213.095L350.508 206.679L348.128 200.439L343.06 193.614Z" fill="#F7B399"/>
<path d="M256.396 175.486L259.202 256.885L263.36 257.745L268.654 255.6L268.261 227.01L270.599 176.32L266.458 177.905L261.715 176.971L256.396 175.486Z" fill="#FFA400"/>
<path d="M201.047 163.623C201.047 163.623 236.032 169.179 244.415 171.306C252.798 173.434 256.397 175.478 256.397 175.478L194.609 168.937L201.047 163.623Z" fill="#DADADA"/>
<g style="mix-blend-mode:multiply">
<path d="M270.602 176.32L269.433 192.063L268.264 227.01L268.656 255.6L277.064 253.957L278.784 173.517L270.602 176.32Z" fill="#DADADA"/>
</g>
<g style="mix-blend-mode:multiply">
<path d="M413.704 146.336C413.704 146.336 405.204 167.276 405.204 179.615C405.204 191.954 411.466 207.146 411.466 207.146L402.649 206.712L398.925 194.807L398.148 176.545L404.427 158.1L413.612 143.917L413.704 146.336Z" fill="#DADADA"/>
</g>
<g style="mix-blend-mode:multiply">
<path d="M355.75 111.873C355.75 111.873 359.09 120.641 359.09 125.98C359.09 131.32 357.42 134.056 357.42 134.064C359.282 133.072 380.424 156.531 382.661 158.884C388.406 164.891 391.395 172.491 394.635 180.108C397.14 186.098 402.4 195.55 400.93 202.349L399.636 208.373L389.683 210.951L393.541 204.66L394.493 196.952L391.595 184.713L382.177 165.85L372.951 155.664L360.894 143.617L351.45 137.243L347.367 132.997L351.041 129.443L353.738 124.103L352.803 122.326L353.112 111.414L355.75 111.873Z" fill="#DADADA"/>
</g>
<path d="M259.721 92.4092C263.787 92.4092 269.832 88.5132 269.832 88.5132C269.431 90.2318 267.002 92.1089 264.171 93.0266C262.685 93.5105 262 93.0266 259.721 92.4092Z" fill="#D60B52"/>
<path d="M165.101 111.306C156.835 111.306 148.961 113.416 141.346 116.52C137.831 117.955 134.382 119.523 130.884 121C127.619 122.376 124.204 123.986 122.092 126.915C119.587 130.352 119.82 134.782 120.847 138.703C122.033 143.216 123.67 147.605 124.905 152.101C127.409 161.194 129.298 170.445 130.558 179.791C131.976 190.413 132.579 201.129 132.362 211.843C132.362 212.319 132.637 213.086 133.197 213.07C133.756 213.053 133.973 212.235 133.982 211.81C134.342 193.468 132.327 175.157 127.986 157.332C126.901 152.883 125.671 148.472 124.296 144.101C123.06 140.171 120.914 135.616 121.95 131.42C122.843 127.799 126.25 125.705 129.414 124.237C132.754 122.702 136.094 121.308 139.484 119.882C147.717 116.378 156.117 113.825 165.151 113.792C166.245 113.792 166.195 111.289 165.084 111.289L165.101 111.306Z" fill="#2B2523"/>
<path d="M123.823 145.919C115.59 153.574 106.197 159.881 95.9937 164.607C93.4832 165.786 90.9282 166.868 88.3287 167.852C86.1244 168.686 83.3773 169.32 81.7491 171.189C79.8621 173.308 80.839 175.886 81.7491 178.189L85.089 186.373L93.0045 205.811C93.1965 206.287 93.6808 206.596 94.1317 206.229C94.323 206 94.4476 205.724 94.4918 205.429C94.5359 205.135 94.498 204.834 94.3822 204.56L87.6106 187.933L84.4377 180.124L83.0016 176.595C82.4588 175.269 81.7491 174.093 83.0016 172.966C84.6715 171.406 87.4018 170.847 89.506 170.038C92.0888 169.031 94.6327 167.936 97.1376 166.751C101.867 164.502 106.435 161.926 110.806 159.042C115.719 155.78 120.352 152.117 124.658 148.088C125.401 147.396 124.758 145.052 123.781 145.961L123.823 145.919Z" fill="#2B2523"/>
<path d="M143.025 208.281C133.105 213.654 121.892 208.44 112.064 205.553C104.608 203.367 95.1645 202.132 88.276 206.604C80.0349 211.952 81.0535 222.972 79.5005 231.482C78.9494 234.494 78.1395 237.447 77.5049 240.442C76.6133 244.881 75.9832 249.369 75.6179 253.882C74.7829 262.742 74.4155 272.495 78.7323 280.579C82.9071 288.421 90.856 292.258 99.4479 292.926C109.15 293.693 118.736 291.257 128.221 289.647C140.163 287.64 152.213 286.331 164.308 285.726C188.698 284.408 213.137 285.384 237.527 286.343L312.607 289.297L387.671 292.242L406.524 292.984C412.294 293.21 418.114 293.652 423.892 293.326C433.21 292.809 443.288 289.105 446.811 279.636C447.763 277.083 447.646 274.572 447.763 271.919C447.914 268.526 448.092 265.136 448.298 261.749C448.89 251.796 450.026 241.794 447.872 231.933C445.801 222.497 440.683 214.288 432.108 209.499C423.324 204.577 412.995 204.769 403.326 206.412C398.638 207.235 394.006 208.35 389.457 209.749C388.464 210.041 388.773 212.486 389.95 212.135C399.26 209.324 409.213 207.13 418.999 208.022C428.784 208.915 438.011 214.238 442.812 222.989C451.162 238.148 446.235 256.485 446.093 272.82C446.093 276.491 445.375 279.494 443.046 282.489C439.991 286.199 435.782 288.78 431.089 289.822C425.779 291.149 420.234 291.024 414.799 290.824C408.804 290.607 402.817 290.356 396.83 290.123L325.449 287.32L253.7 284.5C230.246 283.574 206.766 282.372 183.279 282.639C171.764 282.773 160.25 283.273 148.786 284.4C138.04 285.459 127.503 287.436 116.865 289.213C108.324 290.64 98.8216 291.816 90.5638 288.488C81.638 284.9 77.53 276.399 76.8536 267.239C76.2107 258.562 77.2628 249.369 79.0913 240.876C79.6925 238.089 80.444 235.336 80.97 232.533C81.8801 227.728 81.9887 222.781 83.0324 218.009C84.026 213.445 86.5894 209.716 90.9228 207.797C94.5717 206.179 98.6964 205.937 102.612 206.245C111.972 206.988 120.414 211.643 129.699 212.828C134.441 213.428 139.209 212.97 143.459 210.667C144.378 210.166 143.993 207.722 142.966 208.281H143.025Z" fill="#2B2523"/>
<path d="M403.328 206.037C399.481 197.22 397.93 187.574 398.819 177.997C399.221 173.249 400.347 168.59 402.159 164.182C404.08 159.635 406.918 155.522 409.348 151.242C411.678 147.121 413.857 142.691 414.358 137.894C414.823 133.714 413.927 129.495 411.803 125.864C407.453 118.305 398.961 113.491 390.762 111.247C378.496 107.91 365.554 109.028 353.055 110.129C351.952 110.221 352.028 112.707 353.121 112.632C364.252 111.664 375.666 110.622 386.721 112.824C395.329 114.493 404.322 118.564 409.557 125.905C412 129.174 413.146 133.231 412.772 137.293C412.246 142.032 409.958 146.353 407.611 150.416C405.265 154.479 402.501 158.642 400.639 163.105C398.888 167.4 397.764 171.923 397.3 176.537C396.143 187.028 397.746 197.639 401.95 207.322C402.602 208.807 403.796 207.088 403.328 206.028V206.037Z" fill="#2B2523"/>
<path d="M433.783 209.399C430.778 195.115 433.321 180.223 440.897 167.744C443.069 164.141 445.625 160.785 448.52 157.732C448.996 157.232 449.13 155.714 448.27 155.463L411.632 144.86C410.471 144.526 410.262 146.979 411.256 147.271L447.894 157.849L447.644 155.58C437.018 166.869 431.03 181.739 430.869 197.235C430.839 201.56 431.292 205.875 432.222 210.099C432.573 211.71 434.067 210.709 433.783 209.399Z" fill="#2B2523"/>
<path d="M224.561 45.4064L224.878 56.6691C224.878 57.0278 225.07 57.5951 225.513 57.5867C225.955 57.5784 226.114 56.9777 226.106 56.644L225.788 45.3731C225.788 45.0227 225.596 44.4554 225.154 44.4637C224.711 44.4721 224.553 45.0727 224.561 45.4064Z" fill="#2B2523"/>
<path d="M226.464 68.3573C223.842 68.4657 220.703 66.3216 220.82 63.4518C220.957 62.0993 221.492 60.8177 222.357 59.7682C223.221 58.7186 224.377 57.9481 225.679 57.5535C226.422 57.3699 226.205 55.5429 225.303 55.7598C222.055 56.5941 219.551 60.3983 219.592 63.6436C219.666 65.4237 220.429 67.1055 221.721 68.3337C223.012 69.562 224.731 70.2405 226.514 70.226C227.349 70.226 227.291 68.3239 226.464 68.3573Z" fill="#2B2523"/>
<path d="M295.502 63.9522C295.877 63.8705 296.263 63.8639 296.64 63.9326C297.017 64.0014 297.377 64.1441 297.698 64.3526C298.027 64.5748 298.311 64.858 298.533 65.1869C298.628 65.3085 298.704 65.4434 298.759 65.5873C298.759 65.5873 298.875 65.9294 298.834 65.7709C298.834 65.8627 298.875 65.9628 298.892 66.0545C298.892 66.1129 298.909 66.1463 298.892 66.0545C298.896 66.1156 298.896 66.177 298.892 66.2381V66.3298C298.892 66.2381 298.892 66.2381 298.892 66.3298C298.871 66.4904 298.829 66.6475 298.767 66.797C298.62 67.1455 298.405 67.4606 298.132 67.7231C297.833 68.022 297.471 68.2516 297.073 68.3957C296.675 68.5398 296.25 68.595 295.828 68.5573C295.394 68.5573 295.227 69.183 295.235 69.5001C295.243 69.8171 295.427 70.3343 295.87 70.4178C296.789 70.4443 297.692 70.1609 298.431 69.6131C299.17 69.0653 299.703 68.285 299.944 67.3977C300.212 66.4634 300.156 65.466 299.785 64.5678C299.413 63.6695 298.748 62.9233 297.899 62.4505C297.056 61.9752 296.061 61.8494 295.126 62.1001C294.709 62.2086 294.659 62.9344 294.726 63.2597C294.792 63.5851 295.068 64.0022 295.494 63.8938L295.502 63.9522Z" fill="#2B2523"/>
<path d="M224.28 60.1565C223.061 60.8073 222.744 62.5008 222.944 63.7439C223.145 64.9869 224.105 66.2467 225.449 65.9297C225.616 65.9297 225.75 65.6293 225.8 65.4958C225.884 65.2632 225.899 65.0108 225.842 64.77C225.75 64.3863 225.516 64.0192 225.074 64.1443H224.856C224.957 64.1443 224.856 64.1443 224.806 64.1443C224.72 64.1153 224.636 64.079 224.556 64.0359C224.623 64.0359 224.623 64.0859 224.556 64.0359L224.456 63.9608C224.413 63.9312 224.377 63.8945 224.347 63.8523C224.406 63.9274 224.422 63.9358 224.347 63.894L224.297 63.8356C224.239 63.763 224.189 63.6847 224.147 63.6021C224.131 63.5452 224.111 63.4895 224.088 63.4352C224.13 63.4936 224.13 63.602 224.088 63.4352C224.046 63.2683 224.088 63.3184 224.046 63.26C224.051 63.2017 224.051 63.1431 224.046 63.0848V62.9346C224.046 62.8429 224.046 63.1599 224.046 62.9346C224.046 62.7094 224.097 62.7261 224.105 62.6176V62.7344C224.1 62.6984 224.1 62.662 224.105 62.626C224.114 62.58 224.128 62.5353 224.147 62.4925C224.147 62.4925 224.147 62.3673 224.197 62.359C224.247 62.3506 224.138 62.4841 224.197 62.4257V62.3507L224.355 62.1087C224.247 62.2172 224.397 62.0336 224.355 62.1087L224.456 62.0086C224.456 62.0086 224.547 61.9168 224.564 61.9168L224.497 61.9669H224.573C224.752 61.8399 224.888 61.6596 224.96 61.4515C225.032 61.2435 225.036 61.0181 224.973 60.8072C224.907 60.5069 224.614 59.973 224.205 60.1732L224.28 60.1565Z" fill="#2B2523"/>
<path d="M302.898 62.7094C305.563 56.6549 306.822 50.0765 306.582 43.4668C306.342 36.857 304.609 30.3872 301.512 24.5416C296.754 15.8175 289.266 8.89143 280.194 4.82335C271.122 0.755278 260.966 -0.230682 251.28 2.01636C250.537 2.1999 250.746 4.02695 251.647 3.81004C257.54 2.47634 263.641 2.34303 269.586 3.41809C275.531 4.49314 281.198 6.7545 286.248 10.067C291.501 13.5014 295.927 18.0547 299.209 23.4002C302.492 28.7457 304.55 34.7509 305.236 40.985C305.922 48.1154 304.745 55.3016 301.821 61.8417C301.47 62.676 302.405 63.869 302.898 62.7594V62.7094Z" fill="#2B2523"/>
<path d="M264.17 10.2339C258.475 6.26281 252.564 2.09147 245.658 0.564761C239.371 -0.811781 233.084 0.281112 228.032 4.36068C223.29 8.19832 220.083 13.7629 217.929 19.3775C215.411 25.6299 214.548 32.4253 215.424 39.1079C216.361 45.9002 219.659 52.1467 224.742 56.7527C225.486 57.4034 225.895 55.6265 225.319 55.0842C215.85 46.7916 214.464 33.218 218.397 21.8386C220.292 16.4492 223.181 11.0682 227.356 7.09708C229.526 5.03426 232.149 3.50726 235.015 2.63811C237.882 1.76895 240.912 1.58176 243.863 2.09147C251.269 3.25111 257.565 7.6477 263.568 11.8608C264.403 12.4364 264.771 10.6761 264.145 10.1922L264.17 10.2339Z" fill="#2B2523"/>
<path d="M226.115 48.5851C225.889 44.2386 225.656 39.0578 229.396 36.0044C233.137 32.9509 238.581 35.4955 242.798 36.2463C247.649 37.1043 252.625 36.9595 257.418 35.8208C262.102 34.7196 266.486 32.4837 271.253 31.6495C274.844 31.0655 279.035 31.4659 281.899 33.9187C285.356 36.872 284.713 41.644 284.07 45.6485C283.427 49.653 282.651 54.7003 285.189 58.3794C286.917 60.8822 290.541 62.751 293.539 61.4245C293.956 61.2326 294.282 60.9073 294.682 60.707C295.156 60.523 295.661 60.4378 296.169 60.4567C297.193 60.4208 298.211 60.6266 299.141 61.0574C300.014 61.4462 300.764 62.0644 301.313 62.8461C301.861 63.6277 302.187 64.5435 302.256 65.4957C302.232 66.5132 301.963 67.51 301.47 68.4006C300.977 69.2912 300.275 70.0493 299.425 70.6098C297.931 71.6526 296.286 71.6943 294.566 71.9613C293.873 72.0698 293.664 72.9708 293.814 73.5548C295.484 79.9202 293.814 86.536 290.199 91.9087C286.214 97.6669 280.315 101.826 273.549 103.647C266.295 105.583 258.664 105.623 251.389 103.764C244.384 102.095 237.195 98.9749 232.937 92.8514C228.369 86.2273 227.927 77.7344 227.484 69.9674C227.484 69.5002 227.234 68.7243 226.649 68.741C226.065 68.7577 225.814 69.5753 225.864 70.0008C226.257 77.5092 226.758 85.4264 230.357 92.184C234.089 99.2002 240.936 103.238 248.358 105.449C262.945 109.812 280.688 107.843 290.424 95.0038C295.158 88.7718 297.404 80.5126 295.376 72.8373L294.632 74.4307C296.169 74.1888 297.705 74.1721 299.125 73.4546C300.918 72.517 302.339 70.9994 303.157 69.1498C303.974 67.3909 304.122 65.3955 303.575 63.5353C303.029 61.6751 301.824 60.0769 300.185 59.0385C298.515 58.0695 296.539 57.7712 294.657 58.2042C293.822 58.3878 293.28 59.0385 292.436 59.2888C291.519 59.4996 290.56 59.4446 289.673 59.1303C284.838 57.5368 284.73 52.3644 285.339 48.1096C285.999 43.5545 287.109 38.5906 284.713 34.3275C282.717 30.7651 278.676 29.1717 274.752 28.9882C269.934 28.7629 265.375 30.7651 260.9 32.2668C255.696 34.0763 250.15 34.6866 244.676 34.0522C239.541 33.4181 233.488 30.1228 228.762 33.6934C224.194 37.1473 224.22 43.4877 224.495 48.6268C224.495 49.094 224.746 49.8615 225.33 49.8532C225.915 49.8449 226.165 49.0189 226.115 48.5851Z" fill="#2B2523"/>
<path d="M246.796 102.929C242.077 103.282 237.466 104.516 233.203 106.567C232.502 106.909 232.777 108.744 233.57 108.352C237.726 106.35 242.221 105.141 246.821 104.79C247.656 104.723 247.598 102.854 246.78 102.929H246.796Z" fill="#2B2523"/>
<path d="M281.63 102.145L292.485 102.454C293.32 102.454 293.278 100.61 292.435 100.585L281.58 100.277C280.745 100.277 280.795 102.12 281.63 102.145Z" fill="#2B2523"/>
<path d="M248.925 105.708C251.056 108.111 253.724 109.979 256.712 111.161C259.699 112.344 262.924 112.807 266.124 112.514C269.324 112.221 272.411 111.179 275.133 109.474C277.856 107.768 280.139 105.446 281.798 102.696C282.207 102.037 281.497 100.443 280.904 101.403C279.302 104.016 277.107 106.216 274.498 107.826C271.888 109.436 268.936 110.411 265.88 110.671C262.824 110.932 259.749 110.471 256.904 109.326C254.059 108.182 251.523 106.385 249.501 104.081C249.192 103.739 248.791 104.147 248.666 104.439C248.584 104.653 248.565 104.885 248.609 105.109C248.653 105.334 248.76 105.541 248.916 105.708H248.925Z" fill="#2B2523"/>
<path d="M263.855 118.563C263.404 118.963 263.069 119.477 262.887 120.052C262.704 120.626 262.681 121.239 262.819 121.825C262.89 122.401 263.139 122.941 263.531 123.368C263.923 123.796 264.439 124.091 265.007 124.211C265.548 124.272 266.096 124.18 266.587 123.945C267.078 123.711 267.494 123.344 267.787 122.885C268.15 122.332 268.329 121.679 268.299 121.018C268.269 120.358 268.032 119.724 267.62 119.206C267.246 118.703 266.714 118.339 266.109 118.173C265.503 118.006 264.86 118.047 264.281 118.288C264.102 118.416 263.967 118.596 263.895 118.804C263.823 119.012 263.818 119.237 263.88 119.448C263.963 119.756 264.239 120.282 264.656 120.073L264.923 119.965C264.982 119.965 265.049 119.965 264.923 119.965H265.091C265.287 119.94 265.487 119.94 265.683 119.965C265.525 119.965 265.683 119.965 265.733 119.965H265.867L266.159 120.082L266.293 120.149C266.36 120.149 266.401 120.224 266.293 120.149L266.552 120.332L266.76 120.532C266.827 120.582 266.71 120.482 266.719 120.474L266.76 120.532C266.798 120.573 266.832 120.618 266.861 120.666L266.944 120.783C266.877 120.632 267.019 120.899 266.944 120.783L267.003 120.908C267.003 120.949 267.078 121.133 267.003 120.983C266.927 120.833 267.003 120.983 267.003 121.05C266.999 121.074 266.999 121.1 267.003 121.125C267.003 121.216 267.003 120.991 267.003 121C267.003 121.008 267.003 121.1 267.003 121.141C267.003 120.916 267.003 121.183 267.003 121.141C267.003 121.191 267.003 121.241 267.003 121.283C267.003 121.325 267.003 121.175 267.003 121.175C267.003 121.175 267.003 121.225 267.003 121.25L266.952 121.383V121.45C266.911 121.55 266.952 121.4 266.952 121.383C266.952 121.367 266.844 121.567 266.802 121.625L266.76 121.684C266.76 121.759 266.802 121.625 266.802 121.634C266.769 121.678 266.732 121.719 266.694 121.759L266.485 121.959L266.368 122.042L266.31 122.084C266.13 122.193 265.94 122.283 265.742 122.351H265.6H265.291H265.007H264.94C264.94 122.351 265.049 122.351 264.982 122.351C264.915 122.351 264.873 122.351 264.823 122.301C264.73 122.277 264.64 122.241 264.556 122.193H264.498C264.423 122.193 264.556 122.193 264.548 122.193C264.539 122.193 264.439 122.117 264.414 122.101C264.389 122.084 264.256 121.917 264.205 121.909C264.155 121.901 264.297 122.034 264.256 121.967V121.917L264.164 121.792L264.089 121.675C264.038 121.617 264.139 121.775 264.139 121.767V121.709C264.097 121.617 264.063 121.525 264.03 121.433C263.997 121.342 264.08 121.642 264.03 121.433C264.027 121.381 264.027 121.328 264.03 121.275C264.03 121.275 264.03 121.041 264.03 121.216C264.03 121.392 264.03 121.216 264.03 121.158V121C264.03 120.808 264.03 121.183 264.03 121C264.03 120.816 264.03 120.791 264.08 120.691C264.13 120.591 264.022 120.891 264.08 120.808C264.084 120.772 264.084 120.735 264.08 120.699C264.096 120.648 264.116 120.598 264.139 120.549C264.063 120.674 264.197 120.391 264.139 120.549L264.214 120.416C264.214 120.416 264.306 120.315 264.306 120.29L264.256 120.349L264.314 120.282C264.394 120.201 264.481 120.125 264.573 120.057C264.72 119.904 264.814 119.708 264.84 119.498C264.88 119.256 264.851 119.007 264.757 118.78C264.59 118.413 264.272 118.196 263.922 118.463L263.855 118.563Z" fill="#2B2523"/>
<path d="M263.855 133.647C263.404 134.047 263.069 134.561 262.887 135.135C262.704 135.71 262.681 136.323 262.819 136.909C262.89 137.485 263.139 138.024 263.531 138.452C263.923 138.88 264.439 139.174 265.007 139.295C265.548 139.356 266.096 139.264 266.587 139.029C267.078 138.795 267.494 138.427 267.787 137.969C268.15 137.416 268.329 136.763 268.299 136.102C268.269 135.442 268.032 134.807 267.62 134.29C267.246 133.786 266.714 133.423 266.109 133.256C265.503 133.09 264.86 133.131 264.281 133.372C264.102 133.5 263.967 133.68 263.895 133.888C263.823 134.096 263.818 134.321 263.88 134.532C263.963 134.84 264.239 135.366 264.656 135.157L264.923 135.049C264.982 135.049 265.049 135.049 264.923 135.049H265.091C265.287 135.024 265.487 135.024 265.683 135.049C265.525 135.049 265.683 135.049 265.733 135.049H265.867L266.159 135.166L266.293 135.232C266.36 135.232 266.401 135.307 266.293 135.232L266.552 135.416C266.627 135.474 266.685 135.549 266.76 135.616C266.836 135.683 266.71 135.566 266.719 135.558L266.76 135.616C266.798 135.657 266.832 135.702 266.861 135.75C266.893 135.785 266.921 135.824 266.944 135.866C266.877 135.716 267.019 135.983 266.944 135.866L267.003 135.991C267.003 135.991 267.078 136.217 267.003 136.067C266.927 135.916 267.003 136.067 267.003 136.133C266.999 136.158 266.999 136.184 267.003 136.208C267.003 136.3 267.003 136.075 267.003 136.083C267.003 136.092 267.003 136.183 267.003 136.225C267.003 136 267.003 136.267 267.003 136.225C267.003 136.275 267.003 136.325 267.003 136.367C267.003 136.409 267.003 136.258 267.003 136.258C267.003 136.258 267.003 136.309 267.003 136.334L266.952 136.467V136.534C266.911 136.634 266.952 136.484 266.952 136.467C266.952 136.45 266.844 136.651 266.802 136.709L266.76 136.767C266.76 136.842 266.802 136.709 266.802 136.717C266.769 136.761 266.732 136.803 266.694 136.842L266.485 137.043L266.368 137.126H266.31C266.132 137.236 265.941 137.322 265.742 137.385H265.6H265.291H265.007C264.955 137.364 264.902 137.348 264.848 137.335C264.756 137.307 264.667 137.271 264.581 137.226H264.523C264.448 137.226 264.581 137.226 264.573 137.226C264.564 137.226 264.464 137.151 264.439 137.134C264.414 137.118 264.281 136.951 264.23 136.943C264.18 136.934 264.322 137.068 264.281 137.001V136.951L264.189 136.826L264.114 136.709C264.063 136.651 264.164 136.809 264.164 136.801V136.742C264.122 136.651 264.089 136.559 264.055 136.467C264.022 136.375 264.105 136.676 264.055 136.467C264.051 136.417 264.051 136.367 264.055 136.317C264.055 136.275 264.055 136.083 264.055 136.258C264.055 136.434 264.055 136.258 264.055 136.2V136.042C264.055 135.85 264.055 136.225 264.055 136.083C264.055 135.941 264.055 135.875 264.105 135.775C264.155 135.674 264.047 135.975 264.105 135.891C264.108 135.855 264.108 135.819 264.105 135.783C264.121 135.732 264.141 135.681 264.164 135.633C264.089 135.758 264.222 135.474 264.164 135.633L264.239 135.499C264.239 135.499 264.331 135.399 264.331 135.374L264.281 135.433L264.339 135.366C264.42 135.284 264.506 135.209 264.598 135.141C264.745 134.988 264.839 134.792 264.865 134.582C264.905 134.339 264.876 134.091 264.782 133.864C264.615 133.497 264.297 133.28 263.947 133.547L263.855 133.647Z" fill="#2B2523"/>
<path d="M154.653 151.492C146.362 162.897 137.695 175.16 137.244 189.802C137.044 196.242 138.522 202.883 142.254 208.214C145.694 213.111 150.821 216.507 156.223 218.901C162.602 221.721 169.466 223.298 176.262 224.557C177.164 224.724 177.298 222.889 176.546 222.747C170.737 221.781 165.025 220.299 159.48 218.317C154.136 216.315 148.909 213.528 144.993 209.282C135.808 199.321 137.478 184.296 142.772 172.908C146.112 165.691 150.854 159.209 155.522 152.794C155.981 152.16 155.288 150.583 154.62 151.5L154.653 151.492Z" fill="#2B2523"/>
<path d="M177.785 222.739C177.125 217.099 176.432 211.201 177.91 205.628C179.24 200.732 182.286 196.478 186.494 193.639C187.12 193.214 186.678 191.47 185.834 192.046C181.318 195.144 178.086 199.78 176.741 205.086C175.222 211.042 175.906 217.241 176.616 223.264C176.666 223.631 176.992 224.032 177.393 223.898C177.793 223.765 177.827 223.064 177.785 222.739Z" fill="#2B2523"/>
<path d="M186.362 190.052C176.828 184.06 166.279 179.859 155.234 177.655C154.341 177.471 154.199 179.323 154.959 179.457C165.893 181.624 176.339 185.766 185.786 191.679C186.621 192.221 187.013 190.461 186.362 190.052Z" fill="#2B2523"/>
<path d="M176.427 223.773C181.929 231.282 190.821 236.095 199.956 237.355C201.71 237.714 203.531 237.549 205.191 236.879C205.556 236.705 205.881 236.456 206.144 236.149C206.407 235.841 206.602 235.482 206.718 235.095C206.834 234.708 206.867 234.3 206.815 233.899C206.764 233.498 206.629 233.112 206.419 232.767C205.584 231.24 203.864 230.147 202.394 229.271C200.902 228.413 199.363 227.639 197.785 226.952C195.222 225.792 192.6 224.724 189.961 223.731L189.686 225.542L200.666 227.544C203.171 228.011 207.062 228.896 208.289 225.75C209.266 223.248 207.195 221.27 205.099 220.311C201.956 218.942 198.687 217.88 195.339 217.141C194.011 216.815 192.633 216.64 191.331 216.215L189.11 215.497L188.951 217.333H197.301H201.05C202.419 217.333 203.855 217.466 205.225 217.333C206.459 217.133 207.625 216.628 208.615 215.864C209.173 215.556 209.597 215.052 209.805 214.45C210.013 213.847 209.991 213.189 209.742 212.602C209.383 211.301 208.765 209.607 207.337 209.173C206.16 208.823 204.891 208.665 203.688 208.406C200.632 207.738 197.576 207.046 194.504 206.354L188.659 205.01L188.542 206.846C192.2 207.128 195.878 207.022 199.513 206.529C201.224 206.317 202.92 205.997 204.59 205.569C205.794 205.348 206.867 204.673 207.588 203.684C209.166 201.106 206.753 198.737 204.623 197.619C201.737 196.166 198.636 195.183 195.439 194.707C191.63 194.167 187.788 193.885 183.941 193.865C183.106 193.865 183.106 195.7 183.941 195.725C187.598 195.782 191.248 196.06 194.871 196.559C198.319 197.093 202.043 198.003 205.024 199.896C205.737 200.272 206.319 200.853 206.694 201.565C207.02 202.508 206.143 203.083 205.383 203.425C203.772 204.033 202.088 204.423 200.373 204.585C196.421 205.194 192.412 205.345 188.425 205.035C187.665 204.985 187.632 206.704 188.308 206.871C192.26 207.789 196.213 208.69 200.165 209.574L204.072 210.408C205.161 210.513 206.233 210.755 207.262 211.126C207.846 211.557 208.252 212.186 208.406 212.894C208.522 213.202 208.606 213.52 208.656 213.845C208.656 213.729 208.815 213.487 208.656 213.678C208.527 213.814 208.388 213.94 208.239 214.054C207.342 214.8 206.265 215.301 205.116 215.506C203.798 215.576 202.477 215.576 201.158 215.506H197.201H188.851C188.074 215.506 188.091 217.132 188.734 217.341C193.994 219.051 199.505 219.844 204.598 222.096C205.642 222.563 208.038 223.832 206.87 225.258C205.701 226.685 203.296 226.226 201.676 225.934C197.735 225.225 193.802 224.491 189.87 223.773C188.976 223.615 188.859 225.308 189.594 225.584C191.406 226.259 193.201 226.985 194.98 227.744C197.745 228.776 200.393 230.098 202.878 231.69C203.677 232.191 204.405 232.797 205.041 233.492C205.709 234.277 205.517 234.752 204.623 235.161C203.121 235.887 201.284 235.72 199.664 235.495C195.552 234.857 191.583 233.511 187.932 231.515C183.744 229.317 180.098 226.213 177.262 222.43C176.594 221.521 175.959 223.139 176.427 223.773Z" fill="#2B2523"/>
<path d="M342.876 192.722C339.711 194.768 336.25 196.316 332.614 197.31C330.791 197.801 328.931 198.147 327.053 198.345C325.442 198.512 323.797 198.453 322.186 198.653C319.681 198.97 317.134 200.322 317.568 203.292C318.044 206.479 321.743 207.989 324.415 208.765C328.372 209.881 332.573 209.793 336.48 208.514C337.215 208.273 336.973 206.445 336.104 206.721C332.992 207.74 329.674 207.963 326.452 207.371C324.914 207.087 323.416 206.613 321.994 205.962C320.825 205.436 319.255 204.527 318.837 203.209C318.002 200.622 322.712 200.439 324.198 200.397C327.351 200.314 330.481 199.837 333.516 198.979C336.963 197.98 340.244 196.479 343.252 194.524C343.903 194.098 343.594 192.271 342.876 192.738V192.722Z" fill="#2B2523"/>
<path d="M350.29 225.333C345.937 229.647 340.847 233.147 335.26 235.67C333.936 236.259 332.583 236.799 331.202 237.288C329.961 237.813 328.626 238.08 327.278 238.072C326.764 238.013 326.27 237.843 325.827 237.575C325.385 237.308 325.006 236.948 324.715 236.521C324.097 235.753 324.957 235.077 325.55 234.485C326.819 233.299 328.376 232.465 330.067 232.066C331.719 231.599 333.317 230.959 334.835 230.155C335.067 229.974 335.221 229.71 335.265 229.418C335.308 229.126 335.238 228.828 335.068 228.587C334.876 228.328 334.684 227.953 334.384 227.803C333.599 227.616 332.79 227.56 331.987 227.636C330.2 227.552 328.414 227.519 326.627 227.477C324.84 227.436 323.095 227.394 321.341 227.235C320.381 227.152 317.826 226.868 317.935 225.467C318.068 223.798 320.84 223.414 322.051 223.122L327.579 221.813L333.115 220.503C333.919 220.4 334.706 220.187 335.452 219.869C335.723 219.685 335.98 219.481 336.221 219.26C336.655 218.918 336.613 217.466 335.87 217.533C332.618 217.833 329.344 217.791 326.101 217.408C324.343 217.202 322.601 216.887 320.882 216.465C320.047 216.273 316.707 215.773 317.041 214.571C317.208 213.92 318.277 213.328 318.786 213.028C319.296 212.727 320.056 212.327 320.707 212.018C322.071 211.374 323.484 210.839 324.932 210.417C327.951 209.543 331.095 209.182 334.233 209.349C335.068 209.39 335.027 207.53 334.192 207.488C330.511 207.292 326.826 207.801 323.337 208.99C321.505 209.599 319.746 210.41 318.093 211.409C316.899 212.143 315.764 213.186 315.705 214.688C315.647 216.19 316.716 217.107 318.035 217.558C319.857 218.145 321.722 218.589 323.613 218.884C327.667 219.588 331.797 219.757 335.895 219.385L335.544 217.65C335.244 217.923 334.892 218.133 334.509 218.267C333.499 218.609 332.388 218.776 331.344 219.018L325.416 220.428C323.41 220.802 321.427 221.295 319.479 221.904C318.786 222.121 318.163 222.519 317.675 223.057C317.188 223.596 316.853 224.255 316.707 224.966C316.156 228.303 319.797 228.987 322.285 229.137C326.268 229.396 330.267 229.304 334.25 229.613L333.808 229.354L334.217 229.905L334.45 228.337C332.886 229.164 331.237 229.821 329.532 230.297C327.847 230.715 326.294 231.55 325.015 232.725C323.279 234.393 322.51 236.362 324.281 238.281C324.647 238.757 325.109 239.151 325.636 239.439C326.164 239.726 326.746 239.9 327.345 239.95C328.854 239.939 330.344 239.624 331.728 239.024C335.132 237.817 338.398 236.253 341.473 234.36C344.899 232.251 348.073 229.757 350.933 226.927C351.475 226.393 350.983 224.632 350.273 225.333H350.29Z" fill="#2B2523"/>
<path d="M350.993 229.521C358.507 223.865 368.101 222.847 376.726 219.777C384.066 217.158 391.706 212.594 394.21 204.76C395.705 200.08 395.146 195.041 393.968 190.353C390.373 176.556 383.212 163.946 373.203 153.787C365.63 146.337 356.779 140.38 348.429 133.906C347.636 133.289 347.244 135.057 347.845 135.575C355.009 141.156 362.498 146.328 369.295 152.368C376.182 158.496 381.904 165.816 386.186 173.976C388.312 178.026 390.1 182.245 391.53 186.59C393.058 191.254 394.411 196.309 393.726 201.256C392.566 209.691 385.034 214.73 377.67 217.583C368.544 221.112 358.365 221.971 350.341 228.011C349.732 228.47 350.191 230.214 351.001 229.605L350.993 229.521Z" fill="#2B2523"/>
<path d="M369.943 175.619C364.934 177.037 360.275 179.791 355.832 182.393C351.658 184.896 347.483 187.558 343.492 190.336C342.657 190.903 341.822 191.47 341.037 192.054C340.838 192.278 340.731 192.568 340.739 192.868C340.746 193.167 340.868 193.452 341.079 193.664C352.434 201.098 351.357 216.19 350.096 227.936C349.988 228.921 351.157 229.605 351.29 228.403C352.067 221.204 352.877 213.754 351.14 206.629C349.746 200.881 346.698 195.341 341.655 192.038L341.696 193.648C348.382 188.748 355.433 184.366 362.788 180.541C365.185 179.259 367.702 178.214 370.303 177.421C371.046 177.213 370.82 175.377 369.935 175.628L369.943 175.619Z" fill="#2B2523"/>
<path d="M184.14 168.044L186.344 191.036L186.653 194.323C186.761 195.441 187.989 195.441 187.88 194.323L185.676 171.331L185.359 168.044C185.258 166.918 184.031 166.918 184.14 168.044Z" fill="#2B2523"/>
<path d="M190.807 234.986C191.133 237.046 191.359 239.115 191.642 241.176C191.781 242.602 192.104 244.004 192.603 245.347C192.745 245.706 193.12 245.94 193.438 245.664C193.587 245.491 193.684 245.28 193.718 245.054C193.752 244.828 193.721 244.597 193.63 244.388C193.188 243.141 192.907 241.843 192.795 240.525C192.527 238.498 192.302 236.471 191.96 234.452C191.901 234.093 191.592 233.668 191.183 233.818C190.774 233.968 190.732 234.652 190.791 234.977L190.807 234.986Z" fill="#2B2523"/>
<path d="M193.123 245.806C214.929 243.809 236.88 247.509 256.823 256.543C257.658 256.91 257.825 255.067 257.107 254.741C241.541 247.709 224.721 243.868 207.643 243.445C202.787 243.323 197.927 243.485 193.09 243.929C192.255 244.004 192.322 245.865 193.14 245.79L193.123 245.806Z" fill="#2B2523"/>
<path d="M256.313 256.285C258.212 257.376 260.358 257.967 262.548 258.004C264.739 258.04 266.903 257.52 268.837 256.493C269.53 256.118 269.238 254.291 268.47 254.708C266.636 255.685 264.582 256.177 262.504 256.137C260.426 256.098 258.393 255.528 256.597 254.482C256.204 254.249 255.912 254.866 255.862 255.15C255.815 255.362 255.832 255.584 255.913 255.787C255.993 255.989 256.132 256.162 256.313 256.285Z" fill="#2B2523"/>
<path d="M268.68 256.543C281.438 253.982 294.255 251.679 307.089 249.393C317.835 247.466 328.589 245.481 339.394 243.837C340.413 243.766 341.428 243.635 342.433 243.445C343.744 243.061 344.053 241.535 344.103 240.35C344.146 237.992 344.001 235.635 343.669 233.3C343.56 232.174 342.333 232.174 342.441 233.3C342.705 235.377 342.861 237.465 342.909 239.557C342.909 240.625 342.85 241.551 341.648 241.643C340.897 241.693 340.153 241.818 339.402 241.927C335.294 242.552 331.186 243.27 327.086 243.971C313.972 246.223 300.871 248.565 287.784 250.995C281.397 252.18 275.001 253.373 268.622 254.658C267.787 254.824 267.895 256.677 268.672 256.518L268.68 256.543Z" fill="#2B2523"/>
<path d="M344.814 191.095C345.449 185.747 345.248 180.324 345.541 174.96C345.666 172.708 346.576 169.704 345.307 167.669C344.933 167.149 344.449 166.718 343.889 166.408C343.329 166.098 342.706 165.916 342.067 165.875C340.397 165.625 338.727 165.55 337.057 165.441C322.771 164.593 308.435 165.597 294.407 168.428C286.532 169.992 278.761 172.037 271.136 174.551C270.402 174.793 270.644 176.629 271.512 176.337C284.429 172.047 297.776 169.18 311.315 167.785C318.001 167.12 324.722 166.874 331.438 167.051C334.778 167.135 338.159 167.293 341.499 167.66C342.944 167.819 344.572 168.228 344.689 169.938C344.68 171.13 344.588 172.321 344.413 173.5C344.004 179.198 344.288 184.955 343.628 190.636C343.512 191.612 344.672 192.305 344.814 191.095Z" fill="#2B2523"/>
<path d="M271.036 174.785C268.737 175.75 266.264 176.232 263.771 176.202C261.277 176.172 258.816 175.63 256.541 174.61C255.706 174.251 255.539 176.095 256.257 176.42C258.639 177.48 261.212 178.04 263.819 178.065C266.426 178.091 269.01 177.582 271.412 176.57C272.13 176.27 271.871 174.435 271.036 174.785Z" fill="#2B2523"/>
<path d="M257.034 174.193C238.356 172.524 219.728 170.297 201.091 168.353C195.798 167.796 190.509 167.279 185.227 166.801C184.392 166.726 184.434 168.586 185.269 168.661C203.947 170.33 222.575 172.557 241.211 174.501C246.511 175.057 251.813 175.575 257.118 176.053C257.953 176.12 257.911 174.259 257.067 174.184L257.034 174.193Z" fill="#2B2523"/>
<path d="M256.031 175.561L256.958 237.906C257.053 243.818 257.142 249.733 257.225 255.651C257.225 256.118 257.484 256.885 258.06 256.869C258.637 256.852 258.895 256.034 258.845 255.609C258.545 234.83 258.236 214.046 257.919 193.256C257.824 187.349 257.735 181.437 257.651 175.519C257.651 175.052 257.392 174.284 256.816 174.293C256.24 174.301 256.023 175.127 256.031 175.561Z" fill="#2B2523"/>
<path d="M269.809 176.837C267.956 196.985 267.195 217.217 267.53 237.447C267.624 243.237 267.811 249.021 268.089 254.8C268.089 255.267 268.34 256.034 268.924 256.026C269.509 256.018 269.759 255.192 269.717 254.758C268.753 234.66 268.878 214.525 270.093 194.44C270.438 188.773 270.872 183.114 271.396 177.463C271.437 176.962 271.396 176.145 270.786 175.945C270.177 175.744 269.843 176.37 269.801 176.837H269.809Z" fill="#2B2523"/>
<path d="M264.933 174.468C278.372 166.702 293.513 162.348 309.028 161.787C311.65 161.695 314.28 161.712 316.901 161.837C317.992 161.981 319.092 162.034 320.191 161.996C320.442 161.912 320.699 161.848 320.959 161.804C321.06 161.804 320.893 161.804 321.202 161.971L322.037 162.321C324.049 163.214 326.003 164.256 327.923 165.333C328.686 165.761 329.437 166.195 330.177 166.634L330.862 167.043C330.937 167.085 331.305 167.31 331.021 167.135C331.856 167.66 332.257 165.908 331.597 165.466C329.092 163.956 326.587 162.521 323.965 161.245C323.092 160.766 322.182 160.359 321.243 160.027C320.592 159.843 319.916 160.144 319.223 160.077C316.669 159.847 314.104 159.764 311.541 159.827C295.037 159.98 278.853 164.391 264.557 172.633C263.881 173.025 264.173 174.86 264.925 174.426L264.933 174.468Z" fill="#2B2523"/>
<path d="M264.491 172.616C248.671 166.963 232.119 163.614 215.344 162.672C210.577 162.446 205.792 162.446 201.025 162.672L201.659 163.589V163.406C201.659 163.08 201.375 162.254 200.866 162.571C197.986 164.09 195.456 166.175 192.583 167.702C191.89 168.069 192.174 169.905 192.951 169.487C195.823 167.969 198.361 165.883 201.234 164.357L200.399 163.481V163.664C200.399 163.998 200.582 164.607 201.033 164.582C217.769 163.859 234.515 165.774 250.655 170.255C255.206 171.481 259.715 172.891 264.165 174.426C265 174.727 265.192 172.883 264.449 172.624L264.491 172.616Z" fill="#2B2523"/>
<path d="M230.99 121.609C228.485 125.68 228.251 130.677 227.775 135.291C227.324 139.637 226.982 144.976 223.517 148.113C221.254 150.157 218.148 150.975 215.167 151.342C212.041 151.717 208.882 151.717 205.757 151.342C199.436 150.678 193.442 148.201 188.498 144.209C183.467 140.114 180.108 134.322 179.055 127.924C178.996 127.549 178.687 127.006 178.22 127.031C177.71 127.106 177.19 127.062 176.701 126.903C176.211 126.744 175.765 126.474 175.397 126.114C174.595 125.051 174.085 123.797 173.919 122.476C173.683 121.442 173.571 120.383 173.585 119.323C173.585 118.488 173.627 117.354 174.279 116.778C175.264 115.944 176.9 116.928 177.81 117.454C178.838 118.029 179.782 118.742 180.616 119.573C182.392 121.392 183.841 123.503 184.899 125.813C185.075 126.205 185.617 126.698 186.027 126.23C189.364 122.4 191.729 117.822 192.92 112.884C194.112 107.947 194.096 102.795 192.873 97.8654L192.531 99.2836L192.948 98.8164H192.113C199.81 105.864 209.733 109.996 220.16 110.496L219.884 108.068L218.916 108.686C218.608 108.928 218.404 109.279 218.346 109.667C218.289 110.055 218.382 110.45 218.607 110.772C221.051 114.439 223.996 117.747 227.357 120.599C229.01 121.989 230.76 123.26 232.593 124.403C233.528 124.987 234.48 125.546 235.448 126.072C235.917 126.35 236.328 126.715 236.659 127.148C237.427 127.982 237.945 126.222 237.828 125.713C235.081 113.9 235.44 100.635 227.7 90.5822C224.331 86.1884 219.838 82.7842 214.695 80.7286C209.551 78.673 203.948 78.0421 198.476 78.9025C192.063 79.9841 186.149 83.0409 181.559 87.6456C180.85 88.3631 181.509 90.7157 182.436 89.773C185.283 86.8634 188.706 84.5791 192.487 83.0657C196.267 81.5524 200.322 80.8434 204.392 80.9839C208.462 81.1244 212.458 82.1114 216.124 83.8819C219.791 85.6523 223.048 88.1674 225.688 91.2663C229.437 95.6713 231.532 101.052 232.751 106.642C234.213 113.174 234.747 119.882 236.258 126.406L237.427 124.971C237.157 124.629 236.855 124.313 236.525 124.028C235.69 123.419 234.63 123.019 233.745 122.476C231.865 121.338 230.073 120.061 228.384 118.655C225.029 115.877 222.093 112.629 219.667 109.011L219.358 111.097L220.327 110.471C221.062 110.004 221.162 108.094 220.051 108.043C209.928 107.546 200.3 103.519 192.84 96.664C192.729 96.554 192.579 96.4922 192.422 96.4922C192.266 96.4922 192.116 96.554 192.005 96.664C191.667 96.974 191.429 97.3778 191.322 97.8237C191.215 98.2696 191.243 98.7373 191.404 99.1668C191.692 100.372 191.893 101.596 192.005 102.829C192.344 106.654 191.905 110.508 190.716 114.16C189.526 117.812 187.61 121.185 185.083 124.078L186.21 124.504C185.149 122.175 183.741 120.021 182.035 118.113C180.474 116.369 178.228 114.542 175.873 114.05C173.519 113.558 172.275 115.719 172.016 117.813C171.774 120.168 172.033 122.547 172.776 124.796C173.136 126.307 173.966 127.665 175.147 128.675C176.066 129.34 177.201 129.637 178.328 129.509L177.493 128.617C179.389 141.297 190.018 150.683 202.242 153.244C205.476 153.926 208.783 154.206 212.086 154.078C215.236 154.072 218.356 153.454 221.271 152.26C226.28 149.957 228.067 145.052 228.852 139.946C229.295 137.034 229.47 134.106 229.862 131.161C230.087 128.426 230.868 125.766 232.159 123.344C232.323 123.08 232.41 122.775 232.41 122.464C232.41 122.153 232.323 121.848 232.159 121.584C232.103 121.479 232.02 121.391 231.919 121.33C231.817 121.269 231.701 121.236 231.582 121.236C231.464 121.236 231.347 121.269 231.246 121.33C231.144 121.391 231.062 121.479 231.006 121.584L230.99 121.609Z" fill="#2B2523"/>
<path d="M181.678 87.4788C179.606 87.5342 177.566 88.0009 175.677 88.8516C173.787 89.7024 172.086 90.9203 170.673 92.4343C167.648 95.6898 165.62 99.7429 164.828 104.114C162.64 114.467 165.93 124.912 164.828 135.307C164.552 137.852 163.934 140.605 162.123 142.532C161.337 143.442 160.311 144.111 159.162 144.464C158.013 144.817 156.787 144.838 155.627 144.526C154.474 144.159 154.249 146.612 155.251 146.937C159.501 148.322 163.392 145.202 165.053 141.473C167.082 136.917 166.807 131.361 166.515 126.506C165.938 116.77 163.734 105.374 169.763 96.7975C172.518 92.8765 176.902 89.9982 181.786 89.9982C182.888 89.9982 182.838 87.4954 181.728 87.4954L181.678 87.4788Z" fill="#2B2523"/>
<path d="M153.881 146.361C154.292 151.38 156.661 156.037 160.477 159.326C164.299 162.315 169.074 163.821 173.92 163.564C175.031 163.514 174.964 161.061 173.862 161.061C169.507 161.305 165.201 160.048 161.663 157.499C159.928 156.148 158.485 154.46 157.423 152.535C156.361 150.61 155.701 148.49 155.484 146.303C155.443 145.836 155.242 145.06 154.649 145.077C154.057 145.093 153.814 145.911 153.814 146.345L153.881 146.361Z" fill="#2B2523"/>
<path d="M180.598 85.6848C179.763 86.469 178.528 85.9017 177.776 85.2927C176.798 84.4768 175.898 83.5719 175.087 82.5897C173.429 80.6474 172.041 78.4892 170.963 76.1741C170.754 75.732 170.278 75.3399 169.827 75.757C169.636 75.9852 169.511 76.2617 169.467 76.5561C169.423 76.8505 169.461 77.1513 169.577 77.4255C170.835 80.1539 172.486 82.6836 174.478 84.934C176.014 86.6609 179.02 90.0981 181.475 87.7872C181.666 87.559 181.791 87.2824 181.835 86.9881C181.879 86.6937 181.841 86.3929 181.726 86.1186C181.533 85.6681 181.032 85.2844 180.598 85.7015V85.6848Z" fill="#2B2523"/>
<path d="M169.414 75.1151C168.074 77.0503 167.09 79.2087 166.508 81.4889C166.409 81.7714 166.388 82.0754 166.446 82.3689C166.505 82.6625 166.642 82.9349 166.842 83.1575C166.941 83.2275 167.055 83.271 167.175 83.2838C167.295 83.2965 167.417 83.2781 167.528 83.2303C167.639 83.1825 167.735 83.1068 167.808 83.0108C167.881 82.9147 167.928 82.8015 167.945 82.6819C168.22 81.6074 168.586 80.558 169.038 79.5451C169.197 79.1947 169.422 78.7108 169.698 78.2686C169.973 77.8265 170.282 77.2926 170.608 76.817C170.764 76.5499 170.843 76.2445 170.836 75.9351C170.829 75.6257 170.735 75.3245 170.566 75.0651C170.511 74.9603 170.428 74.8725 170.327 74.8113C170.225 74.7501 170.109 74.7178 169.99 74.7178C169.872 74.7178 169.755 74.7501 169.654 74.8113C169.552 74.8725 169.469 74.9603 169.414 75.0651V75.1151Z" fill="#2B2523"/>
<path d="M166.698 84.1C169.75 86.2324 173.009 88.0519 176.425 89.5311C177.511 89.9983 177.77 87.5372 176.801 87.1284C173.513 85.717 170.377 83.9755 167.441 81.9309C166.339 81.1634 165.83 83.516 166.673 84.1H166.698Z" fill="#2B2523"/>
<path d="M182.267 73.7717C182.289 78.3324 181.844 82.8834 180.94 87.3536C180.839 87.8541 181.006 88.6717 181.549 88.872C182.092 89.0722 182.443 88.4214 182.534 87.9793C183.475 83.2914 183.931 78.5194 183.895 73.7383C183.895 73.2545 183.637 72.512 183.06 72.512C182.484 72.512 182.276 73.3462 182.276 73.7717H182.267Z" fill="#2B2523"/>
<path d="M183.104 74.5061L188.398 74.7648C188.516 74.7513 188.628 74.7102 188.727 74.645C188.826 74.5797 188.907 74.4922 188.966 74.3893C189.119 74.1204 189.194 73.8142 189.183 73.505C189.183 73.0045 188.932 72.312 188.348 72.2786L183.063 72.02C182.944 72.0337 182.831 72.0758 182.732 72.1426C182.633 72.2094 182.552 72.299 182.495 72.4038C182.336 72.6706 182.261 72.9784 182.278 73.2881C182.278 73.7887 182.52 74.4811 183.113 74.5061H183.104Z" fill="#2B2523"/>
<path d="M188.114 73.4963C187.86 77.5316 186.609 81.4412 184.473 84.8757C184.311 85.139 184.225 85.4423 184.225 85.7517C184.225 86.061 184.311 86.3643 184.473 86.6276C184.529 86.7324 184.611 86.8202 184.713 86.8814C184.814 86.9426 184.931 86.9749 185.049 86.9749C185.168 86.9749 185.284 86.9426 185.386 86.8814C185.487 86.8202 185.57 86.7324 185.626 86.6276C186.821 84.6617 187.792 82.5686 188.523 80.3873C189.225 78.1481 189.624 75.8248 189.709 73.4796C189.709 73.004 189.425 72.2532 188.874 72.2615C188.322 72.2699 188.114 73.0958 188.089 73.5213L188.114 73.4963Z" fill="#2B2523"/>
<path d="M292.661 115.46C292.324 122.024 292.722 128.606 293.846 135.082C294.99 141.005 297.679 146.92 302.438 150.808C307.966 155.305 315.397 155.605 322.185 154.846C328.974 154.087 335.745 151.926 340.914 147.387C343.581 145.051 345.701 142.157 347.126 138.911C347.82 137.312 348.302 135.629 348.562 133.906C348.779 132.454 349.088 130.902 348.136 129.734L347.61 131.87C352.62 131.628 357.07 126.03 353.238 121.634C351.818 119.965 349.789 118.872 347.76 120.14C345.731 121.408 344.571 123.436 343.419 125.321C342.876 126.205 343.828 128.324 344.613 127.048C345.398 125.646 346.358 124.348 347.468 123.185C348.721 121.984 349.973 121.667 351.434 122.793C352.063 123.259 352.581 123.857 352.954 124.545C353.094 124.965 353.113 125.415 353.008 125.845C352.903 126.274 352.679 126.665 352.361 126.973C351.781 127.698 351.051 128.288 350.221 128.705C349.39 129.121 348.48 129.353 347.552 129.384C346.642 129.426 346.6 130.977 347.026 131.52L347.41 132.012L347.151 131.136C347.067 136.859 343.861 142.098 339.553 145.686C334.685 149.74 328.339 151.676 322.127 152.36C315.915 153.044 309.018 152.994 303.824 149.114C299.341 145.777 296.702 140.513 295.558 135.14C294.189 128.708 294.08 121.959 294.289 115.418C294.289 114.951 294.013 114.184 293.454 114.192C292.895 114.2 292.686 115.026 292.669 115.46H292.661Z" fill="#2B2523"/>
<path d="M344.587 125.738C339.014 121.188 335.13 114.902 333.557 107.885C333.293 106.719 333.101 105.537 332.981 104.348C332.948 103.447 332.822 102.553 332.605 101.678C332.513 101.369 332.037 100.844 331.67 101.127C328.166 103.45 324.542 105.589 320.815 107.534C319.012 108.477 317.175 109.37 315.321 110.212C314.336 110.663 313.351 111.105 312.349 111.522C312.115 111.622 311.514 111.989 311.43 111.989C311.223 111.954 311.023 111.887 310.837 111.789L311.088 114.058C314.471 111.489 316.905 107.871 318.01 103.772C318.127 103.33 317.951 101.369 317.041 101.962C309.631 106.943 301.672 111.056 293.32 114.217C291.883 114.743 290.42 115.194 288.936 115.568C287.951 115.81 286.156 116.453 285.212 116.052L285.822 117.571C286.372 113.5 287.807 109.598 290.025 106.14C292.244 102.681 295.192 99.7489 298.664 97.5483C305.594 93.0433 313.935 92.0171 322.043 92.9849C326.605 93.4699 331.03 94.8386 335.068 97.0144C336.062 97.565 336.362 95.1206 335.444 94.6033C328.021 90.432 318.553 89.4058 310.236 90.6656C306.067 91.3118 302.07 92.7897 298.484 95.0113C294.898 97.2328 291.795 100.153 289.362 103.597C286.577 107.556 284.813 112.141 284.227 116.945C284.169 117.471 284.277 118.221 284.837 118.463C285.822 118.872 287.108 118.463 288.118 118.255C289.444 117.976 290.754 117.625 292.042 117.204C294.95 116.244 297.795 115.101 300.559 113.783C305.428 111.488 310.167 108.926 314.753 106.108C315.697 105.532 316.64 104.957 317.567 104.348L316.599 102.546C315.602 106.301 313.363 109.609 310.245 111.931C309.643 112.382 309.727 113.933 310.495 114.192C310.902 114.409 311.376 114.465 311.823 114.35C312.843 113.989 313.838 113.563 314.804 113.074C316.841 112.162 318.85 111.197 320.832 110.179C324.739 108.164 328.533 105.936 332.196 103.505L331.261 102.963C331.31 103.075 331.346 103.193 331.369 103.313C331.286 103.021 331.261 102.996 331.286 103.238C331.311 103.48 331.286 103.563 331.286 103.73C331.336 104.331 331.394 104.923 331.469 105.524C331.627 106.765 331.853 107.996 332.146 109.211C332.731 111.642 333.571 114.005 334.651 116.261C336.835 120.758 339.969 124.728 343.835 127.899C344.871 128.733 345.397 126.381 344.612 125.73L344.587 125.738Z" fill="#2B2523"/>
<path d="M332.289 97.9572C334.911 96.4555 338.284 96.9811 340.948 98.0991C343.592 99.2558 345.909 101.047 347.694 103.313C349.679 105.739 351.066 108.597 351.744 111.656C352.396 115.081 352.486 118.589 352.011 122.043C351.952 122.535 352.011 123.361 352.62 123.553C353.23 123.744 353.547 123.127 353.597 122.66C354.432 115.202 353.656 107.593 348.805 101.561C346.828 99.0168 344.245 97.0088 341.29 95.7214C338.376 94.495 334.61 93.9611 331.763 95.5962C330.861 96.1218 331.254 98.5579 332.256 97.9823L332.289 97.9572Z" fill="#2B2523"/>
<path d="M348.346 125.304C348.412 125.242 348.482 125.183 348.555 125.129C348.463 125.196 348.555 125.129 348.613 125.129L348.747 125.062L348.872 125.021H348.931C349.028 125.008 349.126 125.008 349.223 125.021C349.315 125.012 349.407 125.012 349.499 125.021H349.632H349.732L349.991 125.113L350.108 125.171H350.166C350.091 125.121 350.267 125.229 350.166 125.171C350.242 125.219 350.312 125.275 350.375 125.338L350.425 125.379C350.425 125.379 350.509 125.48 350.526 125.505V125.563C350.542 125.606 350.561 125.648 350.584 125.688V125.755C350.575 125.813 350.575 125.872 350.584 125.93C350.584 125.93 350.584 125.772 350.584 125.872V126.013C350.584 126.072 350.584 126.055 350.584 125.955C350.58 126.002 350.58 126.05 350.584 126.097C350.584 126.097 350.584 126.097 350.584 126.164C350.584 126.072 350.584 126.23 350.584 126.164L350.534 126.314V126.381C350.534 126.381 350.4 126.606 350.375 126.648C350.357 126.663 350.342 126.683 350.333 126.706C350.333 126.748 350.392 126.631 350.333 126.706L350.208 126.839L350.066 126.956L350.008 126.998C349.914 127.058 349.813 127.106 349.707 127.14H349.64C349.532 127.14 349.716 127.14 349.64 127.14H349.457C349.173 127.14 349.056 127.532 349.064 127.774C349.073 128.016 349.19 128.408 349.49 128.383C350.062 128.297 350.582 128.002 350.949 127.555C351.316 127.108 351.505 126.541 351.477 125.963C351.491 125.407 351.285 124.868 350.904 124.462C350.522 124.056 349.997 123.816 349.44 123.794C349.164 123.774 348.887 123.814 348.628 123.91C348.368 124.007 348.133 124.158 347.937 124.353C347.844 124.469 347.783 124.607 347.761 124.753C347.739 124.9 347.757 125.05 347.812 125.188C347.904 125.396 348.154 125.613 348.371 125.396L348.346 125.304Z" fill="#2B2523"/>
<path d="M178.972 119.873C178.878 119.605 178.724 119.362 178.521 119.162C178.319 118.963 178.073 118.812 177.803 118.722C177.314 118.571 176.788 118.598 176.317 118.797C174.939 119.398 174.822 121.183 175.273 122.418C175.533 123.127 175.991 123.746 176.592 124.203C176.657 124.258 176.736 124.294 176.82 124.307C176.904 124.32 176.99 124.31 177.068 124.278C177.24 124.186 177.369 124.031 177.427 123.845C177.51 123.631 177.53 123.399 177.486 123.174C177.441 122.95 177.334 122.743 177.177 122.576L176.935 122.385C176.871 122.304 176.798 122.231 176.718 122.168C176.801 122.251 176.809 122.268 176.759 122.168L176.701 122.101L176.626 121.993C176.56 121.912 176.501 121.825 176.45 121.734C176.342 121.55 176.509 121.859 176.45 121.734L176.4 121.609L176.283 121.333C176.283 121.425 176.4 121.584 176.283 121.333V121.217C176.283 120.933 176.283 121.125 176.283 121.217C176.283 121.217 176.283 121.125 176.283 121.075V120.933C176.283 121.233 176.283 121.083 176.283 120.991C176.288 120.944 176.288 120.897 176.283 120.85C176.283 121.117 176.283 120.983 176.283 120.9C176.296 120.854 176.313 120.809 176.333 120.766C176.275 120.966 176.267 120.891 176.333 120.816L176.392 120.724C176.258 120.875 176.467 120.616 176.392 120.724L176.551 120.574C176.601 120.574 176.701 120.499 176.551 120.574L176.642 120.516C176.779 120.442 176.925 120.389 177.077 120.357H176.918C177.139 120.32 177.365 120.32 177.586 120.357H177.419C177.522 120.373 177.623 120.401 177.72 120.441L177.845 120.499H177.786L177.853 120.541L177.953 120.624C177.853 120.482 178.079 120.741 177.953 120.624C177.978 120.671 178.006 120.715 178.037 120.758C178.037 120.758 177.945 120.558 177.987 120.658C178.028 120.758 177.987 120.716 177.987 120.749C178.112 121.083 178.529 121.367 178.822 121.058C178.969 120.884 179.065 120.673 179.099 120.447C179.133 120.222 179.104 119.991 179.014 119.782L178.972 119.873Z" fill="#2B2523"/>
<path d="M308.936 152.26C307.844 153.313 306.963 154.565 306.339 155.947C305.771 157.199 305.387 158.517 304.869 159.785C304.764 160.067 304.74 160.373 304.8 160.668C304.861 160.963 305.003 161.236 305.212 161.453C305.679 161.837 306.13 161.453 306.314 160.978C306.807 159.768 307.149 158.475 307.7 157.315L307.775 157.149C307.775 157.149 307.9 156.89 307.834 157.023L307.892 156.907L308.001 156.698C308.151 156.431 308.301 156.172 308.476 155.922C308.858 155.35 309.306 154.827 309.812 154.362C309.999 154.131 310.12 153.855 310.164 153.562C310.208 153.269 310.173 152.969 310.063 152.694C309.879 152.251 309.362 151.859 308.936 152.276V152.26Z" fill="#2B2523"/>
<path d="M340.161 148.222C344.98 150.216 349.403 153.055 353.22 156.606C355.051 158.225 356.514 160.216 357.512 162.446C358.647 165.299 358.347 168.428 357.929 171.398C357.462 174.852 356.927 178.264 357.353 181.759C357.412 182.235 357.854 182.802 358.38 182.594C358.906 182.385 358.973 181.534 358.915 181.05C358.13 174.66 361.211 168.328 359.19 161.996C357.52 156.856 352.869 152.985 348.519 150.116C345.998 148.432 343.325 146.985 340.537 145.794C339.451 145.327 339.193 147.788 340.161 148.197V148.222Z" fill="#2B2523"/>
<path d="M346.758 176.804V188.484C346.758 188.842 346.958 189.401 347.392 189.401C347.827 189.401 347.977 188.792 347.977 188.45V176.77C347.977 176.412 347.776 175.853 347.342 175.853C346.908 175.853 346.758 176.462 346.758 176.804Z" fill="#2B2523"/>
<path d="M191.451 147.496L187.368 150.157C187.242 150.258 187.139 150.384 187.064 150.528C186.99 150.671 186.946 150.828 186.936 150.989C186.926 151.15 186.949 151.311 187.005 151.462C187.061 151.614 187.147 151.752 187.259 151.868C189.288 153.995 191.292 156.156 193.421 158.183C193.673 158.449 193.953 158.687 194.256 158.892C194.949 159.318 195.592 158.6 196.118 158.183L202.105 153.428C202.706 152.952 202.239 151.209 201.446 151.834L196.01 156.156C195.609 156.473 194.899 156.99 194.674 157.199C194.757 157.115 194.874 157.391 194.757 157.199C194.716 157.153 194.668 157.114 194.616 157.082C194.29 156.798 193.973 156.498 193.664 156.198C191.676 154.262 189.773 152.235 187.869 150.224L187.76 151.893L191.852 149.223C192.026 149.093 192.156 148.914 192.226 148.708C192.296 148.503 192.303 148.281 192.244 148.072C192.194 147.796 191.86 147.187 191.476 147.438L191.451 147.496Z" fill="#2B2523"/>
<path d="M204.817 153.528C205.761 154.02 206.279 155.271 206.78 156.156C207.385 157.317 208.269 158.312 209.351 159.051C209.888 159.424 210.529 159.618 211.182 159.606C211.836 159.594 212.469 159.376 212.992 158.984C213.501 158.557 213.885 158.001 214.104 157.374C214.323 156.747 214.369 156.072 214.236 155.421C214.069 154.212 213.501 152.71 212.324 152.151C211.539 151.776 211.33 153.611 212.04 153.953C212.346 154.179 212.597 154.471 212.774 154.808C212.95 155.144 213.048 155.517 213.059 155.897C213.063 155.953 213.063 156.008 213.059 156.064C213.054 156.133 213.054 156.203 213.059 156.272C213.059 156.197 213.059 156.398 213.059 156.423C213.039 156.512 213.008 156.599 212.967 156.681C212.744 157.112 212.369 157.445 211.915 157.616C211.411 157.767 210.875 157.769 210.371 157.621C209.867 157.472 209.417 157.181 209.076 156.781C208.368 156.04 207.777 155.196 207.322 154.279C206.846 153.228 206.078 152.336 205.11 151.709C204.709 151.5 204.417 152.084 204.366 152.376C204.318 152.591 204.336 152.815 204.418 153.019C204.5 153.223 204.642 153.398 204.826 153.519L204.817 153.528Z" fill="#2B2523"/>
<path d="M190.552 146.628C183.912 148.932 178.277 153.463 174.604 159.451C170.58 166.175 169.211 174.334 167.791 181.918C167.541 183.228 169.077 184.154 169.378 182.535C170.73 175.352 171.983 167.518 175.798 161.186C179.314 155.483 184.703 151.178 191.045 149.006C192.03 148.681 191.705 146.236 190.552 146.628Z" fill="#2B2523"/>
<path d="M213.407 154.487C215.444 156.231 218.141 156.598 220.512 157.674C221.648 158.122 222.606 158.928 223.243 159.968C223.853 161.306 224.205 162.747 224.278 164.215C224.337 164.682 224.779 165.274 225.305 165.049C225.831 164.824 225.898 164.006 225.831 163.506C225.716 161.837 225.306 160.201 224.62 158.675C223.95 157.352 222.881 156.272 221.564 155.588C219.201 154.304 216.271 154.103 214.175 152.318C213.732 151.934 213.24 152.318 213.073 152.785C212.974 153.068 212.952 153.372 213.011 153.665C213.07 153.959 213.206 154.231 213.407 154.454V154.487Z" fill="#2B2523"/>
<path d="M181.436 175.402C180.203 179.302 179.956 183.447 180.718 187.466C180.785 187.816 181.077 188.25 181.486 188.1C181.896 187.95 181.954 187.265 181.887 186.94C181.215 183.399 181.433 179.747 182.522 176.312C182.603 176.098 182.623 175.866 182.579 175.642C182.534 175.417 182.428 175.21 182.271 175.043C181.929 174.776 181.553 175.043 181.436 175.402Z" fill="#2B2523"/>
<path d="M273.279 109.779V139.454C273.279 141.279 272.553 143.03 271.261 144.321C269.969 145.611 268.217 146.336 266.39 146.336H264.411C262.724 146.336 261.106 145.667 259.912 144.474C258.719 143.282 258.049 141.665 258.049 139.979V111.447" stroke="#2B2523" stroke-width="2" stroke-miterlimit="10"/>
<path d="M220.485 119.723C220.481 119.74 220.481 119.757 220.485 119.773C220.482 119.809 220.482 119.846 220.485 119.882C220.476 120.047 220.526 120.21 220.627 120.341C220.953 120.707 221.33 121.024 221.746 121.283C221.988 121.459 222.222 121.625 222.439 121.817C222.932 122.251 223.458 123.019 224.176 122.994C224.217 123.002 224.26 123.002 224.301 122.994C224.376 122.973 224.444 122.932 224.498 122.877C224.552 122.821 224.591 122.752 224.61 122.677C224.819 121.842 223.9 121.092 223.324 120.624C222.898 120.249 222.423 119.932 221.913 119.682C221.627 119.541 221.319 119.448 221.003 119.406C220.919 119.394 220.833 119.406 220.756 119.441C220.679 119.477 220.614 119.534 220.569 119.607C220.567 119.637 220.567 119.668 220.569 119.698C220.569 119.698 220.485 119.665 220.485 119.723Z" fill="#1D1D1B"/>
<path d="M211.718 120.182C211.526 119.431 210.432 119.481 209.84 119.531C208.959 119.57 208.1 119.819 207.335 120.257C207.236 120.315 207.155 120.399 207.1 120.5C207.046 120.601 207.02 120.715 207.026 120.83C207.032 120.944 207.07 121.055 207.134 121.15C207.199 121.244 207.289 121.319 207.393 121.367C207.458 121.404 207.528 121.429 207.602 121.442H207.852L208.17 121.392C208.662 121.308 209.155 121.242 209.639 121.192C209.923 121.192 210.207 121.125 210.474 121.108C210.908 121.108 211.551 120.958 211.668 120.516C211.714 120.411 211.732 120.296 211.718 120.182Z" fill="#1D1D1B"/>
<path d="M215.359 135.283L215.626 135.441C215.626 135.399 215.718 135.499 215.626 135.441L215.734 135.541L215.826 135.641C215.759 135.541 215.935 135.758 215.826 135.641L215.976 135.883L216.026 136C215.968 135.867 216.026 136 216.026 136.042C216.06 136.137 216.085 136.234 216.102 136.334C216.102 136.25 216.102 136.275 216.102 136.334V136.459C216.106 136.509 216.106 136.559 216.102 136.609C216.102 136.776 216.102 136.492 216.102 136.651C216.084 136.742 216.059 136.831 216.026 136.918C216.026 136.984 216.077 136.826 216.026 136.918L215.951 137.051L215.859 137.176L215.659 137.377C215.542 137.485 215.759 137.31 215.659 137.377L215.525 137.46L215.417 137.518C215.317 137.568 215.359 137.518 215.417 137.518L215.125 137.61H214.966C214.801 137.614 214.644 137.682 214.528 137.798C214.411 137.915 214.344 138.071 214.34 138.236C214.342 138.401 214.409 138.559 214.526 138.676C214.643 138.793 214.801 138.859 214.966 138.862C215.554 138.889 216.132 138.71 216.6 138.354C217.069 137.999 217.397 137.49 217.527 136.917C217.658 136.344 217.582 135.743 217.314 135.22C217.046 134.697 216.602 134.285 216.06 134.056C215.918 133.983 215.753 133.966 215.599 134.008C215.444 134.049 215.311 134.147 215.225 134.281C215.148 134.423 215.128 134.588 215.17 134.744C215.212 134.899 215.313 135.032 215.45 135.116L215.359 135.283Z" fill="#1D1D1B"/>
<path d="M211.676 146.428C212.948 146.428 213.98 145.397 213.98 144.126C213.98 142.854 212.948 141.823 211.676 141.823C210.403 141.823 209.371 142.854 209.371 144.126C209.371 145.397 210.403 146.428 211.676 146.428Z" fill="#1D1D1B"/>
<path d="M210.877 128.643C211.278 127.238 210.934 125.909 210.11 125.674C209.285 125.439 208.291 126.387 207.89 127.791C207.489 129.196 207.833 130.525 208.658 130.76C209.482 130.995 210.476 130.047 210.877 128.643Z" fill="#1D1D1B"/>
<path d="M210.681 127.464C210.796 127.061 210.699 126.68 210.463 126.613C210.228 126.546 209.945 126.818 209.83 127.221C209.714 127.625 209.812 128.006 210.047 128.073C210.282 128.14 210.566 127.867 210.681 127.464Z" fill="white"/>
<path d="M221.121 131.563C221.522 130.158 221.179 128.829 220.354 128.594C219.529 128.359 218.535 129.307 218.134 130.712C217.733 132.116 218.077 133.445 218.902 133.681C219.727 133.916 220.72 132.968 221.121 131.563Z" fill="#1D1D1B"/>
<path d="M220.917 130.384C221.032 129.981 220.935 129.6 220.7 129.533C220.465 129.466 220.181 129.738 220.066 130.142C219.951 130.545 220.048 130.926 220.283 130.993C220.518 131.06 220.802 130.787 220.917 130.384Z" fill="white"/>
<path d="M307.032 120.624V120.674C307.036 120.71 307.036 120.747 307.032 120.783C307.019 120.947 306.948 121.101 306.831 121.217C306.454 121.531 306.035 121.792 305.587 121.992C305.323 122.119 305.066 122.261 304.819 122.418C304.276 122.777 303.633 123.461 302.932 123.336L302.815 123.294C302.744 123.262 302.681 123.212 302.635 123.149C302.588 123.086 302.558 123.013 302.548 122.935C302.464 122.101 303.483 121.475 304.118 121.091C304.595 120.78 305.112 120.534 305.654 120.357C305.958 120.256 306.277 120.208 306.597 120.215C306.681 120.217 306.761 120.243 306.831 120.288C306.9 120.334 306.955 120.398 306.99 120.474C306.994 120.505 306.994 120.535 306.99 120.566C307.007 120.583 307.021 120.603 307.032 120.624Z" fill="#1D1D1B"/>
<path d="M314.786 145.586C314.786 145.586 314.786 145.586 314.786 145.519C314.782 145.474 314.782 145.43 314.786 145.385C314.794 145.175 314.88 144.976 315.028 144.826C315.515 144.393 316.06 144.031 316.648 143.75C316.996 143.569 317.333 143.368 317.659 143.15C318.368 142.657 319.17 141.748 320.163 141.848L320.33 141.89C320.428 141.921 320.516 141.976 320.586 142.051C320.656 142.125 320.706 142.216 320.731 142.315C320.94 143.375 319.612 144.226 318.786 144.76C318.151 145.187 317.467 145.538 316.748 145.803C316.34 145.957 315.908 146.041 315.471 146.053C315.358 146.063 315.245 146.042 315.143 145.992C315.041 145.942 314.956 145.865 314.895 145.769C314.873 145.733 314.856 145.693 314.845 145.652L314.786 145.586Z" fill="#1D1D1B"/>
<path d="M314.531 122.284C314.832 121.567 315.909 121.776 316.485 121.909C317.346 122.078 318.155 122.447 318.848 122.985C318.939 123.056 319.008 123.15 319.049 123.258C319.089 123.365 319.098 123.482 319.076 123.595C319.053 123.707 319 123.812 318.921 123.896C318.842 123.98 318.742 124.04 318.631 124.07C318.56 124.092 318.487 124.106 318.414 124.111H318.263H318.171L317.862 124.011C317.387 123.861 316.911 123.728 316.426 123.603C316.151 123.527 315.884 123.452 315.591 123.394C315.157 123.311 314.539 123.094 314.489 122.635C314.466 122.517 314.481 122.394 314.531 122.284Z" fill="#1D1D1B"/>
<path d="M312.449 135.099C311.876 135.23 311.367 135.559 311.012 136.027C310.657 136.496 310.478 137.074 310.507 137.661C310.536 138.248 310.771 138.806 311.17 139.238C311.569 139.669 312.108 139.947 312.691 140.021C312.846 140.05 313.005 140.02 313.138 139.937C313.271 139.854 313.368 139.725 313.41 139.574C313.452 139.423 313.436 139.261 313.365 139.122C313.293 138.982 313.172 138.874 313.025 138.82L312.75 138.753C312.65 138.711 312.691 138.753 312.75 138.753L312.608 138.686L312.474 138.603C312.474 138.603 312.349 138.503 312.416 138.561C312.483 138.619 312.366 138.561 312.357 138.503L312.249 138.394L312.157 138.294C312.157 138.244 312.207 138.378 312.157 138.294L312.015 138.044C311.973 137.985 312.015 138.136 312.015 138.044L311.965 137.894C311.961 137.852 311.961 137.81 311.965 137.769C311.969 137.744 311.969 137.718 311.965 137.693C311.965 137.76 311.965 137.777 311.965 137.693C311.965 137.61 311.965 137.502 311.965 137.401C311.965 137.301 311.965 137.452 311.965 137.401C311.965 137.351 311.965 137.31 311.965 137.268C311.975 137.217 311.989 137.167 312.007 137.118C312.007 137.16 312.048 137.009 312.007 137.118L312.149 136.859L312.199 136.792L312.249 136.734L312.366 136.626C312.437 136.572 312.512 136.525 312.591 136.484C312.591 136.484 312.767 136.4 312.633 136.484L312.783 136.434C312.863 136.412 312.937 136.374 313.002 136.324C313.067 136.273 313.122 136.21 313.162 136.139C313.203 136.067 313.229 135.988 313.239 135.906C313.25 135.824 313.243 135.741 313.222 135.662C313.2 135.583 313.162 135.508 313.112 135.443C313.061 135.378 312.998 135.324 312.926 135.283C312.854 135.243 312.775 135.216 312.694 135.206C312.612 135.196 312.529 135.202 312.449 135.224V135.099Z" fill="#1D1D1B"/>
<path d="M317.978 131.603C318.828 131.489 319.358 130.222 319.163 128.775C318.967 127.327 318.12 126.247 317.27 126.362C316.42 126.476 315.889 127.743 316.085 129.19C316.28 130.638 317.128 131.718 317.978 131.603Z" fill="#1D1D1B"/>
<path d="M316.988 128.741C317.23 128.708 317.381 128.345 317.324 127.929C317.268 127.514 317.026 127.204 316.784 127.236C316.542 127.269 316.391 127.632 316.447 128.048C316.504 128.463 316.745 128.774 316.988 128.741Z" fill="white"/>
<path d="M307.431 133.017C308.281 132.903 308.812 131.636 308.616 130.189C308.42 128.742 307.573 127.661 306.723 127.776C305.873 127.89 305.342 129.157 305.538 130.604C305.733 132.052 306.581 133.132 307.431 133.017Z" fill="#1D1D1B"/>
<path d="M305.493 131.276C305.735 131.244 305.887 130.882 305.832 130.467C305.778 130.052 305.537 129.741 305.296 129.773C305.054 129.805 304.902 130.167 304.956 130.582C305.011 130.997 305.251 131.308 305.493 131.276Z" fill="white"/>
<path d="M261.643 74.164C262.397 74.4433 263.085 74.875 263.664 75.4321C263.664 75.4321 263.823 75.6406 263.748 75.5322C263.789 75.5822 263.823 75.649 263.864 75.7074V75.7908C263.864 75.699 263.864 75.7074 263.864 75.7908C263.874 75.8473 263.888 75.9031 263.906 75.9576C263.906 75.8575 263.906 75.8408 263.906 75.9076C263.906 75.9576 263.906 75.966 263.906 75.9076C263.781 76.0494 263.906 75.9576 263.906 75.9076C263.906 75.9076 263.773 76.0411 263.848 75.9827C263.923 75.9243 263.773 76.0244 263.756 76.0411L263.564 76.1328C263.689 76.0828 263.464 76.1328 263.439 76.1328L263.196 76.1996C262.841 76.2838 262.476 76.3258 262.111 76.3247C261.122 76.3491 260.133 76.2425 259.172 76.0077C259.092 75.9858 259.009 75.9797 258.928 75.9899C258.846 76 258.767 76.0262 258.695 76.0669C258.623 76.1075 258.56 76.1619 258.51 76.2269C258.459 76.2919 258.421 76.3663 258.4 76.4457C258.378 76.5251 258.372 76.6081 258.382 76.6899C258.392 76.7716 258.418 76.8506 258.459 76.9223C258.5 76.9939 258.554 77.0569 258.619 77.1075C258.684 77.1581 258.758 77.1955 258.838 77.2174C259.769 77.4354 260.721 77.5584 261.677 77.5845C262.425 77.62 263.174 77.524 263.889 77.3008C264.18 77.2353 264.448 77.0933 264.666 76.8893C264.883 76.6854 265.042 76.4271 265.125 76.1412C265.166 75.8338 265.131 75.5211 265.024 75.2303C264.916 74.9395 264.739 74.6794 264.507 74.4727C263.86 73.8438 263.094 73.3503 262.253 73.021C262.111 72.9481 261.946 72.9308 261.792 72.9724C261.638 73.0141 261.504 73.1117 261.418 73.2463C261.342 73.3871 261.323 73.5512 261.363 73.7059C261.403 73.8606 261.5 73.9944 261.635 74.0805L261.643 74.164Z" fill="#1D1D1B"/>
<path d="M253.782 65.9942C253.815 63.8335 252.81 62.0661 251.538 62.0466C250.265 62.027 249.207 63.7628 249.173 65.9234C249.14 68.0841 250.145 69.8515 251.418 69.8711C252.69 69.8906 253.749 68.1548 253.782 65.9942Z" fill="#1D1D1B"/>
<path d="M253.047 64.3929C253.057 63.7709 252.769 63.2622 252.405 63.2566C252.041 63.251 251.738 63.7507 251.728 64.3726C251.719 64.9946 252.006 65.5033 252.37 65.5089C252.735 65.5145 253.038 65.0148 253.047 64.3929Z" fill="white"/>
<path d="M269.557 66.2417C269.591 64.081 268.586 62.3136 267.313 62.2941C266.041 62.2746 264.982 64.0103 264.949 66.171C264.916 68.3317 265.92 70.0991 267.193 70.1186C268.466 70.1381 269.524 68.4024 269.557 66.2417Z" fill="#1D1D1B"/>
<path d="M268.817 64.6321C268.826 64.0102 268.539 63.5015 268.175 63.4959C267.81 63.4903 267.507 63.99 267.498 64.6119C267.488 65.2338 267.776 65.7426 268.14 65.7482C268.504 65.7537 268.807 65.2541 268.817 64.6321Z" fill="white"/>
<path d="M264.294 59.0219C264.72 57.7371 266.966 57.8706 268.193 57.979C269.961 58.0817 271.69 58.5384 273.278 59.3222C274.305 59.8812 273.963 60.8573 273.128 61.216C272.99 61.2774 272.844 61.3168 272.694 61.3328C272.591 61.3411 272.487 61.3411 272.385 61.3328H272.184L271.525 61.2327C270.512 61.077 269.501 60.9435 268.494 60.8323C267.909 60.7655 267.333 60.6904 266.732 60.6487C265.83 60.5987 264.503 60.3567 264.277 59.5892C264.22 59.4034 264.226 59.204 264.294 59.0219Z" fill="#1D1D1B"/>
<path d="M253.836 58.3881C253.243 57.17 251.03 57.6038 249.828 57.8792C248.079 58.2124 246.417 58.8994 244.943 59.8981C244 60.5822 244.467 61.5082 245.344 61.7502C245.489 61.7876 245.637 61.8072 245.787 61.8086C245.891 61.8 245.994 61.7833 246.096 61.7585C246.162 61.7665 246.229 61.7665 246.296 61.7585L246.931 61.575C247.916 61.283 248.901 61.016 249.886 60.7407C250.454 60.5989 251.022 60.4487 251.606 60.3319C252.491 60.1567 253.777 59.7396 253.894 58.947C253.94 58.7595 253.919 58.562 253.836 58.3881Z" fill="#1D1D1B"/>
<path d="M255.746 89.3392C260.806 90.4154 268.562 87.6707 269.047 87.5706C270.441 87.3287 269.456 84.8425 268.279 84.8425H266.55C265.648 84.8875 264.753 85.0245 263.878 85.2513C262.309 85.5683 260.722 85.8186 259.136 86.0105C258.301 86.1106 257.541 86.1857 256.739 86.2524C256.121 86.2198 255.501 86.2846 254.902 86.4443C253.475 87.1117 254.577 89.089 255.746 89.3392Z" fill="white" stroke="#2B2523" stroke-miterlimit="10"/>
</svg>
