<svg width="512" height="222" viewBox="0 0 512 222" fill="none" xmlns="http://www.w3.org/2000/svg">
<path d="M408.641 133.984L412.15 134.872L415.89 127.104L426.443 128.699L429.397 128.945L428.253 124.811L432.168 125.176L430.016 119.828L421.075 99.0537L408.641 133.984Z" fill="white"/>
<path d="M318.588 72.8604L312.109 73.3285L311.386 78.4069L305.669 79.6051V84.8105L300.834 83.5647L302.303 90.1586L299.15 90.6744L298.912 93.1898V96.1734L301.667 101.752L304.621 105.973L308.75 108.576L313.784 110.813H320.462L325.171 109.496L329.864 113.956L334.787 116.503L340.416 117.661L351.239 118.161L362.253 116.566L376.355 111.099L379.332 108.576L379.848 105.664L378.506 105.727L380.587 100.117L370.661 99.9822L362.237 97.9984L360.688 101.093L358.973 104.442L354.201 108.243L347.007 110.353L341.647 111.734H336.248L333.294 110.464V108.933L332.825 107.044L330.586 104.442L327.235 103.434L325.909 103.505L323.972 104.442L323.916 106.013L321.884 104.005L317.905 98.1492L316.397 95.4989L315.373 89.9444L315.261 85.604V82.2316L316.357 78.4545L318.588 72.8604Z" fill="white"/>
<path d="M241.312 103.37L244.774 107.822L247.959 104.902L252.31 110.051L260.115 96.1731L278.045 107.457L275.146 100.577L281.372 104.005L266.666 77.5259L263.792 80.6999L260.56 86.0322L248.387 98.4029L241.312 103.37Z" fill="white"/>
<path d="M264.721 134.428L270.065 136.451L278.791 137.761L289.28 137.697L297.777 136.253L311.402 131.802L318.954 141.181L329.268 151.591L337.463 157.646L361.157 168.239L356.448 169.747L354.138 172.048L356.869 172.929L348.246 176.142L351.239 177.785L334.334 185.45L328.093 188.267L327.045 187.783L321.931 183.07L318.652 179.277L313.427 171.254L310.839 165.668L306.94 167.699L300.834 169.747L294.092 171.913L287.367 171.484L284.818 169.747L263.982 141.181L266.658 140.387L264.721 134.428Z" fill="white"/>
<path d="M179.354 184.26L192.979 211.175L197.092 206.478L198.871 210.279L199.181 212.842L202.825 208.604L207.312 210.279L208.876 211.525L211.274 208.604L215.959 202.193L221.271 192.473L224.788 185.537L251.301 199.67L257.932 202.193L254.001 197.123L264.006 197.94L257.733 191.957L249.666 183.895L240.622 172.381L237.025 165.97L234.809 162.018L233.134 162.304L228.854 169.326L221.684 179.277L209.686 192.473L202.825 197.099L196.497 201.185L192.836 203.074L179.354 184.26Z" fill="white"/>
<path d="M61.0498 100.553L48.4961 108.806L53.2603 110.004L50.2668 112.996L54.7769 113.599L64.3292 113.956H72.0711L81.6789 111.345L90.7548 108.806L90.6516 112.718L90.8183 121.113L92.6446 130.651L97.7106 145.831V149.481L102.761 148.505L113.766 145.767L123.977 143.918L134.8 142.188H145.917L158.613 142.752L156.541 138.967L161.48 137.888L159.391 133.841L166.141 133.333L164.894 129.818L175.264 126.906L172.144 124.842L164.799 117.796L158.629 110.21L153.492 96.6573L147.814 76.5897L142.923 73.9871L140.676 74.3203L133.935 78.4545L126.391 82.4537L115.934 84.9691L105.913 86.4529L96.7974 84.6041L86.5782 82.4537L61.0498 100.553Z" fill="white"/>
<path d="M363.53 161.804L358.424 165.97L351.389 164.089L333.944 155.535L321.597 145.109L311.402 131.802L299.769 136.031L287.723 137.404L270.064 136.451L264.275 119.701L269.826 122.748L279.346 128.691L289.391 132.587L305.819 133.039L312.561 132.087L321.001 140.268L336.295 150.488L351.81 157.987L363.53 161.804Z" fill="#FFA400"/>
<g style="mix-blend-mode:multiply">
<path d="M264.275 119.701L270.183 136.031L282.102 137.697L293.313 137.197L306.939 133.746L298.578 132.841L286.08 131.079L275.837 127.041L264.275 119.701Z" fill="#DADADA"/>
</g>
<path d="M264.721 134.428L267.127 141.403L283.555 142.498L301.104 139.887L311.116 136.253L311.402 131.802L299.77 136.031L283.516 137.832L264.721 134.428Z" fill="#DADADA"/>
<g style="mix-blend-mode:multiply">
<path d="M358.425 165.97L343.537 154.361L329.094 146.156L311.148 133.111L316.603 138.594L327.926 151.092L343.934 161.439L358.425 165.97Z" fill="#DADADA"/>
</g>
<path d="M310.387 166.342L312.412 137.245C312.412 136.943 312.412 136.396 312.023 136.285C311.634 136.173 311.42 136.538 311.404 136.856L309.379 165.946C309.379 166.255 309.379 166.803 309.76 166.906C310.141 167.009 310.364 166.652 310.387 166.342Z" fill="#2B2523"/>
<path d="M310.401 166.073C313.029 172.69 316.905 178.74 321.819 183.895C323.043 185.178 324.334 186.396 325.686 187.545C326.313 188.084 327.329 189.092 328.251 189.021C328.754 188.87 329.235 188.651 329.68 188.37L331.117 187.727L333.983 186.442L340.074 183.696C343.845 181.998 347.704 180.419 351.389 178.539C351.509 178.452 351.606 178.338 351.673 178.206C351.74 178.074 351.775 177.929 351.775 177.781C351.775 177.633 351.74 177.487 351.673 177.356C351.606 177.224 351.509 177.11 351.389 177.023C337.676 171.469 326.107 161.288 318.293 148.798C316.027 145.16 314.082 141.331 312.481 137.356C312.092 136.396 311.338 137.499 311.608 138.149C317.29 152.337 327.21 164.429 340.018 172.778C343.536 175.042 347.258 176.974 351.135 178.547L351.095 177.031C348.102 178.554 344.981 179.84 341.924 181.213L330.641 186.299L329.386 186.862C329.007 187.101 328.608 187.308 328.195 187.481C327.777 187.375 327.388 187.174 327.059 186.894C325.738 185.879 324.496 184.765 323.343 183.561C320.916 181.152 318.728 178.513 316.808 175.682C314.596 172.417 312.746 168.921 311.29 165.255C310.901 164.303 310.146 165.398 310.416 166.049L310.401 166.073Z" fill="#2B2523"/>
<path d="M348.404 176.904L349.094 176.69C349.722 176.499 349.523 174.944 348.785 175.174L347.395 175.603C346.768 175.793 346.966 177.34 347.713 177.11C350.889 176.15 353.938 174.841 357.027 173.69C357.535 173.5 357.519 172.318 356.987 172.167C349.436 170.001 342.567 165.898 336.437 161.058C329.85 155.813 323.994 149.713 319.024 142.918C316.329 139.284 313.926 135.442 311.838 131.429C311.37 130.516 310.631 131.587 310.965 132.222C314.783 139.568 319.574 146.366 325.21 152.432C330.895 158.723 337.493 164.126 344.783 168.461C348.552 170.692 352.582 172.451 356.781 173.698L356.741 172.175C353.652 173.325 350.579 174.635 347.427 175.603L347.745 177.11L349.126 176.69L348.816 175.174L348.126 175.388C347.498 175.579 347.697 177.126 348.435 176.904H348.404Z" fill="#2B2523"/>
<path d="M354.481 171.897C356.397 170.322 358.72 169.321 361.182 169.009C361.547 168.961 361.682 168.533 361.675 168.215C361.667 167.898 361.508 167.422 361.143 167.422C358.488 167.758 355.985 168.842 353.925 170.548C353.424 170.953 353.821 172.437 354.481 171.889V171.897Z" fill="#2B2523"/>
<path d="M361.22 166.93C356.21 165.128 351.199 163.319 346.316 161.185C341.917 159.272 337.359 157.17 333.453 154.345C331.107 152.569 328.889 150.63 326.814 148.544C324.019 145.839 321.312 143.037 318.723 140.125C316.152 137.366 313.819 134.392 311.752 131.238C311.259 130.445 310.703 131.809 311.053 132.365C312.871 135.17 314.913 137.824 317.159 140.3C319.74 143.26 322.447 146.124 325.25 148.878C327.502 151.158 329.888 153.302 332.397 155.297C335.819 157.931 339.876 159.883 343.775 161.693C349.381 164.279 355.201 166.382 361.006 168.477C361.712 168.731 361.863 167.176 361.244 166.946L361.22 166.93Z" fill="#2B2523"/>
<path d="M358.703 166.644L363.809 163.081C364.11 162.875 364.087 162.288 363.967 162.002C363.848 161.716 363.555 161.526 363.253 161.732L358.147 165.295C357.845 165.509 357.861 166.089 357.988 166.382C358.115 166.676 358.401 166.858 358.703 166.644Z" fill="#2B2523"/>
<path d="M363.65 161.645C356.188 159.057 348.938 155.894 341.965 152.186C334.338 148.342 327.047 143.864 320.169 138.8C317.095 136.585 314.266 134.051 311.728 131.238C311.109 130.508 310.593 131.857 311.03 132.365C315.873 137.983 322.273 142.299 328.498 146.203C335.883 150.816 343.577 154.915 351.525 158.471C355.408 160.209 359.347 161.827 363.38 163.168C364.103 163.414 364.246 161.859 363.619 161.645H363.65Z" fill="#2B2523"/>
<path d="M308.892 165.795C302.905 170.167 294.822 172.302 287.453 170.723C287.098 170.686 286.751 170.598 286.421 170.461C286.132 170.149 285.879 169.806 285.667 169.437L284.476 167.922C283.184 166.245 281.892 164.565 280.601 162.883C277.991 159.466 275.41 156.027 272.859 152.567C269.969 148.621 267.121 144.654 264.315 140.665C263.767 139.871 263.227 141.252 263.608 141.8C268.817 149.206 274.169 156.524 279.664 163.756C281.022 165.541 282.395 167.327 283.777 169.096C284.126 169.556 284.484 170.009 284.841 170.469C285.149 170.958 285.509 171.413 285.913 171.826C286.262 172.061 286.662 172.211 287.08 172.262C290.613 172.996 294.259 172.996 297.792 172.262C302.008 171.435 305.989 169.684 309.448 167.136C309.972 166.755 309.591 165.279 308.892 165.787V165.795Z" fill="#2B2523"/>
<path d="M263.426 140.863C279.341 145.143 296.25 143.772 311.266 136.983C311.87 136.713 311.648 135.158 310.957 135.467C299.469 140.631 286.812 142.644 274.288 141.3C270.701 140.933 267.149 140.285 263.664 139.363C262.917 139.165 262.79 140.72 263.426 140.895V140.863Z" fill="#2B2523"/>
<path d="M267.175 140.371C266.998 137.668 265.783 135.138 263.784 133.309L263.419 134.761C275.516 139.249 288.715 139.843 301.167 136.459C304.745 135.48 308.224 134.173 311.561 132.555C312.157 132.27 311.927 130.714 311.244 131.048C303.873 134.614 295.855 136.646 287.674 137.021C279.494 137.396 271.323 136.106 263.657 133.23C262.918 132.96 262.934 134.356 263.292 134.682C264.939 136.154 265.959 138.202 266.142 140.403C266.214 141.355 267.254 141.347 267.175 140.403V140.371Z" fill="#2B2523"/>
<path d="M270.454 135.158C268.533 129.469 266.262 123.914 264.348 118.225L263.665 119.32C273.457 128.413 286.263 133.572 299.627 133.809C303.326 133.849 307.017 133.476 310.633 132.698C311.331 132.547 311.244 130.984 310.593 131.111C297.796 133.735 284.481 131.47 273.273 124.763C270.002 122.817 266.946 120.529 264.158 117.939C263.538 117.368 263.364 118.733 263.475 119.034C265.388 124.723 267.659 130.278 269.581 135.967C269.597 136.041 269.632 136.11 269.682 136.167C269.732 136.224 269.796 136.267 269.867 136.293C269.938 136.319 270.014 136.327 270.089 136.316C270.164 136.305 270.235 136.275 270.295 136.229C270.605 136.007 270.558 135.436 270.454 135.15V135.158Z" fill="#2B2523"/>
<path d="M407.98 135.872L388.51 128.85L392.361 115.852L396.537 97.2524L421.145 98.8633L439.32 118.852L430.236 118.978L421.55 100.53L419.31 103.386L407.98 135.872Z" fill="#CBD200"/>
<g style="mix-blend-mode:multiply">
<path d="M407.98 135.872L388.51 128.85L393.742 110.107L396.537 97.2524L421.145 98.8633L418.493 114.265L414.769 130.817L412.704 135.047L409.599 133.984L407.98 135.872Z" fill="#DADADA"/>
</g>
<path d="M421.122 98.1016C412.944 97.3081 404.694 97.4272 396.507 96.5146C396.213 96.5146 396.063 96.8955 396.023 97.1098C394.435 104.942 392.704 112.758 390.56 120.447C389.806 123.16 388.972 125.866 388.035 128.517C387.916 128.834 387.947 129.54 388.368 129.667C391.362 130.524 394.26 131.738 397.182 132.801C400.739 134.095 404.328 135.38 407.846 136.69C408.116 136.785 408.346 136.547 408.426 136.309C411.602 126.445 415.628 116.86 419.01 107.068C419.804 104.838 420.543 102.601 421.162 100.316C421.249 99.9981 421.273 99.4585 420.948 99.2443C420.885 99.1999 420.813 99.1723 420.737 99.1642C420.66 99.1561 420.583 99.1678 420.513 99.1981C420.443 99.2284 420.382 99.2764 420.335 99.3373C420.289 99.3982 420.259 99.47 420.249 99.5458C419.01 104.124 417.319 108.592 415.691 113.035C413.762 118.32 411.769 123.573 409.847 128.858C409.053 131.072 408.259 133.293 407.513 135.539L408.084 135.158L397.42 131.27C394.498 130.207 391.6 129.001 388.607 128.096L388.948 129.247C390.702 124.241 392.175 119.141 393.363 113.972C394.485 109.417 395.523 104.841 396.475 100.244C396.666 99.3157 396.865 98.3794 397.047 97.443L396.563 98.0382C404.733 98.9745 412.984 98.8317 421.178 99.6252C421.853 99.6966 421.853 98.1255 421.138 98.0382L421.122 98.1016Z" fill="#2B2523"/>
<path d="M409.483 134.745L412.032 135.634C412.381 135.753 412.619 135.364 412.651 135.071C412.69 134.865 412.668 134.653 412.587 134.46C412.561 134.383 412.519 134.312 412.465 134.252C412.41 134.192 412.344 134.144 412.27 134.111L409.713 133.214C409.372 133.095 409.133 133.484 409.094 133.785C409.063 133.988 409.085 134.196 409.157 134.388C409.216 134.545 409.332 134.672 409.483 134.745Z" fill="#2B2523"/>
<path d="M413.16 135.436C418.099 124.485 421.465 112.345 421.33 100.26C421.33 99.2918 420.282 99.3156 420.298 100.26C420.425 112.083 417.074 123.93 412.246 134.642C411.945 135.309 412.739 136.348 413.16 135.436Z" fill="#2B2523"/>
<path d="M416.073 127.278C420.385 128.707 424.874 129.532 429.413 129.73C430.104 129.73 430.08 128.143 429.373 128.143C424.929 127.96 420.533 127.159 416.311 125.763C415.589 125.525 415.446 127.08 416.073 127.286V127.278Z" fill="#2B2523"/>
<path d="M430.65 128.651C425.886 119.423 423.766 108.901 421.567 98.8316C421.344 97.816 420.399 98.4508 420.574 99.276C422.805 109.465 424.933 120.137 429.777 129.469C430.246 130.381 430.992 129.31 430.65 128.675V128.651Z" fill="#2B2523"/>
<path d="M429.008 125.223L433.359 125.969C433.494 125.969 433.653 125.827 433.717 125.731C433.818 125.561 433.868 125.366 433.86 125.168C433.86 124.811 433.701 124.454 433.32 124.374L428.953 123.652C428.818 123.652 428.651 123.795 428.595 123.89C428.493 124.06 428.443 124.256 428.452 124.454C428.452 124.803 428.611 125.16 428.992 125.247L429.008 125.223Z" fill="#2B2523"/>
<path d="M433.646 124.58C430.976 120.592 428.654 116.382 426.706 111.996C424.694 107.658 422.96 103.198 421.513 98.641C421.496 98.5671 421.461 98.4986 421.412 98.4417C421.362 98.3848 421.298 98.3413 421.227 98.3152C421.156 98.2892 421.079 98.2814 421.005 98.2925C420.93 98.3037 420.859 98.3335 420.798 98.3791C420.481 98.6093 420.536 99.1726 420.639 99.4583C422.119 104.122 423.901 108.683 425.975 113.114C427.93 117.501 430.254 121.714 432.923 125.707C433.463 126.501 434.003 125.12 433.63 124.58H433.646Z" fill="#2B2523"/>
<path d="M430.119 119.74C433.202 120.717 436.487 120.87 439.648 120.185C440.338 120.034 440.259 118.471 439.648 118.598C436.592 119.269 433.415 119.132 430.429 118.201C429.698 117.971 429.563 119.526 430.191 119.724L430.119 119.74Z" fill="#2B2523"/>
<path d="M439.559 118.161C433.132 111.963 427.077 105.392 421.423 98.4824C420.82 97.7444 420.296 99.1013 420.716 99.6171C426.438 106.609 432.568 113.257 439.075 119.526C439.67 120.105 440.027 118.598 439.559 118.153V118.161Z" fill="#2B2523"/>
<path d="M434.582 55.6573L441.752 73.519L467.566 63.0368L452.13 47.6191L434.582 55.6573Z" fill="#FFA400"/>
<path d="M434.995 73.7885L440.53 70.4796L434.447 57.5376L434.995 73.7885Z" fill="#DADADA"/>
<path d="M433.319 55.2527L440.711 72.5351C441.116 73.4873 441.871 72.3923 441.585 71.7416L434.192 54.4592C433.787 53.5149 433.033 54.602 433.319 55.2527Z" fill="#2B2523"/>
<path d="M441.91 74.2966C449.706 70.0527 457.907 66.597 466.39 63.9811C467.009 63.7907 466.811 62.2354 466.072 62.4656C457.591 65.0864 449.39 68.5418 441.592 72.7811C441.012 73.0985 441.258 74.6458 441.91 74.2966Z" fill="#2B2523"/>
<path d="M467.812 62.3465C462.103 57.8829 456.955 52.7461 452.479 47.0478C451.892 46.3019 451.368 47.6588 451.78 48.1825C456.314 53.9691 461.532 59.186 467.32 63.7192C467.987 64.2429 468.32 62.7432 467.812 62.3465Z" fill="#2B2523"/>
<path d="M434.017 56.3239C439.996 53.4197 446.309 51.2693 452.28 48.3889C452.875 48.0953 452.637 46.548 451.962 46.8733C445.983 49.7775 439.67 51.9279 433.699 54.8083C433.104 55.1019 433.342 56.6492 434.017 56.3239Z" fill="#2B2523"/>
<path d="M434.073 55.4588C433.564 61.6407 433.708 67.8589 434.502 74.0108C434.502 74.3203 434.811 74.6615 435.145 74.5424C435.478 74.4234 435.526 73.86 435.486 73.5664C434.736 67.6929 434.601 61.7572 435.081 55.8555C435.081 55.554 435.081 55.0065 434.7 54.8954C434.319 54.7843 434.097 55.1493 434.073 55.4588Z" fill="#2B2523"/>
<path d="M435.747 73.3604L439.932 70.6069C440.082 70.4986 440.195 70.347 440.256 70.1725C440.317 69.998 440.323 69.809 440.273 69.6309C440.218 69.4087 439.948 68.885 439.622 69.0993L435.429 71.8448C435.282 71.9549 435.171 72.107 435.111 72.2812C435.052 72.4554 435.047 72.6435 435.096 72.8208C435.152 73.0509 435.422 73.6143 435.747 73.3604Z" fill="#2B2523"/>
<path d="M238.986 103.902L224.336 78.9939L230.672 75.566L240.804 69.2656L246.458 63.6159L245.878 58.0376L249.967 55.8872L261.664 69.9401L268.667 75.8993L284.397 101.077L276.52 96.1732L267.5 78.8114L264.935 78.9304L259.829 86.794L249.753 96.4509L238.986 103.902Z" fill="#64BDBF"/>
<g style="mix-blend-mode:multiply">
<path d="M237.882 104.926L234.809 94.7133L224.336 78.9941L232.427 75.1218L242.583 67.4804L246.458 63.616L245.878 58.0377L248.34 55.5303L249.967 55.8874L268.667 75.8994L264.935 78.9306L262.918 82.4061L256.788 91.2695L249.753 96.4511L237.882 104.926Z" fill="#DADADA"/>
</g>
<g style="mix-blend-mode:multiply">
<path d="M276.52 96.1733L282.92 100.157L268.667 75.8994L267.5 78.8116L276.52 96.1733Z" fill="#DADADA"/>
</g>
<path d="M240.621 101.887L244.774 107.822L247.958 104.902L250.165 102.878L257.161 91.5394L264.935 78.9307L251.658 95.1339L240.621 101.887Z" fill="#DADADA"/>
<path d="M252.31 110.052L267.5 78.8118L251.612 101.101L247.959 104.902L252.31 110.052Z" fill="#DADADA"/>
<path d="M239.176 104.656C244.735 102.22 249.546 98.3079 253.787 94.0468C258.181 89.6448 262.06 84.7571 265.348 79.4781C265.697 78.9227 265.094 77.5737 264.554 78.3831C261.323 83.5592 257.514 88.3511 253.199 92.6661C249.014 96.8558 244.29 100.704 238.835 103.101C238.223 103.37 238.446 104.918 239.145 104.616L239.176 104.656Z" fill="#2B2523"/>
<path d="M238.939 103.751C234.813 94.9742 230.052 86.5089 224.694 78.4228C224.17 77.6293 223.622 79.01 223.988 79.5575C229.282 87.5421 233.987 95.9012 238.066 104.569C238.503 105.505 239.249 104.418 238.939 103.775V103.751Z" fill="#2B2523"/>
<path d="M224.495 79.748C233.086 76.574 240.939 70.4561 246.49 63.2432C246.895 62.7195 246.315 61.3864 245.696 62.1482C240.152 69.4021 232.707 74.9803 224.185 78.2641C223.566 78.4943 223.772 80.0416 224.495 79.7797V79.748Z" fill="#2B2523"/>
<path d="M240.962 103.934L243.622 107.624C243.659 107.688 243.712 107.741 243.776 107.778C243.84 107.816 243.913 107.835 243.987 107.835C244.061 107.835 244.134 107.816 244.198 107.778C244.263 107.741 244.316 107.688 244.353 107.624C244.454 107.455 244.508 107.261 244.508 107.064C244.508 106.867 244.454 106.674 244.353 106.505L241.693 102.831C241.657 102.764 241.605 102.709 241.541 102.67C241.476 102.631 241.402 102.611 241.327 102.611C241.252 102.611 241.178 102.631 241.114 102.67C241.05 102.709 240.997 102.764 240.962 102.831C240.86 102.998 240.807 103.19 240.807 103.386C240.807 103.582 240.86 103.774 240.962 103.942V103.934Z" fill="#2B2523"/>
<path d="M245.053 108.496C249.153 104.511 252.85 100.131 256.09 95.4195C259.474 90.671 262.591 85.7385 265.428 80.6446C265.745 80.0732 265.134 78.7243 264.674 79.5495C261.888 84.5557 258.834 89.4084 255.526 94.0864C252.294 98.7965 248.6 103.172 244.497 107.147C244.029 107.592 244.441 109.076 245.053 108.496Z" fill="#2B2523"/>
<path d="M247.785 106.203L251.056 109.822C251.31 110.099 251.676 109.782 251.755 109.52C251.82 109.339 251.835 109.145 251.798 108.956C251.762 108.768 251.676 108.593 251.548 108.449L248.269 104.83C248.023 104.545 247.658 104.87 247.57 105.124C247.505 105.307 247.491 105.503 247.528 105.693C247.566 105.883 247.655 106.06 247.785 106.203Z" fill="#2B2523"/>
<path d="M252.676 110.599C257.79 101.121 262.34 91.3493 266.302 81.335C266.58 80.6526 265.778 79.6051 265.389 80.5415C261.463 90.4476 256.956 100.113 251.89 109.488C251.572 110.06 252.192 111.417 252.644 110.583L252.676 110.599Z" fill="#2B2523"/>
<path d="M278.29 106.767L260.361 95.4829C259.63 95.0307 259.321 96.5145 259.869 96.8557L277.798 108.139C278.529 108.599 278.838 107.116 278.29 106.767Z" fill="#2B2523"/>
<path d="M279.148 106.584C276.302 102.534 273.856 98.2185 271.843 93.6975C269.733 89.1891 268.052 84.492 266.824 79.6685C266.578 78.6607 265.633 79.2876 265.84 80.1128C267.079 85.064 268.786 89.8863 270.938 94.5148C272.997 99.1439 275.499 103.563 278.409 107.711C278.965 108.504 279.497 107.124 279.116 106.584H279.148Z" fill="#2B2523"/>
<path d="M282.206 103.251C279.562 101.815 276.782 100.657 274.146 99.2204C273.813 99.0379 273.559 99.5378 273.519 99.7838C273.478 99.9644 273.493 100.153 273.562 100.325C273.632 100.497 273.753 100.643 273.908 100.744C276.544 102.18 279.323 103.339 281.967 104.775C282.301 104.957 282.555 104.457 282.595 104.211C282.635 104.031 282.619 103.842 282.55 103.671C282.48 103.499 282.36 103.353 282.206 103.251Z" fill="#2B2523"/>
<path d="M281.729 103.442C276.287 95.5869 271.665 87.1955 267.936 78.3989C267.539 77.4467 266.777 78.5417 267.063 79.1924C270.834 88.1116 275.511 96.6202 281.022 104.584C281.562 105.378 282.102 103.997 281.729 103.458V103.442Z" fill="#2B2523"/>
<path d="M284.644 100.395L276.759 95.4829C276.029 95.0307 275.719 96.5145 276.275 96.8557L284.152 101.767C284.882 102.22 285.192 100.736 284.644 100.395Z" fill="#2B2523"/>
<path d="M283.643 99.4425C279.471 91.0117 274.594 82.9476 269.065 75.336C268.501 74.5425 267.969 75.9311 268.358 76.4707C273.823 83.9865 278.644 91.9498 282.77 100.276C283.23 101.196 283.969 100.117 283.643 99.4822V99.4425Z" fill="#2B2523"/>
<path d="M264.07 79.1292L268.04 76.2885C268.166 76.1596 268.245 75.9917 268.262 75.8124C268.297 75.6068 268.275 75.3955 268.199 75.2014C268.048 74.884 267.786 74.7174 267.484 74.9396L263.514 77.7803C263.385 77.908 263.304 78.076 263.284 78.2564C263.248 78.46 263.272 78.6699 263.355 78.8594C263.498 79.1768 263.76 79.3435 264.07 79.1292Z" fill="#2B2523"/>
<path d="M263.483 78.4464L246.705 62.9335C246.094 62.3701 245.744 63.8698 246.213 64.3063L262.999 79.8509C263.61 80.4143 263.96 78.9146 263.491 78.4782L263.483 78.4464Z" fill="#2B2523"/>
<path d="M245.943 62.0768C245.943 62.0768 245.943 61.8229 245.943 61.9578V61.7515C245.958 61.638 245.984 61.5264 246.022 61.4182C246.093 61.1749 246.186 60.9386 246.3 60.712C246.601 60.1418 246.969 59.6091 247.396 59.125C248.266 58.1825 249.211 57.3121 250.222 56.5223C250.723 56.1176 250.326 54.6338 249.667 55.1813C247.554 56.9111 244.902 59.0853 244.902 62.0689C244.902 62.3625 245.069 62.8624 245.434 62.8624C245.8 62.8624 245.935 62.3546 245.935 62.0689L245.943 62.0768Z" fill="#2B2523"/>
<path d="M268.024 73.5905C261.359 68.2951 255.408 62.1607 250.317 55.34C249.745 54.5465 249.213 55.9431 249.61 56.4748C254.762 63.3904 260.786 69.6125 267.532 74.9871C268.199 75.5187 268.532 74.019 268.024 73.6143V73.5905Z" fill="#2B2523"/>
<path d="M320.375 71.043L328.141 74.0186L342.767 77.2402L348.46 77.3354L349.644 87.1748L353.463 97.046L354.678 98.2203L356.861 98.1092L360.03 90.4996L370.551 94.4592L379.333 96.8397L378.173 99.8629L371.527 100.188L362.237 97.9982L360.689 101.093L358.974 103.584L352.875 107.909L344.657 110.996L335.359 111.019L333.294 110.464L333.683 108.671L331.794 105.084L328.57 103.37L325.91 103.505L323.972 104.441L322.194 103.505L319.502 100.926L317.906 98.1489L316.397 96.1334L315.714 91.8485L315.262 83.858L317.556 75.3199L320.375 71.043Z" fill="#A03D8F"/>
<g style="mix-blend-mode:multiply">
<path d="M333.684 108.671L347.27 104.434L355.385 99.7918L361.062 89.6191L379.333 96.84L378.245 101.014L380.27 101.363L378.507 105.727L379.849 105.664L379.944 107.822L376.594 109.838L374.402 112.051L364.905 115.162L357.926 117.035L353.312 117.257L364.604 108.576L358.617 108.465L352.32 113.25L342.879 114.979L333.43 112.837L333.684 108.671Z" fill="#DADADA"/>
</g>
<g style="mix-blend-mode:multiply">
<path d="M322.194 103.505L316.397 96.1338L315.262 83.8583L317.422 72.8604L320.677 69.7102L326.982 73.5745L337.153 75.5821L348.46 77.3357L349.318 84.4455L351.692 94.396L353.463 97.0463L343.942 98.3159L331.484 99.8473L325.91 103.505H322.194Z" fill="#DADADA"/>
</g>
<path d="M324.139 105.322C319.256 100.986 316.235 94.9349 315.706 88.4286C315.449 85.0517 315.859 81.6572 316.913 78.4384C317.63 75.9472 318.9 73.6497 320.629 71.7175L320.232 71.8048C329.111 75.8191 338.717 77.9792 348.46 78.1528L348 77.7798C348.095 77.9941 348.198 78.2083 348.278 78.4305C348.357 78.6527 348.317 78.7638 348.278 78.5813C348.289 78.7901 348.289 78.9993 348.278 79.2081C348.259 80.148 348.288 81.0882 348.365 82.0251C348.522 84.0336 348.811 86.0296 349.231 88.0001C349.968 91.8397 351.291 95.5434 353.153 98.9822C353.344 99.3075 353.693 99.2123 353.884 98.9822C353.985 98.8147 354.039 98.6226 354.039 98.4267C354.039 98.2308 353.985 98.0387 353.884 97.8713C352.033 94.4169 350.752 90.6873 350.088 86.8257C349.705 84.9233 349.463 82.9951 349.365 81.057C349.365 80.1841 349.405 79.3192 349.365 78.4543C349.295 77.9396 349.131 77.4421 348.881 76.9863C348.852 76.8852 348.793 76.795 348.713 76.7272C348.632 76.6594 348.533 76.617 348.429 76.6055C338.782 76.4376 329.271 74.3046 320.478 70.3368C320.411 70.3134 320.338 70.3091 320.268 70.3245C320.197 70.3399 320.133 70.3744 320.081 70.4241C316.778 73.8203 315.222 78.978 314.753 83.6041C314.188 89.1236 315.295 94.6856 317.93 99.5693C319.4 102.277 321.332 104.707 323.639 106.751C324.266 107.306 324.615 105.806 324.131 105.378L324.139 105.322Z" fill="#2B2523"/>
<path d="M324.25 105.116C325.067 104.532 326.025 104.176 327.026 104.085C328.027 103.994 329.034 104.172 329.943 104.6C330.776 105.02 331.502 105.625 332.064 106.369C332.625 107.114 333.008 107.977 333.183 108.893C333.246 109.187 333.492 109.56 333.834 109.425C334.175 109.29 334.231 108.75 334.175 108.449C333.969 107.331 333.515 106.274 332.845 105.355C332.176 104.437 331.309 103.68 330.308 103.14C329.255 102.625 328.08 102.41 326.912 102.521C325.745 102.631 324.631 103.063 323.694 103.767C323.17 104.148 323.559 105.624 324.25 105.116Z" fill="#2B2523"/>
<path d="M324.251 105.116C329.079 101.728 335.113 100.506 340.87 99.8711C346.19 99.2839 351.55 99.3236 356.886 98.8951C357.585 98.8396 357.537 97.2684 356.846 97.3081C345.801 98.1889 333.24 97.0542 323.695 103.751C323.171 104.124 323.544 105.6 324.251 105.1V105.116Z" fill="#2B2523"/>
<path d="M334.144 109.687C340.194 107.862 346.745 106.862 352.129 103.339C356.512 100.458 359.958 96.0386 360.529 90.7063C360.617 89.9128 359.632 89.2701 359.521 90.3175C358.957 95.5705 355.265 99.8395 350.826 102.442C345.617 105.481 339.535 106.465 333.826 108.179C333.207 108.37 333.397 109.917 334.144 109.695V109.687Z" fill="#2B2523"/>
<path d="M359.776 91.0074C366.01 93.8696 372.524 96.0794 379.214 97.6014L378.873 96.4508L377.785 100.633C377.705 100.95 377.674 101.49 377.999 101.704C378.062 101.748 378.134 101.776 378.21 101.784C378.286 101.792 378.363 101.78 378.434 101.75C378.504 101.72 378.565 101.672 378.611 101.611C378.658 101.55 378.688 101.478 378.698 101.402L379.786 97.2285C379.865 96.919 379.897 96.181 379.452 96.0779C372.764 94.5498 366.251 92.3403 360.014 89.4839C359.347 89.1665 359.173 90.7218 359.776 91.0074Z" fill="#2B2523"/>
<path d="M317.398 72.0747C315.627 72.2017 313.849 72.2731 312.086 72.5429C311.784 72.5905 311.665 72.8603 311.602 73.1301C310.547 78.0954 310.485 83.2199 311.418 88.2093C312.352 93.1987 314.262 97.9546 317.041 102.204C318.613 104.594 320.481 106.778 322.599 108.703C323.218 109.266 323.568 107.766 323.091 107.33C313.936 98.9744 309.958 85.5642 312.634 73.5268L312.149 74.114C313.912 73.8522 315.691 73.7807 317.462 73.6458C318.168 73.5982 318.121 72.0192 317.422 72.0588L317.398 72.0747Z" fill="#2B2523"/>
<path d="M311.362 77.6215C309.409 78.0183 307.447 78.4151 305.51 78.8515C305.232 78.915 305.145 79.3911 305.145 79.645C305.399 90.754 310.187 101.863 319.143 108.719C319.818 109.235 320.144 107.735 319.628 107.346C311.06 100.792 306.423 90.2779 306.185 79.5736L305.819 80.3671C307.67 79.9227 309.536 79.5736 311.378 79.2085C312.076 79.0657 311.997 77.4946 311.378 77.6215H311.362Z" fill="#2B2523"/>
<path d="M304.803 83.6281C303.882 83.2054 302.918 82.8835 301.928 82.668C301.555 82.6735 301.184 82.7107 300.817 82.7791C300.356 82.8267 300.285 83.4377 300.34 83.7868C301.69 91.9281 304.509 100.974 310.853 106.648C312.63 108.256 314.719 109.48 316.991 110.242C317.714 110.488 317.865 108.925 317.23 108.719C306.907 105.322 302.937 92.9914 301.293 83.3266L300.825 84.3423C301.178 84.2706 301.537 84.2334 301.897 84.2312C302.804 84.4418 303.687 84.745 304.533 85.1358C305.248 85.3897 305.398 83.8265 304.771 83.6122L304.803 83.6281Z" fill="#2B2523"/>
<path d="M301.542 90.3888C301.467 90.1647 301.34 89.9616 301.171 89.7961C301.003 89.6307 300.797 89.5076 300.571 89.4371C300.346 89.3666 300.107 89.3507 299.874 89.3906C299.641 89.4305 299.42 89.5251 299.231 89.6667C298.207 90.3729 298.215 91.8726 298.358 92.9756C298.774 96.1467 299.733 99.2226 301.192 102.069C302.508 104.755 304.493 107.058 306.955 108.757C309.417 110.456 312.275 111.495 315.255 111.774C318.689 112.066 322.143 111.535 325.331 110.226C325.943 109.98 325.728 108.433 325.021 108.719C319.265 111.02 312.245 110.98 307.084 107.235C304.477 105.243 302.463 102.579 301.256 99.5299C300.627 98.0097 300.13 96.438 299.771 94.8324C299.548 93.9927 299.399 93.1351 299.326 92.2694C299.326 91.8091 299.326 91.2537 299.787 91.0077C300.049 90.8807 300.541 90.8331 300.668 91.1823C301.042 92.1424 301.804 91.0394 301.542 90.3888Z" fill="#2B2523"/>
<path d="M324.821 110.059C328.228 114.717 333.715 117.439 339.241 118.669C345.085 119.962 351.072 119.558 356.408 116.693C359.524 115.007 362.234 112.662 364.349 109.821C364.754 109.29 364.166 107.965 363.594 108.726C359.974 113.568 354.58 116.779 348.595 117.653C343.131 118.261 337.609 117.251 332.714 114.749C329.904 113.405 327.454 111.411 325.568 108.933C325.004 108.139 324.464 109.528 324.861 110.059H324.821Z" fill="#2B2523"/>
<path d="M364.635 109.361L376.054 110.337C376.728 110.393 376.72 108.822 376.054 108.75L364.635 107.782C363.952 107.727 363.96 109.298 364.675 109.369L364.635 109.361Z" fill="#2B2523"/>
<path d="M376.434 109.084C371.832 111.935 366.815 114.055 361.562 115.368C356.28 116.794 350.855 117.624 345.387 117.844C344.689 117.844 344.728 119.431 345.427 119.431C350.879 119.201 356.289 118.376 361.562 116.971C366.927 115.664 372.053 113.522 376.752 110.623C377.308 110.258 377.038 108.719 376.434 109.107V109.084Z" fill="#2B2523"/>
<path d="M333.311 113.599C344.276 117.796 359.514 114.106 363.691 102.14C363.929 101.458 363.111 100.395 362.777 101.347C358.807 112.781 343.903 116.019 333.549 112.051C332.842 111.782 332.691 113.337 333.311 113.575V113.599Z" fill="#2B2523"/>
<path d="M363.452 101.339C368.262 103.509 373.262 105.232 378.388 106.489C379.134 106.671 379.261 105.124 378.626 104.965C373.5 103.709 368.5 101.985 363.69 99.8155C363.015 99.5139 362.84 101.069 363.452 101.339Z" fill="#2B2523"/>
<path d="M379.332 105.671C379.332 105.751 379.332 105.822 379.332 105.902C379.332 105.981 379.332 105.814 379.332 105.989C379.319 106.135 379.298 106.281 379.269 106.425C379.272 106.497 379.272 106.568 379.269 106.639C379.269 106.806 379.269 106.592 379.269 106.743C379.269 106.893 379.181 107.02 379.134 107.155C378.947 107.649 378.679 108.108 378.34 108.512C377.637 109.365 376.628 109.909 375.529 110.028C375.163 110.028 375.013 110.512 375.028 110.821C375.044 111.131 375.187 111.615 375.56 111.615C378.498 111.353 380.499 108.441 380.468 105.656C380.468 105.362 380.301 104.862 379.928 104.862C379.554 104.862 379.427 105.378 379.435 105.656L379.332 105.671Z" fill="#2B2523"/>
<path d="M379.809 100.974L378.363 104.941C378.294 105.123 378.277 105.321 378.315 105.512C378.353 105.703 378.444 105.879 378.578 106.021C378.864 106.259 379.165 106.021 379.277 105.719L380.73 101.752C380.8 101.571 380.817 101.374 380.779 101.185C380.741 100.995 380.649 100.82 380.515 100.68C380.222 100.442 379.92 100.68 379.809 100.982V100.974Z" fill="#2B2523"/>
<path d="M380.562 99.3313C374.298 99.7678 368.152 98.149 362.371 95.8479C361.672 95.5701 361.513 97.1333 362.141 97.3793C367.993 99.7043 374.258 101.347 380.602 100.902C381.309 100.855 381.261 99.3155 380.562 99.3155V99.3313Z" fill="#2B2523"/>
<path d="M361.298 96.5544C361.251 102.831 355.113 106.211 350.07 108.378C344.671 110.702 339.105 111.472 333.396 109.703C332.665 109.473 332.53 111.036 333.157 111.226C336.229 112.222 339.481 112.534 342.686 112.139C345.647 111.683 348.526 110.795 351.23 109.504C354.033 108.235 356.867 106.775 358.995 104.505C361.057 102.37 362.239 99.5369 362.307 96.5702C362.307 95.5942 361.282 95.626 361.266 96.5702L361.298 96.5544Z" fill="#2B2523"/>
<path d="M234.333 160.264L211.957 139.538L204.168 134.404L198.204 129.833H196.386L194.012 132.785L191.669 139.625L187.517 147.449L178.163 157.574L165.871 164.097L173.542 175.198L192.837 203.074L197.228 200.772L209.956 191.115L218.77 181.649L224.36 175.372L234.333 160.264Z" fill="#CBD200"/>
<path d="M267.126 190.568L258.582 193.337L250.332 185.831L238.715 171.286L234.332 160.264L267.126 190.568Z" fill="#CBD200"/>
<g style="mix-blend-mode:multiply">
<path d="M192.979 211.175L179.004 183.069L192.614 201.669L205.604 196.392L192.979 211.175Z" fill="#DADADA"/>
</g>
<g style="mix-blend-mode:multiply">
<path d="M199.856 211.961L197.371 207.716L214.062 187.061L232.341 163.661L223.662 188.791L208.877 211.525L202.826 208.604L199.856 211.961Z" fill="#DADADA"/>
</g>
<g style="mix-blend-mode:multiply">
<path d="M253.565 189.235L245.919 172.04L236.001 161.812L233.135 162.304" fill="#DADADA"/>
</g>
<g style="mix-blend-mode:multiply">
<path d="M230.061 164.049L194.012 132.785L195.25 130.778L196.386 129.833H198.204L204.167 134.404L213.077 141.006L234.333 160.264L230.061 164.049Z" fill="#DADADA"/>
</g>
<path d="M266.969 189.814C264.126 190.751 261.268 191.647 258.425 192.584C257.806 192.79 258.004 194.337 258.743 194.099C261.585 193.155 264.444 192.266 267.287 191.322C267.906 191.116 267.707 189.568 266.969 189.814Z" fill="#2B2523"/>
<path d="M267.374 189.886C258.778 183.203 250.632 175.961 242.989 168.207C236.454 161.661 230.125 154.908 223.289 148.671C219.85 145.497 216.277 142.53 212.545 139.729C210.513 138.205 208.4 136.816 206.328 135.356C204.979 134.284 203.698 133.128 202.493 131.897C201.294 130.786 199.944 129.516 198.364 128.977C196.784 128.437 195.402 129.413 194.449 130.762C193.187 132.555 192.75 134.801 192.067 136.848C191.337 139.093 190.401 141.266 189.272 143.339C184.301 152.552 175.829 160.296 165.697 163.335C165.078 163.526 165.268 165.073 166.015 164.851C174.693 162.248 182.134 156.186 187.303 148.846C189.964 145.079 191.999 140.907 193.33 136.491C193.925 134.499 194.529 131.675 196.506 130.588C197.864 129.85 199.483 131.167 200.476 131.968C201.929 133.143 203.207 134.499 204.597 135.745C206.23 137.06 207.934 138.284 209.703 139.411C213.54 142.171 217.234 145.124 220.772 148.259C227.608 154.289 233.881 160.907 240.281 167.39C248.579 175.943 257.453 183.918 266.842 191.259C267.517 191.774 267.85 190.275 267.334 189.886H267.374Z" fill="#2B2523"/>
<path d="M165.522 164.66C172.526 174.857 179.608 184.998 186.644 195.162C188.597 197.987 190.545 200.812 192.488 203.637C193.028 204.431 193.568 203.05 193.194 202.502C186.191 192.306 179.108 182.173 172.065 172C170.112 169.175 168.164 166.35 166.221 163.526C165.689 162.732 165.149 164.113 165.522 164.66Z" fill="#2B2523"/>
<path d="M233.952 159.717C225.218 172.611 216.237 185.902 203.779 195.512C200.342 198.17 196.628 200.45 192.702 202.312C192.098 202.598 192.329 204.145 193.012 203.828C207.368 197.059 217.913 184.633 226.996 171.992C229.641 168.31 232.189 164.565 234.722 160.812C235.096 160.264 234.5 158.923 233.968 159.717H233.952Z" fill="#2B2523"/>
<path d="M264.252 197.289C254.557 189.711 245.989 180.554 239.795 169.897C237.983 166.794 236.391 163.567 235.031 160.24C234.634 159.288 233.88 160.383 234.158 161.034C238.962 172.714 246.584 183.062 255.732 191.734C258.296 194.163 260.988 196.495 263.775 198.638C264.442 199.162 264.776 197.662 264.26 197.265L264.252 197.289Z" fill="#2B2523"/>
<path d="M263.99 197.146C260.417 196.718 256.844 196.17 253.294 195.734C252.627 195.655 252.627 197.226 253.334 197.321C256.907 197.757 260.48 198.305 264.03 198.741C264.697 198.821 264.697 197.249 263.99 197.154V197.146Z" fill="#2B2523"/>
<path d="M258.28 201.63C250.721 192.293 244.341 182.062 239.286 171.167C237.825 168.035 236.478 164.861 235.245 161.645C234.879 160.685 234.117 161.788 234.371 162.439C238.715 173.806 244.433 184.601 251.395 194.583C253.359 197.392 255.418 200.122 257.573 202.772C258.176 203.518 258.7 202.161 258.28 201.645V201.63Z" fill="#2B2523"/>
<path d="M258.041 201.431C247.012 196.758 236.352 191.26 226.152 184.982C225.549 184.617 225.358 186.164 225.914 186.513C236.114 192.789 246.774 198.285 257.803 202.955C258.502 203.248 258.66 201.685 258.041 201.431Z" fill="#2B2523"/>
<path d="M202.707 209.366C203.796 209.608 204.859 209.951 205.884 210.39C206.413 210.611 206.923 210.876 207.408 211.183C207.828 211.435 208.208 211.748 208.536 212.112C208.573 212.176 208.626 212.229 208.69 212.267C208.754 212.304 208.827 212.323 208.901 212.323C208.975 212.323 209.048 212.304 209.112 212.267C209.176 212.229 209.229 212.176 209.266 212.112C209.368 211.943 209.421 211.749 209.421 211.552C209.421 211.355 209.368 211.162 209.266 210.993C208.457 210.091 207.444 209.395 206.312 208.961C205.242 208.49 204.128 208.126 202.985 207.874C202.62 207.795 202.414 208.112 202.358 208.438C202.303 208.763 202.358 209.319 202.747 209.398L202.707 209.366Z" fill="#2B2523"/>
<path d="M209.154 212.199C218.276 201.4 225.233 188.949 229.648 175.523C230.913 171.694 231.973 167.8 232.824 163.859C233.007 163.026 232.03 162.446 231.816 163.462C228.87 177.018 223.402 189.9 215.697 201.439C213.491 204.708 211.105 207.853 208.55 210.858C208.138 211.334 208.55 212.826 209.106 212.199H209.154Z" fill="#2B2523"/>
<path d="M233.951 159.717C225.447 174.333 215.99 188.473 206.2 202.248C203.817 205.637 201.348 209.009 198.799 212.294C198.386 212.818 198.966 214.143 199.593 213.389C204.484 207.089 209.042 200.534 213.536 193.948C218.571 186.569 223.467 179.099 228.226 171.54C230.449 167.993 232.641 164.398 234.745 160.812C235.079 160.248 234.467 158.899 233.991 159.717H233.951Z" fill="#2B2523"/>
<path d="M218.532 180.975C210.75 189.941 202.942 198.881 195.107 207.795C194.319 208.699 193.525 209.601 192.725 210.501L193.361 210.612C187.92 201.421 183.144 191.854 179.068 181.982C178.679 181.03 177.916 182.125 178.194 182.776C182.326 192.758 187.171 202.429 192.694 211.715C192.721 211.77 192.762 211.818 192.811 211.855C192.861 211.892 192.918 211.917 192.979 211.928C193.04 211.939 193.103 211.935 193.162 211.917C193.221 211.9 193.276 211.868 193.321 211.826C199.927 204.277 206.528 196.726 213.124 189.171C215.125 186.886 217.121 184.596 219.111 182.3C219.524 181.824 219.111 180.332 218.555 180.951L218.532 180.975Z" fill="#2B2523"/>
<path d="M199.674 212.619C199.396 211.659 199.325 210.667 199.102 209.699C198.901 208.674 198.378 207.74 197.609 207.033C197.331 206.779 197.014 207.033 196.911 207.327C196.839 207.505 196.818 207.699 196.851 207.888C196.883 208.077 196.967 208.254 197.093 208.398C197.245 208.529 197.383 208.676 197.506 208.834L197.689 209.096C197.689 209.096 197.76 209.223 197.736 209.168C197.713 209.112 197.784 209.263 197.784 209.279C197.876 209.463 197.953 209.654 198.014 209.85C197.975 209.723 198.014 209.993 198.054 210.033L198.125 210.342C198.308 211.247 198.395 212.167 198.65 213.056C198.729 213.334 198.943 213.746 199.301 213.587C199.452 213.481 199.567 213.329 199.628 213.154C199.689 212.979 199.694 212.789 199.642 212.611L199.674 212.619Z" fill="#2B2523"/>
<path d="M149.19 74.4156L142.424 70.8687L139.637 71.2099L132.126 74.3997L123.884 75.9074L100.706 74.487L87.5722 72.7731L78.1787 78.8354L45.1309 104.235L53.6429 105.441L86.5797 82.4538L90.8198 83.0013L97.5612 85.3659L105.914 86.453L120.35 84.3185L129.458 81.2L137.93 76.4152L140.677 74.3204L144.314 73.7808L148.967 76.5898L152.421 92.9438L158.265 107.814L164.8 117.796L172.217 123.692L177.918 119.471L167.294 110.448L160.735 102.379L155.216 92.9676L149.19 74.4156Z" fill="#A03D8F"/>
<g style="mix-blend-mode:multiply">
<path d="M49.5137 104.806L87.0399 77.9624C87.0399 77.9624 101.182 83.8422 110.861 83.0804C120.54 82.3187 140.717 74.2964 140.717 74.2964L129.497 81.176L117.34 84.7388L103.524 85.9846L86.6191 82.4298L53.6824 105.441L49.5137 104.806Z" fill="#DADADA"/>
</g>
<g style="mix-blend-mode:multiply">
<path d="M170.802 123.803C170.802 123.803 161.599 110.726 159.082 103.767L156.597 96.8081L150.84 79.4146L149.252 80.2953L152.428 92.9437L158.272 107.814L164.807 117.796L170.802 123.803Z" fill="#DADADA"/>
</g>
<g style="mix-blend-mode:multiply">
<path d="M166.671 128.175L157.166 106.957L148.964 76.5898L144.311 73.7808L142.715 73.146L146.145 85.6992L156.348 113.392L164.892 129.818L166.671 128.175Z" fill="#DADADA"/>
</g>
<path d="M49.6074 109.734L86.5778 82.4535L99.5604 85.6434L117.299 84.7626L138.198 77.5259L133.887 81.7711L119.912 88.2937L104.547 90.4203L88.2215 88.3889L53.0853 110.908L49.6074 109.734Z" fill="#DADADA"/>
<path d="M149.425 122.2L146.678 105.052L140.603 75.5024L138.197 77.5259L141.723 99.1249L149.425 122.2Z" fill="#DADADA"/>
<path d="M158.598 141.966C142.963 140.467 127.058 141.966 111.749 145.41C107.546 146.352 103.393 147.455 99.2908 148.719C98.6635 148.917 98.8621 150.465 99.6005 150.235C114.538 145.586 130.074 143.14 145.718 142.974C150.022 142.974 154.32 143.162 158.613 143.537C159.288 143.601 159.28 142.03 158.613 141.95L158.598 141.966Z" fill="#2B2523"/>
<path d="M99.9034 149.068C93.5544 136.629 90.5785 122.744 91.2722 108.798C91.3199 107.822 90.2876 107.862 90.24 108.798C89.53 123.018 92.5607 137.176 99.03 149.862C99.5064 150.782 100.245 149.703 99.9034 149.068Z" fill="#2B2523"/>
<path d="M158.979 142.188C150.298 126.788 144.386 109.987 141.51 92.547C140.7 87.6168 140.133 82.6653 139.81 77.6927C139.755 76.7326 138.715 76.7405 138.778 77.6927C139.93 95.6159 144.2 113.201 151.395 129.659C153.453 134.329 155.745 138.892 158.264 143.331C158.447 143.664 158.804 143.561 158.994 143.331C159.096 143.164 159.15 142.971 159.15 142.776C159.15 142.58 159.096 142.388 158.994 142.22L158.979 142.188Z" fill="#2B2523"/>
<path d="M139.032 76.9944C128.139 86.2376 114.063 90.8618 99.8068 89.8809C95.8945 89.6121 92.0316 88.8523 88.3092 87.6194C87.5866 87.3814 87.4437 88.9366 88.0709 89.1509C101.665 93.6738 117.101 91.698 129.679 85.0802C133.218 83.2192 136.532 80.9589 139.556 78.3434C140.049 77.9228 139.644 76.439 139.001 76.9944H139.032Z" fill="#2B2523"/>
<path d="M87.9436 87.7147C78.7248 95.5068 68.2514 101.672 57.6034 107.306C54.6019 108.893 51.5766 110.433 48.5513 111.964C47.9558 112.258 48.194 113.813 48.861 113.472C59.7235 108.02 70.4668 102.323 80.3685 95.3164C83.1555 93.3485 85.8711 91.2616 88.4756 89.0636C88.9679 88.643 88.5709 87.1592 87.9198 87.7147H87.9436Z" fill="#2B2523"/>
<path d="M90.691 107.425C77.4889 112.993 62.9423 114.569 48.8531 111.956C48.0591 111.813 47.9797 113.36 48.6149 113.479C62.8859 116.149 77.6274 114.571 91.0086 108.941C91.62 108.679 91.3977 107.131 90.691 107.425Z" fill="#2B2523"/>
<path d="M156.977 138.57C156.596 139.284 156.572 139.57 156.89 139.427C156.951 139.401 157.015 139.383 157.08 139.371C157.207 139.371 157.35 139.316 157.477 139.3C157.93 139.229 158.383 139.181 158.827 139.133C159.77 139.033 160.706 138.877 161.63 138.665C162.035 138.562 162.059 137.769 161.916 137.499C153.625 122.042 147.463 105.536 143.598 88.4288C142.539 83.6995 141.729 78.9385 141.168 74.1458C141.168 73.8363 140.858 73.4951 140.517 73.6141C140.175 73.7331 140.144 74.2965 140.183 74.5901C142.248 92.0074 147.512 109.012 154.587 125.025C156.578 129.537 158.727 133.978 161.035 138.348L161.321 137.181C159.923 137.523 158.47 137.523 157.065 137.816C156.27 137.983 155.651 138.57 156.104 139.403C156.556 140.236 157.327 139.244 156.977 138.61V138.57Z" fill="#2B2523"/>
<path d="M159.408 134.603L166.165 134.095C166.784 134.047 166.705 133.111 166.49 132.738C158.083 117.532 151.357 101.456 146.433 84.7945C145.091 80.343 143.884 75.8438 142.844 71.305C142.614 70.2893 141.669 70.9241 141.851 71.7494C145.865 88.8805 151.722 105.527 159.32 121.399C161.321 125.62 163.457 129.786 165.752 133.865L166.085 132.508L159.328 133.023C158.629 133.079 158.677 134.61 159.328 134.61L159.408 134.603Z" fill="#2B2523"/>
<path d="M165.054 130.572L175.424 127.659C176.044 127.485 175.79 126.382 175.424 126.136C161.799 118.074 155.343 102.331 151.564 87.6988C150.357 83.0251 149.348 78.3037 148.348 73.5903C148.133 72.5667 147.181 73.2015 147.355 74.0347C150.77 90.0872 154.446 107.179 165.705 119.796C168.443 122.89 171.641 125.545 175.186 127.667L175.147 126.144L164.745 129.048C164.117 129.223 164.308 130.77 165.054 130.564V130.572Z" fill="#2B2523"/>
<path d="M172.478 124.359L178.179 120.145C178.354 119.961 178.451 119.717 178.451 119.463C178.451 119.209 178.354 118.965 178.179 118.78C166.526 110.756 157.675 99.2924 152.865 85.9929C151.458 82.1616 150.396 78.2129 149.689 74.1935C149.506 73.1699 148.553 73.8127 148.696 74.6379C151.233 88.9769 158.105 102.195 168.388 112.512C171.238 115.345 174.348 117.903 177.679 120.153V118.796L171.977 123.018C171.461 123.398 171.842 124.874 172.533 124.359H172.478Z" fill="#2B2523"/>
<path d="M54.3336 109.052L47.6557 108.893C46.9649 108.893 46.9887 110.48 47.6557 110.48L54.3336 110.639C55.0244 110.639 55.0006 109.052 54.2939 109.052H54.3336Z" fill="#2B2523"/>
<path d="M47.6562 110.21C57.9787 103.458 68.3806 96.7209 78.4093 89.4445C81.2625 87.3814 84.0787 85.2654 86.8578 83.0965C87.374 82.6998 86.9849 81.2239 86.302 81.7476C73.8197 91.4203 60.5672 100.046 47.3465 108.671C46.7907 109.028 47.0527 110.575 47.6562 110.179V110.21Z" fill="#2B2523"/>
<path d="M86.4601 83.2156C93.5098 85.8462 101.01 87.0602 108.53 86.7879C116.05 86.5155 123.442 84.7623 130.283 81.6286C134.11 79.8695 137.696 77.6296 140.955 74.9632C141.455 74.5585 141.058 73.0747 140.399 73.6143C128.957 83.0014 113.307 86.6356 98.7598 84.7233C94.6417 84.1908 90.601 83.1734 86.7222 81.6921C86.0234 81.4144 85.8646 82.9776 86.4839 83.2156H86.4601Z" fill="#2B2523"/>
<path d="M53.6267 104.656C50.784 104.283 47.9493 103.862 45.1066 103.45C44.4476 103.363 44.4397 104.934 45.1066 105.037C47.9493 105.41 50.784 105.878 53.6267 106.243C54.2937 106.33 54.2937 104.759 53.587 104.656H53.6267Z" fill="#2B2523"/>
<path d="M45.4322 104.91L55.4291 97.1812C62.3108 91.8647 69.211 86.5747 76.1297 81.3112C79.8352 78.4969 83.5407 75.6905 87.2462 72.8921C87.7624 72.5033 87.3733 71.0274 86.6904 71.5432C79.7902 76.7009 72.9536 81.938 66.1169 87.1831C60.1934 91.7272 54.2778 96.2872 48.3701 100.863L44.8605 103.577C44.3444 103.974 44.7334 105.449 45.4163 104.926L45.4322 104.91Z" fill="#2B2523"/>
<path d="M86.8399 72.9634C94.0895 74.6933 101.553 75.3995 108.962 76.0422C115.894 76.6453 123.096 77.7641 130.004 76.4548C133.656 75.8533 137.08 74.2861 139.921 71.916C140.414 71.4954 140.017 70.0116 139.366 70.575C134.18 75.0583 127.121 75.7327 120.539 75.4391C117.117 75.2884 113.702 74.9154 110.296 74.6456C106.596 74.3282 102.895 73.995 99.1793 73.5506C95.1043 73.097 91.0587 72.4108 87.0622 71.4954C86.3079 71.3129 86.1809 72.8682 86.824 73.019L86.8399 72.9634Z" fill="#2B2523"/>
<path d="M139.796 71.9638C141.421 71.4919 143.157 71.5785 144.727 72.2097C146.303 72.8999 147.734 73.8828 148.944 75.106C149.221 75.3679 149.539 75.106 149.642 74.8045C149.712 74.6241 149.729 74.4274 149.692 74.2376C149.654 74.0478 149.562 73.8728 149.428 73.7333C148.118 72.4081 146.558 71.3562 144.838 70.6386C143.124 69.9899 141.243 69.923 139.487 70.4482C138.859 70.6307 139.05 72.178 139.796 71.9638Z" fill="#2B2523"/>
<path d="M138.642 77.3278C136.713 81.1048 133.314 83.2869 129.749 85.2628L121.07 90.1666C113.336 94.5044 105.605 98.8501 97.8765 103.204C95.2324 104.696 92.5803 106.171 89.9361 107.711C89.3644 108.044 89.6185 109.591 90.2458 109.226C96.2249 105.719 102.307 102.379 108.358 98.9824C115.414 95.0096 122.478 91.0421 129.551 87.0799C133.449 84.8819 137.261 82.5649 139.381 78.4307C139.482 78.2617 139.536 78.0684 139.536 77.8713C139.536 77.6742 139.482 77.4809 139.381 77.3119C139.174 77.0738 138.825 76.9866 138.65 77.3119L138.642 77.3278Z" fill="#2B2523"/>
<path d="M251.549 47.0239C245.18 47.7756 238.737 47.6421 232.405 46.6272C230.253 46.2939 228.435 46.3891 227.243 47.9841C223.059 53.3799 216.198 56.7602 207.742 58.9423C193.243 62.6797 178.974 63.7033 165.102 60.1088C159.663 58.6884 154.66 56.9348 151.961 53.3243C150.968 51.9992 149.142 51.7929 146.823 52.261C141.027 53.4434 135.373 53.4354 130.434 51.539C122.581 48.5237 121.811 40.914 128.584 35.2722C132.569 32.0498 137.321 29.9122 142.377 29.067C145.831 28.4243 148.657 27.2817 150.786 25.4011C155.764 20.9892 162.267 19.9894 169.612 20.7908C170.406 20.8781 171.256 21.0051 172.074 21.1241C177.497 21.9176 178.871 21.5367 182.11 18.3548C187.931 12.6099 195.736 8.57888 205.725 6.53165C213.816 4.87324 221.296 5.22238 227.815 8.35671C230.11 9.45174 232.579 10.3881 234.874 11.5307C235.627 11.9511 236.481 12.1558 237.343 12.1222C238.204 12.0886 239.04 11.818 239.757 11.3403C241.639 10.2056 243.331 8.95976 245.252 7.82506C253.67 2.89161 263.286 0.371277 273.044 0.54073C278.229 0.612145 282.429 1.99283 285.264 4.63519C288.908 8.04724 291.989 11.6339 290.663 16.2996C290.33 17.482 291.068 18.4262 292.251 19.2515C296.873 22.5921 297.357 27.0992 293.562 31.3999C289.996 35.4151 284.438 38.1685 278.554 40.5728C269.918 44.0354 260.819 46.209 251.549 47.0239Z" fill="white"/>
<path d="M377.155 19.0691C381.546 14.3081 386.739 12.0704 393.305 13.102C401.047 14.316 406.01 20.1562 405.129 27.0755C404.958 28.5875 404.647 30.0804 404.2 31.535C403.763 32.8998 404.104 33.5346 405.645 34.0345C409.67 35.3676 413.156 37.3831 414.538 41.176C416.555 46.7305 414.601 51.6343 410.123 55.7922C404.207 61.2991 396.624 63.5447 388.358 63.8939C380.982 64.2113 374.01 62.9099 367.833 59.3154C366.07 58.2838 364.569 58.9821 363.068 59.8788C358.095 62.8131 352.511 64.5617 346.751 64.9889C344.832 65.1576 342.899 65.099 340.994 64.8143C332.133 63.4813 328.393 55.1654 333.721 48.6269C335.617 46.3284 338.057 44.5392 340.819 43.4216C343.368 42.3583 343.543 41.8901 342.344 39.6604C339.702 34.9625 338.15 29.7315 337.802 24.3538C337.58 21.4659 338.014 18.5653 339.073 15.8691C340.132 13.173 341.788 10.7512 343.916 8.78532C350.681 2.39764 361.877 2.43732 369.325 8.70597C372.173 11.1017 374.509 14.0459 376.194 17.3631C376.448 17.8947 376.75 18.3708 377.155 19.0691Z" fill="white"/>
<path d="M484.288 190.148C480.346 190.555 476.376 190.606 472.425 190.298C471.759 190.191 471.076 190.247 470.437 190.463C469.798 190.679 469.221 191.047 468.756 191.536C461.494 198.697 452.27 203.545 442.251 205.47C430.182 207.898 419.661 206.025 410.919 200.154C407.536 197.884 406.464 197.638 401.962 199.138C395.858 201.261 389.439 202.334 382.976 202.312C372.9 202.177 366.802 197.241 366.786 189.314C366.705 186.9 367.014 184.489 367.699 182.173C369.525 176.618 375.37 172.564 383.064 171.611C387.137 171.111 387.368 170.977 387.034 167.945C386.002 158.082 396.197 146.576 408.521 144.101C418.843 142.038 428.586 142.434 436.733 147.529C438.186 148.441 439.568 149.449 439.973 150.853C440.56 152.885 441.894 152.734 443.855 151.647C449.006 148.855 454.645 147.08 460.467 146.418C466.104 145.719 471.583 145.87 476.657 147.537C480.453 148.782 483.168 150.869 484.669 153.702C485.463 155.289 486.868 155.932 489.211 155.964C502.082 156.17 510.237 164.438 509.729 173.936C509.371 180.745 501.058 187.227 491.077 189.013C488.663 189.433 486.225 189.798 484.288 190.148Z" fill="white"/>
<path d="M20.2279 187.886C21.6254 187.839 23.0309 187.72 24.4363 187.759C27.9142 187.87 27.8745 187.902 28.2397 184.284C28.8591 178.229 31.2333 173.024 35.8149 169.009C41.8496 163.732 49.0277 162.875 56.5631 164.042C64.0985 165.208 70.3079 168.755 73.5079 176.277C74.1907 177.864 75.0959 177.793 76.4538 177.134C80.9798 174.897 85.4899 172.587 90.4129 171.373C98.7106 169.326 106.643 169.723 113.678 175.396C115.621 176.987 117.128 179.042 118.061 181.372C118.776 183.078 119.649 183.53 121.237 182.316C127.447 177.452 134.617 176.833 142.152 177.293C149.688 177.753 152.935 181.983 153.563 189.505C153.693 192.005 153.598 194.512 153.277 196.996C153.152 198.657 152.684 200.275 151.902 201.748C151.12 203.22 150.042 204.514 148.735 205.549C142.256 210.882 134.728 211.834 126.772 211.271C121.507 210.89 116.267 210.104 110.955 210.477C106.595 210.787 102.419 211.675 98.6947 214.016C90.2144 219.325 81.2259 219.372 71.9198 216.897C70.8719 216.654 69.8381 216.355 68.823 216C60.6047 212.826 52.9979 214.246 45.6292 218.73C38.4828 223.078 30.344 221.943 24.4204 215.921C23.1976 214.675 22.3956 215.079 21.2443 215.762C13.8994 220.134 11.6682 219.904 5.47468 214.254C-2.25131 207.2 -1.21112 197.234 7.85679 191.981C11.6259 189.717 15.8515 188.318 20.2279 187.886Z" fill="white"/>
<path d="M344.41 38.7239C337.264 29.5114 338.701 15.3633 349.175 9.22952C358.528 3.74644 369.748 8.43602 374.457 17.6803C374.806 18.3706 375.37 17.5613 375.116 17.0693C369.796 6.6189 356.853 1.94519 346.975 9.41203C337.518 16.5535 336.875 30.5112 343.91 39.565C344.347 40.1284 344.744 39.1048 344.434 38.716L344.41 38.7239Z" fill="#1D1D1B"/>
<path d="M376.473 20.7275C381.674 17.7994 387.169 14.681 393.315 14.6889C400.993 14.6889 408.672 21.0369 405.845 29.3845C405.67 29.9003 406.274 30.6938 406.528 29.9638C407.433 27.2067 407.337 24.2188 406.257 21.5254C405.176 18.8319 403.18 16.6052 400.62 15.2364C392.426 10.8166 383.453 15.5776 376.243 19.5928C375.806 19.8387 375.997 20.9972 376.473 20.7275Z" fill="#1D1D1B"/>
<path d="M366.618 59.9499C380.379 61.7829 395.64 61.2115 408.702 56.1728C412.617 54.6731 416.389 52.2053 417.604 47.9283C418.604 44.4687 417.897 40.6361 414.959 38.4063C414.451 38.0175 414.205 39.1364 414.594 39.43C420.589 44.0402 415.706 51.5784 410.56 54.1653C406.273 56.3236 401.207 57.3393 396.53 58.1328C386.633 59.9154 376.517 60.127 366.555 58.7596C366.055 58.6882 366.055 59.8705 366.555 59.9419L366.618 59.9499Z" fill="#1D1D1B"/>
<path d="M442.276 153.964C446.878 149.621 452.777 146.904 459.07 146.227C465.058 145.662 471.072 147.009 476.245 150.076C479.343 151.893 482.1 154.238 484.392 157.003C484.773 157.463 485.098 156.614 484.828 156.297C480.83 151.426 475.443 147.887 469.384 146.148C463.329 144.473 456.888 144.855 451.074 147.235C447.693 148.619 444.595 150.612 441.934 153.115C441.641 153.393 441.895 154.321 442.276 153.964Z" fill="#1D1D1B"/>
<path d="M485.328 161.288C490.489 160.494 495.944 159.701 501.05 161.288C503.195 161.915 505.161 163.042 506.785 164.576C508.41 166.11 509.647 168.007 510.396 170.112C514.024 180.856 499.692 185.148 492.045 187.069C485.957 188.585 479.688 189.245 473.417 189.029C472.988 189.029 473.004 189.997 473.417 190.013C479.357 190.207 485.297 189.62 491.085 188.267C494.087 187.566 497.037 186.659 499.914 185.553C502.15 184.751 504.283 183.685 506.267 182.379C509.975 179.832 512.166 175.801 511.317 171.27C510.864 169.145 509.943 167.148 508.62 165.424C507.297 163.7 505.606 162.292 503.67 161.304C498.001 158.423 491.251 159.384 485.225 160.28C484.78 160.344 484.828 161.328 485.225 161.264L485.328 161.288Z" fill="#1D1D1B"/>
<path d="M389.709 171.421C384.309 171.643 378.656 171.905 373.741 174.397C371.733 175.402 369.962 176.822 368.544 178.562C367.126 180.301 366.094 182.322 365.514 184.49C364.971 186.575 365.018 188.771 365.649 190.831C366.279 192.892 367.47 194.737 369.088 196.162C373.113 199.741 378.616 200.288 383.777 200.13C390.648 199.917 397.468 198.875 404.089 197.027C404.486 196.916 404.367 195.948 403.898 196.083C398.488 197.584 392.942 198.548 387.343 198.963C382.237 199.336 376.607 199.598 371.954 197.091C367.873 194.885 365.181 190.679 365.896 185.982C366.283 183.815 367.152 181.763 368.44 179.977C369.728 178.191 371.401 176.718 373.336 175.666C378.322 172.905 384.166 172.643 389.733 172.413C390.169 172.413 390.145 171.413 389.733 171.429L389.709 171.421Z" fill="#1D1D1B"/>
<path d="M118.235 183.141C117.297 180.379 115.816 177.833 113.878 175.653C111.94 173.472 109.585 171.702 106.952 170.445C101.274 167.874 95.1524 168.715 89.5703 171.143C85.6454 172.973 81.8793 175.126 78.3108 177.578C77.9615 177.801 78.1282 178.761 78.5014 178.523C84.3852 174.722 90.6899 170.532 97.8521 169.874C100.477 169.673 103.115 170.032 105.59 170.928C108.065 171.824 110.321 173.237 112.208 175.071C114.678 177.465 116.554 180.402 117.687 183.649C117.91 184.252 118.394 183.561 118.235 183.141Z" fill="#1D1D1B"/>
<path d="M61.9804 212.278C65.3074 217.547 71.6915 219.745 77.6468 220.173C85.3013 220.729 92.7811 218.356 99.6416 215.174C103.906 213.207 107.995 210.89 112.068 208.58C112.434 208.374 112.275 207.406 111.878 207.636C99.6654 214.563 84.547 223.125 70.1669 217.595C67.0025 216.473 64.2846 214.361 62.4171 211.572C62.1074 211.072 61.7581 211.929 61.9804 212.278Z" fill="#1D1D1B"/>
<path d="M76.2793 181.982C72.3091 173.984 65.7663 166.771 57.1192 163.899C49.1788 161.24 40.0632 163.232 34.6479 169.905C32.8513 172.216 31.5522 174.873 30.8321 177.709C30.112 180.545 29.9864 183.499 30.4633 186.386C30.5665 187.029 31.1621 186.624 31.0827 186.109C30.6578 183.454 30.7727 180.74 31.4208 178.131C32.0688 175.521 33.2366 173.069 34.8543 170.921C37.6016 167.472 41.4549 165.076 45.7644 164.137C53.2363 162.494 60.8512 165.517 66.4968 170.358C70.3663 173.739 73.5104 177.869 75.7394 182.498C76.0252 183.077 76.4858 182.395 76.2793 181.982Z" fill="#1D1D1B"/>
<path d="M30.7098 185.561L13.1695 190.631C9.1993 191.774 4.64946 192.671 2.05295 196.138C-0.54355 199.606 -0.448264 204.788 1.06835 208.834C1.89409 210.953 3.16052 212.873 4.78392 214.467C6.40733 216.06 8.35073 217.291 10.4856 218.079C13.0777 219.06 15.8688 219.399 18.6205 219.067C21.3722 218.735 24.0026 217.743 26.287 216.174C26.6284 215.936 26.4617 214.976 26.0964 215.222C24.1482 216.582 21.9317 217.51 19.5954 217.943C17.2591 218.377 14.8571 218.307 12.5501 217.737C10.3585 217.219 8.30341 216.238 6.52292 214.859C4.74244 213.481 3.27786 211.738 2.22764 209.747C0.218727 205.74 -0.321219 200.122 2.79141 196.511C5.37203 193.52 9.58838 192.703 13.2092 191.655L30.9321 186.529C31.3291 186.418 31.2021 185.45 30.7416 185.585L30.7098 185.561Z" fill="#1D1D1B"/>
<path d="M112.592 209.104C120.114 210.407 127.779 210.674 135.373 209.898C140.725 209.334 147.173 208.676 150.849 204.232C154.351 200.003 154.375 193.837 152.914 188.798C151.325 183.379 147.657 178.626 142.178 176.761C135.032 174.325 127.981 177.729 121.684 180.895C121.311 181.078 121.462 182.046 121.882 181.839C127.314 179.11 133.261 176.086 139.534 177.078C142.268 177.572 144.825 178.77 146.953 180.554C149.081 182.338 150.706 184.647 151.667 187.251C153.612 192.155 154.089 198.558 150.793 203.01C147.498 207.461 141.265 208.231 136.112 208.826C128.27 209.704 120.345 209.472 112.568 208.136C112.163 208.065 112.156 209.048 112.568 209.12L112.592 209.104Z" fill="#1D1D1B"/>
<path d="M178.22 23.1078C183.925 17.6429 190.736 13.4631 198.194 10.8502C205.652 8.23718 213.584 7.25165 221.455 7.95994C225.912 8.38296 230.297 9.37497 234.501 10.9118C234.954 11.0705 235.041 10.1183 234.652 9.95162C227.124 7.29384 219.11 6.29709 211.159 7.02992C203.209 7.76276 195.512 10.2078 188.598 14.1968C184.705 16.4337 181.104 19.1443 177.878 22.2667C177.585 22.5445 177.878 23.4729 178.22 23.1078Z" fill="#1D1D1B"/>
<path d="M286.749 21.1319C287.79 21.1475 288.809 21.4338 289.705 21.9625C290.602 22.4912 291.345 23.2442 291.862 24.1472C292.457 25.1332 292.812 26.2448 292.899 27.3927C292.986 28.5406 292.802 29.6929 292.362 30.7571C290.608 35.3356 286.01 37.6923 281.556 38.9857C276.426 40.4854 271.106 41.4693 265.857 42.4533C260.479 43.4584 255.074 44.3127 249.643 45.0163C243.585 45.8098 237.486 46.3731 231.38 46.7699C230.936 46.7699 230.967 47.7776 231.38 47.7538C243.463 46.9788 255.485 45.4417 267.374 43.1515C270.28 42.5908 273.178 41.9824 276.069 41.3265C278.706 40.799 281.305 40.0992 283.85 39.2316C288.122 37.6446 292.172 34.6293 293.291 29.9874C294.324 25.6866 291.656 20.0607 286.693 20.148C286.256 20.148 286.28 21.1398 286.693 21.1319H286.749Z" fill="#1D1D1B"/>
<path d="M144.456 30.2097C140.486 29.8606 136.396 29.5114 132.617 30.9001C129.808 31.9112 127.506 33.9783 126.201 36.6609C123.517 42.4852 127.837 48.7776 133.562 50.4598C138.008 51.7691 142.685 50.7455 147.06 49.7536C147.497 49.6584 147.441 48.6824 147.06 48.7697C140.779 50.19 133.26 51.5311 128.408 46.167C127.346 45.0846 126.606 43.7289 126.27 42.2509C125.933 40.7728 126.014 39.2305 126.503 37.7956C127.047 36.4803 127.853 35.2889 128.871 34.2934C129.889 33.2978 131.098 32.5187 132.426 32.003C136.222 30.416 140.494 30.8525 144.48 31.2095C144.908 31.2095 144.9 30.2653 144.48 30.2256L144.456 30.2097Z" fill="#1D1D1B"/>
<path d="M149.784 49.5788C157.901 57.1591 168.129 62.1006 179.115 63.7507C189.915 65.2532 200.912 63.2858 210.52 58.1327C215.933 55.2404 220.817 51.452 224.963 46.9285C225.233 46.6349 224.963 45.7065 224.614 46.0874C217.288 54.1041 207.685 59.6913 197.092 62.1002C186.51 64.3919 175.474 63.2809 165.561 58.9262C159.863 56.4389 154.63 53.0017 150.085 48.7615C149.704 48.4044 149.49 49.3408 149.784 49.6185V49.5788Z" fill="#1D1D1B"/>
</svg>
