<svg width="20" height="20" viewBox="0 0 20 20" fill="none" xmlns="http://www.w3.org/2000/svg">
<path d="M20 10C20 8.609 19.228 7.3555 18.044 6.71C18.492 5.384 18.1695 3.8665 17.1515 2.8485C16.1335 1.8305 14.6165 1.509 13.29 1.956C12.6445 0.772 11.391 0 10 0C8.609 0 7.3555 0.772 6.71 1.956C5.383 1.5075 3.866 1.8305 2.8485 2.8485C1.8305 3.8665 1.5075 5.384 1.956 6.71C0.772 7.3555 0 8.609 0 10C0 11.391 0.772 12.6445 1.956 13.29C1.508 14.616 1.8305 16.1335 2.8485 17.1515C3.867 18.1695 5.385 18.4925 6.71 18.044C7.3555 19.228 8.609 20 10 20C11.391 20 12.6445 19.228 13.29 18.044C14.6165 18.4925 16.1335 18.169 17.1515 17.1515C18.1695 16.1335 18.4925 14.616 18.044 13.29C19.228 12.6445 20 11.391 20 10ZM14.2805 8.2805L9.2805 13.2805C9.134 13.427 8.942 13.5 8.75 13.5C8.558 13.5 8.366 13.427 8.2195 13.2805L5.7195 10.7805C5.4265 10.488 5.4265 10.0125 5.7195 9.72C6.0125 9.427 6.487 9.427 6.78 9.72L8.7495 11.6895L13.219 7.22C13.512 6.927 13.9865 6.927 14.2795 7.22C14.573 7.5125 14.573 7.9875 14.2805 8.2805Z" fill="#9A469B"/>
</svg>
