<svg width="252" height="324" viewBox="0 0 252 324" fill="none" xmlns="http://www.w3.org/2000/svg">
<g clip-path="url(#clip0_22870_72892)">
<path d="M42.1366 56.842C42.062 56.6922 41.9875 56.5424 41.9129 56.3926C42.2112 51.7494 42.5095 47.1062 42.8078 42.4629C42.8824 41.4894 42.3603 40.8153 41.6891 40.5158C41.8383 37.2206 42.062 33.8505 42.2112 30.5553C42.5095 25.1632 41.4654 20.8944 35.1262 21.4186C34.6042 21.4935 34.1567 21.6433 33.8584 21.868C32.5906 20.9693 30.2787 21.5684 30.2787 23.5905C30.1295 32.4276 29.9803 41.2647 29.8312 50.1018C29.7566 54.1459 28.9363 58.9389 29.682 62.9081C30.0549 65.08 31.5465 66.8024 33.933 66.6527C35.1263 66.5778 35.9466 66.1284 36.6178 65.5293C37.0653 66.2033 37.8856 66.6527 38.9297 66.5029C39.2281 66.428 39.4518 66.428 39.7501 66.3531C40.123 66.2782 40.4959 66.0535 40.7196 65.754C43.5536 63.8817 43.4044 60.0623 42.1366 56.842Z" fill="#CA6CA8"/>
<path d="M42.5836 43.4365C42.5091 42.7625 42.2108 42.3131 41.7633 41.9387C42.2853 35.6479 42.8074 29.2821 41.7633 23.0662C41.3158 20.2204 36.9903 21.4186 37.4377 24.2645C39.6005 37.8197 34.7529 51.4498 37.8852 64.9301C38.3327 66.9522 41.8379 67.1769 42.2108 64.9301C43.404 57.7406 43.5532 50.626 42.5836 43.4365Z" fill="#A15686"/>
<path d="M47.1341 33.0269C47.2086 30.6304 43.4797 30.6304 43.4051 33.0269C42.9577 43.0622 43.0323 53.0976 43.5543 63.0581C43.7035 65.4546 47.4324 65.4546 47.2832 63.0581C46.6866 53.0976 46.6866 43.0622 47.1341 33.0269Z" fill="#C1D231"/>
<path d="M56.8288 50.3267C56.978 43.7363 57.3509 37.1459 57.1271 30.5556C57.0525 28.8331 57.1271 26.8859 56.1576 25.3881C55.2627 23.9652 53.4728 23.1414 51.8321 23.5907C51.3846 23.7405 51.0117 24.0401 50.7134 24.4145C50.0422 24.4894 49.4456 24.8639 49.2218 25.7625C46.9099 36.4719 47.4319 47.7055 47.3574 58.6396C47.3574 59.9876 47.2828 61.3357 47.3574 62.6837C47.4319 64.0317 47.954 65.3049 49.371 65.6044C50.4897 65.8291 51.2354 65.3049 51.7575 64.556C52.6524 65.9789 54.666 65.9789 55.7101 64.7806C56.6796 63.5824 56.4559 61.7101 56.4559 60.2872C56.6796 56.992 56.7542 53.6968 56.8288 50.3267Z" fill="#E9447B"/>
<path d="M58.0219 45.0844C58.0219 38.6437 57.9473 32.278 57.9473 25.8374C57.9473 23.4409 54.2184 23.4409 54.2184 25.8374C54.2184 32.278 54.293 38.6437 54.293 45.0844C54.293 51.3752 54.5913 57.8158 53.8455 64.1066C53.6964 65.0802 54.815 65.9789 55.71 65.9789C56.8286 65.9789 57.4253 65.0802 57.5744 64.1066C58.3948 57.8158 58.0965 51.4501 58.0219 45.0844Z" fill="#A73359"/>
<path d="M78.3072 60.961C78.6055 60.2869 78.531 59.4631 77.9343 58.864C76.6665 57.516 75.2495 56.3926 73.7579 55.3441C72.7139 53.397 71.8935 51.3 70.7748 49.4278C69.6561 47.4806 68.2392 45.6832 66.7476 44.0356C66.0018 43.2118 65.1814 42.388 64.3611 41.5642C64.0628 41.3396 63.7645 41.04 63.5407 40.8153C63.6153 40.4409 63.5407 39.9915 63.317 39.4673C62.7204 38.1193 61.0051 37.2955 59.6627 38.0444C58.544 38.6435 58.2457 39.8418 58.6186 40.8902C58.1711 41.4894 58.0219 42.388 58.4694 42.9872C58.6186 43.2118 58.7677 43.3616 58.9169 43.5863C58.8423 44.5599 58.9169 45.5335 59.2152 46.4321C59.8864 48.6789 61.4525 50.4762 63.2424 51.9741C64.1374 52.723 65.1069 53.4719 66.0764 54.2957C66.0764 55.1195 66.673 55.7186 67.4188 56.0182C67.4934 56.0182 67.5679 56.0931 67.6425 56.0931C68.612 57.516 69.6561 58.9389 70.6257 60.4367C71.2969 61.3354 71.8935 62.2341 72.5647 63.1328C73.2359 64.0315 73.8325 65.1548 74.7275 65.8289C76.5919 67.2518 79.1276 66.2033 79.4259 63.8817C79.5751 62.6834 79.053 61.7848 78.3072 60.961Z" fill="#1697A6"/>
<path d="M109.481 59.3883C109.258 53.0975 108.959 46.8815 108.586 40.6656C108.586 40.2912 108.437 39.9916 108.288 39.692C108.437 39.1678 108.512 38.7185 108.437 38.1942C108.437 37.9695 108.363 37.67 108.213 37.5202C108.213 37.4453 108.288 37.3704 108.288 37.2955C108.288 37.1457 108.363 36.996 108.363 36.9211C108.437 36.6964 108.437 36.3968 108.363 36.1722C108.363 35.9475 108.288 35.7228 108.139 35.4981C108.064 35.3484 107.915 35.1986 107.766 35.0488C107.915 33.2514 108.139 31.454 108.288 29.6567C108.363 28.4584 107.02 27.4848 105.901 27.8593C104.857 28.2337 103.813 28.1589 102.918 27.4099C102.173 26.7359 101.054 26.661 100.308 27.4099C100.308 27.4099 100.234 27.4848 100.234 27.5597C99.9352 27.4099 99.6369 27.2602 99.264 27.2602C98.1453 27.2602 97.4741 28.084 97.3996 29.1324C96.8029 35.573 96.5046 42.0885 96.43 48.604C96.3555 51.8243 96.3555 55.0446 96.2809 58.2649C96.2809 59.9125 96.1317 61.8597 96.7283 63.4324C95.6097 64.5558 96.5046 66.5029 98.0708 66.5778C99.6369 66.7276 101.203 66.8025 102.769 66.9523C104.112 67.0272 105.529 67.3267 106.796 67.1021C110.451 66.2783 109.556 62.0095 109.481 59.3883Z" fill="#5CBFBE"/>
<path d="M107.914 29.2072C107.84 28.2337 107.094 27.335 106.05 27.335C105.155 27.335 104.111 28.1588 104.185 29.2072C105.379 41.2646 105.975 53.3221 105.975 65.4544C105.975 67.8509 109.704 67.8509 109.704 65.4544C109.704 53.3221 109.182 41.1898 107.914 29.2072Z" fill="#1697A6"/>
<path d="M91.2088 32.278C91.2834 31.9785 91.4326 31.6789 91.5072 31.3794C91.5817 31.1547 91.5817 30.8551 91.5072 30.6305C91.5072 30.4058 91.4326 30.1811 91.2834 29.9564C91.1343 29.7318 90.9851 29.582 90.836 29.4322C90.6868 29.2824 90.4631 29.1326 90.1647 29.1326C90.0156 29.1326 89.8664 29.0577 89.6427 29.0577C89.2698 29.0577 88.9715 29.1326 88.6732 29.2824L88.4494 29.4322C88.3749 29.4322 88.3749 29.4322 88.3003 29.4322C88.002 29.4322 87.7782 29.5071 87.4799 29.6569C87.1816 29.0577 86.585 28.6084 85.8392 28.6084C84.8697 28.6084 83.9002 29.4322 83.9747 30.4807C84.9443 40.9654 85.9138 51.4501 86.8087 61.9348C86.8833 62.5339 87.107 63.0582 87.5545 63.4326C87.5545 63.882 87.5545 64.4062 87.5545 64.8555C87.4799 67.252 91.2088 67.252 91.2834 64.8555C91.5072 54.3708 91.1343 43.8112 90.3139 33.3265C90.3885 33.2516 90.4631 33.1767 90.6122 33.1018C90.9851 32.8772 91.1343 32.5776 91.2088 32.278Z" fill="#F6A318"/>
<path d="M153.855 116.53C153.855 116.23 153.78 116.006 153.631 115.706C153.855 107.543 153.855 99.38 153.631 91.2918C153.557 88.446 153.482 85.5253 153.333 82.6794C153.333 82.2301 153.407 81.8556 153.407 81.4063C153.407 81.1067 153.333 80.8071 153.184 80.5825C153.184 80.0582 153.109 79.534 153.109 79.0846C153.035 77.3622 151.021 76.8379 149.977 77.6617L149.902 77.5868C148.933 76.9128 147.59 76.9128 146.695 77.7366C145.726 78.6353 145.95 80.3578 145.95 81.556C145.875 84.1023 145.875 86.5737 145.875 89.12C145.875 94.1377 146.099 99.1554 146.397 104.173C146.695 108.816 147.143 113.534 147.665 118.178C147.292 118.927 147.217 119.75 147.739 120.574C147.739 120.649 147.814 120.649 147.814 120.724C147.889 121.098 147.963 121.548 148.112 121.922C148.112 122.072 148.187 122.222 148.262 122.297C148.262 122.297 148.261 122.297 148.187 122.297C148.112 122.446 147.963 122.521 147.889 122.671C147.739 122.971 147.665 123.27 147.665 123.645C147.739 124.244 147.739 124.918 147.814 125.517C147.814 125.742 147.889 126.041 147.963 126.266C148.038 126.491 148.187 126.715 148.336 126.865C148.485 127.015 148.709 127.165 148.933 127.239C149.082 127.314 149.156 127.314 149.306 127.389C149.156 129.861 149.082 132.332 148.933 134.803C148.784 136.975 151.99 137.275 152.587 135.328C154.601 129.187 154.302 122.821 153.855 116.53Z" fill="#CA6CA8"/>
<path d="M149.306 123.645C149.306 123.42 149.231 123.195 149.082 122.971C148.933 122.746 148.784 122.596 148.635 122.446C148.486 122.297 148.262 122.147 147.964 122.147C147.814 122.147 147.665 122.072 147.442 122.072H147.367C147.292 120.2 147.143 118.327 147.069 116.53C147.292 116.23 147.442 115.856 147.367 115.481C147.143 113.909 146.994 112.336 146.77 110.763C146.398 103.724 146.099 96.6839 145.875 89.6441C145.801 88.1463 144.309 87.5472 143.265 87.9965C143.041 87.9965 142.818 88.0714 142.519 88.1463C142.519 88.1463 142.519 88.1463 142.445 88.1463C141.252 87.6221 140.133 88.8952 140.058 89.9437C139.536 98.0319 139.462 106.12 139.835 114.133C140.058 118.178 140.357 122.222 140.804 126.191C141.028 128.213 141.252 130.16 141.55 132.182C141.848 134.054 142.221 136.226 144.309 136.75C145.428 137.05 146.845 136.601 147.292 135.402C147.74 135.103 148.038 134.653 148.038 133.905C148.113 131.733 148.113 129.561 148.187 127.314C148.187 126.94 148.187 126.565 148.187 126.191C148.262 126.116 148.411 126.041 148.486 125.966C148.709 125.741 148.859 125.442 148.933 125.142C149.008 124.918 149.008 124.693 149.082 124.468C149.381 124.169 149.381 123.944 149.306 123.645Z" fill="#1697A6"/>
<path d="M140.58 131.808C140.655 131.583 140.729 131.358 140.729 131.059C140.058 122.072 139.387 113.085 138.716 104.098C139.163 103.799 139.536 103.349 139.685 102.675L140.058 100.653C140.207 99.9793 140.133 99.2304 139.76 98.6312C139.462 98.107 138.79 97.5828 138.194 97.433C137.373 97.2832 136.478 97.433 135.807 97.9572C135.509 98.0321 135.211 98.107 134.912 98.3317C134.539 98.0321 134.092 97.8823 133.57 97.8074C133.197 97.7325 132.824 97.7325 132.526 97.7325L128.946 97.5828C126.485 97.5079 125.59 100.803 127.156 102.226C125.59 107.393 127.305 115.631 127.529 119.076C127.753 121.772 127.902 124.469 128.126 127.09C128.275 128.887 128.126 131.209 128.797 132.931C130.512 137.275 134.912 136.002 138.492 135.777C140.953 135.777 141.699 133.455 140.58 131.808Z" fill="#E9447B"/>
<path d="M141.997 133.455C139.61 122.671 138.79 111.737 139.461 100.653C139.685 97.283 134.464 97.283 134.24 100.653C133.569 112.111 134.464 123.57 137 134.803C137.671 138.173 142.742 136.75 141.997 133.455Z" fill="#C83C6A"/>
<path d="M128.424 125.442C127.827 117.129 127.231 108.816 126.709 100.503C126.634 99.6796 126.336 99.0056 125.888 98.4813C125.963 96.6091 126.037 94.7368 126.187 92.8645C126.336 90.3182 124.173 89.3447 122.234 89.7191C121.637 89.2698 120.966 88.9702 120.146 88.9702C119.4 88.9702 118.654 89.12 117.983 89.2698C117.61 89.1949 117.312 89.1949 116.939 89.2698C115.298 89.3447 113.881 90.3931 114.03 92.4901V92.565C114.03 92.7896 114.03 93.0143 114.105 93.239C114.776 101.402 115.522 109.565 116.193 117.803C116.566 121.997 116.79 126.191 117.312 130.31C117.386 130.984 117.536 131.583 117.685 132.182C117.013 134.129 118.058 136.751 120.742 136.751C121.041 136.751 121.264 136.751 121.488 136.676C122.309 136.975 123.203 136.975 124.024 136.825C124.397 136.975 124.77 137.05 125.143 137.05C127.678 137.05 128.722 134.803 128.275 132.856C129.021 130.535 128.573 127.764 128.424 125.442Z" fill="#CA6CA8"/>
<path d="M126.11 92.1906C126.036 89.2698 121.561 89.2698 121.636 92.1906C122.083 106.345 122.978 120.424 124.32 134.504C124.619 137.35 129.094 137.35 128.795 134.504C127.453 120.424 126.558 106.345 126.11 92.1906Z" fill="#BD659D"/>
<path d="M117.013 134.429C115.745 123.794 114.924 113.085 114.477 102.301C114.477 102.151 114.477 102.001 114.402 101.851C114.552 100.653 113.806 99.3799 112.24 99.3799C110.897 99.3799 110.151 100.353 110.077 101.402C110.002 101.627 109.928 101.926 109.928 102.301C110.375 113.01 111.196 123.719 112.463 134.429C112.836 137.2 117.311 137.275 117.013 134.429Z" fill="#F6A318"/>
<path d="M108.735 107.169C108.959 106.644 109.108 106.195 109.108 105.671C109.258 105.371 109.332 104.997 109.481 104.697C110.003 103.424 108.959 102.226 107.766 101.926C107.393 101.477 106.946 101.327 106.424 101.327C104.708 100.503 102.62 100.803 101.278 102.975C100.308 104.547 100.532 106.42 100.681 108.142C100.681 108.442 100.756 108.816 100.756 109.116C100.681 109.49 100.606 109.865 100.606 110.239C100.159 114.358 100.979 118.777 101.874 122.971C102.173 126.341 102.396 129.786 102.695 133.156C102.844 134.654 104.112 135.402 105.305 135.328C105.529 135.402 105.678 135.402 105.976 135.402L109.108 135.328C110.227 135.328 111.42 134.279 111.346 133.081C110.749 124.394 109.854 115.781 108.735 107.169Z" fill="#C1D231"/>
<path d="M109.257 103.274C108.884 100.428 104.558 101.627 104.931 104.472C106.273 114.358 106.945 124.393 106.87 134.354C106.87 137.275 111.345 137.275 111.345 134.354C111.419 124.019 110.674 113.609 109.257 103.274Z" fill="#AFBE2D"/>
<path d="M101.725 91.142C101.054 90.6178 100.159 90.3931 99.4132 90.7676C98.5928 89.4944 96.5792 89.0451 95.6097 90.7676C90.6875 99.6047 85.7654 108.442 80.8432 117.279C79.3516 119.975 69.8802 133.905 79.3516 133.306C79.5008 133.306 79.7245 133.231 79.8737 133.231C80.172 133.306 80.4703 133.38 80.7686 133.306C81.7382 134.204 83.3789 134.354 84.1247 132.856C90.4638 120.05 96.8775 107.318 103.217 94.5121C104.037 92.9394 102.993 91.5165 101.725 91.142Z" fill="#E9447B"/>
<path d="M99.1875 93.5385C91.6551 105.371 86.4346 118.627 80.6921 131.358C79.4988 133.979 83.3769 136.226 84.5702 133.605C90.3127 120.874 95.6078 107.618 103.066 95.7852C104.632 93.3887 100.754 91.142 99.1875 93.5385Z" fill="#D94173"/>
<path d="M75.7722 93.1642C75.6976 91.292 73.7585 90.618 72.4907 91.2171C71.9687 90.9175 71.372 90.8426 70.7008 90.9175H70.6262C69.3584 90.3184 67.4194 90.9924 67.2702 92.8647C67.2702 92.9396 67.2702 93.0145 67.2702 93.1642C67.1211 93.3889 66.9719 93.6885 66.8973 93.9132C66.5244 94.737 66.6736 95.5607 67.0465 96.1599C66.2261 108.442 66.3007 120.799 67.4194 133.081C67.5685 135.028 69.5822 135.777 70.85 134.878C71.9687 136.077 74.6535 135.552 74.8772 133.381C76.0705 119.975 76.3688 106.57 75.7722 93.1642Z" fill="#5CBFBE"/>
<path d="M74.8751 129.486C74.8751 127.689 74.8751 125.817 74.8751 124.019C75.3225 119.825 75.3971 115.557 75.1734 111.363C75.1734 111.288 75.1734 111.213 75.0988 111.063C75.0988 110.614 75.1734 110.09 75.1734 109.64C75.1734 109.341 75.0988 109.041 74.8751 108.816C75.3225 103.499 75.6954 98.1819 76.1429 92.7898C76.2175 91.966 75.3971 91.292 74.6513 91.292C73.7564 91.292 73.2343 91.966 73.1598 92.7898C72.7123 98.3317 72.2648 103.874 71.8174 109.341C71.8174 109.565 71.8174 109.79 71.9665 109.94C71.8919 110.09 71.8174 110.314 71.8174 110.539C71.8174 115.107 71.8174 119.601 71.8174 124.169C71.7428 125.143 71.5936 126.116 71.4445 127.165C71.3699 127.614 71.4445 127.988 71.6682 128.363C71.2953 129.711 70.9224 130.984 70.5495 132.332C70.2512 133.006 70.475 133.83 71.0716 134.204C70.997 134.504 71.1462 134.878 71.2953 135.178C71.4445 135.478 71.8174 135.777 72.1903 135.852C72.5631 135.927 73.0106 135.927 73.3089 135.702C73.3835 135.627 73.5327 135.552 73.6072 135.478C73.7564 135.328 73.9055 135.103 73.9801 134.804L75.3971 131.059C75.5463 130.685 75.3971 130.235 75.248 129.936C75.248 129.786 75.0988 129.636 74.8751 129.486Z" fill="#1697A6"/>
<path d="M67.12 130.31C67.3437 129.037 67.2691 127.689 67.2691 126.49C66.9708 117.279 66.5979 107.992 66.225 98.7808C66.1505 96.6838 63.764 96.0847 62.4961 97.0583C62.4216 97.0583 62.2724 97.1332 62.1978 97.1332C61.0046 96.9834 59.5876 97.7323 59.513 99.305C58.9909 106.644 58.8418 113.984 59.0655 121.398C59.1401 123.944 58.9164 127.089 59.8859 129.486C59.513 129.86 59.2893 130.385 59.3638 131.059C59.7367 133.83 61.6758 136.601 64.8081 135.627C67.12 134.953 68.1641 132.257 67.12 130.31Z" fill="#F6A318"/>
<path d="M66.3739 129.86C66.3739 129.711 66.4484 129.636 66.4484 129.486V123.495C66.4484 123.195 66.3739 122.97 66.2247 122.746C66.2993 122.596 66.2993 122.446 66.2993 122.296C66.523 114.358 66.3739 106.42 65.8518 98.5561C65.7027 96.6089 62.7195 96.6089 62.8687 98.5561C63.3907 106.494 63.5399 114.358 63.3162 122.296C63.3162 122.596 63.3907 122.896 63.5399 123.12C63.5399 123.27 63.4653 123.345 63.4653 123.495V129.486C63.4653 129.711 63.5399 129.935 63.6145 130.16C63.6145 130.31 63.5399 130.385 63.5399 130.534V133.081C63.5399 133.455 63.6891 133.905 63.9874 134.129C64.2111 134.354 64.6586 134.579 65.0315 134.579C65.4043 134.579 65.8518 134.429 66.0756 134.129C66.3739 133.83 66.523 133.455 66.523 133.081V130.534C66.523 130.31 66.4484 130.085 66.3739 129.86Z" fill="#E49816"/>
<path d="M58.022 126.566C57.4254 124.019 55.2626 122.297 53.4728 120.574C53.3982 120.499 53.3982 120.499 53.3236 120.425C52.2049 117.279 50.788 114.209 49.0726 111.363C47.3573 108.517 45.3437 105.821 43.1064 103.349C41.9877 102.151 40.5707 100.953 39.0792 100.429C39.0046 100.204 38.8554 99.9793 38.7063 99.7547C38.0351 98.3317 36.1706 99.0806 36.0214 100.354C35.7231 100.429 35.3502 100.578 35.0519 100.728C33.6349 101.552 32.8146 103.125 33.1875 104.772C33.4858 106.045 34.5299 107.244 35.7977 107.468C40.7945 114.283 46.0895 120.799 51.6829 127.09C51.4592 127.764 51.7575 128.663 52.5033 128.962C52.6524 129.561 52.727 130.16 52.8016 130.834C52.8761 131.359 53.249 131.658 53.7711 131.808C54.144 132.407 54.9643 132.782 55.7101 132.332C57.8729 131.284 58.5441 128.737 58.022 126.566Z" fill="#F6A318"/>
<path d="M59.4387 129.261C58.32 127.764 57.2013 126.266 56.0827 124.768C57.1268 122.971 56.3064 120.125 53.6216 120.125C53.547 120.125 53.4724 120.125 53.3979 120.125C51.1605 115.856 48.1028 111.887 45.1197 108.142C44.9705 107.917 44.7468 107.768 44.523 107.693C43.1061 104.772 41.6891 101.851 40.2721 98.9306C39.5263 97.3579 37.3635 98.4064 37.5127 99.9042C37.4381 99.8293 37.3635 99.8293 37.3635 99.7544C37.2144 99.6046 37.0652 99.5297 36.8415 99.4548C36.6177 99.3799 36.4686 99.3799 36.2449 99.4548C36.0211 99.4548 35.872 99.5297 35.7228 99.6046C35.6482 99.6795 35.4991 99.7544 35.4245 99.8293C35.2753 99.9791 35.1262 100.204 35.0516 100.503C35.0516 100.578 35.0516 100.653 35.0516 100.803C34.2312 100.878 33.56 101.627 33.7838 102.6C34.455 106.42 36.8415 109.715 40.1229 111.737C44.7468 118.402 49.4452 125.067 54.0691 131.658C54.8148 132.781 56.9776 132.482 56.8285 130.909C56.8285 130.684 56.7539 130.535 56.7539 130.385C56.8285 130.46 56.8285 130.535 56.903 130.535C57.3505 131.209 58.1709 131.508 58.9166 131.059C59.5133 130.984 59.9607 129.935 59.4387 129.261Z" fill="#C1D231"/>
<path d="M100.978 154.949C95.534 154.874 90.1643 154.724 84.7201 154.649C82.6319 154.5 80.4692 154.5 78.381 154.5C78.1572 154.5 78.0081 154.575 77.8589 154.575C68.3875 153.975 58.8415 153.451 49.37 152.852C47.431 152.702 47.431 155.698 49.37 155.848C50.265 155.923 51.0853 155.923 51.9803 155.998C51.4582 155.998 50.8616 155.998 50.3395 155.998C49.4446 155.998 48.6988 156.821 48.848 157.72C47.2818 158.169 47.8039 160.566 49.37 160.641C64.2111 161.165 79.0522 161.614 93.8933 162.139C96.8764 162.213 100.456 162.288 102.171 159.442C102.544 158.843 102.395 158.094 101.873 157.57C102.843 156.971 102.544 155.024 100.978 154.949ZM95.8323 159.368C95.8323 159.293 95.8323 159.143 95.7577 159.068C96.1306 159.143 96.5035 159.218 96.8764 159.293C96.5035 159.368 96.1306 159.368 95.8323 159.368Z" fill="#E6F4FC"/>
<path d="M111.271 164.61C111.271 163.861 110.749 163.187 109.854 163.187C109.183 163.187 108.437 163.262 107.766 163.262C107.02 163.037 106.2 163.187 105.379 163.337C104.037 163.412 102.769 163.412 101.426 163.486C94.4161 163.187 87.3312 162.887 80.3208 162.588C70.6257 162.138 61.0051 161.764 51.3099 161.315C50.1912 161.24 49.7438 162.213 49.8929 163.112C48.1776 163.112 48.103 165.658 49.5946 166.033C49.52 166.632 49.8183 167.306 50.6387 167.456C67.1951 170.451 84.1989 170.601 100.979 170.601C103.067 170.601 105.23 170.601 107.318 170.451C109.033 170.376 111.047 170.227 112.091 168.579C113.061 167.231 112.613 165.509 111.271 164.61Z" fill="#D6D3CE"/>
<path d="M51.0859 164.31C55.7844 164.31 60.4082 164.46 65.1067 164.76C67.4186 164.909 69.7305 165.209 72.117 165.284C74.4289 165.434 76.8154 165.509 79.1274 165.583C83.8258 165.658 88.4497 165.883 93.1481 166.108C97.8465 166.332 102.47 166.707 107.169 167.156V167.231C102.47 167.231 97.8465 167.081 93.1481 166.857C88.4497 166.632 83.8258 166.332 79.1274 165.958C76.8154 165.808 74.4289 165.583 72.117 165.509C69.8051 165.434 67.4186 165.434 65.1067 165.359C60.4082 165.209 55.7098 164.909 51.0859 164.31Z" fill="#AAA8A3"/>
<path d="M106.349 173.297C106.125 172.174 105.081 171.425 103.962 171.799C103.515 171.949 103.142 172.324 102.918 172.773C102.545 172.698 102.098 172.698 101.725 172.623C100.756 172.548 99.786 172.398 98.8165 172.324C96.8774 172.174 94.8638 171.949 92.9248 171.799C89.7925 171.5 86.6602 171.275 83.4534 171.05C71.8191 169.478 60.1104 168.354 48.327 167.83C47.5066 167.83 46.9846 168.504 46.91 169.253C45.8659 169.253 44.8218 169.178 43.8523 169.178C41.9878 169.178 41.9133 171.874 43.6286 172.174C43.554 172.324 43.4794 172.473 43.4048 172.623C43.1065 172.698 42.8828 172.848 42.659 172.998C41.6149 173.746 41.3912 175.169 42.3607 176.068C43.3302 176.967 44.8964 176.517 45.5676 175.469C45.7913 175.469 46.0151 175.469 46.3134 175.469C47.2829 175.469 48.327 175.469 49.2965 175.469C51.3101 175.469 53.2492 175.469 55.2628 175.544C59.29 175.544 63.3172 175.619 67.3444 175.619C75.2497 175.694 83.2296 175.694 91.1349 175.768C95.3113 175.768 99.5623 175.843 103.739 175.843C103.813 175.843 103.813 175.843 103.888 175.843C104.186 175.843 104.484 175.843 104.708 175.843C105.379 175.843 105.901 175.394 106.125 174.87C106.349 174.42 106.498 173.896 106.349 173.297ZM47.2829 172.473C47.3575 172.398 47.5066 172.324 47.5812 172.324C50.0423 172.398 52.5034 172.473 55.039 172.548C53.2492 172.548 51.4593 172.548 49.5948 172.548C48.849 172.473 48.0287 172.473 47.2829 172.473Z" fill="#E6F4FC"/>
<path d="M108.139 177.941C105.678 177.641 103.068 177.791 100.607 177.716C95.5354 177.566 90.4641 177.416 85.3928 177.341C73.7586 177.042 62.1244 176.742 50.4156 176.443C50.2664 176.443 50.1173 176.443 49.9681 176.518C49.7444 176.368 49.4461 176.218 49.0732 176.218C46.2392 176.368 43.3306 176.592 40.4967 176.742C40.1984 176.742 39.9 176.892 39.6017 177.042C38.1102 176.592 37.3644 178.24 38.0356 179.289C37.3644 180.337 37.3644 181.535 37.8119 182.584C37.961 183.857 38.7814 185.055 40.2729 185.28C41.9137 186.104 43.8527 186.178 45.7172 186.178C48.2528 186.178 50.7885 186.104 53.3241 186.104L84.4233 185.729C89.5692 185.654 94.7151 185.579 99.861 185.579C100.234 185.579 100.532 185.579 100.905 185.579C101.353 185.879 101.949 186.029 102.471 186.104C104.261 186.253 106.051 186.403 107.915 186.478C109.258 186.553 110.451 185.504 110.749 184.231C111.346 183.707 111.868 183.108 112.017 182.284C112.614 179.738 110.302 178.165 108.139 177.941Z" fill="#E9447B"/>
<path d="M47.432 215.236C47.2828 214.712 47.0591 214.188 46.9099 213.738C46.8354 213.439 46.6862 213.214 46.537 212.989C46.7608 212.39 46.7608 211.791 46.6116 211.192C46.7608 210.593 46.8354 209.994 46.6862 209.395C46.7608 208.945 46.6862 208.496 46.537 207.972C46.537 207.897 46.537 207.897 46.6116 207.822C46.6116 207.522 46.6862 207.298 46.6862 206.998C46.6862 206.474 46.537 206.025 46.3133 205.575C46.3133 205.5 46.3133 205.425 46.3133 205.351C46.3133 204.901 46.2387 204.527 46.0896 204.227V204.152C46.015 203.928 46.015 203.928 46.0896 204.152C46.0896 203.928 46.0896 203.703 46.0896 203.478C46.0896 203.104 46.1641 202.655 46.1641 202.28C46.1641 201.906 46.1641 201.606 46.1641 201.232C47.2082 199.434 46.3879 196.588 43.7031 196.588C43.4047 196.588 43.181 196.588 42.9573 196.663C41.5403 195.989 39.825 195.765 38.408 195.54C36.469 195.165 34.3808 195.165 32.5163 195.765C32.2926 195.69 32.1434 195.69 31.9197 195.69C30.0552 195.69 29.0857 197.113 29.0857 198.536C28.7874 199.06 28.5637 199.584 28.4145 200.183C28.1908 201.232 28.4145 202.055 28.9366 202.729C28.9366 202.954 28.9366 203.254 28.9366 203.553C29.0111 203.778 29.0111 204.003 29.0111 204.227C28.862 204.677 28.7874 205.276 28.862 205.875C29.4586 208.87 28.5637 212.315 28.862 215.386C28.9366 216.434 29.0857 217.408 29.2349 218.456C29.0857 218.831 29.0111 219.205 29.0111 219.655C29.0111 219.954 29.0857 220.254 29.0857 220.553C29.0857 220.628 29.0857 220.703 29.0857 220.853C29.0857 220.928 29.0857 221.003 29.0857 221.003C29.0857 221.227 29.0857 221.452 29.1603 221.602C28.862 222.875 28.862 224.223 29.0857 225.496C28.5637 226.095 28.3399 226.994 28.5637 227.968C28.862 229.391 29.384 230.739 29.9061 232.087C29.8315 232.761 29.9061 233.435 30.2044 234.109C29.9807 233.734 30.3536 234.708 30.4281 234.858C30.5027 235.232 30.5773 235.681 30.6519 236.056C30.9502 237.104 31.3976 238.078 32.1434 238.827C33.7096 240.474 35.9469 240.774 38.1097 240.699C38.5572 240.699 38.9301 240.549 39.3029 240.399C40.4962 240.699 41.8386 240.549 42.9573 240.624C44.5234 240.699 46.015 239.201 45.9404 237.628C45.9404 237.179 45.7913 236.73 45.6421 236.355C45.8658 234.858 46.015 233.36 45.8658 231.862C45.8658 231.712 45.7913 231.562 45.7913 231.413C45.8658 231.188 45.8658 231.038 45.9404 230.813C46.0896 229.69 46.2387 228.642 46.1641 227.518V227.443C46.2387 227.294 46.3133 227.219 46.3879 227.069C47.3574 224.822 47.0591 222.65 46.6862 220.479C46.9099 219.954 46.9845 219.28 46.7608 218.531C46.6862 218.307 46.6862 218.157 46.6116 217.932C46.8354 217.708 46.9845 217.558 47.1337 217.258C47.432 216.884 47.6557 215.985 47.432 215.236Z" fill="#E9447B"/>
<path d="M143.863 167.231C141.327 166.632 138.344 167.381 135.808 167.53C133.123 167.68 130.438 167.905 127.754 168.055C127.455 167.98 127.082 167.905 126.71 167.905C124.994 167.905 124.099 169.103 123.876 170.376C123.577 171.5 123.801 172.773 124.621 173.522C123.204 175.244 123.279 177.491 123.95 179.663C122.831 181.46 124.398 184.156 126.56 184.156C127.903 184.156 129.245 184.156 130.588 184.156C130.811 184.156 130.96 184.156 131.184 184.081C133.347 185.504 136.703 185.429 139.388 185.429C144.012 185.429 146.547 183.632 146.92 178.839C147.219 175.319 148.785 168.279 143.863 167.231Z" fill="#5CBFBE"/>
<path d="M150.797 185.579C150.722 185.355 150.648 185.205 150.499 185.055C150.424 184.98 150.35 184.98 150.35 184.905C150.573 184.606 150.722 184.231 150.722 183.707C150.797 180.412 150.797 177.117 150.648 173.747C150.499 171.2 150.797 167.755 149.604 165.434C148.783 163.711 147.292 163.187 145.502 162.962C142.146 162.588 138.566 162.887 135.21 162.887C135.061 162.887 134.986 162.887 134.912 162.887C134.688 162.813 134.539 162.813 134.315 162.813C133.42 162.813 132.525 162.887 131.705 162.887C131.332 162.887 130.959 163.037 130.661 163.187C130.139 162.288 129.244 161.689 128.2 161.764C127.081 161.839 125.962 161.914 124.918 162.064C123.352 162.213 121.861 163.337 121.935 165.059C121.935 165.509 122.084 165.958 122.308 166.407C121.562 166.407 120.742 166.857 120.742 167.83C120.593 172.998 120.518 178.09 120.667 183.258C120.071 183.557 119.772 184.381 119.996 184.98C120.22 185.804 121.04 186.179 121.861 186.029C122.084 185.954 122.383 185.954 122.606 185.879C122.681 185.879 122.756 185.879 122.83 185.804L137 187.077C139.312 187.302 141.624 187.527 143.936 187.676C145.353 187.751 146.993 187.527 148.038 186.553C148.112 186.628 148.112 186.703 148.187 186.703L148.41 186.853C148.56 186.927 148.783 187.002 149.007 187.002C149.38 186.927 149.678 186.927 150.051 186.853C150.2 186.853 150.35 186.853 150.499 186.778C150.648 186.703 150.722 186.628 150.872 186.553C150.946 186.478 151.021 186.328 151.095 186.179C151.17 186.029 151.17 185.879 151.17 185.729C150.797 185.729 150.797 185.654 150.797 185.579ZM146.248 184.082C145.949 184.156 145.651 184.306 145.427 184.456H143.936C143.414 184.456 142.892 184.905 142.817 185.43C142.444 185.355 142.071 185.355 141.698 185.28C139.536 185.055 137.373 184.905 135.285 184.681C131.332 184.306 127.379 184.007 123.501 183.632C123.352 178.39 123.427 173.073 123.576 167.83C123.949 167.98 124.322 168.13 124.769 168.055C125.888 167.98 127.007 167.905 128.051 167.755C128.871 167.68 129.617 167.381 130.213 166.782C130.586 167.156 131.108 167.306 131.63 167.306C132.525 167.306 133.42 167.231 134.241 167.231C134.315 167.231 134.464 167.231 134.539 167.156C134.763 167.231 134.912 167.231 135.136 167.231C137.224 167.231 139.312 167.231 141.4 167.231C142.146 167.231 144.234 166.782 144.905 167.231C145.949 167.905 145.726 168.804 145.8 170.002C146.173 174.496 146.248 178.989 146.173 183.482C146.248 183.857 146.248 184.007 146.248 184.082Z" fill="#CA6CA8"/>
<path d="M144.011 167.381C143.265 167.156 142.445 167.231 141.699 167.231C140.879 167.231 139.984 167.306 139.164 167.456C138.642 167.531 138.194 167.68 137.672 167.83C135.509 167.755 133.347 167.605 131.184 167.531C128.946 167.456 126.635 167.231 124.397 167.905C123.055 168.354 123.577 170.526 124.994 170.077C127.082 169.478 129.319 169.702 131.408 169.777C132.377 169.852 133.347 169.852 134.316 169.927C133.57 170.751 133.123 171.799 133.048 173.072C133.048 173.672 133.57 174.196 134.167 174.196C134.838 174.196 135.286 173.672 135.286 173.072C135.36 171.65 136.628 170.601 137.896 170.077C138.045 170.077 138.12 170.077 138.269 170.077C138.567 170.077 138.791 170.002 139.014 169.852C139.387 170.227 139.909 170.227 140.357 170.002C140.954 169.702 141.998 170.077 142.221 170.751C142.445 171.35 143.191 171.874 143.862 171.425C144.608 170.901 145.279 170.227 145.279 169.328C145.428 168.354 144.832 167.68 144.011 167.381Z" fill="#C1D231"/>
<path d="M143.414 167.456C142.967 167.456 142.445 167.531 141.997 167.68C140.953 167.081 139.685 166.707 138.492 166.782C136.777 166.857 134.987 167.231 133.272 167.68C132.973 167.531 132.6 167.456 132.153 167.531C131.407 167.606 130.736 167.68 129.99 167.83C129.543 167.905 129.021 168.055 128.648 168.354C128.051 168.13 127.455 167.98 126.858 167.83C124.546 167.381 123.278 170.302 124.621 171.575C123.502 173.297 124.024 175.769 124.099 177.716C124.099 179.663 123.8 182.059 125.441 183.557C127.082 185.055 129.841 184.606 131.855 184.606C134.689 184.606 137.597 184.83 140.431 184.606C141.326 184.531 142.146 184.381 142.818 184.156C142.967 184.156 143.041 184.231 143.191 184.231C144.682 184.606 146.397 183.258 146.025 181.685C146.696 180.562 147.069 179.139 147.069 177.341C146.845 174.495 147.814 167.306 143.414 167.456Z" fill="#F6A318"/>
<path d="M46.686 199.209C46.6114 197.936 45.9402 197.038 44.9707 196.663C44.5232 196.289 43.9266 196.064 43.1062 196.064C41.9876 196.064 41.1672 196.588 40.7197 197.337C39.8994 197.786 39.3027 198.61 39.3027 199.809C39.3773 212.69 39.4519 225.571 39.4519 238.377C39.4519 242.197 45.4182 242.272 45.4182 238.377C45.4182 235.756 45.4182 233.06 45.4182 230.439C45.7165 229.99 45.9402 229.465 46.0148 228.866C46.8351 218.981 47.0589 209.095 46.686 199.209Z" fill="#C83C6A"/>
<path d="M59.2141 207.073C61.004 203.553 59.3633 199.135 54.8886 198.386C54.1428 198.236 53.397 198.461 52.6513 198.835C52.3529 198.535 52.0546 198.161 51.6817 197.861C48.8478 195.315 44.5968 199.509 47.4308 202.13C46.5358 202.879 46.1629 204.227 46.3867 205.351C48.1766 216.135 47.8782 227.144 45.6409 237.853C45.268 239.576 46.1629 240.924 47.7291 241.523C49.2952 242.122 50.7122 241.972 51.9055 241.298C52.3529 241.448 52.875 241.523 53.397 241.598C54.5157 241.673 55.3361 241.148 55.7835 240.474C57.4243 240.774 59.2887 239.651 59.2887 237.628C59.2887 230.514 59.2141 223.399 59.2141 216.285C59.2141 213.439 59.5125 210.218 59.2141 207.073Z" fill="#5CBFBE"/>
<path d="M60.2594 202.205C60.1102 198.386 54.1439 198.311 54.2931 202.205C54.7406 214.412 54.5914 226.62 53.9202 238.827C53.6965 242.646 59.6627 242.646 59.8865 238.827C60.5577 226.62 60.7068 214.412 60.2594 202.205Z" fill="#1697A6"/>
<path d="M78.8296 199.284C80.3958 197.113 77.7855 194.192 75.4736 194.866C75.399 194.866 75.2499 194.941 75.1753 194.941C73.3854 194.042 71.3718 193.892 69.4327 194.117C69.1344 194.042 68.7615 194.042 68.4632 194.042C67.27 194.042 66.0767 194.416 65.1072 195.016C63.3173 194.042 60.5579 194.866 60.6325 197.487C60.7071 199.284 60.7071 201.007 60.7817 202.804C60.2596 206.025 60.4834 209.47 60.8562 212.39C60.8562 215.536 60.7817 218.681 60.7071 221.827C60.5579 222.201 60.4088 222.65 60.4834 223.175C60.5579 225.496 60.5579 227.818 60.185 230.139C60.1105 230.813 60.185 231.487 60.3342 232.087C60.2596 233.959 60.185 235.831 60.0359 237.703C59.9613 239.276 61.4529 240.774 63.019 240.699C66.7479 240.549 70.4768 240.399 74.2803 240.175C75.8465 240.1 77.338 238.827 77.2635 237.179C76.7414 226.32 77.338 215.536 78.755 204.751C78.9788 203.029 79.0533 201.157 78.6805 199.509C78.755 199.509 78.755 199.434 78.8296 199.284Z" fill="#CA6CA8"/>
<path d="M77.0383 235.681V235.606C77.5603 223.025 78.0824 210.443 78.5298 197.786C78.679 193.967 72.7127 193.967 72.5636 197.786C72.0415 210.368 71.5195 222.95 71.072 235.606C70.9974 236.58 71.3703 237.329 71.8924 237.778V238.602C71.8924 239.051 71.9669 239.426 72.1161 239.725C72.2653 240.1 72.4144 240.399 72.7127 240.699C73.011 240.998 73.3094 241.223 73.6822 241.298C74.0551 241.523 74.428 241.598 74.8009 241.523C75.0992 241.523 75.323 241.448 75.6213 241.448C76.1433 241.298 76.5908 241.073 76.9637 240.699C77.4857 240.1 77.8586 239.426 77.8586 238.602V237.778C77.8586 237.329 77.784 236.954 77.6349 236.655C77.4857 236.28 77.3366 235.981 77.0383 235.681Z" fill="#BD659D"/>
<path d="M141.922 205.5C128.796 203.403 115.596 203.104 102.395 204.751C99.1139 205.201 99.0394 210.443 102.395 209.994C105.453 209.619 108.511 209.32 111.569 209.17C112.016 209.694 112.613 210.069 113.508 209.994C120.22 209.694 126.857 209.994 133.495 210.743C134.464 210.817 135.135 210.443 135.583 209.844C137.223 210.069 138.864 210.293 140.505 210.518C143.861 211.117 145.278 206.024 141.922 205.5Z" fill="#C1D231"/>
<path d="M148.262 211.492C145.279 211.417 142.296 211.342 139.238 211.267C138.94 211.267 138.641 211.342 138.343 211.417C138.045 211.267 137.672 211.192 137.224 211.192C134.316 211.267 131.333 211.267 128.424 211.192C122.533 209.994 116.641 209.47 110.675 209.694C109.78 209.694 109.108 210.144 108.736 210.668C102.993 210.368 97.2505 209.994 91.4334 209.47C89.0469 209.245 88.3757 211.866 89.4198 213.514C89.1961 213.738 88.9723 214.038 88.8977 214.412C87.4062 218.531 91.5826 219.58 94.7149 219.805C100.681 220.254 106.573 220.553 112.539 220.928C124.397 221.677 136.255 222.501 148.187 223.25C149.008 223.324 150.127 222.725 150.425 221.976C151.618 219.355 152.438 216.809 152.886 213.963C153.333 211.192 149.679 209.769 148.262 211.492Z" fill="#F6A318"/>
<path d="M151.543 218.981C151.096 217.483 149.753 216.959 148.336 217.183C146.397 217.483 144.309 217.408 142.37 217.034C141.923 216.959 141.475 216.959 141.102 217.034C140.879 216.959 140.729 216.959 140.506 216.959C124.024 216.135 107.468 215.236 90.9858 214.412C87.6297 214.263 87.6297 219.505 90.9858 219.655C107.468 220.478 124.024 221.377 140.506 222.201C140.804 222.201 141.028 222.201 141.252 222.126C144.085 222.575 146.845 222.65 149.679 222.201C151.096 221.976 151.842 220.179 151.543 218.981Z" fill="#E59916"/>
<path d="M144.457 226.545C144.383 226.02 144.159 225.646 143.861 225.346C144.383 223.848 143.562 221.752 141.474 221.752C122.755 221.377 104.11 221.078 85.3912 220.703C82.9301 220.628 82.2589 223.549 83.4522 225.047C82.2589 226.47 82.9301 229.39 85.3912 229.465C88.5981 229.615 91.8049 229.765 95.0864 229.915C95.4593 230.664 96.2051 231.188 97.3237 231.188C98.2933 231.188 98.9645 230.738 99.4119 230.064C106.646 230.439 113.955 230.738 121.189 231.113C127.08 231.412 133.121 232.012 139.088 231.937C139.684 231.937 140.281 231.862 140.803 231.787C141.101 231.862 141.399 231.937 141.772 231.937C143.413 231.937 144.233 230.664 144.308 229.39C144.606 228.716 144.681 227.743 144.457 226.545Z" fill="#5CBFBE"/>
<path d="M149.083 235.457C148.859 233.734 147.591 232.536 145.801 232.91C145.13 233.06 144.459 233.21 143.788 233.285C143.564 233.21 143.34 233.135 143.042 233.135C127.082 231.937 111.122 231.188 95.1625 230.888C94.5659 230.888 94.0438 231.038 93.5963 231.338C92.4031 229.615 89.42 229.39 89.0471 231.937C88.8233 233.659 88.525 235.457 88.3013 237.179C88.0776 238.752 88.9725 240.549 90.837 240.474C102.769 240.1 114.777 240.474 126.635 241.672C132.377 242.197 150.5 246.99 149.083 235.457Z" fill="#E9447B"/>
<path d="M153.407 67.0271C147.515 65.8288 141.475 65.7539 135.508 66.6526C135.061 66.7275 134.688 67.0271 134.464 67.4015C119.399 67.6262 104.335 67.5513 89.2698 67.1768C83.3035 67.0271 77.2627 66.8773 71.2964 66.6526C70.6252 66.6526 70.1777 66.8773 69.8794 67.2517C69.5065 66.8024 68.9845 66.4279 68.2387 66.4279C56.6045 66.1284 44.8957 65.8288 33.2615 65.5292C30.3529 65.4544 30.3529 69.9478 33.2615 70.0227C44.8957 70.3223 56.6045 70.6218 68.2387 70.9214C69.1336 70.9214 69.8048 70.472 70.1032 69.8729C70.4015 70.1725 70.7744 70.3223 71.2964 70.3971C92.4766 71.2209 113.731 71.4456 134.912 71.1461C140.878 71.0712 146.919 70.9214 152.885 70.7716C154.899 70.6218 155.57 67.4764 153.407 67.0271Z" fill="black"/>
<path d="M152.586 137.574C150.572 137.5 148.559 137.425 146.545 137.35C146.321 137.05 146.023 136.826 145.576 136.751C143.264 136.301 140.952 136.002 138.64 136.077C137.969 136.077 137.372 136.451 136.999 137.05C128.423 136.751 119.772 136.376 111.195 136.077C110.449 136.077 109.927 136.376 109.629 136.9L102.32 136.751C100.829 136.751 99.3371 136.676 97.8455 136.676C97.5472 136.226 97.0252 135.927 96.354 135.927C83.079 135.927 69.8041 135.627 56.6037 135.028C52.8748 134.878 49.0713 134.654 45.3424 134.504C44.9695 134.504 44.6712 134.579 44.3729 134.729C44.2237 134.654 44.0746 134.654 43.9254 134.654C42.8068 134.654 41.6881 134.729 40.5694 134.729C40.1219 134.729 39.5999 134.953 39.227 135.253C38.9287 135.552 38.6304 136.077 38.705 136.601C38.705 137.05 38.8541 137.574 39.227 137.949C39.5999 138.248 40.0474 138.473 40.5694 138.473C41.6881 138.473 42.8068 138.398 43.9254 138.398C44.2237 138.398 44.5221 138.323 44.8204 138.174C44.9695 138.248 45.1187 138.248 45.3424 138.248C58.6173 138.922 71.8177 139.372 85.0926 139.596C85.6147 139.596 86.1367 139.596 86.6588 139.596C86.9571 139.971 87.4046 140.27 88.0758 140.27C104.856 140.57 121.561 140.87 138.342 141.094C143.115 141.169 147.888 141.244 152.586 141.319C154.972 141.394 154.972 137.649 152.586 137.574Z" fill="black"/>
<path d="M150.872 187.676C144.757 187.676 138.567 187.676 132.451 187.676C132.153 187.227 131.705 186.927 130.96 186.927C115.373 186.703 99.8604 186.403 84.2736 186.178C79.7989 186.103 75.3987 186.029 70.924 185.954C70.1783 185.954 69.6562 186.328 69.3579 186.777C66.0019 186.703 62.5713 186.628 59.2153 186.478C52.2795 186.253 45.3437 186.029 38.4079 185.729C38.1842 185.654 37.9604 185.579 37.7367 185.579C35.4248 185.504 33.1129 185.429 30.8009 185.354C30.3535 185.354 29.906 185.504 29.5331 185.879C28.0415 186.628 28.2653 189.399 30.3535 189.399C30.7264 189.399 31.0992 189.324 31.323 189.099C31.7705 189.099 32.2925 189.099 32.74 189.174C32.9637 189.249 33.1129 189.324 33.4112 189.324C48.6997 189.923 63.9137 190.372 79.2022 190.747C94.4908 191.121 109.705 191.346 124.993 191.421C133.57 191.496 142.146 191.496 150.723 191.421C153.258 191.421 153.258 187.676 150.872 187.676Z" fill="black"/>
<path d="M208.669 297.991C205.611 295.07 202.852 291.924 200.465 288.405C199.794 287.356 199.123 286.308 198.526 285.259C198.675 284.435 198.526 283.462 198.153 282.638C196.736 279.642 194.946 276.796 192.783 274.25C193.604 272.078 192.485 269.083 189.427 269.083C189.353 269.083 189.204 269.083 189.129 269.083C187.116 264.739 185.176 260.395 183.312 256.052C182.939 255.078 182.268 254.554 181.597 254.254C185.922 240.549 190.173 226.395 190.994 212.016C191.143 211.791 191.366 211.567 191.516 211.342C191.889 210.743 192.038 210.144 192.038 209.47V209.17C192.038 208.646 191.963 208.196 191.739 207.747C191.59 207.373 191.441 207.073 191.143 206.774C191.143 203.703 190.919 200.632 190.546 197.562C188.98 185.205 183.014 173.747 179.285 161.914C179.136 160.94 179.061 159.892 178.912 158.918C179.583 158.095 179.956 157.046 179.732 155.698C178.763 150.531 177.569 145.513 176.078 140.495C176.078 140.42 176.078 140.345 176.078 140.271C176.153 139.147 175.78 138.248 175.183 137.649C175.108 137.275 174.959 136.975 174.885 136.601C174.661 136.002 174.363 135.552 174.064 135.103C174.363 128.812 175.034 122.521 176.302 116.306C177.346 116.006 178.241 115.182 178.688 113.834C179.509 111.063 180.254 108.367 181.075 105.596C181.373 104.548 181.224 103.649 180.851 102.975C181.448 101.627 182.044 100.279 182.715 98.9308C183.163 98.0322 183.237 97.0586 183.014 96.3097C185.027 92.4153 188.01 88.6708 188.756 84.3271C189.204 81.8557 188.682 79.3095 187.414 77.3623C187.488 77.0627 187.488 76.8381 187.488 76.5385C187.414 74.6662 185.848 72.5693 183.759 72.794C182.79 72.8688 181.82 72.9437 180.851 73.0935C180.403 73.1684 179.956 73.2433 179.583 73.3182C176.6 73.0186 173.915 73.9922 171.603 76.164C171.156 76.5385 170.857 77.0627 170.708 77.587C170.112 77.8116 169.59 78.1112 168.993 78.3359C166.606 79.3843 166.681 81.706 167.874 83.3536C167.576 83.8778 167.352 84.5518 167.427 85.3007L167.725 96.6841C167.501 97.1335 167.427 97.6577 167.427 98.3317C167.576 102.226 167.427 106.12 166.905 110.015C166.756 111.138 167.352 112.112 168.247 112.861C168.247 113.31 168.322 113.759 168.546 114.134C168.62 114.283 168.695 114.508 168.769 114.658C168.62 115.257 168.396 115.856 168.247 116.455C168.023 117.279 168.098 118.028 168.322 118.702C168.247 119.301 168.098 119.9 168.023 120.499C166.308 131.583 166.234 142.742 166.905 153.826C164.667 161.54 165.413 169.403 166.532 177.267C166.532 177.416 166.532 177.491 166.606 177.641C165.935 178.09 165.488 178.69 165.189 179.438C164.966 179.888 164.891 180.487 164.966 181.086C166.01 194.417 166.681 207.747 167.054 221.078C165.562 221.902 164.817 223.549 165.189 225.346C165.339 226.17 165.562 226.919 165.712 227.743C165.861 228.567 166.383 229.241 167.054 229.765C166.979 235.606 166.905 241.448 166.83 247.289C166.308 248.038 166.084 249.012 166.234 250.06C165.562 250.66 165.189 251.558 165.115 252.532C163.773 253.505 163.325 255.303 163.773 256.875C159.894 259.796 155.42 261.743 150.647 262.567C150.348 262.567 150.125 262.567 149.826 262.642C149.081 262.792 148.335 262.867 147.589 262.942C147.142 262.942 146.769 263.017 146.321 263.017C145.799 263.017 145.352 263.166 144.904 263.316C135.88 264.514 126.856 264.814 117.758 264.365C116.49 264.29 115.595 264.739 114.998 265.488C114.775 265.413 114.476 265.413 114.253 265.338C113.059 265.113 112.09 265.413 111.269 266.012C110.747 264.814 109.703 263.84 107.988 263.84C103.215 263.84 103.215 271.329 107.988 271.329C108.212 271.704 108.435 272.153 108.883 272.528C109.032 272.677 109.256 272.827 109.405 272.977C109.33 274.1 109.778 275.299 110.598 276.048C110.449 277.021 110.673 278.144 111.568 279.118C113.432 281.065 115.222 283.087 116.937 285.184C116.266 286.757 116.415 288.779 118.131 290.127C123.351 294.096 126.931 299.938 128.273 306.303C128.87 308.925 128.721 311.845 130.361 314.167C132.002 316.489 134.911 317.462 137.596 316.489C137.67 316.489 137.745 316.414 137.819 316.414C140.579 316.863 143.562 316.414 146.321 316.264C150.498 315.964 154.674 315.74 158.85 315.44C169.068 314.766 180.478 314.766 189.427 309.449C190.621 309.374 191.814 309.224 192.933 309.149C194.723 308.999 195.767 307.876 196.289 306.528L196.736 306.453C198.153 306.154 199.57 305.854 200.987 305.48C201.062 305.48 201.062 305.48 201.136 305.405C201.807 305.255 202.479 305.18 203.224 305.03C203.821 304.955 204.343 304.731 204.716 304.431C205.089 304.506 205.462 304.506 205.909 304.506C209.191 304.431 210.981 300.237 208.669 297.991ZM140.579 275.448C140.504 275.448 140.504 275.374 140.43 275.374C141.25 275.374 142.07 275.374 142.891 275.374C143.189 275.374 143.562 275.448 143.86 275.448C142.816 275.448 141.697 275.448 140.579 275.448ZM173.915 270.88V269.232C173.99 269.757 173.99 270.356 174.064 270.88C174.064 270.88 173.99 270.88 173.915 270.88Z" fill="#F9BB7C"/>
<path opacity="0.3" d="M142.445 275.972C146.796 275.598 156.615 273.801 161.09 269.607" stroke="#C6894A"/>
<path opacity="0.6" d="M135.734 281.964C143.391 281.303 160.673 278.131 168.549 270.73" stroke="#C6894A"/>
<path d="M134.24 287.955C143.985 287.118 165.981 283.1 176.004 273.726" stroke="#C6894A"/>
<path d="M29.9794 165.958C30.5015 165.733 30.8743 165.958 30.7998 166.557C30.6506 169.328 30.4269 172.099 30.2777 175.394C27.22 171.874 24.1623 168.954 20.8809 166.258C23.9386 166.857 26.9963 167.231 29.9794 165.958Z" fill="black"/>
<path d="M30.4278 142.442C30.0549 143.416 30.4278 144.464 30.4278 146.037C27.743 142.966 25.4311 140.196 23.1191 137.425C25.3565 138.922 27.2209 141.019 30.0549 141.618C30.577 141.618 30.577 142.068 30.4278 142.442Z" fill="black"/>
<path d="M27.8917 192.619C27.7425 196.588 27.4442 200.632 27.4442 204.601C27.4442 210.443 27.5188 216.284 27.668 222.126C27.8171 226.769 28.0408 231.487 29.2341 236.056C30.129 239.501 31.8443 241.597 35.6478 241.897C38.7801 242.197 41.987 242.122 45.1193 242.122C60.8553 242.197 76.5913 241.298 92.2527 241.223C98.9648 241.148 105.751 240.624 112.538 240.624C119.026 240.624 125.365 241.672 131.779 242.271C137.223 242.796 142.593 242.346 148.037 241.672C153.109 240.998 154.675 240.774 155.495 233.659C156.315 226.544 155.793 219.355 155.271 212.24C154.675 205.275 153.854 198.385 154.078 191.346C154.675 175.619 154.973 159.892 154.675 144.165C154.675 143.041 154.376 141.618 156.166 141.319C154.078 141.169 154.004 139.596 154.451 138.398C154.973 137.05 154.675 135.852 154.675 134.579C154.675 129.111 154.973 123.644 155.346 118.252C155.644 112.411 155.644 106.569 155.57 100.728C155.495 94.3622 154.898 88.0713 155.122 81.7056C155.271 76.3135 155.943 70.9962 156.315 65.679C156.688 59.8375 157.061 53.9211 156.465 48.0048C155.421 38.269 154.526 28.6081 153.631 18.8723C153.631 18.7225 153.631 18.5727 153.556 18.4978C153.183 17.7489 154.6 17.1498 153.705 16.4757C152.885 15.8766 151.841 16.1013 150.946 16.1762C146.024 16.4757 141.102 16.8502 136.179 17.1498C130.735 17.4493 125.291 16.9251 119.921 16.4009C112.24 15.6519 104.558 15.8766 96.8766 16.7753C86.8831 17.8987 76.8896 18.348 66.8215 16.7004C56.4552 14.9779 46.0142 15.4273 35.6478 15.5022C32.7393 15.5022 31.0986 17 30.2782 19.7709C29.6816 21.7181 29.4578 23.7402 29.4578 25.7622C29.4578 42.388 29.3833 59.0137 29.3833 75.6395C29.3833 87.7718 29.3833 99.9041 29.3833 111.961C29.3833 112.336 29.3833 112.71 29.3833 113.384C26.0272 110.539 24.6102 106.045 19.9864 104.772C21.1051 104.472 21.2542 103.724 21.2542 102.9C21.0305 93.4635 21.8508 84.1021 22.1492 74.6659C22.4475 65.005 22.7458 55.419 22.2983 45.758C22 38.4936 21.2542 31.2292 20.9559 23.9648C20.7322 18.9471 20.583 13.9295 22.5221 9.13645C23.5661 6.44038 25.4306 4.86768 28.2646 4.56811C35.797 3.74431 43.404 3.0703 51.011 3.29497C56.0077 3.44475 61.0044 3.74432 66.0012 3.59453C71.52 3.44475 77.1134 2.47117 82.6321 2.99541C91.2832 3.74432 99.7851 2.02183 108.287 1.87205C113.433 1.79715 118.653 2.17161 123.799 2.39628C126.857 2.54606 129.989 2.77073 133.047 2.84563C139.983 2.99541 146.919 3.29497 153.78 4.49322C156.092 4.86768 158.255 5.84126 160.343 6.96462C162.058 7.86331 163.028 9.36112 163.624 11.2334C164.967 15.3524 165.265 19.5463 165.489 23.815C166.085 34.4495 166.309 45.084 166.309 55.7934C166.309 64.7054 166.085 73.6923 166.458 82.6043C166.98 94.2873 167.353 105.895 167.055 117.578C166.906 123.794 166.384 130.01 165.861 136.151C164.892 147.834 164.743 159.592 164.817 171.35C164.967 187.451 165.19 203.553 165.041 219.654C164.967 226.769 165.414 233.884 165.116 240.923C164.967 244.368 164.668 247.738 164.37 251.183C163.773 256.725 158.329 261.144 153.183 262.192C148.858 263.091 144.458 263.391 140.057 263.615C126.857 264.214 113.657 264.065 100.456 263.615C88.2255 263.241 75.9947 262.717 63.7638 261.668C56.1569 261.069 48.6244 261.144 41.0175 260.919C36.5428 260.769 32.0681 260.62 27.5934 259.796C24.834 259.347 22.9695 257.325 21.7763 255.003C19.0169 249.386 17.8982 243.395 18.3457 237.104C18.9423 227.743 20.4339 218.456 19.9118 209.02C19.6881 204.976 19.4643 200.932 19.166 196.888C19.0915 195.315 19.3898 194.341 21.1796 194.192C22.9695 193.967 24.3865 192.844 25.8035 191.72C26.251 191.346 26.6239 190.597 27.3696 191.046C28.1154 191.421 27.9663 192.095 27.8917 192.619Z" fill="black"/>
<path d="M129.767 313.568C130.14 314.766 129.916 315.29 128.872 315.066C124.621 314.616 120.743 313.867 117.089 312.07C113.956 310.572 112.987 306.378 115.373 303.832C117.238 301.81 119.326 300.162 121.787 298.889C122.98 298.29 123.651 298.515 124.621 299.488C127.753 302.709 127.53 307.052 128.947 310.797C129.245 311.77 129.469 312.669 129.767 313.568Z" fill="#7E4368"/>
<path d="M222.168 293.422C223.138 294.695 222.616 295.594 221.423 296.418C218.663 298.29 215.606 299.788 212.548 301.061C211.653 301.435 211.056 301.286 210.46 300.462C207.477 296.268 204.643 291.999 202.107 287.581C201.436 286.457 201.51 285.858 202.927 285.633C204.941 285.334 206.88 284.81 209.639 284.884C213.368 285.034 217.694 285.558 220.901 289.078C221.646 289.977 222.69 290.726 221.87 292.224C221.646 292.598 221.945 293.048 222.168 293.422Z" fill="#7E4368"/>
<path d="M117.536 314.167C122.831 316.339 128.35 317.087 134.018 317.087C140.059 317.013 146.174 316.713 152.215 316.339C159.225 315.889 166.161 315.29 173.097 314.242C180.256 313.118 187.192 311.321 194.053 309.224C199.945 307.427 205.986 305.854 211.728 303.532C215.532 301.96 219.335 300.162 222.691 297.616C223.735 296.867 224.108 297.017 224.556 298.14C225.6 300.611 226.719 303.008 227.688 305.479C234.027 321.955 242.38 341.202 249.017 357.528C247.6 357.603 150.723 357.004 141.699 356.929C141.55 356.78 141.401 356.555 141.252 356.405C140.581 355.506 139.835 354.608 139.164 353.709C131.93 344.123 125.889 333.788 120.221 323.229C118.58 320.158 117.014 317.087 115.746 313.867C115.895 313.792 115.97 313.717 116.044 313.717C116.566 313.867 117.089 314.017 117.536 314.167Z" fill="#CA6CA8"/>
<path d="M30.2786 175.319C30.5024 172.024 30.6515 169.253 30.8007 166.482C30.8752 165.883 30.5024 165.658 29.9803 165.883C26.9972 167.156 23.9395 166.782 20.8818 166.108C24.0886 168.879 27.1463 171.799 30.2786 175.319ZM57.3505 47.3309C57.0522 40.8154 57.276 34.2999 56.7539 27.7844C56.5302 24.8637 56.4556 24.7139 53.6216 24.639C53.3233 24.639 52.9504 24.639 52.6521 24.639C50.6385 24.3395 49.8927 25.3879 49.5944 27.2602C48.6995 32.5775 48.4011 37.9696 48.1774 43.3617C47.9537 49.8772 48.0283 56.3927 48.774 62.9082C48.8486 63.5074 49.0723 64.3311 48.1774 64.406C48.1028 64.406 48.1028 64.406 48.0283 64.406C47.357 64.406 47.2079 63.6571 47.0587 63.058C46.9842 62.6087 46.9096 62.1593 46.835 61.71C46.6858 58.4148 46.4621 55.1196 46.3875 51.8244C46.313 45.6085 46.313 39.3925 47.0587 33.2515C47.2079 31.9034 46.7604 31.3792 45.418 31.3792C44.1502 31.3792 43.1807 31.4541 43.4044 33.2515C43.5536 34.6744 43.5536 36.1722 43.5536 37.5951C43.5536 45.9829 43.6281 54.4456 43.5536 62.9082C43.5536 64.406 44.0756 64.8554 45.5672 64.8554C46.3875 64.8554 47.2079 64.8554 48.1028 64.9303C50.3402 65.0052 52.5775 65.1549 54.8895 65.3047C57.3505 65.4545 57.3505 65.4545 57.3505 62.9082C57.3505 57.7408 57.3505 52.4984 57.3505 47.3309ZM202.927 285.559C201.585 285.783 201.436 286.307 202.107 287.506C204.643 291.999 207.551 296.193 210.46 300.387C211.056 301.211 211.653 301.36 212.548 300.986C215.68 299.713 218.663 298.29 221.423 296.343C222.616 295.519 223.063 294.695 222.169 293.347C221.945 292.973 221.572 292.523 221.87 292.149C222.691 290.726 221.646 289.902 220.901 289.003C217.694 285.409 213.368 284.959 209.639 284.81C206.88 284.735 204.866 285.259 202.927 285.559ZM12.9765 165.509C8.57634 165.434 4.69827 169.927 5.36948 173.896C5.66779 175.844 6.41357 177.716 7.23393 179.438C9.17297 183.932 11.3357 188.275 15.8104 190.971C16.4816 191.421 17.2274 192.319 17.9732 190.897C18.2715 190.372 18.719 190.672 19.0173 191.046C20.5834 192.694 21.6275 192.769 23.5666 191.421C26.5497 189.249 28.7871 186.478 30.2786 183.108C31.0244 181.535 30.8752 180.112 30.0549 178.614C26.6243 172.174 20.9563 168.504 14.468 165.733C13.946 165.509 13.2002 165.583 12.9765 165.509ZM67.1203 96.1597C67.0457 107.843 67.0457 119.451 67.7169 131.134C67.7915 132.182 67.1949 133.83 67.6423 134.129C68.3881 134.654 69.8051 134.429 70.9238 134.504C74.429 134.728 74.429 134.728 74.5035 131.134C74.5035 130.834 74.5035 130.46 74.5035 130.16C74.6527 128.962 74.5781 127.988 72.8628 128.513C72.5645 128.587 72.2662 128.513 71.9679 128.438C71.5204 128.288 71.1475 128.063 71.1475 127.539C71.1475 126.94 71.6696 126.79 72.0425 126.865C74.5781 127.314 74.5781 125.742 74.5781 123.944C74.6527 113.534 74.2798 103.05 75.4731 92.6399C75.5476 92.1156 75.4731 91.5165 74.8764 91.4416C72.6391 90.9923 70.4017 91.2169 68.3881 92.2654C66.8966 93.0143 67.1203 94.7368 67.1203 96.1597ZM2.23719 70.1726C1.04394 76.2388 2.83381 81.6309 6.26442 86.4988C9.3967 90.9174 12.8273 95.1861 16.3325 99.38C17.2274 100.354 17.8986 101.702 19.3902 102.301C19.3902 100.953 19.3902 99.7545 19.3902 98.5562C19.241 91.2169 19.9868 83.8776 20.2106 76.5383C20.2106 75.6397 20.3597 74.741 19.5394 74.0669C16.4071 71.4458 13.2748 68.6748 10.1425 66.1285C8.20345 64.5558 6.56273 64.7056 4.62369 66.2034C3.35586 67.2519 2.61008 68.525 2.23719 70.1726ZM59.4387 44.4102C63.0185 51.5997 68.5373 57.4412 73.534 63.6571C75.6968 66.3532 75.6968 66.2783 78.6799 64.1814C79.6494 63.5073 79.724 62.9831 78.9782 62.0844C77.3375 59.9126 75.7714 57.6659 74.1307 55.494C70.2526 50.1019 66.3745 44.7098 62.4219 39.3925C62.1235 39.0181 61.7507 37.9696 61.3032 38.4938C60.3337 39.5423 58.7675 40.2912 58.8421 42.0886C58.7675 43.0622 58.8421 43.2119 59.4387 44.4102ZM72.8628 65.6043C68.239 59.4632 62.8693 53.9213 58.9913 47.3309C59.3642 53.0226 59.0658 58.6395 59.1404 64.2563C59.1404 65.5294 59.9608 65.6043 60.9303 65.6043C64.8084 65.6043 68.6864 65.6043 72.8628 65.6043ZM63.9134 96.9835C61.5269 96.9086 60.1099 97.4329 59.9608 98.8558C59.6625 101.252 59.3642 103.649 59.2896 106.045C58.9913 114.059 59.4387 121.997 59.8862 129.935C60.1845 134.354 60.1099 134.279 64.2863 134.204C65.5541 134.204 66.0016 133.83 66.0016 132.407C65.927 124.843 65.1813 117.204 65.4796 109.94C65.4796 106.12 65.4796 102.675 65.4796 99.1553C65.4796 98.1818 65.6287 97.0584 63.9134 96.9835ZM140.654 90.0187C139.909 95.0364 140.505 100.129 140.58 105.222C140.804 114.433 141.624 123.57 142.519 132.706C142.817 135.402 142.743 135.402 145.502 135.702C145.651 135.702 145.726 135.702 145.875 135.702C147.217 135.927 147.814 135.477 147.963 134.054C148.411 130.385 148.112 126.715 147.59 123.046C146.322 114.208 145.502 105.296 145.502 96.3844C145.502 94.1377 145.502 91.9659 145.502 89.7191C145.502 89.1949 145.651 88.5209 145.055 88.1464C143.488 87.0979 140.878 88.2213 140.654 90.0187ZM139.685 233.285C129.02 233.135 118.43 231.787 107.765 231.712C102.172 231.637 96.5787 231.338 90.9108 231.412C89.6429 231.412 89.1209 231.787 88.9717 233.06C88.748 234.783 88.6734 236.505 88.6734 238.153C88.6734 239.201 89.1209 239.65 90.165 239.576C93.2227 239.426 96.355 239.201 99.4127 239.051C107.318 238.677 115.149 238.602 123.054 239.426C127.752 239.95 132.451 240.549 137.224 240.699C140.282 240.549 143.414 240.399 146.546 239.95C147.068 239.875 147.814 239.95 147.739 239.126C147.59 237.628 147.889 236.205 148.112 234.783C148.261 233.36 147.665 232.835 146.322 232.91C144.085 233.135 141.922 233.285 139.685 233.285ZM117.013 312.145C120.667 313.867 124.546 314.616 128.797 315.14C129.841 315.44 130.139 314.841 129.691 313.643C129.393 312.744 129.169 311.77 128.871 310.872C127.454 307.127 127.603 302.783 124.546 299.563C123.501 298.515 122.905 298.29 121.712 298.964C119.251 300.237 117.162 301.885 115.298 303.907C112.986 306.378 113.881 310.647 117.013 312.145ZM34.455 152.552C32.8889 150.381 30.7261 148.808 29.0108 146.786C25.0581 142.143 21.1801 137.425 15.8104 134.279C14.2443 133.38 12.8273 133.306 11.4103 134.429C8.35261 137.05 6.41357 140.27 6.41357 144.614C6.48815 145.288 6.33899 146.112 6.63731 146.936C9.02381 152.328 11.9324 157.345 16.4071 161.24C23.2683 167.156 30.4278 166.332 34.7533 159.218C36.3195 156.597 36.1703 154.949 34.455 152.552ZM101.053 111.887C101.501 119.151 102.992 126.341 103.216 133.68C103.291 134.953 103.887 135.402 105.006 135.328C107.318 135.253 109.63 135.328 111.942 135.477C113.806 135.552 115.745 135.627 117.61 135.702C120.22 135.852 122.83 135.852 125.441 135.777C126.634 135.777 127.827 135.702 129.02 135.702C132.003 135.702 134.987 135.702 137.895 135.477C141.102 135.253 141.027 135.328 140.729 132.257C140.207 127.015 139.76 121.772 139.387 116.53C139.014 111.063 138.865 105.521 138.641 99.9792C138.566 98.7809 138.193 98.4813 137.075 98.5562C134.763 98.706 132.451 98.8558 130.064 98.9307C127.678 99.0056 127.603 99.0056 127.752 101.477C128.2 111.737 128.573 121.997 129.617 132.257C129.691 132.856 129.691 133.38 129.617 133.98C129.617 134.429 129.468 134.953 128.946 135.028C128.349 135.103 128.125 134.579 127.976 134.054C127.902 133.68 127.827 133.306 127.827 132.931C126.932 123.046 126.559 113.085 126.037 103.125C125.963 101.627 126.41 100.054 124.844 98.9307C124.546 98.7809 124.546 98.3316 124.769 98.1069C126.559 96.0848 125.441 93.7632 125.515 91.5914C125.515 90.7676 125.142 90.3931 124.247 90.3182C121.861 90.1685 119.474 89.8689 117.088 89.9438C115.447 89.9438 114.85 90.5429 115.074 92.2654C115.447 96.0099 115.745 99.8294 115.969 103.649C116.491 111.737 116.789 119.825 117.834 127.913C118.132 129.935 118.505 131.958 118.281 133.98C118.206 134.504 118.43 135.402 117.535 135.402H117.461C116.64 135.328 116.64 134.579 116.64 133.905C116.64 133.306 116.64 132.632 116.566 132.032C115.372 122.596 114.552 113.16 114.328 103.649C114.328 102.9 114.105 102.151 113.806 101.402C113.433 100.354 112.613 100.129 111.718 100.204C110.749 100.279 110.823 101.028 110.674 101.777C109.854 106.644 111.121 111.512 111.271 116.305C111.494 121.997 112.166 127.689 112.538 133.38C112.613 133.98 112.837 135.028 111.867 135.028C110.972 135.103 110.972 134.129 110.898 133.455C110.152 124.319 109.332 115.182 108.66 105.97C108.362 101.552 108.437 101.552 103.887 101.851C103.738 101.851 103.664 101.851 103.514 101.851C102.172 101.777 101.501 102.451 101.352 103.724C101.203 106.27 100.83 109.041 101.053 111.887ZM95.3109 230.214C102.172 230.214 109.108 230.139 115.969 230.289C120.295 230.364 124.546 230.963 128.797 231.188C133.346 231.338 137.895 232.087 142.37 231.487C143.265 231.338 144.01 231.188 143.936 230.064C143.861 228.267 143.861 226.545 143.787 224.747C143.787 223.774 143.339 223.249 142.295 223.174C138.939 222.8 135.658 222.126 132.302 222.126C122.681 222.126 113.135 221.527 103.514 221.302C97.4737 221.152 91.3582 221.078 85.3174 220.853C83.5275 220.778 82.9309 221.602 83.08 223.249C83.2292 224.448 83.3784 225.646 83.3038 226.844C83.3038 228.492 83.975 229.241 85.5411 229.54C88.748 230.139 91.9549 229.54 95.1617 229.765C95.3109 229.915 95.3109 230.064 95.3109 230.214ZM99.1889 176.143C100.084 176.143 100.979 176.143 101.799 176.143C102.694 176.143 103.589 176.218 104.484 176.218C104.857 176.218 105.379 176.443 105.677 175.918C106.423 174.57 105.23 172.324 103.664 172.249C97.8465 171.949 91.9549 171.65 86.0632 171.425C78.307 171.051 70.5509 170.302 62.8693 169.702C57.7234 169.253 52.5775 168.504 47.357 169.253C43.1807 169.852 43.1807 169.852 42.8078 174.046C42.6586 175.844 43.1061 176.293 44.8214 175.993C47.5062 175.544 50.191 175.244 52.9504 175.319C59.4387 175.544 65.927 175.993 72.4154 175.844C81.3647 175.694 90.3141 175.694 99.1889 176.143ZM132.078 137.35C118.654 137.649 105.155 136.751 91.7311 136.676C83.4529 136.601 75.1747 136.151 66.8966 136.151C60.9303 136.151 54.8895 135.702 48.9232 135.552C46.2384 135.477 43.6281 135.477 41.0179 135.103C40.123 134.953 38.4822 136.451 38.706 137.05C39.0043 138.024 39.9738 137.499 40.645 137.574C42.2857 137.724 43.9264 137.874 45.5672 137.949C58.9167 138.398 72.3408 138.773 85.6903 139.521C91.5074 139.821 97.3245 139.821 103.142 140.046C114.776 140.42 126.335 141.244 137.97 141.019C142.295 141.019 146.695 141.019 151.021 141.019C151.99 141.019 152.811 140.72 152.811 139.521C152.885 138.323 152.363 137.799 151.17 137.724C147.292 137.499 143.414 136.975 139.461 137.125C137 137.2 134.539 137.275 132.078 137.35ZM44.3739 197.038C40.1975 196.738 36.0957 196.364 31.9193 196.438C29.1599 196.513 29.2345 196.588 29.1599 199.284C28.8616 208.795 29.3837 218.307 29.5328 227.818C29.6074 231.263 30.5024 234.558 31.6956 237.778C32.2177 239.126 33.1872 239.8 34.5296 240.025C37.4381 240.549 40.4213 240.474 43.4044 240.474C44.1502 240.474 44.8214 240.399 44.896 239.426C45.0451 236.355 45.7163 233.435 45.9401 230.439C46.313 226.245 46.6858 221.976 46.3875 218.082C46.6113 211.417 45.8655 205.201 45.5672 198.91C45.5672 198.086 45.6417 197.113 44.3739 197.038ZM100.681 27.7096C99.0398 27.7096 97.9211 28.3087 97.6974 30.4056C97.1008 36.5467 97.6228 42.6877 97.3245 48.1547C97.3245 54.2958 97.3991 59.7628 97.2499 65.2298C97.2499 66.1285 97.5482 66.1285 98.1449 66.1285C101.277 66.2034 104.409 66.2783 107.616 66.4281C108.81 66.503 109.257 66.1285 109.182 64.7805C108.81 57.2165 108.511 49.7274 108.138 42.1635C107.915 38.1194 107.616 34.0753 107.393 30.0312C107.318 29.1325 107.243 28.1589 106.05 28.084C104.335 27.9342 102.47 27.7096 100.681 27.7096ZM101.352 130.609C100.681 122.072 98.5923 113.609 99.5618 104.473C99.1889 105.222 99.0398 105.521 98.8906 105.896C96.6533 110.988 94.1922 116.006 91.4328 120.874C89.27 124.693 87.0327 128.438 85.392 132.482C84.6462 134.429 84.8699 134.878 86.9581 134.878C90.4633 134.953 94.0431 134.953 97.5482 134.953C101.725 135.028 101.725 135.702 101.352 130.609ZM29.3091 188.575C32.4414 187.601 35.3499 187.377 38.2585 188.575C39.5263 189.099 41.167 188.725 42.584 188.8C50.6385 189.249 58.6929 189.848 66.7474 190.148C75.6968 190.447 84.6462 190.223 93.6702 190.522C105.155 190.822 116.64 190.897 128.125 190.971C135.359 191.046 142.519 190.971 149.753 190.971C150.648 190.971 151.99 191.196 152.14 189.773C152.289 188.126 150.872 188.5 149.977 188.425C141.177 187.901 132.302 187.826 123.501 187.452C113.732 187.002 103.962 187.377 94.1922 187.077C80.9173 186.778 67.7169 187.077 54.442 186.628C46.9842 186.403 39.5263 186.178 32.0685 186.778C30.9498 186.852 29.8312 186.628 29.3091 188.575ZM87.4056 124.693C93.1481 114.957 97.5482 104.547 102.545 94.4372C103.216 93.0143 103.216 92.1156 101.501 91.6663C100.531 91.4416 99.5618 90.9923 98.7415 90.468C97.1753 89.3447 96.5041 90.0936 95.8329 91.5914C92.6261 98.2567 89.27 104.772 85.392 110.988C83.08 114.733 80.8427 118.627 78.9037 122.596C78.0833 124.319 77.1138 126.041 77.1138 127.614C77.1138 135.777 80.3952 132.706 82.3343 132.557C84.7208 132.332 86.1377 126.79 87.4056 124.693ZM108.437 178.165C102.098 177.94 95.6838 177.416 89.3446 177.491C78.1579 177.641 67.0457 177.791 55.859 177.042C53.2487 176.892 50.7131 176.967 48.1028 177.266C45.7909 177.491 43.5536 178.39 41.0925 177.192C39.6009 176.443 38.5568 177.566 38.4077 179.363C38.3331 180.562 38.4077 181.76 38.3331 182.958C38.2585 184.381 38.7805 184.83 40.1975 184.83C47.6554 184.83 55.1132 184.905 62.571 185.13C77.1138 185.43 91.6565 185.13 106.199 185.579C106.871 185.579 107.467 185.504 108.064 185.579C109.704 185.804 110.45 185.28 110.227 183.482C110.077 182.359 110.152 181.236 110.227 180.037C110.227 178.839 109.704 178.165 108.437 178.165ZM34.8279 121.173C31.1736 117.504 27.0718 114.208 24.1632 109.865C21.8513 106.42 18.4953 105.671 14.8409 105.296C10.4408 104.697 7.08478 109.715 7.97972 113.684C8.42719 115.781 9.17297 117.803 10.2916 119.675C12.8273 124.169 16.7054 127.464 20.0614 131.209C22.3733 133.83 24.6852 136.601 27.6684 138.548C29.9803 140.121 32.1431 140.121 34.1567 138.548C36.394 136.751 38.2585 134.654 39.6755 132.107C40.4213 130.684 40.4958 129.336 39.8246 127.913C38.6314 125.442 36.8415 123.195 34.8279 121.173ZM31.099 63.4325C31.099 65.9039 31.2481 65.9787 33.4109 64.8554C33.7092 64.7056 34.0821 64.3311 34.455 64.4809C36.3195 65.3796 38.3331 64.6307 40.1975 64.8554C41.5399 65.0052 41.9874 64.406 41.9874 63.1329C41.9128 51.7495 42.2111 40.441 41.5399 29.0576C41.4654 27.2602 41.2416 25.5377 41.0179 23.7403C40.8687 22.4672 40.123 21.7932 38.8551 22.0179C37.2144 22.3923 35.5737 22.2425 33.933 22.3923C31.3227 22.617 31.1736 22.7668 31.1736 25.313C31.1736 31.6788 31.1736 37.9696 31.1736 44.3353C31.099 50.701 31.099 57.0667 31.099 63.4325ZM191.815 273.501C189.503 269.682 186.446 266.312 184.432 262.193C183.537 260.32 182.791 258.373 182.195 256.351C181.673 254.404 181.747 252.532 182.344 250.585C184.357 244.144 186.744 237.778 188.31 231.113C190.92 219.73 192.113 208.271 189.205 196.813C186.744 186.927 183.91 177.117 180.927 167.306C177.645 156.372 175.11 145.213 173.916 133.83C173.394 128.887 174.513 124.094 175.632 119.376C177.944 109.49 181.896 100.129 185.327 90.5429C186.296 87.772 187.191 85.001 187.937 82.23C189.205 77.2873 184.656 72.644 179.584 73.6176C176.377 74.2167 173.767 76.0141 171.008 77.5868C170.262 78.0362 169.293 79.2344 168.621 78.1859C168.472 77.9613 168.398 77.7366 168.398 77.5868C168.398 76.9128 169.665 76.6881 170.113 76.3137C172.499 74.5163 175.11 73.0185 177.944 72.1198C181.598 70.9215 187.191 72.9436 189.13 76.2388C190.473 78.5604 190.025 81.1067 189.354 83.4283C187.937 88.446 186.147 93.3139 184.208 98.1069C181.15 105.671 178.839 113.385 176.825 121.323C174.96 128.737 175.557 136.151 176.9 143.566C179.584 158.169 184.357 172.249 188.235 186.628C190.622 195.315 192.934 204.002 192.486 213.139C191.964 223.1 190.025 232.76 186.744 242.122C185.625 245.342 184.656 248.637 183.612 251.858C183.313 252.831 183.462 253.88 183.612 254.853C184.432 259.272 186.52 263.091 189.13 266.611C192.561 271.254 195.469 276.272 198.303 281.29C199.944 284.136 199.87 284.136 203.002 283.536C207.477 282.638 211.951 282.488 216.277 284.061C220.826 285.708 223.66 288.704 224.704 293.722C225.45 296.942 227.24 299.938 228.433 303.008C234.921 319.784 242.081 336.334 248.868 352.96C249.613 354.758 250.434 356.405 251.179 358.203C251.329 358.652 251.925 359.101 251.254 359.476C250.732 359.775 250.061 359.551 249.837 358.951C249.613 358.577 171.008 358.352 141.177 358.053C141.251 358.053 141.326 357.978 141.4 357.903C141.997 357.529 141.848 357.079 141.549 356.78C150.499 356.855 247.451 357.454 248.868 357.379C242.23 341.053 233.803 321.806 227.538 305.33C226.569 302.858 225.375 300.462 224.406 297.99C223.958 296.867 223.511 296.717 222.541 297.466C219.185 299.938 215.307 301.81 211.578 303.383C205.91 305.704 199.87 307.277 193.903 309.074C187.042 311.171 180.032 312.969 172.947 314.092C166.011 315.14 159.001 315.74 152.065 316.189C146.024 316.563 139.983 316.863 133.868 316.938C128.2 317.013 122.681 316.189 117.386 314.017C116.939 313.867 116.417 313.717 115.969 313.568C115.969 313.568 115.894 313.643 115.671 313.717C116.864 316.938 118.505 320.008 120.145 323.079C125.813 333.638 131.854 343.973 139.088 353.559C139.76 354.458 140.505 355.357 141.177 356.255C141.326 356.405 141.475 356.63 141.624 356.78C141.177 356.78 140.953 356.78 140.953 356.78C140.953 356.78 140.505 357.304 141.102 358.128C141.177 358.128 141.177 358.128 141.251 358.128C140.654 358.352 140.207 357.678 139.834 357.229C139.237 356.555 138.79 355.806 138.268 355.057C128.871 342.775 121.19 329.444 114.627 315.515C113.657 313.493 112.911 311.321 112.166 309.149C111.494 307.352 111.942 305.629 112.986 304.057C114.85 301.136 117.311 298.964 120.444 297.466C121.935 296.792 122.383 296.193 121.19 294.77C115.671 288.105 112.24 280.091 107.616 272.827C106.125 270.505 104.186 268.409 103.216 265.787C102.918 265.038 102.172 265.188 101.575 265.188C97.3245 265.038 93.1481 264.889 88.8971 264.814C78.1579 264.439 67.4932 263.466 56.7539 262.717C51.608 262.342 46.3875 262.717 41.2416 262.492C36.9161 262.342 32.516 261.968 28.1904 261.593C24.6107 261.294 22.1496 259.047 20.658 256.126C17.3766 249.985 16.2579 243.245 16.7054 236.28C17.2274 228.267 18.719 220.254 18.3461 212.166C18.0478 206.399 17.8986 200.632 17.6003 194.866C17.6003 194.267 17.4512 193.742 16.78 193.443C11.112 190.971 8.20345 185.879 5.81695 180.412C5.22032 178.989 4.69827 177.566 4.2508 176.143C2.75924 171.2 5.36948 166.033 10.1425 164.086C11.6341 163.487 13.1256 163.711 14.6172 164.011C15.4375 164.161 16.1087 164.161 16.9291 163.711C12.0069 160.116 9.17297 155.024 6.26442 149.931C2.5355 143.491 6.48815 135.777 11.2612 132.632C13.051 131.433 14.9155 131.658 16.6308 132.856C18.7936 134.354 21.1055 135.552 23.0445 137.275L23.1191 137.35L23.1937 137.425C25.5056 140.195 27.8921 142.966 30.5024 146.037C30.4278 144.464 30.1295 143.491 30.5024 142.442C30.6515 142.068 30.6515 141.618 30.1295 141.544C27.2955 141.019 25.431 138.922 23.1937 137.35L23.1191 137.275L23.0445 137.2C20.3597 133.755 17.302 130.684 14.3934 127.539C10.8137 123.72 7.60682 119.675 6.48815 114.358C5.51863 109.715 8.50176 104.547 12.6036 103.724C14.3934 103.424 16.1833 103.574 18.2715 103.873C13.4985 98.5562 9.32213 93.3139 5.36948 87.8469C2.08803 83.3534 0.0744185 78.3357 0.298153 72.644C0.44731 70.0977 0.969358 67.6263 2.83381 65.6043C5.51863 62.7584 8.50176 62.4589 11.5595 64.8554C13.6477 66.5779 15.6613 68.4501 17.7495 70.1726C18.4953 70.8466 19.3156 71.4458 20.3597 72.2696C20.5089 67.1021 20.658 62.384 20.8072 57.6659C20.9563 46.582 20.2106 35.5731 19.3902 24.5641C19.0173 19.3218 19.0173 14.0794 20.7326 8.91197C22.0004 5.16743 24.3869 2.92071 28.3396 2.54625C39.8246 1.57267 51.3843 1.49778 63.0185 1.79734C68.1644 1.94713 73.3849 1.42289 78.5308 1.27311C81.9614 1.19822 85.3174 1.27311 88.748 1.57267C92.1786 1.79734 95.5346 1.19822 98.9652 0.823764C106.945 -0.149816 114.85 0.374419 122.83 0.673983C126.932 0.823764 131.034 1.19822 135.136 1.27311C141.027 1.348 146.844 1.94713 152.662 2.54625C155.794 2.84582 158.628 4.19385 161.387 5.61677C163.923 6.96481 165.042 9.4362 165.638 12.0574C166.682 16.401 167.055 20.8196 167.279 25.2382C168.323 42.6877 167.801 60.2122 168.025 77.7366C168.025 78.4855 168.025 79.3093 168.025 80.0582C168.174 87.8469 168.77 95.6355 168.845 103.424C168.994 111.812 168.696 120.275 168.025 128.662C167.354 137.125 166.608 145.588 166.682 154.125C166.682 161.539 166.384 168.954 166.533 176.368C166.757 188.201 166.757 200.108 166.831 211.941C166.831 222.65 166.831 233.36 166.757 244.144C166.757 247.364 166.384 250.659 165.489 253.73C164.221 258.223 160.94 261.069 156.689 262.867C153.184 264.364 149.38 264.739 145.577 265.113C133.197 266.087 120.817 265.937 108.437 265.787C107.243 265.787 106.05 265.787 104.782 265.787C104.857 266.611 105.528 267.06 105.901 267.66C110.227 273.876 113.657 280.616 117.61 286.981C120.593 291.774 123.651 296.493 127.529 300.612C127.976 301.136 128.125 301.735 128.274 302.334C129.244 305.854 130.288 309.374 131.183 312.969C131.705 314.991 132.749 315.665 134.837 315.59C142.071 315.44 149.306 314.841 156.54 314.391C165.862 313.792 175.11 312.594 184.208 310.272C192.337 308.25 200.243 305.704 208.073 302.858C209.043 302.484 209.49 302.109 208.744 301.061C202.405 292.299 197.409 282.713 191.815 273.501ZM153.631 212.914C153.184 207.073 152.363 201.231 152.289 195.315C152.289 192.619 152.289 192.619 149.604 192.619C137.597 192.544 125.59 192.769 113.583 192.394C104.931 192.095 96.2804 192.02 87.6293 192.02C84.6462 192.02 81.5885 192.02 78.6053 191.945C64.2117 191.795 49.8927 191.121 35.5737 189.998C33.933 189.848 32.2922 189.399 30.7261 189.998C30.2786 190.148 29.3837 190.223 29.6074 190.747C30.0549 192.095 29.0108 193.518 29.9057 194.791C29.9803 194.866 30.2786 194.866 30.4278 194.866C35.1262 194.267 39.7501 195.315 44.4485 195.165C45.1943 195.165 46.1638 194.941 46.5367 195.764C47.2079 197.187 48.4757 197.187 49.7435 197.337C52.1301 197.637 54.5166 197.861 56.9031 198.161C57.4997 198.236 58.3201 198.086 58.3201 198.985C58.3201 200.033 57.4251 199.883 56.7539 199.809C54.2928 199.584 51.8317 199.359 49.4452 198.91C47.6554 198.61 47.2825 199.209 47.4316 200.782C47.6554 203.403 47.8791 206.099 48.0283 208.721C48.4757 216.734 48.1774 224.672 47.6554 232.686C47.5062 234.783 46.5367 236.73 46.6858 238.827C46.7604 239.65 46.835 240.399 47.8791 240.399C51.1605 240.324 54.442 240.699 57.7234 240.175C58.5438 240.025 58.7675 239.725 58.6929 238.902C58.0963 233.584 58.7675 228.267 58.8421 222.95C58.9913 214.937 59.737 206.923 59.2896 198.91C59.2896 198.386 59.215 197.861 59.215 197.337C59.1404 196.214 58.6184 194.342 60.0354 194.267C60.4082 194.267 60.632 194.416 60.7811 194.641C61.154 195.24 61.0795 196.438 61.0795 197.262C61.4523 206.998 60.8557 216.809 60.4828 227.593C60.4828 230.214 60.4828 233.884 60.4828 237.554C60.4828 239.351 61.154 240.175 63.0931 240.1C67.0457 239.875 71.0729 239.8 75.0256 239.725C76.8155 239.725 77.1138 239.051 76.9646 237.404C76.2934 231.038 76.5917 224.597 76.8155 218.232C77.1138 211.117 77.4121 204.077 77.7104 196.963C77.785 195.54 77.1138 195.24 75.8459 195.24C73.8323 195.24 71.8187 195.24 69.8051 195.24C67.4186 195.24 65.0321 195.24 62.6456 195.24C62.1981 195.24 61.6015 195.09 61.4523 194.566C61.4523 194.491 61.4523 194.416 61.4523 194.267C61.5269 193.593 62.1235 193.593 62.6456 193.593C68.0152 193.293 73.3849 193.742 78.7545 193.668H78.8291C80.0223 193.668 80.619 194.117 79.7986 195.39C79.3511 196.064 79.5003 196.888 79.5003 197.637C79.2766 202.205 79.1274 206.773 78.9037 211.342C78.5308 219.205 78.0833 227.069 78.3816 234.932C78.6053 239.65 78.9037 239.8 83.5275 239.8C84.1241 239.8 84.7953 239.725 85.392 239.8C86.8835 239.95 87.2564 239.276 87.2564 237.928C87.1818 236.655 87.1073 235.307 87.4056 234.109C87.8531 232.161 87.2564 231.338 85.3174 231.113C83.08 230.813 82.1851 229.765 81.9614 227.443C81.8868 226.395 81.7376 225.421 81.6631 224.448C81.3647 219.205 82.7072 218.981 86.3615 219.28C87.7039 219.355 88.1514 218.756 88.0768 217.483C88.0022 215.536 88.0768 213.588 88.1514 211.566C88.1514 210.892 88.2259 209.994 89.1209 209.994C89.4192 209.994 89.5684 210.069 89.7175 210.143C90.0904 210.443 89.9412 211.117 89.9412 211.566C89.9412 213.514 89.9412 215.461 89.8667 217.483C89.7921 218.681 90.165 219.28 91.582 219.355C99.2635 219.58 107.02 219.73 114.701 220.104C124.62 220.628 134.688 219.804 144.533 221.901C145.726 222.126 146.099 221.602 146.173 220.553C146.248 219.58 146.397 218.681 146.546 217.707C146.621 217.108 146.994 216.584 147.665 216.734C148.336 216.884 148.187 217.483 148.112 218.007C147.963 219.13 147.814 220.254 147.59 221.377C147.516 221.752 147.367 222.126 147.963 222.201C149.753 222.575 151.916 220.928 151.916 219.055C151.916 217.782 151.99 216.509 151.916 215.236C151.916 211.866 151.841 211.866 148.485 212.091C148.038 212.091 147.59 212.091 147.143 212.091C141.848 212.091 136.553 211.716 131.258 211.417C122.979 210.967 114.701 210.967 106.498 210.743C101.65 210.593 96.8025 210.818 91.9549 210.218C91.582 210.143 91.0599 210.143 90.7616 209.994C90.4633 209.844 90.2396 209.619 90.3141 209.095C90.4633 208.121 91.3582 208.421 92.0294 208.496C93.8193 208.646 95.6838 208.721 97.5482 208.945C98.5177 209.02 98.9652 208.721 98.8161 207.672C98.7415 207.148 98.8161 206.624 98.8161 206.174C98.6669 203.628 98.6669 203.553 101.203 203.703C108.138 203.928 115.074 204.227 122.01 204.452C128.871 204.602 135.732 204.002 142.594 204.826C144.756 205.126 145.278 205.5 145.278 207.672C145.278 208.196 145.278 208.721 145.204 209.17C145.055 210.368 145.577 210.593 146.621 210.518C148.112 210.368 149.604 210.293 151.17 210.143C152.438 209.994 153.258 210.593 153.482 211.866C153.557 212.315 153.631 212.69 153.631 213.139C154.004 216.584 153.631 220.029 153.557 223.399C153.557 224.373 152.885 224.747 152.214 223.774C151.767 223.025 151.245 223.174 150.573 223.324C145.875 224.298 145.875 224.298 146.024 229.166C146.024 229.316 146.024 229.39 146.024 229.54C145.8 231.113 146.546 231.487 148.038 231.487C150.051 231.412 150.424 231.937 150.275 234.034C150.126 235.606 149.977 237.179 149.753 238.752C149.678 239.65 149.902 239.875 150.797 239.725C152.811 239.426 153.482 238.003 153.78 236.28C154.824 228.342 154.228 220.628 153.631 212.914ZM35.9466 17.0751C34.5296 17.0751 33.1872 17.4495 32.3668 18.8724C31.621 20.1456 31.9193 20.7447 33.4109 20.7447C35.4245 20.7447 37.4381 20.5949 39.4518 20.4451C41.2416 20.2954 42.3603 21.0443 42.584 22.9165C42.8078 24.7139 43.0315 26.5862 43.2552 28.3836C43.3298 28.9827 43.3298 29.432 44.001 29.7316C46.2384 30.4805 47.5062 29.8814 47.8791 27.5598C48.5503 23.291 48.9232 22.9914 53.3233 22.9914C53.8454 22.9914 54.3674 22.9914 54.8149 22.9914C57.4251 23.0663 58.0963 23.7403 58.3946 26.4364C58.6929 29.8065 58.8421 33.1766 58.7675 36.5467C58.7675 37.1458 58.5438 37.7449 59.2896 38.4189C59.4387 38.1194 59.5879 37.8947 59.737 37.67C60.5574 36.3969 61.2286 36.0224 62.571 37.4454C64.2863 39.2427 65.7033 41.2648 67.1203 43.2119C71.8187 49.6526 76.5172 56.0932 81.2156 62.5338C81.8122 63.4325 82.8563 64.406 80.6935 64.6307C80.0969 64.7056 79.6494 65.2298 79.2766 66.2034C81.2902 66.2034 83.1546 66.2034 85.0937 66.2034C85.7649 66.2034 86.1378 66.0536 86.0632 65.2298C85.6157 59.8377 85.2428 54.5205 84.8699 49.1283C84.4225 43.1371 84.0496 37.1458 83.5275 31.1545C83.3784 29.1325 84.497 28.4585 85.9886 28.0091C87.0327 27.7096 88.2259 27.7096 89.3446 27.6347C91.0599 27.41 91.8803 28.2338 92.1786 29.8814C92.4769 31.6039 92.2532 33.3264 92.1786 35.0489C92.104 35.648 92.104 36.1722 92.104 36.7713C92.104 45.6084 92.0294 54.4456 92.0294 63.2078C92.0294 63.9567 92.1786 65.0052 91.2091 65.1549C91.1345 65.1549 91.1345 65.1549 91.0599 65.1549C89.8667 65.1549 90.3887 64.0316 90.3887 63.3576C90.3887 53.0226 90.4633 42.6877 90.5379 32.3528C90.5379 29.5069 90.5379 29.5069 87.7039 29.5818C85.0937 29.6567 85.0937 29.6567 85.3174 32.3528C85.8394 39.4674 86.2869 46.5071 86.809 53.6218C87.1073 57.3663 87.4056 61.1108 87.7039 64.7805C87.7785 65.5294 87.7039 66.3532 88.8971 66.2783C89.7175 66.2783 90.4633 66.2034 91.2837 66.2034C92.3278 66.1285 93.3718 66.1285 94.4159 66.1285C95.6092 66.1285 95.8329 65.6043 95.8329 64.4809C95.7584 55.7936 95.7583 47.1063 95.7583 38.4189C95.7583 36.9211 96.1312 35.2735 93.6702 35.7978C93.2227 35.8727 92.7752 35.5731 92.7752 35.0489C92.7752 34.5995 93.1481 34.2999 93.521 34.2999C95.8329 34.4497 95.9075 32.8021 95.9821 31.1545C96.0567 30.1061 96.2058 29.1325 96.355 28.1589C96.5041 27.2602 96.9516 26.8858 97.9211 26.5862C100.531 25.8373 103.142 26.1368 105.826 26.3615C108.437 26.5862 109.033 27.0355 109.182 29.6567C109.63 36.322 109.928 42.9124 110.301 49.5777C110.599 54.6702 110.823 59.6879 111.047 64.7805C111.121 65.829 111.42 66.4281 112.613 66.503C114.254 66.5779 115.894 66.7277 117.535 66.8025C123.651 67.1021 129.766 66.2034 135.881 65.6792C141.549 65.1549 147.217 65.2298 152.96 65.3047C153.855 65.3047 154.601 65.1549 154.601 64.0316C154.75 59.3884 155.346 54.7451 154.899 50.1768C154.004 39.9916 152.96 29.8814 151.99 19.6962C151.841 18.3482 151.394 17.824 149.902 17.9738C144.831 18.3482 139.834 18.7976 134.763 18.9473C128.722 19.0971 122.681 18.2733 116.64 17.8989C107.616 17.2997 98.5923 18.2733 89.5684 19.0971C82.9309 19.6962 76.2188 19.9209 69.5814 18.7976C58.3946 16.9253 47.2079 16.9253 35.9466 17.0751ZM101.799 205.35C100.382 205.201 100.084 205.875 100.084 207.073C100.009 208.346 100.233 208.795 101.65 208.87C114.925 209.17 128.274 209.395 141.549 210.218C143.265 210.293 142.892 209.02 143.116 208.196C143.339 207.298 143.265 206.399 141.922 206.324C139.834 206.249 137.746 205.95 135.732 205.95C130.437 205.875 125.142 205.95 118.878 205.95C113.806 205.201 107.765 205.875 101.799 205.35ZM33.7838 163.112C32.7397 164.235 31.2481 165.059 32.516 166.932C32.6651 167.156 32.516 167.531 32.516 167.83C32.4414 172.099 31.4719 176.293 32.4414 180.562C32.5905 181.011 32.3668 181.535 32.2922 182.059C31.621 184.83 31.621 184.756 34.5296 184.83C36.1703 184.905 36.6924 184.231 36.6178 182.659C36.5432 181.161 36.6178 179.738 36.6924 178.315C36.7669 176.742 37.5127 175.544 39.228 175.469C40.8687 175.394 41.2416 174.495 41.3162 172.998C41.6145 168.954 42.9569 167.606 46.6113 167.531C47.2079 167.531 48.0283 167.456 48.1028 166.632C48.1774 165.284 48.252 163.936 47.8791 162.663C47.5062 161.539 46.2384 162.213 45.3434 161.989C44.7468 161.839 43.9264 161.764 44.0756 160.94C44.2248 160.042 44.9705 160.341 45.5672 160.341C48.6249 160.341 51.6826 160.566 54.6657 160.341C60.1845 159.892 65.7033 160.191 71.1475 160.641C79.7986 161.39 88.3751 161.764 97.0262 161.914C101.352 161.989 101.352 161.839 101.799 157.57C101.948 156.222 101.65 155.548 100.084 155.623C97.9211 155.698 95.6838 155.473 93.4464 155.473C84.1987 155.249 75.0256 154.874 65.8525 154.2C61.6015 153.901 57.276 153.751 53.025 153.601C50.4893 153.526 47.9537 153.451 45.4926 153.451C44.896 153.451 44.1502 153.526 44.1502 152.777C44.0756 151.953 44.896 151.878 45.4926 151.804C46.3875 151.729 47.2825 151.729 48.1774 151.729C57.7234 151.729 67.1949 152.552 76.7409 153.077C85.0937 153.526 93.521 153.676 101.948 153.826C103.216 153.826 103.664 154.275 103.664 155.473C103.664 156.896 103.664 158.394 103.365 159.817C103.067 161.09 103.44 161.689 104.857 161.614C106.796 161.464 108.81 161.614 110.674 162.064C111.867 162.288 113.061 162.813 113.359 164.161C113.806 166.257 113.657 168.354 113.359 170.376C113.284 170.901 113.061 171.425 112.464 171.425C111.942 171.35 111.793 171.051 111.718 170.676C111.718 170.526 111.718 170.302 111.718 170.152C111.793 168.729 111.793 167.231 111.867 165.808C111.942 164.535 111.271 163.936 110.077 163.711C108.138 163.487 106.199 163.262 104.26 163.337C96.7279 163.861 89.1209 163.636 81.5885 163.112C75.2493 162.663 68.9102 161.914 62.571 161.989C58.9913 162.064 55.3369 162.064 51.7572 161.989C50.191 161.989 49.669 162.588 49.9673 164.086C50.0419 164.685 50.1164 165.209 50.191 165.808C50.2656 166.782 50.6385 167.231 51.6826 167.306C58.7675 167.456 65.7779 168.205 72.8628 168.804C83.5275 169.628 94.2668 170.227 105.006 170.676C105.528 170.676 106.125 170.826 106.647 170.376C107.84 169.253 109.182 170.152 110.45 170.152C110.599 170.152 110.898 170.451 110.972 170.676C110.972 170.751 110.972 170.751 110.972 170.826C110.972 171.125 110.749 171.275 110.525 171.425C110.003 171.725 109.406 171.725 108.884 171.65C107.915 171.575 107.467 171.874 107.616 172.923C107.691 173.447 107.691 174.046 107.691 174.645C107.691 175.844 107.84 176.592 109.406 176.518C111.271 176.368 112.166 177.566 112.166 179.363C112.24 180.936 112.24 182.509 112.24 184.081C112.24 184.905 112.464 185.504 113.359 185.504C115.596 185.43 117.759 185.804 119.996 185.355C120.145 185.355 120.295 185.28 120.518 185.28C122.383 185.879 124.396 185.879 126.335 185.879C134.614 186.104 142.892 186.253 151.17 186.478C152.289 186.553 152.736 186.253 152.811 185.055C152.96 181.161 153.333 177.341 153.407 173.447C153.706 163.786 153.109 154.2 153.184 144.539C153.184 142.966 152.512 142.592 151.095 142.592C137.224 142.742 123.427 142.592 109.63 141.918C103.067 141.618 96.5041 141.768 89.9412 141.394C81.2902 140.795 72.6391 140.42 64.0626 140.121C55.4115 139.821 46.7604 139.821 38.1839 138.922C37.5873 138.847 36.9907 138.847 36.5432 139.297C35.5737 140.195 34.3804 140.795 33.038 141.169C32.2177 141.394 31.9939 141.843 32.1431 142.742C32.7397 145.737 32.6651 149.033 35.6483 150.98C36.0957 151.279 36.3195 151.878 36.6178 152.328C38.4077 154.799 38.2585 157.345 36.6178 159.742C35.5737 160.94 34.6787 162.064 33.7838 163.112ZM31.2481 68.0757C31.3973 68.8246 32.1431 68.6748 32.6651 68.6748C37.289 68.6748 41.9128 68.8246 46.4621 68.9744C56.9031 69.3488 67.4186 69.5735 77.8596 69.7233C94.7888 69.948 111.718 69.4986 128.647 70.3224C134.315 70.3224 139.909 70.1726 145.502 69.7233C147.963 69.5735 150.424 69.4237 152.885 69.4237C153.631 69.4237 154.079 69.1991 154.079 68.3753C154.079 67.6263 153.631 67.5515 152.96 67.4017C148.858 66.6528 144.682 67.0272 140.505 67.1021C134.166 67.2519 127.976 68.4501 121.637 68.525C117.759 68.525 113.955 68.3753 110.077 68.2255C99.5618 67.851 89.0463 68.2255 78.5308 67.7761C75.0256 67.6263 71.595 67.7761 68.0898 67.6263C63.7643 67.4017 59.3642 67.4766 55.0386 67.3268C50.7131 67.2519 46.3875 66.1285 42.062 66.3532C38.8551 66.503 35.4991 66.4281 32.3668 67.3268C31.9939 67.4017 31.099 67.2519 31.2481 68.0757ZM153.78 114.059C154.079 104.922 153.706 95.7853 153.407 86.7235C153.407 85.001 153.407 83.2785 153.407 81.556C153.407 77.5119 152.811 76.9877 148.784 77.7366C148.709 77.7366 148.634 77.7366 148.634 77.7366C147.217 77.8864 146.695 78.5604 146.844 79.9833C147.367 83.9525 147.217 87.9966 147.143 91.9659C147.068 97.7324 147.217 103.499 147.665 109.266C148.336 117.728 150.275 126.041 149.678 134.579C149.604 135.477 149.977 135.852 150.797 136.002C152.587 136.376 153.034 135.477 153.034 133.98C152.96 127.314 153.557 120.724 153.78 114.059ZM32.6651 70.3224C31.4719 70.3224 30.9498 70.8466 30.9498 72.0449C31.099 82.0054 31.1736 91.9658 31.3227 101.851C31.2481 102.151 31.099 102.451 31.099 102.75C31.0244 106.42 31.099 110.089 30.9498 113.759C30.9498 114.733 31.1736 115.407 31.8448 116.081C34.8279 118.927 38.0348 121.772 40.2721 125.367C41.6145 127.464 42.5095 129.636 41.3908 132.182C40.9433 133.231 41.5399 133.306 42.2857 133.455C45.5672 134.054 48.8486 133.605 52.1301 134.054C53.4725 134.204 52.8758 133.156 52.6521 132.632C51.608 130.31 50.4893 128.063 48.9232 126.041C43.7027 119.526 38.4077 113.01 33.3363 106.345C32.3668 105.072 31.3973 103.649 31.2481 101.926C32.8143 100.953 34.455 99.9043 36.0211 98.9307C36.4686 98.706 36.9907 98.1069 37.4381 98.9307C37.5127 99.0056 37.5127 99.0805 37.5127 99.1553C37.6619 99.6796 37.289 100.054 36.7669 100.354C35.872 100.878 35.0516 101.402 34.2313 101.926C33.8584 102.226 33.1872 102.675 33.6346 103.125C34.6042 104.098 34.6787 105.521 35.4991 106.57C41.6891 114.808 49.0723 122.147 53.9199 131.358C54.0691 131.658 54.2928 132.032 54.7403 131.958C56.7539 131.733 58.2455 129.261 57.4251 127.389C57.2014 126.865 56.9031 126.341 56.6793 125.891C52.5029 118.702 47.9537 111.812 42.7332 105.296C41.3162 103.499 39.9738 101.627 38.6314 99.8294C38.4822 99.6047 38.1839 99.3051 38.1093 99.0056C38.0348 98.706 38.0348 98.4065 38.4077 98.1818C39.0789 97.7324 39.5263 98.4064 39.9738 98.8558C40.0484 98.9307 40.123 99.0056 40.1975 99.1553C44.2993 104.772 48.774 109.94 52.5029 115.856C54.1437 118.477 55.859 121.098 57.4997 123.72C57.7234 122.671 57.6488 121.697 57.5743 120.724C57.3505 113.459 56.9776 106.27 58.0963 99.0805C58.5438 96.3095 59.2896 95.7104 62.049 95.4108C62.4219 95.3359 62.7948 95.3359 63.1676 95.4108C64.5846 95.6355 65.405 95.1861 65.5541 93.5386C65.7033 91.9659 66.5982 90.8425 68.1644 90.3931C70.3272 89.794 72.4899 89.4196 74.7273 89.6442C76.8155 89.9438 77.3375 90.6178 77.1138 92.7148C76.8155 95.261 76.5172 97.7324 76.5172 100.279C76.4426 106.27 76.368 112.186 76.2934 118.178C76.2934 119.75 76.2934 121.248 76.2934 122.821C77.785 120.874 78.7545 118.927 79.8732 116.904C85.2428 107.693 90.7616 98.6311 95.0871 88.8204C95.5346 87.772 96.2804 87.2477 97.3245 87.8469C99.2635 88.9702 101.277 89.794 103.291 90.6178C104.782 91.2169 105.081 92.2654 104.484 93.6883C103.738 95.261 103.067 96.9086 102.247 98.4813C101.725 99.5298 101.799 100.054 103.142 99.9043C104.857 99.7545 106.498 99.38 108.213 99.8294C108.586 99.9043 108.959 99.7545 109.182 99.38C110.003 98.1818 111.196 97.9571 112.538 98.1069C113.433 98.1818 113.806 97.9571 113.657 96.9835C113.433 95.1861 113.284 93.3139 113.135 91.5165C112.986 89.1949 113.955 88.2962 116.193 88.1464C119.474 87.9217 122.756 88.5958 126.037 88.5209C127.156 88.5209 127.23 89.2698 127.23 90.0936C127.23 91.9659 127.305 93.913 127.23 95.7853C127.23 96.9086 127.678 97.4329 128.797 97.358C131.481 97.2082 134.241 97.0584 136.926 96.9835C138.119 96.9086 138.417 96.3095 138.417 95.261C138.417 93.7632 138.417 92.3403 138.566 90.9174C139.088 86.8733 139.461 86.4988 143.563 86.4239C144.905 86.4239 145.353 85.8997 145.278 84.6265C145.129 82.8292 145.055 80.9569 144.905 79.1595C144.831 77.6617 145.427 76.8379 146.994 76.5383C148.634 76.2388 150.275 76.2388 151.916 76.1639C154.079 76.1639 153.407 74.3665 153.631 73.1683C153.855 71.97 153.407 71.2211 151.99 71.296C150.573 71.3709 149.082 71.2211 147.665 71.4458C141.997 72.1947 136.329 72.3445 130.661 72.2696C124.396 72.1947 118.057 72.0449 111.718 71.8202C95.9075 71.3709 80.1715 71.97 64.3609 71.3709C60.7811 71.2211 57.1268 71.3709 53.547 71.1462C46.6858 70.6969 39.6755 70.3224 32.6651 70.3224ZM154.079 191.271C153.78 198.311 154.675 205.201 155.272 212.166C155.868 219.28 156.39 226.47 155.496 233.584C154.675 240.774 153.109 240.999 148.038 241.598C142.668 242.272 137.224 242.721 131.78 242.197C125.366 241.598 119.027 240.549 112.538 240.549C105.752 240.549 99.0398 241.148 92.2532 241.148C76.5172 241.298 60.7811 242.197 45.1197 242.047C41.9874 242.047 38.8551 242.122 35.6483 241.822C31.8448 241.523 30.1295 239.426 29.2345 235.981C28.0413 231.412 27.743 226.694 27.6684 222.051C27.5192 216.21 27.3701 210.368 27.4446 204.527C27.4446 200.557 27.743 196.513 27.8921 192.544C27.8921 191.945 28.0413 191.346 27.5192 190.971C26.7734 190.522 26.4006 191.271 25.9531 191.645C24.5361 192.769 23.1191 193.892 21.3292 194.117C19.5394 194.342 19.241 195.315 19.3156 196.813C19.6139 200.857 19.8377 204.901 20.0614 208.945C20.5089 218.381 19.0919 227.668 18.4953 237.029C18.0478 243.32 19.241 249.311 21.9259 254.928C23.0445 257.25 24.909 259.272 27.743 259.721C32.1431 260.47 36.6924 260.695 41.167 260.845C48.774 261.069 56.3064 260.994 63.9134 261.593C76.1443 262.642 88.3751 263.166 100.606 263.541C113.806 263.99 127.007 264.14 140.207 263.541C144.607 263.316 149.007 263.016 153.333 262.118C158.404 261.069 163.923 256.651 164.52 251.109C164.892 247.664 165.191 244.294 165.265 240.849C165.489 233.734 165.116 226.619 165.191 219.58C165.34 203.478 165.116 187.377 164.967 171.275C164.892 159.517 165.042 147.834 166.011 136.077C166.533 129.861 166.981 123.72 167.204 117.504C167.503 105.821 167.13 94.2126 166.608 82.5296C166.235 73.6176 166.459 64.6307 166.459 55.7187C166.459 45.0842 166.235 34.3748 165.638 23.7403C165.414 19.5465 165.116 15.2777 163.774 11.1587C163.177 9.36131 162.208 7.78861 160.492 6.88992C158.404 5.76656 156.316 4.79298 153.929 4.41852C147.068 3.29516 140.132 2.9956 133.197 2.77092C130.139 2.69603 127.007 2.39647 123.949 2.32158C118.803 2.09691 113.583 1.72245 108.437 1.79734C99.8602 1.87224 91.3582 3.59472 82.7817 2.92071C77.2629 2.47136 71.6696 3.37005 66.1508 3.51983C61.0049 3.7445 56.0081 3.44494 51.0114 3.29516C43.4044 3.07049 35.7974 3.7445 28.1904 4.41852C25.3565 4.71808 23.492 6.29079 22.4479 8.98686C20.5089 13.7799 20.658 18.7976 20.8818 23.8152C21.2547 31.0796 21.9259 38.344 22.2242 45.6085C22.6716 55.2694 22.3733 64.8554 22.075 74.5163C21.7767 83.9525 20.9563 93.3139 21.1801 102.75C21.1801 103.574 21.1055 104.323 19.9122 104.622C24.5361 105.896 26.0277 110.389 29.3091 113.235C29.3091 112.561 29.3091 112.186 29.3091 111.812C29.3091 99.6796 29.3091 87.5473 29.3091 75.4899C29.3091 58.8641 29.3837 42.2384 29.3837 25.6126C29.3837 23.5906 29.6074 21.5685 30.204 19.6213C31.0244 16.8504 32.7397 15.3526 35.5737 15.3526C46.0146 15.2777 56.4556 14.9032 66.7474 16.5508C76.7409 18.1984 86.7344 17.7491 96.8025 16.6257C104.484 15.8019 112.166 15.5024 119.847 16.2513C125.217 16.7755 130.661 17.2997 136.105 17.0002C141.027 16.7006 145.95 16.3262 150.872 16.0266C151.767 15.9517 152.811 15.727 153.631 16.3262C154.526 17.0002 153.034 17.6742 153.482 18.3482C153.557 18.4231 153.482 18.5729 153.557 18.7227C154.526 28.4585 155.346 38.1194 156.39 47.8552C157.062 53.7715 156.614 59.6879 156.241 65.5294C155.868 70.8466 155.272 76.2388 155.048 81.556C154.824 87.9217 155.421 94.2126 155.496 100.578C155.57 106.42 155.645 112.261 155.272 118.103C154.973 123.57 154.601 128.962 154.601 134.429C154.601 135.702 154.899 136.9 154.377 138.248C153.929 139.447 153.929 141.019 156.092 141.169C154.302 141.469 154.601 142.892 154.601 144.015C154.974 159.892 154.601 175.544 154.079 191.271Z" fill="black"/>
<path d="M39.8242 128.063C40.4954 129.486 40.4208 130.834 39.675 132.257C38.3326 134.803 36.4682 136.9 34.1562 138.698C32.1426 140.27 29.9799 140.196 27.6679 138.698C24.6848 136.751 22.3729 133.98 20.061 131.358C16.7049 127.539 12.7523 124.319 10.2912 119.825C9.2471 117.953 8.50132 115.931 7.97927 113.834C7.08433 109.865 10.4404 104.847 14.8405 105.446C18.4948 105.821 21.8508 106.644 24.1628 110.015C27.0713 114.358 31.0985 117.653 34.8275 121.323C36.8411 123.195 38.6309 125.442 39.8242 128.063Z" fill="#F9BB7C"/>
<path d="M34.4537 152.552C36.169 154.949 36.3182 156.671 34.752 159.218C30.4265 166.257 23.267 167.156 16.4058 161.24C11.9311 157.345 9.02252 152.328 6.63601 146.936C6.26312 146.112 6.41228 145.288 6.41228 144.614C6.41228 140.27 8.35131 137.05 11.409 134.429C12.7514 133.231 14.1684 133.306 15.8091 134.279C21.1788 137.425 25.0568 142.143 29.0095 146.786C30.6502 148.808 32.8876 150.381 34.4537 152.552Z" fill="#F9BB7C"/>
<path d="M30.0544 178.614C30.8001 180.112 30.9493 181.535 30.2781 183.108C28.7865 186.478 26.5492 189.249 23.566 191.421C21.627 192.844 20.5083 192.694 19.0168 191.046C18.6439 190.672 18.1964 190.447 17.9727 190.896C17.2269 192.245 16.4811 191.346 15.8099 190.971C11.4098 188.275 9.24701 183.932 7.2334 179.438C6.48762 177.641 5.74183 175.843 5.36894 173.896C4.69774 169.852 8.57581 165.359 12.9759 165.509C13.1997 165.509 13.8709 165.509 14.4675 165.733C20.8812 168.504 26.6238 172.174 30.0544 178.614Z" fill="#F9BB7C"/>
<path d="M23.1186 137.351L23.0437 137.275L22.9688 137.2C22.9688 137.275 23.0437 137.275 23.1186 137.351C23.0437 137.351 23.0437 137.351 23.1186 137.351Z" fill="black"/>
<path d="M19.5389 74.0669C20.3592 74.7409 20.2101 75.6396 20.2101 76.5383C19.9863 83.8776 19.3151 91.2169 19.3897 98.5562C19.3897 99.7544 19.3897 100.953 19.3897 102.301C17.8236 101.627 17.1524 100.354 16.332 99.38C12.8268 95.1861 9.39621 90.9922 6.26393 86.4988C2.83333 81.6309 1.04345 76.2387 2.2367 70.1726C2.53501 68.525 3.35537 67.2518 4.6232 66.2034C6.56224 64.7056 8.20296 64.5558 10.142 66.1285C13.3489 68.6748 16.4066 71.4457 19.5389 74.0669Z" fill="#F9BB7C"/>
<path d="M46.6125 154.05C47.5074 154.949 47.8803 156.297 47.6566 157.495C47.4328 158.693 46.6125 159.742 45.4938 160.341C44.9717 160.641 45.1955 162.138 45.7921 161.764C47.2837 160.94 48.3278 159.442 48.6261 157.72C48.9244 155.922 48.3278 154.05 47.0599 152.702C46.8362 152.477 46.4633 152.702 46.3887 153.002C46.3142 153.376 46.3887 153.825 46.6125 154.05Z" fill="black"/>
<path d="M122.161 165.958C122.31 164.535 122.757 163.412 124.622 163.636C126.71 163.861 128.798 163.936 130.886 163.936C136.032 163.861 141.103 163.786 146.249 163.636C147.815 163.561 148.561 164.161 148.71 165.733C148.934 167.98 149.307 170.227 149.307 172.548C149.382 176.517 149.605 180.562 149.754 184.531C149.754 185.13 149.754 185.954 150.649 185.879C151.47 185.804 151.47 185.055 151.47 184.381C151.395 183.333 151.395 182.209 151.321 181.161C151.097 175.694 151.171 170.227 150.202 164.835C149.754 162.363 149.232 161.989 146.771 161.989C141.998 161.989 137.3 162.064 132.527 162.064C130.812 162.064 129.096 162.064 127.381 162.064C126.039 162.064 126.188 160.94 126.188 160.116C126.188 159.517 125.889 158.693 126.784 158.544C127.754 158.394 127.754 159.293 127.978 159.892C128.127 160.341 128.351 160.79 128.873 160.716C129.544 160.641 129.544 160.116 129.544 159.592C129.544 157.87 128.574 156.746 126.934 156.746C125.069 156.671 124.472 157.495 124.398 159.892C124.398 160.716 124.92 162.138 123.354 161.989C121.34 161.839 120.893 162.962 120.594 164.61C119.55 170.976 119.028 177.416 118.804 183.857C118.804 184.531 118.73 185.13 119.55 185.43C119.699 185.43 119.849 185.355 120.072 185.355C120.967 184.007 120.594 182.359 120.669 180.936C120.967 175.843 121.638 170.901 122.161 165.958Z" fill="black"/>
<path d="M88.8959 244.818C86.2857 244.668 84.0483 247.139 84.1229 249.91C84.1975 254.104 87.7027 257.699 91.7299 257.624C94.713 257.549 97.0995 255.228 97.0995 252.007C96.6521 249.91 96.5775 247.364 94.8622 245.342C92.9977 243.245 90.8349 244.893 88.8959 244.818ZM92.0282 255.752C88.2993 255.977 85.4653 253.131 85.9874 248.637C86.2111 246.99 87.7027 246.615 89.2688 246.391C89.2688 247.214 88.7468 247.514 88.3739 247.888C86.5094 250.36 87.4043 253.131 90.3129 254.029C91.5807 254.404 92.9977 253.58 93.4452 252.007C94.0418 249.761 93.8181 247.739 91.5062 246.241C92.9231 245.717 93.5198 246.391 93.9672 247.214C94.8622 248.862 95.2351 250.659 95.2351 252.532C95.3096 254.554 94.0418 255.602 92.0282 255.752Z" fill="white"/>
<path d="M70.4028 211.566C69.8808 211.641 69.3588 211.941 68.9859 211.417C68.3892 210.668 67.7926 209.994 66.8231 210.668C66.0773 211.192 65.2569 211.716 64.5857 212.39C64.1383 212.84 64.5857 213.439 65.0332 213.289C66.4502 212.914 67.718 212.69 68.7621 213.738C69.5825 213.514 70.1791 213.364 70.7757 213.214C71.2978 212.989 71.8944 212.765 71.6707 212.016C71.5215 211.342 70.9249 211.492 70.4028 211.566Z" fill="black"/>
<path d="M147.515 181.76C147.963 177.866 147.515 173.896 147.515 170.002C147.441 166.632 146.769 166.033 143.264 165.883C137.223 165.658 131.183 166.782 125.142 166.632C123.874 166.632 122.681 167.156 122.755 168.879C122.83 173.222 122.755 177.641 122.755 181.985C122.755 183.557 124.321 185.13 125.888 185.355C128.796 185.879 131.705 185.504 133.867 185.579C137.746 185.504 140.878 185.804 144.01 185.28C146.546 184.98 147.217 184.231 147.515 181.76ZM126.41 183.782C124.918 183.707 124.247 183.108 124.321 181.535C124.396 179.588 124.321 177.641 124.321 175.619C124.396 173.597 124.694 171.575 124.396 169.553C124.247 168.729 124.545 168.205 125.515 168.28C129.467 168.504 133.271 167.83 137.223 167.68C139.162 167.606 141.102 167.606 143.041 167.531C144.756 167.531 145.725 168.28 145.725 170.152C145.651 173.896 145.725 177.641 145.725 181.385C145.725 182.883 144.98 183.632 143.563 183.707C137.895 183.857 132.152 184.231 126.41 183.782Z" fill="black"/>
<path d="M59.2909 156.222C57.8739 156.222 56.3824 156.222 54.9654 156.222V156.297C53.4738 156.297 51.9077 156.297 50.4161 156.297C49.8195 156.297 49.2229 156.522 49.1483 157.196C49.0737 157.945 49.7449 158.169 50.3415 158.169C51.311 158.169 52.3551 158.094 53.3247 158.02C55.3383 157.945 57.3519 157.945 59.3655 157.87C59.9621 157.87 60.4842 157.57 60.4842 156.821C60.335 156.072 59.7384 156.222 59.2909 156.222Z" fill="black"/>
<path d="M45.6419 179.214C43.5537 178.54 43.6283 180.337 43.1808 181.535C42.957 182.06 43.1062 182.584 43.7028 182.734C44.2249 182.883 44.4486 182.434 44.6723 182.06C44.8961 181.61 44.8215 180.861 45.4181 180.861C46.2385 180.861 45.9402 181.685 46.0893 182.209C46.1639 182.584 46.3131 182.958 46.7605 183.033C47.1334 183.108 47.4317 182.958 47.5063 182.659C47.8792 181.685 47.8046 180.711 47.3572 179.738C47.0589 178.989 46.4622 178.839 45.6419 179.214Z" fill="black"/>
<path d="M101.725 226.245C100.233 226.245 98.5927 226.919 97.6232 224.972C97.3249 224.298 96.2808 223.998 95.3858 224.223C93.8197 224.597 92.2536 225.197 90.6874 225.721C90.2399 225.871 89.6433 226.17 89.9416 226.769C90.1654 227.368 90.762 227.293 91.284 227.144C92.4027 226.769 93.5214 226.395 94.7146 226.02C95.3858 225.796 96.1316 225.496 96.5045 226.395C97.1757 228.192 98.5927 228.192 99.6368 228.042C100.681 227.967 101.278 228.042 101.8 227.893C102.844 227.593 104.857 228.267 104.708 226.694C104.559 225.346 102.844 226.245 101.725 226.245Z" fill="black"/>
<path d="M70.7744 172.698C69.8049 172.773 68.8354 173.297 67.7913 173.073C66.6726 172.848 65.7031 173.297 64.659 173.447C64.1369 173.522 63.6895 173.821 63.6895 174.421C63.6895 175.095 64.2861 175.244 64.8081 175.169C66.8963 174.87 69.0591 174.57 71.1473 174.271C71.6693 174.196 72.1168 173.821 72.0422 173.222C71.8931 172.623 71.2219 172.623 70.7744 172.698Z" fill="black"/>
<path d="M143.935 170.601C142.667 170.227 140.728 169.852 140.281 171.125C139.535 173.222 137.67 173.821 136.402 175.02C134.985 176.293 131.48 175.993 130.212 174.57C129.541 173.747 128.87 173.747 128.05 174.196C127.155 174.72 126.409 175.469 126.782 176.667C127.08 177.566 127.602 178.39 128.945 178.465C129.168 178.39 129.541 178.315 129.84 178.09C131.107 177.042 132.45 177.192 133.718 177.716C134.687 178.165 135.358 177.94 136.104 177.416C137.372 176.368 138.714 175.394 139.982 174.421C140.504 174.046 140.952 173.522 141.698 173.971C143.338 175.02 143.786 173.672 144.308 172.623C144.83 171.799 144.83 170.826 143.935 170.601Z" fill="black"/>
</g>
<defs>
<clipPath id="clip0_22870_72892">
<rect width="252" height="324" fill="white"/>
</clipPath>
</defs>
</svg>
