<svg width="177" height="162" viewBox="0 0 177 162" fill="none" xmlns="http://www.w3.org/2000/svg">
<g filter="url(#filter0_d_20907_46042)">
<path d="M162.303 66.7917C162.303 83.1205 156.564 97.9728 146.971 109.611C134.894 124.29 116.735 133.583 96.3498 133.583C76.8208 133.583 59.3476 124.985 47.2705 111.348C36.9065 99.5361 30.5681 83.9022 30.5681 66.7917C30.5681 29.8782 60.0328 0 96.4354 0C132.838 0 162.303 29.8782 162.303 66.7917Z" fill="#1897A6"/>
<path d="M147.057 109.612C134.979 124.29 116.821 133.584 96.4355 133.584C76.9066 133.584 59.4333 124.985 47.3562 111.349C49.4119 109.699 51.9815 108.222 55.1506 106.919L57.5489 105.964C62.0885 104.14 67.9986 101.882 75.9644 98.4943C77.7631 97.7126 79.2192 96.3229 79.9901 94.499C80.4183 93.5435 80.6753 92.4144 80.6753 91.2853V76.2594C80.4183 75.9119 80.1614 75.6514 79.9901 75.3039C78.7053 73.3931 77.8487 71.1349 77.5918 68.7029L76.307 68.095C72.4526 69.0504 72.7095 64.8813 71.7674 56.8906C71.3391 53.5901 71.853 52.8953 73.3091 52.3741L74.5083 50.7239C67.1421 33.7871 70.8252 23.1908 78.1057 19.456C75.7074 14.071 75.5361 12.1602 75.5361 12.1602C75.5361 12.1602 91.0393 14.7658 96.4355 13.7236C103.202 12.3339 113.652 13.9841 117.506 23.1039C123.93 25.7096 126.5 29.7918 127.014 34.3083C127.956 41.4304 123.93 49.2474 123.159 52.2873C123.245 52.461 123.331 52.5479 123.331 52.6347C124.358 53.1558 124.701 54.0244 124.358 56.8906C123.416 64.447 123.673 69.1372 119.819 68.095L116.393 74.1748C116.221 74.8697 116.221 75.1302 116.136 75.6514C115.964 76.7805 116.05 79.0387 116.05 91.459C116.05 92.9356 116.478 94.3252 117.249 95.6281C118.106 96.9309 119.305 98.06 120.847 98.668C120.847 98.668 120.932 98.668 121.018 98.7549C129.84 102.49 136.179 104.922 140.804 106.746C143.202 107.527 145.258 108.57 147.057 109.612Z" fill="white"/>
<path d="M123.33 52.2004C123.673 50.2896 122.816 47.9445 122.131 46.2943C122.046 46.0337 121.874 45.7731 121.789 45.4257C118.791 39.3459 112.195 36.9139 105.857 36.5665C89.6687 35.6979 88.2126 38.8247 83.1591 34.1345C84.7008 36.5665 84.8721 40.3013 82.4738 44.9915C80.7608 48.292 77.506 49.7685 74.6794 50.7239C67.3132 33.7871 70.9963 23.1908 78.2768 19.456C75.8785 14.071 75.7072 12.1602 75.7072 12.1602C75.7072 12.1602 91.2105 14.7658 96.521 13.7236C103.288 12.3339 113.737 13.9841 117.592 23.1039C124.016 25.7096 126.5 29.7918 127.099 34.3083C128.041 41.3435 124.101 49.0737 123.33 52.2004Z" fill="#1E210D"/>
<path d="M117.421 95.4545V98.4076H79.9901V94.586C80.4184 93.6306 80.6753 92.5014 80.6753 91.3723V76.2595C80.4184 75.9121 80.1614 75.6515 79.9901 75.3041V74.4355C80.761 75.8252 81.7888 77.1281 83.0736 78.1703L94.8081 86.4216C97.549 88.7667 101.489 88.8535 104.316 86.5953L115.279 76.6069C115.622 76.2595 116.05 75.9121 116.393 75.5647C116.221 76.6938 116.307 78.952 116.307 91.3723C116.221 92.8489 116.65 94.3254 117.421 95.4545Z" fill="url(#paint0_linear_20907_46042)"/>
<path d="M74.5897 141.977L94.1947 110.513C96.3286 107.561 100.796 107.561 102.93 110.513L122.535 141.977C124.602 144.798 122.535 148.8 119.001 148.8H78.1907C74.5897 148.734 72.5225 144.798 74.5897 141.977Z" fill="#9A469B"/>
<path d="M98.5631 118.569C96.695 118.569 95.242 120.234 95.3803 122.189L96.4182 133.919C96.4874 135.077 97.456 136.018 98.5631 136.018C99.6701 136.018 100.639 135.077 100.708 133.919L101.746 122.189C101.884 120.162 100.431 118.569 98.5631 118.569Z" fill="white"/>
<path d="M98.5634 138.19C97.1796 138.19 96.0725 139.348 96.0725 140.796C96.0725 142.245 97.1796 143.403 98.5634 143.403C99.9472 143.403 101.054 142.245 101.054 140.796C101.054 139.348 99.9472 138.19 98.5634 138.19Z" fill="white"/>
<path d="M60.303 39.5598C60.303 45.2176 55.7909 49.793 50.1628 49.793C50.0658 49.793 49.241 49.793 43.1763 49.793C38.9553 49.793 32.2113 49.793 21.4404 49.793H16.2976C9.55366 49.9406 4.16821 44.4796 4.16821 37.887C4.16821 31.2452 9.60217 25.735 16.4431 26.0794C22.3138 7.48238 49.1925 10.0899 51.4728 29.3265C56.5186 29.9661 60.303 34.2955 60.303 39.5598Z" fill="url(#paint1_linear_20907_46042)"/>
<path d="M50.1629 49.7927C55.7424 49.7927 60.303 45.2173 60.303 39.5594C60.303 33.9016 55.7424 29.3262 50.1629 29.3262C44.5834 29.3262 40.0227 33.9016 40.0227 39.5594C40.0227 45.2173 44.5834 49.7927 50.1629 49.7927Z" fill="url(#paint2_linear_20907_46042)"/>
<path d="M33.6183 49.891C43.5644 49.891 51.6669 41.724 51.6669 31.6384C51.6669 21.5527 43.5644 13.3857 33.6183 13.3857C23.6722 13.3857 15.5698 21.5527 15.5698 31.6384C15.5698 41.724 23.6237 49.891 33.6183 49.891Z" fill="url(#paint3_linear_20907_46042)"/>
<path d="M171.903 26.4953C171.903 30.6444 168.594 33.9997 164.467 33.9997C164.396 33.9997 163.791 33.9997 159.343 33.9997C156.248 33.9997 151.303 33.9997 143.404 33.9997H139.632C134.687 34.108 130.738 30.1032 130.738 25.2686C130.738 20.398 134.722 16.3572 139.739 16.6097C144.044 2.97191 163.755 4.88409 165.428 18.9909C169.128 19.4599 171.903 22.6349 171.903 26.4953Z" fill="url(#paint4_linear_20907_46042)"/>
<path d="M164.467 34C168.559 34 171.903 30.6447 171.903 26.4956C171.903 22.3465 168.559 18.9912 164.467 18.9912C160.375 18.9912 157.031 22.3465 157.031 26.4956C157.031 30.6447 160.375 34 164.467 34Z" fill="url(#paint5_linear_20907_46042)"/>
<path d="M152.334 34.0723C159.628 34.0723 165.57 28.0832 165.57 20.687C165.57 13.2908 159.628 7.30176 152.334 7.30176C145.041 7.30176 139.099 13.2908 139.099 20.687C139.099 28.0832 145.005 34.0723 152.334 34.0723Z" fill="url(#paint6_linear_20907_46042)"/>
<path d="M139.878 111.96L136.488 114.886C135.856 115.392 135.003 115.067 134.783 114.235L133.412 106.144" fill="#D42E64"/>
<path d="M172.44 90.5277L170.269 92.6766L147.559 115.331C146.525 116.391 144.882 116.392 143.762 115.471L135.187 107.889L133.466 106.352L128.721 102.072C127.704 101.124 128.11 99.3427 129.465 99.0857L167.582 91.6249L172.44 90.5277Z" fill="#EF437B"/>
<path d="M172.44 90.5275L170.269 92.6764L135.262 107.757L133.439 106.248L167.656 91.493L172.44 90.5275Z" fill="#D42E64"/>
</g>
<defs>
<filter id="filter0_d_20907_46042" x="-1.03174" y="0" width="178.4" height="170" filterUnits="userSpaceOnUse" color-interpolation-filters="sRGB">
<feFlood flood-opacity="0" result="BackgroundImageFix"/>
<feColorMatrix in="SourceAlpha" type="matrix" values="0 0 0 0 0 0 0 0 0 0 0 0 0 0 0 0 0 0 127 0" result="hardAlpha"/>
<feOffset dy="4"/>
<feGaussianBlur stdDeviation="2"/>
<feComposite in2="hardAlpha" operator="out"/>
<feColorMatrix type="matrix" values="0 0 0 0 0 0 0 0 0 0 0 0 0 0 0 0 0 0 0.25 0"/>
<feBlend mode="normal" in2="BackgroundImageFix" result="effect1_dropShadow_20907_46042"/>
<feBlend mode="normal" in="SourceGraphic" in2="effect1_dropShadow_20907_46042" result="shape"/>
</filter>
<linearGradient id="paint0_linear_20907_46042" x1="98.7167" y1="98.5535" x2="98.7167" y2="85.3474" gradientUnits="userSpaceOnUse">
<stop stop-color="white"/>
<stop offset="1" stop-color="#E2E5EC"/>
</linearGradient>
<linearGradient id="paint1_linear_20907_46042" x1="32.2356" y1="28.4582" x2="32.2168" y2="50.188" gradientUnits="userSpaceOnUse">
<stop stop-color="white"/>
<stop offset="0.9964" stop-color="#ECF0F5"/>
</linearGradient>
<linearGradient id="paint2_linear_20907_46042" x1="38.9436" y1="27.123" x2="48.0694" y2="36.9657" gradientUnits="userSpaceOnUse">
<stop stop-color="#BCCBE1"/>
<stop offset="0.9942" stop-color="white" stop-opacity="0"/>
</linearGradient>
<linearGradient id="paint3_linear_20907_46042" x1="13.8798" y1="23.2627" x2="28.0994" y2="28.7503" gradientUnits="userSpaceOnUse">
<stop stop-color="#E2E8F0"/>
<stop offset="0.9942" stop-color="white" stop-opacity="0"/>
</linearGradient>
<linearGradient id="paint4_linear_20907_46042" x1="151.32" y1="18.3542" x2="151.307" y2="34.2894" gradientUnits="userSpaceOnUse">
<stop stop-color="white"/>
<stop offset="0.9964" stop-color="#ECF0F5"/>
</linearGradient>
<linearGradient id="paint5_linear_20907_46042" x1="156.239" y1="17.3755" x2="162.932" y2="24.5935" gradientUnits="userSpaceOnUse">
<stop stop-color="#BCCBE1"/>
<stop offset="0.9942" stop-color="white" stop-opacity="0"/>
</linearGradient>
<linearGradient id="paint6_linear_20907_46042" x1="137.859" y1="14.5449" x2="148.287" y2="18.5691" gradientUnits="userSpaceOnUse">
<stop stop-color="#E2E8F0"/>
<stop offset="0.9942" stop-color="white" stop-opacity="0"/>
</linearGradient>
</defs>
</svg>
