<svg width="20" height="20" viewBox="0 0 20 20" fill="none" xmlns="http://www.w3.org/2000/svg">
<path fill-rule="evenodd" clip-rule="evenodd" d="M10.4698 4.1665C10.4698 3.90762 10.26 3.69775 10.0011 3.69775C9.74222 3.69775 9.53235 3.90762 9.53235 4.1665V9.53111H4.16797C3.90909 9.53111 3.69922 9.74098 3.69922 9.99986C3.69922 10.2587 3.90909 10.4686 4.16797 10.4686H9.53235V15.8332C9.53235 16.0921 9.74222 16.3019 10.0011 16.3019C10.26 16.3019 10.4698 16.0921 10.4698 15.8332V10.4686H15.8346C16.0935 10.4686 16.3034 10.2587 16.3034 9.99986C16.3034 9.74098 16.0935 9.53111 15.8346 9.53111H10.4698V4.1665Z" fill="#121212"/>
</svg>
