<svg width="121" height="80" viewBox="0 0 121 80" fill="none" xmlns="http://www.w3.org/2000/svg">
<path d="M50.5028 0.0739631C51.3121 -0.0574455 52.2758 -0.0762186 52.8953 0.555794C53.5377 1.12732 53.5419 2.05969 53.5773 2.85231C53.5711 11.2687 53.5732 19.6831 53.5773 28.0995C53.5544 28.8462 53.5273 29.6951 52.9849 30.2729C52.0922 31.1344 50.5153 31.1886 49.5996 30.3376C49.1282 29.8662 48.9697 29.1737 48.9947 28.525C49.0197 19.6851 48.9885 10.8474 49.0114 2.00755C48.9572 1.10646 49.6622 0.309664 50.5028 0.0739631Z" fill="#EF437B"/>
<path d="M43.1794 0.925614C44.1118 0.285258 45.4697 0.331148 46.3144 1.09457C46.8297 1.60143 46.9694 2.35859 46.9506 3.05527C46.9423 10.2932 46.9569 17.5311 46.9444 24.769C46.9298 26.592 46.3583 28.6758 44.6708 29.6415C42.5766 30.9014 40.0256 30.9264 37.654 30.9264C36.0375 30.9744 34.4898 30.2193 32.867 30.4863C26.186 31.6398 19.3778 31.3999 12.6259 31.3206C9.64936 31.1141 6.52058 30.7512 3.97585 29.0554C2.17993 27.9353 1.09529 25.9642 0.592596 23.9555C-0.256346 20.8434 -0.0394172 17.5707 0.298491 14.3981C0.47996 13.2551 0.546707 12.0912 0.844983 10.969C1.00977 10.2494 1.65221 9.6257 2.41354 9.6257C3.50027 9.48177 4.54737 10.2264 5 11.1797C5.14809 11.9952 5.06675 12.8358 4.98123 13.6556C4.56823 16.2274 4.10308 18.8681 4.55154 21.4692C4.78933 23.044 5.71127 24.5103 7.09628 25.3196C8.69821 26.2437 10.5838 26.592 12.4194 26.5524C17.7112 26.544 23.003 26.5962 28.2927 26.5002C28.6723 26.494 29.0582 26.4564 29.417 26.325C29.3002 25.4302 28.86 24.6084 28.7829 23.7073C28.6786 22.2117 28.6807 20.5973 29.515 19.2874C30.8082 17.2995 33.5782 16.3922 35.7809 17.2954C38.0566 18.2048 39.5229 20.5389 39.8212 22.9126C39.963 24.0869 39.719 25.2508 39.5292 26.4022C40.4094 26.3521 41.3772 26.2478 42.0259 25.5783C42.4473 25.2258 42.3659 24.6313 42.3993 24.1432C42.3263 17.043 42.3951 9.94066 42.3597 2.84043C42.3513 2.13541 42.5537 1.33027 43.1794 0.925614ZM33.1965 21.7257C32.9859 22.9772 33.2716 24.575 34.5356 25.1465C34.8861 24.8232 35.2553 24.4227 35.274 23.9179C35.3387 23.1274 34.9215 22.4203 34.6274 21.7174C34.1498 21.7215 33.6721 21.7236 33.1965 21.7257Z" fill="#EF437B"/>
<path d="M68.4749 2.13833C70.5002 1.12878 73.1722 1.72116 74.5593 3.515C76.5116 5.93875 77.177 9.08213 77.5712 12.0941C77.7611 13.8128 78.0447 15.5253 78.0322 17.2566C78.0698 17.8844 77.9467 18.5915 78.3472 19.1338C78.7456 19.7846 79.436 20.3749 79.3254 21.2134C79.363 22.198 78.1449 22.5943 78.0343 23.5308C77.6943 26.0839 77.9175 28.6704 77.7673 31.2339C77.7152 31.9764 77.5546 32.8483 76.8475 33.253C76.0173 33.8287 74.8075 33.6785 74.1484 32.913C73.7708 32.5208 73.8417 31.941 73.8105 31.4445C73.8021 28.5389 73.8209 25.6334 73.8626 22.7299C71.0321 22.7069 68.26 23.3723 65.5129 23.9751C64.9769 24.1649 64.1321 24.2463 64.0966 24.968C63.9757 26.524 64.1154 28.0884 64.347 29.6298C64.4387 30.3808 64.5514 31.1901 64.2218 31.9034C63.8025 32.6439 62.8076 32.9401 62.0171 32.6877C61.5227 32.4145 61.2515 31.8784 61.0471 31.3757C60.6905 30.435 60.5006 29.44 60.3484 28.4472C60.2378 27.7338 60.3067 26.9829 60.0397 26.3008C59.7268 25.7189 59.1469 25.3288 58.8466 24.7364C58.4836 23.4766 59.902 22.6527 59.8749 21.4366C59.9375 19.2277 60.0751 17.0021 60.5737 14.8433C61.2328 12.2088 62.1652 9.62862 63.4772 7.24449C64.6703 5.1649 66.2847 3.21255 68.4749 2.13833ZM68.7335 7.03174C67.2797 8.68373 66.2784 10.6799 65.5234 12.7324C64.6536 15.0602 64.1822 17.5257 64.009 20.0016C64.5743 19.9077 65.1417 19.8284 65.6986 19.697C68.3643 18.9732 71.1301 18.6478 73.8856 18.5644C74.0024 15.2187 73.4538 11.8834 72.5715 8.66496C72.3107 7.86399 72.0187 7.0526 71.5077 6.37261C71.2845 6.10562 71.0154 5.75103 70.617 5.8282C69.839 5.90121 69.2487 6.49776 68.7335 7.03174Z" fill="#58C0BF"/>
<path d="M81.5561 2.83041C82.1318 2.74697 82.8222 2.69691 83.279 3.13077C83.8318 3.63972 83.9966 4.41983 84.0299 5.14153C84.0779 8.20356 84.0007 11.2698 84.2281 14.3255C84.2719 15.9108 84.2093 17.5023 84.3387 19.0854C84.5848 21.5259 84.3136 23.9914 84.6515 26.4235C84.7224 28.3153 85.1438 30.1801 85.1146 32.074C85.1626 33.4424 83.4376 34.4915 82.2507 33.799C81.4393 33.4069 81.2349 32.4411 81.0847 31.6381C80.7385 29.4271 80.5215 27.1952 80.5028 24.9571C80.2149 22.4666 80.4047 19.9573 80.24 17.4606C80.0668 15.9358 80.1565 14.3985 80.1315 12.8696C80.0793 10.304 80.1169 7.7405 80.1461 5.17699C80.2066 4.26547 80.5028 3.01605 81.5561 2.83041Z" fill="#58C0BF"/>
<path d="M99.3053 5.0608C100.475 3.96782 102.092 3.22943 103.719 3.42341C105.185 3.63617 106.499 4.52265 107.361 5.71367C108.439 7.09451 108.894 8.82993 109.186 10.5257C109.451 12.1277 109.568 13.7567 109.465 15.3795C109.378 16.1972 109.228 17.1128 108.575 17.6844C107.695 18.4248 106.12 17.9076 105.892 16.7624C105.573 15.3795 105.63 13.9465 105.465 12.5448C105.214 11.139 104.82 9.73937 104.169 8.46283C103.921 7.96014 103.464 7.37818 102.826 7.58051C101.706 8.08946 101.174 9.30134 100.684 10.3547C99.4492 13.1518 99.4888 16.2681 99.4721 19.2654C100.523 19.2613 101.616 19.084 102.643 19.3864C103.969 19.8849 104.082 21.9249 102.97 22.7092C102.054 23.4079 100.847 23.0992 99.7933 23.2911C99.4054 23.5102 99.6035 23.9941 99.614 24.3466C99.8809 26.1133 99.9581 27.9009 100.225 29.6676C100.354 30.5374 100.586 31.3947 100.601 32.277C100.807 33.783 98.813 34.9761 97.5636 34.1438C96.9295 33.8059 96.5436 33.1405 96.4601 32.4376C96.0325 29.751 95.753 27.0436 95.5236 24.3341C95.5319 23.1806 93.8779 22.8406 94.0406 21.6287C93.9696 20.907 94.6183 20.4606 95.0063 19.9475C95.4318 19.5095 95.3275 18.8545 95.3609 18.3018C95.3025 15.7258 95.5382 13.1393 96.1452 10.6342C96.6833 8.54209 97.7722 6.58765 99.3053 5.0608Z" fill="#58C0BF"/>
<path d="M89.4975 13.4478C90.3694 13.1788 91.648 13.5354 91.7502 14.5825C91.9379 20.1309 91.3789 25.7564 92.5261 31.236C92.9308 32.792 91.016 34.4899 89.5642 33.5909C88.8821 33.2885 88.6902 32.5188 88.5442 31.8596C87.6723 27.7422 87.7307 23.51 87.858 19.3279C88.0019 17.899 88.0332 16.4535 88.3315 15.0477C88.4733 14.3906 88.7862 13.646 89.4975 13.4478Z" fill="#58C0BF"/>
<path d="M86.9089 4.12597C87.9247 2.53029 90.3235 2.2779 91.7877 3.3834C92.2925 3.7672 92.7326 4.22817 93.2374 4.61614V4.75172C93.1936 5.80299 93.4397 6.91683 92.9663 7.90553C92.5971 8.8233 91.769 9.53041 90.822 9.79948C89.9355 9.95592 89.0323 9.82451 88.1396 9.84328H87.9998C87.372 9.10907 86.5064 8.45411 86.3541 7.4383C86.2456 6.3182 86.1956 5.07711 86.9089 4.12597Z" fill="#F9A11B"/>
<path d="M25.2143 9.96767C26.4721 9.5651 27.9134 9.87172 28.8353 10.8396C29.4131 11.1545 29.1461 11.9889 29.6822 12.3142C30.1911 13.7326 29.8386 15.5598 28.5162 16.4129C27.492 17.1951 26.1404 16.8906 24.9556 17.118L24.8305 17.1326C24.3111 16.269 23.312 15.7538 22.997 14.7651C22.8698 14.0726 22.8865 13.3613 22.9553 12.6647C23.143 11.4361 24.1004 10.4495 25.2143 9.96767Z" fill="#F9A11B"/>
<path d="M91.2424 36.8018C91.9495 36.3951 92.7985 36.4764 93.5807 36.5182C94.659 36.6141 95.2994 37.6007 96.1317 38.1701C96.165 39.2715 96.2276 40.3749 96.1546 41.4783C95.7791 42.49 94.8447 43.2367 93.8185 43.5162C92.932 43.7748 92.0038 43.5913 91.1256 43.3952C90.0952 42.5713 89.1086 41.4095 89.3172 39.989C89.2025 38.6353 90.0952 37.4213 91.2424 36.8018Z" fill="#F9A11B"/>
<path d="M34.2958 69.1277C34.7735 68.4539 35.4869 67.9679 36.2419 67.6572C36.9887 67.5049 37.7688 67.532 38.5176 67.6592C39.5689 67.9992 40.1967 68.9838 41.0749 69.5991L41.0623 69.7138C40.9309 70.5669 40.9893 71.4325 40.8976 72.2898C40.6765 73.5351 39.7045 74.6531 38.4592 74.9514C37.6061 75.185 36.7133 75.1141 35.8415 75.0744C34.9508 74.2818 33.9454 73.3786 33.8015 72.1209C33.7055 71.1072 33.7264 70.01 34.2958 69.1277Z" fill="#F9A11B"/>
<path d="M26.154 72.9357C26.6775 71.8573 27.6162 70.7998 28.8865 70.7017C29.7187 70.6642 30.649 70.5828 31.3644 71.1022C31.8692 71.4464 32.326 71.8719 32.6973 72.3641C33.2751 73.5906 33.3981 75.0987 32.7515 76.3252C32.3219 77.2555 31.4082 77.8958 30.4279 78.1357C29.5685 78.3338 28.6862 78.1607 27.8331 78.0105C27.1448 77.2784 26.2416 76.6422 26.0163 75.5993C25.8536 74.7232 25.8369 73.7804 26.154 72.9357Z" fill="#F9A11B"/>
<path d="M92.9653 7.90381C93.4388 6.91511 93.1927 5.80127 93.2365 4.75C94.876 6.05991 95.0303 8.84661 93.4659 10.2671C92.0184 11.7063 89.3631 11.4623 88.1387 9.84156C89.0314 9.82279 89.9346 9.9542 90.8211 9.79776C91.768 9.52868 92.5961 8.82158 92.9653 7.90381Z" fill="#040404"/>
<path d="M29.6816 12.3125C29.6378 12.1706 29.5523 11.889 29.5106 11.7472C30.4742 12.2123 31.1417 13.2386 31.1292 14.3149C31.1334 15.0408 31.2064 15.825 30.833 16.4842C30.2636 17.5438 29.1122 18.3823 27.8648 18.2467C26.7656 18.376 25.6664 17.9714 24.9551 17.1162C26.1398 16.8888 27.4915 17.1933 28.5156 16.4112C29.8381 15.558 30.1906 13.7308 29.6816 12.3125Z" fill="#040404"/>
<path d="M96.3477 38.5872C96.6126 38.8479 96.8796 39.1086 97.1341 39.3819C97.8266 40.5645 97.8433 42.154 97.107 43.3241C96.4708 44.3837 95.2026 45.0116 93.9719 44.8864C92.8268 44.9699 91.8026 44.269 91.1289 43.395C92.007 43.5911 92.9353 43.7747 93.8217 43.516C94.848 43.2365 95.7824 42.4898 96.1579 41.4782C96.452 40.5416 96.3873 39.5529 96.3477 38.5872Z" fill="#040404"/>
<path d="M41.0607 69.7131C41.8659 70.5016 42.4416 71.5758 42.3394 72.7334C42.4499 74.2561 41.4195 75.7392 39.9949 76.246C38.5348 76.7091 36.7868 76.3524 35.8398 75.0738C36.7117 75.1134 37.6045 75.1843 38.4576 74.9507C39.7028 74.6524 40.6748 73.5344 40.8959 72.2892C40.9877 71.4319 40.9293 70.5662 41.0607 69.7131Z" fill="#040404"/>
<path d="M32.6943 72.3635C33.4494 73.0373 34.2399 73.8007 34.4214 74.8436C34.4839 75.8052 34.607 76.8585 34.0543 77.7116C33.4681 78.9173 32.104 79.6473 30.7795 79.5326C29.5926 79.6327 28.5476 78.8839 27.8301 78.0099C28.6832 78.1601 29.5655 78.3332 30.4249 78.1351C31.4052 77.8952 32.3188 77.2548 32.7485 76.3246C33.3951 75.0981 33.2721 73.59 32.6943 72.3635Z" fill="#040404"/>
<path d="M110.35 19.1619C111.508 19.1119 113.105 19.529 113.399 20.8327C112.874 24.145 111.833 27.3551 111.136 30.6362C111.053 31.2745 110.458 31.6624 109.881 31.8084C109.009 32.0379 108.074 31.8084 107.309 31.3704C106.746 31.0429 106.46 30.34 106.583 29.7101C107.1 27.3531 107.688 25.0127 108.272 22.6724C108.5 21.7943 108.529 20.8556 108.904 20.0213C109.188 19.4977 109.801 19.2808 110.35 19.1619Z" fill="#C2D52E"/>
<path d="M116.726 19.8398C117.7 19.7939 118.899 19.5582 119.657 20.3425C119.898 20.5803 120.176 20.8556 120.172 21.2248C120.245 22.3783 119.771 23.465 119.523 24.5705C119.095 26.4749 118.618 28.3667 118.176 30.267C118.015 30.9094 117.794 31.6624 117.106 31.9169C115.931 32.1776 114.461 32.09 113.72 30.9991C113.516 30.1105 113.67 29.1865 113.904 28.3188C114.54 25.9931 115.028 23.6298 115.65 21.2999C115.852 20.743 116.04 19.9483 116.726 19.8398Z" fill="#C2D52E"/>
<path d="M0.313961 40.1918C1.17542 39.2302 2.63551 39.0488 3.83696 39.3429C4.41892 39.5077 4.57953 40.1605 4.72762 40.6695C5.22405 42.8325 5.79766 44.9788 6.27324 47.146C6.41507 47.7551 6.21066 48.3621 5.98956 48.9232C5.10933 49.1631 4.23327 49.6428 3.29256 49.4613C2.75232 49.3383 2.16828 49.0233 2.00767 48.4539C1.34646 46.5766 1.13161 44.5763 0.49543 42.6907C0.245128 41.898 0.013598 40.9907 0.313961 40.1918Z" fill="#C2D52E"/>
<path d="M9.3437 39.2245C10.1488 39.1411 11.1146 39.4415 11.3148 40.328C11.8551 42.3825 12.3828 44.4475 12.8896 46.5125C12.9752 47.2488 13.2088 48.1603 12.6852 48.7777C11.8405 49.2888 10.808 49.6601 9.8151 49.4181C9.30616 49.2116 8.7096 48.9217 8.59697 48.323C8.13391 46.5897 7.84815 44.8084 7.3246 43.0875C7.07847 42.2073 6.71136 41.2916 6.9262 40.3655C7.40595 39.5416 8.44887 39.2579 9.3437 39.2245Z" fill="#C2D52E"/>
<path d="M49.2727 34.8811C50.1592 33.3105 53.0898 33.5545 53.4423 35.4172C53.7239 36.9211 53.5341 38.4667 53.4507 39.981C53.4799 46.0988 53.3756 52.2166 53.3943 58.3344C53.3985 59.586 53.0836 60.9021 52.2388 61.8595C51.3794 62.746 50.1717 63.184 48.9849 63.4281C46.9929 63.8015 44.9362 64.0747 42.9171 63.7577C41.4612 63.4907 40.2618 62.5645 39.3253 61.4611C37.5356 63.474 34.7635 64.0413 32.2042 64.3083C30.2748 64.5482 28.1159 64.6441 26.4285 63.5136C25.8966 63.1423 25.4877 62.6292 25.0622 62.1474C23.4144 63.7472 21.2493 65.005 18.8839 64.9236C15.3839 64.9737 12.4282 62.7919 9.75 60.7937C8.60487 59.9531 7.31164 58.8121 5.78271 59.1354C4.53329 59.8675 4.85659 61.6092 3.97219 62.6104C2.79577 63.5783 0.751637 63.0401 0.209315 61.6051C-0.116077 60.9418 0.200972 60.2201 0.309436 59.5463C0.851757 57.5084 2.08241 55.4017 4.19121 54.703C6.19571 54.0793 8.37959 54.6091 10.1567 55.6395C12.3844 56.7805 14.1032 58.7016 16.3663 59.782C18.0913 60.6518 20.148 60.4641 21.9314 59.8821C22.8909 59.5943 23.527 58.7078 23.7544 57.7671C24.2967 56.113 23.7627 54.3922 23.7794 52.7089C23.7148 48.4621 23.7502 44.2174 23.8086 39.9727C23.8149 38.9631 24.1924 37.7805 25.2395 37.4196C26.4514 36.8585 28.2578 37.5156 28.3996 38.9527C28.4517 40.7549 28.3287 42.5633 28.3474 44.3676C28.1597 46.5869 28.1159 48.8292 28.3454 51.0486C28.3746 53.4682 28.4663 55.8961 28.8168 58.2927C28.9315 59.3419 29.9974 59.9239 30.9694 59.9259C32.636 60.0219 34.5946 59.9072 35.7543 58.5326C36.5803 57.2519 36.791 55.6687 36.768 54.1711C36.8327 53.1115 36.8035 51.8328 37.7484 51.1278C38.7266 50.2351 40.7103 50.2121 41.213 51.6284C41.7657 53.6058 41.9368 55.6917 42.6939 57.6148C42.9609 58.2927 43.4177 58.9581 44.1457 59.1855C45.4389 59.6444 46.972 59.588 48.1589 58.858C48.6157 58.5785 48.7742 58.0049 48.795 57.5001C48.8138 51.9413 48.8347 46.3804 48.8493 40.8196C48.7867 39.5618 49.0558 38.3207 49.0036 37.065C49.0349 36.3371 48.868 35.534 49.2727 34.8811Z" fill="#1897A6"/>
<path d="M58.0756 36.9531C58.3008 35.7349 59.98 35.0696 60.9269 35.9206C61.7112 36.4462 61.9302 37.4599 61.7592 38.3423C61.1084 41.7985 61.5131 45.3319 61.2315 48.8216C61.0709 53.0308 61.0875 57.2442 61.0542 61.4556C63.4279 59.8745 66.006 58.6188 68.6675 57.6072C69.6792 57.2547 70.7534 56.8271 71.8401 57.0649C73.1709 57.3715 73.6548 59.2759 72.6953 60.2249C71.8192 61.0613 70.5677 61.2804 69.4831 61.7309C66.6296 62.7488 64.0494 64.357 61.4839 65.9381C60.4868 66.5951 58.839 66.7557 58.0902 65.6565C57.4957 64.624 57.3393 63.4058 57.1891 62.2419C57.0598 57.0461 57.089 51.844 57.2183 46.646C57.4185 45.2631 57.3706 43.8656 57.431 42.4743C57.6688 40.6367 57.6209 38.7573 58.0756 36.9531Z" fill="#9A469B"/>
<path d="M100.718 38.0464C101.592 38.0193 102.374 38.741 102.568 39.5712C102.808 40.5953 102.669 41.657 102.717 42.6978C102.896 45.8913 102.76 49.0952 102.99 52.2865C103.046 53.7821 102.996 55.2818 103.111 56.7753C103.355 58.6859 103.1 60.6216 103.397 62.528C103.509 64.1925 103.855 65.8445 103.822 67.5174C103.805 68.942 101.964 69.8243 100.795 69.0713C100.184 68.7001 99.9736 67.9638 99.8464 67.3067C99.6086 66.0531 99.5418 64.7787 99.3666 63.5167C99.2853 61.022 99.0016 58.5399 99.06 56.0389C98.7805 52.9227 98.9328 49.7877 98.8306 46.661C98.7909 44.8484 98.8806 43.0378 98.8556 41.2252C98.8598 40.4639 98.866 39.6567 99.2603 38.9788C99.5544 38.449 100.143 38.1549 100.718 38.0464Z" fill="#9A469B"/>
<path d="M80.673 38.9857C82.3521 38.1847 84.5026 38.0491 86.0899 39.14C87.4165 40.0036 88.2029 41.4658 88.6931 42.9321C89.5691 45.5373 89.5066 48.324 89.4836 51.0377C89.5045 53.6826 89.227 56.317 89.202 58.9619C89.0101 60.9497 89.2646 62.9771 88.8412 64.942C88.4303 66.1831 86.6948 66.6044 85.7124 65.7722C84.9239 65.1423 85.1075 64.0138 84.9427 63.1294C82.3604 63.9804 79.6154 64.7626 76.8767 64.31C75.6419 64.116 74.3403 63.4903 73.8251 62.2846C73.337 61.2396 73.4622 60.0444 73.8022 58.9786C74.7158 55.9103 77.1229 53.3489 80.0702 52.1391C81.7847 51.409 83.7204 51.4028 85.5121 51.8241C85.4955 50.6498 85.5226 49.4754 85.3828 48.3094C85.3203 46.5094 85.339 44.5487 84.3149 42.9843C83.8789 42.2709 82.9382 42.3397 82.2979 42.711C80.3392 43.7227 79.0919 45.7021 78.2346 47.667C77.8362 48.4408 78.2388 49.3169 78.0093 50.1179C77.2876 51.5279 74.8305 51.3736 74.3841 49.8196C74.0191 48.0529 74.6177 46.2611 75.377 44.6821C76.5034 42.3105 78.2763 40.1454 80.673 38.9857ZM80.8982 56.1063C79.3255 57.0596 78.0198 58.6031 77.661 60.4407C79.5153 60.7223 81.2883 60.0132 83.0362 59.5146C83.7225 59.2914 84.44 59.1392 85.0783 58.7888C85.2055 58.0545 85.2076 57.2995 85.1242 56.5611C85.0533 55.879 84.3774 55.4556 83.7642 55.32C82.7463 55.1761 81.7597 55.6099 80.8982 56.1063Z" fill="#9A469B"/>
<path d="M96.1289 38.1685C96.5252 38.5168 96.8548 38.9298 97.128 39.3803C96.8736 39.1071 96.6066 38.8464 96.3417 38.5856C96.3813 39.5514 96.446 40.5401 96.1518 41.4766C96.2249 40.3732 96.1623 39.2698 96.1289 38.1685Z" fill="#9A469B"/>
<path d="M114.068 40.1859C115.903 39.8147 117.827 40.697 118.924 42.1758C120.319 44.0552 120.816 46.4393 120.97 48.7338C121.033 51.4516 120.987 54.1716 120.949 56.8894C120.617 60.0099 120.784 63.1658 120.471 66.2883C120.411 67.6858 118.642 68.5264 117.497 67.7484C116.471 67.2415 116.583 65.9399 116.546 64.9784C114.404 65.5061 112.28 66.3154 110.038 66.2007C108.497 66.2862 106.795 65.9337 105.75 64.7135C104.876 63.6956 104.98 62.2313 105.266 61.0111C106.188 57.6237 108.941 54.8203 112.253 53.7064C113.797 53.1954 115.449 53.4186 117.038 53.5229C117.013 52.1253 117.057 50.7237 116.88 49.3345C116.836 47.7951 116.74 46.1515 115.887 44.8207C115.474 44.0302 114.406 44.1491 113.743 44.5308C112.389 45.2942 111.367 46.5353 110.585 47.8577C110.044 48.7567 109.512 49.7412 109.571 50.8259C109.535 51.3181 109.663 51.9272 109.235 52.2901C108.584 53.0056 107.422 52.991 106.621 52.5571C105.772 52.019 105.718 50.8843 105.808 49.9853C106.079 47.8348 107.118 45.8595 108.338 44.0969C109.759 42.2384 111.703 40.6031 114.068 40.1859ZM113.229 57.4797C111.394 58.3579 109.827 59.9577 109.22 61.9205C109.291 61.9935 109.429 62.1374 109.498 62.2104C110.572 62.3856 111.665 62.1938 112.691 61.8663C114.03 61.5138 115.336 61.0486 116.654 60.6252C116.769 59.5823 117.063 58.239 116.11 57.486C115.261 56.9291 114.114 57.0897 113.229 57.4797Z" fill="#9A469B"/>
<path d="M93.4818 47.0383C94.2202 46.7797 95.2464 46.9173 95.6448 47.6703C96.0265 48.5297 95.9201 49.4975 95.9327 50.4132C95.9327 53.6046 95.9014 56.7959 95.9619 59.9873C96.087 61.6831 96.3936 63.3601 96.6293 65.0434C96.7879 66.0634 96.0328 67.0249 95.1004 67.3462C94.1326 67.584 93.0333 66.9811 92.7955 65.9925C92.1614 63.7126 92.0738 61.3243 91.8527 58.9798C91.7151 55.8072 91.836 52.6221 92.2741 49.4767C92.4055 48.5756 92.5661 47.4826 93.4818 47.0383Z" fill="#9A469B"/>
<path d="M50.5028 0.0739631C51.3121 -0.0574455 52.2758 -0.0762186 52.8953 0.555794C53.5377 1.12732 53.5419 2.05969 53.5773 2.85231C53.5711 11.2687 53.5732 19.6831 53.5773 28.0995C53.5544 28.8462 53.5273 29.6951 52.9849 30.2729C52.0922 31.1344 50.5153 31.1886 49.5996 30.3376C49.1282 29.8662 48.9697 29.1737 48.9947 28.525C49.0197 19.6851 48.9885 10.8474 49.0114 2.00755C48.9572 1.10646 49.6622 0.309664 50.5028 0.0739631Z" fill="#EF437B"/>
<path d="M43.1794 0.925614C44.1118 0.285258 45.4697 0.331148 46.3144 1.09457C46.8297 1.60143 46.9694 2.35859 46.9506 3.05527C46.9423 10.2932 46.9569 17.5311 46.9444 24.769C46.9298 26.592 46.3583 28.6758 44.6708 29.6415C42.5766 30.9014 40.0256 30.9264 37.654 30.9264C36.0375 30.9744 34.4898 30.2193 32.867 30.4863C26.186 31.6398 19.3778 31.3999 12.6259 31.3206C9.64936 31.1141 6.52058 30.7512 3.97585 29.0554C2.17993 27.9353 1.09529 25.9642 0.592596 23.9555C-0.256346 20.8434 -0.0394172 17.5707 0.298491 14.3981C0.47996 13.2551 0.546707 12.0912 0.844983 10.969C1.00977 10.2494 1.65221 9.6257 2.41354 9.6257C3.50027 9.48177 4.54737 10.2264 5 11.1797C5.14809 11.9952 5.06675 12.8358 4.98123 13.6556C4.56823 16.2274 4.10308 18.8681 4.55154 21.4692C4.78933 23.044 5.71127 24.5103 7.09628 25.3196C8.69821 26.2437 10.5838 26.592 12.4194 26.5524C17.7112 26.544 23.003 26.5962 28.2927 26.5002C28.6723 26.494 29.0582 26.4564 29.417 26.325C29.3002 25.4302 28.86 24.6084 28.7829 23.7073C28.6786 22.2117 28.6807 20.5973 29.515 19.2874C30.8082 17.2995 33.5782 16.3922 35.7809 17.2954C38.0566 18.2048 39.5229 20.5389 39.8212 22.9126C39.963 24.0869 39.719 25.2508 39.5292 26.4022C40.4094 26.3521 41.3772 26.2478 42.0259 25.5783C42.4473 25.2258 42.3659 24.6313 42.3993 24.1432C42.3263 17.043 42.3951 9.94066 42.3597 2.84043C42.3513 2.13541 42.5537 1.33027 43.1794 0.925614ZM33.1965 21.7257C32.9859 22.9772 33.2716 24.575 34.5356 25.1465C34.8861 24.8232 35.2553 24.4227 35.274 23.9179C35.3387 23.1274 34.9215 22.4203 34.6274 21.7174C34.1498 21.7215 33.6721 21.7236 33.1965 21.7257Z" fill="#EF437B"/>
<path d="M68.4749 2.13833C70.5002 1.12878 73.1722 1.72116 74.5593 3.515C76.5116 5.93875 77.177 9.08213 77.5712 12.0941C77.7611 13.8128 78.0447 15.5253 78.0322 17.2566C78.0698 17.8844 77.9467 18.5915 78.3472 19.1338C78.7456 19.7846 79.436 20.3749 79.3254 21.2134C79.363 22.198 78.1449 22.5943 78.0343 23.5308C77.6943 26.0839 77.9175 28.6704 77.7673 31.2339C77.7152 31.9764 77.5546 32.8483 76.8475 33.253C76.0173 33.8287 74.8075 33.6785 74.1484 32.913C73.7708 32.5208 73.8417 31.941 73.8105 31.4445C73.8021 28.5389 73.8209 25.6334 73.8626 22.7299C71.0321 22.7069 68.26 23.3723 65.5129 23.9751C64.9769 24.1649 64.1321 24.2463 64.0966 24.968C63.9757 26.524 64.1154 28.0884 64.347 29.6298C64.4387 30.3808 64.5514 31.1901 64.2218 31.9034C63.8025 32.6439 62.8076 32.9401 62.0171 32.6877C61.5227 32.4145 61.2515 31.8784 61.0471 31.3757C60.6905 30.435 60.5006 29.44 60.3484 28.4472C60.2378 27.7338 60.3067 26.9829 60.0397 26.3008C59.7268 25.7189 59.1469 25.3288 58.8466 24.7364C58.4836 23.4766 59.902 22.6527 59.8749 21.4366C59.9375 19.2277 60.0751 17.0021 60.5737 14.8433C61.2328 12.2088 62.1652 9.62862 63.4772 7.24449C64.6703 5.1649 66.2847 3.21255 68.4749 2.13833ZM68.7335 7.03174C67.2797 8.68373 66.2784 10.6799 65.5234 12.7324C64.6536 15.0602 64.1822 17.5257 64.009 20.0016C64.5743 19.9077 65.1417 19.8284 65.6986 19.697C68.3643 18.9732 71.1301 18.6478 73.8856 18.5644C74.0024 15.2187 73.4538 11.8834 72.5715 8.66496C72.3107 7.86399 72.0187 7.0526 71.5077 6.37261C71.2845 6.10562 71.0154 5.75103 70.617 5.8282C69.839 5.90121 69.2487 6.49776 68.7335 7.03174Z" fill="#58C0BF"/>
<path d="M81.5561 2.83041C82.1318 2.74697 82.8222 2.69691 83.279 3.13077C83.8318 3.63972 83.9966 4.41983 84.0299 5.14153C84.0779 8.20356 84.0007 11.2698 84.2281 14.3255C84.2719 15.9108 84.2093 17.5023 84.3387 19.0854C84.5848 21.5259 84.3136 23.9914 84.6515 26.4235C84.7224 28.3153 85.1438 30.1801 85.1146 32.074C85.1626 33.4424 83.4376 34.4915 82.2507 33.799C81.4393 33.4069 81.2349 32.4411 81.0847 31.6381C80.7385 29.4271 80.5215 27.1952 80.5028 24.9571C80.2149 22.4666 80.4047 19.9573 80.24 17.4606C80.0668 15.9358 80.1565 14.3985 80.1315 12.8696C80.0793 10.304 80.1169 7.7405 80.1461 5.17699C80.2066 4.26547 80.5028 3.01605 81.5561 2.83041Z" fill="#58C0BF"/>
<path d="M99.3053 5.0608C100.475 3.96782 102.092 3.22943 103.719 3.42341C105.185 3.63617 106.499 4.52265 107.361 5.71367C108.439 7.09451 108.894 8.82993 109.186 10.5257C109.451 12.1277 109.568 13.7567 109.465 15.3795C109.378 16.1972 109.228 17.1128 108.575 17.6844C107.695 18.4248 106.12 17.9076 105.892 16.7624C105.573 15.3795 105.63 13.9465 105.465 12.5448C105.214 11.139 104.82 9.73937 104.169 8.46283C103.921 7.96014 103.464 7.37818 102.826 7.58051C101.706 8.08946 101.174 9.30134 100.684 10.3547C99.4492 13.1518 99.4888 16.2681 99.4721 19.2654C100.523 19.2613 101.616 19.084 102.643 19.3864C103.969 19.8849 104.082 21.9249 102.97 22.7092C102.054 23.4079 100.847 23.0992 99.7933 23.2911C99.4054 23.5102 99.6035 23.9941 99.614 24.3466C99.8809 26.1133 99.9581 27.9009 100.225 29.6676C100.354 30.5374 100.586 31.3947 100.601 32.277C100.807 33.783 98.813 34.9761 97.5636 34.1438C96.9295 33.8059 96.5436 33.1405 96.4601 32.4376C96.0325 29.751 95.753 27.0436 95.5236 24.3341C95.5319 23.1806 93.8779 22.8406 94.0406 21.6287C93.9696 20.907 94.6183 20.4606 95.0063 19.9475C95.4318 19.5095 95.3275 18.8545 95.3609 18.3018C95.3025 15.7258 95.5382 13.1393 96.1452 10.6342C96.6833 8.54209 97.7722 6.58765 99.3053 5.0608Z" fill="#58C0BF"/>
<path d="M89.4975 13.4478C90.3694 13.1788 91.648 13.5354 91.7502 14.5825C91.9379 20.1309 91.3789 25.7564 92.5261 31.236C92.9308 32.792 91.016 34.4899 89.5642 33.5909C88.8821 33.2885 88.6902 32.5188 88.5442 31.8596C87.6723 27.7422 87.7307 23.51 87.858 19.3279C88.0019 17.899 88.0332 16.4535 88.3315 15.0477C88.4733 14.3906 88.7862 13.646 89.4975 13.4478Z" fill="#58C0BF"/>
<path d="M86.9089 4.12597C87.9247 2.53029 90.3235 2.2779 91.7877 3.3834C92.2925 3.7672 92.7326 4.22817 93.2374 4.61614V4.75172C93.1936 5.80299 93.4397 6.91683 92.9663 7.90553C92.5971 8.8233 91.769 9.53041 90.822 9.79948C89.9355 9.95592 89.0323 9.82451 88.1396 9.84328H87.9998C87.372 9.10907 86.5064 8.45411 86.3541 7.4383C86.2456 6.3182 86.1956 5.07711 86.9089 4.12597Z" fill="#F9A11B"/>
<path d="M25.2143 9.96767C26.4721 9.5651 27.9134 9.87172 28.8353 10.8396C29.4131 11.1545 29.1461 11.9889 29.6822 12.3142C30.1911 13.7326 29.8386 15.5598 28.5162 16.4129C27.492 17.1951 26.1404 16.8906 24.9556 17.118L24.8305 17.1326C24.3111 16.269 23.312 15.7538 22.997 14.7651C22.8698 14.0726 22.8865 13.3613 22.9553 12.6647C23.143 11.4361 24.1004 10.4495 25.2143 9.96767Z" fill="#F9A11B"/>
<path d="M91.2424 36.8018C91.9495 36.3951 92.7985 36.4764 93.5807 36.5182C94.659 36.6141 95.2994 37.6007 96.1317 38.1701C96.165 39.2715 96.2276 40.3749 96.1546 41.4783C95.7791 42.49 94.8447 43.2367 93.8185 43.5162C92.932 43.7748 92.0038 43.5913 91.1256 43.3952C90.0952 42.5713 89.1086 41.4095 89.3172 39.989C89.2025 38.6353 90.0952 37.4213 91.2424 36.8018Z" fill="#F9A11B"/>
<path d="M34.2958 69.1277C34.7735 68.4539 35.4869 67.9679 36.2419 67.6572C36.9887 67.5049 37.7688 67.532 38.5176 67.6592C39.5689 67.9992 40.1967 68.9838 41.0749 69.5991L41.0623 69.7138C40.9309 70.5669 40.9893 71.4325 40.8976 72.2898C40.6765 73.5351 39.7045 74.6531 38.4592 74.9514C37.6061 75.185 36.7133 75.1141 35.8415 75.0744C34.9508 74.2818 33.9454 73.3786 33.8015 72.1209C33.7055 71.1072 33.7264 70.01 34.2958 69.1277Z" fill="#F9A11B"/>
<path d="M26.154 72.9357C26.6775 71.8573 27.6162 70.7998 28.8865 70.7017C29.7187 70.6642 30.649 70.5828 31.3644 71.1022C31.8692 71.4464 32.326 71.8719 32.6973 72.3641C33.2751 73.5906 33.3981 75.0987 32.7515 76.3252C32.3219 77.2555 31.4082 77.8958 30.4279 78.1357C29.5685 78.3338 28.6862 78.1607 27.8331 78.0105C27.1448 77.2784 26.2416 76.6422 26.0163 75.5993C25.8536 74.7232 25.8369 73.7804 26.154 72.9357Z" fill="#F9A11B"/>
<path d="M92.9653 7.90381C93.4388 6.91511 93.1927 5.80127 93.2365 4.75C94.876 6.05991 95.0303 8.84661 93.4659 10.2671C92.0184 11.7063 89.3631 11.4623 88.1387 9.84156C89.0314 9.82279 89.9346 9.9542 90.8211 9.79776C91.768 9.52868 92.5961 8.82158 92.9653 7.90381Z" fill="#040404"/>
<path d="M29.6816 12.3125C29.6378 12.1706 29.5523 11.889 29.5106 11.7472C30.4742 12.2123 31.1417 13.2386 31.1292 14.3149C31.1334 15.0408 31.2064 15.825 30.833 16.4842C30.2636 17.5438 29.1122 18.3823 27.8648 18.2467C26.7656 18.376 25.6664 17.9714 24.9551 17.1162C26.1398 16.8888 27.4915 17.1933 28.5156 16.4112C29.8381 15.558 30.1906 13.7308 29.6816 12.3125Z" fill="#040404"/>
<path d="M96.3477 38.5872C96.6126 38.8479 96.8796 39.1086 97.1341 39.3819C97.8266 40.5645 97.8433 42.154 97.107 43.3241C96.4708 44.3837 95.2026 45.0116 93.9719 44.8864C92.8268 44.9699 91.8026 44.269 91.1289 43.395C92.007 43.5911 92.9353 43.7747 93.8217 43.516C94.848 43.2365 95.7824 42.4898 96.1579 41.4782C96.452 40.5416 96.3873 39.5529 96.3477 38.5872Z" fill="#040404"/>
<path d="M41.0607 69.7131C41.8659 70.5016 42.4416 71.5758 42.3394 72.7334C42.4499 74.2561 41.4195 75.7392 39.9949 76.246C38.5348 76.7091 36.7868 76.3524 35.8398 75.0738C36.7117 75.1134 37.6045 75.1843 38.4576 74.9507C39.7028 74.6524 40.6748 73.5344 40.8959 72.2892C40.9877 71.4319 40.9293 70.5662 41.0607 69.7131Z" fill="#040404"/>
<path d="M32.6943 72.3635C33.4494 73.0373 34.2399 73.8007 34.4214 74.8436C34.4839 75.8052 34.607 76.8585 34.0543 77.7116C33.4681 78.9173 32.104 79.6473 30.7795 79.5326C29.5926 79.6327 28.5476 78.8839 27.8301 78.0099C28.6832 78.1601 29.5655 78.3332 30.4249 78.1351C31.4052 77.8952 32.3188 77.2548 32.7485 76.3246C33.3951 75.0981 33.2721 73.59 32.6943 72.3635Z" fill="#040404"/>
<path d="M110.35 19.1619C111.508 19.1119 113.105 19.529 113.399 20.8327C112.874 24.145 111.833 27.3551 111.136 30.6362C111.053 31.2745 110.458 31.6624 109.881 31.8084C109.009 32.0379 108.074 31.8084 107.309 31.3704C106.746 31.0429 106.46 30.34 106.583 29.7101C107.1 27.3531 107.688 25.0127 108.272 22.6724C108.5 21.7943 108.529 20.8556 108.904 20.0213C109.188 19.4977 109.801 19.2808 110.35 19.1619Z" fill="#C2D52E"/>
<path d="M116.726 19.8398C117.7 19.7939 118.899 19.5582 119.657 20.3425C119.898 20.5803 120.176 20.8556 120.172 21.2248C120.245 22.3783 119.771 23.465 119.523 24.5705C119.095 26.4749 118.618 28.3667 118.176 30.267C118.015 30.9094 117.794 31.6624 117.106 31.9169C115.931 32.1776 114.461 32.09 113.72 30.9991C113.516 30.1105 113.67 29.1865 113.904 28.3188C114.54 25.9931 115.028 23.6298 115.65 21.2999C115.852 20.743 116.04 19.9483 116.726 19.8398Z" fill="#C2D52E"/>
<path d="M0.313961 40.1918C1.17542 39.2302 2.63551 39.0488 3.83696 39.3429C4.41892 39.5077 4.57953 40.1605 4.72762 40.6695C5.22405 42.8325 5.79766 44.9788 6.27324 47.146C6.41507 47.7551 6.21066 48.3621 5.98956 48.9232C5.10933 49.1631 4.23327 49.6428 3.29256 49.4613C2.75232 49.3383 2.16828 49.0233 2.00767 48.4539C1.34646 46.5766 1.13161 44.5763 0.49543 42.6907C0.245128 41.898 0.013598 40.9907 0.313961 40.1918Z" fill="#C2D52E"/>
<path d="M9.3437 39.2245C10.1488 39.1411 11.1146 39.4415 11.3148 40.328C11.8551 42.3825 12.3828 44.4475 12.8896 46.5125C12.9752 47.2488 13.2088 48.1603 12.6852 48.7777C11.8405 49.2888 10.808 49.6601 9.8151 49.4181C9.30616 49.2116 8.7096 48.9217 8.59697 48.323C8.13391 46.5897 7.84815 44.8084 7.3246 43.0875C7.07847 42.2073 6.71136 41.2916 6.9262 40.3655C7.40595 39.5416 8.44887 39.2579 9.3437 39.2245Z" fill="#C2D52E"/>
<path d="M49.2727 34.8811C50.1592 33.3105 53.0898 33.5545 53.4423 35.4172C53.7239 36.9211 53.5341 38.4667 53.4507 39.981C53.4799 46.0988 53.3756 52.2166 53.3943 58.3344C53.3985 59.586 53.0836 60.9021 52.2388 61.8595C51.3794 62.746 50.1717 63.184 48.9849 63.4281C46.9929 63.8015 44.9362 64.0747 42.9171 63.7577C41.4612 63.4907 40.2618 62.5645 39.3253 61.4611C37.5356 63.474 34.7635 64.0413 32.2042 64.3083C30.2748 64.5482 28.1159 64.6441 26.4285 63.5136C25.8966 63.1423 25.4877 62.6292 25.0622 62.1474C23.4144 63.7472 21.2493 65.005 18.8839 64.9236C15.3839 64.9737 12.4282 62.7919 9.75 60.7937C8.60487 59.9531 7.31164 58.8121 5.78271 59.1354C4.53329 59.8675 4.85659 61.6092 3.97219 62.6104C2.79577 63.5783 0.751637 63.0401 0.209315 61.6051C-0.116077 60.9418 0.200972 60.2201 0.309436 59.5463C0.851757 57.5084 2.08241 55.4017 4.19121 54.703C6.19571 54.0793 8.37959 54.6091 10.1567 55.6395C12.3844 56.7805 14.1032 58.7016 16.3663 59.782C18.0913 60.6518 20.148 60.4641 21.9314 59.8821C22.8909 59.5943 23.527 58.7078 23.7544 57.7671C24.2967 56.113 23.7627 54.3922 23.7794 52.7089C23.7148 48.4621 23.7502 44.2174 23.8086 39.9727C23.8149 38.9631 24.1924 37.7805 25.2395 37.4196C26.4514 36.8585 28.2578 37.5156 28.3996 38.9527C28.4517 40.7549 28.3287 42.5633 28.3474 44.3676C28.1597 46.5869 28.1159 48.8292 28.3454 51.0486C28.3746 53.4682 28.4663 55.8961 28.8168 58.2927C28.9315 59.3419 29.9974 59.9239 30.9694 59.9259C32.636 60.0219 34.5946 59.9072 35.7543 58.5326C36.5803 57.2519 36.791 55.6687 36.768 54.1711C36.8327 53.1115 36.8035 51.8328 37.7484 51.1278C38.7266 50.2351 40.7103 50.2121 41.213 51.6284C41.7657 53.6058 41.9368 55.6917 42.6939 57.6148C42.9609 58.2927 43.4177 58.9581 44.1457 59.1855C45.4389 59.6444 46.972 59.588 48.1589 58.858C48.6157 58.5785 48.7742 58.0049 48.795 57.5001C48.8138 51.9413 48.8347 46.3804 48.8493 40.8196C48.7867 39.5618 49.0558 38.3207 49.0036 37.065C49.0349 36.3371 48.868 35.534 49.2727 34.8811Z" fill="#1897A6"/>
<path d="M58.0756 36.9531C58.3008 35.7349 59.98 35.0696 60.9269 35.9206C61.7112 36.4462 61.9302 37.4599 61.7592 38.3423C61.1084 41.7985 61.5131 45.3319 61.2315 48.8216C61.0709 53.0308 61.0875 57.2442 61.0542 61.4556C63.4279 59.8745 66.006 58.6188 68.6675 57.6072C69.6792 57.2547 70.7534 56.8271 71.8401 57.0649C73.1709 57.3715 73.6548 59.2759 72.6953 60.2249C71.8192 61.0613 70.5677 61.2804 69.4831 61.7309C66.6296 62.7488 64.0494 64.357 61.4839 65.9381C60.4868 66.5951 58.839 66.7557 58.0902 65.6565C57.4957 64.624 57.3393 63.4058 57.1891 62.2419C57.0598 57.0461 57.089 51.844 57.2183 46.646C57.4185 45.2631 57.3706 43.8656 57.431 42.4743C57.6688 40.6367 57.6209 38.7573 58.0756 36.9531Z" fill="#9A469B"/>
<path d="M100.718 38.0464C101.592 38.0193 102.374 38.741 102.568 39.5712C102.808 40.5953 102.669 41.657 102.717 42.6978C102.896 45.8913 102.76 49.0952 102.99 52.2865C103.046 53.7821 102.996 55.2818 103.111 56.7753C103.355 58.6859 103.1 60.6216 103.397 62.528C103.509 64.1925 103.855 65.8445 103.822 67.5174C103.805 68.942 101.964 69.8243 100.795 69.0713C100.184 68.7001 99.9736 67.9638 99.8464 67.3067C99.6086 66.0531 99.5418 64.7787 99.3666 63.5167C99.2853 61.022 99.0016 58.5399 99.06 56.0389C98.7805 52.9227 98.9328 49.7877 98.8306 46.661C98.7909 44.8484 98.8806 43.0378 98.8556 41.2252C98.8598 40.4639 98.866 39.6567 99.2603 38.9788C99.5544 38.449 100.143 38.1549 100.718 38.0464Z" fill="#9A469B"/>
<path d="M96.1289 38.1685C96.5252 38.5168 96.8548 38.9298 97.128 39.3803C96.8736 39.1071 96.6066 38.8464 96.3417 38.5856C96.3813 39.5514 96.446 40.5401 96.1518 41.4766C96.2249 40.3732 96.1623 39.2698 96.1289 38.1685Z" fill="#9A469B"/>
<path d="M114.068 40.1859C115.903 39.8147 117.827 40.697 118.924 42.1758C120.319 44.0552 120.816 46.4393 120.97 48.7338C121.033 51.4516 120.987 54.1716 120.949 56.8894C120.617 60.0099 120.784 63.1658 120.471 66.2883C120.411 67.6858 118.642 68.5264 117.497 67.7484C116.471 67.2415 116.583 65.9399 116.546 64.9784C114.404 65.5061 112.28 66.3154 110.038 66.2007C108.497 66.2862 106.795 65.9337 105.75 64.7135C104.876 63.6956 104.98 62.2313 105.266 61.0111C106.188 57.6237 108.941 54.8203 112.253 53.7064C113.797 53.1954 115.449 53.4186 117.038 53.5229C117.013 52.1253 117.057 50.7237 116.88 49.3345C116.836 47.7951 116.74 46.1515 115.887 44.8207C115.474 44.0302 114.406 44.1491 113.743 44.5308C112.389 45.2942 111.367 46.5353 110.585 47.8577C110.044 48.7567 109.512 49.7412 109.571 50.8259C109.535 51.3181 109.663 51.9272 109.235 52.2901C108.584 53.0056 107.422 52.991 106.621 52.5571C105.772 52.019 105.718 50.8843 105.808 49.9853C106.079 47.8348 107.118 45.8595 108.338 44.0969C109.759 42.2384 111.703 40.6031 114.068 40.1859ZM113.229 57.4797C111.394 58.3579 109.827 59.9577 109.22 61.9205C109.291 61.9935 109.429 62.1374 109.498 62.2104C110.572 62.3856 111.665 62.1938 112.691 61.8663C114.03 61.5138 115.336 61.0486 116.654 60.6252C116.769 59.5823 117.063 58.239 116.11 57.486C115.261 56.9291 114.114 57.0897 113.229 57.4797Z" fill="#9A469B"/>
<path d="M93.4818 47.0383C94.2202 46.7797 95.2464 46.9173 95.6448 47.6703C96.0265 48.5297 95.9201 49.4975 95.9327 50.4132C95.9327 53.6046 95.9014 56.7959 95.9619 59.9873C96.087 61.6831 96.3936 63.3601 96.6293 65.0434C96.7879 66.0634 96.0328 67.0249 95.1004 67.3462C94.1326 67.584 93.0333 66.9811 92.7955 65.9925C92.1614 63.7126 92.0738 61.3243 91.8527 58.9798C91.7151 55.8072 91.836 52.6221 92.2741 49.4767C92.4055 48.5756 92.5661 47.4826 93.4818 47.0383Z" fill="#9A469B"/>
</svg>
