<svg width="193" height="62" viewBox="0 0 193 62" fill="none" xmlns="http://www.w3.org/2000/svg">
<rect y="0.5" width="193" height="61" rx="30.5" fill="#18181B"/>
<path d="M79.427 45.2362L77.6996 40.7975H70.6553L68.9728 45.2362H66.6172L72.9436 29.3421H75.4786L81.805 45.2362H79.427ZM74.155 31.6287L71.4405 38.7575H76.9144L74.155 31.6287ZM85.8068 49.4956H83.7204V34.4533H85.7619V36.1347C86.076 35.5668 86.5471 35.1035 87.1752 34.7448C87.8034 34.3861 88.5362 34.2068 89.3738 34.2068C90.9292 34.2068 92.1406 34.7373 93.0081 35.7984C93.8905 36.8595 94.3317 38.2046 94.3317 39.8336C94.3317 41.4775 93.8755 42.8376 92.9632 43.9136C92.0658 44.9896 90.8469 45.5277 89.3064 45.5277C88.5138 45.5277 87.8109 45.3633 87.1977 45.0345C86.5845 44.7057 86.1208 44.2872 85.8068 43.7791V49.4956ZM92.178 39.8336C92.178 38.7426 91.8864 37.8459 91.3031 37.1435C90.7347 36.4261 89.9645 36.0674 88.9924 36.0674C88.0352 36.0674 87.2575 36.4261 86.6592 37.1435C86.076 37.8459 85.7843 38.7426 85.7843 39.8336C85.7843 40.9545 86.076 41.8736 86.6592 42.591C87.2575 43.2934 88.0352 43.6446 88.9924 43.6446C89.9496 43.6446 90.7198 43.2934 91.3031 42.591C91.8864 41.8736 92.178 40.9545 92.178 39.8336ZM99.1051 49.4956H97.0187V34.4533H99.0602V36.1347C99.3743 35.5668 99.8454 35.1035 100.474 34.7448C101.102 34.3861 101.835 34.2068 102.672 34.2068C104.227 34.2068 105.439 34.7373 106.306 35.7984C107.189 36.8595 107.63 38.2046 107.63 39.8336C107.63 41.4775 107.174 42.8376 106.261 43.9136C105.364 44.9896 104.145 45.5277 102.605 45.5277C101.812 45.5277 101.109 45.3633 100.496 45.0345C99.8828 44.7057 99.4191 44.2872 99.1051 43.7791V49.4956ZM105.476 39.8336C105.476 38.7426 105.185 37.8459 104.601 37.1435C104.033 36.4261 103.263 36.0674 102.291 36.0674C101.334 36.0674 100.556 36.4261 99.9576 37.1435C99.3743 37.8459 99.0826 38.7426 99.0826 39.8336C99.0826 40.9545 99.3743 41.8736 99.9576 42.591C100.556 43.2934 101.334 43.6446 102.291 43.6446C103.248 43.6446 104.018 43.2934 104.601 42.591C105.185 41.8736 105.476 40.9545 105.476 39.8336ZM126.29 32.9514L124.316 33.6463C124.212 32.9588 123.875 32.3386 123.307 31.7856C122.738 31.2177 121.953 30.9338 120.951 30.9338C120.069 30.9338 119.336 31.1878 118.753 31.696C118.169 32.2041 117.877 32.8318 117.877 33.5791C117.877 34.1619 118.049 34.6551 118.393 35.0586C118.753 35.4621 119.261 35.7386 119.919 35.8881L122.297 36.4037C123.613 36.6876 124.63 37.2257 125.348 38.0178C126.066 38.7949 126.425 39.7439 126.425 40.8648C126.425 42.1501 125.917 43.256 124.9 44.1826C123.882 45.1092 122.559 45.5725 120.929 45.5725C119.149 45.5725 117.75 45.1092 116.733 44.1826C115.731 43.2411 115.148 42.1277 114.983 40.8424L117.092 40.1699C117.182 41.1263 117.556 41.9334 118.214 42.591C118.872 43.2485 119.77 43.5773 120.906 43.5773C121.953 43.5773 122.761 43.3382 123.329 42.86C123.897 42.3817 124.182 41.7765 124.182 41.0441C124.182 40.4463 123.98 39.9307 123.576 39.4973C123.172 39.049 122.581 38.7426 121.804 38.5782L119.538 38.085C118.356 37.8309 117.414 37.3303 116.711 36.583C116.008 35.8358 115.656 34.8868 115.656 33.736C115.656 32.4806 116.165 31.3821 117.182 30.4406C118.214 29.4841 119.456 29.0059 120.906 29.0059C122.536 29.0059 123.785 29.4019 124.653 30.194C125.52 30.9861 126.066 31.9052 126.29 32.9514ZM131.832 31.0459V34.4533H134.165V36.3589H131.832V41.9633C131.832 42.4714 131.944 42.845 132.168 43.0841C132.407 43.3233 132.796 43.4428 133.335 43.4428C133.649 43.4428 133.925 43.4129 134.165 43.3532V45.1466C133.806 45.2811 133.327 45.3483 132.729 45.3483C131.802 45.3483 131.069 45.0793 130.53 44.5413C129.992 44.0033 129.723 43.2485 129.723 42.2771V36.3589H127.659V34.4533H128.242C128.796 34.4533 129.207 34.3039 129.476 34.005C129.76 33.6911 129.902 33.2876 129.902 32.7944V31.0459H131.832ZM139.091 42.6806C139.749 43.3532 140.549 43.6894 141.491 43.6894C142.433 43.6894 143.226 43.3532 143.869 42.6806C144.527 41.9932 144.856 41.0441 144.856 39.8336C144.856 38.638 144.527 37.7039 143.869 37.0314C143.226 36.3439 142.433 36.0002 141.491 36.0002C140.549 36.0002 139.749 36.3439 139.091 37.0314C138.447 37.7039 138.126 38.638 138.126 39.8336C138.126 41.0441 138.447 41.9932 139.091 42.6806ZM137.52 35.7536C138.567 34.6626 139.891 34.1171 141.491 34.1171C143.091 34.1171 144.407 34.6626 145.439 35.7536C146.486 36.8296 147.01 38.1896 147.01 39.8336C147.01 41.4925 146.494 42.8674 145.462 43.9584C144.43 45.0345 143.106 45.5725 141.491 45.5725C139.876 45.5725 138.552 45.0345 137.52 43.9584C136.488 42.8674 135.972 41.4925 135.972 39.8336C135.972 38.1896 136.488 36.8296 137.52 35.7536ZM155.698 34.3413V36.583C155.384 36.5382 155.077 36.5158 154.778 36.5158C152.804 36.5158 151.817 37.6217 151.817 39.8336V45.2362H149.708V34.4533H151.772V36.3364C152.43 34.9615 153.507 34.274 155.003 34.274C155.242 34.274 155.474 34.2964 155.698 34.3413ZM159.204 38.7351H165.104C165.074 37.9281 164.805 37.2705 164.297 36.7624C163.788 36.2393 163.07 35.9777 162.143 35.9777C161.306 35.9777 160.618 36.2542 160.079 36.8072C159.541 37.3452 159.249 37.9879 159.204 38.7351ZM165.418 41.5373L167.236 42.165C166.921 43.1663 166.338 43.9883 165.486 44.631C164.633 45.2587 163.601 45.5725 162.39 45.5725C160.879 45.5725 159.593 45.0569 158.531 44.0257C157.484 42.9795 156.961 41.5747 156.961 39.8112C156.961 38.1672 157.469 36.8072 158.486 35.7312C159.503 34.6551 160.715 34.1171 162.121 34.1171C163.751 34.1171 165.022 34.6327 165.934 35.6639C166.847 36.6802 167.303 38.0476 167.303 39.7663C167.303 40.0353 167.288 40.2595 167.258 40.4389H159.137C159.152 41.3953 159.466 42.18 160.079 42.7927C160.707 43.4055 161.478 43.7118 162.39 43.7118C163.93 43.7118 164.94 42.987 165.418 41.5373Z" fill="white"/>
<path opacity="0.6" d="M68.2614 19.5899V15.7212H69.2101C70.2014 15.7212 71.0219 16.3447 71.0219 17.6598C71.0219 18.975 70.1929 19.5899 69.2015 19.5899H68.2614ZM69.2442 20.683C70.9706 20.683 72.244 19.5728 72.244 17.6598C72.244 15.7468 70.9791 14.6281 69.2528 14.6281H67.082V20.683H69.2442ZM75.1979 17.6513C75.1979 16.2849 76.1551 15.6358 77.0866 15.6358C78.0267 15.6358 78.9839 16.2849 78.9839 17.6513C78.9839 19.0177 78.0267 19.6667 77.0866 19.6667C76.1551 19.6667 75.1979 19.0177 75.1979 17.6513ZM73.9758 17.6598C73.9758 19.607 75.4457 20.8111 77.0866 20.8111C78.736 20.8111 80.206 19.607 80.206 17.6598C80.206 15.7041 78.736 14.5 77.0866 14.5C75.4457 14.5 73.9758 15.7041 73.9758 17.6598ZM87.7797 18.8127L86.4294 14.6281H85.2073L83.8655 18.7956L82.7545 14.6281H81.5067L83.1904 20.683H84.421L85.8055 16.3703L87.19 20.683H88.4036L90.0786 14.6281H88.8736L87.7797 18.8127ZM97.1151 20.683V14.6281H95.9357V18.6334L93.4146 14.6281H91.9446V20.683H93.124V16.3874L95.8759 20.683H97.1151ZM103.445 20.683V19.5557H100.744V14.6281H99.5646V20.683H103.445ZM106.078 17.6513C106.078 16.2849 107.035 15.6358 107.967 15.6358C108.907 15.6358 109.864 16.2849 109.864 17.6513C109.864 19.0177 108.907 19.6667 107.967 19.6667C107.035 19.6667 106.078 19.0177 106.078 17.6513ZM104.856 17.6598C104.856 19.607 106.326 20.8111 107.967 20.8111C109.616 20.8111 111.086 19.607 111.086 17.6598C111.086 15.7041 109.616 14.5 107.967 14.5C106.326 14.5 104.856 15.7041 104.856 17.6598ZM116.995 20.683H118.277L115.97 14.6281H114.602L112.278 20.683H113.526L114.03 19.2995H116.491L116.995 20.683ZM115.261 15.9347L116.098 18.2235H114.423L115.261 15.9347ZM121.3 19.5899V15.7212H122.248C123.24 15.7212 124.06 16.3447 124.06 17.6598C124.06 18.975 123.231 19.5899 122.24 19.5899H121.3ZM122.282 20.683C124.009 20.683 125.282 19.5728 125.282 17.6598C125.282 15.7468 124.017 14.6281 122.291 14.6281H120.12V20.683H122.282ZM131.416 17.6513C131.416 16.2849 132.373 15.6358 133.305 15.6358C134.245 15.6358 135.202 16.2849 135.202 17.6513C135.202 19.0177 134.245 19.6667 133.305 19.6667C132.373 19.6667 131.416 19.0177 131.416 17.6513ZM130.194 17.6598C130.194 19.607 131.664 20.8111 133.305 20.8111C134.954 20.8111 136.424 19.607 136.424 17.6598C136.424 15.7041 134.954 14.5 133.305 14.5C131.664 14.5 130.194 15.7041 130.194 17.6598ZM143.685 20.683V14.6281H142.506V18.6334L139.985 14.6281H138.515V20.683H139.694V16.3874L142.446 20.683H143.685ZM153.776 15.7468V14.6281H148.76V15.7468H150.674V20.683H151.862V15.7468H153.776ZM160.683 20.683V14.6281H159.495V17.062H156.854V14.6281H155.675V20.683H156.854V18.1722H159.495V20.683H160.683ZM166.93 20.683V19.5728H164.315V18.1722H166.682V17.1218H164.315V15.7383H166.93V14.6281H163.136V20.683H166.93Z" fill="white"/>
<path d="M52.3685 38.8489C51.6748 40.384 51.3436 41.0693 50.4503 42.4257C49.2058 44.3198 47.4497 46.679 45.2737 46.699C43.3409 46.717 42.8442 45.442 40.2201 45.4574C37.5962 45.4727 37.0494 46.7217 35.1164 46.7037C32.9404 46.6844 31.278 44.5539 30.032 42.6585C26.5494 37.361 26.1856 31.1448 28.3334 27.8402C29.8598 25.4903 32.2688 24.1173 34.5329 24.1173C36.8384 24.1173 38.2879 25.3802 40.1948 25.3802C42.0442 25.3802 43.1706 24.1152 45.8366 24.1152C47.8517 24.1152 49.9869 25.2115 51.5086 27.1055C46.523 29.835 47.3336 36.9467 52.3685 38.8489Z" fill="white"/>
<path d="M44.0973 20.8005C45.066 19.5581 45.8004 17.8055 45.5334 16.0127C43.951 16.1208 42.1015 17.127 41.0213 18.438C40.0405 19.6276 39.2305 21.3923 39.5457 23.1076C41.2717 23.1617 43.059 22.1308 44.0973 20.8005Z" fill="white"/>
</svg>
