<svg width="147" height="44" viewBox="0 0 147 44" fill="none" xmlns="http://www.w3.org/2000/svg">
<path d="M76.3808 17.8791L77.085 17.169L76.3808 17.8791ZM56.6954 25.6168L55.7297 25.3571L56.6954 25.6168ZM146.999 20.8188C147.019 21.3708 146.588 21.8345 146.036 21.8546L137.042 22.1819C136.49 22.202 136.027 21.7709 136.007 21.219C135.987 20.6671 136.418 20.2033 136.97 20.1833L144.964 19.8923L144.673 11.8975C144.653 11.3456 145.084 10.8819 145.636 10.8618C146.188 10.8417 146.652 11.2729 146.672 11.8248L146.999 20.8188ZM0.468806 9.8893C1.26107 9.39258 2.11674 8.89055 3.03076 8.38991L3.99155 10.144C3.11013 10.6268 2.28845 11.109 1.53119 11.5838L0.468806 9.8893ZM8.36886 5.79707C10.0936 5.05472 11.9419 4.34333 13.8951 3.68885L14.5305 5.58522C12.6306 6.22183 10.8342 6.91336 9.15955 7.63413L8.36886 5.79707ZM19.5783 2.03719C21.4473 1.57531 23.3846 1.17543 25.3776 0.85524L25.6948 2.82992C23.7588 3.14096 21.8758 3.52959 20.0581 3.97878L19.5783 2.03719ZM31.2641 0.168789C33.2035 0.0287704 35.181 -0.0279198 37.1865 0.0130043L37.1457 2.01259C35.2046 1.97298 33.2888 2.02781 31.4081 2.16359L31.2641 0.168789ZM43.1043 0.422123C45.0416 0.652863 46.9952 0.983166 48.9562 1.42509L48.5165 3.37616C46.6249 2.94989 44.7393 2.63099 42.8677 2.40808L43.1043 0.422123ZM54.6739 3.03642C56.5151 3.66317 58.355 4.39777 60.1866 5.24993L59.3429 7.06326C57.5774 6.24182 55.804 5.5338 54.0294 4.92973L54.6739 3.03642ZM65.4296 8.03644C67.0861 9.0316 68.7291 10.1328 70.3535 11.3474L69.1558 12.9491C67.5853 11.7748 65.9981 10.7112 64.3997 9.75083L65.4296 8.03644ZM74.9298 15.1242C75.6534 15.7805 76.372 16.4619 77.085 17.169L75.6766 18.5891C74.9845 17.9027 74.2875 17.2418 73.5861 16.6055L74.9298 15.1242ZM77.085 17.169C77.9196 17.9968 78.6987 18.8039 79.4243 19.5907L77.9541 20.9467C77.2499 20.1831 76.4916 19.3973 75.6766 18.5891L77.085 17.169ZM83.6625 24.7729C85.1785 26.9249 86.2405 28.9022 86.8986 30.7103L85.0192 31.3943C84.4355 29.7905 83.4682 27.9699 82.0274 25.9247L83.6625 24.7729ZM87.2612 37.8171C86.4059 40.2017 84.482 41.8305 82.1096 42.8057L81.3492 40.9558C83.3584 40.13 84.7659 38.8501 85.3787 37.1418L87.2612 37.8171ZM75.3045 43.9999C73.0971 43.9943 70.7886 43.6756 68.5586 43.0633L69.0882 41.1347C71.1538 41.7019 73.2861 41.9948 75.3096 41.9999L75.3045 43.9999ZM62.2837 40.3669C60.2634 39.1102 58.4988 37.5221 57.2379 35.6072L58.9082 34.5073C59.9785 36.1326 61.5112 37.5311 63.34 38.6686L62.2837 40.3669ZM55.233 28.8654C55.2427 27.7407 55.4035 26.5701 55.7297 25.3571L57.6611 25.8764C57.3762 26.936 57.2411 27.938 57.2329 28.8827L55.233 28.8654ZM55.7297 25.3571C55.9883 24.3951 56.3217 23.4558 56.7247 22.5412L58.5549 23.3475C58.1916 24.172 57.8926 25.0154 57.6611 25.8764L55.7297 25.3571ZM59.8289 17.4982C61.0241 16.016 62.4188 14.627 63.9834 13.3391L65.2545 14.8833C63.7838 16.0938 62.4874 17.3876 61.3857 18.7537L59.8289 17.4982ZM68.7649 10.0152C70.3841 9.06115 72.1153 8.18757 73.9409 7.40004L74.7331 9.23647C72.9788 9.99323 71.3226 10.8295 69.7802 11.7384L68.7649 10.0152ZM79.3674 5.3987C81.1654 4.83857 83.0286 4.35252 84.9447 3.94492L85.3608 5.90115C83.503 6.29636 81.6995 6.76699 79.9622 7.30819L79.3674 5.3987ZM90.6224 2.98871C92.5015 2.75241 94.4173 2.5885 96.3597 2.50071L96.45 4.49867C94.5604 4.58407 92.6978 4.74348 90.8719 4.97308L90.6224 2.98871ZM102.116 2.46473C104.015 2.52636 105.93 2.66103 107.851 2.8721L107.633 4.86015C105.763 4.65473 103.899 4.52366 102.051 4.46367L102.116 2.46473ZM113.545 3.72187C115.418 4.07656 117.289 4.5066 119.151 5.01513L118.624 6.94448C116.814 6.45018 114.994 6.03197 113.172 5.68695L113.545 3.72187ZM124.639 6.75698C126.434 7.40905 128.212 8.13918 129.966 8.95032L129.126 10.7656C127.425 9.97867 125.699 9.26997 123.956 8.63675L124.639 6.75698ZM135.085 11.5945C136.74 12.544 138.365 13.5732 139.953 14.6848L138.806 16.3231C137.268 15.2466 135.694 14.2496 134.09 13.3294L135.085 11.5945ZM144.519 18.2043C145.25 18.8237 145.971 19.4631 146.681 20.1229L145.319 21.5876C144.632 20.949 143.935 20.3301 143.227 19.7305L144.519 18.2043Z" fill="#58C0BF"/>
</svg>
