<svg width="25" height="24" viewBox="0 0 25 24" fill="none" xmlns="http://www.w3.org/2000/svg">
<path d="M4.5 11.7261C4.5 11.3464 4.78215 11.0326 5.14823 10.9829L5.25 10.9761H20.25C20.6642 10.9761 21 11.3119 21 11.7261C21 12.1058 20.7178 12.4196 20.3518 12.4692L20.25 12.4761L5.25 12.4761C4.83579 12.4761 4.5 12.1403 4.5 11.7261Z" fill="#1897A6"/>
<path d="M13.671 6.23296C13.3775 5.9407 13.3765 5.46582 13.6687 5.1723C13.9344 4.90546 14.351 4.88036 14.6451 5.09758L14.7294 5.17002L20.7794 11.194C21.047 11.4605 21.0714 11.8786 20.8524 12.1727L20.7794 12.2569L14.7294 18.2819C14.4359 18.5742 13.9611 18.5732 13.6688 18.2797C13.4031 18.0129 13.3797 17.5962 13.5982 17.303L13.671 17.2191L19.187 11.7252L13.671 6.23296Z" fill="#1897A6"/>
</svg>
