<svg width="183" height="44" viewBox="0 0 183 44" fill="none" xmlns="http://www.w3.org/2000/svg">
<path d="M95.096 26.1209L95.7181 26.9039L95.096 26.1209ZM70.5232 18.3832L71.4712 18.065L70.5232 18.3832ZM182.989 23.2895C183.069 22.743 182.691 22.2352 182.145 22.1553L173.239 20.853C172.693 20.7731 172.185 21.1513 172.105 21.6978C172.025 22.2442 172.404 22.752 172.95 22.8319L180.866 23.9896L179.708 31.9054C179.628 32.4518 180.007 32.9596 180.553 33.0395C181.099 33.1195 181.607 32.7412 181.687 32.1948L182.989 23.2895ZM0.551169 34.1571C1.43394 34.6004 2.38039 35.0482 3.38598 35.4955L4.19884 33.6682C3.22015 33.2328 2.30205 32.7984 1.44883 32.3698L0.551169 34.1571ZM9.22001 37.8266C11.0901 38.498 13.0866 39.1483 15.1929 39.759L15.7499 37.8382C13.6835 37.239 11.7266 36.6015 9.89581 35.9442L9.22001 37.8266ZM21.2575 41.3263C23.238 41.7774 25.2894 42.1863 27.4012 42.5411L27.7326 40.5688C25.6597 40.2205 23.6458 39.819 21.7016 39.3763L21.2575 41.3263ZM33.608 43.3992C35.6511 43.6207 37.737 43.7866 39.8573 43.8873L39.9522 41.8896C37.8737 41.7908 35.8281 41.6282 33.8236 41.4108L33.608 43.3992ZM46.1279 43.9876C48.1956 43.9545 50.2872 43.8545 52.3954 43.6794L52.2298 41.6863C50.1677 41.8575 48.1207 41.9555 46.0959 41.9879L46.1279 43.9876ZM58.631 42.9411C60.6791 42.6244 62.736 42.2311 64.7954 41.7541L64.3441 39.8057C62.3345 40.2711 60.3262 40.6552 58.3253 40.9646L58.631 42.9411ZM70.8561 40.1021C72.8337 39.4792 74.8076 38.7726 76.7722 37.9757L76.0204 36.1224C74.1067 36.8986 72.1831 37.5873 70.2553 38.1945L70.8561 40.1021ZM82.5018 35.3741C84.346 34.4435 86.1764 33.426 87.9882 32.3161L86.9434 30.6107C85.1791 31.6915 83.3967 32.6823 81.6008 33.5885L82.5018 35.3741ZM93.2119 28.8145C94.0528 28.1998 94.8884 27.5631 95.7181 26.9039L94.474 25.338C93.6652 25.9805 92.851 26.6009 92.0316 27.1998L93.2119 28.8145ZM95.7181 26.9039C96.5841 26.2159 97.402 25.5421 98.1735 24.8825L96.8738 23.3624C96.1217 24.0055 95.3223 24.6639 94.474 25.338L95.7181 26.9039ZM102.696 20.6405C104.362 18.8974 105.671 17.2631 106.655 15.7336L104.973 14.6517C104.073 16.0509 102.849 17.5857 101.25 19.2586L102.696 20.6405ZM108.997 9.56891C109.18 6.95581 108.104 4.86947 106.249 3.3482L104.98 4.89463C106.392 6.05202 107.135 7.53338 107.001 9.42875L108.997 9.56891ZM100.257 0.665081C98.3162 0.223543 96.1696 0.00766611 93.946 0.000200331L93.9393 2.00019C96.0432 2.00725 98.0403 2.21188 99.8135 2.61526L100.257 0.665081ZM87.6575 0.503742C85.5688 0.84051 83.4946 1.34443 81.5301 2.01013L82.172 3.90433C84.0238 3.27682 85.9892 2.79856 87.9758 2.47824L87.6575 0.503742ZM75.75 4.67615C73.8017 5.88051 72.124 7.32965 70.9198 9.02773L72.5512 10.1847C73.5625 8.75858 75.0176 7.48016 76.8016 6.37736L75.75 4.67615ZM68.9518 15.3886C68.9894 16.4584 69.1934 17.5641 69.5752 18.7014L71.4712 18.065C71.1459 17.0958 70.9809 16.1807 70.9506 15.3183L68.9518 15.3886ZM69.5752 18.7014C69.9154 19.7151 70.3572 20.7013 70.8926 21.6579L72.6379 20.6812C72.1597 19.8267 71.7696 18.9541 71.4712 18.065L69.5752 18.7014ZM74.8169 26.6974C76.2476 28.102 77.9011 29.42 79.7449 30.6452L80.8518 28.9794C79.0983 27.8142 77.5464 26.5743 76.2181 25.2702L74.8169 26.6974ZM85.181 33.7326C86.9776 34.6078 88.8902 35.4176 90.9029 36.1579L91.5933 34.2808C89.6384 33.5618 87.7881 32.778 86.057 31.9346L85.181 33.7326ZM96.809 38.0521C98.7553 38.5922 100.77 39.0746 102.843 39.4962L103.242 37.5363C101.213 37.1236 99.2432 36.652 97.3437 36.1249L96.809 38.0521ZM108.932 40.5352C110.945 40.8154 112.998 41.0411 115.084 41.2096L115.245 39.2161C113.197 39.0506 111.182 38.8292 109.208 38.5543L108.932 40.5352ZM121.249 41.5366C123.29 41.5891 125.354 41.5875 127.433 41.5293L127.377 39.5301C125.334 39.5872 123.306 39.5889 121.3 39.5373L121.249 41.5366ZM133.597 41.1923C135.639 41.0258 137.689 40.8037 139.739 40.5241L139.469 38.5424C137.455 38.8171 135.441 39.0353 133.434 39.1989L133.597 41.1923ZM145.838 39.5192C147.857 39.128 149.87 38.6786 151.87 38.1688L151.376 36.2308C149.414 36.7307 147.439 37.1718 145.458 37.5557L145.838 39.5192ZM157.814 36.4599C159.778 35.8289 161.723 35.1358 163.642 34.3783L162.908 32.518C161.03 33.259 159.126 33.9377 157.202 34.5558L157.814 36.4599ZM169.321 31.9085C171.186 31.0184 173.018 30.0616 174.811 29.0359L173.819 27.2998C172.07 28.3001 170.281 29.2341 168.459 30.1035L169.321 31.9085ZM180.07 25.7487C180.924 25.1659 181.767 24.5653 182.597 23.9468L181.403 22.3428C180.595 22.9446 179.774 23.5291 178.943 24.0966L180.07 25.7487Z" fill="#58C0BF"/>
</svg>
