<svg width="20" height="20" viewBox="0 0 20 20" fill="none" xmlns="http://www.w3.org/2000/svg">
<path d="M11.6667 17.5H10C8.15907 17.5 6.66669 16.0076 6.66669 14.1667V5.83333C6.66669 3.99238 8.15907 2.5 10 2.5H15C16.841 2.5 18.3334 3.99238 18.3334 5.83333V11.6667M1.66669 5.83333H4.16669M10 5.83333H15M10 9.16667H15M10 12.5H12.5M13.3334 15.8333L14.794 17.0019C15.1423 17.2805 15.6481 17.2355 15.9418 16.8999L18.3334 14.1667M2.91669 17.5L3.50002 16.7222C3.93276 16.1452 4.16669 15.4435 4.16669 14.7222V3.75C4.16669 3.05964 3.60704 2.5 2.91669 2.5C2.22633 2.5 1.66669 3.05964 1.66669 3.75V14.7222C1.66669 15.4435 1.90061 16.1452 2.33335 16.7222L2.91669 17.5Z" stroke="#868E96" stroke-width="1.5" stroke-linecap="round" stroke-linejoin="round"/>
</svg>
