<svg width="21" height="21" viewBox="0 0 21 21" fill="none" xmlns="http://www.w3.org/2000/svg">
<path d="M12.4324 17.8877H10.7657C8.92476 17.8877 7.43237 16.3953 7.43237 14.5544V6.22103C7.43237 4.38008 8.92476 2.8877 10.7657 2.8877H15.7657C17.6067 2.8877 19.099 4.38008 19.099 6.22103V12.0544M2.43237 6.22103H4.93237M10.7657 6.22103H15.7657M10.7657 9.55436H15.7657M10.7657 12.8877H13.2657M14.099 16.221L15.5597 17.3896C15.908 17.6682 16.4138 17.6232 16.7075 17.2876L19.099 14.5544M3.68237 17.8877L4.26571 17.1099C4.69845 16.5329 4.93237 15.8312 4.93237 15.1099V4.1377C4.93237 3.44734 4.37273 2.8877 3.68237 2.8877C2.99202 2.8877 2.43237 3.44734 2.43237 4.1377V15.1099C2.43237 15.8312 2.6663 16.5329 3.09904 17.1099L3.68237 17.8877Z" stroke="white" stroke-linecap="round" stroke-linejoin="round"/>
</svg>
