<svg width="24" height="24" viewBox="0 0 24 24" fill="none" xmlns="http://www.w3.org/2000/svg">
<path fill-rule="evenodd" clip-rule="evenodd" d="M10.8036 4.13637C12.5693 2.37072 15.432 2.37072 17.1976 4.13637C18.9633 5.90203 18.9633 8.76471 17.1976 10.5304L11.8643 15.8637C10.835 16.893 9.16622 16.893 8.13694 15.8637C7.10767 14.8344 7.10767 13.1657 8.13694 12.1364L13.4703 6.80304C13.7632 6.51015 14.238 6.51015 14.5309 6.80304C14.8238 7.09593 14.8238 7.57081 14.5309 7.8637L9.1976 13.197C8.75412 13.6405 8.75412 14.3596 9.1976 14.803C9.64109 15.2465 10.3601 15.2465 10.8036 14.803L16.1369 9.46971C17.3168 8.28984 17.3168 6.3769 16.1369 5.19703C14.9571 4.01717 13.0441 4.01717 11.8643 5.19703L6.53093 10.5304C4.61469 12.4466 4.61469 15.5535 6.53094 17.4697C8.44718 19.386 11.554 19.386 13.4703 17.4697L18.8036 12.1364C19.0965 11.8435 19.5714 11.8435 19.8643 12.1364C20.1572 12.4293 20.1572 12.9041 19.8643 13.197L14.5309 18.5304C12.0289 21.0324 7.97231 21.0324 5.47028 18.5304C2.96824 16.0283 2.96824 11.9717 5.47027 9.46971L10.8036 4.13637Z" fill="#ADB5BD"/>
</svg>
