<svg width="31" height="31" viewBox="0 0 31 31" fill="none" xmlns="http://www.w3.org/2000/svg">
<path d="M25.833 15.8545C25.833 16.3449 25.4686 16.7503 24.9957 16.8144L24.8643 16.8232L5.48926 16.8232C4.95423 16.8232 4.52051 16.3895 4.52051 15.8545C4.52051 15.3641 4.88496 14.9587 5.35781 14.8946L5.48926 14.8857L24.8643 14.8857C25.3993 14.8857 25.833 15.3195 25.833 15.8545Z" fill="black"/>
<path d="M13.9872 22.9496C14.3664 23.3271 14.3677 23.9404 13.9902 24.3196C13.647 24.6642 13.1089 24.6967 12.729 24.4161L12.6202 24.3225L4.80559 16.5415C4.4599 16.1973 4.42845 15.6573 4.71126 15.2774L4.80554 15.1686L12.6201 7.38633C12.9992 7.00879 13.6126 7.01006 13.9901 7.38916C14.3334 7.7338 14.3635 8.27206 14.0813 8.65072L13.9873 8.75918L6.86243 15.8554L13.9872 22.9496Z" fill="black"/>
</svg>
