<svg width="41" height="42" viewBox="0 0 41 42" fill="none" xmlns="http://www.w3.org/2000/svg">
<path d="M2.54688 9.09814H38.2469V33.7481H2.54688V9.09814Z" fill="#9A469B"/>
<path d="M20.3984 26.9478C19.2713 26.9478 18.1903 27.3955 17.3932 28.1926C16.5962 28.9896 16.1484 30.0706 16.1484 31.1978C16.1484 32.3249 16.5962 33.4059 17.3932 34.203C18.1903 35 19.2713 35.4478 20.3984 35.4478C21.5256 35.4478 22.6066 35 23.4036 34.203C24.2007 33.4059 24.6484 32.3249 24.6484 31.1978C24.6484 30.0706 24.2007 28.9896 23.4036 28.1926C22.6066 27.3955 21.5256 26.9478 20.3984 26.9478Z" fill="#9A469B"/>
<path d="M20.3937 28.6509C19.7174 28.6509 19.0688 28.9195 18.5906 29.3978C18.1124 29.876 17.8438 30.5246 17.8438 31.2009C17.8438 31.8772 18.1124 32.5258 18.5906 33.004C19.0688 33.4822 19.7174 33.7509 20.3937 33.7509C21.0701 33.7509 21.7187 33.4822 22.1969 33.004C22.6751 32.5258 22.9437 31.8772 22.9437 31.2009C22.9437 30.5246 22.6751 29.876 22.1969 29.3978C21.7187 28.9195 21.0701 28.6509 20.3937 28.6509Z" fill="#4C0808"/>
<path d="M33.9938 6.54932L21.2437 9.09932H19.5438L6.79375 6.54932L5.09375 10.7993V31.1993H35.6938V10.7993L33.9938 6.54932Z" fill="#D7CCC8"/>
<path d="M6.79375 28.6517H19.5438V31.2009H21.2437V28.6517L33.9938 28.6509L35.6938 31.2009H5.09375L6.79375 28.6517Z" fill="#BCAAA4"/>
<path d="M33.9969 6.54932C33.9969 6.54932 21.2469 6.54932 21.2469 9.09932C21.2469 11.6493 21.2469 31.1993 21.2469 31.1993C21.2469 28.6493 33.9969 28.6493 33.9969 28.6493V6.54932ZM6.79688 6.54932C6.79688 6.54932 19.5469 6.54932 19.5469 9.09932C19.5469 11.6493 19.5469 31.1993 19.5469 31.1993C19.5469 28.6493 6.79688 28.6493 6.79688 28.6493V6.54932Z" fill="#EFEBE9"/>
<path d="M19.5469 9.09814H21.2469V31.1981H19.5469V9.09814Z" fill="#BCAAA4"/>
</svg>
