<svg width="38" height="36" viewBox="0 0 38 36" fill="none" xmlns="http://www.w3.org/2000/svg">
<path d="M5.25159 0.400391C4.87034 0.472266 4.59534 0.809766 4.60159 1.20039V22.8004H1.40159C1.37659 22.8004 1.35159 22.8004 1.32659 22.8004C0.914085 22.8379 0.598461 23.1848 0.601586 23.6004V26.8004C0.601586 27.241 0.960961 27.6004 1.40159 27.6004H3.80159V33.6004C3.80159 34.6941 4.70784 35.6004 5.80159 35.6004C6.89534 35.6004 7.80159 34.6941 7.80159 33.6004V27.6004H30.2016V33.6004C30.2016 34.6941 31.1078 35.6004 32.2016 35.6004C33.2953 35.6004 34.2016 34.6941 34.2016 33.6004V27.6004H36.6016C37.0422 27.6004 37.4016 27.241 37.4016 26.8004V23.6004C37.4016 23.1598 37.0422 22.8004 36.6016 22.8004H34.1016C34.1235 22.6941 34.1235 22.5816 34.1016 22.4754L30.0516 5.35039C29.9641 4.93789 29.5703 4.66289 29.1516 4.72539C29.136 4.73164 29.1172 4.74102 29.1016 4.75039L25.2016 5.67539C24.9047 5.74414 24.6703 5.97852 24.6016 6.27539V6.00039C24.6016 5.55977 24.2422 5.20039 23.8016 5.20039H19.0016V1.20039C19.0016 0.759766 18.6422 0.400391 18.2016 0.400391H11.8516C11.836 0.400391 11.8172 0.400391 11.8016 0.400391H5.40159C5.37659 0.400391 5.35159 0.400391 5.32659 0.400391C5.30159 0.400391 5.27659 0.400391 5.25159 0.400391ZM6.20159 2.00039H11.0016V22.8004H6.20159V2.00039ZM12.6016 2.00039H17.4016V5.92539C17.4016 5.95039 17.4016 5.97539 17.4016 6.00039V22.8004H12.6016V2.00039ZM7.57659 3.60039C7.13596 3.66289 6.82659 4.07227 6.88909 4.51289C6.95159 4.95352 7.36096 5.26289 7.80159 5.20039H9.40159C9.68909 5.20352 9.95784 5.05352 10.1047 4.80352C10.2485 4.55352 10.2485 4.24727 10.1047 3.99727C9.95784 3.74727 9.68909 3.59727 9.40159 3.60039H7.80159C7.77659 3.60039 7.75159 3.60039 7.72659 3.60039C7.70159 3.60039 7.67659 3.60039 7.65159 3.60039C7.62659 3.60039 7.60159 3.60039 7.57659 3.60039ZM13.9766 3.60039C13.536 3.66289 13.2266 4.07227 13.2891 4.51289C13.3516 4.95352 13.761 5.26289 14.2016 5.20039H15.8016C16.0891 5.20352 16.3578 5.05352 16.5047 4.80352C16.6485 4.55352 16.6485 4.24727 16.5047 3.99727C16.3578 3.74727 16.0891 3.59727 15.8016 3.60039H14.2016C14.1766 3.60039 14.1516 3.60039 14.1266 3.60039C14.1016 3.60039 14.0766 3.60039 14.0516 3.60039C14.0266 3.60039 14.0016 3.60039 13.9766 3.60039ZM28.6766 6.47539L29.1766 8.62539C29.0078 8.32227 28.6672 8.16289 28.3266 8.22539C28.3016 8.23164 28.2766 8.24102 28.2516 8.25039L27.4766 8.42539C27.1516 8.48164 26.8953 8.72852 26.8266 9.05039L26.3516 7.02539L28.6766 6.47539ZM24.6016 6.62539L28.4266 22.8004H24.6016V6.62539ZM19.0016 6.80039H23.0016V22.8004H19.0016V6.80039ZM20.3766 8.40039C19.936 8.46289 19.6266 8.87227 19.6891 9.31289C19.7516 9.75352 20.161 10.0629 20.6016 10.0004H21.4016C21.6891 10.0035 21.9578 9.85352 22.1047 9.60352C22.2485 9.35352 22.2485 9.04727 22.1047 8.79727C21.9578 8.54727 21.6891 8.39727 21.4016 8.40039H20.6016C20.5766 8.40039 20.5516 8.40039 20.5266 8.40039C20.5016 8.40039 20.4766 8.40039 20.4516 8.40039C20.4266 8.40039 20.4016 8.40039 20.3766 8.40039ZM29.2766 9.07539L31.7016 19.3504C31.5235 19.1566 31.261 19.066 31.0016 19.1004C30.9578 19.1066 30.9172 19.1129 30.8766 19.1254C30.861 19.1316 30.8422 19.141 30.8266 19.1504L30.0516 19.3254C29.7266 19.3816 29.4703 19.6285 29.4016 19.9504L27.0016 9.75039C27.2141 9.98789 27.5485 10.0754 27.8516 9.97539L28.6266 9.80039C28.9828 9.73164 29.2485 9.43477 29.2766 9.07539ZM7.57659 19.6004C7.13596 19.6629 6.82659 20.0723 6.88909 20.5129C6.95159 20.9535 7.36096 21.2629 7.80159 21.2004H9.40159C9.68909 21.2035 9.95784 21.0535 10.1047 20.8035C10.2485 20.5535 10.2485 20.2473 10.1047 19.9973C9.95784 19.7473 9.68909 19.5973 9.40159 19.6004H7.80159C7.77659 19.6004 7.75159 19.6004 7.72659 19.6004C7.70159 19.6004 7.67659 19.6004 7.65159 19.6004C7.62659 19.6004 7.60159 19.6004 7.57659 19.6004ZM13.9766 19.6004C13.536 19.6629 13.2266 20.0723 13.2891 20.5129C13.3516 20.9535 13.761 21.2629 14.2016 21.2004H15.8016C16.0891 21.2035 16.3578 21.0535 16.5047 20.8035C16.6485 20.5535 16.6485 20.2473 16.5047 19.9973C16.3578 19.7473 16.0891 19.5973 15.8016 19.6004H14.2016C14.1766 19.6004 14.1516 19.6004 14.1266 19.6004C14.1016 19.6004 14.0766 19.6004 14.0516 19.6004C14.0266 19.6004 14.0016 19.6004 13.9766 19.6004ZM20.3766 19.6004C19.936 19.6629 19.6266 20.0723 19.6891 20.5129C19.7516 20.9535 20.161 21.2629 20.6016 21.2004H21.4016C21.6891 21.2035 21.9578 21.0535 22.1047 20.8035C22.2485 20.5535 22.2485 20.2473 22.1047 19.9973C21.9578 19.7473 21.6891 19.5973 21.4016 19.6004H20.6016C20.5766 19.6004 20.5516 19.6004 20.5266 19.6004C20.5016 19.6004 20.4766 19.6004 20.4516 19.6004C20.4266 19.6004 20.4016 19.6004 20.3766 19.6004ZM31.8766 20.1004L32.3516 22.0504L30.0266 22.6004L29.5766 20.6504C29.7891 20.8879 30.1235 20.9754 30.4266 20.8754L31.2016 20.7004C31.5266 20.6566 31.7953 20.4191 31.8766 20.1004ZM2.20159 24.4004H35.8016V26.0004H2.20159V24.4004ZM5.40159 27.6004H6.20159V33.6004C6.20159 33.8285 6.02971 34.0004 5.80159 34.0004C5.57346 34.0004 5.40159 33.8285 5.40159 33.6004V27.6004ZM31.8016 27.6004H32.6016V33.6004C32.6016 33.8285 32.4297 34.0004 32.2016 34.0004C31.9735 34.0004 31.8016 33.8285 31.8016 33.6004V27.6004Z" fill="#EF437B"/>
</svg>
