<svg width="32" height="38" viewBox="0 0 32 38" fill="none" xmlns="http://www.w3.org/2000/svg">
<path d="M5.60078 0.599609C2.96016 0.599609 0.800781 2.75898 0.800781 5.39961V32.934C0.800781 35.4746 3.06641 37.3996 5.60078 37.3996H31.2008V35.7996H5.60078C3.87266 35.7996 2.40078 34.5027 2.40078 32.934C2.40078 31.3652 3.84141 30.1996 5.60078 30.1996H31.2008V0.599609H5.60078ZM5.60078 2.19961H29.6008V28.5996H5.60078C4.40703 28.5996 3.27578 29.0309 2.40078 29.734V5.39961C2.40078 3.62461 3.82578 2.19961 5.60078 2.19961ZM8.00078 6.19961C7.12578 6.19961 6.40078 6.92461 6.40078 7.79961V10.9996C6.40078 11.8746 7.12578 12.5996 8.00078 12.5996H24.8008C25.6758 12.5996 26.4008 11.8746 26.4008 10.9996V7.79961C26.4008 6.92461 25.6758 6.19961 24.8008 6.19961H8.00078ZM8.00078 7.79961H24.8008V10.9996H8.00078V7.79961Z" fill="#EF437B"/>
</svg>
