<svg width="20" height="20" viewBox="0 0 20 20" fill="none" xmlns="http://www.w3.org/2000/svg">
<path d="M16.3386 18.0304C16.6315 18.3233 17.1064 18.3233 17.3993 18.0304C17.6922 17.7375 17.6922 17.2626 17.3993 16.9697L16.3386 18.0304ZM13.8637 13.4342C13.5709 13.1413 13.096 13.1413 12.8031 13.4342C12.5102 13.7271 12.5102 14.2019 12.8031 14.4948L13.8637 13.4342ZM17.3993 14.4948C17.6922 14.2019 17.6922 13.727 17.3993 13.4341C17.1064 13.1412 16.6315 13.1412 16.3386 13.4341L17.3993 14.4948ZM12.8031 16.9697C12.5102 17.2626 12.5102 17.7374 12.8031 18.0303C13.096 18.3232 13.5708 18.3232 13.8637 18.0303L12.8031 16.9697ZM4.28153 6.1377C3.8722 6.07431 3.48898 6.35475 3.42558 6.76408C3.36219 7.17342 3.64263 7.55664 4.05196 7.62003L4.28153 6.1377ZM7.22958 8.43942C7.61591 8.58881 8.0502 8.39674 8.1996 8.0104C8.349 7.62407 8.15692 7.18977 7.77059 7.04038L7.22958 8.43942ZM10.7501 5.04447C10.7501 4.63026 10.4143 4.29447 10.0001 4.29447C9.58587 4.29447 9.25008 4.63026 9.25008 5.04447H10.7501ZM10.0001 17.5V18.25C10.4143 18.25 10.7501 17.9142 10.7501 17.5H10.0001ZM3.32869 2.50939L3.4129 1.76414L3.32869 2.50939ZM9.43077 4.52037L9.86117 3.90616V3.90616L9.43077 4.52037ZM3.32869 15.3103L3.4129 14.565H3.4129L3.32869 15.3103ZM9.43077 17.3212L9.86117 16.707L9.86117 16.707L9.43077 17.3212ZM16.6715 2.50939L16.5873 1.76414L16.6715 2.50939ZM10.5694 4.52037L10.139 3.90616L10.139 3.90616L10.5694 4.52037ZM17.5834 11.6667C17.5834 12.0809 17.9192 12.4167 18.3334 12.4167C18.7476 12.4167 19.0834 12.0809 19.0834 11.6667H17.5834ZM4.28153 9.47104C3.8722 9.40764 3.48898 9.68808 3.42558 10.0974C3.36219 10.5068 3.64263 10.89 4.05196 10.9534L4.28153 9.47104ZM5.64994 11.2758C6.05157 11.3772 6.4593 11.1337 6.56063 10.7321C6.66196 10.3305 6.41852 9.92275 6.01689 9.82142L5.64994 11.2758ZM17.3993 16.9697L15.6315 15.2019L14.5709 16.2626L16.3386 18.0304L17.3993 16.9697ZM15.6315 15.2019L13.8637 13.4342L12.8031 14.4948L14.5709 16.2626L15.6315 15.2019ZM16.3386 13.4341L14.5708 15.2019L15.6315 16.2626L17.3993 14.4948L16.3386 13.4341ZM14.5709 15.2019L12.8031 16.9697L13.8637 18.0303L15.6315 16.2626L14.5709 15.2019ZM4.05196 7.62003C5.06978 7.77766 6.1913 8.03791 7.22958 8.43942L7.77059 7.04038C6.60516 6.5897 5.37334 6.30679 4.28153 6.1377L4.05196 7.62003ZM9.25008 5.04447V17.5H10.7501V5.04447H9.25008ZM3.24448 3.25465C5.0511 3.4588 7.38467 4.00242 9.00037 5.13459L9.86117 3.90616C7.93737 2.55811 5.30358 1.97778 3.4129 1.76414L3.24448 3.25465ZM3.24448 16.0555C5.0511 16.2597 7.38467 16.8033 9.00037 17.9355L9.86117 16.707C7.93737 15.359 5.30358 14.7787 3.4129 14.565L3.24448 16.0555ZM0.916748 4.11265V13.5H2.41675V4.11265H0.916748ZM3.4129 14.565C2.84611 14.501 2.41675 14.0305 2.41675 13.5H0.916748C0.916748 14.8547 1.98143 15.9128 3.24448 16.0555L3.4129 14.565ZM3.4129 1.76414C1.98388 1.60266 0.916748 2.79528 0.916748 4.11265H2.41675C2.41675 3.54475 2.84365 3.20936 3.24448 3.25465L3.4129 1.76414ZM16.5873 1.76414C14.6966 1.97778 12.0628 2.55811 10.139 3.90616L10.9998 5.13459C12.6155 4.00242 14.9491 3.4588 16.7557 3.25465L16.5873 1.76414ZM17.5834 4.11265V11.6667H19.0834V4.11265H17.5834ZM16.7557 3.25465C17.1565 3.20936 17.5834 3.54475 17.5834 4.11265H19.0834C19.0834 2.79528 18.0163 1.60266 16.5873 1.76414L16.7557 3.25465ZM9.00037 5.13459C9.59887 5.55397 10.4013 5.55397 10.9998 5.13459L10.139 3.90616C10.0572 3.96345 9.94292 3.96345 9.86117 3.90616L9.00037 5.13459ZM9.00037 17.9355C9.30085 18.146 9.65178 18.25 10.0001 18.25V16.75C9.94913 16.75 9.90082 16.7348 9.86117 16.707L9.00037 17.9355ZM4.05196 10.9534C4.56463 11.0328 5.1055 11.1385 5.64994 11.2758L6.01689 9.82142C5.42183 9.67129 4.83468 9.5567 4.28153 9.47104L4.05196 10.9534Z" fill="#868E96"/>
</svg>
