<svg width="20" height="20" viewBox="0 0 20 20" fill="none" xmlns="http://www.w3.org/2000/svg">
<g clip-path="url(#clip0_16117_44851)">
<path d="M18.8188 14.0693C18.5138 13.5727 17.8336 13.2683 17.1234 13.648C16.6701 13.8902 16.1245 14.1904 15.5468 14.5082C14.7988 14.9195 14.0273 15.344 13.4522 15.644C11.6204 14.6123 8.99643 14.1682 8.22159 14.0552C6.97601 13.8732 4.65564 14.7754 3.97745 15.0546C3.89283 14.9128 3.75491 14.8086 3.59283 14.764C3.43076 14.7193 3.2572 14.7377 3.10881 14.8153L2.29654 15.2395C2.17134 15.3052 2.07165 15.4089 2.01268 15.5349C1.95372 15.6609 1.93872 15.8022 1.96997 15.9372L1.4445 16.2091C1.24837 16.3109 1.10171 16.4842 1.03671 16.6911C0.971696 16.8981 0.993646 17.1216 1.09774 17.3128L2.3309 19.567C2.43528 19.758 2.61329 19.9009 2.82581 19.9642C3.03834 20.0276 3.268 20.0062 3.46432 19.9047L4.03011 19.6121C4.129 19.684 4.24695 19.7269 4.37005 19.7357C4.49315 19.7446 4.61628 19.719 4.72494 19.662L5.53721 19.2379C5.63883 19.1847 5.72409 19.1061 5.78427 19.0103C5.84446 18.9145 5.8774 18.8048 5.87972 18.6925C6.40055 18.5844 7.12359 18.5157 9.17194 19.2855C9.64985 19.4643 10.1578 19.5548 10.6698 19.5525C12.8623 19.5525 15.1093 18.0059 16.9834 16.7158C17.4541 16.3919 17.8988 16.0859 18.3142 15.8233C19.0971 15.3284 19.1246 14.5672 18.8188 14.0693ZM3.22092 19.4586C3.14607 19.4972 3.05855 19.5054 2.97757 19.4812C2.89659 19.457 2.82876 19.4026 2.78899 19.3298L1.55579 17.0756C1.51616 17.0027 1.50782 16.9176 1.53259 16.8388C1.55737 16.7599 1.61324 16.6939 1.68795 16.6552L2.19337 16.3937L3.73015 19.1952L3.22092 19.4586ZM5.29203 18.7927L4.47976 19.2168C4.44903 19.2328 4.41303 19.2363 4.37964 19.2266C4.34624 19.2168 4.31819 19.1946 4.30161 19.1647L2.48792 15.8584C2.47143 15.8284 2.46784 15.7933 2.47793 15.7607C2.48802 15.7281 2.51096 15.7008 2.54173 15.6847L3.35404 15.2606C3.37301 15.2506 3.39426 15.2454 3.41585 15.2454C3.42889 15.2454 3.44186 15.2472 3.45436 15.2509C3.47087 15.2557 3.48624 15.2636 3.4996 15.2742C3.51295 15.2848 3.52403 15.2979 3.53218 15.3127L5.34588 18.619C5.36235 18.649 5.36593 18.6841 5.35583 18.7167C5.34574 18.7493 5.32279 18.7766 5.29203 18.7927ZM18.0317 15.3995C17.6075 15.6675 17.1589 15.9764 16.6839 16.3033C14.4804 17.8202 11.7376 19.708 9.35876 18.8142C7.0856 17.9601 6.30457 18.0823 5.71043 18.2114L4.22434 15.5021C4.91984 15.2197 7.06814 14.3975 8.14469 14.5547C8.90663 14.666 11.5104 15.1057 13.263 16.1215C13.2456 16.2288 13.1109 16.4803 12.8792 16.6308C12.2865 17.016 10.2298 16.6019 9.07273 16.2503C9.00731 16.2312 8.9368 16.238 8.87648 16.2692C8.81617 16.3004 8.77093 16.3535 8.75058 16.417C8.73022 16.4804 8.7364 16.5492 8.76777 16.6082C8.79913 16.6673 8.85316 16.7119 8.91812 16.7325C9.16008 16.8061 10.7938 17.2881 12.0409 17.2881C12.4971 17.2881 12.9016 17.2236 13.1673 17.051C13.5196 16.8221 13.7901 16.3969 13.7832 16.083C13.7829 16.0704 13.7815 16.0582 13.7804 16.046C14.3505 15.7465 15.0869 15.3416 15.802 14.9482C16.3783 14.6311 16.9226 14.3317 17.373 14.091C17.8175 13.8534 18.1958 14.0393 18.3736 14.3288C18.548 14.6126 18.5632 15.0636 18.0317 15.3995ZM6.17164 12.8972H14.8333C14.9021 12.8972 14.9681 12.8706 15.0168 12.8232C15.0654 12.7758 15.0928 12.7116 15.0928 12.6446V1.25257C15.0928 1.18559 15.0654 1.12134 15.0168 1.07398C14.9681 1.02661 14.9021 1 14.8333 1H6.17164C5.89951 0.999331 5.63821 1.10378 5.44507 1.29042C5.25193 1.47707 5.14271 1.73069 5.14138 1.99563V11.8939C5.14169 12.1598 5.25032 12.4148 5.44346 12.6029C5.63659 12.791 5.89847 12.8968 6.17164 12.8972ZM14.5739 1.50514V10.8906H6.43105V1.50514H14.5739ZM5.91222 1.57132V10.9228C5.8239 10.9453 5.73907 10.9792 5.65996 11.0235V1.99563C5.65934 1.90943 5.6824 1.82464 5.72675 1.75003C5.7711 1.67543 5.83514 1.61373 5.91222 1.57132ZM6.17164 11.3957H14.5739V12.392H6.17164C6.10408 12.3926 6.03707 12.3801 5.97449 12.3553C5.91191 12.3306 5.85499 12.294 5.80701 12.2476C5.75904 12.2013 5.72096 12.1462 5.69497 12.0855C5.66898 12.0248 5.6556 11.9597 5.6556 11.8939C5.6556 11.8281 5.66898 11.763 5.69497 11.7023C5.72096 11.6415 5.75904 11.5864 5.80701 11.5401C5.85499 11.4938 5.91191 11.4572 5.97449 11.4324C6.03707 11.4076 6.10408 11.3952 6.17164 11.3957ZM7.86463 6.57031C7.86463 6.50333 7.89196 6.43909 7.94061 6.39172C7.98926 6.34435 8.05524 6.31774 8.12405 6.31774H12.7343C12.8031 6.31774 12.869 6.34435 12.9177 6.39172C12.9663 6.43909 12.9937 6.50333 12.9937 6.57031C12.9937 6.6373 12.9663 6.70154 12.9177 6.74891C12.869 6.79627 12.8031 6.82288 12.7343 6.82288H8.12405C8.05526 6.82285 7.98931 6.79623 7.94068 6.74887C7.89206 6.7015 7.86463 6.63728 7.86463 6.57031ZM7.86463 7.73664C7.86463 7.66966 7.89196 7.60541 7.94061 7.55805C7.98926 7.51068 8.05524 7.48407 8.12405 7.48407H12.7343C12.8031 7.48407 12.869 7.51068 12.9177 7.55805C12.9663 7.60541 12.9937 7.66966 12.9937 7.73664C12.9937 7.80363 12.9663 7.86787 12.9177 7.91524C12.869 7.9626 12.8031 7.98921 12.7343 7.98921H8.12405C8.05526 7.98918 7.98931 7.96256 7.94068 7.9152C7.89206 7.86783 7.86463 7.80361 7.86463 7.73664ZM7.86463 8.90297C7.86463 8.83598 7.89196 8.77174 7.94061 8.72438C7.98926 8.67701 8.05524 8.6504 8.12405 8.6504H12.7343C12.8031 8.6504 12.869 8.67701 12.9177 8.72438C12.9663 8.77174 12.9937 8.83598 12.9937 8.90297C12.9937 8.96996 12.9663 9.0342 12.9177 9.08156C12.869 9.12893 12.8031 9.15554 12.7343 9.15554H8.12405C8.05526 9.15551 7.98931 9.12889 7.94068 9.08153C7.89206 9.03416 7.86463 8.96994 7.86463 8.90297Z" fill="#9A469B" stroke="#9A469B" stroke-width="0.3"/>
<path d="M7.63079 4.48686C7.6991 4.49885 7.75353 4.52697 7.79409 4.57123C7.83572 4.61457 7.85653 4.66574 7.85653 4.72476C7.85653 4.80682 7.82451 4.87183 7.76047 4.91978C7.6975 4.96681 7.60571 4.99032 7.4851 4.99032H7V4.01383H7.47549C7.5897 4.01383 7.67722 4.0355 7.73806 4.07884C7.79996 4.12218 7.83091 4.18303 7.83091 4.26141C7.83091 4.32227 7.81224 4.37206 7.77488 4.41079C7.73859 4.44952 7.69056 4.47487 7.63079 4.48686ZM7.22574 4.42324H7.42907C7.48563 4.42324 7.52833 4.41263 7.55715 4.39142C7.58703 4.36929 7.60197 4.33794 7.60197 4.29737C7.60197 4.2568 7.58756 4.22545 7.55875 4.20332C7.52993 4.18119 7.48563 4.17012 7.42586 4.17012H7.22574V4.42324ZM7.44027 4.83126C7.50004 4.83126 7.54594 4.82019 7.57796 4.79806C7.60998 4.77501 7.62599 4.74182 7.62599 4.69848C7.62599 4.65514 7.60944 4.62195 7.57636 4.59889C7.54434 4.57492 7.49844 4.56293 7.43867 4.56293H7.22574V4.83126H7.44027Z" fill="#9A469B"/>
<path d="M8.54462 4C8.65028 4 8.74581 4.02121 8.8312 4.06362C8.91765 4.10604 8.98543 4.16551 9.03452 4.24205C9.08469 4.31766 9.10977 4.40341 9.10977 4.49931C9.10977 4.59521 9.08469 4.68142 9.03452 4.75795C8.98543 4.83449 8.91765 4.89396 8.8312 4.93638C8.74581 4.97879 8.65028 5 8.54462 5C8.43895 5 8.34289 4.97879 8.25644 4.93638C8.17105 4.89396 8.10328 4.83449 8.05312 4.75795C8.00402 4.68142 7.97947 4.59521 7.97947 4.49931C7.97947 4.40341 8.00402 4.31766 8.05312 4.24205C8.10328 4.16551 8.17105 4.10604 8.25644 4.06362C8.34289 4.02121 8.43895 4 8.54462 4ZM8.54462 4.17981C8.47845 4.17981 8.42028 4.19272 8.37011 4.21853C8.31995 4.24435 8.28046 4.2817 8.25164 4.33057C8.22389 4.37852 8.21001 4.43476 8.21001 4.49931C8.21001 4.56385 8.22389 4.62056 8.25164 4.66943C8.28046 4.71738 8.31995 4.75426 8.37011 4.78008C8.42028 4.8059 8.47845 4.81881 8.54462 4.81881C8.61079 4.81881 8.66896 4.8059 8.71913 4.78008C8.76929 4.75426 8.80825 4.71738 8.836 4.66943C8.86482 4.62056 8.87923 4.56385 8.87923 4.49931C8.87923 4.43476 8.86482 4.37852 8.836 4.33057C8.80825 4.2817 8.76929 4.24435 8.71913 4.21853C8.66896 4.19272 8.61079 4.17981 8.54462 4.17981Z" fill="#9A469B"/>
<path d="M9.8687 4.99032L9.60454 4.60996H9.50528V4.99032H9.27954V4.01383H9.7102C9.84149 4.01383 9.94128 4.04149 10.0096 4.09682C10.079 4.15214 10.1137 4.22499 10.1137 4.31535C10.1137 4.38912 10.0896 4.4509 10.0416 4.50069C9.99465 4.55048 9.92634 4.58368 9.83668 4.60028L10.1185 4.99032H9.8687ZM9.50528 4.4758H9.69099C9.82014 4.4758 9.88471 4.42646 9.88471 4.3278C9.88471 4.28077 9.8687 4.24435 9.83668 4.21853C9.80573 4.19179 9.75717 4.17842 9.69099 4.17842H9.50528V4.4758Z" fill="#9A469B"/>
<path d="M10.8553 4.99032L10.5911 4.60996H10.4918V4.99032H10.2661V4.01383H10.6968C10.828 4.01383 10.9278 4.04149 10.9961 4.09682C11.0655 4.15214 11.1002 4.22499 11.1002 4.31535C11.1002 4.38912 11.0762 4.4509 11.0282 4.50069C10.9812 4.55048 10.9129 4.58368 10.8232 4.60028L11.105 4.99032H10.8553ZM10.4918 4.4758H10.6775C10.8067 4.4758 10.8713 4.42646 10.8713 4.3278C10.8713 4.28077 10.8553 4.24435 10.8232 4.21853C10.7923 4.19179 10.7437 4.17842 10.6775 4.17842H10.4918V4.4758Z" fill="#9A469B"/>
<path d="M11.7826 4C11.8882 4 11.9838 4.02121 12.0691 4.06362C12.1556 4.10604 12.2234 4.16551 12.2725 4.24205C12.3226 4.31766 12.3477 4.40341 12.3477 4.49931C12.3477 4.59521 12.3226 4.68142 12.2725 4.75795C12.2234 4.83449 12.1556 4.89396 12.0691 4.93638C11.9838 4.97879 11.8882 5 11.7826 5C11.6769 5 11.5808 4.97879 11.4944 4.93638C11.409 4.89396 11.3412 4.83449 11.2911 4.75795C11.242 4.68142 11.2174 4.59521 11.2174 4.49931C11.2174 4.40341 11.242 4.31766 11.2911 4.24205C11.3412 4.16551 11.409 4.10604 11.4944 4.06362C11.5808 4.02121 11.6769 4 11.7826 4ZM11.7826 4.17981C11.7164 4.17981 11.6582 4.19272 11.6081 4.21853C11.5579 4.24435 11.5184 4.2817 11.4896 4.33057C11.4618 4.37852 11.448 4.43476 11.448 4.49931C11.448 4.56385 11.4618 4.62056 11.4896 4.66943C11.5184 4.71738 11.5579 4.75426 11.6081 4.78008C11.6582 4.8059 11.7164 4.81881 11.7826 4.81881C11.8487 4.81881 11.9069 4.8059 11.9571 4.78008C12.0072 4.75426 12.0462 4.71738 12.0739 4.66943C12.1028 4.62056 12.1172 4.56385 12.1172 4.49931C12.1172 4.43476 12.1028 4.37852 12.0739 4.33057C12.0462 4.2817 12.0072 4.24435 11.9571 4.21853C11.9069 4.19272 11.8487 4.17981 11.7826 4.17981Z" fill="#9A469B"/>
<path d="M14 4.01383L13.723 4.99032H13.4445L13.2331 4.28216L13.0202 4.99032H12.7432L12.4662 4.01383H12.7112L12.8841 4.7704L13.1082 4.01383H13.3564L13.5821 4.7704L13.755 4.01383H14Z" fill="#9A469B"/>
</g>
<defs>
<clipPath id="clip0_16117_44851">
<rect width="20" height="20" fill="white"/>
</clipPath>
</defs>
</svg>
