<svg width="20" height="21" viewBox="0 0 20 21" fill="none" xmlns="http://www.w3.org/2000/svg">
<g clip-path="url(#clip0_16205_37745)">
<path d="M18.8188 14.5693C18.5138 14.0727 17.8336 13.7683 17.1234 14.148C16.6701 14.3902 16.1245 14.6904 15.5468 15.0082C14.7988 15.4195 14.0273 15.844 13.4522 16.144C11.6204 15.1123 8.99643 14.6682 8.22159 14.5552C6.97601 14.3732 4.65564 15.2754 3.97745 15.5546C3.89283 15.4128 3.75491 15.3086 3.59283 15.264C3.43076 15.2193 3.2572 15.2377 3.10881 15.3153L2.29654 15.7395C2.17134 15.8052 2.07165 15.9089 2.01268 16.0349C1.95372 16.1609 1.93872 16.3022 1.96997 16.4372L1.4445 16.7091C1.24837 16.8109 1.10171 16.9842 1.03671 17.1911C0.971696 17.398 0.993646 17.6216 1.09774 17.8128L2.3309 20.067C2.43528 20.258 2.61329 20.4009 2.82581 20.4642C3.03834 20.5276 3.268 20.5062 3.46432 20.4047L4.03011 20.1121C4.129 20.184 4.24695 20.2269 4.37005 20.2357C4.49315 20.2446 4.61628 20.219 4.72494 20.162L5.53721 19.7379C5.63883 19.6847 5.72409 19.6061 5.78427 19.5103C5.84446 19.4145 5.8774 19.3048 5.87972 19.1925C6.40055 19.0844 7.12359 19.0157 9.17194 19.7855C9.64985 19.9643 10.1578 20.0548 10.6698 20.0525C12.8623 20.0525 15.1093 18.5059 16.9834 17.2158C17.4541 16.8919 17.8988 16.5859 18.3142 16.3233C19.0971 15.8284 19.1246 15.0672 18.8188 14.5693ZM3.22092 19.9586C3.14607 19.9972 3.05855 20.0053 2.97757 19.9812C2.89659 19.957 2.82876 19.9026 2.78899 19.8298L1.55579 17.5756C1.51616 17.5027 1.50782 17.4176 1.53259 17.3388C1.55737 17.2599 1.61324 17.1939 1.68795 17.1552L2.19337 16.8937L3.73015 19.6952L3.22092 19.9586ZM5.29203 19.2927L4.47976 19.7168C4.44903 19.7328 4.41303 19.7363 4.37964 19.7266C4.34624 19.7168 4.31819 19.6946 4.30161 19.6647L2.48792 16.3584C2.47143 16.3284 2.46784 16.2933 2.47793 16.2607C2.48802 16.2281 2.51096 16.2008 2.54173 16.1847L3.35404 15.7606C3.37302 15.7506 3.39426 15.7454 3.41585 15.7454C3.42889 15.7454 3.44186 15.7472 3.45436 15.7509C3.47087 15.7557 3.48624 15.7636 3.4996 15.7742C3.51295 15.7848 3.52403 15.7979 3.53218 15.8127L5.34588 19.119C5.36235 19.149 5.36593 19.1841 5.35583 19.2167C5.34574 19.2493 5.32279 19.2766 5.29203 19.2927ZM18.0317 15.8995C17.6075 16.1675 17.1589 16.4764 16.6839 16.8033C14.4804 18.3202 11.7376 20.208 9.35876 19.3142C7.0856 18.4601 6.30457 18.5823 5.71043 18.7114L4.22434 16.0021C4.91984 15.7197 7.06815 14.8975 8.14469 15.0547C8.90663 15.166 11.5104 15.6057 13.263 16.6215C13.2456 16.7288 13.1109 16.9803 12.8792 17.1308C12.2865 17.516 10.2298 17.1019 9.07273 16.7503C9.00731 16.7312 8.9368 16.738 8.87648 16.7692C8.81617 16.8004 8.77093 16.8535 8.75058 16.917C8.73022 16.9804 8.7364 17.0492 8.76777 17.1082C8.79913 17.1673 8.85316 17.2119 8.91812 17.2325C9.16008 17.3061 10.7938 17.7881 12.0409 17.7881C12.4971 17.7881 12.9016 17.7236 13.1673 17.551C13.5196 17.3221 13.7901 16.8969 13.7832 16.583C13.7829 16.5704 13.7815 16.5582 13.7804 16.546C14.3505 16.2465 15.0869 15.8416 15.802 15.4482C16.3783 15.1311 16.9226 14.8317 17.373 14.591C17.8175 14.3534 18.1958 14.5393 18.3736 14.8288C18.548 15.1126 18.5632 15.5636 18.0317 15.8995ZM6.17164 13.3972H14.8333C14.9021 13.3972 14.9681 13.3706 15.0168 13.3232C15.0654 13.2758 15.0928 13.2116 15.0928 13.1446V1.75257C15.0928 1.68559 15.0654 1.62134 15.0168 1.57398C14.9681 1.52661 14.9021 1.5 14.8333 1.5H6.17164C5.89951 1.49933 5.63821 1.60378 5.44507 1.79042C5.25193 1.97707 5.14272 2.23069 5.14138 2.49563V12.3939C5.14169 12.6598 5.25032 12.9148 5.44346 13.1029C5.63659 13.291 5.89847 13.3968 6.17164 13.3972ZM14.5739 2.00514V11.3906H6.43105V2.00514H14.5739ZM5.91222 2.07132V11.4228C5.8239 11.4453 5.73907 11.4792 5.65996 11.5235V2.49563C5.65934 2.40943 5.6824 2.32464 5.72675 2.25003C5.7711 2.17543 5.83514 2.11373 5.91222 2.07132ZM6.17164 11.8957H14.5739V12.892H6.17164C6.10408 12.8926 6.03707 12.8801 5.97449 12.8553C5.91191 12.8306 5.85499 12.794 5.80701 12.7476C5.75904 12.7013 5.72096 12.6462 5.69497 12.5855C5.66898 12.5248 5.6556 12.4597 5.6556 12.3939C5.6556 12.3281 5.66898 12.263 5.69497 12.2023C5.72096 12.1415 5.75904 12.0864 5.80701 12.0401C5.85499 11.9938 5.91191 11.9572 5.97449 11.9324C6.03707 11.9076 6.10408 11.8952 6.17164 11.8957ZM7.86463 7.07031C7.86463 7.00333 7.89196 6.93908 7.94061 6.89172C7.98926 6.84435 8.05524 6.81774 8.12405 6.81774H12.7343C12.8031 6.81774 12.869 6.84435 12.9177 6.89172C12.9663 6.93908 12.9937 7.00333 12.9937 7.07031C12.9937 7.1373 12.9663 7.20154 12.9177 7.24891C12.869 7.29627 12.8031 7.32288 12.7343 7.32288H8.12405C8.05526 7.32285 7.98931 7.29623 7.94068 7.24887C7.89206 7.2015 7.86463 7.13728 7.86463 7.07031ZM7.86463 8.23664C7.86463 8.16966 7.89196 8.10541 7.94061 8.05805C7.98926 8.01068 8.05524 7.98407 8.12405 7.98407H12.7343C12.8031 7.98407 12.869 8.01068 12.9177 8.05805C12.9663 8.10541 12.9937 8.16966 12.9937 8.23664C12.9937 8.30363 12.9663 8.36787 12.9177 8.41524C12.869 8.4626 12.8031 8.48921 12.7343 8.48921H8.12405C8.05526 8.48918 7.98931 8.46256 7.94068 8.4152C7.89206 8.36783 7.86463 8.30361 7.86463 8.23664ZM7.86463 9.40297C7.86463 9.33598 7.89196 9.27174 7.94061 9.22438C7.98926 9.17701 8.05524 9.1504 8.12405 9.1504H12.7343C12.8031 9.1504 12.869 9.17701 12.9177 9.22438C12.9663 9.27174 12.9937 9.33598 12.9937 9.40297C12.9937 9.46996 12.9663 9.5342 12.9177 9.58156C12.869 9.62893 12.8031 9.65554 12.7343 9.65554H8.12405C8.05526 9.65551 7.98931 9.62889 7.94068 9.58153C7.89206 9.53416 7.86463 9.46994 7.86463 9.40297Z" fill="white" stroke="white" stroke-width="0.3"/>
<path d="M7.63079 4.98686C7.6991 4.99885 7.75353 5.02697 7.79409 5.07123C7.83572 5.11457 7.85653 5.16574 7.85653 5.22476C7.85653 5.30682 7.82451 5.37183 7.76047 5.41978C7.6975 5.46681 7.60571 5.49032 7.4851 5.49032H7V4.51383H7.47549C7.5897 4.51383 7.67722 4.5355 7.73806 4.57884C7.79996 4.62218 7.83091 4.68303 7.83091 4.76141C7.83091 4.82227 7.81224 4.87206 7.77488 4.91079C7.73859 4.94952 7.69056 4.97487 7.63079 4.98686ZM7.22574 4.92324H7.42907C7.48563 4.92324 7.52833 4.91263 7.55715 4.89142C7.58703 4.86929 7.60197 4.83794 7.60197 4.79737C7.60197 4.7568 7.58756 4.72545 7.55875 4.70332C7.52993 4.68119 7.48563 4.67012 7.42586 4.67012H7.22574V4.92324ZM7.44027 5.33126C7.50004 5.33126 7.54594 5.32019 7.57796 5.29806C7.60998 5.27501 7.62599 5.24182 7.62599 5.19848C7.62599 5.15514 7.60944 5.12195 7.57636 5.09889C7.54434 5.07492 7.49844 5.06293 7.43867 5.06293H7.22574V5.33126H7.44027Z" fill="white"/>
<path d="M8.54462 4.5C8.65028 4.5 8.74581 4.52121 8.8312 4.56362C8.91765 4.60604 8.98543 4.66551 9.03452 4.74205C9.08469 4.81766 9.10977 4.90341 9.10977 4.99931C9.10977 5.09521 9.08469 5.18142 9.03452 5.25795C8.98543 5.33449 8.91765 5.39396 8.8312 5.43638C8.74581 5.47879 8.65028 5.5 8.54462 5.5C8.43895 5.5 8.34289 5.47879 8.25644 5.43638C8.17105 5.39396 8.10328 5.33449 8.05312 5.25795C8.00402 5.18142 7.97947 5.09521 7.97947 4.99931C7.97947 4.90341 8.00402 4.81766 8.05312 4.74205C8.10328 4.66551 8.17105 4.60604 8.25644 4.56362C8.34289 4.52121 8.43895 4.5 8.54462 4.5ZM8.54462 4.67981C8.47845 4.67981 8.42028 4.69272 8.37011 4.71853C8.31995 4.74435 8.28046 4.7817 8.25164 4.83057C8.22389 4.87852 8.21001 4.93476 8.21001 4.99931C8.21001 5.06385 8.22389 5.12056 8.25164 5.16943C8.28046 5.21738 8.31995 5.25426 8.37011 5.28008C8.42028 5.3059 8.47845 5.31881 8.54462 5.31881C8.61079 5.31881 8.66896 5.3059 8.71913 5.28008C8.76929 5.25426 8.80825 5.21738 8.836 5.16943C8.86482 5.12056 8.87923 5.06385 8.87923 4.99931C8.87923 4.93476 8.86482 4.87852 8.836 4.83057C8.80825 4.7817 8.76929 4.74435 8.71913 4.71853C8.66896 4.69272 8.61079 4.67981 8.54462 4.67981Z" fill="white"/>
<path d="M9.8687 5.49032L9.60454 5.10996H9.50528V5.49032H9.27954V4.51383H9.7102C9.84149 4.51383 9.94128 4.54149 10.0096 4.59682C10.079 4.65214 10.1137 4.72499 10.1137 4.81535C10.1137 4.88912 10.0896 4.9509 10.0416 5.00069C9.99465 5.05048 9.92634 5.08368 9.83668 5.10028L10.1185 5.49032H9.8687ZM9.50528 4.9758H9.69099C9.82014 4.9758 9.88471 4.92646 9.88471 4.8278C9.88471 4.78077 9.8687 4.74435 9.83668 4.71853C9.80573 4.69179 9.75717 4.67842 9.69099 4.67842H9.50528V4.9758Z" fill="white"/>
<path d="M10.8553 5.49032L10.5911 5.10996H10.4918V5.49032H10.2661V4.51383H10.6968C10.828 4.51383 10.9278 4.54149 10.9961 4.59682C11.0655 4.65214 11.1002 4.72499 11.1002 4.81535C11.1002 4.88912 11.0762 4.9509 11.0282 5.00069C10.9812 5.05048 10.9129 5.08368 10.8232 5.10028L11.105 5.49032H10.8553ZM10.4918 4.9758H10.6775C10.8067 4.9758 10.8713 4.92646 10.8713 4.8278C10.8713 4.78077 10.8553 4.74435 10.8232 4.71853C10.7923 4.69179 10.7437 4.67842 10.6775 4.67842H10.4918V4.9758Z" fill="white"/>
<path d="M11.7826 4.5C11.8882 4.5 11.9838 4.52121 12.0691 4.56362C12.1556 4.60604 12.2234 4.66551 12.2725 4.74205C12.3226 4.81766 12.3477 4.90341 12.3477 4.99931C12.3477 5.09521 12.3226 5.18142 12.2725 5.25795C12.2234 5.33449 12.1556 5.39396 12.0691 5.43638C11.9838 5.47879 11.8882 5.5 11.7826 5.5C11.6769 5.5 11.5808 5.47879 11.4944 5.43638C11.409 5.39396 11.3412 5.33449 11.2911 5.25795C11.242 5.18142 11.2174 5.09521 11.2174 4.99931C11.2174 4.90341 11.242 4.81766 11.2911 4.74205C11.3412 4.66551 11.409 4.60604 11.4944 4.56362C11.5808 4.52121 11.6769 4.5 11.7826 4.5ZM11.7826 4.67981C11.7164 4.67981 11.6582 4.69272 11.6081 4.71853C11.5579 4.74435 11.5184 4.7817 11.4896 4.83057C11.4618 4.87852 11.448 4.93476 11.448 4.99931C11.448 5.06385 11.4618 5.12056 11.4896 5.16943C11.5184 5.21738 11.5579 5.25426 11.6081 5.28008C11.6582 5.3059 11.7164 5.31881 11.7826 5.31881C11.8487 5.31881 11.9069 5.3059 11.9571 5.28008C12.0072 5.25426 12.0462 5.21738 12.0739 5.16943C12.1028 5.12056 12.1172 5.06385 12.1172 4.99931C12.1172 4.93476 12.1028 4.87852 12.0739 4.83057C12.0462 4.7817 12.0072 4.74435 11.9571 4.71853C11.9069 4.69272 11.8487 4.67981 11.7826 4.67981Z" fill="white"/>
<path d="M14 4.51383L13.723 5.49032H13.4445L13.2331 4.78216L13.0202 5.49032H12.7432L12.4662 4.51383H12.7112L12.8841 5.2704L13.1082 4.51383H13.3564L13.5821 5.2704L13.755 4.51383H14Z" fill="white"/>
</g>
<defs>
<clipPath id="clip0_16205_37745">
<rect width="20" height="20" fill="white" transform="translate(0 0.5)"/>
</clipPath>
</defs>
</svg>
