<svg width="25" height="25" viewBox="0 0 25 25" fill="none" xmlns="http://www.w3.org/2000/svg">
<path d="M4.49902 20C4.49902 19.337 4.76242 18.7011 5.23126 18.2322C5.7001 17.7634 6.33598 17.5 6.99902 17.5H20.499M4.49902 20C4.49902 20.663 4.76242 21.2989 5.23126 21.7678C5.7001 22.2366 6.33598 22.5 6.99902 22.5H20.499V2.5H6.99902C6.33598 2.5 5.7001 2.76339 5.23126 3.23223C4.76242 3.70107 4.49902 4.33696 4.49902 5V20Z" stroke="white" stroke-width="1.2" stroke-linecap="round" stroke-linejoin="round"/>
<path d="M9.7354 11.746C9.9402 11.794 10.1018 11.8932 10.2202 12.0436C10.3418 12.194 10.4026 12.3684 10.4026 12.5668C10.4026 12.858 10.305 13.0852 10.1098 13.2484C9.9178 13.4116 9.641 13.4932 9.2794 13.4932H7.7002V10.0996H9.241C9.5866 10.0996 9.8538 10.1748 10.0426 10.3252C10.2314 10.4756 10.3258 10.69 10.3258 10.9684C10.3258 11.1732 10.2714 11.3444 10.1626 11.482C10.0538 11.6164 9.9114 11.7044 9.7354 11.746ZM8.521 11.4868H9.0586C9.3434 11.4868 9.4858 11.3652 9.4858 11.122C9.4858 10.8788 9.3402 10.7572 9.049 10.7572H8.521V11.4868ZM9.1066 12.826C9.4106 12.826 9.5626 12.7012 9.5626 12.4516C9.5626 12.33 9.5226 12.2356 9.4426 12.1684C9.3626 12.098 9.249 12.0628 9.1018 12.0628H8.521V12.826H9.1066Z" fill="white"/>
<path d="M11.6329 10.0996V12.058C11.6329 12.282 11.6825 12.4532 11.7817 12.5716C11.8841 12.69 12.0313 12.7492 12.2233 12.7492C12.4153 12.7492 12.5609 12.69 12.6601 12.5716C12.7625 12.4532 12.8137 12.282 12.8137 12.058V10.0996H13.6345V12.058C13.6345 12.378 13.5721 12.6484 13.4473 12.8692C13.3225 13.0868 13.1513 13.2516 12.9337 13.3636C12.7193 13.4724 12.4761 13.5268 12.2041 13.5268C11.9321 13.5268 11.6921 13.4724 11.4841 13.3636C11.2761 13.2548 11.1129 13.09 10.9945 12.8692C10.8761 12.6484 10.8169 12.378 10.8169 12.058V10.0996H11.6329Z" fill="white"/>
<path d="M17.1158 10.0996L15.9398 12.3652V13.4932H15.1142V12.3652L13.9382 10.0996H14.879L15.5318 11.482L16.1846 10.0996H17.1158Z" fill="white"/>
<path d="M4.10059 7.9402H20.9006V7.4602H4.10059V7.9402ZM20.9006 14.6602H4.10059V15.1402H20.9006V14.6602Z" fill="white" mask="url(#path-2-inside-1_16147_35523)"/>
<path d="M6.73926 19.46H17.0593" stroke="white" stroke-width="0.48" stroke-linecap="round"/>
<path d="M10.3398 20.6602H14.6598" stroke="white" stroke-width="0.48" stroke-linecap="round"/>
</svg>
