<svg width="20" height="20" viewBox="0 0 20 20" fill="none" xmlns="http://www.w3.org/2000/svg">
<path d="M3.33203 16.25C3.33203 15.6975 3.55152 15.1676 3.94223 14.7769C4.33293 14.3862 4.86283 14.1667 5.41536 14.1667H16.6654M3.33203 16.25C3.33203 16.8026 3.55152 17.3325 3.94223 17.7232C4.33293 18.1139 4.86283 18.3334 5.41536 18.3334H16.6654V1.66669H5.41536C4.86283 1.66669 4.33293 1.88618 3.94223 2.27688C3.55152 2.66758 3.33203 3.19749 3.33203 3.75002V16.25Z" stroke="#EF437B" stroke-linecap="round" stroke-linejoin="round"/>
<path d="M7.696 9.372C7.86667 9.412 8.00133 9.49467 8.1 9.62C8.20133 9.74533 8.252 9.89067 8.252 10.056C8.252 10.2987 8.17067 10.488 8.008 10.624C7.848 10.76 7.61733 10.828 7.316 10.828H6V8H7.284C7.572 8 7.79467 8.06267 7.952 8.188C8.10933 8.31333 8.188 8.492 8.188 8.724C8.188 8.89467 8.14267 9.03733 8.052 9.152C7.96133 9.264 7.84267 9.33733 7.696 9.372ZM6.684 9.156H7.132C7.36933 9.156 7.488 9.05467 7.488 8.852C7.488 8.64933 7.36667 8.548 7.124 8.548H6.684V9.156ZM7.172 10.272C7.42533 10.272 7.552 10.168 7.552 9.96C7.552 9.85867 7.51867 9.78 7.452 9.724C7.38533 9.66533 7.29067 9.636 7.168 9.636H6.684V10.272H7.172Z" fill="#EF437B"/>
<path d="M9.27728 8V9.632C9.27728 9.81867 9.31861 9.96133 9.40128 10.06C9.48661 10.1587 9.60928 10.208 9.76928 10.208C9.92928 10.208 10.0506 10.1587 10.1333 10.06C10.2186 9.96133 10.2613 9.81867 10.2613 9.632V8H10.9453V9.632C10.9453 9.89867 10.8933 10.124 10.7893 10.308C10.6853 10.4893 10.5426 10.6267 10.3613 10.72C10.1826 10.8107 9.97995 10.856 9.75328 10.856C9.52661 10.856 9.32661 10.8107 9.15328 10.72C8.97995 10.6293 8.84395 10.492 8.74528 10.308C8.64661 10.124 8.59728 9.89867 8.59728 9.632V8H9.27728Z" fill="#EF437B"/>
<path d="M13.8463 8L12.8663 9.888V10.828H12.1783V9.888L11.1983 8H11.9823L12.5263 9.152L13.0703 8H13.8463Z" fill="#EF437B"/>
<path d="M3 6.2H17V5.8H3V6.2ZM17 11.8H3V12.2H17V11.8Z" fill="#EF437B" mask="url(#path-2-inside-1_16110_44742)"/>
<path d="M5.19922 15.8H13.7992" stroke="#EF437B" stroke-width="0.4" stroke-linecap="round"/>
<path d="M8.19922 16.8H11.7992" stroke="#EF437B" stroke-width="0.4" stroke-linecap="round"/>
</svg>
