<svg width="25" height="25" viewBox="0 0 25 25" fill="none" xmlns="http://www.w3.org/2000/svg">
<path d="M14.6755 4.72225C14.6766 3.49445 12.1731 2.5 9.08832 2.5C6.00357 2.5 3.50224 3.49557 3.5 4.72225M3.5 4.72225C3.5 5.95004 6.00133 6.94449 9.08832 6.94449C12.1753 6.94449 14.6766 5.95004 14.6766 4.72225L14.6766 13.3445M3.5 4.72225V18.0556C3.50112 19.2834 6.00245 20.2779 9.08832 20.2779C10.5849 20.2779 11.9361 20.0412 12.9387 19.6601M3.50112 9.16672C3.50112 10.3945 6.00245 11.389 9.08944 11.389C12.1764 11.389 14.6778 10.3945 14.6778 9.16672M13.0057 15.1946C11.9976 15.5891 10.615 15.8335 9.08832 15.8335C6.00245 15.8335 3.50112 14.8391 3.50112 13.6113M21.0272 13.9646C22.9909 15.9169 22.9909 19.0836 21.0272 21.0358C19.0635 22.9881 15.8781 22.9881 13.9144 21.0358C11.9507 19.0836 11.9507 15.9169 13.9144 13.9646C15.8781 12.0124 19.0635 12.0124 21.0272 13.9646Z" stroke="white" stroke-width="1.5" stroke-linecap="round" stroke-linejoin="round"/>
</svg>
