<svg width="24" height="21" viewBox="0 0 24 21" fill="none" xmlns="http://www.w3.org/2000/svg">
<path d="M20.2915 8.71815C20.0166 8.71815 19.753 8.82734 19.5587 9.0217C19.3643 9.21605 19.2551 9.47966 19.2551 9.75452V17.0091C19.2551 17.2839 19.1459 17.5475 18.9516 17.7419C18.7572 17.9362 18.4936 18.0454 18.2188 18.0454H3.70968C3.43482 18.0454 3.17121 17.9362 2.97686 17.7419C2.7825 17.5475 2.67331 17.2839 2.67331 17.0091V8.71815C2.67331 8.44329 2.7825 8.17969 2.97686 7.98534C3.17121 7.79098 3.43482 7.68179 3.70968 7.68179H5.7824C6.0084 7.69359 6.23205 7.63109 6.41918 7.50383C6.60632 7.37658 6.74666 7.19157 6.81877 6.97706L7.3784 5.27743C7.44793 5.07158 7.58039 4.8928 7.75706 4.76634C7.93373 4.63988 8.14568 4.57214 8.36295 4.5727H14.0733C14.3482 4.5727 14.6118 4.46351 14.8061 4.26916C15.0005 4.0748 15.1097 3.8112 15.1097 3.53634C15.1097 3.26148 15.0005 2.99787 14.8061 2.80352C14.6118 2.60916 14.3482 2.49997 14.0733 2.49997H8.31113C7.65983 2.50119 7.02535 2.70692 6.49725 3.08812C5.96916 3.46931 5.5741 4.00673 5.36786 4.62452L5.03622 5.66088H3.70968C2.88509 5.66088 2.09429 5.98845 1.51122 6.57151C0.92815 7.15458 0.600586 7.94539 0.600586 8.76997V17.0609C0.600586 17.8855 0.92815 18.6763 1.51122 19.2593C2.09429 19.8424 2.88509 20.17 3.70968 20.17H18.2188C19.0434 20.17 19.8342 19.8424 20.4172 19.2593C21.0003 18.6763 21.3279 17.8855 21.3279 17.0609V9.80634C21.3349 9.66594 21.3133 9.52559 21.2644 9.39381C21.2154 9.26203 21.1402 9.14158 21.0433 9.03978C20.9463 8.93799 20.8297 8.85699 20.7004 8.80169C20.5712 8.7464 20.4321 8.71798 20.2915 8.71815ZM10.9642 7.68179C10.1443 7.68179 9.34285 7.92492 8.66113 8.38043C7.97942 8.83593 7.44808 9.48337 7.13432 10.2408C6.82056 10.9983 6.73847 11.8318 6.89842 12.636C7.05838 13.4401 7.45319 14.1788 8.03294 14.7585C8.6127 15.3383 9.35135 15.7331 10.1555 15.893C10.9596 16.053 11.7931 15.9709 12.5506 15.6571C13.3081 15.3434 13.9555 14.8121 14.411 14.1303C14.8666 13.4486 15.1097 12.6471 15.1097 11.8272C15.1097 10.7278 14.6729 9.67339 13.8955 8.89597C13.1181 8.11854 12.0637 7.68179 10.9642 7.68179ZM10.9642 13.9C10.5543 13.9 10.1535 13.7784 9.81268 13.5507C9.47182 13.3229 9.20615 12.9992 9.04927 12.6204C8.89239 12.2417 8.85135 11.8249 8.93132 11.4229C9.0113 11.0208 9.20871 10.6515 9.49858 10.3616C9.78846 10.0717 10.1578 9.87432 10.5599 9.79434C10.9619 9.71437 11.3787 9.75542 11.7574 9.9123C12.1362 10.0692 12.4599 10.3348 12.6876 10.6757C12.9154 11.0166 13.037 11.4173 13.037 11.8272C13.037 12.377 12.8186 12.9042 12.4299 13.2929C12.0412 13.6816 11.5139 13.9 10.9642 13.9ZM22.3642 2.49997H21.3279V1.46361C21.3279 1.18875 21.2187 0.925146 21.0243 0.73079C20.83 0.536434 20.5664 0.427246 20.2915 0.427246C20.0166 0.427246 19.753 0.536434 19.5587 0.73079C19.3643 0.925146 19.2551 1.18875 19.2551 1.46361V2.49997H18.2188C17.9439 2.49997 17.6803 2.60916 17.4859 2.80352C17.2916 2.99787 17.1824 3.26148 17.1824 3.53634C17.1824 3.8112 17.2916 4.0748 17.4859 4.26916C17.6803 4.46351 17.9439 4.5727 18.2188 4.5727H19.2551V5.60906C19.2551 5.88392 19.3643 6.14753 19.5587 6.34188C19.753 6.53624 20.0166 6.64543 20.2915 6.64543C20.5664 6.64543 20.83 6.53624 21.0243 6.34188C21.2187 6.14753 21.3279 5.88392 21.3279 5.60906V4.5727H22.3642C22.6391 4.5727 22.9027 4.46351 23.097 4.26916C23.2914 4.0748 23.4006 3.8112 23.4006 3.53634C23.4006 3.26148 23.2914 2.99787 23.097 2.80352C22.9027 2.60916 22.6391 2.49997 22.3642 2.49997Z" fill="white"/>
</svg>
