<svg width="31" height="21" viewBox="0 0 31 21" fill="none" xmlns="http://www.w3.org/2000/svg">
<path fill-rule="evenodd" clip-rule="evenodd" d="M8.92119 2.52918C8.79973 2.63328 8.66928 2.74737 8.49509 2.9013C8.49509 2.9013 5.62538 5.42406 5.61579 5.43134C5.52676 5.50553 5.45267 5.56898 5.37586 5.63605C5.34057 5.66705 5.30917 5.69432 5.24224 5.75217C5.18468 5.8019 5.15803 5.825 5.12486 5.85399L2.53017 8.136C2.47448 8.18676 2.4267 8.22949 2.36526 8.28371L2.29531 8.34549C2.21609 8.41521 2.15341 8.47195 2.06483 8.55312C1.86163 8.72926 1.65559 8.92845 1.46158 9.13735C1.28131 9.30622 1.13577 9.50141 1.03158 9.71425L1.00405 9.77865C0.81636 10.2891 0.81636 10.8385 1.00405 11.3489L1.03279 11.4158C1.13778 11.6281 1.28408 11.8226 1.46504 11.9906C1.65823 12.1991 1.86412 12.3984 2.08181 12.5874C2.1276 12.6308 2.19509 12.6913 2.28521 12.7705C2.34746 12.8252 2.37425 12.8488 2.40762 12.8783C2.45073 12.9166 2.48799 12.9499 2.52258 12.9814L5.12411 15.2711C5.25301 15.3843 5.3107 15.4346 5.41393 15.5231C5.49879 15.5968 5.54901 15.6397 5.642 15.7151L8.49766 18.2274C8.71169 18.4155 8.80771 18.4994 8.92874 18.6039C9.08606 18.7421 9.18977 18.8315 9.35176 18.9706C9.41279 19.0271 9.43566 19.0479 9.46694 19.0736C9.83253 19.3963 10.2785 19.6815 10.7667 19.9004C11.2555 20.1166 11.7737 20.2669 12.3085 20.348C12.8096 20.4205 13.3097 20.4592 13.8109 20.4648C14.0235 20.4689 14.2367 20.4714 14.4474 20.4722L14.9492 20.4722H24.2844C24.4782 20.4722 24.6702 20.4697 24.9365 20.4647C25.4348 20.4593 25.9398 20.4204 26.4394 20.3483C26.9849 20.2655 27.5067 20.1139 27.9946 19.8973C28.4891 19.6776 28.9403 19.3903 29.3316 19.046C29.7211 18.7024 30.0469 18.3084 30.2978 17.8774C30.5462 17.443 30.7182 16.9837 30.8108 16.5098C30.8935 16.0655 30.9375 15.6222 30.9435 15.1778C30.9473 15.0686 30.9491 14.9725 30.952 14.7585L30.9539 14.6215L30.954 13.9462V6.47026L30.9526 6.352C30.9509 6.2201 30.9501 6.1625 30.9487 6.08858C30.9473 6.01927 30.9457 5.95568 30.9436 5.89442C30.938 5.46718 30.8944 5.02775 30.8135 4.59305C30.7204 4.1172 30.55 3.66181 30.3065 3.23568C30.0543 2.80273 29.7308 2.41161 29.3445 2.07127C28.9581 1.72938 28.5103 1.44331 28.0195 1.22501C27.5352 1.00981 27.0175 0.859131 26.483 0.77778C25.9796 0.705848 25.4794 0.667474 24.9781 0.661707C24.7512 0.656878 24.5417 0.654302 24.3404 0.654302C24.1372 0.652471 23.969 0.6521 23.5916 0.6521H15.197C14.8223 0.6521 14.6531 0.652473 14.4407 0.654339C14.2481 0.654302 14.0394 0.656862 13.7999 0.661851C13.3082 0.667523 12.8089 0.705904 12.3149 0.776536C11.7715 0.859266 11.2534 1.00978 10.7687 1.22446C10.2768 1.44463 9.83061 1.73021 9.44377 2.07192C9.42584 2.08741 9.41272 2.09954 9.3032 2.20225C9.16733 2.31543 9.04238 2.42233 8.92119 2.52918ZM5.67642 5.38861L5.67953 5.38647C5.67577 5.38896 5.67316 5.39069 5.66992 5.39305L5.67642 5.38861ZM9.67845 17.1889L6.79224 14.6496C6.79224 14.6496 6.73466 14.6036 6.72867 14.5992C6.68414 14.5618 6.64583 14.5289 6.55014 14.4458C6.48107 14.3869 6.42734 14.3401 6.30499 14.2326L3.71389 11.9523C3.6835 11.9245 3.64117 11.8865 3.59316 11.844C3.55749 11.8124 3.52868 11.787 3.46557 11.7316C3.38623 11.6619 3.32926 11.6107 3.27615 11.5612C3.07325 11.3844 2.90149 11.2174 2.74082 11.0424L2.68575 10.9881C2.64324 10.9502 2.60764 10.9068 2.58014 10.8596C2.5174 10.6653 2.51756 10.4595 2.58062 10.2653C2.60816 10.2172 2.64395 10.1729 2.68681 10.1342L2.73744 10.0841C2.899 9.90874 3.07149 9.74134 3.25412 9.58271C3.35197 9.49343 3.40853 9.44223 3.4513 9.40415L3.45142 9.40404L3.45146 9.404L3.45166 9.40383C3.50549 9.35676 3.50558 9.35668 3.54825 9.31908C3.61623 9.25909 3.6706 9.21046 3.7228 9.1627L6.30407 6.89269C6.3324 6.86793 6.3564 6.84713 6.42424 6.78851C6.48288 6.73783 6.51683 6.70834 6.55446 6.67529C6.61268 6.62445 6.66995 6.57528 6.72619 6.52791C6.73854 6.51884 6.75293 6.50712 6.7939 6.47375L9.67758 3.93712C9.8478 3.7867 9.97299 3.67721 10.0955 3.57208C10.2134 3.4683 10.3271 3.37099 10.4474 3.27077C10.474 3.24891 10.49 3.23428 10.5636 3.16566C10.6019 3.12996 10.6205 3.11276 10.6218 3.11166C10.8894 2.87527 11.1917 2.68182 11.5228 2.53361C11.8572 2.38552 12.218 2.28071 12.5904 2.22398C12.9944 2.16626 13.4113 2.13421 13.8292 2.12935C14.0652 2.12448 14.2611 2.12208 14.4475 2.12208C14.6608 2.12024 14.8264 2.11987 15.1955 2.11987H23.59C23.9619 2.11987 24.1263 2.12024 24.3305 2.12204C24.5256 2.12208 24.722 2.12449 24.9456 2.12921C25.3735 2.13417 25.7913 2.16623 26.2047 2.22526C26.5674 2.28051 26.927 2.38518 27.2632 2.53458C27.5942 2.6818 27.8965 2.8749 28.1581 3.10637C28.423 3.33977 28.6439 3.6068 28.8141 3.89889C28.9807 4.19063 29.0995 4.50788 29.1635 4.83525C29.2298 5.19141 29.2661 5.55747 29.271 5.92436C29.2732 5.99219 29.2747 6.04971 29.2759 6.1132C29.2773 6.1829 29.2781 6.23844 29.2796 6.36716L29.2811 6.47844L29.281 7.12784V14.6047L29.2791 14.7405C29.2763 14.9458 29.2746 15.0362 29.2709 15.1467C29.2656 15.5305 29.2289 15.9005 29.1607 16.2665C29.0972 16.5919 28.9771 16.9127 28.8054 17.2129C28.6362 17.5035 28.413 17.7735 28.1465 18.0085C27.8813 18.2418 27.5748 18.437 27.239 18.5862C26.8993 18.737 26.5356 18.8427 26.1602 18.8997C25.7502 18.9588 25.3288 18.9913 24.9065 18.9959C24.6434 19.0009 24.4621 19.0031 24.2829 19.0031H14.4492C14.2521 19.0025 14.0489 19.0001 13.8382 18.996C13.4131 18.9912 12.9968 18.959 12.585 18.8995C12.2192 18.8439 11.8584 18.7393 11.521 18.59C11.1933 18.4431 10.8904 18.2494 10.6274 18.0177C10.6117 18.0042 10.5898 17.9843 10.5622 17.9588L10.5585 17.9554L10.5585 17.9553L10.5582 17.9551L10.558 17.9548C10.493 17.8946 10.4781 17.8809 10.4627 17.8679L10.4438 17.8523C10.3482 17.7735 10.2549 17.6931 10.1038 17.5604C9.98225 17.4554 9.88856 17.3734 9.67845 17.1889ZM15.6737 14.4466C15.6056 14.5061 15.524 14.5546 15.4319 14.5881C15.1518 14.69 14.8293 14.6337 14.6149 14.4453C14.4738 14.3217 14.3945 14.1539 14.3945 13.9789C14.3945 13.8039 14.4738 13.6361 14.6149 13.5125V13.514C14.6555 13.4783 14.7 13.4473 14.7474 13.4213L17.9989 10.5613L14.6133 7.59039L14.6273 7.57807C14.5609 7.5188 14.5066 7.44797 14.469 7.36812C14.353 7.12202 14.4171 6.83875 14.6315 6.6504C14.7722 6.526 14.9636 6.45605 15.1633 6.45605C15.3629 6.45605 15.5543 6.526 15.695 6.6504H15.6917C15.7331 6.68677 15.7689 6.72669 15.7989 6.7692L19.0576 9.63014L22.3511 6.73323C22.3751 6.7036 22.4022 6.67532 22.4324 6.64874C22.6468 6.46038 22.9693 6.40402 23.2494 6.50596C23.5296 6.60789 23.7122 6.84803 23.7122 7.11441C23.7122 7.29194 23.6311 7.45782 23.494 7.5789L23.5013 7.5853L20.118 10.5612L23.387 13.4311C23.4281 13.4551 23.4667 13.4828 23.5021 13.5139L23.5005 13.5154C23.7149 13.7037 23.779 13.987 23.663 14.2331C23.547 14.4792 23.2736 14.6397 22.9704 14.6397C22.769 14.6397 22.5807 14.5689 22.443 14.4492L22.4362 14.4551L19.0596 11.4921L15.6872 14.4585L15.6737 14.4466Z" fill="#EF437B"/>
</svg>
