<svg width="56" height="56" viewBox="0 0 56 56" fill="none" xmlns="http://www.w3.org/2000/svg">
<rect x="4" y="4" width="48" height="48" rx="24" fill="#FFEDCD"/>
<path d="M30.1755 20.2222C30.1766 18.9945 27.6731 18 24.5883 18C21.5036 18 19.0022 18.9956 19 20.2222M19 20.2222C19 21.45 21.5013 22.4445 24.5883 22.4445C27.6753 22.4445 30.1766 21.45 30.1766 20.2222L30.1766 28.8445M19 20.2222V33.5556C19.0011 34.7834 21.5024 35.7779 24.5883 35.7779C26.0849 35.7779 27.4361 35.5412 28.4387 35.1601M19.0011 24.6667C19.0011 25.8945 21.5025 26.889 24.5894 26.889C27.6764 26.889 30.1778 25.8945 30.1778 24.6667M28.5057 30.6946C27.4976 31.0891 26.115 31.3335 24.5883 31.3335C21.5024 31.3335 19.0011 30.3391 19.0011 29.1113M36.5272 29.4646C38.4909 31.4169 38.4909 34.5836 36.5272 36.5358C34.5635 38.4881 31.3781 38.4881 29.4144 36.5358C27.4507 34.5836 27.4507 31.4169 29.4144 29.4646C31.3781 27.5124 34.5635 27.5124 36.5272 29.4646Z" stroke="#FDA504" stroke-width="2" stroke-linecap="round" stroke-linejoin="round"/>
<rect x="4" y="4" width="48" height="48" rx="24" stroke="#FFE3AF" stroke-width="8"/>
</svg>
