<svg width="20" height="20" viewBox="0 0 20 20" fill="none" xmlns="http://www.w3.org/2000/svg">
<g clip-path="url(#clip0_20644_2744)">
<path d="M4.16797 12.5001H3.33464C2.89261 12.5001 2.46868 12.3245 2.15612 12.0119C1.84356 11.6994 1.66797 11.2754 1.66797 10.8334V3.33341C1.66797 2.89139 1.84356 2.46746 2.15612 2.1549C2.46868 1.84234 2.89261 1.66675 3.33464 1.66675H10.8346C11.2767 1.66675 11.7006 1.84234 12.0131 2.1549C12.3257 2.46746 12.5013 2.89139 12.5013 3.33341V4.16675M9.16797 7.50008H16.668C17.5884 7.50008 18.3346 8.24627 18.3346 9.16675V16.6667C18.3346 17.5872 17.5884 18.3334 16.668 18.3334H9.16797C8.24749 18.3334 7.5013 17.5872 7.5013 16.6667V9.16675C7.5013 8.24627 8.24749 7.50008 9.16797 7.50008Z" stroke="#667085" stroke-width="1.66667" stroke-linecap="round" stroke-linejoin="round"/>
</g>
<defs>
<clipPath id="clip0_20644_2744">
<rect width="20" height="20" fill="white"/>
</clipPath>
</defs>
</svg>
