<svg width="26" height="26" viewBox="0 0 26 26" fill="none" xmlns="http://www.w3.org/2000/svg">
<path fill-rule="evenodd" clip-rule="evenodd" d="M13 25.5C19.9036 25.5 25.5 19.9036 25.5 13C25.5 6.09644 19.9036 0.5 13 0.5C6.09644 0.5 0.5 6.09644 0.5 13C0.5 19.9036 6.09644 25.5 13 25.5ZM18.74 9.82561C19.0579 9.41691 18.9843 8.8279 18.5756 8.51003C18.1669 8.19215 17.5779 8.26577 17.26 8.67447L12.2512 15.1143C12.1399 15.2575 11.9304 15.2761 11.7955 15.1547L8.62716 12.3032C8.24231 11.9568 7.64954 11.988 7.30317 12.3729C6.9568 12.7577 6.988 13.3505 7.37285 13.6969L10.5412 16.5484C11.4851 17.3979 12.9516 17.2678 13.7313 16.2654L18.74 9.82561Z" fill="#9A469B"/>
</svg>
