<svg width="32" height="33" viewBox="0 0 32 33" fill="none" xmlns="http://www.w3.org/2000/svg">
<circle cx="16" cy="16.5" r="16" fill="#F9A11B"/>
<path d="M20.1673 24.833H11.834C11.4923 24.833 11.209 24.5497 11.209 24.208C11.209 23.8663 11.4923 23.583 11.834 23.583H20.1673C20.509 23.583 20.7923 23.8663 20.7923 24.208C20.7923 24.5497 20.509 24.833 20.1673 24.833Z" fill="white"/>
<path d="M22.9585 11.1002L19.6252 13.4835C19.1835 13.8002 18.5502 13.6085 18.3585 13.1002L16.7835 8.9002C16.5168 8.1752 15.4918 8.1752 15.2252 8.9002L13.6418 13.0919C13.4502 13.6085 12.8252 13.8002 12.3835 13.4752L9.05018 11.0919C8.38352 10.6252 7.50018 11.2835 7.77518 12.0585L11.2418 21.7669C11.3585 22.1002 11.6752 22.3169 12.0252 22.3169H19.9668C20.3168 22.3169 20.6335 22.0919 20.7502 21.7669L24.2168 12.0585C24.5002 11.2835 23.6168 10.6252 22.9585 11.1002ZM18.0835 18.7919H13.9168C13.5752 18.7919 13.2918 18.5085 13.2918 18.1669C13.2918 17.8252 13.5752 17.5419 13.9168 17.5419H18.0835C18.4252 17.5419 18.7085 17.8252 18.7085 18.1669C18.7085 18.5085 18.4252 18.7919 18.0835 18.7919Z" fill="white"/>
</svg>
