<svg width="16" height="16" viewBox="0 0 16 16" fill="none" xmlns="http://www.w3.org/2000/svg">
<path d="M2.09173 11.1523L2.16506 12.6903C2.17773 12.957 2.39773 13.1667 2.66473 13.1667H13.3314C13.5984 13.1667 13.8181 12.957 13.8311 12.6903L13.9044 11.1523H2.09173ZM14.1644 4C13.7044 4 13.3311 4.37333 13.3311 4.83333C13.3311 4.977 13.3707 5.11 13.4347 5.228C13.4111 5.24033 13.3861 5.25 13.3644 5.26667L11.0447 7.00667L8.51773 4.47967C8.7074 4.327 8.83106 4.09567 8.83106 3.83333C8.83106 3.37333 8.45773 3 7.99773 3C7.53773 3 7.1644 3.37333 7.1644 3.83333C7.1644 4.09567 7.28806 4.32667 7.47773 4.47967L4.95073 7.00667L2.68306 5.306C2.77606 5.17167 2.83073 5.009 2.83073 4.83367C2.83073 4.37367 2.4574 4.00033 1.9974 4.00033C1.5374 4.00033 1.16406 4.37367 1.16406 4.83367C1.16406 5.238 1.45273 5.575 1.83506 5.65067C1.83473 5.66433 1.83073 5.677 1.83106 5.69067L2.0594 10.486H13.9351L14.1634 5.69067C14.1637 5.68233 14.1611 5.67467 14.1611 5.66667C14.1621 5.66667 14.1627 5.667 14.1637 5.667C14.6237 5.667 14.9971 5.29367 14.9971 4.83367C14.9971 4.37367 14.6244 4 14.1644 4Z" fill="#FDA504"/>
</svg>
