<svg width="28" height="28" viewBox="0 0 28 28" fill="none" xmlns="http://www.w3.org/2000/svg">
<g clip-path="url(#clip0_20808_34082)">
<path fill-rule="evenodd" clip-rule="evenodd" d="M3.33203 0C2.77975 0 2.33203 0.447715 2.33203 1V27C2.33203 27.5523 2.77975 28 3.33203 28H24.6654C25.2176 28 25.6654 27.5523 25.6654 27V4.66667L20.9987 0H3.33203Z" fill="#E9F0FA"/>
<path fill-rule="evenodd" clip-rule="evenodd" d="M20.998 0V4.66667H25.6647L20.998 0Z" fill="#C2CDDE"/>
</g>
<rect x="1.16602" y="11.6667" width="25.6667" height="11.6667" rx="1" fill="#F14848"/>
<path d="M7.5767 20.5H5.60511V14.6818H7.61648C8.19413 14.6818 8.69034 14.7983 9.10511 15.0312C9.52178 15.2623 9.84186 15.5947 10.0653 16.0284C10.2888 16.4621 10.4006 16.9811 10.4006 17.5852C10.4006 18.1913 10.2879 18.7121 10.0625 19.1477C9.83902 19.5833 9.5161 19.9176 9.09375 20.1506C8.6733 20.3835 8.16761 20.5 7.5767 20.5ZM6.65909 19.5881H7.52557C7.93087 19.5881 8.26894 19.5142 8.53977 19.3665C8.81061 19.2169 9.0142 18.9943 9.15057 18.6989C9.28693 18.4015 9.35511 18.0303 9.35511 17.5852C9.35511 17.1402 9.28693 16.7708 9.15057 16.4773C9.0142 16.1818 8.8125 15.9612 8.54545 15.8153C8.2803 15.6676 7.95076 15.5938 7.55682 15.5938H6.65909V19.5881ZM16.6009 17.5909C16.6009 18.2178 16.4834 18.7547 16.2486 19.2017C16.0156 19.6468 15.6974 19.9877 15.294 20.2244C14.8925 20.4612 14.437 20.5795 13.9276 20.5795C13.4181 20.5795 12.9616 20.4612 12.5582 20.2244C12.1567 19.9858 11.8385 19.6439 11.6037 19.1989C11.3707 18.7519 11.2543 18.2159 11.2543 17.5909C11.2543 16.964 11.3707 16.428 11.6037 15.983C11.8385 15.536 12.1567 15.1941 12.5582 14.9574C12.9616 14.7206 13.4181 14.6023 13.9276 14.6023C14.437 14.6023 14.8925 14.7206 15.294 14.9574C15.6974 15.1941 16.0156 15.536 16.2486 15.983C16.4834 16.428 16.6009 16.964 16.6009 17.5909ZM15.5412 17.5909C15.5412 17.1496 15.4721 16.7775 15.3338 16.4744C15.1974 16.1695 15.008 15.9394 14.7656 15.7841C14.5232 15.6269 14.2438 15.5483 13.9276 15.5483C13.6113 15.5483 13.3319 15.6269 13.0895 15.7841C12.8471 15.9394 12.6567 16.1695 12.5185 16.4744C12.3821 16.7775 12.3139 17.1496 12.3139 17.5909C12.3139 18.0322 12.3821 18.4053 12.5185 18.7102C12.6567 19.0133 12.8471 19.2434 13.0895 19.4006C13.3319 19.5559 13.6113 19.6335 13.9276 19.6335C14.2438 19.6335 14.5232 19.5559 14.7656 19.4006C15.008 19.2434 15.1974 19.0133 15.3338 18.7102C15.4721 18.4053 15.5412 18.0322 15.5412 17.5909ZM22.5774 16.6449H21.5149C21.4846 16.4706 21.4287 16.3163 21.3473 16.1818C21.2659 16.0455 21.1645 15.9299 21.0433 15.8352C20.9221 15.7405 20.7839 15.6695 20.6286 15.6222C20.4751 15.5729 20.3094 15.5483 20.1314 15.5483C19.8151 15.5483 19.5348 15.6278 19.2905 15.7869C19.0462 15.9441 18.8549 16.1752 18.7166 16.4801C18.5784 16.7831 18.5092 17.1534 18.5092 17.5909C18.5092 18.036 18.5784 18.411 18.7166 18.7159C18.8568 19.0189 19.0481 19.2481 19.2905 19.4034C19.5348 19.5568 19.8142 19.6335 20.1286 19.6335C20.3028 19.6335 20.4657 19.6108 20.6172 19.5653C20.7706 19.518 20.9079 19.4489 21.0291 19.358C21.1522 19.267 21.2554 19.1553 21.3388 19.0227C21.424 18.8902 21.4827 18.7386 21.5149 18.5682L22.5774 18.5739C22.5376 18.8504 22.4515 19.1098 22.3189 19.3523C22.1882 19.5947 22.0168 19.8087 21.8047 19.9943C21.5926 20.178 21.3445 20.322 21.0604 20.4261C20.7763 20.5284 20.4609 20.5795 20.1143 20.5795C19.603 20.5795 19.1465 20.4612 18.745 20.2244C18.3435 19.9877 18.0272 19.6458 17.7962 19.1989C17.5651 18.7519 17.4496 18.2159 17.4496 17.5909C17.4496 16.964 17.5661 16.428 17.799 15.983C18.032 15.536 18.3492 15.1941 18.7507 14.9574C19.1522 14.7206 19.6068 14.6023 20.1143 14.6023C20.4382 14.6023 20.7393 14.6477 21.0178 14.7386C21.2962 14.8295 21.5443 14.9631 21.7621 15.1392C21.9799 15.3134 22.1589 15.5275 22.299 15.7812C22.4411 16.0331 22.5339 16.321 22.5774 16.6449Z" fill="white"/>
<defs>
<clipPath id="clip0_20808_34082">
<rect width="23.3333" height="28" fill="white" transform="translate(2.33203)"/>
</clipPath>
</defs>
</svg>
