<svg width="20" height="20" viewBox="0 0 20 20" fill="none" xmlns="http://www.w3.org/2000/svg">
<g clip-path="url(#clip0_16118_45450)">
<path d="M9.49519 0.841381C9.27885 0.8534 9.08654 0.937535 8.94231 1.1058L0.985577 9.976C0.820312 10.1653 0.411658 10.8564 0.216346 11.7548C0.08113 12.1334 0 12.5722 0 13.077C0 15.4628 1.99519 16.4183 1.99519 16.4183C2.02524 16.4363 2.05829 16.4514 2.09135 16.4664L11.3221 19.2068C11.6226 19.2939 11.9471 19.1887 12.1394 18.9423L19.6635 9.87984C19.8498 9.64847 19.8888 9.32996 19.7596 9.06253C19.7596 9.06253 19.4681 8.38946 19.7837 7.62023C19.8888 7.36482 19.8498 7.07335 19.6815 6.854C19.5132 6.63465 19.2398 6.52347 18.9663 6.56253C18.6959 6.6046 18.4645 6.7879 18.3654 7.0433C17.9718 8.00785 18.0859 8.74102 18.2212 9.20677L11.274 17.5721L2.57212 15L2.52404 14.976C2.37981 14.9219 1.53846 14.5433 1.53846 13.077C1.53846 12.5 1.66166 12.1935 1.77885 12.0193C1.89603 11.845 2.01923 11.7609 2.1875 11.7068C2.35577 11.6527 2.54808 11.6527 2.69231 11.6587H2.71635L10.7452 13.9664C10.8143 13.9844 10.8924 13.9904 10.9615 13.9904C11.2019 13.9904 11.4333 13.8672 11.5865 13.6779L19.7356 4.27888C19.9129 4.06253 19.973 3.77407 19.8798 3.50965C19.7897 3.24222 19.5523 3.0409 19.2788 2.9808L9.71154 0.841381C9.63942 0.826357 9.56731 0.838376 9.49519 0.841381ZM9.27885 3.89427C9.36298 3.89126 9.44111 3.90028 9.51923 3.9183L15.2404 5.31253C15.5529 5.38765 15.6731 5.59198 15.5048 5.7933L14.8798 6.5385C14.7085 6.73982 14.3059 6.82996 13.9904 6.75484L8.29327 5.36061C7.97776 5.28549 7.86058 5.05412 8.02885 4.8558L8.62981 4.13465C8.75601 3.98441 9.02644 3.90028 9.27885 3.89427Z" fill="#C2D52E"/>
</g>
<defs>
<clipPath id="clip0_16118_45450">
<rect width="20" height="20" fill="white"/>
</clipPath>
</defs>
</svg>
