<svg width="19" height="20" viewBox="0 0 19 20" fill="none" xmlns="http://www.w3.org/2000/svg">
<path fill-rule="evenodd" clip-rule="evenodd" d="M9.82206 0.990234C4.73618 0.990234 0.644531 5.10695 0.644531 10.224C0.644531 14.3022 3.28307 17.7649 6.91584 18.9961C7.37472 19.073 7.52768 18.8037 7.52768 18.5344C7.52768 18.3035 7.52768 17.7264 7.52768 16.957C4.96562 17.5341 4.43026 15.7258 4.43026 15.7258C4.00962 14.6485 3.39779 14.3792 3.39779 14.3792C2.55652 13.8021 3.47427 13.8021 3.47427 13.8021C4.39202 13.879 4.88914 14.7639 4.88914 14.7639C5.69217 16.1875 7.03056 15.7643 7.56592 15.5334C7.6424 14.9178 7.87183 14.5331 8.13951 14.3022C6.11281 14.0714 3.97138 13.2634 3.97138 9.72384C3.97138 8.72351 4.31554 7.87708 4.92738 7.2615C4.8509 7.03066 4.50674 6.10728 5.00386 4.79916C5.00386 4.79916 5.76865 4.56832 7.52768 5.76101C8.25423 5.56864 9.05726 5.45322 9.82206 5.45322C10.5869 5.45322 11.3899 5.56864 12.1164 5.76101C13.8755 4.56832 14.6403 4.79916 14.6403 4.79916C15.1374 6.06881 14.8315 6.99218 14.7167 7.2615C15.2903 7.91556 15.6727 8.72351 15.6727 9.72384C15.6727 13.2634 13.5313 14.0329 11.4664 14.2638C11.8105 14.5331 12.0782 15.1102 12.0782 15.9566C12.0782 17.1878 12.0782 18.1881 12.0782 18.4959C12.0782 18.7268 12.2312 19.0346 12.7283 18.9576C16.361 17.7649 18.9996 14.3022 18.9996 10.224C18.9996 5.10695 14.9079 0.990234 9.82206 0.990234Z" fill="#27272A"/>
</svg>
