<svg width="20" height="20" viewBox="0 0 20 20" fill="none" xmlns="http://www.w3.org/2000/svg">
<path fill-rule="evenodd" clip-rule="evenodd" d="M8.20141 4.21879C7.9019 4.9737 7.65812 5.89069 7.49339 6.92015C8.29039 6.84714 9.13244 6.80828 10.0013 6.80828C10.8702 6.80828 11.7123 6.84714 12.5092 6.92015C12.3445 5.89069 12.1007 4.9737 11.8012 4.21879C11.5133 3.49321 11.1864 2.94886 10.8557 2.59635C10.5263 2.24518 10.2374 2.12724 10.0013 2.12724C9.76527 2.12724 9.47634 2.24518 9.14693 2.59635C8.81626 2.94886 8.4893 3.49321 8.20141 4.21879ZM7.02568 3.74466C6.65195 4.6866 6.36519 5.82127 6.18943 7.07566C5.32426 7.2043 4.53473 7.37594 3.84994 7.58305C3.05316 7.82403 2.36224 8.12366 1.85638 8.48539C1.79247 8.53109 1.72939 8.57939 1.66801 8.63031C2.22638 5.15074 4.87725 2.37802 8.27705 1.66669C8.26019 1.68399 8.24346 1.70148 8.22689 1.71915C7.74956 2.228 7.34888 2.93006 7.02568 3.74466ZM11.7256 1.66669C11.7425 1.68399 11.7592 1.70148 11.7758 1.71915C12.2531 2.228 12.6538 2.93006 12.977 3.74466C13.3507 4.6866 13.6375 5.82127 13.8132 7.07566C14.6784 7.2043 15.4679 7.37594 16.1527 7.58305C16.9495 7.82403 17.6404 8.12366 18.1463 8.48539C18.2102 8.53109 18.2733 8.5794 18.3346 8.63032C17.7763 5.15074 15.1254 2.37802 11.7256 1.66669ZM18.3347 11.3695C18.2733 11.4204 18.2102 11.4687 18.1463 11.5144C17.6404 11.8761 16.9495 12.1758 16.1527 12.4168C15.4679 12.6239 14.6784 12.7955 13.8132 12.9242C13.6375 14.1785 13.3507 15.3132 12.977 16.2552C12.6538 17.0698 12.2531 17.7718 11.7758 18.2807C11.7591 18.2984 11.7423 18.316 11.7253 18.3334C15.1253 17.6221 17.7764 14.8492 18.3347 11.3695ZM8.27731 18.3334C8.26035 18.316 8.24355 18.2984 8.22689 18.2807C7.74956 17.7718 7.34888 17.0698 7.02568 16.2552C6.65195 15.3132 6.36519 14.1785 6.18943 12.9242C5.32426 12.7955 4.53473 12.6239 3.84994 12.4168C3.05316 12.1758 2.36224 11.8761 1.85638 11.5144C1.79245 11.4687 1.72936 11.4204 1.66797 11.3695C2.22627 14.8492 4.87731 17.6221 8.27731 18.3334ZM4.21382 11.194C4.75089 11.3564 5.36882 11.4972 6.04991 11.6102C6.01135 11.0867 5.99134 10.5485 5.99134 9.99991C5.99134 9.45136 6.01135 8.9131 6.04991 8.38962C5.36883 8.50261 4.75089 8.64342 4.21382 8.80586C3.48288 9.02693 2.9375 9.27749 2.58898 9.5267C2.22401 9.78768 2.19241 9.95684 2.19241 9.99991C2.19241 10.043 2.22401 10.2121 2.58898 10.4731C2.9375 10.7223 3.48288 10.9729 4.21382 11.194ZM7.25765 9.99991C7.25765 10.6137 7.28419 11.2099 7.33412 11.7816C8.16654 11.8676 9.06369 11.9149 10.0013 11.9149C10.939 11.9149 11.8361 11.8676 12.6685 11.7816C12.7184 11.2099 12.745 10.6137 12.745 9.99991C12.745 9.38608 12.7184 8.78995 12.6685 8.21825C11.8361 8.13219 10.939 8.08493 10.0013 8.08493C9.06369 8.08493 8.16654 8.13219 7.33412 8.21824C7.28419 8.78995 7.25765 9.38608 7.25765 9.99991ZM8.20141 15.781C7.9019 15.0261 7.65812 14.1091 7.49339 13.0797C8.29039 13.1527 9.13244 13.1915 10.0013 13.1915C10.8702 13.1915 11.7123 13.1527 12.5092 13.0797C12.3445 14.1091 12.1007 15.0261 11.8012 15.781C11.5133 16.5066 11.1864 17.051 10.8557 17.4035C10.5263 17.7546 10.2374 17.8726 10.0013 17.8726C9.76527 17.8726 9.47634 17.7546 9.14693 17.4035C8.81626 17.051 8.4893 16.5066 8.20141 15.781ZM15.7888 11.194C15.2518 11.3564 14.6338 11.4972 13.9527 11.6102C13.9913 11.0867 14.0113 10.5485 14.0113 9.99991C14.0113 9.45136 13.9913 8.9131 13.9527 8.38962C14.6338 8.50261 15.2518 8.64342 15.7888 8.80586C16.5198 9.02693 17.0651 9.27749 17.4137 9.5267C17.7786 9.78768 17.8102 9.95684 17.8102 9.99991C17.8102 10.043 17.7786 10.2121 17.4137 10.4731C17.0651 10.7223 16.5198 10.9729 15.7888 11.194Z" fill="white"/>
</svg>
