<svg width="20" height="21" viewBox="0 0 20 21" fill="none" xmlns="http://www.w3.org/2000/svg">
<path d="M18.3334 10.5003C18.3334 15.1027 14.6025 18.8337 10.0001 18.8337M18.3334 10.5003C18.3334 5.89795 14.6025 2.16699 10.0001 2.16699M18.3334 10.5003C18.3334 9.11961 14.6025 8.00033 10.0001 8.00033C5.39771 8.00033 1.66675 9.11961 1.66675 10.5003M18.3334 10.5003C18.3334 11.881 14.6025 13.0003 10.0001 13.0003C5.39771 13.0003 1.66675 11.881 1.66675 10.5003M10.0001 18.8337C5.39771 18.8337 1.66675 15.1027 1.66675 10.5003M10.0001 18.8337C11.841 18.8337 13.3334 15.1027 13.3334 10.5003C13.3334 5.89795 11.841 2.16699 10.0001 2.16699M10.0001 18.8337C8.15913 18.8337 6.66675 15.1027 6.66675 10.5003C6.66675 5.89795 8.15913 2.16699 10.0001 2.16699M1.66675 10.5003C1.66675 5.89795 5.39771 2.16699 10.0001 2.16699" stroke="#9A469B" stroke-width="1.5"/>
</svg>
