<svg width="202" height="62" viewBox="0 0 202 62" fill="none" xmlns="http://www.w3.org/2000/svg">
<rect y="0.5" width="202" height="61" rx="30.5" fill="#18181B"/>
<path d="M75.0779 45.0019H73.3051L73.1031 42.7601C72.7141 43.4625 72.0783 44.0678 71.1956 44.5759C70.3129 45.0841 69.2507 45.3381 68.0089 45.3381C66.6475 45.3381 65.3907 45.0318 64.2387 44.419C63.0868 43.7913 62.1367 42.8348 61.3887 41.5495C60.6556 40.2643 60.2891 38.7623 60.2891 37.0436C60.2891 35.3249 60.678 33.8229 61.456 32.5376C62.234 31.2524 63.2064 30.3034 64.3734 29.6906C65.5553 29.0779 66.8195 28.7715 68.166 28.7715C69.8715 28.7715 71.3527 29.2124 72.6094 30.0941C73.8811 30.9609 74.7488 32.1192 75.2126 33.5689L73.2153 34.4207C72.8562 33.27 72.2279 32.3807 71.3302 31.753C70.4475 31.1104 69.3928 30.7891 68.166 30.7891C66.625 30.7891 65.301 31.3346 64.1939 32.4256C63.0868 33.5166 62.5332 35.0559 62.5332 37.0436C62.5332 39.0462 63.0718 40.6005 64.149 41.7065C65.2411 42.7975 66.5502 43.343 68.0762 43.343C68.914 43.343 69.6546 43.2085 70.2979 42.9394C70.9562 42.6704 71.4649 42.3192 71.8239 41.8858C72.198 41.4375 72.4747 40.9891 72.6543 40.5408C72.8488 40.0924 72.961 39.644 72.9909 39.1957H67.4703V37.2229H75.0779V45.0019ZM80.456 42.4463C81.1142 43.1188 81.9147 43.455 82.8572 43.455C83.7997 43.455 84.5927 43.1188 85.236 42.4463C85.8943 41.7588 86.2234 40.8098 86.2234 39.5992C86.2234 38.4036 85.8943 37.4695 85.236 36.797C84.5927 36.1095 83.7997 35.7658 82.8572 35.7658C81.9147 35.7658 81.1142 36.1095 80.456 36.797C79.8126 37.4695 79.491 38.4036 79.491 39.5992C79.491 40.8098 79.8126 41.7588 80.456 42.4463ZM78.8851 35.5192C79.9323 34.4282 81.2564 33.8827 82.8572 33.8827C84.458 33.8827 85.7746 34.4282 86.8069 35.5192C87.8541 36.5952 88.3778 37.9552 88.3778 39.5992C88.3778 41.2581 87.8616 42.6331 86.8293 43.7241C85.797 44.8001 84.473 45.3381 82.8572 45.3381C81.2414 45.3381 79.9174 44.8001 78.8851 43.7241C77.8528 42.6331 77.3366 41.2581 77.3366 39.5992C77.3366 37.9552 77.8528 36.5952 78.8851 35.5192ZM93.2984 42.4463C93.9567 43.1188 94.7571 43.455 95.6997 43.455C96.6422 43.455 97.4351 43.1188 98.0784 42.4463C98.7367 41.7588 99.0659 40.8098 99.0659 39.5992C99.0659 38.4036 98.7367 37.4695 98.0784 36.797C97.4351 36.1095 96.6422 35.7658 95.6997 35.7658C94.7571 35.7658 93.9567 36.1095 93.2984 36.797C92.6551 37.4695 92.3335 38.4036 92.3335 39.5992C92.3335 40.8098 92.6551 41.7588 93.2984 42.4463ZM91.7275 35.5192C92.7748 34.4282 94.0988 33.8827 95.6997 33.8827C97.3005 33.8827 98.617 34.4282 99.6493 35.5192C100.697 36.5952 101.22 37.9552 101.22 39.5992C101.22 41.2581 100.704 42.6331 99.6718 43.7241C98.6395 44.8001 97.3154 45.3381 95.6997 45.3381C94.0839 45.3381 92.7598 44.8001 91.7275 43.7241C90.6952 42.6331 90.1791 41.2581 90.1791 39.5992C90.1791 37.9552 90.6952 36.5952 91.7275 35.5192ZM103.134 45.5847L105.176 45.114C105.251 45.8762 105.557 46.5038 106.096 46.997C106.635 47.5052 107.308 47.7592 108.116 47.7592C110.315 47.7592 111.415 46.5935 111.415 44.2621V42.7153C111.145 43.2383 110.719 43.6643 110.135 43.9931C109.567 44.3219 108.894 44.4863 108.116 44.4863C106.679 44.4863 105.49 44.0005 104.548 43.0291C103.62 42.0427 103.156 40.7873 103.156 39.2629C103.156 37.7834 103.62 36.5429 104.548 35.5416C105.475 34.5253 106.665 34.0172 108.116 34.0172C109.761 34.0172 110.869 34.5851 111.437 35.721V34.219H113.524V44.1948C113.524 44.9122 113.427 45.5773 113.233 46.19C113.053 46.8177 112.761 47.3931 112.357 47.9162C111.953 48.4392 111.385 48.8502 110.652 49.1491C109.933 49.448 109.088 49.5975 108.116 49.5975C106.784 49.5975 105.655 49.2164 104.727 48.4542C103.8 47.7069 103.268 46.7504 103.134 45.5847ZM108.43 42.7153C109.343 42.7153 110.083 42.4014 110.652 41.7737C111.22 41.1311 111.504 40.2942 111.504 39.2629C111.504 38.2317 111.22 37.4023 110.652 36.7746C110.083 36.1319 109.343 35.8106 108.43 35.8106C107.502 35.8106 106.747 36.1245 106.163 36.7522C105.595 37.3799 105.311 38.2168 105.311 39.2629C105.311 40.324 105.587 41.1684 106.141 41.7961C106.709 42.4089 107.472 42.7153 108.43 42.7153ZM119.002 45.0019H116.893V28.7715H119.002V45.0019ZM123.96 38.5007H129.862C129.832 37.6937 129.562 37.0361 129.054 36.528C128.545 36.0049 127.827 35.7434 126.899 35.7434C126.062 35.7434 125.373 36.0199 124.835 36.5728C124.296 37.1109 124.004 37.7535 123.96 38.5007ZM130.176 41.303L131.994 41.9306C131.679 42.932 131.096 43.7539 130.243 44.3966C129.39 45.0243 128.358 45.3381 127.146 45.3381C125.635 45.3381 124.349 44.8225 123.286 43.7913C122.239 42.7452 121.715 41.3403 121.715 39.5768C121.715 37.9328 122.224 36.5728 123.241 35.4968C124.259 34.4207 125.471 33.8827 126.877 33.8827C128.508 33.8827 129.779 34.3983 130.692 35.4295C131.605 36.4458 132.061 37.8133 132.061 39.532C132.061 39.801 132.046 40.0251 132.016 40.2045H123.892C123.907 41.161 124.221 41.9456 124.835 42.5583C125.463 43.1711 126.234 43.4775 127.146 43.4775C128.687 43.4775 129.697 42.7526 130.176 41.303ZM142.788 36.528H145.975C146.917 36.528 147.665 36.2889 148.219 35.8106C148.772 35.3174 149.049 34.6599 149.049 33.8379C149.049 33.0009 148.772 32.3359 148.219 31.8427C147.665 31.3346 146.917 31.0805 145.975 31.0805H142.788V36.528ZM146.379 38.5007H142.788V45.0019H140.589V29.1077H146.379C147.83 29.1077 149.012 29.5561 149.924 30.4528C150.837 31.3495 151.293 32.4704 151.293 33.8155C151.293 35.1755 150.837 36.2963 149.924 37.1781C149.012 38.0599 147.83 38.5007 146.379 38.5007ZM155.645 45.0019H153.535V28.7715H155.645V45.0019ZM158.56 42.11C158.56 41.1834 158.859 40.4436 159.458 39.8906C160.056 39.3227 160.849 38.9715 161.836 38.837L164.754 38.4111C165.307 38.3364 165.584 38.0673 165.584 37.604C165.584 37.0361 165.39 36.5728 165.001 36.2141C164.612 35.8555 164.028 35.6761 163.25 35.6761C162.532 35.6761 161.964 35.8779 161.545 36.2814C161.126 36.67 160.879 37.193 160.804 37.8506L158.784 37.3799C158.889 36.3487 159.36 35.5117 160.198 34.8691C161.036 34.2115 162.038 33.8827 163.205 33.8827C164.731 33.8827 165.861 34.2563 166.594 35.0036C167.327 35.7359 167.694 36.6774 167.694 37.8282V43.2309C167.694 43.8735 167.738 44.4638 167.828 45.0019H165.764C165.689 44.5535 165.651 44.0678 165.651 43.5447C165.352 44.023 164.911 44.4414 164.327 44.8001C163.759 45.1588 163.041 45.3381 162.173 45.3381C161.111 45.3381 160.243 45.0243 159.57 44.3966C158.897 43.7539 158.56 42.9917 158.56 42.11ZM162.465 43.5671C163.407 43.5671 164.163 43.3131 164.731 42.8049C165.3 42.2968 165.584 41.4898 165.584 40.3838V39.8906L162.285 40.3838C161.806 40.4586 161.425 40.6304 161.141 40.8994C160.856 41.1684 160.714 41.5346 160.714 41.9979C160.714 42.4164 160.871 42.7825 161.186 43.0964C161.515 43.4102 161.941 43.5671 162.465 43.5671ZM173.455 49.5078H171.143L173.836 43.8137L169.191 34.219H171.614L174.981 41.6616L178.212 34.219H180.479L173.455 49.5078Z" fill="white"/>
<path opacity="0.6" d="M66.5273 20.4486V17.2973H63.5009V18.3222H65.4159C65.3475 18.7492 64.9115 19.5007 63.7916 19.5007C62.7742 19.5007 61.8766 18.7919 61.8766 17.4254C61.8766 15.9907 62.8683 15.3673 63.783 15.3673C64.7662 15.3673 65.2706 15.9907 65.4244 16.5287L66.5529 16.1274C66.2537 15.1965 65.3731 14.2656 63.783 14.2656C62.1416 14.2656 60.6797 15.4698 60.6797 17.4254C60.6797 19.3811 62.0732 20.5767 63.7061 20.5767C64.6208 20.5767 65.2193 20.1668 65.4928 19.7569L65.5698 20.4486H66.5273ZM73.1165 20.4486V19.3384H70.5005V17.9378H72.8686V16.8874H70.5005V15.5039H73.1165V14.3937H69.3207V20.4486H73.1165ZM80.4623 15.5125V14.3937H75.444V15.5125H77.359V20.4486H78.5473V15.5125H80.4623ZM87.8078 20.4486V14.3937H86.6109V20.4486H87.8078ZM95.2563 15.5125V14.3937H90.238V15.5125H92.153V20.4486H93.3413V15.5125H95.2563ZM102.268 17.4169C102.268 16.0505 103.226 15.4015 104.158 15.4015C105.098 15.4015 106.056 16.0505 106.056 17.4169C106.056 18.7833 105.098 19.4324 104.158 19.4324C103.226 19.4324 102.268 18.7833 102.268 17.4169ZM101.046 17.4254C101.046 19.3726 102.516 20.5767 104.158 20.5767C105.808 20.5767 107.278 19.3726 107.278 17.4254C107.278 15.4698 105.808 14.2656 104.158 14.2656C102.516 14.2656 101.046 15.4698 101.046 17.4254ZM115.077 20.4486V14.3937H113.897V18.399L111.374 14.3937H109.904V20.4486H111.084V16.153L113.837 20.4486H115.077Z" fill="white"/>
<path d="M26.2119 44.5639C25.5789 44.9726 24.8187 45.0961 24.1055 44.9278L36.6375 32.4092L40.6991 36.4665L26.2119 44.5639Z" fill="white"/>
<path d="M22.5507 43.9104C22.2012 43.4463 22 42.8763 22 42.2734V19.9739C22 19.371 22.2012 18.8011 22.5507 18.3369L35.351 31.1236L22.5507 43.9104Z" fill="white"/>
<path d="M46.0013 33.504L42.3509 35.5442L37.9258 31.1238L42.3512 26.7031L46.0019 28.7436C46.8765 29.233 47.3986 30.1228 47.3986 31.1238C47.3986 32.1248 46.8765 33.0144 46.0013 33.504Z" fill="white"/>
<path d="M36.6366 29.8383L24.1055 17.3204C24.3109 17.272 24.52 17.2461 24.729 17.2461C25.2458 17.2461 25.7607 17.3929 26.2111 17.6836L40.6984 25.7809L36.6366 29.8383Z" fill="white"/>
</svg>
