<svg width="22" height="22" viewBox="0 0 22 22" fill="none" xmlns="http://www.w3.org/2000/svg">
<path fill-rule="evenodd" clip-rule="evenodd" d="M5.86295 3.67351C7.20162 3.81758 8.97276 4.19065 10.3124 4.99098V14.3783C8.97276 13.578 7.20162 13.2049 5.86295 13.0608C5.15846 12.985 4.58325 12.4245 4.58325 11.7333V4.84924C4.58325 4.15797 5.15846 3.5977 5.86295 3.67351ZM16.1369 13.0608C14.7982 13.2049 13.0271 13.578 11.6874 14.3783V4.99097C13.0271 4.19065 14.7982 3.81758 16.1369 3.67351C16.8414 3.5977 17.4166 4.15797 17.4166 4.84924V11.7333C17.4166 12.4245 16.8414 12.985 16.1369 13.0608ZM1.83325 11.3332C1.83325 10.1285 2.36577 9.04827 3.20825 8.31493V11.7332C3.20825 13.2344 4.42525 14.289 5.71582 14.4279C7.06849 14.5735 8.71391 14.9555 9.79829 15.6792C10.5223 16.1624 11.4775 16.1624 12.2015 15.6792C13.2859 14.9555 14.9313 14.5735 16.284 14.4279C17.5746 14.289 18.7916 13.2344 18.7916 11.7332V8.31493C19.6341 9.04827 20.1666 10.1285 20.1666 11.3332V14.3332C20.1666 16.5423 18.3757 18.3332 16.1666 18.3332H5.83325C3.62411 18.3332 1.83325 16.5423 1.83325 14.3332V11.3332Z" fill="#868E96"/>
</svg>
