<svg width="22" height="21" viewBox="0 0 22 21" fill="none" xmlns="http://www.w3.org/2000/svg">
<path opacity="0.9" d="M21.7701 8.34109L17.1551 12.8376L18.244 19.1934C18.2884 19.4749 18.1773 19.749 17.9477 19.9194C17.8218 20.0157 17.6662 20.0601 17.5106 20.0601C17.3921 20.0601 17.2736 20.0305 17.1625 19.9786L11.4585 16.9785L5.75459 19.9786C5.50272 20.112 5.20641 20.0897 4.97678 19.9194C4.74714 19.7564 4.63602 19.4749 4.68047 19.1934L5.7694 12.8376L1.1618 8.34109C0.961791 8.14108 0.887714 7.85218 0.976607 7.5855C1.0655 7.31883 1.29514 7.11882 1.57663 7.08178L7.95468 6.15581L10.8066 0.377794C11.0585 -0.125931 11.8882 -0.125931 12.1326 0.377794L14.9846 6.15581L21.3626 7.08178C21.6441 7.12622 21.8738 7.31883 21.9627 7.5855C22.0516 7.85218 21.9775 8.14108 21.7701 8.34109Z" fill="#CED4DA"/>
</svg>
