<svg width="276" height="243" viewBox="0 0 276 243" fill="none" xmlns="http://www.w3.org/2000/svg">
<path opacity="0.2" d="M29.5598 228.398L3.83984 227.862L27.9523 124.849L26.8807 56.7978L44.5631 53.8507L47.2423 42.4643L76.981 40.7228C77.2489 34.5607 83.0091 26.2553 86.0902 22.2366C87.8316 19.9593 89.5731 17.9499 91.4485 16.0745L91.5825 15.9405C92.1183 15.4047 92.6541 14.8689 93.3239 14.333L93.4579 14.1991C93.7258 13.9312 93.9937 13.6632 94.2616 13.5293L94.5295 13.3953C95.3333 12.7255 96.137 12.0557 96.8068 11.5199L97.2087 11.118C97.3427 10.9841 97.6106 10.8501 97.7445 10.7162C97.8785 10.5822 98.4143 10.3143 98.4143 10.3143C98.5483 10.1803 98.6822 10.1803 98.8162 10.0464C99.0841 9.91241 99.486 9.6445 99.7539 9.51054C99.8879 9.51054 100.022 9.37658 100.156 9.37658C100.424 9.24262 100.692 9.10867 100.96 9.10867C101.093 8.97471 101.361 8.97471 101.495 8.97471C101.763 8.84075 102.031 8.84075 102.433 8.70679C102.433 8.70679 102.567 8.70679 102.701 8.57283C103.103 8.43887 103.505 8.43887 103.907 8.43887L106.586 3.48242L109.935 12.5916V12.7255C110.337 13.7972 111.14 17.4141 110.069 22.6384L121.723 29.8722H121.857C122.259 29.6043 122.527 29.4703 122.795 29.3363L123.063 29.2024C123.331 29.0684 123.598 28.9345 123.866 28.8005L124.134 28.6666C124.536 28.5326 124.804 28.3986 125.072 28.2647L125.34 28.1307C125.608 27.9968 125.876 27.8628 126.144 27.7289L126.546 27.5949C126.813 27.4609 127.081 27.4609 127.215 27.327C127.215 27.327 128.019 27.0591 128.287 26.9251L128.689 26.7911C128.957 26.6572 129.091 26.6572 129.359 26.6572C129.359 26.6572 130.162 26.5232 130.43 26.3893C130.43 26.3893 131.234 26.2553 131.368 26.1214C131.368 26.1214 132.038 25.9874 132.306 25.9874L133.377 25.8534C133.645 25.8534 133.913 25.8534 134.181 25.8534C134.583 25.8534 134.851 25.8534 135.119 25.8534H135.655C139.539 25.8534 141.817 26.9251 141.817 26.9251C142.621 27.327 143.156 27.7288 143.424 27.8628C145.969 29.8722 147.711 32.8193 148.247 36.4361L250.859 19.0216L252.198 30.8099L260.37 30.2741L258.092 81.4461L275.239 226.523L251.796 228.13L251.529 232.953L196.874 231.881L29.8277 243.134L29.5598 228.398Z" fill="#B1B8C4"/>
<path d="M26.4778 224.915L0.757812 224.379L24.8703 121.366L23.7986 53.3149L41.4811 50.3678L44.1603 39.1153L73.899 37.3738C74.1669 31.2118 79.9271 22.9064 83.0081 18.8876C84.7496 16.6103 86.491 14.601 88.3665 12.7255L88.5004 12.5916C89.0362 12.0557 89.5721 11.5199 90.2419 10.9841L90.3758 10.7162C90.6437 10.4482 90.9117 10.1803 91.1796 10.0464L91.4475 9.77846C92.2512 9.10867 93.055 8.43888 93.7248 7.90304L94.1267 7.63513C94.2606 7.50117 94.5285 7.36721 94.6625 7.23325C94.7964 7.0993 95.3323 6.83138 95.3323 6.83138C95.4662 6.69742 95.6002 6.69742 95.7342 6.56346C96.0021 6.4295 96.4039 6.16159 96.6719 6.02763C96.8058 6.02763 96.9398 5.89367 97.0737 5.89367C97.3417 5.75971 97.6096 5.62575 97.8775 5.62575C98.0114 5.4918 98.1454 5.35784 98.2794 5.35784C98.5473 5.22388 98.8152 5.22388 99.2171 5.08992C99.2171 5.08992 99.351 5.08992 99.485 4.95596C99.8869 4.82201 100.289 4.82201 100.691 4.82201L103.504 -0.000488281L106.853 9.10867V9.24263C107.255 10.3143 108.058 13.9312 106.987 19.1555L118.641 26.3893H118.775C119.177 26.1214 119.445 25.9874 119.713 25.8534L119.981 25.7195C120.249 25.5855 120.516 25.4516 120.784 25.3176L121.052 25.1836C121.454 25.0497 121.722 24.9157 121.99 24.7818L122.258 24.6478C122.526 24.5139 122.794 24.3799 123.062 24.2459L123.463 24.112C123.731 23.978 123.999 23.978 124.133 23.8441C124.133 23.8441 124.937 23.5762 125.205 23.4422L125.607 23.3082C125.875 23.1743 126.009 23.1743 126.277 23.1743C126.277 23.1743 127.08 23.0403 127.348 22.9064C127.348 22.9064 128.152 22.7724 128.286 22.6384C128.286 22.6384 128.956 22.5045 129.224 22.5045L130.295 22.3705C130.563 22.3705 130.831 22.3705 131.099 22.3705C131.501 22.3705 131.769 22.3705 132.037 22.3705H132.573C136.457 22.3705 138.735 23.4422 138.735 23.4422C139.538 23.8441 140.074 24.2459 140.342 24.3799C142.887 26.3893 144.629 29.3364 145.165 32.9532L247.777 15.5387L249.116 27.327L257.288 26.7911L255.01 77.9632L272.157 223.04L248.714 224.647L248.446 229.47L193.792 228.398L26.7457 239.651L26.4778 224.915Z" fill="white"/>
<path d="M28.3516 57.0665L243.89 20.6299L267.199 218.888L31.0307 234.829L28.3516 57.0665Z" fill="#58C0BF"/>
<path d="M78.5889 48.6268L53.4048 52.9135L29.8281 153.65L30.8998 222.772L142.353 227.327L250.859 220.093L252.735 96.3159L245.903 37.9102L78.5889 48.6268Z" fill="#128593"/>
<path d="M6.25 220.094L47.6431 43.2688L252.599 31.4805L244.294 224.916L6.25 220.094Z" fill="#1897A6"/>
<path d="M14.2891 213.931L52.7351 49.2963L246.037 38.1777L238.267 218.485L14.2891 213.931Z" fill="white"/>
<g opacity="0.75">
<path d="M46.2052 136.064C46.753 135.813 47.3357 135.623 47.9532 135.492C48.5688 135.331 49.2055 135.262 49.8634 135.286C50.4882 135.28 51.0866 135.354 51.6583 135.508C52.2594 135.628 52.8028 135.831 53.2884 136.115C55.999 137.549 58.3338 138.442 60.2927 138.795C62.2828 139.146 63.6937 138.954 64.5254 138.217C64.8552 137.978 64.9 137.679 64.6598 137.318C64.4508 136.955 64.0375 136.573 63.4199 136.172C62.8315 135.738 62.0856 135.282 61.1821 134.804C60.3079 134.293 59.3704 133.77 58.3698 133.235C57.4003 132.699 56.4143 132.147 55.4118 131.582C54.4404 131.014 53.546 130.426 52.7286 129.818C51.847 129.182 51.0387 128.464 50.3037 127.663C49.5979 126.83 49.0287 125.926 48.596 124.951C48.1614 123.945 47.8945 122.867 47.7952 121.716C47.6959 120.565 47.8119 119.355 48.1432 118.085C48.3609 117.009 48.7609 115.845 49.3433 114.591C49.9568 113.336 50.6811 112.105 51.5163 110.899C52.3516 109.693 53.2849 108.56 54.3162 107.498C55.3475 106.437 56.4036 105.531 57.4846 104.779C57.8729 104.475 58.3557 104.18 58.9328 103.896C59.5081 103.581 60.1503 103.34 60.8594 103.173C61.5996 103.004 62.3921 102.926 63.2369 102.939C64.1109 102.918 65.0235 103.02 65.9746 103.246C67.4058 103.661 68.8435 104.186 70.2877 104.819C71.7318 105.453 72.9478 106.194 73.9357 107.042C74.5919 107.566 75.0932 108.114 75.4397 108.688C75.8155 109.228 76.0823 109.775 76.2401 110.328C76.429 110.88 76.5391 111.42 76.5704 111.95C76.631 112.447 76.6751 112.929 76.7027 113.396C76.659 114.242 76.5576 115.171 76.3985 116.18C76.2393 117.19 76.05 118.217 75.8304 119.262C75.609 120.275 75.3546 121.259 75.0672 122.214C74.7798 123.169 74.485 123.999 74.1829 124.704C73.877 125.348 73.5262 125.759 73.1305 125.939C72.7347 126.119 72.1704 126.089 71.4373 125.851C67.1124 124.607 65.0293 122.682 65.188 120.078C65.1878 119.547 65.2454 118.934 65.3606 118.239C65.5051 117.512 65.635 116.801 65.7503 116.106C65.8948 115.379 66.011 114.7 66.0987 114.07C66.1847 113.408 66.1845 112.877 66.0983 112.475C66.0432 112.072 65.8892 111.847 65.6363 111.799C65.3834 111.752 64.973 111.948 64.4051 112.388C63.9233 112.698 63.3874 113.151 62.7976 113.749C62.2077 114.347 61.638 115.021 61.0885 115.772C60.5702 116.522 60.1022 117.331 59.6847 118.2C59.2983 119.067 59.0521 119.925 58.9461 120.776C58.84 121.626 58.9044 122.45 59.1392 123.249C59.374 124.048 59.868 124.738 60.6213 125.319C61.5744 126.106 62.6182 126.842 63.7527 127.525C64.9183 128.206 66.0674 128.873 67.2 129.525C68.362 130.144 69.446 130.767 70.4522 131.396C71.4895 132.022 72.3418 132.691 73.009 133.401C73.7055 134.079 74.1556 134.818 74.3592 135.619C74.5922 136.387 74.4862 137.237 74.0412 138.17C73.7683 138.843 73.3737 139.569 72.8571 140.35C72.3406 141.131 71.6345 141.876 70.7386 142.585C69.8409 143.263 68.7352 143.86 67.4216 144.376C66.1079 144.891 64.5174 145.219 62.6502 145.361C60.1619 145.571 57.7063 145.278 55.2837 144.484C52.8591 143.658 50.3162 142.151 47.6549 139.964C46.2473 138.891 45.4957 138.076 45.4003 137.519C45.3653 136.927 45.6336 136.442 46.2052 136.064ZM106.755 108.9C105.547 109.096 104.232 109.314 102.808 109.555C101.382 109.764 99.911 109.992 98.3939 110.238C97.8944 112.893 97.3693 115.644 96.8186 118.49C96.299 121.334 95.7941 124.161 95.3039 126.972C94.8118 129.752 94.3471 132.468 93.91 135.12C93.504 137.77 93.1501 140.244 92.8484 142.544C92.8119 142.984 92.6727 143.273 92.4309 143.413C92.2221 143.581 91.9142 143.662 91.5074 143.655C91.1025 143.679 90.6306 143.629 90.0919 143.504C89.5531 143.38 88.9511 143.243 88.2859 143.095C87.6207 142.947 87.0168 142.779 86.4744 142.593C85.9319 142.406 85.4646 142.168 85.0724 141.878C84.7113 141.587 84.4409 141.244 84.2612 140.848C84.0797 140.421 84.0337 139.908 84.1233 139.309C84.1284 137.808 84.2066 135.959 84.3581 133.762C84.5095 131.565 84.7003 129.24 84.9305 126.789C85.1918 124.335 85.4833 121.864 85.8051 119.375C86.125 116.856 86.456 114.523 86.798 112.377C85.9039 112.586 85.0399 112.778 84.2063 112.952C83.3707 113.095 82.6772 113.261 82.1257 113.45C81.358 113.683 80.7212 113.752 80.2155 113.657C79.7078 113.531 79.1232 113.159 78.4615 112.542C77.7687 111.926 77.128 111.136 76.5395 110.17C75.9199 109.206 75.4185 108.392 75.0353 107.727C74.6191 107.033 74.498 106.571 74.6721 106.342C74.8442 106.082 75.2216 105.856 75.8043 105.665C77.6201 105.183 79.6713 104.718 81.9581 104.27C84.2759 103.82 86.6268 103.4 89.0107 103.009C91.4257 102.616 93.7811 102.274 96.0771 101.982C98.4023 101.657 100.482 101.409 102.316 101.238C103.282 101.181 103.973 101.234 104.389 101.396C104.834 101.526 105.224 101.785 105.56 102.171C106.225 102.851 106.785 103.599 107.24 104.416C107.695 105.234 108.055 106.041 108.321 106.838C108.55 107.543 108.58 108.041 108.409 108.333C108.268 108.591 107.717 108.78 106.755 108.9ZM117.536 130.206C117.212 132.132 116.915 133.978 116.644 135.745C116.405 137.51 116.163 139.243 115.92 140.946C115.794 141.453 115.595 141.793 115.324 141.966C115.084 142.136 114.601 142.165 113.875 142.051C113.021 141.883 112.264 141.756 111.602 141.67C110.941 141.584 110.305 141.403 109.695 141.126C109.082 140.818 108.654 140.437 108.408 139.983C108.16 139.498 108.044 138.848 108.058 138.034C108.082 137.377 108.119 136.421 108.17 135.168C108.19 133.916 108.232 132.507 108.295 130.94C108.357 129.342 108.444 127.633 108.555 125.814C108.635 123.996 108.731 122.177 108.842 120.358C108.984 118.536 109.146 116.776 109.327 115.078C109.506 113.348 109.711 111.804 109.944 110.446C110.174 109.057 110.451 107.915 110.773 107.021C111.093 106.095 111.45 105.512 111.842 105.27C113.721 104.283 115.68 103.308 117.717 102.343C119.786 101.377 121.822 100.663 123.827 100.2C125.861 99.705 127.79 99.5597 129.615 99.7644C131.47 99.9361 133.122 100.651 134.572 101.91C135.732 103.029 136.789 104.248 137.742 105.567C138.725 106.853 139.523 108.463 140.137 110.396C140.666 112.459 140.611 114.181 139.974 115.563C139.011 117.777 137.321 119.862 134.905 121.818C132.519 123.772 129.628 125.631 126.232 127.395C126.996 128.162 127.825 128.973 128.72 129.826C129.646 130.678 130.587 131.529 131.544 132.379C132.5 133.229 133.44 134.049 134.362 134.838C135.315 135.626 136.199 136.308 137.015 136.885C137.669 137.378 137.974 137.782 137.93 138.097C137.886 138.412 137.641 138.755 137.194 139.125C136.659 139.594 136.192 139.888 135.792 140.005C135.422 140.09 134.96 140.195 134.404 140.322C133.73 140.549 132.97 140.641 132.123 140.597C131.31 140.583 130.338 140.281 129.209 139.691C128.463 139.235 127.601 138.661 126.622 137.968C125.644 137.276 124.629 136.508 123.579 135.663C122.529 134.819 121.477 133.943 120.423 133.036C119.367 132.099 118.405 131.155 117.536 130.206ZM121.414 110.94C121.009 112.558 120.627 114.284 120.267 116.119C119.906 117.953 119.491 119.916 119.02 122.007C121.127 121.163 122.976 120.179 124.566 119.053C126.186 117.894 127.525 116.752 128.584 115.627C129.641 114.47 130.39 113.395 130.831 112.399C131.273 111.404 131.384 110.648 131.166 110.129C130.74 109.279 129.609 108.908 127.771 109.017C126.868 109.07 125.877 109.238 124.8 109.521C123.722 109.803 122.594 110.276 121.414 110.94ZM153.583 101.817C154.49 102.358 155.034 102.841 155.216 103.268C155.429 103.693 155.451 104.333 155.282 105.187C154.929 106.614 154.541 108.247 154.118 110.085C153.727 111.921 153.326 113.867 152.916 115.923C152.536 117.946 152.159 120.032 151.786 122.18C151.411 124.296 151.049 126.381 150.702 128.433C150.352 130.454 150.029 132.38 149.73 134.211C149.462 136.009 149.229 137.617 149.031 139.035C148.907 139.574 148.709 139.929 148.438 140.102C148.198 140.272 147.667 140.288 146.846 140.149C146.023 139.979 145.232 139.807 144.471 139.633C143.742 139.457 143.04 139.217 142.366 138.913C141.629 138.613 141.139 138.251 140.895 137.828C140.618 137.375 140.502 136.741 140.548 135.926C140.546 134.832 140.603 133.422 140.72 131.696C140.804 129.94 140.94 128.025 141.13 125.951C141.289 123.879 141.488 121.694 141.728 119.398C141.967 117.102 142.209 114.853 142.454 112.65C142.73 110.446 143.013 108.366 143.304 106.41C143.593 104.424 143.866 102.689 144.122 101.204C144.349 100.284 144.69 99.7172 145.147 99.5026C145.632 99.2551 146.366 99.243 147.348 99.4663C148.329 99.6584 149.394 99.9705 150.545 100.403C151.696 100.835 152.709 101.306 153.583 101.817ZM188.955 103.29C188.6 104.686 188.118 106.309 187.508 108.158C186.898 110.007 186.218 111.985 185.467 114.093C184.715 116.169 183.919 118.31 183.081 120.517C182.242 122.723 181.4 124.868 180.554 126.949C179.708 129.031 178.901 130.986 178.134 132.813C177.367 134.64 176.678 136.213 176.069 137.53C175.677 138.304 175.19 138.801 174.609 139.023C174.03 139.276 173.188 139.295 172.081 139.079C170.972 138.832 169.941 138.58 168.988 138.324C168.035 138.068 167.03 137.721 165.973 137.283C164.789 136.822 163.86 136.173 163.185 135.338C162.54 134.47 162.102 133.667 161.871 132.931C160.528 128.727 159.263 123.988 158.076 118.713C156.918 113.405 155.808 107.578 154.745 101.233C154.633 100.395 154.676 99.7989 154.874 99.4434C155.04 99.0896 155.591 98.8852 156.525 98.8299C157.429 98.7765 158.258 98.79 159.013 98.8704C159.799 98.949 160.623 99.1347 161.484 99.4277C163.584 100.054 164.833 101.355 165.232 103.332C165.509 104.848 165.813 106.565 166.146 108.483C166.509 110.4 166.879 112.425 167.255 114.56C167.631 116.695 168.029 118.922 168.447 121.241C168.895 123.528 169.358 125.798 169.835 128.052C171.623 123.414 173.335 118.53 174.97 113.4C176.636 108.269 178.305 103.185 179.976 98.1468C180.192 97.5714 180.497 97.1782 180.891 96.9674C181.283 96.7254 181.731 96.6364 182.235 96.7004C182.769 96.7314 183.324 96.8705 183.901 97.1177C184.508 97.3319 185.118 97.6084 185.732 97.9472C186.375 98.253 186.957 98.5781 187.478 98.9225C187.996 99.2356 188.409 99.602 188.715 100.022C189.021 100.441 189.19 100.916 189.221 101.445C189.283 101.973 189.195 102.588 188.955 103.29ZM190.613 99.4404C191.932 99.0186 193.391 98.5729 194.989 98.1033C196.617 97.6319 198.311 97.1879 200.068 96.7715C201.856 96.3531 203.678 95.9797 205.534 95.6511C207.42 95.2896 209.295 95.0224 211.161 94.8496C212.934 94.7135 214.112 95.3316 214.693 96.7039C215.142 97.4276 215.463 98.0963 215.656 98.7101C215.846 99.2928 216.041 99.9377 216.239 100.645C216.411 101.448 216.381 101.996 216.149 102.291C215.916 102.587 215.352 102.823 214.456 103.001C212.6 103.33 210.681 103.662 208.701 103.998C206.72 104.334 204.633 104.723 202.439 105.165C202.055 106.594 201.706 108.084 201.391 109.635C201.074 111.154 200.716 112.754 200.315 114.434C201.242 114.254 202.171 114.105 203.102 113.988C204.033 113.87 205.027 113.765 206.084 113.671C206.954 113.588 207.644 113.626 208.154 113.783C208.663 113.94 209.108 114.321 209.487 114.923C209.898 115.524 210.215 116.131 210.439 116.743C210.692 117.322 210.915 117.918 211.107 118.532C211.399 119.234 211.443 119.715 211.239 119.978C211.067 120.238 210.551 120.487 209.689 120.726C207.841 121.179 205.944 121.619 204 122.047C202.087 122.472 200.239 122.925 198.454 123.406C198.264 124.418 198.086 125.382 197.922 126.298C197.755 127.183 197.573 128.069 197.375 128.956C198.825 128.62 200.199 128.336 201.498 128.103C202.828 127.868 204.269 127.657 205.821 127.472C206.69 127.358 207.363 127.381 207.842 127.54C208.351 127.697 208.794 128.046 209.17 128.587C209.58 129.188 209.896 129.763 210.116 130.313C210.365 130.829 210.631 131.361 210.913 131.907C211.106 132.52 211.132 132.957 210.991 133.215C210.848 133.442 210.36 133.659 209.528 133.864C207.557 134.356 205.555 134.865 203.523 135.391C201.491 135.918 199.551 136.408 197.702 136.861C196.474 137.246 195.528 137.365 194.863 137.216C194.231 137.097 193.672 136.896 193.186 136.612C192.636 136.301 192.102 135.988 191.583 135.675C191.094 135.329 190.506 134.895 189.818 134.373C189.263 133.968 188.828 133.478 188.512 132.903C188.166 132.329 187.999 131.62 188.011 130.776L190.613 99.4404Z" fill="#54051E"/>
</g>
<path d="M46.2052 131.353C46.753 131.101 47.3357 130.911 47.9532 130.78C48.5688 130.619 49.2055 130.55 49.8634 130.574C50.4882 130.568 51.0866 130.642 51.6583 130.796C52.2594 130.916 52.8028 131.119 53.2884 131.403C55.999 132.837 58.3338 133.73 60.2927 134.083C62.2828 134.435 63.6937 134.242 64.5254 133.505C64.8552 133.267 64.9 132.967 64.6598 132.606C64.4508 132.243 64.0375 131.861 63.4199 131.46C62.8315 131.026 62.0856 130.57 61.1821 130.092C60.3079 129.581 59.3704 129.058 58.3698 128.523C57.4003 127.987 56.4143 127.436 55.4118 126.87C54.4404 126.302 53.546 125.714 52.7286 125.106C51.847 124.47 51.0387 123.752 50.3037 122.952C49.5979 122.118 49.0287 121.214 48.596 120.239C48.1614 119.233 47.8945 118.155 47.7952 117.004C47.6959 115.854 47.8119 114.643 48.1432 113.373C48.3609 112.298 48.7609 111.133 49.3433 109.879C49.9568 108.624 50.6811 107.393 51.5163 106.187C52.3516 104.981 53.2849 103.848 54.3162 102.786C55.3475 101.725 56.4036 100.819 57.4846 100.067C57.8729 99.7628 58.3557 99.4686 58.9328 99.1844C59.5081 98.869 60.1503 98.6279 60.8594 98.4609C61.5996 98.2921 62.3921 98.214 63.2369 98.2266C64.1109 98.2062 65.0235 98.3085 65.9746 98.5336C67.4058 98.9492 68.8435 99.4737 70.2877 100.107C71.7318 100.741 72.9478 101.482 73.9357 102.33C74.5919 102.854 75.0932 103.402 75.4397 103.976C75.8155 104.516 76.0823 105.063 76.2401 105.617C76.429 106.168 76.5391 106.709 76.5704 107.238C76.631 107.735 76.6751 108.217 76.7027 108.684C76.659 109.53 76.5576 110.459 76.3985 111.468C76.2393 112.478 76.05 113.505 75.8304 114.55C75.609 115.563 75.3546 116.547 75.0672 117.502C74.7798 118.457 74.485 119.287 74.1829 119.992C73.877 120.636 73.5262 121.047 73.1305 121.227C72.7347 121.407 72.1704 121.377 71.4373 121.139C67.1124 119.895 65.0293 117.97 65.188 115.366C65.1878 114.835 65.2454 114.222 65.3606 113.528C65.5051 112.8 65.635 112.089 65.7503 111.395C65.8948 110.667 66.011 109.988 66.0987 109.358C66.1847 108.696 66.1845 108.165 66.0983 107.763C66.0432 107.36 65.8892 107.135 65.6363 107.087C65.3834 107.04 64.973 107.236 64.4051 107.676C63.9233 107.986 63.3874 108.44 62.7976 109.037C62.2077 109.635 61.638 110.309 61.0885 111.061C60.5702 111.81 60.1022 112.619 59.6847 113.488C59.2983 114.355 59.0521 115.213 58.9461 116.064C58.84 116.914 58.9044 117.739 59.1392 118.537C59.374 119.336 59.868 120.026 60.6213 120.607C61.5744 121.394 62.6182 122.13 63.7527 122.813C64.9183 123.494 66.0674 124.161 67.2 124.813C68.362 125.432 69.446 126.056 70.4522 126.684C71.4895 127.31 72.3418 127.979 73.009 128.689C73.7055 129.367 74.1556 130.107 74.3592 130.907C74.5922 131.675 74.4862 132.525 74.0412 133.458C73.7683 134.131 73.3737 134.857 72.8571 135.638C72.3406 136.419 71.6345 137.164 70.7386 137.873C69.8409 138.552 68.7352 139.148 67.4216 139.664C66.1079 140.179 64.5174 140.507 62.6502 140.649C60.1619 140.859 57.7063 140.566 55.2837 139.772C52.8591 138.946 50.3162 137.44 47.6549 135.252C46.2473 134.179 45.4957 133.364 45.4003 132.807C45.3653 132.215 45.6336 131.73 46.2052 131.353ZM106.755 104.188C105.547 104.384 104.232 104.602 102.808 104.843C101.382 105.052 99.911 105.28 98.3939 105.526C97.8944 108.181 97.3693 110.932 96.8186 113.778C96.299 116.622 95.7941 119.449 95.3039 122.26C94.8118 125.04 94.3471 127.756 93.91 130.408C93.504 133.058 93.1501 135.532 92.8484 137.832C92.8119 138.272 92.6727 138.562 92.4309 138.701C92.2221 138.869 91.9142 138.95 91.5074 138.943C91.1025 138.967 90.6306 138.917 90.0919 138.792C89.5531 138.668 88.9511 138.531 88.2859 138.383C87.6207 138.235 87.0168 138.068 86.4744 137.881C85.9319 137.694 85.4646 137.456 85.0724 137.167C84.7113 136.875 84.4409 136.532 84.2612 136.136C84.0797 135.709 84.0337 135.196 84.1233 134.597C84.1284 133.096 84.2066 131.247 84.3581 129.05C84.5095 126.853 84.7003 124.528 84.9305 122.077C85.1918 119.623 85.4833 117.152 85.8051 114.663C86.125 112.144 86.456 109.811 86.798 107.665C85.9039 107.874 85.0399 108.066 84.2063 108.24C83.3707 108.383 82.6772 108.549 82.1257 108.738C81.358 108.971 80.7212 109.04 80.2155 108.945C79.7078 108.819 79.1232 108.447 78.4615 107.83C77.7687 107.214 77.128 106.424 76.5395 105.458C75.9199 104.495 75.4185 103.68 75.0353 103.015C74.6191 102.321 74.498 101.859 74.6721 101.63C74.8442 101.37 75.2216 101.144 75.8043 100.953C77.6201 100.471 79.6713 100.006 81.9581 99.558C84.2759 99.1084 86.6268 98.6881 89.0107 98.2971C91.4257 97.9042 93.7811 97.5618 96.0771 97.2697C98.4023 96.9447 100.482 96.6967 102.316 96.5258C103.282 96.4687 103.973 96.5216 104.389 96.6846C104.834 96.8145 105.224 97.0728 105.56 97.4593C106.225 98.139 106.785 98.8873 107.24 99.7045C107.695 100.522 108.055 101.329 108.321 102.126C108.55 102.831 108.58 103.33 108.409 103.621C108.268 103.879 107.717 104.068 106.755 104.188ZM117.536 125.494C117.212 127.42 116.915 129.267 116.644 131.033C116.405 132.798 116.163 134.531 115.92 136.234C115.794 136.741 115.595 137.081 115.324 137.254C115.084 137.424 114.601 137.453 113.875 137.339C113.021 137.171 112.264 137.044 111.602 136.958C110.941 136.872 110.305 136.691 109.695 136.414C109.082 136.107 108.654 135.726 108.408 135.271C108.16 134.786 108.044 134.136 108.058 133.322C108.082 132.665 108.119 131.709 108.17 130.456C108.19 129.204 108.232 127.795 108.295 126.228C108.357 124.63 108.444 122.922 108.555 121.102C108.635 119.284 108.731 117.465 108.842 115.646C108.984 113.824 109.146 112.064 109.327 110.366C109.506 108.636 109.711 107.092 109.944 105.734C110.174 104.345 110.451 103.203 110.773 102.309C111.093 101.383 111.45 100.8 111.842 100.558C113.721 99.5714 115.68 98.5959 117.717 97.6315C119.786 96.6652 121.822 95.9509 123.827 95.4885C125.861 94.9931 127.79 94.8478 129.615 95.0525C131.47 95.2242 133.122 95.9393 134.572 97.1977C135.732 98.317 136.789 99.5361 137.742 100.855C138.725 102.141 139.523 103.751 140.137 105.684C140.666 107.747 140.611 109.469 139.974 110.851C139.011 113.065 137.321 115.15 134.905 117.106C132.519 119.06 129.628 120.919 126.232 122.683C126.996 123.45 127.825 124.261 128.72 125.114C129.646 125.966 130.587 126.817 131.544 127.667C132.5 128.517 133.44 129.337 134.362 130.126C135.315 130.914 136.199 131.596 137.015 132.173C137.669 132.666 137.974 133.07 137.93 133.385C137.886 133.7 137.641 134.043 137.194 134.413C136.659 134.883 136.192 135.176 135.792 135.293C135.422 135.378 134.96 135.483 134.404 135.61C133.73 135.837 132.97 135.929 132.123 135.885C131.31 135.871 130.338 135.569 129.209 134.979C128.463 134.523 127.601 133.949 126.622 133.257C125.644 132.564 124.629 131.796 123.579 130.951C122.529 130.107 121.477 129.231 120.423 128.325C119.367 127.387 118.405 126.443 117.536 125.494ZM121.414 106.228C121.009 107.846 120.627 109.572 120.267 111.407C119.906 113.241 119.491 115.204 119.02 117.295C121.127 116.451 122.976 115.467 124.566 114.341C126.186 113.183 127.525 112.041 128.584 110.915C129.641 109.759 130.39 108.683 130.831 107.688C131.273 106.692 131.384 105.936 131.166 105.417C130.74 104.567 129.609 104.196 127.771 104.305C126.868 104.358 125.877 104.526 124.8 104.809C123.722 105.091 122.594 105.564 121.414 106.228ZM153.583 97.1053C154.49 97.6456 155.034 98.1292 155.216 98.5561C155.429 98.9812 155.451 99.6207 155.282 100.475C154.929 101.902 154.541 103.535 154.118 105.373C153.727 107.209 153.326 109.155 152.916 111.211C152.536 113.235 152.159 115.32 151.786 117.468C151.411 119.584 151.049 121.669 150.702 123.721C150.352 125.742 150.029 127.668 149.73 129.499C149.462 131.297 149.229 132.905 149.031 134.323C148.907 134.862 148.709 135.217 148.438 135.39C148.198 135.56 147.667 135.576 146.846 135.437C146.023 135.267 145.232 135.095 144.471 134.921C143.742 134.745 143.04 134.505 142.366 134.201C141.629 133.901 141.139 133.539 140.895 133.116C140.618 132.664 140.502 132.03 140.548 131.214C140.546 130.12 140.603 128.71 140.72 126.984C140.804 125.228 140.94 123.314 141.13 121.239C141.289 119.167 141.488 116.982 141.728 114.686C141.967 112.39 142.209 110.141 142.454 107.938C142.73 105.734 143.013 103.654 143.304 101.699C143.593 99.7121 143.866 97.9768 144.122 96.4924C144.349 95.5725 144.69 95.0053 145.147 94.7907C145.632 94.5432 146.366 94.5311 147.348 94.7543C148.329 94.9465 149.394 95.2586 150.545 95.6907C151.696 96.1228 152.709 96.5943 153.583 97.1053ZM188.955 98.5777C188.6 99.9741 188.118 101.597 187.508 103.446C186.898 105.295 186.218 107.273 185.467 109.381C184.715 111.457 183.919 113.599 183.081 115.805C182.242 118.012 181.4 120.156 180.554 122.238C179.708 124.319 178.901 126.274 178.134 128.101C177.367 129.928 176.678 131.501 176.069 132.818C175.677 133.592 175.19 134.089 174.609 134.311C174.03 134.564 173.188 134.583 172.081 134.367C170.972 134.12 169.941 133.868 168.988 133.612C168.035 133.356 167.03 133.009 165.973 132.571C164.789 132.11 163.86 131.461 163.185 130.626C162.54 129.758 162.102 128.955 161.871 128.219C160.528 124.015 159.263 119.276 158.076 114.001C156.918 108.693 155.808 102.866 154.745 96.5208C154.633 95.6835 154.676 95.087 154.874 94.7314C155.04 94.3777 155.591 94.1733 156.525 94.118C157.429 94.0646 158.258 94.0781 159.013 94.1585C159.799 94.2371 160.623 94.4228 161.484 94.7157C163.584 95.3418 164.833 96.6434 165.232 98.6204C165.509 100.136 165.813 101.853 166.146 103.771C166.509 105.688 166.879 107.713 167.255 109.848C167.631 111.983 168.029 114.21 168.447 116.53C168.895 118.816 169.358 121.086 169.835 123.34C171.623 118.702 173.335 113.818 174.97 108.689C176.636 103.557 178.305 98.4727 179.976 93.4349C180.192 92.8595 180.497 92.4663 180.891 92.2555C181.283 92.0135 181.731 91.9245 182.235 91.9885C182.769 92.0195 183.324 92.1585 183.901 92.4058C184.508 92.62 185.118 92.8965 185.732 93.2353C186.375 93.5411 186.957 93.8662 187.478 94.2105C187.996 94.5237 188.409 94.8901 188.715 95.3096C189.021 95.7292 189.19 96.2037 189.221 96.7333C189.283 97.261 189.195 97.8758 188.955 98.5777ZM190.613 94.7285C191.932 94.3067 193.391 93.861 194.989 93.3914C196.617 92.92 198.311 92.476 200.068 92.0595C201.856 91.6412 203.678 91.2678 205.534 90.9392C207.42 90.5777 209.295 90.3105 211.161 90.1377C212.934 90.0016 214.112 90.6197 214.693 91.992C215.142 92.7157 215.463 93.3844 215.656 93.9982C215.846 94.5809 216.041 95.2258 216.239 95.9331C216.411 96.7356 216.381 97.2844 216.149 97.5795C215.916 97.8746 215.352 98.1112 214.456 98.2892C212.6 98.6177 210.681 98.95 208.701 99.2859C206.72 99.6218 204.633 100.011 202.439 100.453C202.055 101.883 201.706 103.372 201.391 104.923C201.074 106.442 200.716 108.042 200.315 109.722C201.242 109.542 202.171 109.394 203.102 109.276C204.033 109.158 205.027 109.053 206.084 108.959C206.954 108.876 207.644 108.914 208.154 109.071C208.663 109.229 209.108 109.609 209.487 110.211C209.898 110.812 210.215 111.419 210.439 112.031C210.692 112.61 210.915 113.206 211.107 113.82C211.399 114.522 211.443 115.004 211.239 115.266C211.067 115.526 210.551 115.775 209.689 116.014C207.841 116.467 205.944 116.907 204 117.335C202.087 117.76 200.239 118.214 198.454 118.694C198.264 119.706 198.086 120.67 197.922 121.586C197.755 122.471 197.573 123.357 197.375 124.244C198.825 123.908 200.199 123.624 201.498 123.391C202.828 123.156 204.269 122.946 205.821 122.76C206.69 122.646 207.363 122.669 207.842 122.828C208.351 122.986 208.794 123.334 209.17 123.875C209.58 124.476 209.896 125.051 210.116 125.601C210.365 126.117 210.631 126.649 210.913 127.195C211.106 127.809 211.132 128.245 210.991 128.503C210.848 128.73 210.36 128.947 209.528 129.152C207.557 129.644 205.555 130.153 203.523 130.679C201.491 131.206 199.551 131.696 197.702 132.149C196.474 132.534 195.528 132.653 194.863 132.504C194.231 132.385 193.672 132.184 193.186 131.9C192.636 131.589 192.102 131.277 191.583 130.963C191.094 130.617 190.506 130.183 189.818 129.661C189.263 129.256 188.828 128.766 188.512 128.191C188.166 127.617 187.999 126.908 188.011 126.064L190.613 94.7285Z" fill="#EF437B"/>
<g opacity="0.75">
<path d="M97.6064 165.121C96.9969 167.502 96.3417 170.166 95.6408 173.115C94.9398 176.064 94.2435 179.09 93.5518 182.194C92.8912 185.297 92.2452 188.383 91.614 191.452C91.0138 194.52 90.4787 197.365 90.0085 199.987C90.0343 200.423 89.9263 200.711 89.6845 200.85C89.4756 201.019 89.1678 201.1 88.761 201.093C88.356 201.117 87.8686 201.067 87.2987 200.945C86.7618 200.851 86.1772 200.745 85.545 200.626C84.2457 200.328 83.2222 199.935 82.4744 199.448C81.7248 198.93 81.457 198.102 81.6711 196.964C81.7294 195.835 81.8398 194.531 82.0025 193.052C82.1651 191.573 82.3644 189.92 82.6002 188.093C81.303 188.358 80.0213 188.621 78.7551 188.883C77.5183 189.113 76.2522 189.375 74.9568 189.671C74.5854 191.85 74.3002 193.898 74.101 195.817C73.9 197.704 73.7191 199.403 73.5583 200.913C73.465 201.45 73.2828 201.804 73.0116 201.977C72.7716 202.147 72.2412 202.163 71.4202 202.024C70.6285 201.852 69.8057 201.682 68.9518 201.514C68.129 201.343 67.4115 201.104 66.7994 200.797C66.0627 200.496 65.5257 200.137 65.1884 199.72C64.8492 199.271 64.7492 198.636 64.8882 197.815C65.2284 195.638 65.5163 193.105 65.7518 190.215C65.9873 187.325 66.1999 184.312 66.3895 181.174C66.5792 178.037 66.7542 174.917 66.9145 171.812C67.1041 168.675 67.3085 165.787 67.5276 163.149C67.7179 162.137 68.0411 161.524 68.4973 161.309C68.9536 161.095 69.6435 161.132 70.5671 161.422C71.5805 161.643 72.6626 161.97 73.8135 162.402C74.9937 162.801 76.0209 163.256 76.8951 163.767C77.379 164.02 77.7528 164.263 78.0168 164.498C78.3119 164.73 78.5135 164.969 78.6217 165.212C78.761 165.454 78.8243 165.732 78.8116 166.045C78.7989 166.358 78.7577 166.72 78.6882 167.131C78.2948 168.936 77.8886 171.054 77.4697 173.486C77.082 175.916 76.6576 178.52 76.1967 181.298C77.4958 181.065 78.7656 180.865 80.0061 180.698C81.2777 180.529 82.5027 180.362 83.6808 180.199C84.2644 176.851 84.8186 173.536 85.3436 170.254C85.8978 166.939 86.4549 163.936 87.0148 161.246C87.2362 160.233 87.5925 159.649 88.0835 159.495C88.6039 159.308 89.3552 159.326 90.3374 159.549C91.2555 159.745 92.2112 160.048 93.2045 160.458C94.1959 160.837 95.1444 161.281 96.0497 161.791C96.8946 162.335 97.4078 162.82 97.5894 163.247C97.8021 163.672 97.8077 164.297 97.6064 165.121ZM118.177 189.694C115.86 190.144 113.543 190.609 111.227 191.09C108.94 191.538 106.923 192.048 105.175 192.62C104.623 193.872 104.146 195.041 103.741 196.128C103.334 197.183 102.943 198.222 102.565 199.245C102.347 199.789 102.054 200.119 101.686 200.235C101.349 200.348 100.815 200.302 100.084 200.095C99.6695 199.963 99.2232 199.818 98.7449 199.658C98.2336 199.47 97.7214 199.266 97.2082 199.046C96.8197 198.819 96.4807 198.636 96.1911 198.496C95.8997 198.326 95.6687 198.121 95.4983 197.881C95.3278 197.641 95.2315 197.334 95.2094 196.96C95.1543 196.557 95.2009 196.023 95.3491 195.358C95.9696 193.164 96.8017 190.583 97.8453 187.614C98.8577 184.647 99.9581 181.581 101.146 178.416C102.366 175.249 103.604 172.129 104.86 169.053C106.145 165.945 107.373 163.184 108.543 160.771C108.961 159.902 109.528 159.181 110.244 158.607C110.96 158.033 112.054 157.765 113.526 157.803C114.806 157.79 115.95 157.832 116.956 157.929C117.96 157.994 118.873 158.097 119.694 158.236C120.546 158.373 121.321 158.53 122.019 158.708C122.749 158.884 123.477 159.044 124.204 159.188C125.19 159.474 125.825 159.89 126.107 160.436C126.42 160.98 126.557 161.706 126.517 162.615C126.461 164.838 126.455 167.386 126.5 170.259C126.545 173.132 126.628 176.128 126.75 179.247C126.872 182.366 127.01 185.499 127.165 188.647C127.349 191.762 127.536 194.658 127.726 197.335C127.759 197.896 127.657 198.293 127.421 198.526C127.216 198.757 126.708 198.896 125.898 198.944C125.088 198.992 124.339 199.005 123.65 198.983C122.963 198.992 122.254 198.894 121.522 198.687C120.762 198.513 120.216 198.264 119.884 197.94C119.583 197.614 119.345 197.018 119.169 196.153C118.991 195.257 118.824 194.283 118.668 193.229C118.51 192.144 118.346 190.966 118.177 189.694ZM108.866 183.68C110.255 183.379 111.646 183.11 113.038 182.871C114.462 182.631 115.888 182.421 117.315 182.243C117.102 179.692 116.905 177.156 116.725 174.635C116.542 172.083 116.409 169.558 116.324 167.063C115.212 169.41 114.006 172.014 112.706 174.873C111.435 177.699 110.155 180.634 108.866 183.68ZM140.564 186.261C140.241 188.187 139.943 190.033 139.673 191.8C139.433 193.564 139.192 195.298 138.949 197C138.822 197.508 138.624 197.848 138.353 198.02C138.113 198.191 137.63 198.219 136.904 198.106C136.05 197.937 135.292 197.81 134.631 197.724C133.969 197.638 133.333 197.457 132.723 197.181C132.111 196.873 131.682 196.492 131.436 196.038C131.189 195.552 131.072 194.903 131.087 194.089C131.11 193.431 131.148 192.475 131.199 191.222C131.218 189.971 131.26 188.561 131.324 186.995C131.386 185.397 131.472 183.688 131.583 181.868C131.663 180.051 131.759 178.232 131.87 176.412C132.013 174.591 132.174 172.831 132.355 171.132C132.534 169.402 132.74 167.858 132.972 166.5C133.203 165.111 133.479 163.97 133.801 163.075C134.122 162.15 134.478 161.566 134.87 161.324C136.75 160.338 138.708 159.362 140.746 158.398C142.814 157.432 144.851 156.717 146.855 156.255C148.889 155.76 150.819 155.614 152.644 155.819C154.498 155.991 156.15 156.706 157.6 157.964C158.761 159.083 159.817 160.303 160.771 161.622C161.753 162.908 162.552 164.517 163.166 166.45C163.694 168.513 163.64 170.236 163.003 171.618C162.039 173.832 160.35 175.916 157.933 177.872C155.548 179.826 152.657 181.685 149.26 183.449C150.025 184.217 150.854 185.027 151.748 185.881C152.674 186.733 153.615 187.584 154.572 188.434C155.529 189.284 156.468 190.103 157.39 190.893C158.343 191.68 159.228 192.363 160.043 192.94C160.697 193.432 161.003 193.836 160.959 194.152C160.915 194.467 160.669 194.809 160.222 195.18C159.688 195.649 159.22 195.942 158.821 196.06C158.451 196.144 157.988 196.25 157.433 196.376C156.759 196.604 155.998 196.695 155.152 196.652C154.338 196.637 153.367 196.335 152.238 195.746C151.492 195.29 150.63 194.715 149.651 194.023C148.672 193.331 147.658 192.562 146.608 191.718C145.557 190.873 144.505 189.998 143.451 189.091C142.396 188.153 141.433 187.21 140.564 186.261ZM144.443 166.995C144.038 168.613 143.656 170.339 143.295 172.173C142.935 174.008 142.519 175.97 142.049 178.061C144.156 177.218 146.005 176.233 147.595 175.108C149.214 173.949 150.554 172.807 151.612 171.682C152.669 170.525 153.418 169.449 153.86 168.454C154.301 167.459 154.413 166.702 154.194 166.184C153.769 165.333 152.637 164.963 150.8 165.071C149.896 165.125 148.906 165.293 147.828 165.575C146.751 165.858 145.622 166.331 144.443 166.995ZM165.262 158.636C166.408 157.912 167.758 157.223 169.313 156.568C170.898 155.881 172.586 155.343 174.376 154.956C176.164 154.538 177.996 154.32 179.87 154.303C181.774 154.253 183.617 154.504 185.401 155.055C187.213 155.573 188.905 156.426 190.475 157.615C192.046 158.804 193.408 160.427 194.561 162.484C195.533 164.115 196.187 165.92 196.523 167.901C196.858 169.882 196.855 171.945 196.513 174.091C196.201 176.204 195.545 178.337 194.547 180.49C193.549 182.644 192.201 184.693 190.503 186.638C188.836 188.58 186.816 190.357 184.441 191.966C182.067 193.576 179.348 194.909 176.284 195.965C174.729 196.62 173.054 196.578 171.26 195.84C170.362 195.456 169.574 195.08 168.896 194.714C168.216 194.316 167.437 193.831 166.559 193.258C166.231 192.996 165.919 192.749 165.624 192.516C165.327 192.252 165.075 191.954 164.868 191.623C164.63 191.293 164.465 190.881 164.373 190.386C164.281 189.891 164.259 189.252 164.307 188.468L165.262 158.636ZM173.328 188.778C175.697 187.607 177.711 186.253 179.371 184.717C181.028 183.15 182.371 181.538 183.399 179.883C184.426 178.229 185.173 176.59 185.64 174.968C186.107 173.346 186.346 171.847 186.359 170.471C186.371 168.564 186.066 167.097 185.442 166.071C184.819 165.045 183.791 164.309 182.358 163.862C180.925 163.415 179.215 163.579 177.229 164.353C176.38 168.498 175.653 172.589 175.047 176.626C174.44 180.632 173.867 184.683 173.328 188.778Z" fill="#54051E"/>
</g>
<path d="M97.6064 160.411C96.9969 162.791 96.3417 165.456 95.6408 168.404C94.9398 171.353 94.2435 174.379 93.5518 177.483C92.8912 180.586 92.2452 183.672 91.614 186.741C91.0138 189.809 90.4787 192.654 90.0085 195.276C90.0343 195.712 89.9263 196 89.6845 196.14C89.4756 196.308 89.1678 196.389 88.761 196.382C88.356 196.406 87.8686 196.356 87.2987 196.234C86.7618 196.14 86.1772 196.034 85.545 195.915C84.2457 195.617 83.2222 195.224 82.4744 194.737C81.7248 194.219 81.457 193.391 81.6711 192.253C81.7294 191.124 81.8398 189.82 82.0025 188.341C82.1651 186.862 82.3644 185.209 82.6002 183.382C81.303 183.647 80.0213 183.91 78.7551 184.172C77.5183 184.402 76.2522 184.664 74.9568 184.96C74.5854 187.139 74.3002 189.187 74.101 191.106C73.9 192.993 73.7191 194.692 73.5583 196.202C73.465 196.739 73.2828 197.094 73.0116 197.266C72.7716 197.436 72.2412 197.452 71.4202 197.313C70.6285 197.141 69.8057 196.971 68.9518 196.803C68.129 196.632 67.4115 196.393 66.7994 196.086C66.0627 195.786 65.5257 195.427 65.1884 195.009C64.8492 194.56 64.7492 193.925 64.8882 193.104C65.2284 190.927 65.5163 188.394 65.7518 185.504C65.9873 182.614 66.1999 179.601 66.3895 176.464C66.5792 173.326 66.7542 170.206 66.9145 167.102C67.1041 163.964 67.3085 161.076 67.5276 158.438C67.7179 157.426 68.0411 156.813 68.4973 156.599C68.9536 156.384 69.6435 156.421 70.5671 156.711C71.5805 156.932 72.6626 157.259 73.8135 157.691C74.9937 158.09 76.0209 158.545 76.8951 159.056C77.379 159.309 77.7528 159.552 78.0168 159.787C78.3119 160.02 78.5135 160.258 78.6217 160.501C78.761 160.743 78.8243 161.021 78.8116 161.334C78.7989 161.647 78.7577 162.009 78.6882 162.42C78.2948 164.225 77.8886 166.343 77.4697 168.775C77.082 171.205 76.6576 173.809 76.1967 176.587C77.4958 176.354 78.7656 176.154 80.0061 175.987C81.2777 175.818 82.5027 175.652 83.6808 175.488C84.2644 172.14 84.8186 168.825 85.3436 165.543C85.8978 162.228 86.4549 159.226 87.0148 156.535C87.2362 155.522 87.5925 154.938 88.0835 154.784C88.6039 154.597 89.3552 154.615 90.3374 154.838C91.2555 155.034 92.2112 155.337 93.2045 155.747C94.1959 156.126 95.1444 156.571 96.0497 157.08C96.8946 157.624 97.4078 158.109 97.5894 158.536C97.8021 158.961 97.8077 159.586 97.6064 160.411ZM118.177 184.983C115.86 185.433 113.543 185.898 111.227 186.379C108.94 186.827 106.923 187.337 105.175 187.909C104.623 189.161 104.146 190.33 103.741 191.417C103.334 192.472 102.943 193.511 102.565 194.534C102.347 195.078 102.054 195.408 101.686 195.524C101.349 195.637 100.815 195.591 100.084 195.384C99.6695 195.252 99.2232 195.107 98.7449 194.947C98.2336 194.759 97.7214 194.555 97.2082 194.335C96.8197 194.108 96.4807 193.925 96.1911 193.785C95.8997 193.615 95.6687 193.41 95.4983 193.17C95.3278 192.93 95.2315 192.623 95.2094 192.249C95.1543 191.846 95.2009 191.312 95.3491 190.647C95.9696 188.453 96.8017 185.872 97.8453 182.903C98.8577 179.936 99.9581 176.87 101.146 173.705C102.366 170.539 103.604 167.418 104.86 164.342C106.145 161.234 107.373 158.473 108.543 156.06C108.961 155.191 109.528 154.47 110.244 153.896C110.96 153.322 112.054 153.054 113.526 153.092C114.806 153.079 115.95 153.121 116.956 153.218C117.96 153.284 118.873 153.386 119.694 153.525C120.546 153.662 121.321 153.819 122.019 153.997C122.749 154.173 123.477 154.333 124.204 154.477C125.19 154.763 125.825 155.179 126.107 155.725C126.42 156.269 126.557 156.995 126.517 157.904C126.461 160.127 126.455 162.675 126.5 165.548C126.545 168.421 126.628 171.417 126.75 174.536C126.872 177.655 127.01 180.788 127.165 183.936C127.349 187.051 127.536 189.947 127.726 192.624C127.759 193.185 127.657 193.582 127.421 193.815C127.216 194.046 126.708 194.185 125.898 194.233C125.088 194.281 124.339 194.294 123.65 194.272C122.963 194.281 122.254 194.183 121.522 193.976C120.762 193.802 120.216 193.553 119.884 193.229C119.583 192.903 119.345 192.307 119.169 191.442C118.991 190.546 118.824 189.572 118.668 188.518C118.51 187.433 118.346 186.255 118.177 184.983ZM108.866 178.969C110.255 178.668 111.646 178.399 113.038 178.16C114.462 177.92 115.888 177.71 117.315 177.532C117.102 174.981 116.905 172.445 116.725 169.924C116.542 167.372 116.409 164.847 116.324 162.352C115.212 164.699 114.006 167.303 112.706 170.162C111.435 172.988 110.155 175.924 108.866 178.969ZM140.564 181.55C140.241 183.476 139.943 185.322 139.673 187.089C139.433 188.853 139.192 190.587 138.949 192.289C138.822 192.797 138.624 193.137 138.353 193.309C138.113 193.48 137.63 193.508 136.904 193.395C136.05 193.226 135.292 193.099 134.631 193.013C133.969 192.927 133.333 192.746 132.723 192.47C132.111 192.162 131.682 191.781 131.436 191.327C131.189 190.841 131.072 190.192 131.087 189.378C131.11 188.72 131.148 187.765 131.199 186.511C131.218 185.26 131.26 183.85 131.324 182.284C131.386 180.686 131.472 178.977 131.583 177.157C131.663 175.34 131.759 173.521 131.87 171.701C132.013 169.88 132.174 168.12 132.355 166.421C132.534 164.691 132.74 163.147 132.972 161.789C133.203 160.4 133.479 159.259 133.801 158.364C134.122 157.439 134.478 156.855 134.87 156.613C136.75 155.627 138.708 154.651 140.746 153.687C142.814 152.721 144.851 152.006 146.855 151.544C148.889 151.049 150.819 150.903 152.644 151.108C154.498 151.28 156.15 151.995 157.6 153.253C158.761 154.372 159.817 155.592 160.771 156.911C161.753 158.197 162.552 159.806 163.166 161.739C163.694 163.802 163.64 165.525 163.003 166.907C162.039 169.121 160.35 171.205 157.933 173.161C155.548 175.115 152.657 176.974 149.26 178.738C150.025 179.506 150.854 180.316 151.748 181.17C152.674 182.022 153.615 182.873 154.572 183.723C155.529 184.573 156.468 185.392 157.39 186.182C158.343 186.969 159.228 187.652 160.043 188.229C160.697 188.721 161.003 189.125 160.959 189.441C160.915 189.756 160.669 190.099 160.222 190.469C159.688 190.938 159.22 191.231 158.821 191.349C158.451 191.433 157.988 191.539 157.433 191.665C156.759 191.893 155.998 191.985 155.152 191.941C154.338 191.926 153.367 191.624 152.238 191.035C151.492 190.579 150.63 190.004 149.651 189.312C148.672 188.62 147.658 187.851 146.608 187.007C145.557 186.162 144.505 185.287 143.451 184.38C142.396 183.442 141.433 182.499 140.564 181.55ZM144.443 162.284C144.038 163.902 143.656 165.628 143.295 167.462C142.935 169.297 142.519 171.259 142.049 173.35C144.156 172.507 146.005 171.522 147.595 170.397C149.214 169.238 150.554 168.096 151.612 166.971C152.669 165.814 153.418 164.738 153.86 163.743C154.301 162.748 154.413 161.991 154.194 161.473C153.769 160.622 152.637 160.252 150.8 160.36C149.896 160.414 148.906 160.582 147.828 160.864C146.751 161.147 145.622 161.62 144.443 162.284ZM165.262 153.926C166.408 153.201 167.758 152.512 169.313 151.857C170.898 151.17 172.586 150.632 174.376 150.245C176.164 149.827 177.996 149.609 179.87 149.592C181.774 149.542 183.617 149.793 185.401 150.344C187.213 150.862 188.905 151.715 190.475 152.904C192.046 154.093 193.408 155.716 194.561 157.773C195.533 159.404 196.187 161.209 196.523 163.19C196.858 165.171 196.855 167.234 196.513 169.38C196.201 171.493 195.545 173.626 194.547 175.779C193.549 177.933 192.201 179.982 190.503 181.927C188.836 183.869 186.816 185.646 184.441 187.255C182.067 188.865 179.348 190.198 176.284 191.254C174.729 191.909 173.054 191.867 171.26 191.129C170.362 190.745 169.574 190.369 168.896 190.003C168.216 189.606 167.437 189.12 166.559 188.547C166.231 188.285 165.919 188.038 165.624 187.805C165.327 187.541 165.075 187.244 164.868 186.912C164.63 186.582 164.465 186.17 164.373 185.675C164.281 185.18 164.259 184.541 164.307 183.757L165.262 153.926ZM173.328 184.067C175.697 182.896 177.711 181.542 179.371 180.006C181.028 178.439 182.371 176.828 183.399 175.173C184.426 173.518 185.173 171.879 185.64 170.257C186.107 168.636 186.346 167.137 186.359 165.76C186.371 163.853 186.066 162.386 185.442 161.36C184.819 160.334 183.791 159.598 182.358 159.151C180.925 158.704 179.215 158.868 177.229 159.642C176.38 163.787 175.653 167.878 175.047 171.915C174.44 175.921 173.867 179.972 173.328 184.067Z" fill="#EF437B"/>
<path d="M212.213 155.75L216.362 154.688L214.702 158.563L217 162.125L212.723 161.75L209.979 165L209.021 160.875L205 159.375L208.702 157.188L208.957 153L212.213 155.75Z" fill="#CED4DA"/>
<path d="M209.636 63.8848L214.726 60V66.296L219.95 70.0469L213.788 71.9223L212.047 77.9504L208.296 72.86H202L205.751 67.7696L203.607 61.8754L209.636 63.8848Z" fill="#CED4DA"/>
<path d="M44.3125 176.222L47.125 172L48.9219 176.741L54 177.926L49.8594 181.037L50.25 186L45.875 183.259L40.9531 185.111L42.3594 180.296L39 176.444L44.3125 176.222Z" fill="#CED4DA"/>
<path d="M127.613 50.7704L149.047 68.8548C149.315 69.1227 149.315 69.5246 149.181 69.7925C148.913 70.0604 148.645 70.0604 148.377 69.9264L125.336 53.7175C124.532 53.1817 124.265 51.976 124.934 51.0383C125.47 50.2346 126.676 49.9667 127.613 50.6365C127.48 50.7704 127.613 50.7704 127.613 50.7704Z" fill="#781C42"/>
<path d="M136.724 27.3281C136.59 27.3281 127.882 23.8451 116.63 33.2222L105.511 47.6897C99.3493 61.0855 104.842 68.5872 104.976 68.5872C105.377 68.9891 105.645 69.257 105.645 69.257C110.2 72.7399 120.649 71.6682 132.169 56.6649C143.689 41.6616 142.082 31.2128 137.527 27.7299C137.527 27.7299 137.259 27.596 136.724 27.3281Z" fill="#58C0BF"/>
<path opacity="0.75" d="M133.51 29.6053C139.27 33.2222 138.467 43.403 134.314 50.7707C134.314 50.7707 140.476 42.4653 139.27 34.9636C138.601 31.2128 136.055 27.7299 132.037 26.6582C128.554 26.7922 123.463 27.8638 117.703 32.4184L120.248 34.2938C120.248 34.2938 127.75 25.9884 133.51 29.6053Z" fill="white"/>
<path d="M121.72 51.0385C128.686 41.1256 125.873 35.9013 125.873 35.9013C125.873 35.9013 119.845 35.2315 115.424 34.8296L105.511 47.6896C99.3493 61.0854 104.842 68.5871 104.976 68.5871C105.377 68.9889 105.645 69.2568 105.645 69.2568C107.253 70.4625 109.664 71.1323 112.745 70.7304C122.256 68.3191 129.758 57.2006 129.758 57.2006C122.256 57.2006 121.72 51.0385 121.72 51.0385Z" fill="#1897A6"/>
<path d="M101.624 21.0322L95.7301 28.6678L89.8359 36.3035L110.465 55.8614C117.029 53.1822 120.244 47.5559 120.244 47.5559C120.244 47.5559 124.799 43.0014 125.737 35.9016L101.624 21.0322Z" fill="#58C0BF"/>
<path opacity="0.75" d="M125.739 36.7055L101.09 21.7021L99.2148 24.1134V24.2474L124.533 40.9921C125.069 39.6525 125.471 38.313 125.739 36.7055Z" fill="white"/>
<path d="M96.3984 29.2038L109.794 39.3847L97.4701 27.8643L96.3984 29.2038Z" fill="#1897A6"/>
<path d="M111.673 55.3254C115.29 53.45 117.835 50.9048 119.175 49.1633L94.7945 30.4092L93.5889 31.2129L90.5078 35.4996L111.673 55.3254Z" fill="#1897A6"/>
<path d="M93.1849 26.6583L79.7891 39.9202C79.7891 39.9202 88.3624 40.8579 97.0697 29.6054C105.643 18.3529 102.562 10.3154 102.562 10.3154L93.1849 26.6583Z" fill="#1897A6"/>
<path d="M102.028 9.64557C104.172 11.387 100.823 19.4245 94.3927 27.7299C87.9627 36.0353 80.9969 41.3937 78.8535 39.7862C76.7102 38.0447 80.0591 30.0072 86.4891 21.7018C92.9191 13.2624 99.885 7.90412 102.028 9.64557Z" fill="#58C0BF"/>
<path opacity="0.75" d="M102.027 9.6457C100.419 8.44008 96.2667 10.9853 91.5781 15.8078C93.9894 13.9324 100.151 9.37778 100.955 11.5211C101.893 14.0663 95.5969 26.1226 95.5969 26.2565C101.223 18.353 104.17 11.1192 102.027 9.6457Z" fill="white"/>
</svg>
