<svg width="40" height="33" viewBox="0 0 40 33" fill="none" xmlns="http://www.w3.org/2000/svg">
<path d="M1.63828 -0.000221257C1.41953 -0.00959646 1.20703 0.0685293 1.04766 0.221654C0.888281 0.371654 0.800781 0.581029 0.800781 0.799779V29.3529C0.800781 29.7123 1.04141 30.0279 1.38828 30.1248L10.9883 32.7717C11.1258 32.8092 11.2727 32.8092 11.4133 32.7717L20.0102 30.4248L29.407 32.7748C29.5477 32.8123 29.6914 32.806 29.8289 32.7654L38.6289 30.1217C38.9695 30.0185 39.2008 29.706 39.2008 29.3529V0.802903V0.799779C39.2008 0.359154 38.8414 -0.000221257 38.4008 -0.000221257C38.3289 -0.000221257 38.257 0.00915392 38.1883 0.0310291V0.0279034L38.1633 0.0372787L29.5914 2.37478L20.1945 0.0247787C20.0602 -0.00959646 19.9227 -0.00959664 19.7883 0.0279034L11.1914 2.37478L1.79453 0.0247787C1.74141 0.00915394 1.69141 0.00290354 1.63828 -0.000221257ZM20.0102 1.62478L29.407 3.97478C29.5414 4.00915 29.6789 4.00915 29.8133 3.97165L37.6008 1.84665V28.7592L29.5789 31.1717L20.1945 28.8248C20.0602 28.7904 19.9227 28.7904 19.7883 28.8279L11.2008 31.1717L2.40078 28.7435V1.82478L11.007 3.97478C11.1414 4.00915 11.2789 4.00915 11.4133 3.97165L20.0102 1.62478ZM12.7789 9.24665L12.5008 9.28415L12.0227 9.43728L11.9758 9.4529L11.9289 9.47478L11.6602 9.59978L11.2133 10.1592L11.3977 10.8529L12.0633 11.1217L12.3352 11.0498L12.5602 10.9467L12.9914 10.806L13.5008 10.3029L13.407 9.59353L12.7789 9.24665ZM16.1508 9.34353L15.4383 9.43103L15.082 10.0498L15.3633 10.7123L15.582 10.8342L15.5883 10.8373L15.6102 10.8498L15.6227 10.8529L16.0227 11.056L16.1477 11.1373L16.8602 11.2217L17.3508 10.6998L17.2289 9.99353L17.0258 9.79978L16.8602 9.6904L16.8227 9.6654L16.782 9.64665L16.3008 9.40603L16.2602 9.38415L16.2133 9.3654L16.1508 9.34353ZM9.87891 11.6154L9.16328 11.6623L8.95078 11.8467L8.81016 12.0154L8.79453 12.0373L8.44141 12.5279L8.32891 13.2373L8.82891 13.7498L9.53828 13.6592L9.74141 13.4623L10.0789 12.9904L10.1883 12.8623L10.3445 12.1623L9.87891 11.6154ZM18.8633 11.9123L18.2133 12.2185L18.0695 12.9217L18.1883 13.1748L18.6227 13.7873L18.6445 13.8217L18.6602 13.8092L19.2352 14.1623L19.9008 13.8998L20.0883 13.2092L19.9852 12.9467L19.9758 12.9373L19.9633 12.9154L19.9508 12.8967L19.4945 12.2498L18.8633 11.9123ZM7.63203 14.9935L6.95703 15.2342L6.80078 15.4717L6.48203 16.2029L6.52266 16.9217L7.11953 17.3154L7.79453 17.0748L7.95078 16.8373L8.26953 16.1029L8.22891 15.3873L7.63203 14.9935ZM20.9852 15.2623L20.3633 15.6185L20.2758 16.331L20.4164 16.5748L20.9289 17.1873L21.5883 17.4717L22.2102 17.1123L22.2977 16.4029L22.1539 16.1592L21.6414 15.5467L20.9852 15.2623ZM34.4008 16.7904C34.1664 16.7935 33.9445 16.8967 33.7914 17.0779L32.0008 19.1717L30.2102 17.0779C30.0508 16.8904 29.8195 16.7873 29.5758 16.7904C29.2633 16.7998 28.9852 16.9873 28.8602 17.2717C28.7352 17.556 28.7883 17.8873 28.9914 18.1217L30.9477 20.3998L28.9914 22.6779C28.707 23.0154 28.7445 23.5217 29.0789 23.8092C29.4164 24.0935 29.9227 24.056 30.2102 23.7217L32.0008 21.6279L33.7914 23.7217C34.0789 24.056 34.5852 24.0935 34.9227 23.8092C35.257 23.5217 35.2945 23.0154 35.0102 22.6779L33.0539 20.3998L35.0102 18.1217C35.2164 17.8842 35.2664 17.5467 35.1383 17.2592C35.007 16.9717 34.7195 16.7873 34.4008 16.7904ZM23.6164 18.081L23.1289 18.6029L23.2539 19.3092L23.4633 19.5029L24.1352 19.9373L24.8477 20.0154L25.3352 19.4904L25.2102 18.7873L25.0008 18.5935L24.3289 18.1592L23.6164 18.081ZM27.6383 19.6967L26.9508 19.9029L26.707 20.5779L27.1008 21.1748L27.3633 21.2748L27.6258 21.3185L27.6727 21.3248L27.7164 21.3279L28.2477 21.3623L28.9039 21.081L29.0758 20.3842L28.6195 19.8342L28.3445 19.7654L27.8539 19.7373L27.6383 19.6967Z" fill="#EF437B"/>
</svg>
