<svg width="84" height="84" viewBox="0 0 84 84" fill="none" xmlns="http://www.w3.org/2000/svg">
<path d="M77 49L66.7135 41.5937C61.3683 37.7452 54.0634 38.1429 49.1677 42.5491L34.8323 55.4509C29.9366 59.8571 22.6317 60.2548 17.2865 56.4063L7 49M21 77H63C70.732 77 77 70.732 77 63V21C77 13.268 70.732 7 63 7H21C13.268 7 7 13.268 7 21V63C7 70.732 13.268 77 21 77ZM38.5 29.75C38.5 34.5825 34.5825 38.5 29.75 38.5C24.9175 38.5 21 34.5825 21 29.75C21 24.9175 24.9175 21 29.75 21C34.5825 21 38.5 24.9175 38.5 29.75Z" stroke="#ADB5BD" stroke-width="3" stroke-linecap="round"/>
</svg>
