<svg width="20" height="20" viewBox="0 0 20 20" fill="none" xmlns="http://www.w3.org/2000/svg">
<path d="M10.0514 2.08608C12.6131 2.08608 12.9164 2.09574 13.9284 2.14216C14.5369 2.14965 15.1395 2.26206 15.7102 2.47451C16.1241 2.63509 16.4999 2.88108 16.8136 3.19665C17.1272 3.51222 17.3717 3.89037 17.5313 4.30676C17.7425 4.88095 17.8542 5.48731 17.8616 6.09949C17.9073 7.11766 17.9174 7.42289 17.9174 10.0003C17.9174 12.5777 17.9078 12.8829 17.8616 13.9011C17.8542 14.5132 17.7425 15.1196 17.5313 15.6938C17.3717 16.1102 17.1272 16.4883 16.8136 16.8039C16.4999 17.1195 16.1241 17.3655 15.7102 17.526C15.1395 17.7385 14.5369 17.8509 13.9284 17.8584C12.9169 17.9044 12.6135 17.9145 10.0514 17.9145C7.48923 17.9145 7.18586 17.9048 6.17435 17.8584C5.56589 17.8509 4.96323 17.7385 4.39254 17.526C3.97869 17.3655 3.60284 17.1195 3.28919 16.8039C2.97554 16.4883 2.73105 16.1102 2.57144 15.6938C2.36029 15.1196 2.24857 14.5132 2.24112 13.9011C2.19543 12.8829 2.18538 12.5777 2.18538 10.0003C2.18538 7.42289 2.19498 7.11766 2.24112 6.09949C2.24857 5.48731 2.36029 4.88095 2.57144 4.30676C2.73105 3.89037 2.97554 3.51222 3.28919 3.19665C3.60284 2.88108 3.97869 2.63509 4.39254 2.47451C4.96323 2.26206 5.56589 2.14965 6.17435 2.14216C7.18632 2.0962 7.48968 2.08608 10.0514 2.08608V2.08608ZM10.0514 0.34668C7.4472 0.34668 7.11916 0.357712 6.09576 0.404598C5.29945 0.420534 4.5116 0.572232 3.76571 0.85324C3.12586 1.09579 2.54631 1.4759 2.06751 1.96703C1.57893 2.44894 1.20082 3.03236 0.959592 3.67655C0.680296 4.42701 0.529522 5.2197 0.513684 6.02088C0.467996 7.04963 0.457031 7.37968 0.457031 9.99981C0.457031 12.62 0.467996 12.95 0.514597 13.9797C0.530436 14.7809 0.68121 15.5735 0.960506 16.324C1.20146 16.9681 1.57926 17.5515 2.06751 18.0335C2.54657 18.5248 3.12644 18.9049 3.76662 19.1473C4.51251 19.4283 5.30037 19.58 6.09668 19.5959C7.12007 19.6419 7.44674 19.6539 10.0523 19.6539C12.6578 19.6539 12.9845 19.6428 14.0079 19.5959C14.8042 19.58 15.5921 19.4283 16.338 19.1473C16.9751 18.8988 17.5537 18.5193 18.0367 18.033C18.5198 17.5467 18.8966 16.9643 19.1432 16.3231C19.4225 15.5726 19.5732 14.7799 19.5891 13.9787C19.6348 12.95 19.6457 12.62 19.6457 9.99981C19.6457 7.37968 19.6348 7.04963 19.5882 6.01996C19.5723 5.21878 19.4215 4.42609 19.1422 3.67563C18.9013 3.03153 18.5235 2.44811 18.0352 1.96611C17.5562 1.47487 16.9763 1.09476 16.3361 0.85232C15.5902 0.571313 14.8024 0.419615 14.0061 0.403679C12.9836 0.357712 12.6556 0.34668 10.0514 0.34668Z" fill="#27272A"/>
<path d="M10.048 5.04297C9.07357 5.04297 8.121 5.3337 7.31077 5.87839C6.50054 6.42309 5.86904 7.19728 5.49614 8.10308C5.12323 9.00887 5.02566 10.0056 5.21577 10.9672C5.40587 11.9288 5.87512 12.812 6.56416 13.5053C7.2532 14.1986 8.1311 14.6707 9.08683 14.8619C10.0426 15.0532 11.0332 14.9551 11.9335 14.5799C12.8338 14.2047 13.6032 13.5693 14.1446 12.7541C14.686 11.9389 14.9749 10.9805 14.9749 10.0001C14.9749 8.68538 14.4559 7.42451 13.5319 6.49487C12.6079 5.56524 11.3547 5.04297 10.048 5.04297ZM10.048 13.2178C9.41549 13.2178 8.79717 13.0291 8.27124 12.6755C7.74532 12.3219 7.3354 11.8194 7.09335 11.2314C6.85129 10.6435 6.78796 9.99651 6.91136 9.37234C7.03476 8.74816 7.33935 8.17482 7.78661 7.72482C8.23388 7.27481 8.80373 6.96836 9.4241 6.8442C10.0445 6.72004 10.6875 6.78376 11.2719 7.02731C11.8563 7.27085 12.3557 7.68327 12.7072 8.21242C13.0586 8.74157 13.2461 9.36368 13.2461 10.0001C13.2461 10.8535 12.9092 11.6719 12.3094 12.2753C11.7097 12.8788 10.8962 13.2178 10.048 13.2178V13.2178Z" fill="#27272A"/>
<path d="M15.1709 6.00523C15.8067 6.00523 16.3222 5.48661 16.3222 4.84685C16.3222 4.2071 15.8067 3.68848 15.1709 3.68848C14.535 3.68848 14.0195 4.2071 14.0195 4.84685C14.0195 5.48661 14.535 6.00523 15.1709 6.00523Z" fill="#27272A"/>
</svg>
