<svg width="100" height="94" viewBox="0 0 100 94" fill="none" xmlns="http://www.w3.org/2000/svg">
<path d="M98.1364 34.9577C103.553 53.3372 94.4407 74.3071 79.3555 84.8571C64.2706 95.4829 43.1364 95.6135 26.1762 84.7312C9.13977 73.7735 -3.72311 51.7271 1.38925 33.2067C6.57782 14.7617 29.8174 -0.157886 51.3341 0.31529C72.9266 0.787997 92.7958 16.5777 98.1364 34.9577Z" fill="#FFFBF3"/>
<path d="M77.5392 51.9654C78.3792 50.3707 78.8602 48.5577 78.8602 46.63C78.8602 41.7304 75.7825 37.5598 71.4594 35.9163C71.4594 35.9111 71.4602 35.9059 71.4602 35.9C71.4602 27.3175 64.5027 20.36 55.9202 20.36C48.68 20.36 42.6142 25.3187 40.8885 32.0202C39.7963 31.6613 38.6323 31.46 37.4202 31.46C31.7281 31.46 27.0431 35.7468 26.4016 41.2665C22.5506 42.0812 19.6602 45.497 19.6602 49.59C19.6602 54.2897 23.4704 58.1 28.1702 58.1C28.3011 58.1 28.4306 58.0911 28.5594 58.0837C28.5564 58.2132 28.5402 58.3397 28.5402 58.47C28.5402 66.8483 35.3319 73.64 43.7102 73.64C48.4735 73.64 52.7197 71.4407 55.5013 68.0056C57.113 69.6521 59.3538 70.68 61.8402 70.68C65.2812 70.68 68.2589 68.719 69.733 65.8567C70.5115 66.1046 71.3395 66.24 72.2002 66.24C76.6957 66.24 80.3402 62.5955 80.3402 58.1C80.3402 55.6498 79.2523 53.458 77.5392 51.9654Z" fill="#C7EDE6"/>
<path d="M31.8703 39.9699V40.3399H34.0903V39.9699C34.0903 39.9699 37.2294 39.9699 38.1603 39.9699C39.9992 39.9699 41.4903 38.4788 41.4903 36.6399C41.4903 34.9135 40.1716 33.5104 38.4896 33.3432C38.5059 33.2093 38.5303 33.0783 38.5303 32.9399C38.5303 31.101 37.0392 29.6099 35.2003 29.6099C34.1362 29.6099 33.2001 30.1175 32.5903 30.8945C32.4867 28.9439 30.8869 27.3899 28.9103 27.3899C26.8672 27.3899 25.2103 29.0468 25.2103 31.0899C25.2103 31.4199 25.2673 31.7337 25.3487 32.0386C24.8736 31.4636 24.164 31.0899 23.3603 31.0899C22.0424 31.0899 20.9672 32.0778 20.8036 33.3506C20.6697 33.3343 20.5387 33.3099 20.4003 33.3099C18.5614 33.3099 17.0703 34.801 17.0703 36.6399C17.0703 38.4788 18.5614 39.9699 20.4003 39.9699C22.2392 39.9699 27.4303 39.9699 27.4303 39.9699H31.8703Z" fill="#FDFCEF"/>
<path d="M28.9102 27.02C26.6658 27.02 24.8402 28.8456 24.8402 31.09C24.8402 31.1019 24.8402 31.113 24.8402 31.1248C24.3947 30.8621 23.8856 30.72 23.3602 30.72C22.0053 30.72 20.8361 31.6532 20.5053 32.9437C20.4705 32.9415 20.4357 32.94 20.4002 32.94C18.36 32.94 16.7002 34.5998 16.7002 36.64C16.7002 38.6802 18.36 40.34 20.4002 40.34H31.8702C32.0744 40.34 32.2402 40.1743 32.2402 39.97C32.2402 39.7658 32.0744 39.6 31.8702 39.6H20.4002C18.7678 39.6 17.4402 38.2725 17.4402 36.64C17.4402 35.0076 18.7678 33.68 20.4002 33.68C20.4868 33.68 20.5704 33.6926 20.654 33.7037L20.7584 33.7178C20.7739 33.72 20.7887 33.7207 20.8042 33.7207C20.9863 33.7207 21.1461 33.5838 21.1705 33.3973C21.3119 32.2925 22.2532 31.46 23.3602 31.46C24.0151 31.46 24.6352 31.7568 25.0629 32.274C25.1355 32.3613 25.2413 32.4087 25.3486 32.4087C25.4063 32.4087 25.464 32.3954 25.5173 32.3673C25.672 32.2881 25.7497 32.1112 25.7053 31.9432C25.6202 31.6213 25.5802 31.3505 25.5802 31.09C25.5802 29.2541 27.0743 27.76 28.9102 27.76C30.6721 27.76 32.127 29.1453 32.221 30.9146C32.2291 31.0686 32.332 31.201 32.4792 31.2476C32.5162 31.2595 32.554 31.2654 32.5917 31.2654C32.7027 31.2654 32.8107 31.2143 32.8818 31.1233C33.4523 30.3966 34.2967 29.98 35.2002 29.98C36.8326 29.98 38.1602 31.3076 38.1602 32.94C38.1602 33.0266 38.1476 33.1102 38.1365 33.1938L38.1225 33.2982C38.1106 33.3973 38.1387 33.4965 38.2009 33.5742C38.2631 33.6519 38.3541 33.7015 38.4525 33.7111C39.9739 33.8628 41.1202 35.1223 41.1202 36.64C41.1202 38.2725 39.7926 39.6 38.1602 39.6H34.0902C33.886 39.6 33.7202 39.7658 33.7202 39.97C33.7202 40.1743 33.886 40.34 34.0902 40.34H38.1602C40.2004 40.34 41.8602 38.6802 41.8602 36.64C41.8602 34.8662 40.6103 33.3744 38.898 33.031C38.8995 33.0007 38.9002 32.9704 38.9002 32.94C38.9002 30.8998 37.2404 29.24 35.2002 29.24C34.33 29.24 33.5034 29.5479 32.8448 30.1014C32.4023 28.3224 30.8009 27.02 28.9102 27.02Z" fill="#472B29"/>
<path d="M27.8004 32.2C26.7622 32.2 25.8697 32.9392 25.6448 33.9323C25.3732 33.768 25.0631 33.68 24.7479 33.68C23.8584 33.68 23.1214 34.3437 23.0067 35.2103C22.8565 35.1762 22.7136 35.16 22.5738 35.16C21.4423 35.16 20.4936 36.0479 20.4145 37.1816C20.4078 37.2837 20.4848 37.3726 20.5861 37.38C20.5906 37.38 20.595 37.38 20.5995 37.38C20.6957 37.38 20.7771 37.3052 20.7837 37.2083C20.8496 36.2677 21.6355 35.53 22.5738 35.53C22.7432 35.53 22.9216 35.561 23.1199 35.6239C23.1362 35.6291 23.1532 35.6313 23.1695 35.6313C23.2102 35.6313 23.2509 35.6165 23.2849 35.5914C23.3323 35.5573 23.3604 35.4967 23.3604 35.4375C23.3604 34.6723 23.9827 34.05 24.7479 34.05C25.0787 34.05 25.4028 34.1743 25.6588 34.4C25.6936 34.4303 25.7373 34.4466 25.7809 34.4466C25.8046 34.4466 25.8276 34.4421 25.8498 34.4325C25.9149 34.4066 25.9593 34.346 25.9645 34.2757C26.0414 33.3188 26.8473 32.57 27.8004 32.57C27.9543 32.57 28.1149 32.5951 28.3051 32.6491C28.3221 32.6543 28.3399 32.6565 28.3569 32.6565C28.4375 32.6565 28.5101 32.6025 28.5337 32.5219C28.5619 32.4234 28.5049 32.3213 28.4065 32.2932C28.183 32.2296 27.9898 32.2 27.8004 32.2Z" fill="#472B29"/>
<path d="M38.0734 33.31C37.0922 33.31 36.2175 33.9738 35.9466 34.9247C35.9185 35.0231 35.9755 35.1252 36.0739 35.1533C36.0917 35.1578 36.1087 35.16 36.125 35.16C36.2056 35.16 36.2796 35.1067 36.3026 35.0253C36.5283 34.2335 37.2564 33.68 38.0734 33.68C38.16 33.68 38.2436 33.6904 38.3265 33.7015C38.3354 33.7029 38.3435 33.7037 38.3524 33.7037C38.4419 33.7037 38.5218 33.6356 38.5344 33.5431C38.5485 33.4417 38.4774 33.3485 38.3761 33.3352C38.2769 33.3218 38.1763 33.31 38.0734 33.31Z" fill="#472B29"/>
<path d="M24.4702 49.22H17.0702C16.866 49.22 16.7002 49.0542 16.7002 48.85C16.7002 48.6457 16.866 48.48 17.0702 48.48H24.4702C24.6744 48.48 24.8402 48.6457 24.8402 48.85C24.8402 49.0542 24.6752 49.22 24.4702 49.22Z" fill="white"/>
<path d="M26.6901 49.22H25.9501C25.7458 49.22 25.5801 49.0542 25.5801 48.85C25.5801 48.6457 25.7458 48.48 25.9501 48.48H26.6901C26.8943 48.48 27.0601 48.6457 27.0601 48.85C27.0601 49.0542 26.8951 49.22 26.6901 49.22Z" fill="white"/>
<path d="M30.3837 50.7H23.7304C23.5261 50.7 23.3604 50.5342 23.3604 50.33C23.3604 50.1257 23.5261 49.96 23.7304 49.96H30.3837C30.5879 49.96 30.7537 50.1257 30.7537 50.33C30.7537 50.5342 30.5879 50.7 30.3837 50.7Z" fill="white"/>
<path d="M22.2496 50.7H21.5096C21.3054 50.7 21.1396 50.5342 21.1396 50.33C21.1396 50.1257 21.3054 49.96 21.5096 49.96H22.2496C22.4539 49.96 22.6196 50.1257 22.6196 50.33C22.6196 50.5342 22.4546 50.7 22.2496 50.7Z" fill="white"/>
<path d="M20.0297 50.7H18.5497C18.3454 50.7 18.1797 50.5342 18.1797 50.33C18.1797 50.1257 18.3454 49.96 18.5497 49.96H20.0297C20.2339 49.96 20.3997 50.1257 20.3997 50.33C20.3997 50.5342 20.2347 50.7 20.0297 50.7Z" fill="white"/>
<path d="M24.4701 52.18H22.9901C22.7859 52.18 22.6201 52.0142 22.6201 51.81C22.6201 51.6058 22.7859 51.44 22.9901 51.44H24.4701C24.6744 51.44 24.8401 51.6058 24.8401 51.81C24.8401 52.0142 24.6744 52.18 24.4701 52.18Z" fill="white"/>
<path d="M26.6901 45.52C26.5591 45.52 26.0811 45.52 25.9501 45.52C25.7458 45.52 25.5801 45.6858 25.5801 45.89C25.5801 46.0943 25.7458 46.26 25.9501 46.26C26.0811 46.26 26.5591 46.26 26.6901 46.26C26.8943 46.26 27.0601 46.0943 27.0601 45.89C27.0601 45.6858 26.8943 45.52 26.6901 45.52Z" fill="white"/>
<path d="M26.6901 47C26.5591 47 23.1211 47 22.9901 47C22.7859 47 22.6201 47.1658 22.6201 47.37C22.6201 47.5742 22.7859 47.74 22.9901 47.74C23.1211 47.74 26.5591 47.74 26.6901 47.74C26.8944 47.74 27.0601 47.5742 27.0601 47.37C27.0601 47.1658 26.8944 47 26.6901 47Z" fill="white"/>
<path d="M30.3898 48.48C30.2588 48.48 28.3008 48.48 28.1698 48.48C27.9656 48.48 27.7998 48.6457 27.7998 48.85C27.7998 49.0542 27.9656 49.22 28.1698 49.22C28.3008 49.22 30.2588 49.22 30.3898 49.22C30.594 49.22 30.7598 49.0542 30.7598 48.85C30.7598 48.6457 30.594 48.48 30.3898 48.48Z" fill="white"/>
<path d="M66.6499 27.76H59.2499C59.0456 27.76 58.8799 27.5942 58.8799 27.39C58.8799 27.1857 59.0456 27.02 59.2499 27.02H66.6499C66.8541 27.02 67.0199 27.1857 67.0199 27.39C67.0199 27.5942 66.8541 27.76 66.6499 27.76Z" fill="white"/>
<path d="M69.6098 27.76H68.1298C67.9255 27.76 67.7598 27.5942 67.7598 27.39C67.7598 27.1857 67.9255 27.02 68.1298 27.02H69.6098C69.814 27.02 69.9798 27.1857 69.9798 27.39C69.9798 27.5942 69.814 27.76 69.6098 27.76Z" fill="white"/>
<path d="M73.31 29.24H65.91C65.7058 29.24 65.54 29.0742 65.54 28.87C65.54 28.6658 65.7058 28.5 65.91 28.5H73.31C73.5143 28.5 73.68 28.6658 73.68 28.87C73.68 29.0742 73.515 29.24 73.31 29.24Z" fill="white"/>
<path d="M64.4303 29.2399H63.6903C63.4861 29.2399 63.3203 29.0742 63.3203 28.8699C63.3203 28.6657 63.4861 28.4999 63.6903 28.4999H64.4303C64.6346 28.4999 64.8003 28.6657 64.8003 28.8699C64.8003 29.0742 64.6346 29.2399 64.4303 29.2399Z" fill="white"/>
<path d="M62.1882 29.2399H60.7304C60.5261 29.2399 60.3604 29.0742 60.3604 28.8699C60.3604 28.6657 60.5261 28.4999 60.7304 28.4999H62.1882C62.3924 28.4999 62.5582 28.6657 62.5582 28.8699C62.5582 29.0742 62.3924 29.2399 62.1882 29.2399Z" fill="white"/>
<path d="M68.8698 26.28H65.1698C64.9656 26.28 64.7998 26.1142 64.7998 25.91C64.7998 25.7057 64.9656 25.54 65.1698 25.54H68.8698C69.074 25.54 69.2398 25.7057 69.2398 25.91C69.2398 26.1142 69.0748 26.28 68.8698 26.28Z" fill="white"/>
<path d="M66.6498 30.72H65.1698C64.9656 30.72 64.7998 30.5542 64.7998 30.35C64.7998 30.1457 64.9656 29.98 65.1698 29.98H66.6498C66.854 29.98 67.0198 30.1457 67.0198 30.35C67.0198 30.5542 66.854 30.72 66.6498 30.72Z" fill="white"/>
<path d="M76.2702 71.79C76.2702 71.79 77.4298 71.79 78.8602 71.79C80.2906 71.79 81.4502 70.6304 81.4502 69.2C81.4502 67.882 80.4623 66.8068 79.1895 66.6433C79.2102 66.5108 79.2302 66.3784 79.2302 66.24C79.2302 64.8096 78.0706 63.65 76.6402 63.65C75.8765 63.65 75.1972 63.9867 74.7236 64.5121C74.4394 63.1742 73.2532 62.17 71.8302 62.17C70.1955 62.17 68.8702 63.4953 68.8702 65.13C68.8702 65.2713 68.8924 65.4067 68.9116 65.5429C68.5949 65.2883 68.1983 65.13 67.7602 65.13C66.8515 65.13 66.0989 65.7864 65.9435 66.6507C65.811 66.63 65.6786 66.61 65.5402 66.61C64.1098 66.61 62.9502 67.7696 62.9502 69.2C62.9502 70.6304 64.1098 71.79 65.5402 71.79C66.9706 71.79 71.0902 71.79 71.0902 71.79V72.16H76.2702V71.79Z" fill="#FDFCEF"/>
<path d="M77.5649 68.46C77.4628 68.46 77.3799 68.3771 77.3799 68.275C77.3799 67.37 78.1162 66.6337 79.0212 66.6337C79.0464 66.6403 79.5666 66.6329 79.9418 66.7343C80.0402 66.7609 80.0986 66.8623 80.072 66.9607C80.0454 67.0599 79.944 67.1184 79.8456 67.091C79.517 67.0022 79.0316 67.0022 79.0219 67.0037C78.3204 67.0037 77.7499 67.5742 77.7499 68.275C77.7499 68.3771 77.667 68.46 77.5649 68.46Z" fill="#472B29"/>
<path d="M72.5702 72.16C72.7745 72.16 72.9402 71.9943 72.9402 71.79C72.9402 71.5856 72.7745 71.42 72.5702 71.42C72.3658 71.42 72.2002 71.5856 72.2002 71.79C72.2002 71.9943 72.3658 72.16 72.5702 72.16Z" fill="#472B29"/>
<path d="M78.8601 72.16H76.2701C76.0658 72.16 75.9001 71.9942 75.9001 71.79C75.9001 71.5857 76.0658 71.42 76.2701 71.42H78.8601C80.084 71.42 81.0801 70.4239 81.0801 69.2C81.0801 68.0929 80.2476 67.1517 79.1428 67.0103C79.0436 66.997 78.9541 66.9452 78.8941 66.8653C78.8342 66.7854 78.809 66.6847 78.8246 66.5863C78.8416 66.4723 78.8601 66.3584 78.8601 66.24C78.8601 65.016 77.864 64.02 76.6401 64.02C76.0111 64.02 75.428 64.2827 74.998 64.76C74.9055 64.8628 74.7605 64.9065 74.628 64.8695C74.4933 64.8332 74.3905 64.7252 74.3616 64.589C74.1093 63.4021 73.0444 62.54 71.8301 62.54C70.4019 62.54 69.2401 63.7018 69.2401 65.13C69.2401 65.2358 69.2556 65.3372 69.2704 65.4393C69.2919 65.5895 69.2238 65.7634 69.0913 65.8389C68.9589 65.9144 68.7983 65.9262 68.6799 65.8315C68.4098 65.6147 68.0923 65.5 67.7601 65.5C67.0452 65.5 66.434 66.0113 66.3075 66.7165C66.2719 66.9141 66.0884 67.0466 65.8864 67.0163C65.7724 66.9985 65.6585 66.98 65.5401 66.98C64.3161 66.98 63.3201 67.976 63.3201 69.2C63.3201 70.4239 64.3161 71.42 65.5401 71.42H71.0901C71.2943 71.42 71.4601 71.5857 71.4601 71.79C71.4601 71.9942 71.2943 72.16 71.0901 72.16H65.5401C63.9076 72.16 62.5801 70.8324 62.5801 69.2C62.5801 67.5675 63.9076 66.24 65.5401 66.24C65.5837 66.24 65.6259 66.2415 65.6688 66.2444C65.9752 65.3668 66.8062 64.76 67.7601 64.76C68.0183 64.76 68.2699 64.8051 68.5082 64.8932C68.6303 63.1668 70.0733 61.8 71.8301 61.8C73.185 61.8 74.3949 62.634 74.9033 63.8527C75.4065 63.4842 76.0148 63.28 76.6401 63.28C78.2725 63.28 79.6001 64.6075 79.6001 66.24C79.6001 66.2755 79.5993 66.3103 79.5971 66.3451C80.8869 66.6766 81.8201 67.845 81.8201 69.2C81.8201 70.8324 80.4925 72.16 78.8601 72.16Z" fill="#472B29"/>
<path d="M74.7897 71.4201C74.672 71.4201 74.1673 71.4201 74.0497 71.4201C73.8454 71.4201 73.6797 71.5859 73.6797 71.7901C73.6797 71.9943 73.8454 72.1601 74.0497 72.1601C74.1673 72.1601 74.672 72.1601 74.7897 72.1601C74.9939 72.1601 75.1597 71.9943 75.1597 71.7901C75.1597 71.5859 74.9939 71.4201 74.7897 71.4201Z" fill="#472B29"/>
<path d="M50.7404 64.4174C50.2964 64.4174 49.8531 64.3027 49.4572 64.0726L40.1732 58.6817C39.3881 58.2258 38.9004 57.3793 38.9004 56.4713V45.6688C38.9004 44.7608 39.3881 43.9142 40.1732 43.4584L49.4572 38.0675C50.249 37.608 51.2318 37.608 52.0243 38.0675L61.3083 43.4584C62.0927 43.9142 62.5804 44.7608 62.5804 45.6688V56.4713C62.5804 57.3793 62.0927 58.2258 61.3076 58.6817L52.0236 64.0726C51.6277 64.3027 51.1844 64.4174 50.7404 64.4174ZM50.7404 38.4627C50.4252 38.4627 50.1092 38.5441 49.8287 38.7076L40.5447 44.0985C39.9867 44.4219 39.6404 45.0235 39.6404 45.6688V56.4713C39.6404 57.1158 39.9867 57.7182 40.5447 58.0423L49.8287 63.4332C50.3911 63.7596 51.0904 63.7603 51.6528 63.4332L60.9368 58.0423C61.4941 57.7182 61.8404 57.1166 61.8404 56.4713V45.6688C61.8404 45.0242 61.4941 44.4219 60.9361 44.0985L51.6521 38.7076C51.3716 38.5441 51.0556 38.4627 50.7404 38.4627Z" fill="#472B29"/>
<path d="M39.2704 62.54L32.6104 58.84V50.7L39.2704 54.4V62.54Z" fill="#A8DBDB"/>
<path d="M39.2705 62.5401L45.9305 58.8401V50.7001L39.2705 54.4001V62.5401Z" fill="#85CFCC"/>
<path d="M32.7031 50.7001L39.3172 54.4001L45.9306 50.7001L39.2706 47.3701L32.7031 50.7001Z" fill="#EDF7F5"/>
<path d="M62.2098 62.5401L55.5498 58.8401V50.7001L62.2098 54.4001V62.5401Z" fill="#A8DBDB"/>
<path d="M62.21 62.5401L68.87 58.8401V50.7001L62.21 54.4001" fill="#85CFCC"/>
<path d="M55.6426 50.7L62.2567 54.4L68.8701 50.7L62.2101 47.37L55.6426 50.7Z" fill="#EDF7F5"/>
<path d="M62.2107 62.91C62.1492 62.91 62.0878 62.8952 62.0308 62.8634L55.3708 59.1634C55.2539 59.0983 55.1807 58.9747 55.1807 58.84V50.7C55.1807 50.5691 55.2502 50.4477 55.3627 50.3811C55.4752 50.3145 55.615 50.313 55.7305 50.3767L62.3905 54.0767C62.5688 54.1758 62.6332 54.4008 62.534 54.5799C62.4334 54.7597 62.2077 54.8218 62.0301 54.7234L55.9207 51.329V58.6225L62.3905 62.2167C62.5688 62.3158 62.6332 62.5408 62.534 62.7199C62.4667 62.8412 62.3402 62.91 62.2107 62.91Z" fill="#472B29"/>
<path d="M62.2098 62.91C62.1447 62.91 62.0796 62.893 62.0219 62.859C61.9094 62.7924 61.8398 62.671 61.8398 62.54V58.9325C61.8398 58.7283 62.0056 58.5625 62.2098 58.5625C62.4141 58.5625 62.5798 58.7283 62.5798 58.9325V61.911L68.4998 58.6225V51.329L62.5798 54.6176V56.5579C62.5798 56.7621 62.4141 56.9279 62.2098 56.9279C62.0056 56.9279 61.8398 56.7621 61.8398 56.5579V54.4C61.8398 54.2654 61.9131 54.1418 62.03 54.0767L68.69 50.3767C68.8055 50.313 68.9453 50.3145 69.0578 50.3811C69.1703 50.4477 69.2398 50.5691 69.2398 50.7V58.84C69.2398 58.9747 69.1666 59.0983 69.0497 59.1634L62.3897 62.8634C62.3334 62.8945 62.272 62.91 62.2098 62.91Z" fill="#472B29"/>
<path d="M62.2567 54.77C62.1945 54.77 62.1323 54.7545 62.0761 54.7227L55.462 51.0227C55.3428 50.9561 55.2696 50.8288 55.2725 50.6919C55.2755 50.555 55.3532 50.4314 55.4746 50.3693L62.0421 47.0393C62.1471 46.986 62.2707 46.986 62.3751 47.0385L69.0351 50.3685C69.1579 50.4299 69.2356 50.5535 69.2393 50.6912C69.2423 50.8281 69.169 50.9561 69.0499 51.0227L62.4357 54.7227C62.3802 54.7545 62.3181 54.77 62.2567 54.77ZM56.4292 50.7163L62.2567 53.976L68.0797 50.7185L62.2115 47.7844L56.4292 50.7163Z" fill="#472B29"/>
<path d="M51.1102 45.52L44.4502 41.82V33.68L51.1102 37.38V45.52Z" fill="#A8DBDB"/>
<path d="M51.1104 45.52L57.7704 41.82V33.68L51.1104 37.38V45.52Z" fill="#85CFCC"/>
<path d="M44.543 33.68L51.1571 37.38L57.7705 33.68L51.1105 30.35L44.543 33.68Z" fill="#EDF7F5"/>
<path d="M39.2702 62.91C39.2081 62.91 39.1467 62.8945 39.0904 62.8634L32.4304 59.1634C32.3135 59.0983 32.2402 58.9747 32.2402 58.84V50.7C32.2402 50.5691 32.3098 50.4477 32.4223 50.3811C32.5348 50.3145 32.6754 50.313 32.7901 50.3767L39.4501 54.0767C39.567 54.1418 39.6402 54.2654 39.6402 54.4V62.54C39.6402 62.671 39.5707 62.7924 39.4582 62.859C39.4005 62.893 39.3354 62.91 39.2702 62.91ZM32.9802 58.6225L38.9002 61.911V54.6176L32.9802 51.329V58.6225Z" fill="#472B29"/>
<path d="M39.2704 62.91C39.2053 62.91 39.1401 62.893 39.0824 62.859C38.9699 62.7924 38.9004 62.671 38.9004 62.54V54.4C38.9004 54.2654 38.9737 54.1418 39.0906 54.0767L42.3458 52.2681C42.5227 52.1697 42.7491 52.2326 42.8498 52.4117C42.9489 52.59 42.8846 52.8157 42.7062 52.9149L39.6404 54.6176V61.911L45.5604 58.6225V51.329L44.4963 51.9203C44.3202 52.0187 44.093 51.9558 43.9923 51.7767C43.8932 51.5984 43.9576 51.3727 44.1359 51.2735L45.7498 50.3767C45.8645 50.313 46.0051 50.3145 46.1176 50.3811C46.2301 50.4477 46.3004 50.5691 46.3004 50.7V58.84C46.3004 58.9747 46.2271 59.0983 46.1102 59.1634L39.4502 62.8634C39.394 62.8945 39.3326 62.91 39.2704 62.91Z" fill="#472B29"/>
<path d="M39.3172 54.77C39.2558 54.77 39.1936 54.7545 39.1367 54.7227L32.5225 51.0227C32.4034 50.9561 32.3301 50.8288 32.3331 50.6919C32.3361 50.555 32.4138 50.4314 32.5351 50.3693L39.1026 47.0393C39.2077 46.986 39.3313 46.986 39.4356 47.0385L46.0956 50.3685C46.2784 50.4595 46.3524 50.6823 46.2614 50.8651C46.1696 51.0478 45.9491 51.1218 45.7648 51.0308L39.2721 47.7844L33.4897 50.7163L39.4978 54.0774C39.6761 54.1773 39.7398 54.4023 39.6399 54.5806C39.5718 54.702 39.446 54.77 39.3172 54.77Z" fill="#472B29"/>
<path d="M51.1101 45.89C51.0479 45.89 50.9865 45.8745 50.9303 45.8434L44.2703 42.1434C44.1533 42.0783 44.0801 41.9547 44.0801 41.82V33.68C44.0801 33.549 44.1496 33.4277 44.2621 33.3611C44.3746 33.2945 44.5145 33.293 44.6299 33.3566L46.6597 34.4844C46.8381 34.5836 46.9024 34.8093 46.8033 34.9876C46.7034 35.1674 46.4777 35.2296 46.2993 35.1312L44.8193 34.309V41.6025L50.7393 44.891V37.5976L48.0901 36.1257C47.9118 36.0266 47.8474 35.8016 47.9466 35.6225C48.0465 35.4427 48.2714 35.3805 48.4505 35.479L51.2899 37.0559C51.4068 37.1218 51.4801 37.2453 51.4801 37.38V45.52C51.4801 45.651 51.4105 45.7724 51.298 45.839C51.2403 45.873 51.1752 45.89 51.1101 45.89Z" fill="#472B29"/>
<path d="M51.1102 45.89C51.0451 45.89 50.98 45.873 50.9223 45.839C50.8098 45.7724 50.7402 45.651 50.7402 45.52V37.38C50.7402 37.2453 50.8135 37.1218 50.9304 37.0566L57.5904 33.3566C57.7059 33.293 57.8457 33.2945 57.9582 33.3611C58.0707 33.4277 58.1402 33.549 58.1402 33.68V41.82C58.1402 41.9547 58.067 42.0783 57.9501 42.1434L51.2901 45.8434C51.2338 45.8745 51.1724 45.89 51.1102 45.89ZM51.4802 37.5976V44.891L57.4002 41.6025V34.309L51.4802 37.5976Z" fill="#472B29"/>
<path d="M51.1568 37.75C51.0273 37.75 50.9015 37.6819 50.8334 37.5606C50.7335 37.3822 50.7972 37.1565 50.9755 37.0574L56.9791 33.6985L51.1109 30.7644L44.7099 34.0101C44.5264 34.1018 44.3052 34.03 44.2119 33.8473C44.1194 33.6652 44.1927 33.4425 44.3747 33.35L50.9422 30.02C51.0473 29.9667 51.1709 29.9667 51.2752 30.0192L57.9352 33.3492C58.0581 33.4107 58.1358 33.5342 58.1395 33.6719C58.1424 33.8088 58.0692 33.9368 57.95 34.0034L51.3359 37.7034C51.2797 37.7352 51.2182 37.75 51.1568 37.75Z" fill="#472B29"/>
</svg>
