<svg width="121" height="120" viewBox="0 0 121 120" fill="none" xmlns="http://www.w3.org/2000/svg">
<path d="M118.262 41.9492C124.762 64.0046 113.827 89.1685 95.7246 101.829C77.6228 114.58 52.2618 114.736 31.9095 101.677C11.4658 88.5283 -3.96969 62.0726 2.16515 39.8481C8.39144 17.714 36.2789 -0.189494 62.099 0.378317C88.01 0.945567 111.853 19.8932 118.262 41.9492Z" fill="#E6F6FD"/>
<path d="M93.6873 65.5272C94.6996 63.6052 95.2793 61.4202 95.2793 59.097C95.2793 53.1921 91.5701 48.1656 86.3599 46.1848C86.3599 46.1786 86.3608 46.1723 86.3608 46.1652C86.3608 35.8216 77.9757 27.4365 67.6321 27.4365C58.9062 27.4365 51.5958 33.4127 49.516 41.4893C48.1996 41.0567 46.7968 40.8141 45.3359 40.8141C38.4759 40.8141 32.8296 45.9806 32.0564 52.6329C27.4152 53.6148 23.9316 57.7316 23.9316 62.6644C23.9316 68.3285 28.5238 72.9206 34.1879 72.9206C34.3457 72.9206 34.5018 72.9099 34.657 72.9009C34.6534 73.057 34.6338 73.2095 34.6338 73.3665C34.6338 83.464 42.8191 91.6493 52.9166 91.6493C58.6574 91.6493 63.7748 88.9988 67.1273 84.8588C69.0697 86.8432 71.7702 88.0819 74.7668 88.0819C78.9139 88.0819 82.5027 85.7186 84.2792 82.2689C85.2175 82.5677 86.2154 82.7309 87.2527 82.7309C92.6706 82.7309 97.063 78.3385 97.063 72.9206C97.063 69.9677 95.7519 67.326 93.6873 65.5272Z" fill="#C7EDE6"/>
<path d="M46.1152 51.9623C46.1152 51.9623 49.3615 51.9623 51.5777 51.9623C53.794 51.9623 55.5911 50.1653 55.5911 47.949C55.5911 45.8683 54.0018 44.1774 51.9746 43.9758C51.9942 43.8144 52.0237 43.6566 52.0237 43.4898C52.0237 41.2736 50.2266 39.4765 48.0104 39.4765C46.7279 39.4765 45.5997 40.0883 44.8648 41.0247C44.74 38.6738 42.8118 36.801 40.4297 36.801C37.9673 36.801 35.9705 38.7978 35.9705 41.2602C35.9705 41.6579 36.0391 42.0361 36.1372 42.4035C35.5647 41.7106 34.7094 41.2602 33.7408 41.2602C32.1525 41.2602 30.8566 42.4508 30.6595 43.9848C30.4981 43.9651 30.3402 43.9357 30.1735 43.9357C27.9572 43.9357 26.1602 45.7328 26.1602 47.949C26.1602 50.1653 27.9572 51.9623 30.1735 51.9623C32.3897 51.9623 38.646 51.9623 38.646 51.9623H43.4397V52.4082H46.1152V51.9623Z" fill="#FDFCEF"/>
<path d="M40.4283 36.3549C37.7234 36.3549 35.5232 38.5551 35.5232 41.2601C35.5232 41.2743 35.5232 41.2877 35.5232 41.302C34.9863 40.9854 34.3727 40.8141 33.7395 40.8141C32.1065 40.8141 30.6974 41.9388 30.2988 43.4941C30.2568 43.4915 30.2149 43.4897 30.1721 43.4897C27.7133 43.4897 25.7129 45.4901 25.7129 47.9489C25.7129 50.4077 27.7133 52.4081 30.1721 52.4081H43.4383C43.6845 52.4081 43.8842 52.2084 43.8842 51.9622C43.8842 51.7161 43.6845 51.5163 43.4383 51.5163H30.1721C28.2047 51.5163 26.6047 49.9163 26.6047 47.9489C26.6047 45.9815 28.2047 44.3815 30.1721 44.3815C30.2765 44.3815 30.3772 44.3967 30.478 44.4101L30.6038 44.427C30.6225 44.4297 30.6403 44.4306 30.6591 44.4306C30.8785 44.4306 31.0711 44.2656 31.1005 44.0408C31.2709 42.7093 32.4053 41.706 33.7395 41.706C34.5288 41.706 35.2761 42.0636 35.7916 42.687C35.879 42.7922 36.0066 42.8493 36.1359 42.8493C36.2055 42.8493 36.275 42.8333 36.3392 42.7994C36.5256 42.704 36.6193 42.4908 36.5658 42.2884C36.4632 41.9004 36.415 41.574 36.415 41.2601C36.415 39.0474 38.2157 37.2468 40.4283 37.2468C42.5518 37.2468 44.3052 38.9163 44.4185 41.0487C44.4283 41.2342 44.5522 41.3938 44.7297 41.45C44.7743 41.4643 44.8198 41.4714 44.8653 41.4714C44.999 41.4714 45.1293 41.4099 45.2149 41.3002C45.9025 40.4244 46.9201 39.9223 48.009 39.9223C49.9764 39.9223 51.5764 41.5223 51.5764 43.4897C51.5764 43.594 51.5612 43.6948 51.5479 43.7956L51.5309 43.9213C51.5167 44.0408 51.5505 44.1603 51.6255 44.254C51.7004 44.3476 51.8101 44.4074 51.9287 44.419C53.7623 44.6018 55.1438 46.1197 55.1438 47.9489C55.1438 49.9163 53.5438 51.5163 51.5764 51.5163H46.1139C45.8677 51.5163 45.6679 51.7161 45.6679 51.9622C45.6679 52.2084 45.8677 52.4081 46.1139 52.4081H51.5764C54.0352 52.4081 56.0356 50.4077 56.0356 47.9489C56.0356 45.8111 54.5293 44.0132 52.4656 43.5994C52.4674 43.5628 52.4683 43.5262 52.4683 43.4897C52.4683 41.0309 50.4678 39.0304 48.009 39.0304C46.9602 39.0304 45.964 39.4015 45.1703 40.0686C44.637 37.9246 42.707 36.3549 40.4283 36.3549Z" fill="#472B29"/>
<path d="M39.0914 42.5979C37.8402 42.5979 36.7646 43.4889 36.4935 44.6857C36.1662 44.4878 35.7925 44.3816 35.4126 44.3816C34.3406 44.3816 33.4523 45.1816 33.3141 46.226C33.133 46.1849 32.9609 46.1653 32.7923 46.1653C31.4287 46.1653 30.2854 47.2355 30.1899 48.6018C30.1819 48.7249 30.2747 48.8319 30.3968 48.8408C30.4022 48.8408 30.4075 48.8408 30.4129 48.8408C30.5288 48.8408 30.6269 48.7508 30.635 48.6339C30.7143 47.5004 31.6615 46.6112 32.7923 46.6112C32.9966 46.6112 33.2115 46.6487 33.4505 46.7245C33.4701 46.7307 33.4907 46.7334 33.5103 46.7334C33.5593 46.7334 33.6084 46.7156 33.6494 46.6853C33.7065 46.6442 33.7404 46.5711 33.7404 46.4998C33.7404 45.5776 34.4904 44.8275 35.4126 44.8275C35.8112 44.8275 36.2019 44.9774 36.5104 45.2494C36.5524 45.286 36.605 45.3056 36.6576 45.3056C36.6861 45.3056 36.7138 45.3002 36.7405 45.2886C36.819 45.2574 36.8725 45.1843 36.8788 45.0996C36.9715 43.9464 37.9427 43.0439 39.0914 43.0439C39.277 43.0439 39.4705 43.0742 39.6997 43.1393C39.7202 43.1455 39.7416 43.1482 39.7621 43.1482C39.8593 43.1482 39.9467 43.0831 39.9753 42.9859C40.0092 42.8673 39.9405 42.7442 39.8219 42.7103C39.5525 42.6336 39.3198 42.5979 39.0914 42.5979Z" fill="#472B29"/>
<path d="M51.4742 43.9357C50.2916 43.9357 49.2374 44.7357 48.911 45.8817C48.8771 46.0003 48.9458 46.1234 49.0644 46.1573C49.0858 46.1626 49.1063 46.1653 49.1259 46.1653C49.2231 46.1653 49.3123 46.1011 49.34 46.003C49.612 45.0487 50.4896 44.3816 51.4742 44.3816C51.5785 44.3816 51.6793 44.3941 51.7792 44.4075C51.7899 44.4093 51.7997 44.4101 51.8104 44.4101C51.9183 44.4101 52.0146 44.3281 52.0298 44.2166C52.0467 44.0944 51.9611 43.9821 51.8389 43.966C51.7194 43.95 51.5981 43.9357 51.4742 43.9357Z" fill="#472B29"/>
<path d="M39.4554 85.4066H30.6217C30.3756 85.4066 30.1758 85.2068 30.1758 84.9607C30.1758 84.7145 30.3756 84.5147 30.6217 84.5147H39.4554C39.7016 84.5147 39.9014 84.7145 39.9014 84.9607C39.9014 85.2068 39.7025 85.4066 39.4554 85.4066Z" fill="white"/>
<path d="M42.2147 85.4065H41.3229C41.0767 85.4065 40.877 85.2068 40.877 84.9606C40.877 84.7145 41.0767 84.5147 41.3229 84.5147H42.2147C42.4609 84.5147 42.6606 84.7145 42.6606 84.9606C42.6606 85.2068 42.4618 85.4065 42.2147 85.4065Z" fill="white"/>
<path d="M46.6657 87.1902H38.6471C38.4009 87.1902 38.2012 86.9904 38.2012 86.7443C38.2012 86.4981 38.4009 86.2983 38.6471 86.2983H46.6657C46.9118 86.2983 47.1116 86.4981 47.1116 86.7443C47.1116 86.9904 46.9118 87.1902 46.6657 87.1902Z" fill="white"/>
<path d="M36.8651 87.1902H35.9733C35.7271 87.1902 35.5273 86.9904 35.5273 86.7443C35.5273 86.4981 35.7271 86.2983 35.9733 86.2983H36.8651C37.1113 86.2983 37.311 86.4981 37.311 86.7443C37.311 86.9904 37.1122 87.1902 36.8651 87.1902Z" fill="white"/>
<path d="M34.1866 87.1902H32.403C32.1568 87.1902 31.957 86.9904 31.957 86.7443C31.957 86.4981 32.1568 86.2983 32.403 86.2983H34.1866C34.4328 86.2983 34.6326 86.4981 34.6326 86.7443C34.6326 86.9904 34.4337 87.1902 34.1866 87.1902Z" fill="white"/>
<path d="M39.5402 88.9738H37.7565C37.5103 88.9738 37.3105 88.774 37.3105 88.5279C37.3105 88.2817 37.5103 88.0819 37.7565 88.0819H39.5402C39.7863 88.0819 39.9861 88.2817 39.9861 88.5279C39.9861 88.774 39.7863 88.9738 39.5402 88.9738Z" fill="white"/>
<path d="M42.2147 80.9473C42.0569 80.9473 41.4807 80.9473 41.3229 80.9473C41.0767 80.9473 40.877 81.1471 40.877 81.3932C40.877 81.6394 41.0767 81.8391 41.3229 81.8391C41.4807 81.8391 42.0569 81.8391 42.2147 81.8391C42.4609 81.8391 42.6606 81.6394 42.6606 81.3932C42.6606 81.1471 42.4609 80.9473 42.2147 80.9473Z" fill="white"/>
<path d="M42.2157 82.7309C42.0578 82.7309 37.9143 82.7309 37.7565 82.7309C37.5103 82.7309 37.3105 82.9306 37.3105 83.1768C37.3105 83.4229 37.5103 83.6227 37.7565 83.6227C37.9143 83.6227 42.0578 83.6227 42.2157 83.6227C42.4618 83.6227 42.6616 83.4229 42.6616 83.1768C42.6616 82.9306 42.4618 82.7309 42.2157 82.7309Z" fill="white"/>
<path d="M46.6722 84.5147C46.5144 84.5147 44.1546 84.5147 43.9967 84.5147C43.7506 84.5147 43.5508 84.7145 43.5508 84.9606C43.5508 85.2068 43.7506 85.4065 43.9967 85.4065C44.1546 85.4065 46.5144 85.4065 46.6722 85.4065C46.9184 85.4065 47.1182 85.2068 47.1182 84.9606C47.1182 84.7145 46.9184 84.5147 46.6722 84.5147Z" fill="white"/>
<path d="M80.5636 36.355H71.6451C71.399 36.355 71.1992 36.1553 71.1992 35.9091C71.1992 35.663 71.399 35.4632 71.6451 35.4632H80.5636C80.8097 35.4632 81.0095 35.663 81.0095 35.9091C81.0095 36.1553 80.8097 36.355 80.5636 36.355Z" fill="white"/>
<path d="M84.132 36.3551H82.3483C82.1021 36.3551 81.9023 36.1553 81.9023 35.9092C81.9023 35.663 82.1021 35.4633 82.3483 35.4633H84.132C84.3781 35.4633 84.5779 35.663 84.5779 35.9092C84.5779 36.1553 84.3781 36.3551 84.132 36.3551Z" fill="white"/>
<path d="M88.5909 38.1387H79.6725C79.4263 38.1387 79.2266 37.9389 79.2266 37.6928C79.2266 37.4466 79.4263 37.2468 79.6725 37.2468H88.5909C88.8371 37.2468 89.0369 37.4466 89.0369 37.6928C89.0369 37.9389 88.838 38.1387 88.5909 38.1387Z" fill="white"/>
<path d="M77.8866 38.1387H76.9948C76.7486 38.1387 76.5488 37.9389 76.5488 37.6928C76.5488 37.4466 76.7486 37.2468 76.9948 37.2468H77.8866C78.1327 37.2468 78.3325 37.4466 78.3325 37.6928C78.3325 37.9389 78.1327 38.1387 77.8866 38.1387Z" fill="white"/>
<path d="M75.1025 38.1387H73.4303C73.1841 38.1387 72.9844 37.9389 72.9844 37.6928C72.9844 37.4466 73.1841 37.2468 73.4303 37.2468H75.1025C75.3487 37.2468 75.5484 37.4466 75.5484 37.6928C75.5484 37.9389 75.3487 38.1387 75.1025 38.1387Z" fill="white"/>
<path d="M83.2411 34.5713H78.7819C78.5357 34.5713 78.3359 34.3715 78.3359 34.1254C78.3359 33.8792 78.5357 33.6794 78.7819 33.6794H83.2411C83.4872 33.6794 83.687 33.8792 83.687 34.1254C83.687 34.3715 83.4881 34.5713 83.2411 34.5713Z" fill="white"/>
<path d="M80.5656 39.9223H78.7819C78.5357 39.9223 78.3359 39.7226 78.3359 39.4764C78.3359 39.2303 78.5357 39.0305 78.7819 39.0305H80.5656C80.8117 39.0305 81.0115 39.2303 81.0115 39.4764C81.0115 39.7226 80.8117 39.9223 80.5656 39.9223Z" fill="white"/>
<path d="M89.481 63.5562C89.481 63.5562 90.8785 63.5562 92.6024 63.5562C94.3263 63.5562 95.7239 62.1587 95.7239 60.4348C95.7239 58.8464 94.5333 57.5505 92.9993 57.3534C93.0243 57.1938 93.0483 57.0342 93.0483 56.8674C93.0483 55.1435 91.6508 53.7459 89.9269 53.7459C89.0065 53.7459 88.1878 54.1517 87.617 54.7849C87.2745 53.1725 85.8449 51.9622 84.1299 51.9622C82.1598 51.9622 80.5625 53.5595 80.5625 55.5296C80.5625 55.7 80.5893 55.8632 80.6124 56.0273C80.2307 55.7205 79.7527 55.5296 79.2247 55.5296C78.1295 55.5296 77.2225 56.3207 77.0352 57.3624C76.8756 57.3374 76.716 57.3133 76.5492 57.3133C74.8253 57.3133 73.4277 58.7108 73.4277 60.4348C73.4277 62.1587 74.8253 63.5562 76.5492 63.5562C78.2731 63.5562 83.238 63.5562 83.238 63.5562V64.0022H89.481V63.5562Z" fill="#FDFCEF"/>
<path d="M91.0433 59.5429C90.9202 59.5429 90.8203 59.4431 90.8203 59.32C90.8203 58.2293 91.7077 57.3419 92.7984 57.3419C92.8288 57.3499 93.4557 57.341 93.9079 57.4632C94.0265 57.4953 94.097 57.6174 94.0648 57.7361C94.0327 57.8556 93.9106 57.926 93.7919 57.893C93.396 57.786 92.8109 57.786 92.7993 57.7878C91.9538 57.7878 91.2662 58.4754 91.2662 59.32C91.2662 59.4431 91.1663 59.5429 91.0433 59.5429Z" fill="#472B29"/>
<path d="M85.0221 64.0023C85.2684 64.0023 85.468 63.8026 85.468 63.5564C85.468 63.3101 85.2684 63.1104 85.0221 63.1104C84.7758 63.1104 84.5762 63.3101 84.5762 63.5564C84.5762 63.8026 84.7758 64.0023 85.0221 64.0023Z" fill="#472B29"/>
<path d="M92.605 64.0021H89.4835C89.2374 64.0021 89.0376 63.8023 89.0376 63.5562C89.0376 63.31 89.2374 63.1102 89.4835 63.1102H92.605C94.0801 63.1102 95.2805 61.9098 95.2805 60.4347C95.2805 59.1005 94.2772 57.9661 92.9457 57.7957C92.8262 57.7797 92.7182 57.7172 92.646 57.6209C92.5738 57.5246 92.5434 57.4033 92.5622 57.2847C92.5827 57.1474 92.605 57.01 92.605 56.8673C92.605 55.3922 91.4046 54.1918 89.9294 54.1918C89.1714 54.1918 88.4686 54.5084 87.9504 55.0836C87.839 55.2076 87.6641 55.2602 87.5045 55.2156C87.3422 55.1719 87.2182 55.0417 87.1834 54.8776C86.8793 53.4471 85.596 52.4081 84.1324 52.4081C82.4112 52.4081 81.011 53.8083 81.011 55.5296C81.011 55.6571 81.0297 55.7793 81.0475 55.9023C81.0734 56.0834 80.9914 56.293 80.8317 56.3839C80.6721 56.4749 80.4785 56.4892 80.3359 56.375C80.0103 56.1137 79.6277 55.9755 79.2273 55.9755C78.3658 55.9755 77.6291 56.5917 77.4766 57.4417C77.4338 57.6798 77.2126 57.8394 76.9691 57.8029C76.8318 57.7815 76.6945 57.7592 76.5518 57.7592C75.0766 57.7592 73.8762 58.9596 73.8762 60.4347C73.8762 61.9098 75.0766 63.1102 76.5518 63.1102H83.2406C83.4867 63.1102 83.6865 63.31 83.6865 63.5562C83.6865 63.8023 83.4867 64.0021 83.2406 64.0021H76.5518C74.5843 64.0021 72.9844 62.4021 72.9844 60.4347C72.9844 58.4673 74.5843 56.8673 76.5518 56.8673C76.6044 56.8673 76.6552 56.8691 76.7069 56.8727C77.0762 55.8149 78.0777 55.0836 79.2273 55.0836C79.5385 55.0836 79.8418 55.138 80.129 55.2442C80.2761 53.1635 82.0152 51.5162 84.1324 51.5162C85.7654 51.5162 87.2236 52.5214 87.8363 53.9902C88.4427 53.5461 89.1758 53.2999 89.9294 53.2999C91.8968 53.2999 93.4968 54.8999 93.4968 56.8673C93.4968 56.9101 93.4959 56.952 93.4933 56.994C95.0477 57.3935 96.1724 58.8017 96.1724 60.4347C96.1724 62.4021 94.5724 64.0021 92.605 64.0021Z" fill="#472B29"/>
<path d="M87.6971 63.1103C87.5553 63.1103 86.9471 63.1103 86.8053 63.1103C86.5591 63.1103 86.3594 63.3101 86.3594 63.5562C86.3594 63.8024 86.5591 64.0021 86.8053 64.0021C86.9471 64.0021 87.5553 64.0021 87.6971 64.0021C87.9433 64.0021 88.1431 63.8024 88.1431 63.5562C88.1431 63.3101 87.9433 63.1103 87.6971 63.1103Z" fill="#472B29"/>
<path d="M61.3201 78.5393C60.538 78.5393 59.8165 78.1906 59.342 77.5833C58.9318 77.0571 58.3369 76.7556 57.709 76.7556H39.6117C39.1774 76.7556 38.8242 76.4025 38.8242 75.9681V49.3608C38.8242 48.9265 39.1774 48.5733 39.6117 48.5733H82.2714C82.7057 48.5733 83.0589 48.9265 83.0589 49.3608V75.9681C83.0589 76.4025 82.7057 76.7556 82.2714 76.7556H64.9321C64.3042 76.7556 63.7094 77.0571 63.2991 77.5833C62.8229 78.1906 62.1023 78.5393 61.3201 78.5393Z" fill="#EF437B"/>
<path d="M82.2735 49.1975C82.3636 49.1975 82.4367 49.2716 82.4367 49.3616V75.9681C82.4367 76.0581 82.3636 76.1322 82.2735 76.1322H64.9333C64.112 76.1322 63.3378 76.521 62.8081 77.1997C62.4522 77.6545 61.9109 77.9158 61.3223 77.9158C60.7336 77.9158 60.1914 77.6545 59.8356 77.1988C59.3058 76.521 58.5317 76.1322 57.7103 76.1322H39.613C39.5229 76.1322 39.4498 76.0581 39.4498 75.9681V49.3607C39.4498 49.2707 39.5229 49.1966 39.613 49.1966H82.2735M82.2735 47.9489H39.613C38.8335 47.9489 38.2012 48.5813 38.2012 49.3607V75.9672C38.2012 76.7475 38.8335 77.3798 39.613 77.3798H57.7094C58.1625 77.3798 58.5718 77.6099 58.851 77.9667C59.4182 78.6935 60.3118 79.1635 61.3214 79.1635C62.3309 79.1635 63.2246 78.6935 63.7918 77.9667C64.0709 77.6099 64.4794 77.3798 64.9333 77.3798H82.2735C83.053 77.3798 83.6853 76.7475 83.6853 75.9681V49.3607C83.6853 48.5813 83.053 47.9489 82.2735 47.9489Z" fill="#472B29"/>
<path d="M42.325 73.1882C41.8701 73.1882 41.5 72.8181 41.5 72.3632V44.939C41.5 44.4841 41.8701 44.114 42.325 44.114H51.5636C54.6565 44.114 58.4986 44.7035 60.7014 45.516C60.9208 45.5981 61.1518 45.64 61.3882 45.64C61.6245 45.64 61.8555 45.5981 62.0758 45.516C64.2768 44.7035 68.1198 44.114 71.2127 44.114H79.5595C80.0143 44.114 80.3845 44.4841 80.3845 44.939V72.3632C80.3845 72.8181 80.0143 73.1882 79.5595 73.1882H42.325Z" fill="#FDFCEF"/>
<path d="M79.5607 44.7383C79.6713 44.7383 79.7614 44.8284 79.7614 44.939V72.3632C79.7614 72.4738 79.6713 72.5639 79.5607 72.5639H62.2812H60.4976H42.3262C42.2156 72.5639 42.1255 72.4738 42.1255 72.3632V44.939C42.1255 44.8284 42.2156 44.7383 42.3262 44.7383H51.5657C54.5454 44.7383 58.3803 45.3251 60.4877 46.1028C60.7767 46.2099 61.0808 46.2634 61.3894 46.2634C61.698 46.2634 62.0021 46.209 62.2919 46.1028C64.3985 45.3242 68.2343 44.7383 71.2131 44.7383H79.5607ZM79.5607 43.4897H71.2131C67.9168 43.4897 64.007 44.139 61.8594 44.9318C61.7078 44.988 61.549 45.0157 61.3894 45.0157C61.2298 45.0157 61.0701 44.988 60.9194 44.9318C58.7718 44.139 54.8611 43.4897 51.5657 43.4897H42.3262C41.5262 43.4897 40.877 44.139 40.877 44.939V72.3632C40.877 73.1632 41.5262 73.8125 42.3262 73.8125H60.4976H62.2812H79.5607C80.3607 73.8125 81.01 73.1632 81.01 72.3632V44.939C81.01 44.139 80.3607 43.4897 79.5607 43.4897Z" fill="#472B29"/>
<path d="M81.0273 72.5051V76.5077H83.1018V73.5361C83.0429 73.5512 82.9823 73.5584 82.9243 73.5762C82.4097 73.0607 81.7533 72.6942 81.0273 72.5051Z" fill="#D7CCC8"/>
<path d="M84.6714 67.2352C83.553 67.2352 82.6469 68.1699 82.6469 69.3239V68.2796C82.6469 67.1264 81.7408 66.1909 80.6224 66.1909C79.5041 66.1909 78.5979 67.1255 78.5979 68.2796V67.2352C78.5979 66.0821 77.6918 65.1465 76.5735 65.1465C75.4551 65.1465 74.1717 65.7476 74.1717 66.9008V59.9515C74.1717 58.7984 73.7472 57.7594 72.6297 57.7594C71.5122 57.7594 70.8648 58.6806 70.8648 59.8338V74.1096L67.6996 71.311C66.9094 70.4949 65.6278 70.4949 64.8368 71.311C64.0466 72.127 64.0466 73.4487 64.8368 74.2647L70.5009 80.1081C70.5009 80.1081 73.2683 82.8978 75.5612 82.8978H80.3977C83.7243 82.8978 86.4408 80.2356 86.6718 76.8645C86.6798 76.7878 86.6941 76.712 86.6941 76.6326V76.4007V70.758V69.3221C86.6959 68.1699 85.7898 67.2352 84.6714 67.2352Z" fill="#F6CCA4"/>
<path d="M80.3972 83.523H75.5607C73.0368 83.523 70.1775 80.67 70.0562 80.5487L64.3876 74.6991C63.3656 73.6458 63.3656 71.9308 64.3876 70.8766C65.3901 69.8447 67.1443 69.843 68.1468 70.8766L70.2399 72.7245V59.8338C70.2399 58.2445 71.2227 57.135 72.6301 57.135C73.9661 57.135 74.7964 58.2142 74.7964 59.9515V64.9556C75.3234 64.6703 75.9567 64.5222 76.5738 64.5222C77.6538 64.5222 78.5849 65.1875 78.997 66.1391C79.4456 65.7806 80.0101 65.5657 80.6219 65.5657C81.7019 65.5657 82.633 66.231 83.045 67.1826C83.4945 66.8241 84.0591 66.6091 84.6709 66.6091C86.1317 66.6091 87.3197 67.8256 87.3197 69.3221V76.6308C87.3197 76.7164 87.3098 76.7985 87.3 76.8814C87.0414 80.6173 84.0109 83.523 80.3972 83.523ZM66.2685 71.3243C65.8975 71.3243 65.5479 71.4741 65.2839 71.7462C64.7274 72.3214 64.7274 73.256 65.2839 73.8304L70.9489 79.6747C71.6642 80.3944 73.8992 82.2744 75.5616 82.2744H80.398C83.3572 82.2744 85.841 79.8798 86.0497 76.8234C86.0506 76.81 86.0604 76.7334 86.0613 76.7209L86.0711 76.4025V69.3248C86.0711 68.5177 85.4432 67.8604 84.6718 67.8604C83.9003 67.8604 83.2725 68.5168 83.2725 69.3248C83.2725 69.6699 82.9933 69.9491 82.6482 69.9491C82.303 69.9491 82.0239 69.6699 82.0239 69.3248V68.2804C82.0239 67.4733 81.396 66.816 80.6237 66.816C79.8522 66.816 79.2244 67.4724 79.2244 68.2804C79.2244 68.6256 78.9452 68.9047 78.6001 68.9047C78.2549 68.9047 77.9758 68.6256 77.9758 68.2804V67.2361C77.9758 66.429 77.3479 65.7717 76.5765 65.7717C75.8594 65.7717 74.799 66.1302 74.799 66.9016C74.799 67.2468 74.5199 67.5259 74.1747 67.5259C73.8296 67.5259 73.5505 67.2468 73.5505 66.9016V59.9524C73.5505 59.3673 73.4309 58.3845 72.6336 58.3845C71.7917 58.3845 71.493 59.1658 71.493 59.8347V74.1104C71.493 74.3557 71.3494 74.5787 71.1255 74.6794C70.9008 74.7811 70.6395 74.7401 70.4549 74.5787L67.2897 71.78C66.9874 71.4741 66.6387 71.3243 66.2685 71.3243Z" fill="#472B29"/>
<path d="M60.942 51.5163C60.6959 51.5163 60.4961 51.3166 60.4961 51.0704V46.1653C60.4961 45.9191 60.6959 45.7193 60.942 45.7193C61.1882 45.7193 61.3879 45.9191 61.3879 46.1653V51.0704C61.3879 51.3166 61.1882 51.5163 60.942 51.5163Z" fill="#472B29"/>
<path d="M60.942 57.7593C60.6959 57.7593 60.4961 57.5595 60.4961 57.3134V53.3001C60.4961 53.0539 60.6959 52.8541 60.942 52.8541C61.1882 52.8541 61.3879 53.0539 61.3879 53.3001V57.3134C61.3879 57.5595 61.1882 57.7593 60.942 57.7593Z" fill="#472B29"/>
<path d="M60.942 70.2451C60.6959 70.2451 60.4961 70.0453 60.4961 69.7992V59.5429C60.4961 59.2968 60.6959 59.097 60.942 59.097C61.1882 59.097 61.3879 59.2968 61.3879 59.5429V69.7992C61.3879 70.0453 61.1882 70.2451 60.942 70.2451Z" fill="#472B29"/>
<path d="M58.7138 49.7326C58.671 49.7326 58.6273 49.7264 58.5845 49.7139C55.7413 48.8506 51.893 48.8408 51.8547 48.8408L49.9033 48.8256C49.6572 48.8238 49.4592 48.6223 49.4609 48.3761C49.4627 48.1318 49.6625 47.9338 49.9069 47.9338C49.9069 47.9338 49.9087 47.9338 49.9104 47.9338L51.8582 47.9489C52.0179 47.9489 55.8742 47.9596 58.8432 48.8595C59.0786 48.9309 59.2124 49.1797 59.1401 49.416C59.0822 49.6087 58.9056 49.7326 58.7138 49.7326Z" fill="#472B29"/>
<path d="M48.1228 48.8132C48.1228 48.8132 48.1211 48.8132 48.1193 48.8132L44.4404 48.7856C44.1943 48.7838 43.9963 48.5822 43.9981 48.3361C43.9998 48.0917 44.1996 47.8937 44.444 47.8937C44.444 47.8937 44.4458 47.8937 44.4476 47.8937L48.1264 47.9214C48.3726 47.9232 48.5705 48.1247 48.5688 48.3709C48.5679 48.6152 48.3681 48.8132 48.1228 48.8132Z" fill="#472B29"/>
<path d="M58.712 53.3001C58.6692 53.3001 58.6255 53.2938 58.5827 53.2814C57.8023 53.0441 56.873 52.8506 55.8198 52.7034C55.5763 52.6696 55.406 52.4439 55.4398 52.2004C55.4737 51.957 55.6994 51.7857 55.9428 51.8205C57.0416 51.9739 58.0164 52.1781 58.8404 52.4288C59.0768 52.5001 59.2097 52.7489 59.1374 52.9853C59.0804 53.1761 58.9038 53.3001 58.712 53.3001Z" fill="#472B29"/>
<path d="M53.811 52.4912C53.8003 52.4912 53.7896 52.4912 53.7789 52.4903C52.657 52.4092 51.8623 52.4083 51.8543 52.4083L44.4404 52.3521C44.1943 52.3503 43.9963 52.1487 43.9981 51.9026C43.9998 51.6582 44.1996 51.4602 44.444 51.4602C44.444 51.4602 44.4458 51.4602 44.4476 51.4602L51.8579 51.5164C51.8427 51.545 52.6775 51.5155 53.8422 51.6003C54.0875 51.619 54.273 51.8321 54.2552 52.0774C54.2382 52.3119 54.0429 52.4912 53.811 52.4912Z" fill="#472B29"/>
<path d="M58.7153 56.8674C58.6725 56.8674 58.6288 56.8611 58.5859 56.8486C55.7427 55.9853 51.8944 55.9755 51.8561 55.9755C51.6099 55.9755 51.4102 55.7758 51.4102 55.5296C51.4102 55.2835 51.6099 55.0837 51.8561 55.0837C52.0193 55.0837 55.8756 55.0944 58.8446 55.9943C59.08 56.0656 59.2138 56.3144 59.1416 56.5508C59.0836 56.7434 58.907 56.8674 58.7153 56.8674Z" fill="#472B29"/>
<path d="M50.241 55.9631C50.241 55.9631 50.2392 55.9631 50.2374 55.9631L44.4404 55.9194C44.1943 55.9176 43.9963 55.716 43.9981 55.4699C43.9998 55.2255 44.1996 55.0275 44.444 55.0275C44.444 55.0275 44.4458 55.0275 44.4476 55.0275L50.2445 55.0712C50.4907 55.073 50.6887 55.2746 50.6869 55.5207C50.686 55.766 50.4862 55.9631 50.241 55.9631Z" fill="#472B29"/>
<path d="M58.7139 60.4348C58.6711 60.4348 58.6274 60.4286 58.5846 60.4161C56.9927 59.9336 55.0921 59.7196 53.7793 59.625C53.5332 59.6063 53.3486 59.3932 53.3664 59.1479C53.3843 58.9035 53.5992 58.7171 53.8427 58.735C55.2018 58.8331 57.1719 59.0551 58.8432 59.5626C59.0787 59.634 59.2125 59.8828 59.1402 60.1191C59.0823 60.3109 58.9057 60.4348 58.7139 60.4348Z" fill="#472B29"/>
<path d="M51.8543 59.5429C51.8543 59.5429 51.8525 59.5429 51.8508 59.5429L44.4404 59.4867C44.1943 59.4849 43.9963 59.2833 43.9981 59.0372C43.9998 58.7928 44.1996 58.5948 44.444 58.5948C44.444 58.5948 44.4458 58.5948 44.4476 58.5948L51.8579 58.651C52.104 58.6528 52.302 58.8544 52.3002 59.1005C52.2985 59.3449 52.0987 59.5429 51.8543 59.5429Z" fill="#472B29"/>
<path d="M58.7152 64.0022C58.6724 64.0022 58.6287 63.996 58.5859 63.9835C58.0151 63.8114 57.3587 63.6589 56.6346 63.5313C56.392 63.4885 56.2297 63.2575 56.2725 63.0159C56.3153 62.7733 56.5454 62.6056 56.7889 62.6538C57.5487 62.7867 58.2399 62.9472 58.8446 63.13C59.08 63.2014 59.2138 63.4502 59.1415 63.6856C59.0836 63.8783 58.907 64.0022 58.7152 64.0022Z" fill="#472B29"/>
<path d="M55.2652 63.3297C55.2474 63.3297 55.2305 63.3288 55.2126 63.327C53.3915 63.113 51.87 63.1103 51.8548 63.1103L49.4014 63.0916C49.1552 63.0898 48.9572 62.8883 48.959 62.6421C48.9608 62.3977 49.1606 62.1997 49.4049 62.1997C49.4049 62.1997 49.4067 62.1997 49.4085 62.1997L51.8584 62.2185C51.919 62.2185 53.4405 62.2212 55.317 62.4405C55.5613 62.4691 55.737 62.6912 55.7076 62.9364C55.6817 63.1629 55.4882 63.3297 55.2652 63.3297Z" fill="#472B29"/>
<path d="M47.6216 63.0782C47.6216 63.0782 47.6198 63.0782 47.6181 63.0782L44.4404 63.055C44.1943 63.0532 43.9963 62.8516 43.9981 62.6055C43.9998 62.3611 44.1996 62.1631 44.444 62.1631C44.444 62.1631 44.4458 62.1631 44.4476 62.1631L47.6252 62.1863C47.8713 62.1881 48.0693 62.3897 48.0675 62.6358C48.0658 62.8802 47.866 63.0782 47.6216 63.0782Z" fill="#472B29"/>
<path d="M58.7143 67.5695C58.6715 67.5695 58.6278 67.5633 58.585 67.5508C56.9948 67.0683 55.0961 66.8542 53.7833 66.7597C53.5371 66.741 53.3525 66.5278 53.3703 66.2826C53.3882 66.0373 53.6093 65.8572 53.8466 65.8696C55.2049 65.9678 57.1741 66.1898 58.8436 66.6973C59.0799 66.7686 59.2128 67.0175 59.1406 67.2538C59.0826 67.4455 58.906 67.5695 58.7143 67.5695Z" fill="#472B29"/>
<path d="M51.8543 66.6777C51.8543 66.6777 51.8525 66.6777 51.8508 66.6777L44.4404 66.6215C44.1943 66.6197 43.9963 66.4181 43.9981 66.172C43.9998 65.9276 44.1996 65.7296 44.444 65.7296C44.444 65.7296 44.4458 65.7296 44.4476 65.7296L51.8579 65.7858C52.104 65.7876 52.302 65.9892 52.3002 66.2353C52.2985 66.4797 52.0987 66.6777 51.8543 66.6777Z" fill="#472B29"/>
<path d="M63.1711 49.7326C62.9793 49.7326 62.8027 49.6086 62.7439 49.4168C62.6725 49.1805 62.8054 48.9317 63.0409 48.8603C66.0107 47.9596 69.8679 47.9489 70.0303 47.9489L71.9736 47.9337H71.9772C72.2215 47.9337 72.4213 48.1317 72.4231 48.3761C72.4249 48.6222 72.2269 48.8238 71.9807 48.8255L70.0338 48.8407C69.9919 48.8407 66.1409 48.8523 63.3004 49.7138C63.2576 49.7263 63.2139 49.7326 63.1711 49.7326Z" fill="#472B29"/>
<path d="M73.7623 48.8133C73.518 48.8133 73.3182 48.6153 73.3164 48.3709C73.3146 48.1248 73.5126 47.9232 73.7588 47.9214L77.4385 47.8938H77.4421C77.6865 47.8938 77.8862 48.0918 77.888 48.3361C77.8898 48.5823 77.6918 48.7838 77.4457 48.7856L73.7659 48.8133H73.7623Z" fill="#472B29"/>
<path d="M63.1711 53.3C62.9793 53.3 62.8027 53.176 62.7439 52.9843C62.6725 52.7479 62.8054 52.4991 63.0409 52.4278C63.8658 52.178 64.8406 51.9729 65.9385 51.8195C66.1757 51.7892 66.4076 51.9542 66.4415 52.1994C66.4754 52.4429 66.3059 52.6686 66.0615 52.7024C65.0092 52.8496 64.0799 53.044 63.2995 53.2804C63.2576 53.2937 63.2139 53.3 63.1711 53.3Z" fill="#472B29"/>
<path d="M68.0781 52.4912C67.8463 52.4912 67.6509 52.3119 67.634 52.0774C67.6162 51.8321 67.8017 51.6181 68.0469 51.6003C69.2019 51.5173 70.0018 51.5164 70.0348 51.5164L77.4416 51.4602H77.4452C77.6896 51.4602 77.8893 51.6582 77.8911 51.9026C77.8929 52.1487 77.6949 52.3503 77.4488 52.3521L70.0384 52.4083C70.0268 52.4083 69.2313 52.4092 68.1111 52.4903C68.0995 52.4912 68.0897 52.4912 68.0781 52.4912Z" fill="#472B29"/>
<path d="M63.1711 56.8674C62.9793 56.8674 62.8027 56.7435 62.7439 56.5517C62.6725 56.3154 62.8054 56.0666 63.0409 55.9952C66.0107 55.0945 69.8679 55.0838 70.0303 55.0838C70.2764 55.0838 70.4762 55.2835 70.4762 55.5297C70.4762 55.7758 70.2764 55.9756 70.0303 55.9756C69.9919 55.9756 66.1409 55.9872 63.3004 56.8487C63.2576 56.8612 63.2139 56.8674 63.1711 56.8674Z" fill="#472B29"/>
<path d="M71.6432 55.9631C71.3988 55.9631 71.1991 55.7651 71.1973 55.5207C71.1955 55.2746 71.3935 55.073 71.6396 55.0712L77.4375 55.0275H77.4411C77.6855 55.0275 77.8852 55.2255 77.887 55.4699C77.8888 55.716 77.6908 55.9176 77.4447 55.9194L71.6468 55.9631H71.6432Z" fill="#472B29"/>
<path d="M63.1711 60.4347C62.9793 60.4347 62.8027 60.3108 62.7439 60.119C62.6725 59.8827 62.8054 59.6338 63.0409 59.5625C64.7122 59.0559 66.6832 58.8339 68.0414 58.7349C68.2831 58.7179 68.5007 58.9025 68.5186 59.1478C68.5364 59.3931 68.3509 59.6071 68.1057 59.6249C66.7911 59.7186 64.8914 59.9335 63.2995 60.416C63.2576 60.4285 63.2139 60.4347 63.1711 60.4347Z" fill="#472B29"/>
<path d="M63.1711 64.0021C62.9793 64.0021 62.8027 63.8782 62.7439 63.6855C62.6725 63.4501 62.8054 63.2013 63.0418 63.1299C63.6464 62.9471 64.3376 62.7865 65.0975 62.6537C65.3276 62.6046 65.5701 62.7723 65.6129 63.0157C65.6558 63.2574 65.4934 63.4884 65.2509 63.5312C64.5267 63.6588 63.8703 63.8104 63.2995 63.9834C63.2576 63.9959 63.2139 64.0021 63.1711 64.0021Z" fill="#472B29"/>
<path d="M63.1711 67.5695C62.9793 67.5695 62.8027 67.4455 62.7439 67.2538C62.6725 67.0174 62.8054 66.7686 63.0409 66.6973C64.7104 66.1907 66.6796 65.9677 68.0379 65.8696C68.284 65.8589 68.4972 66.0364 68.515 66.2826C68.5329 66.5278 68.3473 66.7419 68.1021 66.7597C66.7893 66.8533 64.8906 67.0683 63.3004 67.5508C63.2576 67.5633 63.2139 67.5695 63.1711 67.5695Z" fill="#472B29"/>
<path d="M84.1331 76.265C84.01 76.265 83.9102 76.1651 83.9102 76.0421V74.2584C83.9102 74.1353 84.01 74.0354 84.1331 74.0354C84.2562 74.0354 84.3561 74.1353 84.3561 74.2584V76.0421C84.3561 76.1651 84.2562 76.265 84.1331 76.265Z" fill="#472B29"/>
<path d="M82.1114 80.2935C82.0347 80.2935 81.9607 80.2543 81.9188 80.1829C81.8573 80.0768 81.8929 79.9404 81.9991 79.8779C82.8303 79.3928 83.4447 78.5375 83.7283 77.4708C83.7596 77.3531 83.8844 77.2818 84.0013 77.313C84.1199 77.3442 84.1912 77.4664 84.1591 77.5859C83.8443 78.7667 83.1576 79.7183 82.2238 80.2632C82.1881 80.2837 82.1498 80.2935 82.1114 80.2935Z" fill="#472B29"/>
<path d="M80.5657 80.7242H76.9984C76.8753 80.7242 76.7754 80.6243 76.7754 80.5012C76.7754 80.3782 76.8753 80.2783 76.9984 80.2783H80.5657C80.6888 80.2783 80.7887 80.3782 80.7887 80.5012C80.7887 80.6243 80.6888 80.7242 80.5657 80.7242Z" fill="#472B29"/>
</svg>
