<svg width="121" height="112" viewBox="0 0 121 112" fill="none" xmlns="http://www.w3.org/2000/svg">
<path d="M118.265 41.9492C124.764 64.0047 113.83 89.1686 95.7276 101.829C77.6258 114.58 52.2647 114.736 31.9124 101.678C11.4687 88.5283 -3.96676 62.0726 2.16808 39.8481C8.39437 17.714 36.2819 -0.189441 62.1019 0.378371C88.0129 0.94562 111.856 19.8932 118.265 41.9492Z" fill="#E6F6FD"/>
<path d="M94.5593 65.0993C94.8248 64.5541 95.0592 63.9813 95.2626 63.3811C97.5909 56.5088 94.07 48.2779 86.6552 46.2915C85.8533 36.2233 78.7786 29.3174 70.7893 28.139C61.6447 26.7901 53.2664 32.5994 50.4789 41.8337C47.1188 40.6438 43.8447 40.7885 40.7598 42.5912C39.3603 43.2385 38.0798 44.194 36.9307 45.4505C35.2435 47.2949 34.1477 49.6242 33.7011 52.0795C33.0395 52.1834 32.3895 52.2882 31.7768 52.5075C28.2043 53.7889 25.9497 56.4262 25.3317 60.3983C24.9463 62.8713 25.7233 65.3391 26.1566 66.3363C27.8678 70.2755 31.8363 72.5097 35.8678 71.9183C36.0685 71.889 36.3597 71.9796 36.5329 72.1243C36.746 78.4211 39.8034 83.9898 44.3899 87.1706C51.7488 92.2748 61.2167 90.7022 67.1893 83.7029C69.7486 86.3208 72.7944 87.5924 76.373 87.1306C79.9304 86.6715 82.6929 84.7082 84.7087 81.5167C85.6393 81.7671 86.5229 82.1285 87.4358 82.228C91.01 82.6187 93.9128 81.197 96.0423 77.9833C96.8574 76.7535 97.6282 75.1586 97.6282 72.3641C97.6282 69.4825 96.4845 66.8585 94.5593 65.0993Z" fill="#C7EDE6"/>
<path d="M84.0395 59.2367C84.0395 59.2367 94.3785 59.2367 94.4415 59.2367C96.8294 59.2367 98.7643 57.3009 98.7643 54.9131C98.7643 52.8298 97.2911 51.092 95.3295 50.6818C95.3517 50.4997 95.3677 50.315 95.3677 50.1268C95.3677 47.6537 93.3635 45.6495 90.8904 45.6495C89.4305 45.6495 88.1376 46.3519 87.3206 47.4326C87.112 44.6798 84.6531 42.5565 81.776 42.9082C79.6723 43.1657 77.9327 44.7916 77.5455 46.8749C77.4212 47.5427 77.4345 48.1918 77.558 48.8001C76.9941 48.1927 76.1913 47.81 75.2971 47.81C73.6605 47.81 72.325 49.0842 72.2193 50.6942C71.4761 50.5299 70.668 50.5406 69.8164 50.8602C68.1896 51.4712 67.0307 53.003 66.9623 54.7399C66.8664 57.2068 68.8369 59.2367 71.2816 59.2367C71.4672 59.2367 72.1199 59.2367 72.2708 59.2367H81.2476" fill="#FDFCEF"/>
<path d="M94.4415 59.6808H84.0395C83.7944 59.6808 83.5955 59.4818 83.5955 59.2368C83.5955 58.9917 83.7944 58.7928 84.0395 58.7928H94.4415C96.5807 58.7928 98.3203 57.0523 98.3203 54.9131C98.3203 53.0865 97.0247 51.4898 95.2389 51.1169C95.0125 51.0698 94.8606 50.8576 94.8891 50.6276C94.9095 50.4633 94.9237 50.2964 94.9237 50.1268C94.9237 47.9023 93.114 46.0935 90.8904 46.0935C89.6188 46.0935 88.4466 46.6795 87.6741 47.7007C87.5631 47.849 87.3739 47.9139 87.1945 47.8588C87.0178 47.8064 86.8908 47.651 86.8775 47.4672C86.7852 46.2489 86.1893 45.106 85.2418 44.329C84.2855 43.5449 83.0751 43.1968 81.8301 43.3487C79.9156 43.5831 78.3332 45.066 77.9824 46.9557C77.8723 47.5453 77.8759 48.1367 77.9931 48.7122C78.033 48.9066 77.938 49.1047 77.7613 49.1952C77.5855 49.2858 77.3679 49.2485 77.233 49.1029C76.725 48.5559 76.0377 48.2549 75.2971 48.2549C73.9109 48.2549 72.7539 49.3391 72.6624 50.7235C72.6535 50.8531 72.5887 50.9721 72.4857 51.0494C72.3818 51.1266 72.2486 51.1551 72.1234 51.1275C71.389 50.965 70.6671 51.0156 69.9727 51.2758C68.4977 51.8291 67.4658 53.2285 67.4063 54.7568C67.3646 55.8242 67.7482 56.8338 68.4861 57.6019C69.225 58.3701 70.2177 58.7928 71.2825 58.7928H81.2485C81.4936 58.7928 81.6925 58.9917 81.6925 59.2368C81.6925 59.4818 81.4936 59.6808 81.2485 59.6808H71.2825C69.9735 59.6808 68.7534 59.1613 67.8459 58.2182C66.9392 57.2752 66.4677 56.0337 66.5183 54.723C66.592 52.8414 67.8548 51.1231 69.6601 50.4455C70.3678 50.18 71.1004 50.0903 71.8419 50.1809C72.1758 48.5692 73.6099 47.3677 75.2971 47.3677C75.9018 47.3677 76.4932 47.5258 77.0145 47.8171C77.0145 47.4779 77.0456 47.136 77.1086 46.795C77.5295 44.5279 79.4263 42.7492 81.7218 42.4686C83.2074 42.2839 84.6584 42.704 85.8039 43.6426C86.6919 44.3699 87.3215 45.3671 87.6066 46.4646C88.5017 45.6557 89.657 45.2063 90.8895 45.2063C93.6032 45.2063 95.8108 47.4139 95.8108 50.1276C95.8108 50.2014 95.809 50.2742 95.8046 50.3461C97.7982 50.9419 99.2074 52.8032 99.2074 54.914C99.2083 57.5425 97.07 59.6808 94.4415 59.6808Z" fill="#472B29"/>
<path d="M81.5336 49.7129C79.9343 49.6081 78.5579 50.7128 78.4593 52.1798C78.4469 52.3618 78.4549 52.5412 78.4815 52.7161C78.1734 52.3681 77.716 52.131 77.1921 52.0972C76.2331 52.0342 75.4046 52.6682 75.2838 53.5296C75.1089 53.4816 74.9277 53.4496 74.7386 53.4372C73.3391 53.3457 72.135 54.3119 72.0488 55.5959" fill="#FDFCEF"/>
<path d="M72.0496 55.8171C72.0443 55.8171 72.039 55.8171 72.0345 55.8171C71.912 55.8091 71.8196 55.7034 71.8276 55.5809C71.9218 54.176 73.2209 53.1087 74.7536 53.2152C74.8726 53.2232 74.9934 53.2392 75.1141 53.2623C75.3574 52.4071 76.233 51.8202 77.2063 51.8752C77.5765 51.8992 77.9326 52.0191 78.2346 52.2144C78.2354 52.1976 78.2363 52.1807 78.2372 52.1638C78.3438 50.5779 79.8276 49.3826 81.5477 49.4909C81.6702 49.4989 81.7626 49.6046 81.7546 49.7272C81.7466 49.8497 81.6427 49.9438 81.5184 49.9341C80.0416 49.8293 78.77 50.8514 78.6803 52.194C78.6688 52.3565 78.6759 52.5208 78.6999 52.6824C78.715 52.7801 78.6635 52.8751 78.5747 52.9169C78.485 52.9577 78.3793 52.9364 78.3145 52.8627C78.0339 52.5457 77.6192 52.3468 77.1778 52.3183C76.3413 52.2606 75.6079 52.8085 75.504 53.5598C75.4951 53.6228 75.4596 53.6788 75.4063 53.7143C75.353 53.7498 75.2873 53.7596 75.226 53.7436C75.0582 53.6983 74.8895 53.6699 74.7243 53.6583C73.4598 53.5731 72.3489 54.4504 72.2707 55.6102C72.2636 55.7274 72.166 55.8171 72.0496 55.8171Z" fill="#472B29"/>
<path d="M96.1919 51.1888C94.6894 50.4802 92.9515 50.9819 92.3104 52.3095C92.2305 52.4746 92.1719 52.6443 92.1328 52.8165" fill="#FDFCEF"/>
<path d="M92.1336 53.0385C92.1176 53.0385 92.1008 53.0367 92.0848 53.0332C91.9649 53.0065 91.8903 52.8875 91.9178 52.7677C91.9604 52.5776 92.0262 52.3903 92.1123 52.2127C92.8049 50.7785 94.6795 50.2306 96.2877 50.989C96.3987 51.0414 96.4466 51.1737 96.3942 51.2847C96.3418 51.3966 96.2086 51.4428 96.0985 51.3913C94.7097 50.7368 93.0998 51.1915 92.5119 52.4071C92.4409 52.5545 92.3867 52.7091 92.3503 52.8671C92.3263 52.9683 92.2348 53.0385 92.1336 53.0385Z" fill="#472B29"/>
<path d="M32.3581 58.0575H23.487C23.2419 58.0575 23.043 57.8586 23.043 57.6135C23.043 57.3684 23.2419 57.1695 23.487 57.1695H32.3581C32.6032 57.1695 32.8021 57.3684 32.8021 57.6135C32.8021 57.8586 32.6032 58.0575 32.3581 58.0575ZM34.9058 58.0575H33.627C33.382 58.0575 33.183 57.8586 33.183 57.6135C33.183 57.3684 33.382 57.1695 33.627 57.1695H34.9058C35.1509 57.1695 35.3498 57.3684 35.3498 57.6135C35.3498 57.8586 35.1509 58.0575 34.9058 58.0575ZM38.4915 58.0575H36.2395C35.9945 58.0575 35.7955 57.8586 35.7955 57.6135C35.7955 57.3684 35.9945 57.1695 36.2395 57.1695H38.4915C38.7366 57.1695 38.9355 57.3684 38.9355 57.6135C38.9355 57.8586 38.7366 58.0575 38.4915 58.0575ZM38.4915 59.7065H29.9871C29.742 59.7065 29.5431 59.5076 29.5431 59.2625C29.5431 59.0174 29.742 58.8185 29.9871 58.8185H38.4915C38.7366 58.8185 38.9355 59.0174 38.9355 59.2625C38.9355 59.5076 38.7366 59.7065 38.4915 59.7065ZM28.4553 59.7065H27.9421C27.697 59.7065 27.4981 59.5076 27.4981 59.2625C27.4981 59.0174 27.697 58.8185 27.9421 58.8185H28.4553C28.7004 58.8185 28.8993 59.0174 28.8993 59.2625C28.8993 59.5076 28.7004 59.7065 28.4553 59.7065ZM26.3534 59.7065H25.0649C24.8199 59.7065 24.6209 59.5076 24.6209 59.2625C24.6209 59.0174 24.8199 58.8185 25.0649 58.8185H26.3534C26.5985 58.8185 26.7974 59.0174 26.7974 59.2625C26.7974 59.5076 26.5994 59.7065 26.3534 59.7065ZM34.4334 56.4085H29.9871C29.742 56.4085 29.5431 56.2096 29.5431 55.9645C29.5431 55.7194 29.742 55.5205 29.9871 55.5205H34.4334C34.6784 55.5205 34.8774 55.7194 34.8774 55.9645C34.8774 56.2096 34.6784 56.4085 34.4334 56.4085ZM34.4334 54.7586H33.3216C33.0765 54.7586 32.8776 54.5597 32.8776 54.3146C32.8776 54.0695 33.0765 53.8706 33.3216 53.8706H34.4334C34.6784 53.8706 34.8774 54.0695 34.8774 54.3146C34.8774 54.5597 34.6784 54.7586 34.4334 54.7586ZM31.542 61.3564H29.9871C29.742 61.3564 29.5431 61.1575 29.5431 60.9124C29.5431 60.6673 29.742 60.4684 29.9871 60.4684H31.542C31.7871 60.4684 31.986 60.6673 31.986 60.9124C31.986 61.1575 31.788 61.3564 31.542 61.3564Z" fill="white"/>
<path d="M79.3858 34.8194H70.5155C70.2704 34.8194 70.0715 34.6205 70.0715 34.3754C70.0715 34.1303 70.2704 33.9314 70.5155 33.9314H79.3858C79.6308 33.9314 79.8298 34.1303 79.8298 34.3754C79.8298 34.6205 79.6308 34.8194 79.3858 34.8194ZM81.9343 34.8194H80.6556C80.4105 34.8194 80.2116 34.6205 80.2116 34.3754C80.2116 34.1303 80.4105 33.9314 80.6556 33.9314H81.9343C82.1794 33.9314 82.3783 34.1303 82.3783 34.3754C82.3783 34.6205 82.1794 34.8194 81.9343 34.8194ZM85.5192 34.8194H83.2681C83.023 34.8194 82.8241 34.6205 82.8241 34.3754C82.8241 34.1303 83.023 33.9314 83.2681 33.9314H85.5192C85.7643 33.9314 85.9632 34.1303 85.9632 34.3754C85.9632 34.6205 85.7652 34.8194 85.5192 34.8194ZM83.7281 31.5214H75.2237C74.9786 31.5214 74.7797 31.3225 74.7797 31.0774C74.7797 30.8323 74.9786 30.6334 75.2237 30.6334H83.7281C83.9732 30.6334 84.1721 30.8323 84.1721 31.0774C84.1721 31.3225 83.9732 31.5214 83.7281 31.5214ZM73.6919 31.5214H73.1786C72.9335 31.5214 72.7346 31.3225 72.7346 31.0774C72.7346 30.8323 72.9335 30.6334 73.1786 30.6334H73.6919C73.937 30.6334 74.1359 30.8323 74.1359 31.0774C74.1359 31.3225 73.9379 31.5214 73.6919 31.5214ZM71.5909 31.5214H70.3024C70.0573 31.5214 69.8584 31.3225 69.8584 31.0774C69.8584 30.8323 70.0573 30.6334 70.3024 30.6334H71.5909C71.836 30.6334 72.0349 30.8323 72.0349 31.0774C72.0349 31.3225 71.836 31.5214 71.5909 31.5214ZM81.461 33.1704H77.0148C76.7697 33.1704 76.5708 32.9715 76.5708 32.7264C76.5708 32.4813 76.7697 32.2824 77.0148 32.2824H81.461C81.7061 32.2824 81.905 32.4813 81.905 32.7264C81.905 32.9715 81.707 33.1704 81.461 33.1704Z" fill="white"/>
<path d="M81.4603 31.5214H80.3486C80.1035 31.5214 79.9046 31.3225 79.9046 31.0774C79.9046 30.8323 80.1035 30.6334 80.3486 30.6334H81.4603C81.7054 30.6334 81.9043 30.8323 81.9043 31.0774C81.9043 31.3225 81.7063 31.5214 81.4603 31.5214ZM75.7274 33.1704H74.1725C73.9274 33.1704 73.7285 32.9715 73.7285 32.7264C73.7285 32.4813 73.9274 32.2824 74.1725 32.2824H75.7274C75.9725 32.2824 76.1714 32.4813 76.1714 32.7264C76.1714 32.9715 75.9734 33.1704 75.7274 33.1704Z" fill="white"/>
<path d="M75.1764 80.1057H48.9493C45.6051 80.1057 42.8691 77.3697 42.8691 74.0255V47.7984C42.8691 44.4542 45.6051 41.7183 48.9493 41.7183H75.1764C78.5206 41.7183 81.2565 44.4542 81.2565 47.7984V74.0255C81.2565 77.3697 78.5206 80.1057 75.1764 80.1057Z" fill="#EF437B"/>
<path d="M75.1769 80.7281H48.9498C45.2539 80.7281 42.248 77.7214 42.248 74.0264V47.7984C42.248 44.1026 45.2548 41.0967 48.9498 41.0967H75.1769C78.8727 41.0967 81.8786 44.1034 81.8786 47.7984V74.0255C81.8786 77.7214 78.8719 80.7281 75.1769 80.7281ZM48.9498 42.3399C45.9395 42.3399 43.4912 44.7881 43.4912 47.7984V74.0255C43.4912 77.0358 45.9395 79.4841 48.9498 79.4841H75.1769C78.1872 79.4841 80.6354 77.0358 80.6354 74.0255V47.7984C80.6354 44.7881 78.1872 42.3399 75.1769 42.3399H48.9498Z" fill="#472B29"/>
<path d="M73.5878 77.3644H50.5388C47.8287 77.3644 45.6113 75.1471 45.6113 72.4369V49.3879C45.6113 46.6778 47.8287 44.4604 50.5388 44.4604H73.5878C76.298 44.4604 78.5153 46.6778 78.5153 49.3879V72.4369C78.5153 75.1471 76.298 77.3644 73.5878 77.3644Z" fill="#FDFCEE"/>
<path d="M73.5142 77.6752H50.6109C47.6823 77.6752 45.2998 75.2927 45.2998 72.3641V49.4608C45.2998 46.5321 47.6823 44.1496 50.6109 44.1496H72.4211C72.5925 44.1496 72.7319 44.289 72.7319 44.4604C72.7319 44.6318 72.5925 44.7712 72.4211 44.7712H50.6109C48.0251 44.7712 45.9214 46.8749 45.9214 49.4608V72.3641C45.9214 74.9499 48.0251 77.0536 50.6109 77.0536H73.5142C76.1001 77.0536 78.2038 74.9499 78.2038 72.3641V59.6932C78.2038 59.5218 78.3432 59.3824 78.5146 59.3824C78.686 59.3824 78.8254 59.5218 78.8254 59.6932V72.3641C78.8254 75.2927 76.4429 77.6752 73.5142 77.6752ZM78.5146 58.1765C78.3432 58.1765 78.2038 58.0371 78.2038 57.8657V55.4281C78.2038 55.2567 78.3432 55.1173 78.5146 55.1173C78.686 55.1173 78.8254 55.2567 78.8254 55.4281V57.8657C78.8254 58.0371 78.686 58.1765 78.5146 58.1765Z" fill="#472B29"/>
<path d="M78.513 54.5197C78.3416 54.5197 78.2021 54.3803 78.2021 54.2089V52.9906C78.2021 52.8192 78.3416 52.6797 78.513 52.6797C78.6843 52.6797 78.8238 52.8192 78.8238 52.9906V54.2089C78.8238 54.3812 78.6843 54.5197 78.513 54.5197Z" fill="#472B29"/>
<path d="M58.8926 68.2935V70.3563C58.8926 70.9237 61.5806 71.3828 64.8963 71.3828C68.2121 71.3828 70.9001 70.9228 70.9001 70.3563V68.2935H58.8926Z" fill="#F1BC19"/>
<path d="M64.8971 71.6492C64.2551 71.6492 58.627 71.6128 58.627 70.3563V68.2935C58.627 68.1461 58.7459 68.0271 58.8934 68.0271H70.9009C71.0483 68.0271 71.1673 68.1461 71.1673 68.2935V70.3563C71.1673 71.6128 65.5392 71.6492 64.8971 71.6492ZM59.1598 68.5599V70.3563C59.3072 70.5925 61.2048 71.1164 64.8971 71.1164C68.5894 71.1164 70.4871 70.5925 70.6407 70.3243L70.6354 68.559H59.1598V68.5599Z" fill="#472B29"/>
<path d="M64.8964 67.2714C64.1079 67.2714 63.3272 67.2979 62.5988 67.3495C61.8704 67.4011 61.2085 67.4767 60.651 67.572C60.0935 67.6674 59.6513 67.7805 59.3496 67.9051C59.0479 68.0296 58.8926 68.1631 58.8926 68.2979C58.8926 68.4327 59.0479 68.5662 59.3496 68.6907C59.6513 68.8153 60.0935 68.9285 60.651 69.0238C61.2085 69.1191 61.8704 69.1947 62.5988 69.2463C63.3272 69.2979 64.1079 69.3244 64.8964 69.3244C65.6848 69.3244 66.4655 69.2979 67.1939 69.2463C67.9223 69.1947 68.5842 69.1191 69.1417 69.0238C69.6992 68.9285 70.1414 68.8153 70.4431 68.6907C70.7448 68.5662 70.9001 68.4327 70.9001 68.2979C70.9001 68.1631 70.7448 68.0296 70.4431 67.9051C70.1414 67.7805 69.6992 67.6674 69.1417 67.572C68.5842 67.4767 67.9223 67.4011 67.1939 67.3495C66.4655 67.2979 65.6848 67.2714 64.8964 67.2714Z" fill="#FFD683"/>
<path d="M64.8971 69.5908C64.2551 69.5908 58.627 69.5544 58.627 68.2979C58.627 67.0414 64.2551 67.005 64.8971 67.005C65.5392 67.005 71.1673 67.0414 71.1673 68.2979C71.1673 69.5544 65.5392 69.5908 64.8971 69.5908ZM64.8971 67.5378C61.2048 67.5378 59.3063 68.0617 59.1535 68.3299C59.3072 68.535 61.2057 69.0589 64.8971 69.0589C68.45 69.0589 70.3423 68.5732 70.6158 68.2988C70.3423 68.0235 68.4509 67.5378 64.8971 67.5378Z" fill="#472B29"/>
<path d="M58.8926 64.8835V66.9464C58.8926 67.5138 61.5806 67.9729 64.8963 67.9729C68.2121 67.9729 70.9001 67.5129 70.9001 66.9464V64.8835H58.8926Z" fill="#F1BC19"/>
<path d="M64.8971 68.2393C64.2551 68.2393 58.627 68.2029 58.627 66.9464V64.8835C58.627 64.7361 58.7459 64.6171 58.8934 64.6171H70.9009C71.0483 64.6171 71.1673 64.7361 71.1673 64.8835V66.9464C71.1673 68.2038 65.5392 68.2393 64.8971 68.2393ZM59.1598 65.1499V66.9464C59.3072 67.1826 61.2048 67.7065 64.8971 67.7065C68.5894 67.7065 70.4871 67.1826 70.6407 66.9144L70.6354 65.149H59.1598V65.1499Z" fill="#472B29"/>
<path d="M64.8963 63.8623C63.304 63.8623 61.777 63.9705 60.651 64.163C59.5251 64.3555 58.8926 64.6166 58.8926 64.8889C58.8926 65.1611 59.5251 65.4222 60.651 65.6147C61.777 65.8073 63.304 65.9154 64.8963 65.9154C66.4886 65.9154 68.0157 65.8073 69.1417 65.6147C70.2676 65.4222 70.9001 65.1611 70.9001 64.8889C70.9001 64.6166 70.2676 64.3555 69.1417 64.163C68.0157 63.9705 66.4886 63.8623 64.8963 63.8623Z" fill="#FFD683"/>
<path d="M64.8971 66.1818C64.2551 66.1818 58.627 66.1454 58.627 64.8889C58.627 63.6324 64.2551 63.596 64.8971 63.596C65.5392 63.596 71.1673 63.6324 71.1673 64.8889C71.1673 66.1454 65.5392 66.1818 64.8971 66.1818ZM64.8971 64.1279C61.2048 64.1279 59.3063 64.6518 59.1535 64.92C59.3063 65.1251 61.2048 65.649 64.8971 65.649C68.4509 65.649 70.3432 65.1633 70.6167 64.8889C70.3432 64.6136 68.4518 64.1279 64.8971 64.1279Z" fill="#472B29"/>
<path d="M58.8926 61.4745V63.5373C58.8926 64.1048 61.5806 64.5639 64.8963 64.5639C68.2121 64.5639 70.9001 64.1039 70.9001 63.5373V61.4745H58.8926Z" fill="#F1BC19"/>
<path d="M64.8971 64.8303C64.2551 64.8303 58.627 64.7939 58.627 63.5373V61.4745C58.627 61.3271 58.7459 61.2081 58.8934 61.2081H70.9009C71.0483 61.2081 71.1673 61.3271 71.1673 61.4745V63.5373C71.1673 64.7939 65.5392 64.8303 64.8971 64.8303ZM59.1598 61.7409V63.5373C59.3072 63.7735 61.2048 64.2975 64.8971 64.2975C68.5894 64.2975 70.4871 63.7735 70.6407 63.5054L70.6354 61.74L59.1598 61.7409Z" fill="#472B29"/>
<path d="M64.8954 60.4524C63.3031 60.4524 61.776 60.5606 60.6501 60.7531C59.5241 60.9456 58.8916 61.2067 58.8916 61.4789C58.8916 61.7512 59.5241 62.0123 60.6501 62.2048C61.776 62.3973 63.3031 62.5055 64.8954 62.5055C66.4877 62.5055 68.0148 62.3973 69.1407 62.2048C70.2666 62.0123 70.8991 61.7512 70.8991 61.4789C70.8991 61.2067 70.2666 60.9456 69.1407 60.7531C68.0148 60.5606 66.4877 60.4524 64.8954 60.4524Z" fill="#FFD683"/>
<path d="M64.8961 62.7719C64.2541 62.7719 58.626 62.7355 58.626 61.4789C58.626 60.2224 64.2541 60.186 64.8961 60.186C65.5382 60.186 71.1663 60.2224 71.1663 61.4789C71.1663 62.7355 65.5382 62.7719 64.8961 62.7719ZM64.8961 60.7188C61.2038 60.7188 59.3053 61.2427 59.1526 61.5109C59.3053 61.716 61.2038 62.24 64.8961 62.24C68.4499 62.24 70.3423 61.7542 70.6158 61.4798C70.3423 61.2046 68.4508 60.7188 64.8961 60.7188Z" fill="#472B29"/>
<path d="M58.8916 58.0655V60.1283C58.8916 60.6957 61.5796 61.1548 64.8954 61.1548C68.2112 61.1548 70.8991 60.6948 70.8991 60.1283V58.0655H58.8916Z" fill="#F1BC19"/>
<path d="M64.8961 61.4203C64.2541 61.4203 58.626 61.3839 58.626 60.1274V58.0655C58.626 57.9181 58.745 57.7991 58.8924 57.7991H70.8999C71.0473 57.7991 71.1663 57.9181 71.1663 58.0655V60.1274C71.1663 61.3848 65.5382 61.4203 64.8961 61.4203ZM59.1588 58.3319V60.1274C59.3062 60.3636 61.2038 60.8875 64.8961 60.8875C68.5885 60.8875 70.4861 60.3636 70.6397 60.0955L70.6344 58.331L59.1588 58.3319Z" fill="#472B29"/>
<path d="M64.8944 57.0434C64.106 57.0434 63.3253 57.0699 62.5969 57.1215C61.8684 57.1731 61.2066 57.2487 60.6491 57.344C60.0916 57.4394 59.6494 57.5525 59.3476 57.6771C59.0459 57.8016 58.8906 57.9351 58.8906 58.0699C58.8906 58.2047 59.0459 58.3382 59.3476 58.4627C59.6494 58.5873 60.0916 58.7005 60.6491 58.7958C61.2066 58.8911 61.8684 58.9667 62.5969 59.0183C63.3253 59.0699 64.106 59.0964 64.8944 59.0964C65.6828 59.0964 66.4635 59.0699 67.1919 59.0183C67.9204 58.9667 68.5822 58.8911 69.1397 58.7958C69.6972 58.7005 70.1394 58.5873 70.4412 58.4627C70.7429 58.3382 70.8982 58.2047 70.8982 58.0699C70.8982 57.9351 70.7429 57.8016 70.4412 57.6771C70.1394 57.5525 69.6972 57.4394 69.1397 57.344C68.5822 57.2487 67.9204 57.1731 67.1919 57.1215C66.4635 57.0699 65.6828 57.0434 64.8944 57.0434Z" fill="#FFD683"/>
<path d="M64.8952 59.3629C64.2531 59.3629 58.625 59.3264 58.625 58.0699C58.625 56.8134 64.2531 56.777 64.8952 56.777C65.5372 56.777 71.1653 56.8134 71.1653 58.0699C71.1653 59.3264 65.5372 59.3629 64.8952 59.3629ZM64.8952 57.3098C61.2029 57.3098 59.3043 57.8337 59.1516 58.1019C59.3043 58.307 61.2029 58.8309 64.8952 58.8309C68.449 58.8309 70.3413 58.3452 70.6148 58.0708C70.3413 57.7946 68.4498 57.3098 64.8952 57.3098Z" fill="#472B29"/>
<path d="M53.2227 69.6255V71.6883C53.2227 72.2557 55.9106 72.7148 59.2264 72.7148C62.5422 72.7148 65.2302 72.2548 65.2302 71.6883V69.6255H53.2227Z" fill="#F1BC19"/>
<path d="M59.2272 72.9812C58.5852 72.9812 52.957 72.9448 52.957 71.6883V69.6255C52.957 69.4781 53.076 69.3591 53.2234 69.3591H65.2319C65.3793 69.3591 65.4983 69.4781 65.4983 69.6255V71.6883C65.4974 72.9448 59.8692 72.9812 59.2272 72.9812ZM53.4898 69.8919V71.6883C53.6372 71.9245 55.5358 72.4484 59.2272 72.4484C62.9186 72.4484 64.8172 71.9245 64.9708 71.6563L64.9655 69.891H53.4898V69.8919Z" fill="#472B29"/>
<path d="M59.2255 68.6034C58.437 68.6034 57.6563 68.6299 56.9279 68.6815C56.1995 68.7331 55.5376 68.8087 54.9801 68.9041C54.4226 68.9994 53.9804 69.1125 53.6787 69.2371C53.377 69.3616 53.2217 69.4951 53.2217 69.6299C53.2217 69.7647 53.377 69.8982 53.6787 70.0228C53.9804 70.1473 54.4226 70.2605 54.9801 70.3558C55.5376 70.4511 56.1995 70.5267 56.9279 70.5783C57.6563 70.6299 58.437 70.6565 59.2255 70.6565C60.0139 70.6565 60.7946 70.6299 61.523 70.5783C62.2514 70.5267 62.9133 70.4511 63.4708 70.3558C64.0283 70.2605 64.4705 70.1473 64.7722 70.0228C65.0739 69.8982 65.2292 69.7647 65.2292 69.6299C65.2292 69.4951 65.0739 69.3616 64.7722 69.2371C64.4705 69.1125 64.0283 68.9994 63.4708 68.9041C62.9133 68.8087 62.2514 68.7331 61.523 68.6815C60.7946 68.6299 60.0139 68.6034 59.2255 68.6034Z" fill="#FFD683"/>
<path d="M59.2262 70.9228C58.5842 70.9228 52.9561 70.8864 52.9561 69.6299C52.9561 68.3734 58.5842 68.337 59.2262 68.337C59.8683 68.337 65.4964 68.3734 65.4964 69.6299C65.4964 70.8873 59.8683 70.9228 59.2262 70.9228ZM59.2262 68.8698C55.5339 68.8698 53.6363 69.3937 53.4826 69.661C53.6363 69.8661 55.5339 70.39 59.2262 70.39C62.78 70.39 64.6714 69.9043 64.9449 69.6299C64.6723 69.3555 62.78 68.8698 59.2262 68.8698Z" fill="#472B29"/>
<path d="M53.2227 66.2155V68.2784C53.2227 68.8458 55.9106 69.3049 59.2264 69.3049C62.5422 69.3049 65.2302 68.8449 65.2302 68.2784V66.2155H53.2227Z" fill="#F1BC19"/>
<path d="M59.2272 69.5713C58.5852 69.5713 52.957 69.5349 52.957 68.2784V66.2155C52.957 66.0681 53.076 65.9491 53.2234 65.9491H65.2319C65.3793 65.9491 65.4983 66.0681 65.4983 66.2155V68.2784C65.4974 69.5349 59.8692 69.5713 59.2272 69.5713ZM53.4898 66.4819V68.2784C53.6372 68.5146 55.5349 69.0385 59.2272 69.0385C62.9195 69.0385 64.8172 68.5146 64.9708 68.2464L64.9655 66.4811H53.4898V66.4819Z" fill="#472B29"/>
<path d="M59.2255 65.1935C57.6332 65.1935 56.1061 65.3016 54.9801 65.4941C53.8542 65.6866 53.2217 65.9477 53.2217 66.22C53.2217 66.4923 53.8542 66.7534 54.9801 66.9459C56.1061 67.1384 57.6332 67.2465 59.2255 67.2465C60.8178 67.2465 62.3448 67.1384 63.4708 66.9459C64.5967 66.7534 65.2292 66.4923 65.2292 66.22C65.2292 65.9477 64.5967 65.6866 63.4708 65.4941C62.3448 65.3016 60.8178 65.1935 59.2255 65.1935Z" fill="#FFD683"/>
<path d="M59.2262 67.5129C58.5842 67.5129 52.9561 67.4765 52.9561 66.22C52.9561 64.9635 58.5842 64.9271 59.2262 64.9271C59.8683 64.9271 65.4964 64.9635 65.4964 66.22C65.4964 67.4765 59.8683 67.5129 59.2262 67.5129ZM59.2262 65.4599C55.5339 65.4599 53.6363 65.9838 53.4826 66.2511C53.6363 66.4562 55.5339 66.9801 59.2262 66.9801C62.78 66.9801 64.6714 66.4944 64.9449 66.22C64.6723 65.9456 62.78 65.4599 59.2262 65.4599Z" fill="#472B29"/>
<path d="M53.2227 62.9646V65.0274C53.2227 65.5948 55.9106 66.0539 59.2264 66.0539C62.5422 66.0539 65.2302 65.5939 65.2302 65.0274V62.9646H53.2227Z" fill="#F1BC19"/>
<path d="M59.2272 66.3203C58.5852 66.3203 52.957 66.2839 52.957 65.0274V62.9646C52.957 62.8172 53.076 62.6982 53.2234 62.6982H65.2319C65.3793 62.6982 65.4983 62.8172 65.4983 62.9646V65.0274C65.4974 66.2839 59.8692 66.3203 59.2272 66.3203ZM53.4898 63.231V65.0274C53.6372 65.2636 55.5349 65.7875 59.2272 65.7875C62.9195 65.7875 64.8172 65.2636 64.9708 64.9954L64.9655 63.2301L53.4898 63.231Z" fill="#472B29"/>
<path d="M59.2255 61.9425C58.437 61.9425 57.6563 61.9691 56.9279 62.0206C56.1995 62.0722 55.5376 62.1478 54.9801 62.2432C54.4226 62.3385 53.9804 62.4517 53.6787 62.5762C53.377 62.7007 53.2217 62.8342 53.2217 62.969C53.2217 63.1038 53.377 63.2373 53.6787 63.3619C53.9804 63.4864 54.4226 63.5996 54.9801 63.6949C55.5376 63.7902 56.1995 63.8658 56.9279 63.9174C57.6563 63.969 58.437 63.9956 59.2255 63.9956C60.0139 63.9956 60.7946 63.969 61.523 63.9174C62.2514 63.8658 62.9133 63.7902 63.4708 63.6949C64.0283 63.5996 64.4705 63.4864 64.7722 63.3619C65.0739 63.2373 65.2292 63.1038 65.2292 62.969C65.2292 62.8342 65.0739 62.7007 64.7722 62.5762C64.4705 62.4517 64.0283 62.3385 63.4708 62.2432C62.9133 62.1478 62.2514 62.0722 61.523 62.0206C60.7946 61.9691 60.0139 61.9425 59.2255 61.9425Z" fill="#FFD683"/>
<path d="M59.2262 64.2619C58.5842 64.2619 52.9561 64.2255 52.9561 62.969C52.9561 61.7125 58.5842 61.6761 59.2262 61.6761C59.8683 61.6761 65.4964 61.7125 65.4964 62.969C65.4964 64.2255 59.8683 64.2619 59.2262 64.2619ZM59.2262 62.2089C55.5339 62.2089 53.6363 62.7328 53.4826 63.001C53.6363 63.2061 55.5339 63.73 59.2262 63.73C62.78 63.73 64.6723 63.2443 64.9458 62.9699C64.6723 62.6946 62.7809 62.2089 59.2262 62.2089Z" fill="#472B29"/>
<path d="M58.8916 54.6564V56.7193C58.8916 57.2867 61.5796 57.7458 64.8954 57.7458C68.2112 57.7458 70.8991 57.2858 70.8991 56.7193V54.6564H58.8916Z" fill="#F1BC19"/>
<path d="M64.8961 58.0113C64.2541 58.0113 58.626 57.9749 58.626 56.7184V54.6556C58.626 54.5082 58.745 54.3892 58.8924 54.3892H70.8999C71.0473 54.3892 71.1663 54.5082 71.1663 54.6556V56.7184C71.1663 57.9758 65.5382 58.0113 64.8961 58.0113ZM59.1588 54.9229V56.7193C59.3062 56.9555 61.2047 57.4794 64.8961 57.4794C68.5876 57.4794 70.4861 56.9555 70.6397 56.6882L70.6344 54.9229H59.1588Z" fill="#472B29"/>
<path d="M64.8944 53.6344C63.3021 53.6344 61.775 53.7425 60.6491 53.935C59.5232 54.1275 58.8906 54.3886 58.8906 54.6609C58.8906 54.9331 59.5232 55.1942 60.6491 55.3867C61.775 55.5793 63.3021 55.6874 64.8944 55.6874C66.4867 55.6874 68.0138 55.5793 69.1397 55.3867C70.2656 55.1942 70.8982 54.9331 70.8982 54.6609C70.8982 54.3886 70.2656 54.1275 69.1397 53.935C68.0138 53.7425 66.4867 53.6344 64.8944 53.6344Z" fill="#FFD683"/>
<path d="M64.8952 55.9538C64.2531 55.9538 58.625 55.9174 58.625 54.6609C58.625 53.4044 64.2531 53.368 64.8952 53.368C65.5372 53.368 71.1653 53.4044 71.1653 54.6609C71.1653 55.9174 65.5372 55.9538 64.8952 55.9538ZM64.8952 53.8999C61.2029 53.8999 59.3052 54.4238 59.1516 54.692C59.3043 54.8971 61.2029 55.421 64.8952 55.421C68.449 55.421 70.3404 54.9353 70.6139 54.6609C70.3404 54.3856 68.449 53.8999 64.8952 53.8999Z" fill="#472B29"/>
<path d="M58.8916 51.2465V53.3093C58.8916 53.8768 61.5796 54.3359 64.8954 54.3359C68.2112 54.3359 70.8991 53.8759 70.8991 53.3093V51.2465H58.8916Z" fill="#F1BC19"/>
<path d="M64.8961 54.6023C64.2541 54.6023 58.626 54.5659 58.626 53.3093V51.2465C58.626 51.0991 58.745 50.9801 58.8924 50.9801H70.8999C71.0473 50.9801 71.1663 51.0991 71.1663 51.2465V53.3093C71.1663 54.5668 65.5382 54.6023 64.8961 54.6023ZM59.1588 51.5129V53.3093C59.3062 53.5456 61.2047 54.0695 64.8961 54.0695C68.5876 54.0695 70.4861 53.5456 70.6397 53.2774L70.6344 51.512L59.1588 51.5129Z" fill="#472B29"/>
<path d="M64.8944 50.2253C63.3021 50.2253 61.775 50.3335 60.6491 50.526C59.5232 50.7185 58.8906 50.9796 58.8906 51.2519C58.8906 51.5241 59.5232 51.7852 60.6491 51.9777C61.775 52.1702 63.3021 52.2784 64.8944 52.2784C66.4867 52.2784 68.0138 52.1702 69.1397 51.9777C70.2656 51.7852 70.8982 51.5241 70.8982 51.2519C70.8982 50.9796 70.2656 50.7185 69.1397 50.526C68.0138 50.3335 66.4867 50.2253 64.8944 50.2253Z" fill="#FFD683"/>
<path d="M64.8952 52.5439C64.2531 52.5439 58.625 52.5075 58.625 51.251C58.625 49.9944 64.2531 49.958 64.8952 49.958C65.5372 49.958 71.1653 49.9944 71.1653 51.251C71.1653 52.5084 65.5372 52.5439 64.8952 52.5439ZM64.8952 50.4908C61.2029 50.4908 59.3052 51.0148 59.1516 51.282C59.3043 51.4872 61.2029 52.0111 64.8952 52.0111C68.449 52.0111 70.3404 51.5254 70.6139 51.251C70.3404 50.9766 68.449 50.4908 64.8952 50.4908Z" fill="#472B29"/>
<path d="M52.0568 82.553C53.7226 82.553 55.1665 82.553 55.1879 82.553C57.0535 82.553 58.5667 81.0727 58.5667 79.2461C58.5667 77.653 57.415 76.3228 55.8823 76.0093C55.9 75.8699 55.9116 75.7287 55.9116 75.5849C55.9116 73.6934 54.3451 72.1598 52.412 72.1598C51.2709 72.1598 50.2603 72.6971 49.6219 73.5238C49.4585 71.4184 47.5368 69.7942 45.2884 70.0633C43.6447 70.2604 42.2843 71.5036 41.9824 73.0976C41.8856 73.6091 41.8954 74.1046 41.9922 74.5708C41.5517 74.1063 40.9239 73.8133 40.225 73.8133C38.9463 73.8133 37.902 74.7874 37.8194 76.0191C37.2387 75.893 36.6073 75.9019 35.9413 76.1461C34.6697 76.6132 33.7639 77.7853 33.7107 79.1138C33.6352 81.0008 35.1759 82.553 37.0868 82.553C37.2316 82.553 37.7422 82.553 37.8594 82.553H44.8755M46.3283 82.553H46.6462H46.3283Z" fill="#FDFCEF"/>
<path d="M55.1881 82.997H52.057C51.8119 82.997 51.613 82.7981 51.613 82.553C51.613 82.3079 51.8119 82.109 52.057 82.109H55.1881C56.806 82.109 58.1229 80.825 58.1229 79.2461C58.1229 77.899 57.1434 76.7206 55.7937 76.4444C55.5663 76.3983 55.4127 76.1843 55.442 75.9534C55.458 75.8317 55.4678 75.7101 55.4678 75.584C55.4678 73.9403 54.0976 72.603 52.4131 72.603C51.4478 72.603 50.5589 73.0372 49.9737 73.7947C49.8618 73.9403 49.6709 74.0016 49.4951 73.9483C49.3193 73.8959 49.1941 73.7405 49.1798 73.5576C49.1097 72.6571 48.6808 71.8402 47.9704 71.2567C47.2378 70.6565 46.3045 70.3874 45.3428 70.5028C43.8874 70.6769 42.6859 71.778 42.4195 73.1793C42.3369 73.6162 42.3396 74.0539 42.4284 74.4793C42.4683 74.6738 42.3751 74.8709 42.1993 74.9624C42.0243 75.0547 41.8086 75.0192 41.6709 74.8745C41.2926 74.4757 40.7794 74.2555 40.2261 74.2555C39.1925 74.2555 38.3311 75.0423 38.2645 76.0475C38.2557 76.1763 38.1917 76.2953 38.0887 76.3725C37.9857 76.4498 37.8552 76.4782 37.7273 76.4515C37.1643 76.329 36.6306 76.3645 36.0969 76.5608C34.9816 76.9701 34.2019 78.0029 34.1567 79.1298C34.1256 79.9032 34.4071 80.6394 34.9479 81.2024C35.5091 81.7867 36.2692 82.1081 37.0897 82.1081H44.8784C45.1235 82.1081 45.3224 82.307 45.3224 82.5521C45.3224 82.7972 45.1235 82.9961 44.8784 82.9961H37.0897C36.041 82.9961 35.0278 82.5672 34.3076 81.8177C33.5981 81.0789 33.2296 80.1119 33.2695 79.0942C33.329 77.6131 34.3422 76.2606 35.7906 75.7278C36.3305 75.5298 36.889 75.4588 37.4529 75.5112C37.7584 74.2768 38.895 73.3675 40.227 73.3675C40.6621 73.3675 41.0893 73.467 41.4756 73.6526C41.4835 73.4395 41.5075 73.2263 41.5484 73.0132C41.8858 71.2354 43.4034 69.8404 45.238 69.6202C46.4395 69.4736 47.6134 69.8129 48.5352 70.5694C49.1958 71.1111 49.6638 71.8144 49.9018 72.603C50.6015 72.0302 51.4798 71.7141 52.4148 71.7141C54.5887 71.7141 56.3576 73.4501 56.3576 75.5831C56.3576 75.6133 56.3576 75.6426 56.3567 75.6728C57.9169 76.1638 59.0127 77.6086 59.0127 79.2443C59.01 81.3142 57.2953 82.997 55.1881 82.997ZM46.6464 82.997H46.3285C46.0834 82.997 45.8845 82.7981 45.8845 82.553C45.8845 82.3079 46.0834 82.109 46.3285 82.109H46.6464C46.8915 82.109 47.0904 82.3079 47.0904 82.553C47.0904 82.7981 46.8915 82.997 46.6464 82.997Z" fill="#472B29"/>
<path d="M53.6781 77.8644C53.6621 77.8644 53.6462 77.8626 53.6293 77.859C53.5094 77.8324 53.4348 77.7134 53.4614 77.5935C53.4952 77.4452 53.5458 77.3023 53.6115 77.1682C54.1461 76.0857 55.622 75.687 56.9042 76.2784C57.0152 76.3299 57.0641 76.4622 57.0126 76.5732C56.9602 76.6842 56.8296 76.7322 56.7177 76.6815C55.6539 76.1896 54.44 76.4968 54.0102 77.3653C53.9596 77.4674 53.9205 77.5766 53.8957 77.6903C53.8717 77.7942 53.7802 77.8644 53.6781 77.8644Z" fill="#472B29"/>
<path d="M49.1149 82.997H48.1354C47.8903 82.997 47.6914 82.7981 47.6914 82.553C47.6914 82.3079 47.8903 82.109 48.1354 82.109H49.1149C49.36 82.109 49.5589 82.3079 49.5589 82.553C49.5589 82.7981 49.3608 82.997 49.1149 82.997Z" fill="#472B29"/>
</svg>
