<svg width="100" height="94" viewBox="0 0 100 94" fill="none" xmlns="http://www.w3.org/2000/svg">
<path d="M98.1364 34.9577C103.553 53.3372 94.4407 74.3071 79.3555 84.8571C64.2706 95.4829 43.1364 95.6135 26.1762 84.7312C9.13977 73.7735 -3.72311 51.7271 1.38925 33.2067C6.57782 14.7617 29.8174 -0.157886 51.3341 0.31529C72.9266 0.787997 92.7958 16.5777 98.1364 34.9577Z" fill="#E6F6FD"/>
<path d="M77.6561 51.6063C78.4996 50.0046 78.9827 48.1838 78.9827 46.2478C78.9827 41.327 75.8917 37.1383 71.5499 35.4876C71.5499 35.4824 71.5506 35.4772 71.5506 35.4713C71.5506 26.8516 64.563 19.864 55.9434 19.864C48.6719 19.864 42.5798 24.8442 40.8467 31.5747C39.7497 31.2142 38.5806 31.0121 37.3633 31.0121C31.6465 31.0121 26.9413 35.3175 26.297 40.861C22.4293 41.6793 19.5264 45.1099 19.5264 49.2206C19.5264 53.9407 23.3531 57.7674 28.0732 57.7674C28.2048 57.7674 28.3348 57.7585 28.4641 57.7511C28.4612 57.8811 28.4448 58.0082 28.4448 58.139C28.4448 66.5536 35.2659 73.3747 43.6805 73.3747C48.4645 73.3747 52.729 71.1659 55.5227 67.7159C57.1414 69.3696 59.3918 70.4019 61.889 70.4019C65.3449 70.4019 68.3355 68.4324 69.816 65.5577C70.5979 65.8067 71.4295 65.9427 72.2938 65.9427C76.8088 65.9427 80.4691 62.2824 80.4691 57.7674C80.4691 55.3067 79.3766 53.1053 77.6561 51.6063Z" fill="#C7EDE6"/>
<path d="M72.2005 54.423C72.2005 54.423 74.9057 54.423 76.7526 54.423C78.5995 54.423 80.097 52.9254 80.097 51.0786C80.097 49.3447 78.7726 47.9356 77.0833 47.7676C77.0997 47.6331 77.1242 47.5015 77.1242 47.3625C77.1242 45.5157 75.6266 44.0181 73.7798 44.0181C72.7111 44.0181 71.7709 44.528 71.1585 45.3083C71.0545 43.3492 69.4477 41.7885 67.4626 41.7885C65.4106 41.7885 63.7465 43.4525 63.7465 45.5045C63.7465 45.836 63.8038 46.1511 63.8855 46.4573C63.4084 45.8799 62.6956 45.5045 61.8885 45.5045C60.5649 45.5045 59.485 46.4967 59.3208 47.775C59.1862 47.7587 59.0547 47.7341 58.9157 47.7341C57.0688 47.7341 55.5713 49.2317 55.5713 51.0786C55.5713 52.9254 57.0688 54.423 58.9157 54.423C60.7626 54.423 65.9761 54.423 65.9761 54.423H69.9709V54.7946H72.2005V54.423Z" fill="#FDFCEF"/>
<path d="M67.4621 41.417C65.2079 41.417 63.3745 43.2505 63.3745 45.5046C63.3745 45.5165 63.3745 45.5277 63.3745 45.5395C62.9271 45.2757 62.4157 45.133 61.8881 45.133C60.5272 45.133 59.353 46.0702 59.0208 47.3663C58.9858 47.3641 58.9509 47.3626 58.9152 47.3626C56.8662 47.3626 55.1992 49.0296 55.1992 51.0786C55.1992 53.1277 56.8662 54.7947 58.9152 54.7947H69.9704C70.1755 54.7947 70.342 54.6282 70.342 54.4231C70.342 54.2179 70.1755 54.0515 69.9704 54.0515H58.9152C57.2757 54.0515 55.9424 52.7182 55.9424 51.0786C55.9424 49.4391 57.2757 48.1058 58.9152 48.1058C59.0022 48.1058 59.0862 48.1185 59.1702 48.1296L59.275 48.1437C59.2906 48.146 59.3054 48.1467 59.321 48.1467C59.5039 48.1467 59.6644 48.0092 59.6889 47.8219C59.8309 46.7123 60.7762 45.8762 61.8881 45.8762C62.5458 45.8762 63.1686 46.1742 63.5982 46.6937C63.671 46.7814 63.7773 46.829 63.885 46.829C63.943 46.829 64.001 46.8156 64.0545 46.7874C64.2098 46.7079 64.2879 46.5302 64.2433 46.3615C64.1578 46.0382 64.1177 45.7662 64.1177 45.5046C64.1177 43.6607 65.6182 42.1602 67.4621 42.1602C69.2317 42.1602 70.6928 43.5515 70.7872 45.3285C70.7954 45.4831 70.8987 45.6161 71.0466 45.6629C71.0837 45.6748 71.1216 45.6808 71.1595 45.6808C71.271 45.6808 71.3795 45.6295 71.4509 45.5381C72.0239 44.8082 72.8719 44.3898 73.7793 44.3898C75.4188 44.3898 76.7521 45.7231 76.7521 47.3626C76.7521 47.4496 76.7395 47.5336 76.7284 47.6175L76.7142 47.7223C76.7023 47.8219 76.7306 47.9215 76.793 47.9995C76.8554 48.0776 76.9469 48.1274 77.0457 48.137C78.5737 48.2894 79.725 49.5543 79.725 51.0786C79.725 52.7182 78.3916 54.0515 76.7521 54.0515H72.2C71.9949 54.0515 71.8284 54.2179 71.8284 54.4231C71.8284 54.6282 71.9949 54.7947 72.2 54.7947H76.7521C78.8011 54.7947 80.4682 53.1277 80.4682 51.0786C80.4682 49.2972 79.2129 47.7989 77.4931 47.454C77.4946 47.4236 77.4953 47.3931 77.4953 47.3626C77.4953 45.3136 75.8283 43.6466 73.7793 43.6466C72.9053 43.6466 72.0752 43.9558 71.4137 44.5117C70.9693 42.725 69.361 41.417 67.4621 41.417Z" fill="#472B29"/>
<path d="M66.3483 46.6194C65.3056 46.6194 64.4093 47.3618 64.1834 48.3592C63.9106 48.1942 63.5992 48.1058 63.2826 48.1058C62.3893 48.1058 61.6491 48.7724 61.5339 49.6427C61.383 49.6086 61.2396 49.5922 61.0998 49.5922C59.9635 49.5922 59.0107 50.484 58.9312 51.6226C58.9237 51.7252 59.001 51.8144 59.1028 51.8218C59.1073 51.8218 59.1118 51.8218 59.1162 51.8218C59.2128 51.8218 59.2946 51.7468 59.3013 51.6494C59.3674 50.7048 60.1567 49.9638 61.0991 49.9638C61.2693 49.9638 61.4484 49.995 61.6476 50.0582C61.6639 50.0634 61.681 50.0656 61.6974 50.0656C61.7382 50.0656 61.7791 50.0508 61.8133 50.0255C61.8609 49.9913 61.8891 49.9304 61.8891 49.8709C61.8891 49.1024 62.5141 48.4774 63.2826 48.4774C63.6148 48.4774 63.9404 48.6023 64.1975 48.8289C64.2324 48.8594 64.2763 48.8758 64.3201 48.8758C64.3439 48.8758 64.367 48.8713 64.3892 48.8616C64.4546 48.8356 64.4992 48.7747 64.5044 48.7041C64.5817 47.7431 65.3911 46.991 66.3483 46.991C66.5029 46.991 66.6642 47.0163 66.8552 47.0705C66.8723 47.0757 66.8901 47.0779 66.9072 47.0779C66.9882 47.0779 67.0611 47.0237 67.0848 46.9427C67.1131 46.8438 67.0559 46.7413 66.957 46.713C66.7326 46.6491 66.5386 46.6194 66.3483 46.6194ZM76.6662 47.7342C75.6807 47.7342 74.8023 48.4008 74.5303 49.3559C74.502 49.4547 74.5593 49.5573 74.6581 49.5855C74.6759 49.59 74.693 49.5922 74.7094 49.5922C74.7904 49.5922 74.8647 49.5387 74.8877 49.4569C75.1144 48.6617 75.8457 48.1058 76.6662 48.1058C76.7532 48.1058 76.8372 48.1162 76.9204 48.1273C76.9293 48.1288 76.9375 48.1296 76.9464 48.1296C77.0364 48.1296 77.1166 48.0612 77.1292 47.9683C77.1434 47.8665 77.072 47.7728 76.9702 47.7595C76.8706 47.7461 76.7695 47.7342 76.6662 47.7342Z" fill="#472B29"/>
<path d="M24.2858 47.3626H16.9243C16.7192 47.3626 16.5527 47.1961 16.5527 46.991C16.5527 46.7859 16.7192 46.6194 16.9243 46.6194H24.2858C24.4909 46.6194 24.6574 46.7859 24.6574 46.991C24.6574 47.1961 24.4916 47.3626 24.2858 47.3626ZM26.586 47.3626H25.8428C25.6377 47.3626 25.4712 47.1961 25.4712 46.991C25.4712 46.7859 25.6377 46.6194 25.8428 46.6194H26.586C26.7911 46.6194 26.9576 46.7859 26.9576 46.991C26.9576 47.1961 26.7919 47.3626 26.586 47.3626ZM30.2953 48.849H23.6132C23.408 48.849 23.2416 48.6825 23.2416 48.4774C23.2416 48.2723 23.408 48.1058 23.6132 48.1058H30.2953C30.5004 48.1058 30.6669 48.2723 30.6669 48.4774C30.6669 48.6825 30.5004 48.849 30.2953 48.849ZM22.1268 48.849H21.3836C21.1784 48.849 21.012 48.6825 21.012 48.4774C21.012 48.2723 21.1784 48.1058 21.3836 48.1058H22.1268C22.3319 48.1058 22.4984 48.2723 22.4984 48.4774C22.4984 48.6825 22.3326 48.849 22.1268 48.849ZM19.8972 48.849H18.4107C18.2056 48.849 18.0391 48.6825 18.0391 48.4774C18.0391 48.2723 18.2056 48.1058 18.4107 48.1058H19.8972C20.1023 48.1058 20.2688 48.2723 20.2688 48.4774C20.2688 48.6825 20.103 48.849 19.8972 48.849ZM24.3564 50.3354H22.87C22.6648 50.3354 22.4984 50.1689 22.4984 49.9638C22.4984 49.7587 22.6648 49.5922 22.87 49.5922H24.3564C24.5615 49.5922 24.728 49.7587 24.728 49.9638C24.728 50.1689 24.5615 50.3354 24.3564 50.3354ZM26.586 43.6466C26.4544 43.6466 25.9743 43.6466 25.8428 43.6466C25.6377 43.6466 25.4712 43.813 25.4712 44.0182C25.4712 44.2233 25.6377 44.3898 25.8428 44.3898C25.9743 44.3898 26.4544 44.3898 26.586 44.3898C26.7911 44.3898 26.9576 44.2233 26.9576 44.0182C26.9576 43.813 26.7911 43.6466 26.586 43.6466ZM26.586 45.133C26.4544 45.133 23.0015 45.133 22.87 45.133C22.6648 45.133 22.4984 45.2995 22.4984 45.5046C22.4984 45.7097 22.6648 45.8762 22.87 45.8762C23.0015 45.8762 26.4544 45.8762 26.586 45.8762C26.7911 45.8762 26.9576 45.7097 26.9576 45.5046C26.9576 45.2995 26.7911 45.133 26.586 45.133ZM30.302 46.6194C30.1705 46.6194 28.2039 46.6194 28.0724 46.6194C27.8673 46.6194 27.7008 46.7859 27.7008 46.991C27.7008 47.1961 27.8673 47.3626 28.0724 47.3626C28.2039 47.3626 30.1705 47.3626 30.302 47.3626C30.5071 47.3626 30.6736 47.1961 30.6736 46.991C30.6736 46.7859 30.5071 46.6194 30.302 46.6194ZM66.719 27.2961H59.287C59.0818 27.2961 58.9154 27.1296 58.9154 26.9245C58.9154 26.7194 59.0818 26.5529 59.287 26.5529H66.719C66.9241 26.5529 67.0906 26.7194 67.0906 26.9245C67.0906 27.1296 66.9241 27.2961 66.719 27.2961ZM69.6918 27.2961H68.2054C68.0003 27.2961 67.8338 27.1296 67.8338 26.9245C67.8338 26.7194 68.0003 26.5529 68.2054 26.5529H69.6918C69.8969 26.5529 70.0634 26.7194 70.0634 26.9245C70.0634 27.1296 69.8969 27.2961 69.6918 27.2961ZM73.4078 28.7825H65.9758C65.7707 28.7825 65.6042 28.616 65.6042 28.4109C65.6042 28.2058 65.7707 28.0393 65.9758 28.0393H73.4078C73.613 28.0393 73.7794 28.2058 73.7794 28.4109C73.7794 28.616 73.6137 28.7825 73.4078 28.7825ZM64.4894 28.7825H63.7462C63.5411 28.7825 63.3746 28.616 63.3746 28.4109C63.3746 28.2058 63.5411 28.0393 63.7462 28.0393H64.4894C64.6945 28.0393 64.861 28.2058 64.861 28.4109C64.861 28.616 64.6945 28.7825 64.4894 28.7825ZM62.1669 28.7825H60.7734C60.5682 28.7825 60.4018 28.616 60.4018 28.4109C60.4018 28.2058 60.5682 28.0393 60.7734 28.0393H62.1669C62.372 28.0393 62.5385 28.2058 62.5385 28.4109C62.5385 28.616 62.372 28.7825 62.1669 28.7825ZM68.9486 25.8097H65.2326C65.0275 25.8097 64.861 25.6432 64.861 25.4381C64.861 25.2329 65.0275 25.0665 65.2326 25.0665H68.9486C69.1537 25.0665 69.3202 25.2329 69.3202 25.4381C69.3202 25.6432 69.1545 25.8097 68.9486 25.8097ZM66.719 30.2689H65.2326C65.0275 30.2689 64.861 30.1024 64.861 29.8973C64.861 29.6922 65.0275 29.5257 65.2326 29.5257H66.719C66.9241 29.5257 67.0906 29.6922 67.0906 29.8973C67.0906 30.1024 66.9241 30.2689 66.719 30.2689Z" fill="white"/>
<path d="M40.3346 62.4497C37.3432 62.4497 34.9092 60.0164 34.9092 57.0243V36.2146C34.9092 33.2232 37.3424 30.7892 40.3346 30.7892H61.1443C64.1357 30.7892 66.5697 33.2224 66.5697 36.2146V57.0243C66.5697 60.0157 64.1364 62.4497 61.1443 62.4497H40.3346Z" fill="#AFABD4"/>
<path d="M61.145 31.3093C63.8495 31.3093 66.0501 33.5099 66.0501 36.2144V57.0241C66.0501 59.7287 63.8495 61.9293 61.145 61.9293H40.3353C37.6308 61.9293 35.4301 59.7287 35.4301 57.0241V36.2144C35.4301 33.5099 37.6308 31.3093 40.3353 31.3093H61.145ZM61.145 30.2688H40.3353C37.0518 30.2688 34.3896 32.931 34.3896 36.2144V57.0241C34.3896 60.3076 37.0518 62.9698 40.3353 62.9698H61.145C64.4285 62.9698 67.0906 60.3076 67.0906 57.0241V36.2144C67.0906 32.931 64.4285 30.2688 61.145 30.2688Z" fill="#472B29"/>
<path d="M63.7056 44.7695C63.5005 44.7695 63.334 44.603 63.334 44.3979V41.6436C63.334 41.4385 63.5005 41.272 63.7056 41.272C63.9107 41.272 64.0772 41.4385 64.0772 41.6436V44.3979C64.0772 44.603 63.9107 44.7695 63.7056 44.7695Z" fill="#472B29"/>
<path d="M63.7525 39.9753C63.5473 39.9753 63.3809 39.8088 63.3809 39.6037V38.1819C63.3809 37.9768 63.5473 37.8103 63.7525 37.8103C63.9576 37.8103 64.1241 37.9768 64.1241 38.1819V39.6037C64.1241 39.8088 63.9583 39.9753 63.7525 39.9753Z" fill="#472B29"/>
<path d="M60.5882 59.9508H40.9387C38.9922 59.9508 37.4092 58.3671 37.4092 56.4214V36.7711C37.4092 34.8253 38.9922 33.2416 40.9387 33.2416H58.7458C58.9509 33.2416 59.1174 33.4081 59.1174 33.6132C59.1174 33.8183 58.9509 33.9848 58.7458 33.9848H40.9387C39.4025 33.9848 38.1524 35.2349 38.1524 36.7711V56.4206C38.1524 57.9568 39.4025 59.2069 40.9387 59.2069H60.5882C62.1244 59.2069 63.3745 57.9568 63.3745 56.4206V46.3324C63.3745 46.1272 63.541 45.9608 63.7461 45.9608C63.9512 45.9608 64.1177 46.1272 64.1177 46.3324V56.4206C64.1177 58.3671 62.5347 59.9508 60.5882 59.9508Z" fill="#472B29"/>
<path d="M39.9646 64.0846C39.9646 64.0846 41.1292 64.0846 42.5658 64.0846C44.0024 64.0846 45.167 62.92 45.167 61.4834C45.167 60.1598 44.1748 59.0799 42.8965 58.9156C42.9173 58.7826 42.9374 58.6496 42.9374 58.5106C42.9374 57.074 41.7728 55.9094 40.3362 55.9094C39.5692 55.9094 38.8869 56.2475 38.4113 56.7752C38.1259 55.4315 36.9345 54.423 35.5054 54.423C33.8636 54.423 32.5325 55.7541 32.5325 57.3958C32.5325 57.5377 32.5548 57.6737 32.5742 57.8105C32.2561 57.5548 31.8577 57.3958 31.4177 57.3958C30.5051 57.3958 29.7492 58.055 29.5932 58.9231C29.4601 58.9023 29.3271 58.8822 29.1881 58.8822C27.7515 58.8822 26.5869 60.0468 26.5869 61.4834C26.5869 62.92 27.7515 64.0846 29.1881 64.0846C30.6247 64.0846 34.7622 64.0846 34.7622 64.0846V64.4562H39.9646V64.0846Z" fill="#FDFCEF"/>
<path d="M41.2652 60.7404C41.1626 60.7404 41.0794 60.6571 41.0794 60.5546C41.0794 59.6456 41.8189 58.9061 42.7278 58.9061C42.7531 58.9128 43.2756 58.9054 43.6524 59.0072C43.7512 59.034 43.8099 59.1358 43.7832 59.2346C43.7564 59.3342 43.6546 59.3929 43.5557 59.3654C43.2258 59.2762 42.7382 59.2762 42.7286 59.2777C42.024 59.2777 41.451 59.8507 41.451 60.5546C41.451 60.6571 41.3677 60.7404 41.2652 60.7404ZM36.2486 63.7132C36.15 63.7132 36.0555 63.7523 35.9858 63.822C35.9161 63.8917 35.877 63.9862 35.877 64.0848C35.877 64.1833 35.9161 64.2778 35.9858 64.3475C36.0555 64.4172 36.15 64.4564 36.2486 64.4564C36.3471 64.4564 36.4416 64.4172 36.5113 64.3475C36.581 64.2778 36.6202 64.1833 36.6202 64.0848C36.6202 63.9862 36.581 63.8917 36.5113 63.822C36.4416 63.7523 36.3471 63.7132 36.2486 63.7132Z" fill="#472B29"/>
<path d="M42.5653 64.4564H39.9641C39.759 64.4564 39.5925 64.2899 39.5925 64.0848C39.5925 63.8796 39.759 63.7132 39.9641 63.7132H42.5653C43.7946 63.7132 44.7949 62.7128 44.7949 61.4836C44.7949 60.3717 43.9588 59.4264 42.8492 59.2844C42.7496 59.271 42.6597 59.219 42.5995 59.1387C42.5393 59.0585 42.5141 58.9574 42.5297 58.8586C42.5468 58.7441 42.5653 58.6297 42.5653 58.5107C42.5653 57.2815 41.565 56.2811 40.3357 56.2811C39.704 56.2811 39.1184 56.545 38.6866 57.0243C38.5936 57.1276 38.448 57.1715 38.3149 57.1343C38.1797 57.0979 38.0764 56.9894 38.0474 56.8527C37.794 55.6606 36.7245 54.7947 35.5049 54.7947C34.0705 54.7947 32.9037 55.9615 32.9037 57.3959C32.9037 57.5022 32.9193 57.604 32.9342 57.7066C32.9557 57.8575 32.8873 58.0321 32.7543 58.1079C32.6213 58.1837 32.46 58.1956 32.3411 58.1005C32.0698 57.8827 31.751 57.7675 31.4173 57.7675C30.6993 57.7675 30.0855 58.2811 29.9584 58.9894C29.9227 59.1878 29.7384 59.3208 29.5355 59.2904C29.421 59.2725 29.3066 59.2539 29.1877 59.2539C27.9584 59.2539 26.958 60.2543 26.958 61.4836C26.958 62.7128 27.9584 63.7132 29.1877 63.7132H34.7617C34.9668 63.7132 35.1333 63.8796 35.1333 64.0848C35.1333 64.2899 34.9668 64.4564 34.7617 64.4564H29.1877C27.5482 64.4564 26.2148 63.1231 26.2148 61.4836C26.2148 59.844 27.5482 58.5107 29.1877 58.5107C29.2315 58.5107 29.2739 58.5122 29.317 58.5152C29.6247 57.6338 30.4593 57.0243 31.4173 57.0243C31.6767 57.0243 31.9293 57.0697 32.1687 57.1581C32.2913 55.4242 33.7405 54.0515 35.5049 54.0515C36.8657 54.0515 38.0808 54.8891 38.5914 56.1132C39.0968 55.743 39.7077 55.5379 40.3357 55.5379C41.9752 55.5379 43.3085 56.8712 43.3085 58.5107C43.3085 58.5464 43.3078 58.5813 43.3056 58.6163C44.601 58.9492 45.5381 60.1227 45.5381 61.4836C45.5381 63.1231 44.2048 64.4564 42.5653 64.4564Z" fill="#472B29"/>
<path d="M38.4781 63.7133C38.3599 63.7133 37.8531 63.7133 37.7349 63.7133C37.5298 63.7133 37.3633 63.8797 37.3633 64.0849C37.3633 64.29 37.5298 64.4565 37.7349 64.4565C37.8531 64.4565 38.3599 64.4565 38.4781 64.4565C38.6832 64.4565 38.8497 64.29 38.8497 64.0849C38.8497 63.8797 38.6832 63.7133 38.4781 63.7133Z" fill="#472B29"/>
<path d="M60.0298 40.6739H41.4497C41.2446 40.6739 41.0781 40.5074 41.0781 40.3023C41.0781 40.0971 41.2446 39.9307 41.4497 39.9307H60.0298C60.235 39.9307 60.4014 40.0971 60.4014 40.3023C60.4014 40.5074 60.235 40.6739 60.0298 40.6739Z" fill="#472B29"/>
<path d="M60.0298 54.0513H41.4497C41.2446 54.0513 41.0781 53.8848 41.0781 53.6797C41.0781 53.4746 41.2446 53.3081 41.4497 53.3081H60.0298C60.235 53.3081 60.4014 53.4746 60.4014 53.6797C60.4014 53.8848 60.235 54.0513 60.0298 54.0513Z" fill="#472B29"/>
<path d="M60.0298 47.3626H41.4497C41.2446 47.3626 41.0781 47.1961 41.0781 46.991C41.0781 46.7859 41.2446 46.6194 41.4497 46.6194H60.0298C60.235 46.6194 60.4014 46.7859 60.4014 46.991C60.4014 47.1961 60.235 47.3626 60.0298 47.3626Z" fill="#472B29"/>
<path d="M46.6525 38.0726C46.0611 38.0726 45.494 38.3075 45.0759 38.7256C44.6578 39.1437 44.4229 39.7109 44.4229 40.3022C44.4229 40.8935 44.6578 41.4606 45.0759 41.8788C45.494 42.2969 46.0611 42.5318 46.6525 42.5318C47.2438 42.5318 47.8109 42.2969 48.229 41.8788C48.6472 41.4606 48.8821 40.8935 48.8821 40.3022C48.8821 39.7109 48.6472 39.1437 48.229 38.7256C47.8109 38.3075 47.2438 38.0726 46.6525 38.0726Z" fill="#FDE751"/>
<path d="M46.653 42.9033C45.2186 42.9033 44.0518 41.7365 44.0518 40.3021C44.0518 38.8677 45.2186 37.7009 46.653 37.7009C48.0874 37.7009 49.2542 38.8677 49.2542 40.3021C49.2542 41.7365 48.0874 42.9033 46.653 42.9033ZM46.653 38.4441C45.6288 38.4441 44.795 39.2772 44.795 40.3021C44.795 41.327 45.6288 42.1601 46.653 42.1601C47.6771 42.1601 48.511 41.327 48.511 40.3021C48.511 39.2772 47.6771 38.4441 46.653 38.4441Z" fill="#472B29"/>
<path d="M54.0841 44.7613C53.4928 44.7613 52.9257 44.9962 52.5075 45.4143C52.0894 45.8325 51.8545 46.3996 51.8545 46.9909C51.8545 47.5822 52.0894 48.1493 52.5075 48.5675C52.9257 48.9856 53.4928 49.2205 54.0841 49.2205C54.6754 49.2205 55.2425 48.9856 55.6607 48.5675C56.0788 48.1493 56.3137 47.5822 56.3137 46.9909C56.3137 46.3996 56.0788 45.8325 55.6607 45.4143C55.2425 44.9962 54.6754 44.7613 54.0841 44.7613Z" fill="#FDE751"/>
<path d="M54.0846 49.5921C52.6502 49.5921 51.4834 48.4252 51.4834 46.9909C51.4834 45.5565 52.6502 44.3896 54.0846 44.3896C55.519 44.3896 56.6858 45.5565 56.6858 46.9909C56.6858 48.4252 55.519 49.5921 54.0846 49.5921ZM54.0846 45.1329C53.0605 45.1329 52.2266 45.966 52.2266 46.9909C52.2266 48.0157 53.0605 48.8489 54.0846 48.8489C55.1087 48.8489 55.9426 48.0157 55.9426 46.9909C55.9426 45.966 55.1087 45.1329 54.0846 45.1329Z" fill="#472B29"/>
<path d="M48.882 51.4501C48.2906 51.4501 47.7235 51.685 47.3054 52.1032C46.8872 52.5213 46.6523 53.0884 46.6523 53.6797C46.6523 54.2711 46.8872 54.8382 47.3054 55.2563C47.7235 55.6745 48.2906 55.9094 48.882 55.9094C49.4733 55.9094 50.0404 55.6745 50.4585 55.2563C50.8767 54.8382 51.1116 54.2711 51.1116 53.6797C51.1116 53.0884 50.8767 52.5213 50.4585 52.1032C50.0404 51.685 49.4733 51.4501 48.882 51.4501Z" fill="#FDE751"/>
<path d="M48.8825 56.281C47.4481 56.281 46.2812 55.1142 46.2812 53.6798C46.2812 52.2454 47.4481 51.0786 48.8825 51.0786C50.3168 51.0786 51.4837 52.2454 51.4837 53.6798C51.4837 55.1142 50.3168 56.281 48.8825 56.281ZM48.8825 51.8218C47.8583 51.8218 47.0245 52.6549 47.0245 53.6798C47.0245 54.7046 47.8583 55.5378 48.8825 55.5378C49.9066 55.5378 50.7405 54.7046 50.7405 53.6798C50.7405 52.6549 49.9066 51.8218 48.8825 51.8218Z" fill="#472B29"/>
</svg>
