<svg width="120" height="112" viewBox="0 0 120 112" fill="none" xmlns="http://www.w3.org/2000/svg">
<path d="M117.766 41.9492C124.265 64.0047 113.331 89.1686 95.2286 101.829C77.1268 114.58 51.7657 114.736 31.4134 101.678C10.9697 88.5283 -4.46578 62.0726 1.66905 39.8481C7.89535 17.714 35.7828 -0.189441 61.6029 0.378371C87.5139 0.94562 111.357 19.8932 117.766 41.9492Z" fill="#E6F6FD"/>
<path d="M93.0477 65.5082C94.0556 63.5946 94.6328 61.419 94.6328 59.1057C94.6328 53.2263 90.9396 48.2215 85.7519 46.2493C85.7519 46.2431 85.7528 46.2368 85.7528 46.2297C85.7528 35.9307 77.4038 27.5817 67.1048 27.5817C58.4166 27.5817 51.1377 33.5322 49.0668 41.574C47.7562 41.1433 46.3593 40.9017 44.9048 40.9017C38.0743 40.9017 32.4524 46.0459 31.6825 52.6695C27.0613 53.6472 23.5928 57.7462 23.5928 62.6577C23.5928 68.2974 28.1651 72.8698 33.8048 72.8698C33.962 72.8698 34.1174 72.8591 34.2719 72.8502C34.2683 73.0056 34.2488 73.1575 34.2488 73.3138C34.2488 83.3677 42.3989 91.5178 52.4528 91.5178C58.1689 91.5178 63.2642 88.8786 66.6022 84.7565C68.5363 86.7323 71.2251 87.9658 74.2088 87.9658C78.338 87.9658 81.9113 85.6126 83.6802 82.1778C84.6144 82.4753 85.6081 82.6378 86.6408 82.6378C92.0354 82.6378 96.4088 78.2644 96.4088 72.8698C96.4088 69.9296 95.1035 67.2993 93.0477 65.5082Z" fill="#C7EDE6"/>
<path d="M86.5301 65.3217C86.5301 65.3217 89.7625 65.3217 91.9691 65.3217C94.1758 65.3217 95.9652 63.5324 95.9652 61.3257C95.9652 59.254 94.3827 57.5704 92.3643 57.3697C92.3838 57.209 92.4131 57.0518 92.4131 56.8857C92.4131 54.6791 90.6238 52.8897 88.4171 52.8897C87.1402 52.8897 86.0169 53.4989 85.2852 54.4313C85.1608 52.0905 83.241 50.2257 80.8691 50.2257C78.4174 50.2257 76.4291 52.214 76.4291 54.6657C76.4291 55.0618 76.4975 55.4383 76.5952 55.8042C76.0251 55.1142 75.1735 54.6657 74.2091 54.6657C72.6276 54.6657 71.3373 55.8512 71.1411 57.3786C70.9804 57.359 70.8232 57.3297 70.6571 57.3297C68.4505 57.3297 66.6611 59.1191 66.6611 61.3257C66.6611 63.5324 68.4505 65.3217 70.6571 65.3217C72.8638 65.3217 79.0931 65.3217 79.0931 65.3217H83.8661V65.7657H86.5301V65.3217Z" fill="#FDFCEF"/>
<path d="M29.2807 60.4377H20.485C20.2399 60.4377 20.041 60.2388 20.041 59.9937C20.041 59.7487 20.2399 59.5497 20.485 59.5497H29.2807C29.5257 59.5497 29.7247 59.7487 29.7247 59.9937C29.7247 60.2388 29.5266 60.4377 29.2807 60.4377ZM32.029 60.4377H31.141C30.8959 60.4377 30.697 60.2388 30.697 59.9937C30.697 59.7487 30.8959 59.5497 31.141 59.5497H32.029C32.2741 59.5497 32.473 59.7487 32.473 59.9937C32.473 60.2388 32.275 60.4377 32.029 60.4377ZM36.461 62.2137H28.477C28.2319 62.2137 28.033 62.0148 28.033 61.7697C28.033 61.5247 28.2319 61.3257 28.477 61.3257H36.461C36.7061 61.3257 36.905 61.5247 36.905 61.7697C36.905 62.0148 36.7061 62.2137 36.461 62.2137ZM26.701 62.2137H25.813C25.5679 62.2137 25.369 62.0148 25.369 61.7697C25.369 61.5247 25.5679 61.3257 25.813 61.3257H26.701C26.9461 61.3257 27.145 61.5247 27.145 61.7697C27.145 62.0148 26.947 62.2137 26.701 62.2137ZM24.037 62.2137H22.261C22.0159 62.2137 21.817 62.0148 21.817 61.7697C21.817 61.5247 22.0159 61.3257 22.261 61.3257H24.037C24.2821 61.3257 24.481 61.5247 24.481 61.7697C24.481 62.0148 24.283 62.2137 24.037 62.2137ZM29.365 63.9897H27.589C27.3439 63.9897 27.145 63.7908 27.145 63.5457C27.145 63.3007 27.3439 63.1017 27.589 63.1017H29.365C29.6101 63.1017 29.809 63.3007 29.809 63.5457C29.809 63.7908 29.6101 63.9897 29.365 63.9897ZM32.029 55.9977C31.8718 55.9977 31.2982 55.9977 31.141 55.9977C30.8959 55.9977 30.697 56.1967 30.697 56.4417C30.697 56.6868 30.8959 56.8857 31.141 56.8857C31.2982 56.8857 31.8718 56.8857 32.029 56.8857C32.2741 56.8857 32.473 56.6868 32.473 56.4417C32.473 56.1967 32.2741 55.9977 32.029 55.9977ZM32.029 57.7737C31.8718 57.7737 27.7462 57.7737 27.589 57.7737C27.3439 57.7737 27.145 57.9727 27.145 58.2177C27.145 58.4628 27.3439 58.6617 27.589 58.6617C27.7462 58.6617 31.8718 58.6617 32.029 58.6617C32.2741 58.6617 32.473 58.4628 32.473 58.2177C32.473 57.9727 32.2741 57.7737 32.029 57.7737ZM36.469 59.5497C36.3118 59.5497 33.9622 59.5497 33.805 59.5497C33.5599 59.5497 33.361 59.7487 33.361 59.9937C33.361 60.2388 33.5599 60.4377 33.805 60.4377C33.9622 60.4377 36.3118 60.4377 36.469 60.4377C36.7141 60.4377 36.913 60.2388 36.913 59.9937C36.913 59.7487 36.7141 59.5497 36.469 59.5497ZM79.981 36.4617H71.101C70.856 36.4617 70.657 36.2628 70.657 36.0177C70.657 35.7726 70.856 35.5737 71.101 35.5737H79.981C80.2261 35.5737 80.425 35.7726 80.425 36.0177C80.425 36.2628 80.2261 36.4617 79.981 36.4617ZM83.5331 36.4617H81.757C81.512 36.4617 81.313 36.2628 81.313 36.0177C81.313 35.7726 81.512 35.5737 81.757 35.5737H83.5331C83.7781 35.5737 83.9771 35.7726 83.9771 36.0177C83.9771 36.2628 83.7781 36.4617 83.5331 36.4617ZM87.9731 38.2377H79.093C78.848 38.2377 78.649 38.0388 78.649 37.7937C78.649 37.5486 78.848 37.3497 79.093 37.3497H87.9731C88.2181 37.3497 88.4171 37.5486 88.4171 37.7937C88.4171 38.0388 88.219 38.2377 87.9731 38.2377ZM77.317 38.2377H76.429C76.184 38.2377 75.985 38.0388 75.985 37.7937C75.985 37.5486 76.184 37.3497 76.429 37.3497H77.317C77.5621 37.3497 77.761 37.5486 77.761 37.7937C77.761 38.0388 77.5621 38.2377 77.317 38.2377ZM74.542 38.2377H72.877C72.632 38.2377 72.433 38.0388 72.433 37.7937C72.433 37.5486 72.632 37.3497 72.877 37.3497H74.542C74.7871 37.3497 74.986 37.5486 74.986 37.7937C74.986 38.0388 74.7871 38.2377 74.542 38.2377ZM82.6451 34.6857H78.205C77.96 34.6857 77.761 34.4868 77.761 34.2417C77.761 33.9966 77.96 33.7977 78.205 33.7977H82.6451C82.8901 33.7977 83.0891 33.9966 83.0891 34.2417C83.0891 34.4868 82.891 34.6857 82.6451 34.6857ZM79.981 40.0137H78.205C77.96 40.0137 77.761 39.8148 77.761 39.5697C77.761 39.3246 77.96 39.1257 78.205 39.1257H79.981C80.2261 39.1257 80.425 39.3246 80.425 39.5697C80.425 39.8148 80.2261 40.0137 79.981 40.0137Z" fill="white"/>
<path d="M80.8688 49.7817C78.1755 49.7817 75.9848 51.9724 75.9848 54.6657C75.9848 54.6799 75.9848 54.6933 75.9848 54.7075C75.4502 54.3922 74.8393 54.2217 74.2088 54.2217C72.5829 54.2217 71.1798 55.3415 70.7829 56.8902C70.7412 56.8875 70.6994 56.8857 70.6568 56.8857C68.2086 56.8857 66.2168 58.8775 66.2168 61.3257C66.2168 63.774 68.2086 65.7657 70.6568 65.7657H83.8658C84.1109 65.7657 84.3098 65.5668 84.3098 65.3217C84.3098 65.0767 84.1109 64.8777 83.8658 64.8777H70.6568C68.6979 64.8777 67.1048 63.2847 67.1048 61.3257C67.1048 59.3668 68.6979 57.7737 70.6568 57.7737C70.7607 57.7737 70.861 57.7888 70.9614 57.8022L71.0866 57.819C71.1052 57.8217 71.123 57.8226 71.1416 57.8226C71.3601 57.8226 71.5519 57.6583 71.5812 57.4345C71.7508 56.1087 72.8804 55.1097 74.2088 55.1097C74.9947 55.1097 75.7388 55.4658 76.2521 56.0865C76.3391 56.1913 76.4661 56.2482 76.5949 56.2482C76.6641 56.2482 76.7334 56.2322 76.7973 56.1984C76.9829 56.1034 77.0762 55.8912 77.0229 55.6896C76.9208 55.3033 76.8728 54.9783 76.8728 54.6657C76.8728 52.4626 78.6657 50.6697 80.8688 50.6697C82.9831 50.6697 84.7289 52.3321 84.8417 54.4553C84.8515 54.64 84.9749 54.7989 85.1516 54.8549C85.196 54.8691 85.2413 54.8762 85.2866 54.8762C85.4198 54.8762 85.5495 54.8149 85.6347 54.7057C86.3194 53.8337 87.3326 53.3337 88.4168 53.3337C90.3757 53.3337 91.9688 54.9268 91.9688 56.8857C91.9688 56.9896 91.9537 57.09 91.9404 57.1903L91.9235 57.3155C91.9093 57.4345 91.9431 57.5535 92.0177 57.6468C92.0922 57.74 92.2015 57.7995 92.3196 57.811C94.1453 57.9931 95.5208 59.5045 95.5208 61.3257C95.5208 63.2847 93.9277 64.8777 91.9688 64.8777H86.5298C86.2847 64.8777 86.0858 65.0767 86.0858 65.3217C86.0858 65.5668 86.2847 65.7657 86.5298 65.7657H91.9688C94.417 65.7657 96.4088 63.774 96.4088 61.3257C96.4088 59.1972 94.909 57.407 92.8542 56.995C92.8559 56.9586 92.8568 56.9221 92.8568 56.8857C92.8568 54.4375 90.865 52.4457 88.4168 52.4457C87.3725 52.4457 86.3806 52.8151 85.5903 53.4794C85.0593 51.3446 83.1376 49.7817 80.8688 49.7817Z" fill="#472B29"/>
<path d="M79.5376 55.9977C78.2918 55.9977 77.2208 56.8849 76.9509 58.0766C76.625 57.8794 76.2529 57.7737 75.8746 57.7737C74.8073 57.7737 73.9228 58.5703 73.7852 59.6101C73.6049 59.5693 73.4335 59.5497 73.2666 59.5497C71.9088 59.5497 70.7704 60.6153 70.6754 61.9758C70.6665 62.0983 70.7589 62.2049 70.8805 62.2137C70.8859 62.2137 70.8912 62.2137 70.8965 62.2137C71.0119 62.2137 71.1096 62.1241 71.1176 62.0077C71.1967 60.8791 72.1397 59.9937 73.2657 59.9937C73.469 59.9937 73.6831 60.031 73.921 60.1065C73.9406 60.1127 73.961 60.1154 73.9805 60.1154C74.0294 60.1154 74.0782 60.0976 74.1191 60.0674C74.1759 60.0266 74.2096 59.9538 74.2096 59.8827C74.2096 58.9646 74.9564 58.2177 75.8746 58.2177C76.2716 58.2177 76.6605 58.3669 76.9678 58.6378C77.0095 58.6742 77.0619 58.6937 77.1143 58.6937C77.1427 58.6937 77.1702 58.6884 77.1969 58.6768C77.275 58.6458 77.3283 58.5729 77.3345 58.4886C77.4269 57.3404 78.3939 56.4417 79.5376 56.4417C79.7223 56.4417 79.915 56.4719 80.1433 56.5368C80.1637 56.543 80.185 56.5456 80.2054 56.5456C80.3022 56.5456 80.3892 56.4808 80.4176 56.384C80.4514 56.2659 80.383 56.1434 80.2649 56.1096C79.9967 56.0333 79.765 55.9977 79.5376 55.9977ZM91.8658 57.3297C90.6883 57.3297 89.6386 58.1263 89.3136 59.2674C89.2799 59.3855 89.3483 59.508 89.4664 59.5418C89.4877 59.5471 89.5081 59.5497 89.5276 59.5497C89.6244 59.5497 89.7132 59.4858 89.7408 59.3881C90.0116 58.438 90.8854 57.7737 91.8658 57.7737C91.9697 57.7737 92.07 57.7862 92.1694 57.7995C92.1801 57.8013 92.1899 57.8022 92.2005 57.8022C92.308 57.8022 92.4039 57.7205 92.419 57.6095C92.4358 57.4878 92.3506 57.3759 92.2289 57.3599C92.11 57.344 91.9892 57.3297 91.8658 57.3297Z" fill="#472B29"/>
<path d="M48.456 78.4642C44.8818 78.4642 41.9736 75.5568 41.9736 71.9818V47.1177C41.9736 43.5435 44.8809 40.6353 48.456 40.6353H73.3201C76.8943 40.6353 79.8025 43.5426 79.8025 47.1177V71.9818C79.8025 75.556 76.8951 78.4642 73.3201 78.4642H48.456Z" fill="#EE3E54"/>
<path d="M69.8398 60.4697V55.2873L67.2788 56.5234L64.7178 55.2873V57.534C66.6447 58.1272 68.3808 59.1475 69.8398 60.4697Z" fill="#A8DBDB"/>
<path d="M73.1547 77.7537C73.7115 77.7537 74.2487 77.6756 74.7638 77.5433V65.2214C74.7638 64.0359 73.7044 63.3877 72.4896 63.5031C70.5404 63.6887 67.5079 64.2322 65.0499 65.1539C63.6371 65.684 61.6942 66.5667 61.6942 66.5667H59.7512C59.7512 66.5667 57.8083 65.6832 56.3955 65.1539C53.9366 64.2322 50.905 63.6887 48.9558 63.5031C47.7419 63.3877 46.6816 64.0359 46.6816 65.2214V77.5433C47.1976 77.6756 47.7348 77.7537 48.2907 77.7537H59.7512H61.6942H73.1547Z" fill="white"/>
<path d="M73.154 77.9758H48.29C47.7474 77.9758 47.1871 77.9029 46.625 77.7582C46.5273 77.7333 46.458 77.6445 46.458 77.5433V65.2214C46.458 64.67 46.6631 64.1922 47.0512 63.8388C47.5192 63.4134 48.2242 63.2074 48.9746 63.2811C50.866 63.4614 53.9643 64.0048 56.472 64.9452C57.7578 65.4274 59.4992 66.2097 59.7967 66.3438H61.6446C61.9421 66.2097 63.6834 65.4274 64.9702 64.9452C67.477 64.0048 70.5752 63.4614 72.4667 63.2811C73.2161 63.2074 73.9221 63.4125 74.3901 63.8388C74.7781 64.1913 74.9832 64.67 74.9832 65.2214V77.5433C74.9832 77.6445 74.9149 77.7333 74.8163 77.7582C74.2578 77.9029 73.6974 77.9758 73.154 77.9758ZM46.9029 77.3684C47.3718 77.4767 47.8388 77.5318 48.29 77.5318H73.154C73.6068 77.5318 74.0722 77.4767 74.541 77.3684V65.2205C74.541 64.7978 74.3856 64.4337 74.0935 64.1665C73.7161 63.8246 73.138 63.6603 72.5102 63.7225C70.6454 63.9001 67.5942 64.4355 65.1282 65.3608C63.7385 65.8821 61.8053 66.7585 61.7858 66.7674C61.7574 66.7807 61.7263 66.7869 61.6934 66.7869H59.7505C59.7185 66.7869 59.6874 66.7798 59.6581 66.7674C59.6395 66.7585 57.7063 65.8821 56.3166 65.3608C53.8497 64.4355 50.7968 63.8992 48.9338 63.7225C48.3015 63.6567 47.727 63.8246 47.3504 64.1665C47.0583 64.4337 46.9029 64.7978 46.9029 65.2205V77.3684Z" fill="#472B29"/>
<path d="M74.7312 65.2649L62.9199 67.8064L61.333 68.8737V78.4642H73.321C74.6326 78.4642 75.8518 78.0699 76.873 77.3986V76.285V66.9947C76.873 65.8679 75.8332 65.0278 74.7312 65.2649Z" fill="#00A5A5"/>
<path d="M75.6524 65.3217C75.3655 65.2267 75.053 65.1957 74.7315 65.2649L74.4678 65.3217H75.6524Z" fill="#A8DBDB"/>
<path d="M60.0013 69.7617L58.8584 67.8064L47.0471 65.2649C45.9451 65.0278 44.9053 65.8679 44.9053 66.9947V76.2841V77.3986C45.9265 78.0708 47.1457 78.4642 48.4573 78.4642H60.0013V69.7617Z" fill="#A8DBDB"/>
<path d="M56.8625 63.9063C58.0044 64.3343 59.4483 64.971 60.0362 65.2347H61.4073C61.996 64.971 63.4399 64.3343 64.581 63.9063C66.3117 63.2571 68.2635 62.798 69.9845 62.5023C67.7343 59.9112 64.4229 58.2657 60.7217 58.2657C57.0205 58.2657 53.7092 59.9112 51.459 62.5023C53.1799 62.798 55.1318 63.2571 56.8625 63.9063Z" fill="#F4989E"/>
<path d="M76.517 63.5457C76.272 63.5457 76.073 63.3468 76.073 63.1017V47.1177C76.073 45.6001 74.8378 44.3649 73.3202 44.3649H48.4562C46.9386 44.3649 45.7034 45.6001 45.7034 47.1177V55.1097C45.7034 55.3548 45.5045 55.5537 45.2594 55.5537C45.0143 55.5537 44.8154 55.3548 44.8154 55.1097V47.1177C44.8154 45.11 46.4485 43.4769 48.4562 43.4769H73.3202C75.328 43.4769 76.961 45.11 76.961 47.1177V63.1017C76.961 63.3468 76.7621 63.5457 76.517 63.5457ZM45.2594 63.5457C45.0143 63.5457 44.8154 63.3468 44.8154 63.1017V61.7697C44.8154 61.5247 45.0143 61.3257 45.2594 61.3257C45.5045 61.3257 45.7034 61.5247 45.7034 61.7697V63.1017C45.7034 63.3468 45.5054 63.5457 45.2594 63.5457ZM45.2594 59.9937C45.0143 59.9937 44.8154 59.7948 44.8154 59.5497V57.3297C44.8154 57.0847 45.0143 56.8857 45.2594 56.8857C45.5045 56.8857 45.7034 57.0847 45.7034 57.3297V59.5497C45.7034 59.7948 45.5054 59.9937 45.2594 59.9937Z" fill="#472B29"/>
<path d="M73.3204 78.6862H61.3324C61.2098 78.6862 61.1104 78.5867 61.1104 78.4642V68.8737C61.1104 68.8 61.1468 68.7308 61.208 68.6899L62.7949 67.6234C62.818 67.6066 62.8446 67.5968 62.8721 67.5906L74.6834 65.0491C75.274 64.9213 75.8849 65.0669 76.3538 65.4461C76.8244 65.8261 77.0944 66.39 77.0944 66.9947V77.3986C77.0944 77.4731 77.0571 77.5433 76.9949 77.5841C75.8982 78.3043 74.6284 78.6862 73.3204 78.6862ZM61.5544 78.2422H73.3204C74.5014 78.2422 75.6496 77.9092 76.6504 77.2769V66.9947C76.6504 66.525 76.4408 66.0872 76.0758 65.7915C75.7091 65.4958 75.2358 65.3848 74.7776 65.4825L63.008 68.0159L61.5544 68.9927V78.2422Z" fill="#472B29"/>
<path d="M75.6524 65.5437C75.6293 65.5437 75.6053 65.5402 75.5831 65.5322C75.3105 65.4407 75.0387 65.4256 74.7786 65.4816L74.5148 65.5375C74.3816 65.5633 74.2751 65.486 74.2511 65.3679C74.2253 65.2472 74.3017 65.1291 74.4207 65.1042L74.6844 65.0482C75.0245 64.9745 75.3726 64.9941 75.7216 65.1104C75.8388 65.1486 75.901 65.2747 75.8628 65.3901C75.8326 65.4851 75.7447 65.5437 75.6524 65.5437Z" fill="#472B29"/>
<path d="M60.0016 78.6862H48.4576C47.1496 78.6862 45.8797 78.3043 44.783 77.5841C44.7209 77.5433 44.6836 77.4731 44.6836 77.3985V66.9947C44.6836 66.39 44.9535 65.8261 45.4242 65.4461C45.8939 65.066 46.5049 64.9221 47.0945 65.0491L58.9058 67.5906C58.9662 67.6039 59.0195 67.6421 59.0506 67.6954L60.1934 69.6499C60.2129 69.6836 60.2236 69.7227 60.2236 69.7617V78.4642C60.2236 78.5867 60.1241 78.6862 60.0016 78.6862ZM45.1276 77.2769C46.1284 77.9091 47.2766 78.2422 48.4576 78.2422H59.7796V69.8221L58.7167 68.0044L47.0013 65.4825C46.5413 65.3839 46.0689 65.4958 45.703 65.7915C45.338 66.0872 45.1285 66.525 45.1285 66.9947L45.1276 77.2769Z" fill="#472B29"/>
<path d="M62.921 67.8064H58.8584V78.4642H62.921V67.8064Z" fill="#77CBD2"/>
<path d="M62.9195 78.6862H58.8577C58.7352 78.6862 58.6357 78.5867 58.6357 78.4642V67.8073C58.6357 67.6847 58.7352 67.5853 58.8577 67.5853H62.9195C63.042 67.5853 63.1415 67.6847 63.1415 67.8073V78.4642C63.1415 78.5867 63.042 78.6862 62.9195 78.6862ZM59.0797 78.2422H62.6975V68.0293H59.0797V78.2422Z" fill="#472B29"/>
<path d="M73.3206 41.2569C76.552 41.2569 79.1814 43.8863 79.1814 47.1177V71.9818C79.1814 75.2132 76.552 77.8426 73.3206 77.8426H48.4565C45.2251 77.8426 42.5957 75.2132 42.5957 71.9818V47.1177C42.5957 43.8863 45.2251 41.2569 48.4565 41.2569H73.3206ZM73.3206 40.0137H48.4565C44.5334 40.0137 41.3525 43.1946 41.3525 47.1177V71.9818C41.3525 75.9049 44.5334 79.0858 48.4565 79.0858H73.3206C77.2437 79.0858 80.4246 75.9049 80.4246 71.9818V47.1177C80.4246 43.1946 77.2437 40.0137 73.3206 40.0137Z" fill="#472B29"/>
<path d="M47.1256 80.4178C47.1256 80.4178 48.5171 80.4178 50.2336 80.4178C51.9501 80.4178 53.3416 79.0263 53.3416 77.3098C53.3416 75.7282 52.1561 74.438 50.6288 74.2417C50.6536 74.0828 50.6776 73.9238 50.6776 73.7578C50.6776 72.0412 49.2861 70.6497 47.5696 70.6497C46.6532 70.6497 45.838 71.0538 45.2697 71.6843C44.9287 70.0788 43.5052 68.8737 41.7976 68.8737C39.836 68.8737 38.2456 70.4642 38.2456 72.4258C38.2456 72.5954 38.2722 72.7579 38.2953 72.9213C37.9153 72.6158 37.4393 72.4258 36.9136 72.4258C35.8231 72.4258 34.92 73.2134 34.7336 74.2506C34.5746 74.2257 34.4157 74.2018 34.2496 74.2018C32.5331 74.2018 31.1416 75.5932 31.1416 77.3098C31.1416 79.0263 32.5331 80.4178 34.2496 80.4178C35.9661 80.4178 40.9096 80.4178 40.9096 80.4178V80.8618H47.1256V80.4178Z" fill="#FDFCEF"/>
<path d="M50.2333 80.8618H47.1253C46.8802 80.8618 46.6813 80.6628 46.6813 80.4178C46.6813 80.1727 46.8802 79.9738 47.1253 79.9738H50.2333C51.702 79.9738 52.8973 78.7785 52.8973 77.3098C52.8973 75.9813 51.8983 74.8518 50.5725 74.6822C50.4535 74.6662 50.3461 74.604 50.2741 74.5081C50.2022 74.4122 50.172 74.2914 50.1907 74.1733C50.2111 74.0366 50.2333 73.8998 50.2333 73.7578C50.2333 72.289 49.038 71.0938 47.5693 71.0938C46.8145 71.0938 46.1147 71.409 45.5988 71.9818C45.4878 72.1052 45.3138 72.1576 45.1548 72.1132C44.9932 72.0697 44.8698 71.94 44.8351 71.7766C44.5323 70.3523 43.2545 69.3177 41.7973 69.3177C40.0834 69.3177 38.6893 70.7119 38.6893 72.4258C38.6893 72.5527 38.7079 72.6744 38.7257 72.7969C38.7514 72.9772 38.6697 73.1859 38.5108 73.2765C38.3518 73.367 38.1591 73.3812 38.0171 73.2676C37.6929 73.0074 37.312 72.8698 36.9133 72.8698C36.0555 72.8698 35.322 73.4834 35.1701 74.3296C35.1275 74.5667 34.9073 74.7257 34.6649 74.6893C34.5281 74.668 34.3913 74.6458 34.2493 74.6458C32.7805 74.6458 31.5853 75.841 31.5853 77.3098C31.5853 78.7785 32.7805 79.9738 34.2493 79.9738H40.9093C41.1544 79.9738 41.3533 80.1727 41.3533 80.4178C41.3533 80.6628 41.1544 80.8618 40.9093 80.8618H34.2493C32.2903 80.8618 30.6973 79.2687 30.6973 77.3098C30.6973 75.3508 32.2903 73.7578 34.2493 73.7578C34.3017 73.7578 34.3523 73.7595 34.4038 73.7631C34.7714 72.7099 35.7686 71.9818 36.9133 71.9818C37.2232 71.9818 37.5251 72.0359 37.811 72.1416C37.9576 70.0699 39.6892 68.4297 41.7973 68.4297C43.4232 68.4297 44.8751 69.4305 45.4851 70.8931C46.089 70.4508 46.8189 70.2057 47.5693 70.2057C49.5282 70.2057 51.1213 71.7988 51.1213 73.7578C51.1213 73.8004 51.1204 73.8421 51.1177 73.8838C52.6655 74.2817 53.7853 75.6838 53.7853 77.3098C53.7853 79.2687 52.1922 80.8618 50.2333 80.8618Z" fill="#472B29"/>
<path d="M61.407 65.4558H60.036C60.0049 65.4558 59.9738 65.4487 59.9454 65.4372C59.2305 65.1184 57.871 64.5216 56.7832 64.1149C54.8625 63.3939 52.8068 62.9588 51.4206 62.7217C51.3416 62.7084 51.2758 62.6533 51.2492 62.5778C51.2226 62.5023 51.2377 62.418 51.2909 62.3576C53.6717 59.6163 57.1091 58.0446 60.7215 58.0446C64.333 58.0446 67.7704 59.6172 70.1512 62.3576C70.2045 62.418 70.2196 62.5023 70.1929 62.5778C70.1663 62.6533 70.1006 62.7084 70.0215 62.7217C68.6389 62.9588 66.5859 63.393 64.6589 64.1149C63.5871 64.5163 62.2178 65.1157 61.4967 65.4372C61.4683 65.4496 61.4381 65.4558 61.407 65.4558ZM60.0839 65.0118H61.3609C62.0961 64.6842 63.4423 64.0963 64.5035 63.6985C66.2875 63.0307 68.1718 62.6062 69.5536 62.3532C67.2714 59.8916 64.0746 58.4868 60.7233 58.4868C57.3711 58.4868 54.1743 59.8907 51.8921 62.3532C53.2774 62.6053 55.1644 63.0316 56.9422 63.6985C58.0167 64.1016 59.354 64.6868 60.0839 65.0118Z" fill="#472B29"/>
<path d="M69.8401 60.6917C69.7859 60.6917 69.7326 60.6722 69.6909 60.6349C68.2097 59.2913 66.5145 58.3199 64.6533 57.7471C64.56 57.7187 64.4961 57.6317 64.4961 57.5349V55.2873C64.4961 55.211 64.5352 55.1399 64.6 55.0991C64.6648 55.0591 64.7474 55.0538 64.814 55.0866L67.2782 56.2766L69.7424 55.0866C69.8099 55.0529 69.8925 55.0582 69.9564 55.0991C70.0212 55.1399 70.0603 55.211 70.0603 55.2873V60.4697C70.0603 60.5576 70.0079 60.6367 69.9289 60.6731C69.9005 60.6855 69.8703 60.6917 69.8401 60.6917ZM64.9401 57.3715C66.6495 57.9203 68.2204 58.7958 69.6181 59.9804V55.6416L67.3759 56.7241C67.3155 56.7534 67.2445 56.7534 67.1832 56.7241L64.941 55.6416L64.9401 57.3715Z" fill="#472B29"/>
<path d="M48.6792 76.4218C48.5567 76.4218 48.4572 76.3223 48.4572 76.1998C48.4572 75.1137 49.3408 74.2302 50.4268 74.2302C50.457 74.2382 51.0813 74.2293 51.5315 74.3509C51.6496 74.3829 51.7197 74.5046 51.6878 74.6227C51.6558 74.7417 51.5341 74.8118 51.416 74.779C51.0218 74.6724 50.4392 74.6724 50.4277 74.6742C49.5859 74.6742 48.9012 75.3588 48.9012 76.1998C48.9012 76.3223 48.8018 76.4218 48.6792 76.4218ZM42.6852 79.9738C42.4401 79.9738 42.2412 80.1727 42.2412 80.4178C42.2412 80.6628 42.4401 80.8618 42.6852 80.8618C42.9303 80.8618 43.1292 80.6628 43.1292 80.4178C43.1292 80.1727 42.9303 79.9738 42.6852 79.9738Z" fill="#472B29"/>
<path d="M45.3486 79.9738C45.2074 79.9738 44.6018 79.9738 44.4606 79.9738C44.2155 79.9738 44.0166 80.1727 44.0166 80.4178C44.0166 80.6628 44.2155 80.8618 44.4606 80.8618C44.6018 80.8618 45.2074 80.8618 45.3486 80.8618C45.5937 80.8618 45.7926 80.6628 45.7926 80.4178C45.7926 80.1727 45.5937 79.9738 45.3486 79.9738Z" fill="#472B29"/>
<path d="M93.0477 65.5082C94.0556 63.5946 94.6328 61.419 94.6328 59.1057C94.6328 53.2263 90.9396 48.2215 85.7519 46.2493C85.7519 46.2431 85.7528 46.2368 85.7528 46.2297C85.7528 35.9307 77.4038 27.5817 67.1048 27.5817C58.4166 27.5817 51.1377 33.5322 49.0668 41.574C47.7562 41.1433 46.3593 40.9017 44.9048 40.9017C38.0743 40.9017 32.4524 46.0459 31.6825 52.6695C27.0613 53.6472 23.5928 57.7462 23.5928 62.6577C23.5928 68.2974 28.1651 72.8698 33.8048 72.8698C33.962 72.8698 34.1174 72.8591 34.2719 72.8502C34.2683 73.0056 34.2488 73.1575 34.2488 73.3138C34.2488 83.3677 42.3989 91.5178 52.4528 91.5178C58.1689 91.5178 63.2642 88.8786 66.6022 84.7565C68.5363 86.7323 71.2251 87.9658 74.2088 87.9658C78.338 87.9658 81.9113 85.6126 83.6802 82.1778C84.6144 82.4753 85.6081 82.6378 86.6408 82.6378C92.0354 82.6378 96.4088 78.2644 96.4088 72.8698C96.4088 69.9296 95.1035 67.2993 93.0477 65.5082Z" fill="#C7EDE6"/>
<path d="M86.5301 65.3217C86.5301 65.3217 89.7625 65.3217 91.9691 65.3217C94.1758 65.3217 95.9652 63.5324 95.9652 61.3257C95.9652 59.254 94.3827 57.5704 92.3643 57.3697C92.3838 57.209 92.4131 57.0518 92.4131 56.8857C92.4131 54.6791 90.6238 52.8897 88.4171 52.8897C87.1402 52.8897 86.0169 53.4989 85.2852 54.4313C85.1608 52.0905 83.241 50.2257 80.8691 50.2257C78.4174 50.2257 76.4291 52.214 76.4291 54.6657C76.4291 55.0618 76.4975 55.4383 76.5952 55.8042C76.0251 55.1142 75.1735 54.6657 74.2091 54.6657C72.6276 54.6657 71.3373 55.8512 71.1411 57.3786C70.9804 57.359 70.8232 57.3297 70.6571 57.3297C68.4505 57.3297 66.6611 59.1191 66.6611 61.3257C66.6611 63.5324 68.4505 65.3217 70.6571 65.3217C72.8638 65.3217 79.0931 65.3217 79.0931 65.3217H83.8661V65.7657H86.5301V65.3217Z" fill="#FDFCEF"/>
<path d="M29.2807 60.4377H20.485C20.2399 60.4377 20.041 60.2388 20.041 59.9937C20.041 59.7487 20.2399 59.5497 20.485 59.5497H29.2807C29.5257 59.5497 29.7247 59.7487 29.7247 59.9937C29.7247 60.2388 29.5266 60.4377 29.2807 60.4377ZM32.029 60.4377H31.141C30.8959 60.4377 30.697 60.2388 30.697 59.9937C30.697 59.7487 30.8959 59.5497 31.141 59.5497H32.029C32.2741 59.5497 32.473 59.7487 32.473 59.9937C32.473 60.2388 32.275 60.4377 32.029 60.4377ZM36.461 62.2137H28.477C28.2319 62.2137 28.033 62.0148 28.033 61.7697C28.033 61.5247 28.2319 61.3257 28.477 61.3257H36.461C36.7061 61.3257 36.905 61.5247 36.905 61.7697C36.905 62.0148 36.7061 62.2137 36.461 62.2137ZM26.701 62.2137H25.813C25.5679 62.2137 25.369 62.0148 25.369 61.7697C25.369 61.5247 25.5679 61.3257 25.813 61.3257H26.701C26.9461 61.3257 27.145 61.5247 27.145 61.7697C27.145 62.0148 26.947 62.2137 26.701 62.2137ZM24.037 62.2137H22.261C22.0159 62.2137 21.817 62.0148 21.817 61.7697C21.817 61.5247 22.0159 61.3257 22.261 61.3257H24.037C24.2821 61.3257 24.481 61.5247 24.481 61.7697C24.481 62.0148 24.283 62.2137 24.037 62.2137ZM29.365 63.9897H27.589C27.3439 63.9897 27.145 63.7908 27.145 63.5457C27.145 63.3007 27.3439 63.1017 27.589 63.1017H29.365C29.6101 63.1017 29.809 63.3007 29.809 63.5457C29.809 63.7908 29.6101 63.9897 29.365 63.9897ZM32.029 55.9977C31.8718 55.9977 31.2982 55.9977 31.141 55.9977C30.8959 55.9977 30.697 56.1967 30.697 56.4417C30.697 56.6868 30.8959 56.8857 31.141 56.8857C31.2982 56.8857 31.8718 56.8857 32.029 56.8857C32.2741 56.8857 32.473 56.6868 32.473 56.4417C32.473 56.1967 32.2741 55.9977 32.029 55.9977ZM32.029 57.7737C31.8718 57.7737 27.7462 57.7737 27.589 57.7737C27.3439 57.7737 27.145 57.9727 27.145 58.2177C27.145 58.4628 27.3439 58.6617 27.589 58.6617C27.7462 58.6617 31.8718 58.6617 32.029 58.6617C32.2741 58.6617 32.473 58.4628 32.473 58.2177C32.473 57.9727 32.2741 57.7737 32.029 57.7737ZM36.469 59.5497C36.3118 59.5497 33.9622 59.5497 33.805 59.5497C33.5599 59.5497 33.361 59.7487 33.361 59.9937C33.361 60.2388 33.5599 60.4377 33.805 60.4377C33.9622 60.4377 36.3118 60.4377 36.469 60.4377C36.7141 60.4377 36.913 60.2388 36.913 59.9937C36.913 59.7487 36.7141 59.5497 36.469 59.5497ZM79.981 36.4617H71.101C70.856 36.4617 70.657 36.2628 70.657 36.0177C70.657 35.7726 70.856 35.5737 71.101 35.5737H79.981C80.2261 35.5737 80.425 35.7726 80.425 36.0177C80.425 36.2628 80.2261 36.4617 79.981 36.4617ZM83.5331 36.4617H81.757C81.512 36.4617 81.313 36.2628 81.313 36.0177C81.313 35.7726 81.512 35.5737 81.757 35.5737H83.5331C83.7781 35.5737 83.9771 35.7726 83.9771 36.0177C83.9771 36.2628 83.7781 36.4617 83.5331 36.4617ZM87.9731 38.2377H79.093C78.848 38.2377 78.649 38.0388 78.649 37.7937C78.649 37.5486 78.848 37.3497 79.093 37.3497H87.9731C88.2181 37.3497 88.4171 37.5486 88.4171 37.7937C88.4171 38.0388 88.219 38.2377 87.9731 38.2377ZM77.317 38.2377H76.429C76.184 38.2377 75.985 38.0388 75.985 37.7937C75.985 37.5486 76.184 37.3497 76.429 37.3497H77.317C77.5621 37.3497 77.761 37.5486 77.761 37.7937C77.761 38.0388 77.5621 38.2377 77.317 38.2377ZM74.542 38.2377H72.877C72.632 38.2377 72.433 38.0388 72.433 37.7937C72.433 37.5486 72.632 37.3497 72.877 37.3497H74.542C74.7871 37.3497 74.986 37.5486 74.986 37.7937C74.986 38.0388 74.7871 38.2377 74.542 38.2377ZM82.6451 34.6857H78.205C77.96 34.6857 77.761 34.4868 77.761 34.2417C77.761 33.9966 77.96 33.7977 78.205 33.7977H82.6451C82.8901 33.7977 83.0891 33.9966 83.0891 34.2417C83.0891 34.4868 82.891 34.6857 82.6451 34.6857ZM79.981 40.0137H78.205C77.96 40.0137 77.761 39.8148 77.761 39.5697C77.761 39.3246 77.96 39.1257 78.205 39.1257H79.981C80.2261 39.1257 80.425 39.3246 80.425 39.5697C80.425 39.8148 80.2261 40.0137 79.981 40.0137Z" fill="white"/>
<path d="M80.8688 49.7817C78.1755 49.7817 75.9848 51.9724 75.9848 54.6657C75.9848 54.6799 75.9848 54.6933 75.9848 54.7075C75.4502 54.3922 74.8393 54.2217 74.2088 54.2217C72.5829 54.2217 71.1798 55.3415 70.7829 56.8902C70.7412 56.8875 70.6994 56.8857 70.6568 56.8857C68.2086 56.8857 66.2168 58.8775 66.2168 61.3257C66.2168 63.774 68.2086 65.7657 70.6568 65.7657H83.8658C84.1109 65.7657 84.3098 65.5668 84.3098 65.3217C84.3098 65.0767 84.1109 64.8777 83.8658 64.8777H70.6568C68.6979 64.8777 67.1048 63.2847 67.1048 61.3257C67.1048 59.3668 68.6979 57.7737 70.6568 57.7737C70.7607 57.7737 70.861 57.7888 70.9614 57.8022L71.0866 57.819C71.1052 57.8217 71.123 57.8226 71.1416 57.8226C71.3601 57.8226 71.5519 57.6583 71.5812 57.4345C71.7508 56.1087 72.8804 55.1097 74.2088 55.1097C74.9947 55.1097 75.7388 55.4658 76.2521 56.0865C76.3391 56.1913 76.4661 56.2482 76.5949 56.2482C76.6641 56.2482 76.7334 56.2322 76.7973 56.1984C76.9829 56.1034 77.0762 55.8912 77.0229 55.6896C76.9208 55.3033 76.8728 54.9783 76.8728 54.6657C76.8728 52.4626 78.6657 50.6697 80.8688 50.6697C82.9831 50.6697 84.7289 52.3321 84.8417 54.4553C84.8515 54.64 84.9749 54.7989 85.1516 54.8549C85.196 54.8691 85.2413 54.8762 85.2866 54.8762C85.4198 54.8762 85.5495 54.8149 85.6347 54.7057C86.3194 53.8337 87.3326 53.3337 88.4168 53.3337C90.3757 53.3337 91.9688 54.9268 91.9688 56.8857C91.9688 56.9896 91.9537 57.09 91.9404 57.1903L91.9235 57.3155C91.9093 57.4345 91.9431 57.5535 92.0177 57.6468C92.0922 57.74 92.2015 57.7995 92.3196 57.811C94.1453 57.9931 95.5208 59.5045 95.5208 61.3257C95.5208 63.2847 93.9277 64.8777 91.9688 64.8777H86.5298C86.2847 64.8777 86.0858 65.0767 86.0858 65.3217C86.0858 65.5668 86.2847 65.7657 86.5298 65.7657H91.9688C94.417 65.7657 96.4088 63.774 96.4088 61.3257C96.4088 59.1972 94.909 57.407 92.8542 56.995C92.8559 56.9586 92.8568 56.9221 92.8568 56.8857C92.8568 54.4375 90.865 52.4457 88.4168 52.4457C87.3725 52.4457 86.3806 52.8151 85.5903 53.4794C85.0593 51.3446 83.1376 49.7817 80.8688 49.7817Z" fill="#472B29"/>
<path d="M79.5376 55.9977C78.2918 55.9977 77.2208 56.8849 76.9509 58.0766C76.625 57.8794 76.2529 57.7737 75.8746 57.7737C74.8073 57.7737 73.9228 58.5703 73.7852 59.6101C73.6049 59.5693 73.4335 59.5497 73.2666 59.5497C71.9088 59.5497 70.7704 60.6153 70.6754 61.9758C70.6665 62.0983 70.7589 62.2049 70.8805 62.2137C70.8859 62.2137 70.8912 62.2137 70.8965 62.2137C71.0119 62.2137 71.1096 62.1241 71.1176 62.0077C71.1967 60.8791 72.1397 59.9937 73.2657 59.9937C73.469 59.9937 73.6831 60.031 73.921 60.1065C73.9406 60.1127 73.961 60.1154 73.9805 60.1154C74.0294 60.1154 74.0782 60.0976 74.1191 60.0674C74.1759 60.0266 74.2096 59.9538 74.2096 59.8827C74.2096 58.9646 74.9564 58.2177 75.8746 58.2177C76.2716 58.2177 76.6605 58.3669 76.9678 58.6378C77.0095 58.6742 77.0619 58.6937 77.1143 58.6937C77.1427 58.6937 77.1702 58.6884 77.1969 58.6768C77.275 58.6458 77.3283 58.5729 77.3345 58.4886C77.4269 57.3404 78.3939 56.4417 79.5376 56.4417C79.7223 56.4417 79.915 56.4719 80.1433 56.5368C80.1637 56.543 80.185 56.5456 80.2054 56.5456C80.3022 56.5456 80.3892 56.4808 80.4176 56.384C80.4514 56.2659 80.383 56.1434 80.2649 56.1096C79.9967 56.0333 79.765 55.9977 79.5376 55.9977ZM91.8658 57.3297C90.6883 57.3297 89.6386 58.1263 89.3136 59.2674C89.2799 59.3855 89.3483 59.508 89.4664 59.5418C89.4877 59.5471 89.5081 59.5497 89.5276 59.5497C89.6244 59.5497 89.7132 59.4858 89.7408 59.3881C90.0116 58.438 90.8854 57.7737 91.8658 57.7737C91.9697 57.7737 92.07 57.7862 92.1694 57.7995C92.1801 57.8013 92.1899 57.8022 92.2005 57.8022C92.308 57.8022 92.4039 57.7205 92.419 57.6095C92.4358 57.4878 92.3506 57.3759 92.2289 57.3599C92.11 57.344 91.9892 57.3297 91.8658 57.3297Z" fill="#472B29"/>
<path d="M48.456 78.4642C44.8818 78.4642 41.9736 75.5568 41.9736 71.9818V47.1177C41.9736 43.5435 44.8809 40.6353 48.456 40.6353H73.3201C76.8943 40.6353 79.8025 43.5426 79.8025 47.1177V71.9818C79.8025 75.556 76.8951 78.4642 73.3201 78.4642H48.456Z" fill="#EF437B"/>
<path d="M69.8398 60.4697V55.2873L67.2788 56.5234L64.7178 55.2873V57.534C66.6447 58.1272 68.3808 59.1475 69.8398 60.4697Z" fill="#A8DBDB"/>
<path d="M73.1547 77.7537C73.7115 77.7537 74.2487 77.6756 74.7638 77.5433V65.2214C74.7638 64.0359 73.7044 63.3877 72.4896 63.5031C70.5404 63.6887 67.5079 64.2322 65.0499 65.1539C63.6371 65.684 61.6942 66.5667 61.6942 66.5667H59.7512C59.7512 66.5667 57.8083 65.6832 56.3955 65.1539C53.9366 64.2322 50.905 63.6887 48.9558 63.5031C47.7419 63.3877 46.6816 64.0359 46.6816 65.2214V77.5433C47.1976 77.6756 47.7348 77.7537 48.2907 77.7537H59.7512H61.6942H73.1547Z" fill="white"/>
<path d="M73.154 77.9758H48.29C47.7474 77.9758 47.1871 77.9029 46.625 77.7582C46.5273 77.7333 46.458 77.6445 46.458 77.5433V65.2214C46.458 64.67 46.6631 64.1922 47.0512 63.8388C47.5192 63.4134 48.2242 63.2074 48.9746 63.2811C50.866 63.4614 53.9643 64.0048 56.472 64.9452C57.7578 65.4274 59.4992 66.2097 59.7967 66.3438H61.6446C61.9421 66.2097 63.6834 65.4274 64.9702 64.9452C67.477 64.0048 70.5752 63.4614 72.4667 63.2811C73.2161 63.2074 73.9221 63.4125 74.3901 63.8388C74.7781 64.1913 74.9832 64.67 74.9832 65.2214V77.5433C74.9832 77.6445 74.9149 77.7333 74.8163 77.7582C74.2578 77.9029 73.6974 77.9758 73.154 77.9758ZM46.9029 77.3684C47.3718 77.4767 47.8388 77.5318 48.29 77.5318H73.154C73.6068 77.5318 74.0722 77.4767 74.541 77.3684V65.2205C74.541 64.7978 74.3856 64.4337 74.0935 64.1665C73.7161 63.8246 73.138 63.6603 72.5102 63.7225C70.6454 63.9001 67.5942 64.4355 65.1282 65.3608C63.7385 65.8821 61.8053 66.7585 61.7858 66.7674C61.7574 66.7807 61.7263 66.7869 61.6934 66.7869H59.7505C59.7185 66.7869 59.6874 66.7798 59.6581 66.7674C59.6395 66.7585 57.7063 65.8821 56.3166 65.3608C53.8497 64.4355 50.7968 63.8992 48.9338 63.7225C48.3015 63.6567 47.727 63.8246 47.3504 64.1665C47.0583 64.4337 46.9029 64.7978 46.9029 65.2205V77.3684Z" fill="#472B29"/>
<path d="M74.7312 65.2649L62.9199 67.8064L61.333 68.8737V78.4642H73.321C74.6326 78.4642 75.8518 78.0699 76.873 77.3986V76.285V66.9947C76.873 65.8679 75.8332 65.0278 74.7312 65.2649Z" fill="#00A5A5"/>
<path d="M60.0013 69.7617L58.8584 67.8064L47.0471 65.2649C45.9451 65.0278 44.9053 65.8679 44.9053 66.9947V76.2841V77.3986C45.9265 78.0708 47.1457 78.4642 48.4573 78.4642H60.0013V69.7617Z" fill="#A8DBDB"/>
<path d="M56.8625 63.9063C58.0044 64.3343 59.4483 64.971 60.0362 65.2347H61.4073C61.996 64.971 63.4399 64.3343 64.581 63.9063C66.3117 63.2571 68.2635 62.798 69.9845 62.5023C67.7343 59.9112 64.4229 58.2657 60.7217 58.2657C57.0205 58.2657 53.7092 59.9112 51.459 62.5023C53.1799 62.798 55.1318 63.2571 56.8625 63.9063Z" fill="#F4989E"/>
<path d="M76.517 63.5457C76.272 63.5457 76.073 63.3468 76.073 63.1017V47.1177C76.073 45.6001 74.8378 44.3649 73.3202 44.3649H48.4562C46.9386 44.3649 45.7034 45.6001 45.7034 47.1177V55.1097C45.7034 55.3548 45.5045 55.5537 45.2594 55.5537C45.0143 55.5537 44.8154 55.3548 44.8154 55.1097V47.1177C44.8154 45.11 46.4485 43.4769 48.4562 43.4769H73.3202C75.328 43.4769 76.961 45.11 76.961 47.1177V63.1017C76.961 63.3468 76.7621 63.5457 76.517 63.5457ZM45.2594 63.5457C45.0143 63.5457 44.8154 63.3468 44.8154 63.1017V61.7697C44.8154 61.5247 45.0143 61.3257 45.2594 61.3257C45.5045 61.3257 45.7034 61.5247 45.7034 61.7697V63.1017C45.7034 63.3468 45.5054 63.5457 45.2594 63.5457ZM45.2594 59.9937C45.0143 59.9937 44.8154 59.7948 44.8154 59.5497V57.3297C44.8154 57.0847 45.0143 56.8857 45.2594 56.8857C45.5045 56.8857 45.7034 57.0847 45.7034 57.3297V59.5497C45.7034 59.7948 45.5054 59.9937 45.2594 59.9937Z" fill="#472B29"/>
<path d="M73.3204 78.6862H61.3324C61.2098 78.6862 61.1104 78.5867 61.1104 78.4642V68.8737C61.1104 68.8 61.1468 68.7308 61.208 68.6899L62.7949 67.6234C62.818 67.6066 62.8446 67.5968 62.8721 67.5906L74.6834 65.0491C75.274 64.9213 75.8849 65.0669 76.3538 65.4461C76.8244 65.8261 77.0944 66.39 77.0944 66.9947V77.3986C77.0944 77.4731 77.0571 77.5433 76.9949 77.5841C75.8982 78.3043 74.6284 78.6862 73.3204 78.6862ZM61.5544 78.2422H73.3204C74.5014 78.2422 75.6496 77.9092 76.6504 77.2769V66.9947C76.6504 66.525 76.4408 66.0872 76.0758 65.7915C75.7091 65.4958 75.2358 65.3848 74.7776 65.4825L63.008 68.0159L61.5544 68.9927V78.2422Z" fill="#472B29"/>
<path d="M60.0016 78.6862H48.4576C47.1496 78.6862 45.8797 78.3043 44.783 77.5841C44.7209 77.5433 44.6836 77.4731 44.6836 77.3985V66.9947C44.6836 66.39 44.9535 65.8261 45.4242 65.4461C45.8939 65.066 46.5049 64.9221 47.0945 65.0491L58.9058 67.5906C58.9662 67.6039 59.0195 67.6421 59.0506 67.6954L60.1934 69.6499C60.2129 69.6836 60.2236 69.7227 60.2236 69.7617V78.4642C60.2236 78.5867 60.1241 78.6862 60.0016 78.6862ZM45.1276 77.2769C46.1284 77.9091 47.2766 78.2422 48.4576 78.2422H59.7796V69.8221L58.7167 68.0044L47.0013 65.4825C46.5413 65.3839 46.0689 65.4958 45.703 65.7915C45.338 66.0872 45.1285 66.525 45.1285 66.9947L45.1276 77.2769Z" fill="#472B29"/>
<path d="M62.921 67.8064H58.8584V78.4642H62.921V67.8064Z" fill="#77CBD2"/>
<path d="M62.9195 78.6862H58.8577C58.7352 78.6862 58.6357 78.5867 58.6357 78.4642V67.8073C58.6357 67.6847 58.7352 67.5853 58.8577 67.5853H62.9195C63.042 67.5853 63.1415 67.6847 63.1415 67.8073V78.4642C63.1415 78.5867 63.042 78.6862 62.9195 78.6862ZM59.0797 78.2422H62.6975V68.0293H59.0797V78.2422Z" fill="#472B29"/>
<path d="M73.3206 41.2569C76.552 41.2569 79.1814 43.8863 79.1814 47.1177V71.9818C79.1814 75.2132 76.552 77.8426 73.3206 77.8426H48.4565C45.2251 77.8426 42.5957 75.2132 42.5957 71.9818V47.1177C42.5957 43.8863 45.2251 41.2569 48.4565 41.2569H73.3206ZM73.3206 40.0137H48.4565C44.5334 40.0137 41.3525 43.1946 41.3525 47.1177V71.9818C41.3525 75.9049 44.5334 79.0858 48.4565 79.0858H73.3206C77.2437 79.0858 80.4246 75.9049 80.4246 71.9818V47.1177C80.4246 43.1946 77.2437 40.0137 73.3206 40.0137Z" fill="#472B29"/>
<path d="M47.1256 80.4178C47.1256 80.4178 48.5171 80.4178 50.2336 80.4178C51.9501 80.4178 53.3416 79.0263 53.3416 77.3098C53.3416 75.7282 52.1561 74.438 50.6288 74.2417C50.6536 74.0828 50.6776 73.9238 50.6776 73.7578C50.6776 72.0412 49.2861 70.6497 47.5696 70.6497C46.6532 70.6497 45.838 71.0538 45.2697 71.6843C44.9287 70.0788 43.5052 68.8737 41.7976 68.8737C39.836 68.8737 38.2456 70.4642 38.2456 72.4258C38.2456 72.5954 38.2722 72.7579 38.2953 72.9213C37.9153 72.6158 37.4393 72.4258 36.9136 72.4258C35.8231 72.4258 34.92 73.2134 34.7336 74.2506C34.5746 74.2257 34.4157 74.2018 34.2496 74.2018C32.5331 74.2018 31.1416 75.5932 31.1416 77.3098C31.1416 79.0263 32.5331 80.4178 34.2496 80.4178C35.9661 80.4178 40.9096 80.4178 40.9096 80.4178V80.8618H47.1256V80.4178Z" fill="#FDFCEF"/>
<path d="M50.2333 80.8618H47.1253C46.8802 80.8618 46.6813 80.6628 46.6813 80.4178C46.6813 80.1727 46.8802 79.9738 47.1253 79.9738H50.2333C51.702 79.9738 52.8973 78.7785 52.8973 77.3098C52.8973 75.9813 51.8983 74.8518 50.5725 74.6822C50.4535 74.6662 50.3461 74.604 50.2741 74.5081C50.2022 74.4122 50.172 74.2914 50.1907 74.1733C50.2111 74.0366 50.2333 73.8998 50.2333 73.7578C50.2333 72.289 49.038 71.0938 47.5693 71.0938C46.8145 71.0938 46.1147 71.409 45.5988 71.9818C45.4878 72.1052 45.3138 72.1576 45.1548 72.1132C44.9932 72.0697 44.8698 71.94 44.8351 71.7766C44.5323 70.3523 43.2545 69.3177 41.7973 69.3177C40.0834 69.3177 38.6893 70.7119 38.6893 72.4258C38.6893 72.5527 38.7079 72.6744 38.7257 72.7969C38.7514 72.9772 38.6697 73.1859 38.5108 73.2765C38.3518 73.367 38.1591 73.3812 38.0171 73.2676C37.6929 73.0074 37.312 72.8698 36.9133 72.8698C36.0555 72.8698 35.322 73.4834 35.1701 74.3296C35.1275 74.5667 34.9073 74.7257 34.6649 74.6893C34.5281 74.668 34.3913 74.6458 34.2493 74.6458C32.7805 74.6458 31.5853 75.841 31.5853 77.3098C31.5853 78.7785 32.7805 79.9738 34.2493 79.9738H40.9093C41.1544 79.9738 41.3533 80.1727 41.3533 80.4178C41.3533 80.6628 41.1544 80.8618 40.9093 80.8618H34.2493C32.2903 80.8618 30.6973 79.2687 30.6973 77.3098C30.6973 75.3508 32.2903 73.7578 34.2493 73.7578C34.3017 73.7578 34.3523 73.7595 34.4038 73.7631C34.7714 72.7099 35.7686 71.9818 36.9133 71.9818C37.2232 71.9818 37.5251 72.0359 37.811 72.1416C37.9576 70.0699 39.6892 68.4297 41.7973 68.4297C43.4232 68.4297 44.8751 69.4305 45.4851 70.8931C46.089 70.4508 46.8189 70.2057 47.5693 70.2057C49.5282 70.2057 51.1213 71.7988 51.1213 73.7578C51.1213 73.8004 51.1204 73.8421 51.1177 73.8838C52.6655 74.2817 53.7853 75.6838 53.7853 77.3098C53.7853 79.2687 52.1922 80.8618 50.2333 80.8618Z" fill="#472B29"/>
<path d="M61.407 65.4558H60.036C60.0049 65.4558 59.9738 65.4487 59.9454 65.4372C59.2305 65.1184 57.871 64.5216 56.7832 64.1149C54.8625 63.3939 52.8068 62.9588 51.4206 62.7217C51.3416 62.7084 51.2758 62.6533 51.2492 62.5778C51.2226 62.5023 51.2377 62.418 51.2909 62.3576C53.6717 59.6163 57.1091 58.0446 60.7215 58.0446C64.333 58.0446 67.7704 59.6172 70.1512 62.3576C70.2045 62.418 70.2196 62.5023 70.1929 62.5778C70.1663 62.6533 70.1006 62.7084 70.0215 62.7217C68.6389 62.9588 66.5859 63.393 64.6589 64.1149C63.5871 64.5163 62.2178 65.1157 61.4967 65.4372C61.4683 65.4496 61.4381 65.4558 61.407 65.4558ZM60.0839 65.0118H61.3609C62.0961 64.6842 63.4423 64.0963 64.5035 63.6985C66.2875 63.0307 68.1718 62.6062 69.5536 62.3532C67.2714 59.8916 64.0746 58.4868 60.7233 58.4868C57.3711 58.4868 54.1743 59.8907 51.8921 62.3532C53.2774 62.6053 55.1644 63.0316 56.9422 63.6985C58.0167 64.1016 59.354 64.6868 60.0839 65.0118Z" fill="#472B29"/>
<path d="M69.8401 60.6917C69.7859 60.6917 69.7326 60.6722 69.6909 60.6349C68.2097 59.2913 66.5145 58.3199 64.6533 57.7471C64.56 57.7187 64.4961 57.6317 64.4961 57.5349V55.2873C64.4961 55.211 64.5352 55.1399 64.6 55.0991C64.6648 55.0591 64.7474 55.0538 64.814 55.0866L67.2782 56.2766L69.7424 55.0866C69.8099 55.0529 69.8925 55.0582 69.9564 55.0991C70.0212 55.1399 70.0603 55.211 70.0603 55.2873V60.4697C70.0603 60.5576 70.0079 60.6367 69.9289 60.6731C69.9005 60.6855 69.8703 60.6917 69.8401 60.6917ZM64.9401 57.3715C66.6495 57.9203 68.2204 58.7958 69.6181 59.9804V55.6416L67.3759 56.7241C67.3155 56.7534 67.2445 56.7534 67.1832 56.7241L64.941 55.6416L64.9401 57.3715Z" fill="#472B29"/>
<path d="M48.6792 76.4218C48.5567 76.4218 48.4572 76.3223 48.4572 76.1998C48.4572 75.1137 49.3408 74.2302 50.4268 74.2302C50.457 74.2382 51.0813 74.2293 51.5315 74.3509C51.6496 74.3829 51.7197 74.5046 51.6878 74.6227C51.6558 74.7417 51.5341 74.8118 51.416 74.779C51.0218 74.6724 50.4392 74.6724 50.4277 74.6742C49.5859 74.6742 48.9012 75.3588 48.9012 76.1998C48.9012 76.3223 48.8018 76.4218 48.6792 76.4218ZM42.6852 79.9738C42.4401 79.9738 42.2412 80.1727 42.2412 80.4178C42.2412 80.6628 42.4401 80.8618 42.6852 80.8618C42.9303 80.8618 43.1292 80.6628 43.1292 80.4178C43.1292 80.1727 42.9303 79.9738 42.6852 79.9738Z" fill="#472B29"/>
<path d="M45.3486 79.9738C45.2074 79.9738 44.6018 79.9738 44.4606 79.9738C44.2155 79.9738 44.0166 80.1727 44.0166 80.4178C44.0166 80.6628 44.2155 80.8618 44.4606 80.8618C44.6018 80.8618 45.2074 80.8618 45.3486 80.8618C45.5937 80.8618 45.7926 80.6628 45.7926 80.4178C45.7926 80.1727 45.5937 79.9738 45.3486 79.9738Z" fill="#472B29"/>
</svg>
