<svg width="100" height="94" viewBox="0 0 100 94" fill="none" xmlns="http://www.w3.org/2000/svg">
<path d="M98.1364 35.1453C103.553 53.5248 94.4407 74.4947 79.3555 85.0448C64.2706 95.6705 43.1364 95.8012 26.1762 84.9189C9.13977 73.9612 -3.72311 51.9148 1.38925 33.3944C6.57782 14.9493 29.8174 0.0297668 51.3341 0.502943C72.9266 0.97565 92.7958 16.7653 98.1364 35.1453Z" fill="#E6F6FD"/>
<path d="M77.6561 51.7936C78.4996 50.192 78.9827 48.3712 78.9827 46.4351C78.9827 41.5144 75.8917 37.3257 71.5499 35.675C71.5499 35.6698 71.5506 35.6646 71.5506 35.6587C71.5506 27.039 64.563 20.0514 55.9434 20.0514C48.6719 20.0514 42.5798 25.0316 40.8467 31.7621C39.7497 31.4016 38.5806 31.1995 37.3633 31.1995C31.6465 31.1995 26.9413 35.5048 26.297 41.0484C22.4293 41.8667 19.5264 45.2973 19.5264 49.4079C19.5264 54.128 23.3531 57.9548 28.0732 57.9548C28.2048 57.9548 28.3348 57.9459 28.4641 57.9384C28.4612 58.0685 28.4448 58.1956 28.4448 58.3264C28.4448 66.7409 35.2659 73.5621 43.6805 73.5621C48.4645 73.5621 52.729 71.3533 55.5227 67.9033C57.1414 69.5569 59.3918 70.5893 61.889 70.5893C65.3449 70.5893 68.3355 68.6198 69.816 65.7451C70.5979 65.994 71.4295 66.13 72.2938 66.13C76.8088 66.13 80.4691 62.4698 80.4691 57.9548C80.4691 55.494 79.3766 53.2927 77.6561 51.7936Z" fill="#C7EDE6"/>
<path d="M39.4993 55.3536C39.4993 55.3536 42.2046 55.3536 44.0514 55.3536C45.8983 55.3536 47.3958 53.856 47.3958 52.0092C47.3958 50.2753 46.0715 48.8662 44.3822 48.6982C44.3985 48.5637 44.423 48.4321 44.423 48.2931C44.423 46.4463 42.9255 44.9487 41.0786 44.9487C40.0099 44.9487 39.0697 45.4586 38.4573 46.2389C38.3533 44.2798 36.7465 42.7191 34.7614 42.7191C32.7094 42.7191 31.0454 44.3831 31.0454 46.4351C31.0454 46.7666 31.1026 47.0817 31.1843 47.3879C30.7072 46.8105 29.9945 46.4351 29.1874 46.4351C27.8637 46.4351 26.7838 47.4273 26.6196 48.7056C26.4851 48.6893 26.3535 48.6647 26.2145 48.6647C24.3677 48.6647 22.8701 50.1623 22.8701 52.0092C22.8701 53.856 24.3677 55.3536 26.2145 55.3536C28.0614 55.3536 33.275 55.3536 33.275 55.3536H37.2697V55.7252H39.4993V55.3536Z" fill="#FDFCEF"/>
<path d="M34.7609 42.3475C32.5068 42.3475 30.6733 44.181 30.6733 46.4352C30.6733 46.447 30.6733 46.4582 30.6733 46.4701C30.2259 46.2062 29.7146 46.0636 29.1869 46.0636C27.8261 46.0636 26.6518 47.0007 26.3196 48.2969C26.2847 48.2947 26.2497 48.2932 26.2141 48.2932C24.1651 48.2932 22.498 49.9602 22.498 52.0092C22.498 54.0582 24.1651 55.7252 26.2141 55.7252H37.2692C37.4744 55.7252 37.6408 55.5587 37.6408 55.3536C37.6408 55.1485 37.4744 54.982 37.2692 54.982H26.2141C24.5746 54.982 23.2413 53.6487 23.2413 52.0092C23.2413 50.3697 24.5746 49.0364 26.2141 49.0364C26.301 49.0364 26.385 49.049 26.469 49.0602L26.5738 49.0743C26.5894 49.0765 26.6042 49.0772 26.6199 49.0772C26.8027 49.0772 26.9632 48.9398 26.9877 48.7525C27.1297 47.6429 28.075 46.8068 29.1869 46.8068C29.8446 46.8068 30.4674 47.1048 30.897 47.6243C30.9698 47.712 31.0761 47.7595 31.1839 47.7595C31.2418 47.7595 31.2998 47.7462 31.3533 47.7179C31.5087 47.6384 31.5867 47.4608 31.5421 47.2921C31.4566 46.9688 31.4165 46.6968 31.4165 46.4352C31.4165 44.5913 32.917 43.0907 34.7609 43.0907C36.5305 43.0907 37.9916 44.482 38.086 46.259C38.0942 46.4136 38.1975 46.5466 38.3454 46.5935C38.3825 46.6054 38.4204 46.6113 38.4584 46.6113C38.5698 46.6113 38.6783 46.56 38.7497 46.4686C39.3227 45.7388 40.1707 45.3203 41.0781 45.3203C42.7177 45.3203 44.051 46.6537 44.051 48.2932C44.051 48.3801 44.0383 48.4641 44.0272 48.5481L44.0131 48.6529C44.0012 48.7525 44.0294 48.8521 44.0918 48.9301C44.1543 49.0081 44.2457 49.0579 44.3445 49.0676C45.8726 49.2199 47.0238 50.4849 47.0238 52.0092C47.0238 53.6487 45.6905 54.982 44.051 54.982H39.4988C39.2937 54.982 39.1272 55.1485 39.1272 55.3536C39.1272 55.5587 39.2937 55.7252 39.4988 55.7252H44.051C46.1 55.7252 47.767 54.0582 47.767 52.0092C47.767 50.2277 46.5117 48.7294 44.7919 48.3846C44.7934 48.3541 44.7942 48.3236 44.7942 48.2932C44.7942 46.2442 43.1272 44.5771 41.0781 44.5771C40.2041 44.5771 39.374 44.8863 38.7125 45.4422C38.2681 43.6556 36.6598 42.3475 34.7609 42.3475Z" fill="#472B29"/>
<path d="M33.6468 47.55C32.6041 47.55 31.7078 48.2924 31.4819 49.2898C31.2091 49.1248 30.8977 49.0364 30.5811 49.0364C29.6878 49.0364 28.9476 49.703 28.8324 50.5733C28.6815 50.5391 28.5381 50.5228 28.3976 50.5228C27.2612 50.5228 26.3084 51.4146 26.2289 52.5532C26.2222 52.6558 26.2995 52.745 26.4013 52.7524C26.4058 52.7524 26.4103 52.7524 26.4147 52.7524C26.5113 52.7524 26.5931 52.6773 26.5998 52.58C26.6659 51.6354 27.4552 50.8944 28.3976 50.8944C28.5678 50.8944 28.7469 50.9256 28.9461 50.9888C28.9624 50.994 28.9795 50.9962 28.9959 50.9962C29.0367 50.9962 29.0776 50.9813 29.1118 50.9561C29.1594 50.9219 29.1876 50.8609 29.1876 50.8015C29.1876 50.033 29.8126 49.408 30.5811 49.408C30.9133 49.408 31.2389 49.5328 31.496 49.7595C31.5309 49.79 31.5748 49.8063 31.6186 49.8063C31.6424 49.8063 31.6655 49.8019 31.6878 49.7922C31.7532 49.7662 31.7977 49.7052 31.8029 49.6346C31.8802 48.6737 32.6896 47.9216 33.6468 47.9216C33.8014 47.9216 33.9627 47.9468 34.1537 48.0011C34.1708 48.0063 34.1886 48.0085 34.2057 48.0085C34.2867 48.0085 34.3596 47.9543 34.3834 47.8733C34.4116 47.7744 34.3544 47.6718 34.2555 47.6436C34.0311 47.5797 33.8371 47.55 33.6468 47.55Z" fill="#472B29"/>
<path d="M43.9645 48.6648C42.979 48.6648 42.1005 49.3314 41.8285 50.2865C41.8003 50.3853 41.8575 50.4879 41.9563 50.5161C41.9742 50.5206 41.9913 50.5228 42.0076 50.5228C42.0886 50.5228 42.1629 50.4693 42.186 50.3875C42.4127 49.5923 43.144 49.0364 43.9645 49.0364C44.0514 49.0364 44.1354 49.0468 44.2186 49.0579C44.2276 49.0594 44.2357 49.0602 44.2447 49.0602C44.3346 49.0602 44.4149 48.9918 44.4275 48.8989C44.4416 48.7971 44.3703 48.7034 44.2684 48.6901C44.1688 48.6767 44.0678 48.6648 43.9645 48.6648Z" fill="#472B29"/>
<path d="M36.9205 68.3597H29.5591C29.354 68.3597 29.1875 68.1932 29.1875 67.9881C29.1875 67.783 29.354 67.6165 29.5591 67.6165H36.9205C37.1257 67.6165 37.2921 67.783 37.2921 67.9881C37.2921 68.1932 37.1264 68.3597 36.9205 68.3597Z" fill="white"/>
<path d="M39.2213 68.3598H38.478C38.2729 68.3598 38.1064 68.1933 38.1064 67.9882C38.1064 67.7831 38.2729 67.6166 38.478 67.6166H39.2213C39.4264 67.6166 39.5929 67.7831 39.5929 67.9882C39.5929 68.1933 39.4271 68.3598 39.2213 68.3598Z" fill="white"/>
<path d="M42.9297 69.8461H36.2476C36.0425 69.8461 35.876 69.6796 35.876 69.4745C35.876 69.2694 36.0425 69.1029 36.2476 69.1029H42.9297C43.1349 69.1029 43.3013 69.2694 43.3013 69.4745C43.3013 69.6796 43.1349 69.8461 42.9297 69.8461Z" fill="white"/>
<path d="M34.7613 69.8461H34.0181C33.813 69.8461 33.6465 69.6796 33.6465 69.4745C33.6465 69.2694 33.813 69.1029 34.0181 69.1029H34.7613C34.9664 69.1029 35.1329 69.2694 35.1329 69.4745C35.1329 69.6796 34.9672 69.8461 34.7613 69.8461Z" fill="white"/>
<path d="M32.5318 69.8461H31.0454C30.8403 69.8461 30.6738 69.6796 30.6738 69.4745C30.6738 69.2694 30.8403 69.1029 31.0454 69.1029H32.5318C32.737 69.1029 32.9034 69.2694 32.9034 69.4745C32.9034 69.6796 32.7377 69.8461 32.5318 69.8461Z" fill="white"/>
<path d="M36.9908 71.3324H35.5044C35.2993 71.3324 35.1328 71.166 35.1328 70.9608C35.1328 70.7557 35.2993 70.5892 35.5044 70.5892H36.9908C37.1959 70.5892 37.3624 70.7557 37.3624 70.9608C37.3624 71.166 37.1959 71.3324 36.9908 71.3324Z" fill="white"/>
<path d="M39.2213 64.6436C39.0897 64.6436 38.6096 64.6436 38.478 64.6436C38.2729 64.6436 38.1064 64.81 38.1064 65.0152C38.1064 65.2203 38.2729 65.3868 38.478 65.3868C38.6096 65.3868 39.0897 65.3868 39.2213 65.3868C39.4264 65.3868 39.5929 65.2203 39.5929 65.0152C39.5929 64.81 39.4264 64.6436 39.2213 64.6436Z" fill="white"/>
<path d="M39.2204 66.13C39.0889 66.13 35.636 66.13 35.5044 66.13C35.2993 66.13 35.1328 66.2965 35.1328 66.5016C35.1328 66.7067 35.2993 66.8732 35.5044 66.8732C35.636 66.8732 39.0889 66.8732 39.2204 66.8732C39.4256 66.8732 39.592 66.7067 39.592 66.5016C39.592 66.2965 39.4256 66.13 39.2204 66.13Z" fill="white"/>
<path d="M42.9372 67.6166C42.8056 67.6166 40.8391 67.6166 40.7075 67.6166C40.5024 67.6166 40.3359 67.7831 40.3359 67.9882C40.3359 68.1933 40.5024 68.3598 40.7075 68.3598C40.8391 68.3598 42.8056 68.3598 42.9372 68.3598C43.1423 68.3598 43.3088 68.1933 43.3088 67.9882C43.3088 67.7831 43.1423 67.6166 42.9372 67.6166Z" fill="white"/>
<path d="M64.4902 24.5105H57.0581C56.853 24.5105 56.6865 24.3441 56.6865 24.1389C56.6865 23.9338 56.853 23.7673 57.0581 23.7673H64.4902C64.6953 23.7673 64.8618 23.9338 64.8618 24.1389C64.8618 24.3441 64.6953 24.5105 64.4902 24.5105Z" fill="white"/>
<path d="M67.4625 24.5105H65.9761C65.771 24.5105 65.6045 24.3441 65.6045 24.1389C65.6045 23.9338 65.771 23.7673 65.9761 23.7673H67.4625C67.6676 23.7673 67.8341 23.9338 67.8341 24.1389C67.8341 24.3441 67.6676 24.5105 67.4625 24.5105Z" fill="white"/>
<path d="M71.1786 25.997H63.7466C63.5415 25.997 63.375 25.8305 63.375 25.6254C63.375 25.4203 63.5415 25.2538 63.7466 25.2538H71.1786C71.3838 25.2538 71.5502 25.4203 71.5502 25.6254C71.5502 25.8305 71.3845 25.997 71.1786 25.997Z" fill="white"/>
<path d="M62.2603 25.997H61.5171C61.312 25.997 61.1455 25.8305 61.1455 25.6254C61.1455 25.4203 61.312 25.2538 61.5171 25.2538H62.2603C62.4654 25.2538 62.6319 25.4203 62.6319 25.6254C62.6319 25.8305 62.4654 25.997 62.2603 25.997Z" fill="white"/>
<path d="M59.937 25.997H58.5435C58.3384 25.997 58.1719 25.8305 58.1719 25.6254C58.1719 25.4202 58.3384 25.2538 58.5435 25.2538H59.937C60.1421 25.2538 60.3086 25.4202 60.3086 25.6254C60.3086 25.8305 60.1421 25.997 59.937 25.997Z" fill="white"/>
<path d="M66.7195 23.0242H63.0034C62.7983 23.0242 62.6318 22.8577 62.6318 22.6526C62.6318 22.4475 62.7983 22.281 63.0034 22.281H66.7195C66.9246 22.281 67.0911 22.4475 67.0911 22.6526C67.0911 22.8577 66.9253 23.0242 66.7195 23.0242Z" fill="white"/>
<path d="M64.4898 27.4835H63.0034C62.7983 27.4835 62.6318 27.317 62.6318 27.1119C62.6318 26.9068 62.7983 26.7403 63.0034 26.7403H64.4898C64.695 26.7403 64.8614 26.9068 64.8614 27.1119C64.8614 27.317 64.695 27.4835 64.4898 27.4835Z" fill="white"/>
<path d="M37.1131 63.2472L58.9952 53.7802L45.5603 40.3453L36.0934 62.2275C35.8147 62.8719 36.468 63.5259 37.1131 63.2472Z" fill="#EF9922"/>
<path d="M36.6738 62.666L52.07 48.239L48.4239 44.5928L36.6738 62.666Z" fill="#FBCD59"/>
<path d="M59.2583 53.5175C60.5644 52.2114 58.6133 48.1429 54.9005 44.4302C51.1877 40.7175 47.1191 38.7666 45.8131 40.0727C44.507 41.3788 46.4581 45.4473 50.1709 49.16C53.8837 52.8727 57.9523 54.8236 59.2583 53.5175Z" fill="#472B29"/>
<path d="M49.757 44.3631C49.5854 44.1915 49.5006 43.9388 49.5549 43.6838C49.5638 43.6437 50.388 39.6074 48.6957 37.1801C48.0113 36.1975 47.0176 35.6186 45.6627 35.4194C45.2562 35.36 44.9753 34.9809 45.0355 34.5759C45.0957 34.1701 45.4732 33.8892 45.879 33.9486C47.6389 34.2072 48.9982 35.0092 49.9191 36.335C51.9777 39.2945 51.0495 43.8013 51.0086 43.9915C50.9231 44.3929 50.5292 44.6485 50.1279 44.5638C49.9822 44.5333 49.8551 44.4612 49.757 44.3631Z" fill="#EE3E54"/>
<path d="M50.2834 44.7659C50.2188 44.7659 50.1534 44.7592 50.0887 44.7451C49.9133 44.7079 49.752 44.621 49.6249 44.4939C49.4012 44.2702 49.3068 43.9528 49.373 43.6444C49.3812 43.605 50.1913 39.6504 48.5428 37.2863C47.8873 36.3454 46.936 35.7947 45.6354 35.6037C45.3902 35.568 45.1731 35.4387 45.0252 35.2388C44.8766 35.0396 44.8157 34.7943 44.8521 34.5491C44.8878 34.3038 45.0178 34.0876 45.2162 33.9389C45.4154 33.791 45.6622 33.7293 45.9059 33.765C47.7194 34.0311 49.121 34.8597 50.0716 36.2287C52.1778 39.2573 51.2317 43.8369 51.1901 44.0301C51.1396 44.2724 50.9961 44.4805 50.788 44.6158C50.6349 44.7154 50.461 44.7659 50.2834 44.7659ZM45.7692 34.1269C45.6503 34.1269 45.5351 34.1648 45.4385 34.2369C45.3188 34.3261 45.2408 34.4554 45.2192 34.6033C45.1977 34.7505 45.2348 34.8976 45.324 35.0166C45.4125 35.1362 45.5425 35.2142 45.6897 35.2351C47.098 35.4424 48.1311 36.0429 48.8483 37.073C50.6 39.5865 49.7453 43.6808 49.7364 43.7217C49.697 43.906 49.7535 44.0963 49.888 44.2308C49.9646 44.3074 50.0597 44.3594 50.166 44.3809C50.3131 44.4121 50.4603 44.3839 50.5852 44.3036C50.71 44.2226 50.7955 44.0978 50.8267 43.9528C50.8668 43.7656 51.781 39.339 49.7661 36.4413C48.8758 35.16 47.5588 34.3833 45.8509 34.1329C45.8242 34.1292 45.7967 34.1269 45.7692 34.1269Z" fill="#472B29"/>
<path d="M54.8378 47.7826C54.7435 47.6882 54.6736 47.567 54.6402 47.4281C54.5458 47.0282 54.794 46.6291 55.1931 46.5347C55.558 46.4493 64.174 44.4582 68.1843 47.1888C69.3273 47.9662 70.0059 49.0453 70.2006 50.3927C70.2593 50.7992 69.9776 51.176 69.5711 51.2348C69.1653 51.2935 68.7878 51.0118 68.7291 50.606C68.5946 49.6748 68.1412 48.9576 67.3482 48.4188C63.8774 46.0554 55.6167 47.9632 55.5335 47.9825C55.2741 48.042 55.0132 47.958 54.8378 47.7826Z" fill="#00A5A5"/>
<path d="M69.4625 51.4273C69.2633 51.4273 69.0716 51.3634 68.9088 51.2422C68.7096 51.0936 68.5818 50.8766 68.5461 50.6313C68.4183 49.7543 67.9932 49.0802 67.244 48.5711C63.8476 46.2568 55.6597 48.1431 55.5765 48.1616C55.2621 48.2367 54.9351 48.143 54.7062 47.9134C54.5843 47.7915 54.4988 47.6377 54.4594 47.4697C54.342 46.9718 54.6519 46.4708 55.1506 46.3527C55.5192 46.2657 64.2199 44.2635 68.289 47.0342C69.4774 47.8421 70.1819 48.9628 70.3848 50.3645C70.4205 50.6105 70.3588 50.855 70.2101 51.0534C70.0615 51.2526 69.8445 51.3812 69.5992 51.4169C69.5532 51.4236 69.5078 51.4273 69.4625 51.4273ZM61.994 47.0543C64.0304 47.0543 66.0973 47.3396 67.4536 48.2634C68.2934 48.8342 68.7706 49.5916 68.914 50.5778C68.9356 50.7249 69.0128 50.8557 69.1325 50.9442C69.2514 51.0334 69.3993 51.0698 69.5457 51.049C69.6936 51.0274 69.8237 50.9501 69.9129 50.8312C70.0021 50.7116 70.0392 50.5652 70.0184 50.418C69.8304 49.1233 69.1786 48.0881 68.0809 47.3411C64.1471 44.6619 55.5995 46.6291 55.2376 46.7146C54.938 46.7852 54.7522 47.0862 54.8221 47.385C54.8459 47.4861 54.8972 47.5782 54.97 47.6511C55.1082 47.7893 55.3015 47.845 55.4932 47.7997C55.5438 47.7878 58.7291 47.0543 61.994 47.0543Z" fill="#472B29"/>
<path d="M36.6322 62.8763C36.5973 62.8763 36.5624 62.8666 36.5311 62.8466C36.4449 62.7908 36.4204 62.6756 36.4761 62.5894L41.7373 54.4588C41.7938 54.3725 41.9075 54.348 41.9944 54.4038C42.0807 54.4595 42.1052 54.5747 42.0494 54.6609L36.7883 62.7916C36.7526 62.8466 36.6932 62.8763 36.6322 62.8763Z" fill="#472B29"/>
<path d="M42.9525 53.1092C42.9176 53.1092 42.8827 53.0995 42.8515 53.0795C42.7652 53.0237 42.7407 52.9085 42.7965 52.8223L45.0186 49.388C45.0751 49.3017 45.1888 49.2772 45.2758 49.333C45.362 49.3887 45.3865 49.5039 45.3308 49.5901L43.1086 53.0245C43.0737 53.0787 43.0142 53.1092 42.9525 53.1092Z" fill="#472B29"/>
<path d="M46.2348 48.0375C46.1998 48.0375 46.1649 48.0279 46.1337 48.0078C46.0475 47.952 46.0229 47.8369 46.0787 47.7506L47.6766 45.2802C47.7323 45.194 47.8468 45.1695 47.9337 45.2252C48.0199 45.281 48.0445 45.3962 47.9887 45.4824L46.3908 47.9528C46.3552 48.007 46.2957 48.0375 46.2348 48.0375Z" fill="#472B29"/>
<path d="M45.8086 41.6445L57.6961 53.532L36.8017 62.5694L36.7764 62.5225L45.8086 41.6445ZM45.5604 40.3453L36.0934 62.2275C35.8601 62.7671 36.28 63.3126 36.801 63.3126C36.9028 63.3126 37.0076 63.2918 37.1131 63.2464L58.9953 53.7795L45.5604 40.3453Z" fill="#472B29"/>
<path d="M37.2563 62.3182C37.2073 62.3182 37.1575 62.2981 37.1203 62.2594C37.0504 62.1844 37.0542 62.067 37.1292 61.9971L45.4345 54.2091C45.5088 54.1392 45.6263 54.1422 45.6976 54.2172C45.7675 54.2923 45.7638 54.4097 45.6887 54.4796L37.3834 62.2676C37.3477 62.3011 37.3024 62.3182 37.2563 62.3182Z" fill="#472B29"/>
<path d="M47.0864 53.101C47.0373 53.101 46.9875 53.0809 46.9504 53.0423C46.8805 52.9672 46.8842 52.8498 46.9593 52.7799L50.8254 49.1546C50.8998 49.0847 51.0172 49.0877 51.0885 49.1628C51.1584 49.2378 51.1547 49.3553 51.0796 49.4251L47.2135 53.0505C47.1778 53.0839 47.1325 53.101 47.0864 53.101Z" fill="#472B29"/>
<path d="M54.8287 37.8882C55.4444 37.8882 55.9435 37.3891 55.9435 36.7734C55.9435 36.1577 55.4444 35.6586 54.8287 35.6586C54.213 35.6586 53.7139 36.1577 53.7139 36.7734C53.7139 37.3891 54.213 37.8882 54.8287 37.8882Z" fill="#83CCB7"/>
<path d="M54.828 38.074C54.1108 38.074 53.5273 37.4906 53.5273 36.7734C53.5273 36.0562 54.1108 35.4728 54.828 35.4728C55.5451 35.4728 56.1286 36.0562 56.1286 36.7734C56.1286 37.4906 55.5451 38.074 54.828 38.074ZM54.828 35.8444C54.3159 35.8444 53.8989 36.2613 53.8989 36.7734C53.8989 37.2855 54.3159 37.7024 54.828 37.7024C55.34 37.7024 55.757 37.2855 55.757 36.7734C55.757 36.2613 55.34 35.8444 54.828 35.8444Z" fill="#472B29"/>
<path d="M58.1729 31.9425C58.9939 31.9425 59.6593 31.2771 59.6593 30.4561C59.6593 29.6352 58.9939 28.9697 58.1729 28.9697C57.352 28.9697 56.6865 29.6352 56.6865 30.4561C56.6865 31.2771 57.352 31.9425 58.1729 31.9425Z" fill="#EE3E54"/>
<path d="M58.1722 32.1285C57.2506 32.1285 56.5 31.3786 56.5 30.4563C56.5 29.534 57.2506 28.7841 58.1722 28.7841C59.0938 28.7841 59.8444 29.534 59.8444 30.4563C59.8444 31.3786 59.0938 32.1285 58.1722 32.1285ZM58.1722 29.1557C57.455 29.1557 56.8716 29.7391 56.8716 30.4563C56.8716 31.1735 57.455 31.7569 58.1722 31.7569C58.8894 31.7569 59.4728 31.1735 59.4728 30.4563C59.4728 29.7391 58.8894 29.1557 58.1722 29.1557Z" fill="#472B29"/>
<path d="M65.9752 43.0908C66.5908 43.0908 67.09 42.5917 67.09 41.976C67.09 41.3603 66.5908 40.8612 65.9752 40.8612C65.3595 40.8612 64.8604 41.3603 64.8604 41.976C64.8604 42.5917 65.3595 43.0908 65.9752 43.0908Z" fill="#EE3E54"/>
<path d="M65.9754 43.2766C65.2582 43.2766 64.6748 42.6932 64.6748 41.976C64.6748 41.2588 65.2582 40.6754 65.9754 40.6754C66.6926 40.6754 67.276 41.2588 67.276 41.976C67.276 42.6932 66.6926 43.2766 65.9754 43.2766ZM65.9754 41.047C65.4633 41.047 65.0464 41.464 65.0464 41.976C65.0464 42.4881 65.4633 42.905 65.9754 42.905C66.4875 42.905 66.9044 42.4881 66.9044 41.976C66.9044 41.464 66.4875 41.047 65.9754 41.047Z" fill="#472B29"/>
<path d="M71.5499 45.3204C72.3708 45.3204 73.0363 44.6549 73.0363 43.8339C73.0363 43.013 72.3708 42.3475 71.5499 42.3475C70.729 42.3475 70.0635 43.013 70.0635 43.8339C70.0635 44.6549 70.729 45.3204 71.5499 45.3204Z" fill="#88AE45"/>
<path d="M71.5501 45.5062C70.6286 45.5062 69.8779 44.7563 69.8779 43.834C69.8779 42.9116 70.6286 42.1617 71.5501 42.1617C72.4717 42.1617 73.2223 42.9116 73.2223 43.834C73.2223 44.7563 72.4717 45.5062 71.5501 45.5062ZM71.5501 42.5333C70.8329 42.5333 70.2495 43.1168 70.2495 43.834C70.2495 44.5511 70.8329 45.1346 71.5501 45.1346C72.2673 45.1346 72.8507 44.5511 72.8507 43.834C72.8507 43.1168 72.2673 42.5333 71.5501 42.5333Z" fill="#472B29"/>
<path d="M63.7472 52.3807C64.5681 52.3807 65.2336 51.7152 65.2336 50.8942C65.2336 50.0733 64.5681 49.4078 63.7472 49.4078C62.9262 49.4078 62.2607 50.0733 62.2607 50.8942C62.2607 51.7152 62.9262 52.3807 63.7472 52.3807Z" fill="#FFCE00"/>
<path d="M63.7464 52.5666C62.8249 52.5666 62.0742 51.8167 62.0742 50.8944C62.0742 49.9721 62.8249 49.2222 63.7464 49.2222C64.668 49.2222 65.4186 49.9721 65.4186 50.8944C65.4186 51.8167 64.668 52.5666 63.7464 52.5666ZM63.7464 49.5938C63.0292 49.5938 62.4458 50.1772 62.4458 50.8944C62.4458 51.6116 63.0292 52.195 63.7464 52.195C64.4636 52.195 65.047 51.6116 65.047 50.8944C65.047 50.1772 64.4636 49.5938 63.7464 49.5938Z" fill="#472B29"/>
<path d="M73.7794 56.4684C74.6003 56.4684 75.2658 55.8029 75.2658 54.982C75.2658 54.1611 74.6003 53.4956 73.7794 53.4956C72.9585 53.4956 72.293 54.1611 72.293 54.982C72.293 55.8029 72.9585 56.4684 73.7794 56.4684Z" fill="#78A0CF"/>
<path d="M73.7796 56.6542C72.8581 56.6542 72.1074 55.9043 72.1074 54.982C72.1074 54.0597 72.8581 53.3098 73.7796 53.3098C74.7012 53.3098 75.4518 54.0597 75.4518 54.982C75.4518 55.9043 74.7012 56.6542 73.7796 56.6542ZM73.7796 53.6814C73.0624 53.6814 72.479 54.2648 72.479 54.982C72.479 55.6992 73.0624 56.2826 73.7796 56.2826C74.4968 56.2826 75.0802 55.6992 75.0802 54.982C75.0802 54.2648 74.4968 53.6814 73.7796 53.6814Z" fill="#472B29"/>
<path d="M51.4845 29.7131C52.3054 29.7131 52.9709 29.0476 52.9709 28.2266C52.9709 27.4057 52.3054 26.7402 51.4845 26.7402C50.6635 26.7402 49.998 27.4057 49.998 28.2266C49.998 29.0476 50.6635 29.7131 51.4845 29.7131Z" fill="#78A0CF"/>
<path d="M51.4837 29.8989C50.5622 29.8989 49.8115 29.149 49.8115 28.2267C49.8115 27.3043 50.5622 26.5544 51.4837 26.5544C52.4053 26.5544 53.1559 27.3043 53.1559 28.2267C53.1559 29.149 52.4053 29.8989 51.4837 29.8989ZM51.4837 26.926C50.7665 26.926 50.1831 27.5095 50.1831 28.2267C50.1831 28.9438 50.7665 29.5273 51.4837 29.5273C52.2009 29.5273 52.7843 28.9438 52.7843 28.2267C52.7843 27.5095 52.2009 26.926 51.4837 26.926Z" fill="#472B29"/>
<path d="M35.1334 39.7463C36.1596 39.7463 36.9914 38.9144 36.9914 37.8883C36.9914 36.8621 36.1596 36.0302 35.1334 36.0302C34.1073 36.0302 33.2754 36.8621 33.2754 37.8883C33.2754 38.9144 34.1073 39.7463 35.1334 39.7463Z" fill="#FFCE00"/>
<path d="M35.1327 39.9321C34.0052 39.9321 33.0889 39.015 33.0889 37.8883C33.0889 36.7616 34.0052 35.8445 35.1327 35.8445C36.2601 35.8445 37.1765 36.7616 37.1765 37.8883C37.1765 39.015 36.2601 39.9321 35.1327 39.9321ZM35.1327 36.2161C34.2111 36.2161 33.4605 36.9659 33.4605 37.8883C33.4605 38.8106 34.2111 39.5605 35.1327 39.5605C36.0543 39.5605 36.8049 38.8106 36.8049 37.8883C36.8049 36.9659 36.0543 36.2161 35.1327 36.2161Z" fill="#472B29"/>
<path d="M54.8769 42.3988C54.7343 42.2561 54.6503 42.0562 54.6599 41.8384C54.6793 41.4282 55.0271 41.1116 55.4373 41.1309C59.2648 41.3108 60.5959 40.6337 61.0381 40.0339C61.3532 39.6073 61.3577 38.9875 61.053 38.1395C60.5662 36.7869 60.8538 35.8831 61.1801 35.3622C61.7018 34.5305 62.6375 34.1559 63.3398 34.0831C63.5301 34.063 63.7419 34.0556 63.9656 34.0489C64.5847 34.0288 65.2253 34.0095 65.5308 33.6587C65.785 33.3667 65.8734 32.781 65.7872 31.9665C65.6452 30.6324 66.1491 29.826 66.5965 29.3846C67.9254 28.0728 70.291 28.3158 70.5563 28.3478C70.9636 28.3961 71.2542 28.767 71.2051 29.1742C71.1561 29.5815 70.7867 29.8714 70.3802 29.8238C69.8533 29.7621 68.3341 29.7554 67.6385 30.4451C67.3226 30.758 67.2008 31.2039 67.2647 31.8096C67.4007 33.082 67.2 34.0066 66.6515 34.636C65.9202 35.4751 64.818 35.5101 64.0124 35.5353C63.8274 35.5405 63.652 35.5457 63.4944 35.5621C63.157 35.5978 62.6784 35.7739 62.439 36.1529C62.2191 36.503 62.2235 37.0024 62.4517 37.6364C62.9311 38.9682 62.8582 40.0718 62.2339 40.9169C61.2633 42.2308 59.0173 42.7868 55.3675 42.6151C55.1757 42.6069 55.0033 42.5252 54.8769 42.3988Z" fill="#FFCE00"/>
<path d="M64.6838 34.1916C64.5909 34.1916 64.5114 34.1225 64.4995 34.0281C64.4868 33.9263 64.5597 33.8334 64.6615 33.8215C65.0294 33.7762 65.2613 33.6862 65.3906 33.5376C65.6068 33.2894 65.6819 32.7379 65.6016 31.9873C65.5912 31.8855 65.6648 31.7941 65.7674 31.7829C65.8737 31.7732 65.9614 31.8461 65.9718 31.9479C66.0647 32.8278 65.9636 33.4447 65.6708 33.7814C65.4166 34.0735 64.9989 34.1545 64.7061 34.1901C64.6979 34.1909 64.6912 34.1916 64.6838 34.1916Z" fill="#472B29"/>
<path d="M56.5899 42.8314C56.1982 42.8314 55.7879 42.821 55.3591 42.8009C55.1272 42.7905 54.9102 42.6939 54.746 42.5297C54.5617 42.3454 54.4621 42.0904 54.4747 41.8296C54.4873 41.5813 54.5944 41.3532 54.7772 41.186C54.9615 41.0187 55.2008 40.9325 55.4461 40.9452C59.3851 41.1302 60.5482 40.3848 60.8886 39.9233C61.1643 39.5502 61.1606 38.9868 60.8782 38.202C60.3661 36.7795 60.6745 35.8185 61.0223 35.2634C61.579 34.3752 62.5741 33.9761 63.3196 33.8981C63.4236 33.8877 63.5136 33.9613 63.524 34.0638C63.5344 34.1657 63.46 34.2571 63.3582 34.2675C62.699 34.3366 61.8228 34.6859 61.3367 35.4603C61.032 35.9456 60.7652 36.7936 61.2275 38.0757C61.5545 38.9861 61.5418 39.6624 61.1866 40.1432C60.5036 41.0685 58.569 41.4639 55.4275 41.3153C55.1176 41.2974 54.8589 41.539 54.8448 41.8459C54.8374 42.002 54.8961 42.1558 55.0076 42.2658C55.1064 42.3647 55.2372 42.4219 55.3755 42.4286C58.9607 42.5981 61.1524 42.0659 62.0829 40.8054C62.1438 40.7229 62.2605 40.7059 62.343 40.7661C62.4255 40.827 62.4433 40.9437 62.3824 41.0262C61.4898 42.2376 59.5887 42.8314 56.5899 42.8314Z" fill="#472B29"/>
<path d="M62.7568 39.6453C62.7531 39.6453 62.7486 39.6453 62.7442 39.6453C62.6416 39.6386 62.5643 39.5501 62.5717 39.4476C62.6059 38.9266 62.5071 38.3387 62.2774 37.6996C62.0284 37.0091 62.0299 36.4555 62.2819 36.0541C62.5561 35.6186 63.0964 35.4172 63.4747 35.3771C63.6315 35.3607 63.804 35.3555 63.9868 35.3503C64.7768 35.3258 65.8322 35.2923 66.5107 34.5142C67.0228 33.9263 67.2086 33.0479 67.0793 31.8297C67.0094 31.1646 67.1491 30.6689 67.5073 30.3136C68.4088 29.4188 70.3821 29.6373 70.4021 29.6395C70.7016 29.6745 70.9833 29.4574 71.0205 29.1527C71.0383 29.0041 70.9974 28.8584 70.9053 28.741C70.8139 28.6243 70.6823 28.55 70.5352 28.5329C70.278 28.5017 67.9949 28.2661 66.727 29.5176C66.4371 29.803 66.2253 30.1479 66.096 30.5425C66.0648 30.6399 65.9622 30.6941 65.8619 30.6614C65.7645 30.6295 65.7118 30.5247 65.7437 30.4273C65.8909 29.9762 66.1339 29.5808 66.4661 29.2538C67.8574 27.8811 70.3048 28.1316 70.5798 28.1643C70.825 28.1933 71.045 28.3166 71.1981 28.5121C71.3512 28.7075 71.4196 28.9513 71.3898 29.1981C71.3296 29.7057 70.8681 30.0691 70.359 30.0096C69.8908 29.9546 68.4111 29.942 67.7697 30.5782C67.4969 30.8487 67.3921 31.2448 67.4501 31.7911C67.5913 33.1177 67.3758 34.0891 66.7916 34.7587C66.0061 35.6595 64.8571 35.6952 64.0187 35.7219C63.8255 35.7279 63.662 35.7323 63.5134 35.7479C63.1938 35.7814 62.7865 35.9508 62.597 36.2533C62.409 36.5528 62.4194 36.9972 62.6275 37.5747C62.8742 38.2622 62.9812 38.9006 62.9426 39.4729C62.9352 39.5695 62.8541 39.6453 62.7568 39.6453Z" fill="#472B29"/>
<path d="M40.1595 42.2695C40.1275 42.2375 40.0985 42.2026 40.0718 42.1632C39.8399 41.8243 39.9261 41.3621 40.2643 41.1302C42.8105 39.3851 42.7778 38.6442 42.7659 38.5661C42.7547 38.4963 42.6522 38.2525 41.7819 37.9879C40.9889 37.7464 40.0628 37.1748 39.8429 36.2941C39.7566 35.9493 39.7173 35.2648 40.4211 34.561C40.5801 34.4019 40.7473 34.2518 40.9094 34.1084C41.1279 33.9137 41.4943 33.5874 41.5158 33.4588C41.5158 33.4588 41.4772 33.1794 40.5348 32.5514C39.6236 31.9442 39.414 31.1965 39.3984 30.677C39.3457 28.9 41.4816 27.233 41.7254 27.0487C42.0524 26.8005 42.5176 26.8666 42.7659 27.1929C43.0134 27.5191 42.9494 27.9859 42.6224 28.2334C42.045 28.6726 40.8603 29.8364 40.8848 30.6332C40.89 30.7929 40.9443 31.0375 41.3597 31.3139C42.447 32.0386 42.9524 32.6695 42.9992 33.3592C43.0572 34.1872 42.4418 34.7349 41.8978 35.218C41.7574 35.3428 41.6117 35.4729 41.4727 35.6111C41.3694 35.7144 41.2653 35.8534 41.2854 35.9329C41.3233 36.0898 41.6697 36.3989 42.2152 36.5647C42.6685 36.7022 44.0486 37.1236 44.2352 38.3387C44.4128 39.4936 43.4184 40.7705 41.1048 42.3557C40.8046 42.5623 40.4077 42.5177 40.1595 42.2695Z" fill="#88AE45"/>
<path d="M41.5162 33.6446C41.4322 33.6446 41.3564 33.5874 41.3356 33.5034C41.3274 33.4826 41.2114 33.2262 40.4318 32.7067C39.4553 32.0556 39.2301 31.247 39.213 30.6829C39.21 30.5804 39.2903 30.4949 39.3928 30.4919C39.3951 30.4919 39.3973 30.4919 39.3988 30.4919C39.4991 30.4919 39.5816 30.5715 39.5846 30.6725C39.5987 31.1489 39.7927 31.8342 40.6377 32.3975C41.5243 32.9891 41.6745 33.3102 41.6975 33.4209C41.7183 33.5212 41.6544 33.6201 41.5548 33.6409C41.5414 33.6431 41.5281 33.6446 41.5162 33.6446Z" fill="#472B29"/>
<path d="M40.6857 42.6731C40.4464 42.6731 40.2078 42.5809 40.0287 42.401C39.9885 42.3617 39.9521 42.3171 39.9194 42.2688C39.6296 41.8466 39.7373 41.2669 40.1595 40.9771C42.6016 39.3041 42.5838 38.6055 42.5831 38.5921C42.5808 38.5921 42.4924 38.3974 41.7291 38.1655C40.8871 37.9091 39.9031 37.2952 39.6645 36.3395C39.5686 35.9567 39.5225 35.1994 40.2918 34.4302C40.4538 34.2682 40.6232 34.1158 40.789 33.9701C40.8655 33.9018 40.9829 33.9099 41.0513 33.9865C41.119 34.0638 41.1115 34.1805 41.035 34.2488C40.8752 34.3901 40.7109 34.5365 40.5549 34.6933C39.9157 35.3332 39.9491 35.9434 40.025 36.2503C40.2264 37.0559 41.0937 37.5843 41.8384 37.811C42.5348 38.0228 42.9086 38.2681 42.9509 38.5386C42.9836 38.746 42.8937 39.5561 40.3705 41.2848C40.1171 41.4587 40.0525 41.8065 40.2264 42.0599C40.2464 42.0889 40.2687 42.1157 40.2925 42.1394C40.482 42.329 40.78 42.3565 41.0015 42.2048C42.2709 41.3353 43.1219 40.5735 43.6035 39.8764C43.6629 39.7924 43.7766 39.7709 43.8629 39.8296C43.9468 39.8883 43.9684 40.0035 43.9097 40.0882C43.4006 40.8225 42.5191 41.6155 41.2119 42.511C41.0513 42.6188 40.8677 42.6731 40.6857 42.6731Z" fill="#472B29"/>
<path d="M44.2345 38.5253C44.1439 38.5253 44.0644 38.4599 44.051 38.3678C43.8815 37.2671 42.5861 36.8724 42.1603 36.7431C41.6252 36.5803 41.1718 36.2518 41.1042 35.9776C41.0692 35.8394 41.1488 35.6714 41.3405 35.4804C41.4817 35.3392 41.6304 35.2069 41.7738 35.0798C42.3104 34.6034 42.8648 34.1107 42.8128 33.3727C42.7689 32.7454 42.2896 32.1583 41.255 31.4693C40.8901 31.2263 40.708 30.955 40.6976 30.6399C40.6687 29.7005 42.0295 28.4497 42.5088 28.0863C42.6277 27.9963 42.7043 27.8655 42.7244 27.7176C42.7444 27.5705 42.7073 27.4241 42.6166 27.3059C42.4315 27.0606 42.08 27.0123 41.837 27.1974C41.7285 27.2791 40.763 28.0224 40.1328 29.0034C40.0785 29.0903 39.9626 29.1141 39.8764 29.0591C39.7902 29.0034 39.7649 28.8889 39.8207 28.8027C40.471 27.789 41.4275 27.0406 41.6125 26.9009C42.0183 26.5909 42.6025 26.6734 42.9124 27.0807C43.0618 27.2784 43.1257 27.5222 43.0922 27.7682C43.0581 28.0142 42.9302 28.2319 42.7333 28.3813C42.0503 28.9001 41.0484 29.9733 41.0692 30.6273C41.0715 30.7031 41.0782 30.9038 41.4609 31.1594C42.6002 31.9182 43.1309 32.5931 43.1822 33.3467C43.2468 34.266 42.5668 34.871 42.0198 35.357C41.8816 35.4797 41.7381 35.6067 41.6021 35.7428C41.5107 35.8342 41.4706 35.904 41.4654 35.9234C41.4899 35.9679 41.7686 36.2355 42.2665 36.3871C42.7474 36.5335 44.2115 36.9794 44.4166 38.3113C44.4322 38.4123 44.3631 38.5075 44.2613 38.5231C44.2531 38.5246 44.2442 38.5253 44.2345 38.5253Z" fill="#472B29"/>
<path d="M59.4999 58.8579C59.1588 58.1117 59.0473 57.0259 59.1685 55.6108C59.2034 55.2013 59.5631 54.8981 59.9719 54.933C60.3806 54.968 60.6839 55.3269 60.6489 55.7364C60.478 57.7357 60.8741 58.4469 61.1067 58.5458C61.3498 58.6483 62.0513 58.412 62.9863 57.3366C64.2193 55.9163 65.2575 55.8947 65.9108 56.1266C66.9231 56.4841 67.4099 57.5944 67.4329 58.2685C67.4373 58.3919 67.4247 58.5941 67.4061 58.8438C67.2753 60.591 67.4886 60.979 67.6261 61.057C67.6298 61.0593 68.0156 61.2547 69.3526 60.293C70.7959 59.2555 72.0259 58.982 73.0099 59.4814C74.6494 60.3138 74.7148 62.9061 74.7163 63.199C74.7193 63.6092 74.3893 63.9429 73.9798 63.9466C73.5695 63.9496 73.2351 63.6211 73.2306 63.2108C73.2232 62.5695 72.9958 61.1388 72.3358 60.8058C71.8995 60.5851 71.1482 60.8311 70.2206 61.4992C68.793 62.5264 67.7064 62.8051 66.8993 62.3532C65.7035 61.6828 65.8409 59.8352 65.9234 58.7323C65.9368 58.5524 65.9502 58.4068 65.9472 58.3176C65.9398 58.1028 65.7146 57.6331 65.4136 57.5261C65.1148 57.4198 64.6266 57.7126 64.1078 58.3094C62.8295 59.7795 61.5579 60.3488 60.527 59.9125C60.0774 59.7245 59.7348 59.3707 59.4999 58.8579Z" fill="#EE3E54"/>
<path d="M66.8988 62.5404C66.8676 62.5404 66.8363 62.533 66.8081 62.5166C65.5082 61.7875 65.6517 59.8671 65.7386 58.7203L65.7453 58.626C65.7557 58.4981 65.7632 58.3941 65.7609 58.3257C65.7557 58.1667 65.5625 57.778 65.3514 57.7036C65.1783 57.6412 64.7621 57.8419 64.2478 58.4342C62.9122 59.9704 61.5663 60.5561 60.4544 60.0864C59.9624 59.8783 59.5842 59.491 59.33 58.9359C58.9755 58.1607 58.8588 57.037 58.9822 55.5959C59.003 55.3484 59.1197 55.124 59.3084 54.9642C59.4987 54.8044 59.7387 54.7271 59.9862 54.7487C60.4968 54.7925 60.8758 55.2429 60.8327 55.7535C60.6633 57.7378 61.0631 58.3272 61.1791 58.3762C61.3039 58.4312 61.9409 58.2566 62.8453 57.2161C62.9122 57.1381 63.0297 57.1314 63.1077 57.1975C63.185 57.2652 63.1932 57.3826 63.1255 57.4599C62.1839 58.542 61.4005 58.872 61.0341 58.7181C60.6663 58.562 60.2954 57.6836 60.4626 55.7215C60.4886 55.4153 60.2612 55.1448 59.9543 55.1188C59.8138 55.1084 59.6622 55.1515 59.5477 55.2481C59.434 55.344 59.3642 55.4785 59.3515 55.6271C59.2341 57.0035 59.3396 58.0648 59.6674 58.7813C59.8814 59.2495 60.1943 59.5735 60.5986 59.7445C61.5477 60.1473 62.745 59.5951 63.9661 58.1904C64.5547 57.5141 65.0898 57.2183 65.4748 57.3536C65.8546 57.4881 66.1206 58.0202 66.131 58.3138C66.1333 58.3911 66.1251 58.5093 66.1147 58.6542L66.1073 58.7478C66.0285 59.8077 65.8954 61.5795 66.9887 62.1926C67.0786 62.2431 67.1098 62.3561 67.06 62.4453C67.0266 62.507 66.9634 62.5404 66.8988 62.5404Z" fill="#472B29"/>
<path d="M73.9743 64.1332C73.466 64.1332 73.0505 63.7222 73.0438 63.2138C73.0364 62.568 72.7963 61.2481 72.2516 60.9723C71.8829 60.7873 71.1828 61.0355 70.3289 61.6509C69.5151 62.2358 68.8202 62.5791 68.2026 62.7003C68.1037 62.7204 68.0042 62.6542 67.9848 62.5539C67.9655 62.4535 68.0309 62.3554 68.1312 62.3354C68.6872 62.2261 69.3538 61.8939 70.1119 61.3491C71.1122 60.6282 71.9127 60.3837 72.4188 60.6401C73.2133 61.0415 73.4102 62.6698 73.4162 63.2086C73.4199 63.5141 73.6703 63.7608 73.9743 63.7608C73.9758 63.7608 73.9773 63.7608 73.9788 63.7608C74.285 63.7579 74.5332 63.5067 74.531 63.2005C74.5295 62.9195 74.473 60.432 72.9256 59.6472C72.3214 59.3395 71.6027 59.3529 70.7897 59.6836C70.6923 59.7223 70.5853 59.6762 70.5474 59.5818C70.5087 59.4867 70.5541 59.3782 70.6492 59.3395C71.5671 58.9657 72.3898 58.9575 73.0944 59.3157C74.8379 60.2002 74.9018 62.8935 74.9033 63.1982C74.907 63.7088 74.4938 64.128 73.9825 64.1324C73.9788 64.1332 73.9765 64.1332 73.9743 64.1332Z" fill="#472B29"/>
<path d="M67.7392 61.2614C67.6366 61.2614 67.575 61.2406 67.5423 61.2242C67.3312 61.1046 67.0785 60.7322 67.2204 58.8311C67.236 58.626 67.2509 58.3993 67.2465 58.2767C67.2264 57.6546 66.7782 56.632 65.8485 56.3035C65.3097 56.1125 64.7426 56.1942 64.1592 56.5502C64.0752 56.6037 63.9578 56.5762 63.9043 56.4885C63.8508 56.4008 63.8783 56.2864 63.966 56.2329C64.8154 55.7141 65.5252 55.7944 65.9726 55.9534C67.0673 56.3406 67.5935 57.5379 67.6181 58.264C67.6233 58.4045 67.6076 58.6334 67.5906 58.8593C67.456 60.6572 67.6991 60.8831 67.7176 60.8972C67.7176 60.8972 67.7221 60.8972 67.7303 60.8972C67.8061 60.8972 68.223 60.8786 69.2442 60.1443C69.3252 60.0849 69.4434 60.1027 69.5036 60.1867C69.563 60.2699 69.5444 60.3859 69.4605 60.4461C68.5121 61.1276 67.9978 61.2614 67.7392 61.2614Z" fill="#472B29"/>
<path d="M57.8005 69.4746C57.8005 69.4746 58.9651 69.4746 60.4017 69.4746C61.8384 69.4746 63.003 68.31 63.003 66.8734C63.003 65.5497 62.0108 64.4698 60.7325 64.3056C60.7533 64.1726 60.7733 64.0395 60.7733 63.9005C60.7733 62.4639 59.6087 61.2993 58.1721 61.2993C57.4051 61.2993 56.7229 61.6375 56.2472 62.1652C55.9618 60.8215 54.7705 59.8129 53.3413 59.8129C51.6996 59.8129 50.3685 61.144 50.3685 62.7857C50.3685 62.9277 50.3908 63.0637 50.4101 63.2005C50.092 62.9448 49.6937 62.7857 49.2537 62.7857C48.341 62.7857 47.5852 63.445 47.4291 64.313C47.2961 64.2922 47.163 64.2722 47.0241 64.2722C45.5875 64.2722 44.4229 65.4368 44.4229 66.8734C44.4229 68.31 45.5875 69.4746 47.0241 69.4746C48.4607 69.4746 52.5981 69.4746 52.5981 69.4746V69.8462H57.8005V69.4746Z" fill="#FDFCEF"/>
<path d="M59.1018 66.1301C58.9993 66.1301 58.916 66.0468 58.916 65.9443C58.916 65.0353 59.6555 64.2958 60.5644 64.2958C60.5897 64.3025 61.1122 64.2951 61.489 64.3969C61.5878 64.4237 61.6465 64.5255 61.6198 64.6243C61.593 64.7239 61.4912 64.7826 61.3924 64.7551C61.0624 64.666 60.5748 64.666 60.5652 64.6674C59.8606 64.6674 59.2876 65.2405 59.2876 65.9443C59.2876 66.0468 59.2044 66.1301 59.1018 66.1301Z" fill="#472B29"/>
<path d="M54.0845 69.8462C54.2897 69.8462 54.4561 69.6798 54.4561 69.4746C54.4561 69.2693 54.2897 69.103 54.0845 69.103C53.8793 69.103 53.7129 69.2693 53.7129 69.4746C53.7129 69.6798 53.8793 69.8462 54.0845 69.8462Z" fill="#472B29"/>
<path d="M60.4022 69.8461H57.801C57.5959 69.8461 57.4294 69.6796 57.4294 69.4745C57.4294 69.2694 57.5959 69.1029 57.801 69.1029H60.4022C61.6315 69.1029 62.6319 68.1025 62.6319 66.8733C62.6319 65.7614 61.7958 64.8161 60.6862 64.6741C60.5866 64.6607 60.4966 64.6087 60.4364 64.5285C60.3762 64.4482 60.351 64.3471 60.3666 64.2483C60.3837 64.1338 60.4022 64.0194 60.4022 63.9004C60.4022 62.6712 59.4019 61.6708 58.1726 61.6708C57.5409 61.6708 56.9553 61.9347 56.5235 62.414C56.4306 62.5173 56.2849 62.5612 56.1519 62.524C56.0166 62.4876 55.9133 62.3791 55.8843 62.2424C55.6309 61.0503 54.5614 60.1844 53.3418 60.1844C51.9074 60.1844 50.7406 61.3513 50.7406 62.7856C50.7406 62.8919 50.7562 62.9937 50.7711 63.0963C50.7926 63.2472 50.7242 63.4218 50.5912 63.4976C50.4582 63.5734 50.2969 63.5853 50.178 63.4902C49.9067 63.2724 49.5879 63.1572 49.2542 63.1572C48.5363 63.1572 47.9224 63.6708 47.7953 64.3791C47.7596 64.5775 47.5753 64.7105 47.3724 64.6801C47.2579 64.6622 47.1435 64.6437 47.0246 64.6437C45.7953 64.6437 44.795 65.644 44.795 66.8733C44.795 68.1025 45.7953 69.1029 47.0246 69.1029H52.5986C52.8037 69.1029 52.9702 69.2694 52.9702 69.4745C52.9702 69.6796 52.8037 69.8461 52.5986 69.8461H47.0246C45.3851 69.8461 44.0518 68.5128 44.0518 66.8733C44.0518 65.2338 45.3851 63.9004 47.0246 63.9004C47.0684 63.9004 47.1108 63.9019 47.1539 63.9049C47.4616 63.0235 48.2962 62.414 49.2542 62.414C49.5136 62.414 49.7663 62.4594 50.0056 62.5478C50.1282 60.8139 51.5774 59.4412 53.3418 59.4412C54.7026 59.4412 55.9178 60.2788 56.4283 61.5029C56.9337 61.1328 57.5446 60.9276 58.1726 60.9276C59.8121 60.9276 61.1455 62.2609 61.1455 63.9004C61.1455 63.9361 61.1447 63.9711 61.1425 64.006C62.4379 64.3389 63.3751 65.5125 63.3751 66.8733C63.3751 68.5128 62.0418 69.8461 60.4022 69.8461Z" fill="#472B29"/>
<path d="M56.314 69.103C56.1959 69.103 55.689 69.103 55.5708 69.103C55.3657 69.103 55.1992 69.2694 55.1992 69.4746C55.1992 69.6797 55.3657 69.8462 55.5708 69.8462C55.689 69.8462 56.1959 69.8462 56.314 69.8462C56.5191 69.8462 56.6856 69.6797 56.6856 69.4746C56.6856 69.2694 56.5191 69.103 56.314 69.103Z" fill="#472B29"/>
</svg>
