<svg width="100" height="94" viewBox="0 0 100 94" fill="none" xmlns="http://www.w3.org/2000/svg">
<path d="M98.1364 34.9577C103.553 53.3372 94.4407 74.3071 79.3555 84.8571C64.2706 95.4829 43.1364 95.6135 26.1762 84.7312C9.13977 73.7735 -3.72311 51.7271 1.38925 33.2067C6.57782 14.7617 29.8174 -0.157886 51.3341 0.31529C72.9266 0.787997 92.7958 16.5777 98.1364 34.9577Z" fill="#E6F6FD"/>
<path d="M76.8492 51.8082C77.0714 51.3526 77.2669 50.874 77.4371 50.3731C79.3828 44.6311 76.4405 37.7534 70.2451 36.0931C69.5755 27.6808 63.664 21.9106 56.9878 20.9258C49.347 19.7991 42.346 24.653 40.0175 32.3682C37.2097 31.3738 34.4747 31.4949 31.8965 33.0014C30.7267 33.5425 29.6573 34.3407 28.697 35.3908C27.2879 36.9322 26.3715 38.8779 25.9985 40.9292C25.4455 41.0161 24.903 41.1031 24.3902 41.2874C21.4047 42.3576 19.5214 44.5619 19.0049 47.8803C18.6831 49.9472 19.3319 52.0088 19.6939 52.842C21.1238 56.1336 24.44 57.9998 27.8082 57.5063C27.9761 57.4818 28.2192 57.5576 28.3641 57.678C28.5424 62.9391 31.0968 67.5916 34.9288 70.25C41.0781 74.5153 48.988 73.2013 53.9793 67.3523C56.1175 69.5395 58.663 70.6023 61.6529 70.2166C64.6257 69.8331 66.9341 68.1929 68.6182 65.5255C69.3956 65.7343 70.1344 66.0361 70.8969 66.1193C73.8838 66.4456 76.2888 65.2446 78.0881 62.5728C78.1498 62.4813 78.2383 62.4107 78.3141 62.3305C78.5712 61.7404 78.8284 61.151 79.0855 60.5609C79.2 59.6661 79.4029 58.7705 79.4133 57.8772C79.4415 55.4714 78.4575 53.279 76.8492 51.8082Z" fill="#C8EDE6"/>
<path d="M38.0538 44.4826C38.0538 44.4826 46.6928 44.4826 46.7456 44.4826C48.7403 44.4826 50.3576 42.8654 50.3576 40.8699C50.3576 39.1293 49.1261 37.6771 47.4873 37.3344C47.5059 37.1821 47.5193 37.0275 47.5193 36.8707C47.5193 34.8046 45.8441 33.1294 43.778 33.1294C42.5584 33.1294 41.4778 33.7158 40.7948 34.6195C40.6201 32.3193 38.5659 30.5453 36.1616 30.8388C34.4039 31.0536 32.9502 32.4122 32.6269 34.1535C32.5229 34.7117 32.534 35.2542 32.6373 35.7626C32.1662 35.255 31.495 34.9354 30.7481 34.9354C29.3806 34.9354 28.2651 35.9997 28.1766 37.3449C27.5561 37.2074 26.8805 37.2163 26.1692 37.4831C24.8099 37.9937 23.8415 39.2735 23.785 40.7249C23.7048 42.7858 25.3517 44.4818 27.394 44.4818C27.5494 44.4818 28.0941 44.4818 28.2205 44.4818H35.7216" fill="#FDFCEF"/>
<path d="M46.7448 44.8542H38.0537C37.8486 44.8542 37.6821 44.6877 37.6821 44.4826C37.6821 44.2774 37.8486 44.111 38.0537 44.111H46.7448C48.5314 44.111 49.9851 42.6573 49.9851 40.8706C49.9851 39.344 48.9023 38.0107 47.4114 37.6986C47.2219 37.6592 47.0948 37.4816 47.1186 37.2891C47.1357 37.1516 47.1476 37.0126 47.1476 36.8707C47.1476 35.0127 45.6359 33.501 43.7779 33.501C42.7151 33.501 41.7363 33.99 41.0912 34.8432C40.9983 34.9673 40.84 35.0208 40.6899 34.9762C40.542 34.9324 40.4357 34.8016 40.4246 34.6477C40.3473 33.6303 39.8493 32.6753 39.0578 32.0265C38.2589 31.3717 37.2488 31.0841 36.2076 31.2075C34.6082 31.4029 33.2861 32.6426 32.9933 34.2211C32.9011 34.7139 32.9048 35.2074 33.0022 35.6882C33.0356 35.8517 32.9561 36.0167 32.8082 36.0925C32.6596 36.1683 32.479 36.1379 32.366 36.0145C31.9424 35.5582 31.3679 35.3062 30.7495 35.3062C29.5909 35.3062 28.6247 36.2122 28.5489 37.3686C28.5415 37.4771 28.488 37.5767 28.401 37.6414C28.314 37.706 28.2011 37.7298 28.0978 37.7068C27.4765 37.5693 26.8886 37.6094 26.3014 37.8309C25.0692 38.2932 24.2071 39.4622 24.1573 40.739C24.1224 41.6301 24.4427 42.4737 25.0596 43.1151C25.6764 43.7565 26.5058 44.1095 27.3954 44.1095H35.723C35.9282 44.1095 36.0946 44.276 36.0946 44.4811C36.0946 44.6862 35.9282 44.8527 35.723 44.8527H27.394C26.3007 44.8527 25.2803 44.4186 24.5222 43.6294C23.7641 42.8416 23.3702 41.8041 23.4134 40.7093C23.475 39.1374 24.5296 37.7008 26.0384 37.1338C26.6285 36.9123 27.2386 36.8365 27.8607 36.913C28.1401 35.5663 29.3374 34.5623 30.748 34.5623C31.2527 34.5623 31.7469 34.6946 32.1824 34.9368C32.1824 34.6537 32.2084 34.3683 32.2612 34.0837C32.6135 32.1892 34.198 30.7028 36.1169 30.4687C37.3581 30.3141 38.571 30.6649 39.529 31.4497C40.27 32.0569 40.7969 32.8901 41.0347 33.8072C41.7824 33.1316 42.7478 32.7555 43.7779 32.7555C46.0454 32.7555 47.8908 34.6002 47.8908 36.8684C47.8908 36.9294 47.8893 36.9903 47.8863 37.0505C49.5518 37.5477 50.7291 39.1033 50.7291 40.8676C50.7283 43.0675 48.9417 44.8542 46.7448 44.8542Z" fill="#472B29"/>
<path d="M35.9609 36.5252C34.6246 36.4375 33.4749 37.3605 33.3924 38.5861C33.382 38.7384 33.3887 38.8886 33.411 39.0342C33.1531 38.7429 32.7718 38.5459 32.3333 38.517C31.5322 38.4642 30.8395 38.9941 30.7392 39.7135C30.5935 39.6741 30.4411 39.6466 30.2836 39.6362C29.1145 39.5597 28.1082 40.3668 28.0361 41.44" fill="#FDFCEF"/>
<path d="M28.0358 41.6261C28.0314 41.6261 28.0269 41.6261 28.0232 41.6261C27.9206 41.6194 27.8433 41.531 27.85 41.4284C27.9288 40.2549 29.0258 39.3616 30.2959 39.4515C30.3947 39.4582 30.4958 39.4708 30.5969 39.4901C30.7998 38.7752 31.5289 38.278 32.3464 38.3315C32.66 38.3523 32.9543 38.4504 33.2048 38.6132C33.2055 38.5998 33.2063 38.5864 33.207 38.5738C33.2962 37.2471 34.5284 36.2475 35.9732 36.3397C36.0758 36.3464 36.1531 36.4348 36.1464 36.5374C36.1397 36.64 36.0542 36.7165 35.9487 36.7106C34.7157 36.6333 33.6529 37.4768 33.5779 38.599C33.5682 38.7343 33.5742 38.8718 33.5942 39.0063C33.6069 39.0881 33.5638 39.1676 33.4894 39.2025C33.4144 39.2367 33.3259 39.2189 33.2717 39.1572C33.0376 38.8926 32.6905 38.7261 32.3211 38.7023C31.6203 38.6563 31.0101 39.1118 30.9232 39.7399C30.9157 39.7926 30.886 39.8394 30.8414 39.8692C30.7968 39.8989 30.7418 39.9078 30.6905 39.8937C30.5501 39.8558 30.4089 39.832 30.2721 39.8231C29.2153 39.7488 28.287 40.4845 28.2216 41.4537C28.2142 41.551 28.1332 41.6261 28.0358 41.6261Z" fill="#472B29"/>
<path d="M48.2074 37.7587C46.9521 37.1664 45.4999 37.5856 44.9641 38.6944C44.8972 38.8319 44.8481 38.9739 44.8154 39.118" fill="#FDFCEF"/>
<path d="M44.8162 39.3039C44.8029 39.3039 44.7887 39.3024 44.7754 39.2994C44.675 39.2771 44.6126 39.1775 44.6356 39.0772C44.6713 38.9189 44.7263 38.7628 44.7977 38.6134C45.3766 37.4154 46.9433 36.9568 48.287 37.5901C48.3799 37.6339 48.42 37.7446 48.3762 37.8375C48.3323 37.9304 48.2216 37.9706 48.1287 37.9267C46.9671 37.379 45.6226 37.7595 45.1321 38.7755C45.0726 38.8988 45.0273 39.0282 44.9976 39.1597C44.9775 39.2459 44.901 39.3039 44.8162 39.3039Z" fill="#472B29"/>
<path d="M49.0334 33.5379C48.5272 33.5379 48.1133 33.124 48.1133 32.6178V28.9367C48.1133 28.4306 48.5272 28.0167 49.0334 28.0167C49.5395 28.0167 49.9535 28.4306 49.9535 28.9367V32.6178C49.9535 33.124 49.5395 33.5379 49.0334 33.5379Z" fill="#C07853"/>
<path d="M49.0329 33.9096C48.3209 33.9096 47.7412 33.3299 47.7412 32.6179V28.9368C47.7412 28.2248 48.3209 27.6451 49.0329 27.6451C49.7449 27.6451 50.3246 28.2248 50.3246 28.9368V32.6179C50.3246 33.3299 49.7449 33.9096 49.0329 33.9096ZM49.0329 28.3883C48.7304 28.3883 48.4844 28.6343 48.4844 28.9368V32.6179C48.4844 32.9204 48.7304 33.1664 49.0329 33.1664C49.3354 33.1664 49.5814 32.9204 49.5814 32.6179V28.9368C49.5814 28.6343 49.3354 28.3883 49.0329 28.3883Z" fill="#472B29"/>
<path d="M35.9654 70.3222C35.5819 69.9387 35.5819 69.3122 35.9654 68.9287L43.4918 61.4015C43.8753 61.018 44.5018 61.018 44.8853 61.4015C45.2688 61.785 45.2688 62.4115 44.8853 62.795L37.3589 70.3222C36.9754 70.7057 36.3481 70.7057 35.9654 70.3222Z" fill="#C07853"/>
<path d="M36.6613 70.9824C36.3134 70.9824 35.9664 70.8501 35.7018 70.5855C35.4461 70.3299 35.3057 69.9895 35.3057 69.6253C35.3057 69.2619 35.4461 68.9215 35.7018 68.6658L43.2282 61.1394C43.7581 60.6102 44.6188 60.611 45.1472 61.1394C45.6763 61.6686 45.6763 62.5292 45.1472 63.0583L37.6207 70.5855C37.3562 70.8501 37.0091 70.9824 36.6613 70.9824ZM44.1884 61.4857C44.0316 61.4857 43.8741 61.5452 43.7544 61.6648L36.2272 69.1913C35.9879 69.4306 35.9879 69.82 36.2272 70.0593C36.4665 70.2986 36.856 70.2986 37.0953 70.0593L44.6217 62.5329C44.861 62.2936 44.861 61.9041 44.6217 61.6648C44.5021 61.5452 44.3453 61.4857 44.1884 61.4857Z" fill="#472B29"/>
<path d="M62.7103 70.3224C63.0937 69.9389 63.0937 69.3124 62.7103 68.9289L55.1831 61.4018C54.7996 61.0183 54.1731 61.0183 53.7896 61.4018C53.4061 61.7852 53.4061 62.4118 53.7896 62.7953L61.3167 70.3224C61.6995 70.7059 62.3268 70.7059 62.7103 70.3224Z" fill="#C07853"/>
<path d="M62.0129 70.9814C61.6651 70.9814 61.318 70.8491 61.0534 70.5846L53.527 63.0581C53.2713 62.8025 53.1309 62.4621 53.1309 62.0987C53.1309 61.7352 53.2713 61.3948 53.527 61.1392C54.0561 60.61 54.9175 60.61 55.4467 61.1392L62.9731 68.6656C63.2288 68.9213 63.3692 69.2617 63.3692 69.6251C63.3692 69.9885 63.2288 70.3296 62.9731 70.5853C62.7078 70.8499 62.3607 70.9814 62.0129 70.9814ZM54.4865 61.4855C54.3289 61.4855 54.1721 61.5457 54.0524 61.6646C53.8131 61.9039 53.8131 62.2934 54.0524 62.5327L61.5789 70.0599C61.8189 70.2999 62.2084 70.2992 62.4469 70.0599C62.6862 69.8205 62.6862 69.4311 62.4469 69.1918L54.9205 61.6646C54.8008 61.545 54.6433 61.4855 54.4865 61.4855Z" fill="#472B29"/>
<path d="M63.0407 38.0858L60.5711 35.6302C57.5106 33.1301 53.6006 31.631 49.3405 31.631C39.5287 31.631 31.5742 39.5856 31.5742 49.3973C31.5742 59.2091 39.528 67.1636 49.3405 67.1636C59.153 67.1636 67.1061 59.2084 67.1061 49.3966C67.1061 45.0986 65.5803 41.1582 63.0407 38.0858ZM49.5694 60.7646C43.3012 60.7646 38.2199 55.6834 38.2199 49.4152C38.2199 48.582 38.3099 47.7697 38.4801 46.9871L40.1404 43.0957C42.1775 40.0619 45.6401 38.0657 49.5687 38.0657C55.8369 38.0657 60.9181 43.147 60.9181 49.4152C60.9181 55.6834 55.8369 60.7646 49.5694 60.7646Z" fill="#EE3E54"/>
<path d="M49.4174 67.449C39.3343 67.449 31.1309 59.2455 31.1309 49.1625C31.1309 39.0794 39.3343 30.8759 49.4174 30.8759C53.4723 30.8759 57.3125 32.1758 60.5238 34.6343C60.752 34.809 60.7958 35.1352 60.6205 35.3634C60.4465 35.5908 60.1195 35.6347 59.8914 35.46C56.8628 33.1419 53.2412 31.9164 49.4174 31.9164C39.9081 31.9164 32.1713 39.6532 32.1713 49.1625C32.1713 58.6717 39.9081 66.4085 49.4174 66.4085C58.9267 66.4085 66.6634 58.6717 66.6634 49.1625C66.6634 45.3015 65.4163 41.6524 63.0574 38.6075C62.8813 38.38 62.9229 38.0538 63.1503 37.8776C63.3763 37.7015 63.7048 37.7424 63.8801 37.9705C66.3818 41.199 67.7047 45.0689 67.7047 49.1625C67.7039 59.2455 59.5004 67.449 49.4174 67.449Z" fill="#472B29"/>
<path d="M40.219 42.8625C42.2562 39.8288 45.7187 37.8325 49.6473 37.8325C55.9155 37.8325 60.9968 42.9138 60.9968 49.182C60.9968 55.4502 55.9155 60.5315 49.6473 60.5315C43.3791 60.5315 38.2979 55.4502 38.2979 49.182C38.2979 48.3489 38.3878 47.5365 38.558 46.7539" fill="#FDFCEF"/>
<path d="M49.6469 60.903C43.1839 60.903 37.9258 55.6448 37.9258 49.1819C37.9258 48.3361 38.0165 47.4933 38.1941 46.6751C38.2379 46.4744 38.4364 46.3481 38.6363 46.3912C38.837 46.435 38.964 46.6334 38.9202 46.8334C38.753 47.5996 38.6682 48.3896 38.6682 49.1819C38.6682 55.2353 43.5927 60.1598 49.6461 60.1598C55.6995 60.1598 60.624 55.2353 60.624 49.1819C60.624 43.1285 55.6995 38.204 49.6461 38.204C45.9814 38.204 42.5723 40.0227 40.5263 43.069C40.4118 43.2392 40.1814 43.2853 40.0105 43.1701C39.8403 43.0557 39.7949 42.8253 39.9094 42.6543C42.0937 39.4021 45.7331 37.4601 49.6461 37.4601C56.109 37.4601 61.3672 42.7183 61.3672 49.1812C61.3679 55.6448 56.1098 60.903 49.6469 60.903Z" fill="#472B29"/>
<path d="M49.3388 43.9668C48.6942 43.9668 48.056 44.0938 47.4605 44.3404C46.865 44.5871 46.324 44.9486 45.8682 45.4044C45.4125 45.8601 45.0509 46.4012 44.8043 46.9967C44.5576 47.5921 44.4307 48.2304 44.4307 48.8749C44.4307 49.5195 44.5576 50.1577 44.8043 50.7532C45.0509 51.3487 45.4125 51.8897 45.8682 52.3455C46.324 52.8012 46.865 53.1628 47.4605 53.4094C48.056 53.6561 48.6942 53.783 49.3388 53.783C49.9833 53.783 50.6216 53.6561 51.217 53.4094C51.8125 53.1628 52.3536 52.8012 52.8093 52.3455C53.2651 51.8897 53.6266 51.3487 53.8733 50.7532C54.1199 50.1577 54.2469 49.5195 54.2469 48.8749C54.2469 48.2304 54.1199 47.5921 53.8733 46.9967C53.6266 46.4012 53.2651 45.8601 52.8093 45.4044C52.3536 44.9486 51.8125 44.5871 51.217 44.3404C50.6216 44.0938 49.9833 43.9668 49.3388 43.9668Z" fill="#EE3E54"/>
<path d="M49.3393 54.1545C46.4282 54.1545 44.0596 51.7859 44.0596 48.8748C44.0596 45.9637 46.4282 43.5951 49.3393 43.5951C52.2504 43.5951 54.619 45.9637 54.619 48.8748C54.619 51.7859 52.2504 54.1545 49.3393 54.1545ZM49.3393 44.339C46.8377 44.339 44.8028 46.3739 44.8028 48.8756C44.8028 51.3772 46.8377 53.4121 49.3393 53.4121C51.8409 53.4121 53.8758 51.3772 53.8758 48.8756C53.8758 46.3739 51.8409 44.339 49.3393 44.339Z" fill="#472B29"/>
<path d="M67.6709 31.7349L66.8452 30.9092L49.0751 48.6792L49.0848 48.6889C48.9778 48.793 48.9102 48.9371 48.9102 49.0984C48.9102 49.4143 49.1666 49.6707 49.4824 49.6707C49.6437 49.6707 49.7879 49.6031 49.8919 49.496L49.9016 49.5057L67.6709 31.7349Z" fill="#C07853"/>
<path d="M49.482 50.0416C48.9617 50.0416 48.5381 49.6187 48.5381 49.0977C48.5381 48.8807 48.6117 48.6748 48.7477 48.5076C48.764 48.4741 48.7856 48.4429 48.8123 48.4162L66.5831 30.6462C66.728 30.5012 66.9636 30.5012 67.1085 30.6462L67.9342 31.4719C68.0792 31.6168 68.0792 31.8524 67.9342 31.9973L50.1642 49.7673C50.1345 49.7971 50.101 49.8208 50.0654 49.8379C49.8996 49.9702 49.696 50.0416 49.482 50.0416ZM49.4039 48.8762C49.3876 48.9059 49.3675 48.9327 49.343 48.9557C49.3199 48.978 49.2813 49.0263 49.2813 49.0984C49.2813 49.2084 49.3712 49.2991 49.482 49.2991C49.554 49.2991 49.6024 49.2605 49.6247 49.2374C49.6499 49.2114 49.6789 49.1899 49.7086 49.1728L67.1457 31.7357L66.8454 31.4355L49.4039 48.8762Z" fill="#472B29"/>
<path d="M67.0836 35.4152L64.1621 35.2435L67.6856 31.7207L70.6072 31.8924L67.0836 35.4152Z" fill="#C06134"/>
<path d="M67.0829 35.7869C67.0754 35.7869 67.068 35.7869 67.0613 35.7861L64.1398 35.6145C63.9934 35.6063 63.8663 35.5126 63.8142 35.3759C63.7622 35.2391 63.7957 35.0846 63.899 34.9813L67.4225 31.4585C67.4976 31.3834 67.6046 31.3485 67.7072 31.35L70.6287 31.5216C70.7751 31.5298 70.9022 31.6235 70.9542 31.7602C71.0062 31.897 70.9728 32.0515 70.8695 32.1549L67.3467 35.6776C67.2761 35.7482 67.1817 35.7869 67.0829 35.7869ZM65.0093 34.9211L66.9379 35.0348L69.7576 32.215L67.829 32.1013L65.0093 34.9211Z" fill="#472B29"/>
<path d="M63.1641 31.4962L63.3357 34.4178L66.8585 30.8943L66.6868 27.9727L63.1641 31.4962Z" fill="#C06134"/>
<path d="M63.3361 34.7894C63.2915 34.7894 63.2469 34.7812 63.2038 34.7648C63.0671 34.7128 62.9734 34.5857 62.9652 34.4393L62.7936 31.5178C62.7876 31.4115 62.8263 31.3082 62.9021 31.2331L66.4249 27.7103C66.5289 27.6063 66.6835 27.5736 66.8195 27.6256C66.9563 27.6776 67.0499 27.8047 67.0581 27.9511L67.2297 30.8727C67.2357 30.979 67.197 31.0823 67.1212 31.1573L63.5985 34.6801C63.5279 34.7515 63.4327 34.7894 63.3361 34.7894ZM63.5449 31.6404L63.6579 33.569L66.4776 30.7493L66.3647 28.8207L63.5449 31.6404Z" fill="#472B29"/>
<path d="M39.1611 44.8302C39.231 44.6615 39.3053 44.4943 39.3834 44.33L39.1611 44.8302Z" fill="#FDFCEF"/>
<path d="M39.161 45.2017C39.1134 45.2017 39.0651 45.1928 39.0183 45.1735C38.8288 45.0947 38.7388 44.8777 38.8176 44.6874C38.8904 44.5135 38.967 44.3411 39.048 44.1709C39.1364 43.9851 39.3579 43.9063 39.543 43.994C39.7288 44.0817 39.8076 44.3032 39.7199 44.489C39.6448 44.648 39.5727 44.81 39.5051 44.9728C39.4449 45.1155 39.3066 45.2017 39.161 45.2017Z" fill="#472B29"/>
<path d="M75.1503 64.3848C76.8471 64.3848 78.3193 64.3848 78.3402 64.3848C80.2413 64.3848 81.7827 62.8434 81.7827 60.9423C81.7827 59.2835 80.6092 57.8996 79.0477 57.5734C79.0655 57.4284 79.0782 57.2813 79.0782 57.1311C79.0782 55.1617 77.4818 53.5653 75.513 53.5653C74.3506 53.5653 73.3213 54.1241 72.6703 54.9855C72.5038 52.7938 70.5462 51.1023 68.2549 51.3825C66.5797 51.5876 65.1944 52.8822 64.8859 54.5411C64.7871 55.0732 64.7975 55.5897 64.8956 56.0743C64.4467 55.5905 63.8075 55.2865 63.0948 55.2865C61.792 55.2865 60.7285 56.301 60.6445 57.583C60.0529 57.4522 59.4093 57.4604 58.7315 57.7153C57.4361 58.2014 56.513 59.4217 56.4587 60.8048C56.3822 62.7691 57.9518 64.3856 59.8983 64.3856C60.0462 64.3856 60.5657 64.3856 60.6861 64.3856H67.8342M69.3147 64.3848H69.6387H69.3147Z" fill="#FDFCEF"/>
<path d="M78.341 64.7563H75.1512C74.946 64.7563 74.7796 64.5899 74.7796 64.3847C74.7796 64.1796 74.946 64.0131 75.1512 64.0131H78.341C80.034 64.0131 81.4119 62.6352 81.4119 60.9422C81.4119 59.4959 80.3863 58.2325 78.9727 57.9367C78.7832 57.8973 78.6561 57.7189 78.6799 57.5272C78.6962 57.3971 78.7074 57.2656 78.7074 57.1311C78.7074 55.3697 77.2745 53.9375 75.5138 53.9375C74.5068 53.9375 73.5785 54.4013 72.9676 55.2099C72.8747 55.334 72.7142 55.3868 72.5663 55.3429C72.4176 55.2991 72.3121 55.1683 72.3002 55.0144C72.2266 54.0497 71.7547 53.1438 71.0041 52.5284C70.246 51.9071 69.2888 51.6314 68.3003 51.7518C66.7834 51.9376 65.5296 53.1126 65.2517 54.6094C65.1647 55.0769 65.1677 55.5451 65.2599 56.0014C65.2933 56.1642 65.2138 56.3299 65.0659 56.4057C64.9172 56.4823 64.7366 56.4503 64.6237 56.3284C64.2231 55.8966 63.6805 55.6588 63.0956 55.6588C62.0009 55.6588 61.0875 56.515 61.0154 57.6082C61.008 57.7167 60.9545 57.8163 60.8675 57.881C60.7806 57.9456 60.6683 57.9687 60.5643 57.9464C59.9757 57.817 59.419 57.8542 58.8616 58.0638C57.6933 58.5023 56.8773 59.6097 56.8297 60.8196C56.797 61.6646 57.1002 62.4643 57.6844 63.0715C58.2693 63.6794 59.0548 64.0139 59.8984 64.0139H67.8343C68.0394 64.0139 68.2059 64.1804 68.2059 64.3855C68.2059 64.5906 68.0394 64.7571 67.8343 64.7571H59.8991C58.8519 64.7571 57.8761 64.3416 57.15 63.5865C56.4239 62.8314 56.0471 61.8385 56.088 60.7899C56.1467 59.2849 57.1567 57.9092 58.6007 57.3674C59.1619 57.1571 59.7423 57.0865 60.3302 57.1541C60.6044 55.8706 61.749 54.9156 63.0956 54.9156C63.5698 54.9156 64.0336 55.0375 64.4453 55.2612C64.4468 54.9996 64.4721 54.7365 64.5211 54.4741C64.8578 52.6614 66.3747 51.2389 68.2104 51.0145C69.398 50.8666 70.5589 51.2025 71.4753 51.9539C72.1769 52.5292 72.6778 53.3155 72.9089 54.182C73.6216 53.5473 74.5373 53.1951 75.5131 53.1951C77.684 53.1951 79.4498 54.9609 79.4498 57.1318C79.4498 57.1861 79.4484 57.2396 79.4461 57.2923C81.0336 57.7732 82.1551 59.2589 82.1551 60.943C82.1551 63.0455 80.4435 64.7563 78.341 64.7563ZM69.6388 64.7563H69.3148C69.1096 64.7563 68.9432 64.5899 68.9432 64.3847C68.9432 64.1796 69.1096 64.0131 69.3148 64.0131H69.6388C69.8439 64.0131 70.0104 64.1796 70.0104 64.3847C70.0104 64.5899 69.8439 64.7563 69.6388 64.7563Z" fill="#472B29"/>
<path d="M68.0622 56.8011C66.7883 56.7179 65.6929 57.5971 65.6141 58.7654C65.6044 58.9103 65.6111 59.053 65.6319 59.192C65.3859 58.9148 65.0225 58.726 64.6048 58.6993C63.8408 58.6495 63.1808 59.1541 63.0857 59.8401C62.9467 59.8022 62.8018 59.7762 62.6517 59.7665C61.5376 59.6937 60.5781 60.4629 60.5098 61.4855" fill="#FDFCEF"/>
<path d="M60.5094 61.6706C60.505 61.6706 60.5005 61.6706 60.4968 61.6706C60.3942 61.6639 60.317 61.5754 60.3236 61.4729C60.3987 60.3499 61.4503 59.5063 62.6633 59.5814C62.7562 59.5874 62.8498 59.5992 62.9434 59.6171C63.1411 58.9363 63.836 58.4659 64.6164 58.5149C64.9114 58.5342 65.1887 58.6249 65.4265 58.7765C65.4265 58.7691 65.4272 58.7609 65.428 58.7542C65.5127 57.4856 66.7041 56.5246 68.0738 56.6168C68.1763 56.6235 68.2536 56.7119 68.2469 56.8145C68.2403 56.917 68.1518 56.9988 68.0493 56.9876C66.8728 56.92 65.8702 57.7152 65.7988 58.7787C65.7899 58.9073 65.7959 59.0374 65.8144 59.1652C65.8271 59.247 65.784 59.3265 65.7096 59.3614C65.6346 59.3956 65.5461 59.3778 65.4919 59.3161C65.2697 59.0649 64.9419 58.9081 64.5926 58.885C63.9341 58.8323 63.3522 59.2722 63.269 59.8661C63.2615 59.9188 63.2318 59.9664 63.1872 59.9954C63.1419 60.0251 63.0876 60.0333 63.0356 60.0192C62.9033 59.9827 62.7703 59.9604 62.6387 59.9515C61.6295 59.8884 60.7554 60.578 60.6938 61.4974C60.6886 61.5955 60.6068 61.6706 60.5094 61.6706Z" fill="#472B29"/>
<path d="M79.7351 57.9761C78.5386 57.412 77.1547 57.8111 76.6441 58.8679C76.581 58.9995 76.5341 59.1347 76.5029 59.2715" fill="#FDFCEF"/>
<path d="M76.5028 59.4579C76.4894 59.4579 76.4753 59.4564 76.4619 59.4534C76.3616 59.4311 76.2991 59.3308 76.3222 59.2312C76.3571 59.0774 76.4091 58.928 76.4775 58.7875C77.0312 57.6408 78.528 57.2023 79.8145 57.8087C79.9074 57.8526 79.9475 57.9633 79.9037 58.0562C79.8598 58.1499 79.7483 58.1878 79.6562 58.1454C78.5525 57.6252 77.2772 57.9864 76.8119 58.9503C76.7555 59.0662 76.7131 59.1881 76.6841 59.3145C76.664 59.3992 76.5875 59.4579 76.5028 59.4579Z" fill="#472B29"/>
<path d="M64.1621 30.4988L64.3212 33.4337L64.1621 30.4988Z" fill="#FDFCEF"/>
<path d="M64.3206 33.5264C64.2716 33.5264 64.2307 33.4878 64.2277 33.4387L64.0694 30.5038C64.0672 30.4525 64.1058 30.4087 64.1571 30.4057C64.1586 30.4057 64.1608 30.4057 64.1623 30.4057C64.2114 30.4057 64.2523 30.4443 64.2552 30.4934L64.4135 33.4283C64.4158 33.4796 64.3771 33.5234 64.3258 33.5264C64.3243 33.5264 64.3221 33.5264 64.3206 33.5264Z" fill="#472B29"/>
<path d="M64.8955 29.9293L65.0538 32.8642L64.8955 29.9293Z" fill="#FDFCEF"/>
<path d="M65.054 32.9574C65.005 32.9574 64.9641 32.9187 64.9611 32.8697L64.8028 29.9348C64.8006 29.8835 64.8392 29.8396 64.8905 29.8367C64.892 29.8367 64.8942 29.8367 64.8957 29.8367C64.9448 29.8367 64.9857 29.8753 64.9886 29.9244L65.1469 32.8593C65.1492 32.9106 65.1105 32.9544 65.0592 32.9574C65.0577 32.9574 65.0555 32.9574 65.054 32.9574Z" fill="#472B29"/>
<path d="M65.6279 29.0316L65.7862 31.9665L65.6279 29.0316Z" fill="#FDFCEF"/>
<path d="M65.7865 32.0594C65.7374 32.0594 65.6965 32.0208 65.6936 31.9717L65.5352 29.0368C65.533 28.9855 65.5717 28.9417 65.6229 28.9387C65.6244 28.9387 65.6267 28.9387 65.6281 28.9387C65.6772 28.9387 65.7181 28.9774 65.721 29.0264L65.8794 31.9613C65.8816 32.0126 65.8429 32.0565 65.7917 32.0594C65.7894 32.0594 65.7879 32.0594 65.7865 32.0594Z" fill="#472B29"/>
<path d="M66.7881 32.7479L69.4673 32.8393L66.7881 32.7479Z" fill="#FDFCEF"/>
<path d="M69.4675 32.9315H69.4645L66.7853 32.8409C66.734 32.8394 66.6939 32.7963 66.6954 32.745C66.6968 32.6937 66.7474 32.6514 66.7912 32.6551L69.4705 32.7457C69.5218 32.7472 69.5619 32.7903 69.5604 32.8416C69.5589 32.8922 69.518 32.9315 69.4675 32.9315Z" fill="#472B29"/>
<path d="M66.2881 33.4935L68.9673 33.5849L66.2881 33.4935Z" fill="#FDFCEF"/>
<path d="M68.9665 33.6777H68.9636L66.2843 33.5863C66.233 33.5848 66.1929 33.5417 66.1944 33.4904C66.1959 33.4391 66.2353 33.4012 66.2902 33.4005L68.9695 33.4919C69.0208 33.4934 69.0609 33.5365 69.0594 33.5877C69.0572 33.6383 69.0163 33.6777 68.9665 33.6777Z" fill="#472B29"/>
<path d="M65.4873 34.2462L68.1666 34.3376L65.4873 34.2462Z" fill="#FDFCEF"/>
<path d="M68.1667 34.4304H68.1637L65.4845 34.3398C65.4332 34.3383 65.3931 34.2952 65.3946 34.2439C65.3961 34.1926 65.434 34.1525 65.4904 34.154L68.1697 34.2446C68.221 34.2461 68.2611 34.2892 68.2596 34.3405C68.2574 34.3903 68.2165 34.4304 68.1667 34.4304Z" fill="#472B29"/>
<path d="M73.3407 64.7563H72.3433C72.1382 64.7563 71.9717 64.5898 71.9717 64.3847C71.9717 64.1795 72.1382 64.0131 72.3433 64.0131H73.3407C73.5458 64.0131 73.7123 64.1795 73.7123 64.3847C73.7123 64.5898 73.5458 64.7563 73.3407 64.7563Z" fill="#472B29"/>
<path d="M24.4585 49.6143H18.5753C18.3702 49.6143 18.2037 49.4478 18.2037 49.2427C18.2037 49.0376 18.3702 48.8711 18.5753 48.8711H24.4593C24.6644 48.8711 24.8309 49.0376 24.8309 49.2427C24.8309 49.4478 24.6644 49.6143 24.4585 49.6143ZM26.5878 49.6143H25.5191C25.314 49.6143 25.1475 49.4478 25.1475 49.2427C25.1475 49.0376 25.314 48.8711 25.5191 48.8711H26.5878C26.7929 48.8711 26.9594 49.0376 26.9594 49.2427C26.9594 49.4478 26.7929 49.6143 26.5878 49.6143ZM29.5837 49.6143H27.7026C27.4975 49.6143 27.331 49.4478 27.331 49.2427C27.331 49.0376 27.4975 48.8711 27.7026 48.8711H29.5837C29.7888 48.8711 29.9553 49.0376 29.9553 49.2427C29.9553 49.4478 29.7895 49.6143 29.5837 49.6143ZM29.5837 50.9922H22.4779C22.2728 50.9922 22.1063 50.8257 22.1063 50.6206C22.1063 50.4155 22.2728 50.249 22.4779 50.249H29.5837C29.7888 50.249 29.9553 50.4155 29.9553 50.6206C29.9553 50.8257 29.7895 50.9922 29.5837 50.9922ZM21.1981 50.9922H20.7693C20.5641 50.9922 20.3977 50.8257 20.3977 50.6206C20.3977 50.4155 20.5641 50.249 20.7693 50.249H21.1981C21.4032 50.249 21.5697 50.4155 21.5697 50.6206C21.5697 50.8257 21.404 50.9922 21.1981 50.9922ZM19.4419 50.9922H18.3657C18.1606 50.9922 17.9941 50.8257 17.9941 50.6206C17.9941 50.4155 18.1606 50.249 18.3657 50.249H19.4419C19.647 50.249 19.8135 50.4155 19.8135 50.6206C19.8135 50.8257 19.6478 50.9922 19.4419 50.9922ZM26.1932 48.2357H22.4779C22.2728 48.2357 22.1063 48.0692 22.1063 47.8641C22.1063 47.6589 22.2728 47.4925 22.4779 47.4925H26.1932C26.3983 47.4925 26.5648 47.6589 26.5648 47.8641C26.5648 48.0692 26.3983 48.2357 26.1932 48.2357ZM26.1932 46.8578H25.2642C25.059 46.8578 24.8926 46.6913 24.8926 46.4862C24.8926 46.281 25.059 46.1146 25.2642 46.1146H26.1932C26.3983 46.1146 26.5648 46.281 26.5648 46.4862C26.5648 46.6913 26.3983 46.8578 26.1932 46.8578ZM23.7778 52.3701H22.4779C22.2728 52.3701 22.1063 52.2036 22.1063 51.9985C22.1063 51.7934 22.2728 51.6269 22.4779 51.6269H23.7778C23.9829 51.6269 24.1494 51.7934 24.1494 51.9985C24.1494 52.2036 23.9829 52.3701 23.7778 52.3701Z" fill="white"/>
<path d="M77.8223 44.339H68.9663C68.7612 44.339 68.5947 44.1726 68.5947 43.9674C68.5947 43.7623 68.7612 43.5958 68.9663 43.5958H77.8223C78.0275 43.5958 78.1939 43.7623 78.1939 43.9674C78.1939 44.1726 78.0282 44.339 77.8223 44.339Z" fill="white"/>
<path d="M78.4887 45.717H75.8422C75.637 45.717 75.4705 45.5505 75.4705 45.3454C75.4705 45.1402 75.637 44.9738 75.8422 44.9738H78.4887C78.6938 44.9738 78.8603 45.1402 78.8603 45.3454C78.8603 45.5505 78.6938 45.717 78.4887 45.717ZM74.5631 45.717H74.1343C73.9291 45.717 73.7627 45.5505 73.7627 45.3454C73.7627 45.1402 73.9291 44.9738 74.1343 44.9738H74.5631C74.7682 44.9738 74.9347 45.1402 74.9347 45.3454C74.9347 45.5505 74.7682 45.717 74.5631 45.717ZM72.8062 45.717H71.73C71.5249 45.717 71.3584 45.5505 71.3584 45.3454C71.3584 45.1402 71.5249 44.9738 71.73 44.9738H72.8062C73.0113 44.9738 73.1778 45.1402 73.1778 45.3454C73.1778 45.5505 73.012 45.717 72.8062 45.717Z" fill="white"/>
<path d="M77.1422 47.0949H75.8423C75.6372 47.0949 75.4707 46.9284 75.4707 46.7233C75.4707 46.5182 75.6372 46.3517 75.8423 46.3517H77.1422C77.3473 46.3517 77.5138 46.5182 77.5138 46.7233C77.5138 46.9284 77.3473 47.0949 77.1422 47.0949Z" fill="white"/>
<path d="M39.7461 65.1478L41.5186 66.1623L39.7461 65.1478Z" fill="#FDFCEF"/>
<path d="M41.5187 66.2553C41.5031 66.2553 41.4875 66.2516 41.4727 66.2427L39.7001 65.2282C39.6555 65.2029 39.6399 65.1465 39.6659 65.1019C39.6912 65.0565 39.7469 65.0409 39.7923 65.0677L41.5648 66.0821C41.6094 66.1074 41.625 66.1639 41.599 66.2085C41.5827 66.239 41.5514 66.2553 41.5187 66.2553Z" fill="#472B29"/>
<path d="M39.291 65.4215L41.0643 66.4352L39.291 65.4215Z" fill="#FDFCEF"/>
<path d="M41.0644 66.5279C41.0488 66.5279 41.0332 66.5242 41.0183 66.5153L39.245 65.5015C39.2004 65.4763 39.1848 65.4198 39.2109 65.3752C39.2369 65.3306 39.2926 65.3142 39.3372 65.341L41.1105 66.3547C41.1551 66.38 41.1707 66.4365 41.1447 66.4811C41.1276 66.5115 41.0964 66.5279 41.0644 66.5279Z" fill="#472B29"/>
<path d="M38.7705 65.9282L40.543 66.9426L38.7705 65.9282Z" fill="#FDFCEF"/>
<path d="M40.5429 67.0355C40.5273 67.0355 40.5117 67.0318 40.4968 67.0229L38.7236 66.0084C38.679 65.9832 38.6634 65.9267 38.6894 65.8821C38.7146 65.8375 38.7704 65.8211 38.8157 65.8479L40.589 66.8624C40.6336 66.8876 40.6492 66.9441 40.6232 66.9887C40.6068 67.0184 40.5756 67.0355 40.5429 67.0355Z" fill="#472B29"/>
<path d="M58.8552 65.2377L57.0723 66.2343L58.8552 65.2377Z" fill="#FDFCEF"/>
<path d="M57.0724 66.3272C57.0397 66.3272 57.0085 66.3101 56.9914 66.2796C56.9661 66.2343 56.9825 66.1778 57.0271 66.1533L58.81 65.1574C58.8561 65.1314 58.9118 65.1485 58.9364 65.1931C58.9616 65.2384 58.9453 65.2949 58.9007 65.3194L57.1177 66.3153C57.1036 66.3235 57.088 66.3272 57.0724 66.3272Z" fill="#472B29"/>
<path d="M59.3074 65.5148L57.5244 66.5115L59.3074 65.5148Z" fill="#FDFCEF"/>
<path d="M57.5246 66.6047C57.4919 66.6047 57.4606 66.5876 57.4436 66.5571C57.4183 66.5118 57.4346 66.4553 57.4792 66.4307L59.2622 65.4348C59.3082 65.4088 59.364 65.4259 59.3885 65.4705C59.4138 65.5159 59.3974 65.5723 59.3528 65.5969L57.5699 66.5928C57.555 66.6009 57.5394 66.6047 57.5246 66.6047Z" fill="#472B29"/>
<path d="M59.822 66.028L58.0391 67.0239L59.822 66.028Z" fill="#FDFCEF"/>
<path d="M58.0392 67.1166C58.0065 67.1166 57.9753 67.0995 57.9582 67.069C57.9329 67.0237 57.9493 66.9672 57.9939 66.9427L59.7768 65.9468C59.8229 65.9201 59.8786 65.9372 59.9032 65.9825C59.9284 66.0278 59.9121 66.0843 59.8675 66.1088L58.0845 67.1047C58.0704 67.1129 58.0548 67.1166 58.0392 67.1166Z" fill="#472B29"/>
</svg>
