<svg width="121" height="112" viewBox="0 0 121 112" fill="none" xmlns="http://www.w3.org/2000/svg">
<path d="M118.262 41.9493C124.762 64.0047 113.827 89.1686 95.7246 101.829C77.6228 114.58 52.2618 114.736 31.9095 101.678C11.4658 88.5284 -3.96969 62.0727 2.16515 39.8482C8.39144 17.7141 36.2789 -0.189403 62.099 0.378409C88.01 0.945658 111.853 19.8933 118.262 41.9493Z" fill="#E6F6FD"/>
<path d="M95.9452 65.7334C96.9531 63.8198 97.5303 61.6442 97.5303 59.331C97.5303 53.4515 93.8371 48.4467 88.6494 46.4745C88.6494 46.4683 88.6503 46.4621 88.6503 46.455C88.6503 36.1559 80.3013 27.8069 70.0023 27.8069C61.3141 27.8069 54.0351 33.7574 51.9643 41.7992C50.6536 41.3685 49.2568 41.127 47.8022 41.127C40.9717 41.127 35.3498 46.2711 34.5799 52.8947C29.9588 53.8724 26.4902 57.9714 26.4902 62.883C26.4902 68.5227 31.0625 73.095 36.7022 73.095C36.8594 73.095 37.0148 73.0843 37.1693 73.0754C37.1658 73.2308 37.1462 73.3827 37.1462 73.539C37.1462 83.5929 45.2963 91.743 55.3503 91.743C61.0663 91.743 66.1617 89.1038 69.4997 84.9818C71.4337 86.9576 74.1226 88.191 77.1063 88.191C81.2355 88.191 84.8088 85.8378 86.5777 82.403C87.5119 82.7005 88.5055 82.863 89.5383 82.863C94.9329 82.863 99.3063 78.4896 99.3063 73.095C99.3063 70.1548 98.0009 67.5245 95.9452 65.7334Z" fill="#C7EDE6"/>
<path d="M84.6526 49.563V50.007H87.3166V49.563C87.3166 49.563 91.0835 49.563 92.2006 49.563C94.4073 49.563 96.1966 47.7736 96.1966 45.567C96.1966 43.4953 94.6142 41.8116 92.5958 41.6109C92.6153 41.4502 92.6446 41.293 92.6446 41.127C92.6446 38.9203 90.8553 37.131 88.6486 37.131C87.3716 37.131 86.2483 37.7401 85.5166 38.6725C85.3923 36.3318 83.4724 34.4669 81.1006 34.4669C78.6488 34.4669 76.6606 36.4552 76.6606 38.907C76.6606 39.303 76.729 39.6795 76.8266 40.0454C76.2565 39.3554 75.405 38.907 74.4406 38.907C72.8591 38.907 71.5688 40.0924 71.3725 41.6198C71.2118 41.6003 71.0546 41.571 70.8886 41.571C68.6819 41.571 66.8926 43.3603 66.8926 45.567C66.8926 47.7736 68.6819 49.563 70.8886 49.563C73.0953 49.563 79.3246 49.563 79.3246 49.563H84.6526Z" fill="#FDFCEF"/>
<path d="M81.1032 34.023C78.4099 34.023 76.2192 36.2137 76.2192 38.907C76.2192 38.9212 76.2192 38.9345 76.2192 38.9487C75.6846 38.6335 75.0737 38.463 74.4432 38.463C72.8172 38.463 71.4142 39.5828 71.0173 41.1314C70.9755 41.1288 70.9338 41.127 70.8912 41.127C68.443 41.127 66.4512 43.1188 66.4512 45.567C66.4512 48.0152 68.443 50.007 70.8912 50.007H84.6552C84.9003 50.007 85.0992 49.8081 85.0992 49.563C85.0992 49.3179 84.9003 49.119 84.6552 49.119H70.8912C68.9322 49.119 67.3392 47.5259 67.3392 45.567C67.3392 43.6081 68.9322 42.015 70.8912 42.015C70.9951 42.015 71.0954 42.0301 71.1958 42.0434L71.321 42.0603C71.3396 42.0629 71.3574 42.0638 71.376 42.0638C71.5945 42.0638 71.7863 41.8995 71.8156 41.6758C71.9852 40.35 73.1147 39.351 74.4432 39.351C75.2291 39.351 75.9732 39.7071 76.4865 40.3278C76.5735 40.4326 76.7005 40.4894 76.8292 40.4894C76.8985 40.4894 76.9678 40.4734 77.0317 40.4397C77.2173 40.3447 77.3105 40.1324 77.2572 39.9308C77.1551 39.5446 77.1072 39.2196 77.1072 38.907C77.1072 36.7039 78.9001 34.911 81.1032 34.911C83.2175 34.911 84.9633 36.5733 85.0761 38.6965C85.0859 38.8812 85.2093 39.0402 85.386 39.0961C85.4304 39.1103 85.4757 39.1174 85.521 39.1174C85.6542 39.1174 85.7838 39.0562 85.8691 38.9469C86.5537 38.0749 87.5669 37.575 88.6512 37.575C90.6101 37.575 92.2032 39.1681 92.2032 41.127C92.2032 41.2309 92.1881 41.3312 92.1748 41.4316L92.1579 41.5568C92.1437 41.6758 92.1774 41.7948 92.252 41.888C92.3266 41.9812 92.4358 42.0407 92.5539 42.0523C94.3797 42.2343 95.7552 43.7457 95.7552 45.567C95.7552 47.5259 94.1621 49.119 92.2032 49.119H87.3192C87.0741 49.119 86.8752 49.3179 86.8752 49.563C86.8752 49.8081 87.0741 50.007 87.3192 50.007H92.2032C94.6514 50.007 96.6432 48.0152 96.6432 45.567C96.6432 43.4384 95.1434 41.6482 93.0885 41.2362C93.0903 41.1998 93.0912 41.1634 93.0912 41.127C93.0912 38.6788 91.0994 36.687 88.6512 36.687C87.6069 36.687 86.615 37.0564 85.8247 37.7206C85.2937 35.5859 83.372 34.023 81.1032 34.023Z" fill="#472B29"/>
<path d="M79.7699 40.239C78.524 40.239 77.4531 41.1261 77.1831 42.3178C76.8572 42.1206 76.4851 42.015 76.1069 42.015C75.0395 42.015 74.155 42.8115 74.0174 43.8513C73.8371 43.8105 73.6657 43.791 73.4979 43.791C72.1402 43.791 71.0017 44.8566 70.9067 46.217C70.8987 46.3395 70.9911 46.4461 71.1127 46.455C71.1181 46.455 71.1234 46.455 71.1287 46.455C71.2442 46.455 71.3419 46.3653 71.3498 46.2489C71.4289 45.1203 72.3719 44.235 73.4979 44.235C73.7013 44.235 73.9153 44.2722 74.1533 44.3477C74.1728 44.3539 74.1932 44.3566 74.2128 44.3566C74.2616 44.3566 74.3104 44.3389 74.3513 44.3087C74.4081 44.2678 74.4419 44.195 74.4419 44.124C74.4419 43.2058 75.1887 42.459 76.1069 42.459C76.5038 42.459 76.8927 42.6081 77.2 42.879C77.2417 42.9154 77.2941 42.9349 77.3465 42.9349C77.3749 42.9349 77.4025 42.9296 77.4291 42.9181C77.5072 42.887 77.5605 42.8142 77.5667 42.7298C77.6591 41.5816 78.6261 40.683 79.7699 40.683C79.9546 40.683 80.1473 40.7131 80.3755 40.778C80.3959 40.7842 80.4172 40.7868 80.4376 40.7868C80.5344 40.7868 80.6215 40.722 80.6499 40.6252C80.6836 40.5071 80.6152 40.3846 80.4971 40.3508C80.229 40.2745 79.9972 40.239 79.7699 40.239ZM92.098 41.571C90.9205 41.571 89.8709 42.3675 89.5459 43.5086C89.5121 43.6267 89.5805 43.7492 89.6986 43.783C89.7199 43.7883 89.7403 43.791 89.7599 43.791C89.8567 43.791 89.9455 43.727 89.973 43.6293C90.2438 42.6792 91.1176 42.015 92.098 42.015C92.2019 42.015 92.3022 42.0274 92.4017 42.0407C92.4123 42.0425 92.4221 42.0434 92.4328 42.0434C92.5402 42.0434 92.6361 41.9617 92.6512 41.8507C92.6681 41.729 92.5828 41.6171 92.4612 41.6011C92.3422 41.5852 92.2214 41.571 92.098 41.571Z" fill="#472B29"/>
<path d="M31.3748 60.663H22.4948C22.2497 60.663 22.0508 60.4641 22.0508 60.219C22.0508 59.9739 22.2497 59.775 22.4948 59.775H31.3748C31.6199 59.775 31.8188 59.9739 31.8188 60.219C31.8188 60.4641 31.6208 60.663 31.3748 60.663ZM34.0388 60.663H33.1508C32.9057 60.663 32.7068 60.4641 32.7068 60.219C32.7068 59.9739 32.9057 59.775 33.1508 59.775H34.0388C34.2839 59.775 34.4828 59.9739 34.4828 60.219C34.4828 60.4641 34.2848 60.663 34.0388 60.663ZM38.4708 62.439H30.4868C30.2417 62.439 30.0428 62.2401 30.0428 61.995C30.0428 61.7499 30.2417 61.551 30.4868 61.551H38.4708C38.7159 61.551 38.9148 61.7499 38.9148 61.995C38.9148 62.2401 38.7159 62.439 38.4708 62.439ZM28.7108 62.439H27.8228C27.5777 62.439 27.3788 62.2401 27.3788 61.995C27.3788 61.7499 27.5777 61.551 27.8228 61.551H28.7108C28.9559 61.551 29.1548 61.7499 29.1548 61.995C29.1548 62.2401 28.9568 62.439 28.7108 62.439ZM26.0468 62.439H24.2708C24.0257 62.439 23.8268 62.2401 23.8268 61.995C23.8268 61.7499 24.0257 61.551 24.2708 61.551H26.0468C26.2919 61.551 26.4908 61.7499 26.4908 61.995C26.4908 62.2401 26.2928 62.439 26.0468 62.439ZM31.3748 64.215H29.5988C29.3537 64.215 29.1548 64.0161 29.1548 63.771C29.1548 63.5259 29.3537 63.327 29.5988 63.327H31.3748C31.6199 63.327 31.8188 63.5259 31.8188 63.771C31.8188 64.0161 31.6199 64.215 31.3748 64.215ZM34.0388 56.223C33.8816 56.223 33.308 56.223 33.1508 56.223C32.9057 56.223 32.7068 56.4219 32.7068 56.667C32.7068 56.9121 32.9057 57.111 33.1508 57.111C33.308 57.111 33.8816 57.111 34.0388 57.111C34.2839 57.111 34.4828 56.9121 34.4828 56.667C34.4828 56.4219 34.2839 56.223 34.0388 56.223ZM34.0388 57.999C33.8816 57.999 29.756 57.999 29.5988 57.999C29.3537 57.999 29.1548 58.1979 29.1548 58.443C29.1548 58.6881 29.3537 58.887 29.5988 58.887C29.756 58.887 33.8816 58.887 34.0388 58.887C34.2839 58.887 34.4828 58.6881 34.4828 58.443C34.4828 58.1979 34.2839 57.999 34.0388 57.999ZM38.4788 59.775C38.3216 59.775 35.972 59.775 35.8148 59.775C35.5697 59.775 35.3708 59.9739 35.3708 60.219C35.3708 60.4641 35.5697 60.663 35.8148 60.663C35.972 60.663 38.3216 60.663 38.4788 60.663C38.7239 60.663 38.9228 60.4641 38.9228 60.219C38.9228 59.9739 38.7239 59.775 38.4788 59.775ZM94.4228 76.647H85.5428C85.2977 76.647 85.0988 76.4481 85.0988 76.203C85.0988 75.9579 85.2977 75.759 85.5428 75.759H94.4228C94.6679 75.759 94.8668 75.9579 94.8668 76.203C94.8668 76.4481 94.6679 76.647 94.4228 76.647ZM97.9748 76.647H96.1988C95.9537 76.647 95.7548 76.4481 95.7548 76.203C95.7548 75.9579 95.9537 75.759 96.1988 75.759H97.9748C98.2199 75.759 98.4188 75.9579 98.4188 76.203C98.4188 76.4481 98.2199 76.647 97.9748 76.647ZM102.415 78.423H93.5348C93.2897 78.423 93.0908 78.2241 93.0908 77.979C93.0908 77.7339 93.2897 77.535 93.5348 77.535H102.415C102.66 77.535 102.859 77.7339 102.859 77.979C102.859 78.2241 102.661 78.423 102.415 78.423ZM91.7588 78.423H90.8708C90.6257 78.423 90.4268 78.2241 90.4268 77.979C90.4268 77.7339 90.6257 77.535 90.8708 77.535H91.7588C92.0039 77.535 92.2028 77.7339 92.2028 77.979C92.2028 78.2241 92.0039 78.423 91.7588 78.423ZM89.0682 78.423H87.3188C87.0737 78.423 86.8748 78.2241 86.8748 77.979C86.8748 77.7339 87.0737 77.535 87.3188 77.535H89.0682C89.3133 77.535 89.5122 77.7339 89.5122 77.979C89.5122 78.2241 89.3133 78.423 89.0682 78.423ZM97.0868 74.871H92.6468C92.4017 74.871 92.2028 74.6721 92.2028 74.427C92.2028 74.1819 92.4017 73.983 92.6468 73.983H97.0868C97.3319 73.983 97.5308 74.1819 97.5308 74.427C97.5308 74.6721 97.3328 74.871 97.0868 74.871ZM94.4228 80.199H92.6468C92.4017 80.199 92.2028 80.0001 92.2028 79.755C92.2028 79.5099 92.4017 79.311 92.6468 79.311H94.4228C94.6679 79.311 94.8668 79.5099 94.8668 79.755C94.8668 80.0001 94.6679 80.199 94.4228 80.199Z" fill="white"/>
<path d="M43.5801 74.2494C42.3333 74.2494 41.3184 73.2131 41.3184 71.9388V46.7231C41.3184 45.4489 42.3333 44.4126 43.5801 44.4126H82.2134C83.4602 44.4126 84.4752 45.4489 84.4752 46.7231V71.9388C84.4752 73.2131 83.4602 74.2494 82.2134 74.2494H43.5801Z" fill="#A3A3CD"/>
<path d="M82.214 45.0342C83.1179 45.0342 83.8541 45.7916 83.8541 46.7231V71.9388C83.8541 72.8703 83.1188 73.6278 82.214 73.6278H43.5806C42.6766 73.6278 41.9405 72.8703 41.9405 71.9388V46.7231C41.9405 45.7916 42.6757 45.0342 43.5806 45.0342H82.214ZM82.214 43.791H43.5806C41.9946 43.791 40.6973 45.1105 40.6973 46.7231V71.9388C40.6973 73.5514 41.9946 74.871 43.5806 74.871H82.214C83.7999 74.871 85.0973 73.5514 85.0973 71.9388V46.7231C85.0973 45.1105 83.7999 43.791 82.214 43.791Z" fill="#472B29"/>
<path d="M81.5447 49.2478V64.215H45.1367V62.3103V56.3234V47.343H80.7642H81.5447V49.2478Z" fill="#D0D0E3"/>
<path d="M44.694 57.111C44.4489 57.111 44.25 56.9121 44.25 56.667V47.787C44.25 47.5419 44.4489 47.343 44.694 47.343H79.326C79.5711 47.343 79.77 47.5419 79.77 47.787C79.77 48.0321 79.5711 48.231 79.326 48.231H45.138V56.667C45.138 56.9121 44.9391 57.111 44.694 57.111Z" fill="#472B29"/>
<path d="M81.102 65.103H44.694C44.4489 65.103 44.25 64.9041 44.25 64.659V62.883C44.25 62.6379 44.4489 62.439 44.694 62.439C44.9391 62.439 45.138 62.6379 45.138 62.883V64.215H80.658V52.227C80.658 51.9819 80.8569 51.783 81.102 51.783C81.3471 51.783 81.546 51.9819 81.546 52.227V64.659C81.546 64.9041 81.3471 65.103 81.102 65.103Z" fill="#472B29"/>
<path d="M63.4606 46.455H62.2849C62.1383 46.328 62.0185 46.2081 62.0078 46.0616V46.0252C62.0185 45.8787 62.1392 45.7588 62.2849 45.567H63.4606C63.6071 45.7588 63.727 45.8787 63.7829 46.0252V46.0616C63.727 46.2081 63.6071 46.328 63.4606 46.455Z" fill="#A3A3CD"/>
<path d="M54.3466 83.1241C54.161 83.1027 52.9453 82.9109 52.9453 81.5425C52.9453 80.1652 54.2702 80.0418 54.4212 80.032H54.4238C56.1075 80.032 57.5096 78.8279 57.5096 77.3467C57.5008 75.9224 57.4928 75.093 57.4857 74.6055H68.313C68.3051 75.093 68.2971 75.9206 68.2891 77.3432C68.2891 78.8288 69.6921 80.0338 71.4157 80.0338C71.6191 80.0516 72.8525 80.2123 72.8525 81.5425C72.8525 82.9038 71.5827 83.1072 71.3891 83.1294L54.3466 83.1241Z" fill="#CECCBE"/>
<path d="M67.6829 75.2262C67.6776 75.7261 67.6722 76.409 67.6669 77.3458C67.6669 79.152 69.3142 80.6243 71.3521 80.6545C71.7606 80.6998 72.2312 80.8925 72.2312 81.5425C72.2312 82.2325 71.7517 82.4509 71.3486 82.5078L54.4108 82.5024C54.1649 82.4714 53.5664 82.316 53.5664 81.5425C53.5664 80.8872 54.045 80.6963 54.4393 80.6545C56.4799 80.627 58.1307 79.1538 58.1307 77.3378C58.1253 76.4054 58.12 75.7252 58.1147 75.2262H67.6829ZM68.9492 73.983H56.8475C56.8671 74.0984 56.8866 77.3458 56.8866 77.3458C56.8866 78.4825 55.7588 79.4122 54.3815 79.4122C54.3815 79.4122 52.3223 79.5419 52.3223 81.5434C52.3223 83.5707 54.346 83.7465 54.346 83.7465L71.4205 83.751C71.4205 83.751 73.4744 83.5698 73.4744 81.5425C73.4744 79.541 71.4152 79.4113 71.4152 79.4113C70.037 79.4113 68.9101 78.4816 68.9101 77.3449C68.9101 77.3449 68.9288 74.0984 68.9492 73.983Z" fill="#472B29"/>
<path d="M61.5645 80.199H55.9772C55.7321 80.199 55.5332 80.0001 55.5332 79.755C55.5332 79.5099 55.7321 79.311 55.9772 79.311H61.5645C61.8096 79.311 62.0085 79.5099 62.0085 79.755C62.0085 80.0001 61.8096 80.199 61.5645 80.199Z" fill="#472B29"/>
<path d="M66.8944 80.199H63.3424C63.0973 80.199 62.8984 80.0001 62.8984 79.755C62.8984 79.5099 63.0973 79.311 63.3424 79.311H66.8944C67.1395 79.311 67.3384 79.5099 67.3384 79.755C67.3384 80.0001 67.1395 80.199 66.8944 80.199Z" fill="#472B29"/>
<path d="M43.9547 73.65H81.8714C83.373 73.65 83.873 72.7504 83.873 71.4628L83.8774 67.7998H42.1183H41.8457L41.851 71.4628C41.8519 72.7504 42.4531 73.65 43.9547 73.65Z" fill="#FEFDEF"/>
<path d="M62.8996 69.3201C62.56 69.3201 62.2343 69.455 61.9942 69.6952C61.754 69.9353 61.6191 70.261 61.6191 70.6006C61.6191 70.9402 61.754 71.2659 61.9942 71.5061C62.2343 71.7462 62.56 71.8811 62.8996 71.8811C63.2392 71.8811 63.5649 71.7462 63.8051 71.5061C64.0452 71.2659 64.1801 70.9402 64.1801 70.6006C64.1801 70.261 64.0452 69.9353 63.8051 69.6952C63.5649 69.455 63.2392 69.3201 62.8996 69.3201Z" fill="#CECCBE"/>
<path d="M62.9009 72.104C62.0715 72.104 61.3984 71.43 61.3984 70.6015C61.3984 69.773 62.0724 69.099 62.9009 69.099C63.7294 69.099 64.4034 69.773 64.4034 70.6015C64.4034 71.43 63.7303 72.104 62.9009 72.104ZM62.9009 69.5421C62.3175 69.5421 61.8424 70.0172 61.8424 70.6006C61.8424 71.184 62.3175 71.6591 62.9009 71.6591C63.4843 71.6591 63.9594 71.184 63.9594 70.6006C63.9594 70.0172 63.4843 69.5421 62.9009 69.5421Z" fill="#472B29"/>
<path d="M41.5859 66.8789H84.21V67.7669H41.5859V66.8789Z" fill="#472B29"/>
<path d="M44.693 80.643C44.693 80.643 46.0845 80.643 47.801 80.643C49.5175 80.643 50.909 79.2515 50.909 77.535C50.909 75.9534 49.7235 74.6632 48.1962 74.4669C48.221 74.308 48.245 74.149 48.245 73.983C48.245 72.2665 46.8535 70.875 45.137 70.875C44.2206 70.875 43.4054 71.279 42.8371 71.9095C42.4961 70.304 41.0726 69.099 39.365 69.099C37.4034 69.099 35.813 70.6894 35.813 72.651C35.813 72.8206 35.8396 72.9831 35.8627 73.1465C35.4827 72.841 35.0067 72.651 34.481 72.651C33.3905 72.651 32.4874 73.4386 32.3009 74.4758C32.142 74.4509 31.983 74.427 31.817 74.427C30.1005 74.427 28.709 75.8185 28.709 77.535C28.709 79.2515 30.1005 80.643 31.817 80.643C33.5335 80.643 38.477 80.643 38.477 80.643V81.087H44.693V80.643Z" fill="#FDFCEF"/>
<path d="M46.2466 76.647C46.1241 76.647 46.0246 76.5475 46.0246 76.425C46.0246 75.3389 46.9082 74.4554 47.9942 74.4554C48.0244 74.4634 48.6486 74.4545 49.0989 74.5762C49.217 74.6081 49.2871 74.7298 49.2551 74.8479C49.2232 74.9669 49.1015 75.037 48.9834 75.0042C48.5891 74.8976 48.0066 74.8976 47.9951 74.8994C47.1532 74.8994 46.4686 75.584 46.4686 76.425C46.4686 76.5475 46.3691 76.647 46.2466 76.647ZM40.2526 80.199C40.1348 80.199 40.0219 80.2458 39.9386 80.329C39.8554 80.4123 39.8086 80.5252 39.8086 80.643C39.8086 80.7607 39.8554 80.8737 39.9386 80.9569C40.0219 81.0402 40.1348 81.087 40.2526 81.087C40.3704 81.087 40.4833 81.0402 40.5665 80.9569C40.6498 80.8737 40.6966 80.7607 40.6966 80.643C40.6966 80.5252 40.6498 80.4123 40.5665 80.329C40.4833 80.2458 40.3704 80.199 40.2526 80.199Z" fill="#472B29"/>
<path d="M47.8016 81.087H44.6936C44.4485 81.087 44.2496 80.8881 44.2496 80.643C44.2496 80.3979 44.4485 80.199 44.6936 80.199H47.8016C49.2704 80.199 50.4656 79.0037 50.4656 77.535C50.4656 76.2065 49.4666 75.077 48.1409 74.9074C48.0219 74.8914 47.9144 74.8292 47.8425 74.7333C47.7706 74.6374 47.7404 74.5167 47.759 74.3986C47.7794 74.2618 47.8016 74.1251 47.8016 73.983C47.8016 72.5142 46.6064 71.319 45.1376 71.319C44.3828 71.319 43.6831 71.6342 43.1672 72.207C43.0562 72.3304 42.8821 72.3828 42.7232 72.3384C42.5615 72.2949 42.4381 72.1652 42.4035 72.0018C42.1007 70.5775 40.8228 69.543 39.3656 69.543C37.6518 69.543 36.2576 70.9371 36.2576 72.651C36.2576 72.778 36.2763 72.8996 36.294 73.0222C36.3198 73.2024 36.2381 73.4111 36.0791 73.5017C35.9202 73.5923 35.7275 73.6065 35.5854 73.4928C35.2613 73.2326 34.8803 73.095 34.4816 73.095C33.6238 73.095 32.8903 73.7086 32.7385 74.5548C32.6959 74.7919 32.4756 74.9509 32.2332 74.9145C32.0965 74.8932 31.9597 74.871 31.8176 74.871C30.3489 74.871 29.1536 76.0662 29.1536 77.535C29.1536 79.0037 30.3489 80.199 31.8176 80.199H38.4776C38.7227 80.199 38.9216 80.3979 38.9216 80.643C38.9216 80.8881 38.7227 81.087 38.4776 81.087H31.8176C29.8587 81.087 28.2656 79.4939 28.2656 77.535C28.2656 75.576 29.8587 73.983 31.8176 73.983C31.87 73.983 31.9206 73.9847 31.9721 73.9883C32.3398 72.9351 33.337 72.207 34.4816 72.207C34.7915 72.207 35.0935 72.2611 35.3794 72.3668C35.5259 70.2951 37.2575 68.655 39.3656 68.655C40.9916 68.655 42.4434 69.6557 43.0535 71.1183C43.6573 70.6761 44.3873 70.431 45.1376 70.431C47.0966 70.431 48.6896 72.024 48.6896 73.983C48.6896 74.0256 48.6887 74.0673 48.6861 74.1091C50.2339 74.5069 51.3536 75.909 51.3536 77.535C51.3536 79.4939 49.7606 81.087 47.8016 81.087Z" fill="#472B29"/>
<path d="M42.9179 80.199C42.7767 80.199 42.1711 80.199 42.0299 80.199C41.7848 80.199 41.5859 80.3979 41.5859 80.643C41.5859 80.8881 41.7848 81.087 42.0299 81.087C42.1711 81.087 42.7767 81.087 42.9179 81.087C43.163 81.087 43.3619 80.8881 43.3619 80.643C43.3619 80.3979 43.163 80.199 42.9179 80.199Z" fill="#472B29"/>
</svg>
