<svg width="100" height="94" viewBox="0 0 100 94" fill="none" xmlns="http://www.w3.org/2000/svg">
<path d="M98.1364 35.1453C103.553 53.5248 94.4407 74.4947 79.3555 85.0448C64.2706 95.6705 43.1364 95.8012 26.1762 84.9189C9.13977 73.9612 -3.72311 51.9148 1.38925 33.3944C6.57782 14.9493 29.8174 0.0297668 51.3341 0.502943C72.9266 0.97565 92.7958 16.7653 98.1364 35.1453Z" fill="#FFFBF3"/>
<path d="M78.6401 51.5408C78.8621 51.0849 79.0589 50.6054 79.2291 50.1029C81.1775 44.3531 78.2309 37.4652 72.0267 35.8024C71.3563 27.379 65.4363 21.6004 58.7504 20.6139C51.098 19.4854 44.088 24.3465 41.7555 32.0728C38.9443 31.0768 36.2048 31.1982 33.6229 32.707C32.4515 33.2487 31.38 34.0479 30.4187 35.0994C29.0075 36.6431 28.0899 38.5915 27.7162 40.6457C27.1627 40.733 26.6188 40.8204 26.106 41.0039C23.1164 42.0762 21.2301 44.2828 20.7129 47.6069C20.391 49.6767 21.0407 51.7413 21.4033 52.5753C22.8352 55.872 26.1556 57.7405 29.5292 57.2462C29.6972 57.2217 29.9414 57.2972 30.0857 57.4186C30.2641 62.6874 32.8222 67.3472 36.6599 70.0089C42.8174 74.2802 50.7399 72.9645 55.7378 67.1074C57.8794 69.2978 60.4279 70.3619 63.422 69.9756C66.399 69.5916 68.7108 67.9488 70.3972 65.2774C71.1764 65.4868 71.915 65.7887 72.6786 65.8723C75.6697 66.1994 78.0784 64.9962 79.8803 62.3203C79.9417 62.2286 80.0305 62.1583 80.1068 62.0776C80.3643 61.4871 80.6218 60.8966 80.8793 60.3061C80.994 59.4099 81.1968 58.513 81.2071 57.6184C81.236 55.2089 80.2511 53.0134 78.6401 51.5408Z" fill="#C8EDE6"/>
<path d="M40.9763 61.4368C40.9763 61.4368 49.6277 61.4368 49.6802 61.4368C51.6782 61.4368 53.2973 59.8169 53.2973 57.8189C53.2973 56.0762 52.0645 54.6214 50.4232 54.2788C50.4424 54.1263 50.455 53.9717 50.455 53.8141C50.455 51.745 48.7774 50.0674 46.7084 50.0674C45.4866 50.0674 44.4048 50.655 43.721 51.56C43.5464 49.2564 41.4884 47.4797 39.0812 47.7742C37.3207 47.9895 35.8652 49.3504 35.541 51.0938C35.4374 51.6533 35.4478 52.1957 35.5514 52.7048C35.0793 52.1964 34.4074 51.8767 33.6592 51.8767C32.2902 51.8767 31.1721 52.9431 31.084 54.2899C30.4624 54.1522 29.7861 54.1611 29.0734 54.429C27.7118 54.9403 26.7424 56.222 26.6855 57.6754C26.6048 59.7392 28.2543 61.4383 30.3004 61.4383C30.4558 61.4383 31.0019 61.4383 31.1277 61.4383H38.6409" fill="#FDFCEF"/>
<path d="M49.6802 61.8068H40.9763C40.772 61.8068 40.6063 61.641 40.6063 61.4368C40.6063 61.2326 40.772 61.0668 40.9763 61.0668H49.6802C51.4702 61.0668 52.9273 59.6097 52.9273 57.8189C52.9273 56.2901 51.8424 54.9529 50.3476 54.6406C50.1589 54.6014 50.0324 54.4246 50.0561 54.2336C50.0731 54.096 50.0849 53.9561 50.0849 53.8141C50.0849 51.9522 48.5702 50.4374 46.7083 50.4374C45.6435 50.4374 44.6622 50.9281 44.0162 51.7828C43.9237 51.9063 43.7661 51.9604 43.6166 51.9145C43.4693 51.8708 43.3635 51.7413 43.3524 51.5881C43.2755 50.5692 42.776 49.6116 41.9834 48.9619C41.182 48.3055 40.1682 48.0132 39.127 48.1412C37.5242 48.3373 36.1996 49.579 35.9058 51.1612C35.814 51.6555 35.817 52.1505 35.9147 52.6308C35.948 52.7929 35.8688 52.9579 35.7215 53.0334C35.5743 53.1088 35.3937 53.077 35.2812 52.9564C34.8557 52.4983 34.28 52.2467 33.6606 52.2467C32.4996 52.2467 31.5309 53.1547 31.4547 54.3143C31.4473 54.4223 31.394 54.5215 31.3074 54.5859C31.2209 54.6503 31.1099 54.6739 31.0055 54.651C30.3839 54.5134 29.7941 54.5541 29.2051 54.7746C27.97 55.2378 27.1072 56.4092 27.0569 57.6887C27.0221 58.5819 27.3433 59.4277 27.9612 60.07C28.5791 60.7123 29.4108 61.0668 30.3025 61.0668H38.6408C38.8451 61.0668 39.0108 61.2326 39.0108 61.4368C39.0108 61.641 38.8451 61.8068 38.6408 61.8068H30.3018C29.2073 61.8068 28.1861 61.3724 27.4276 60.5828C26.6691 59.794 26.2747 58.7558 26.3176 57.6598C26.379 56.0866 27.435 54.6488 28.9454 54.0819C29.5374 53.8599 30.1493 53.7867 30.7717 53.8607C31.0507 52.5124 32.2495 51.506 33.6614 51.506C34.1675 51.506 34.6633 51.6385 35.0999 51.8834C35.0999 51.5985 35.1258 51.3121 35.1791 51.0257C35.5314 49.1299 37.1179 47.6417 39.0382 47.4071C40.2822 47.2547 41.4958 47.604 42.4533 48.3899C43.1963 48.9989 43.7232 49.8336 43.9614 50.7527C44.7103 50.0748 45.6775 49.6974 46.7098 49.6974C48.9794 49.6974 50.8264 51.5445 50.8264 53.8141C50.8264 53.8755 50.8249 53.9369 50.8212 53.9983C52.4892 54.4956 53.6688 56.0533 53.6688 57.8197C53.6673 60.0175 51.8787 61.8068 49.6802 61.8068Z" fill="#472B29"/>
<path d="M38.8799 53.4677C37.5419 53.3797 36.3898 54.3039 36.3076 55.5316C36.2973 55.684 36.3039 55.8342 36.3261 55.98C36.0679 55.6885 35.686 55.4909 35.2472 55.462C34.4443 55.4095 33.7509 55.9393 33.6503 56.6608C33.5045 56.6209 33.3521 56.5942 33.1944 56.5839C32.0238 56.5069 31.0159 57.3157 30.9434 58.3902" fill="#FDFCEF"/>
<path d="M30.9442 58.5745C30.9398 58.5745 30.9353 58.5745 30.9316 58.5745C30.8295 58.5678 30.7525 58.4797 30.7592 58.3776C30.8376 57.204 31.9328 56.3197 33.2071 56.3996C33.307 56.4063 33.4077 56.4196 33.509 56.4388C33.7111 55.7225 34.4414 55.223 35.2599 55.2785C35.5744 55.2992 35.8689 55.3969 36.1205 55.5612C36.1212 55.5471 36.122 55.5331 36.1227 55.5197C36.2122 54.1929 37.4532 53.1976 38.8918 53.2842C38.9939 53.2909 39.0709 53.3789 39.0642 53.481C39.0575 53.5832 38.9725 53.6623 38.8674 53.6535C37.6434 53.5721 36.5675 54.4216 36.492 55.5449C36.4823 55.6811 36.4883 55.8187 36.509 55.9534C36.5216 56.0348 36.4787 56.114 36.4047 56.1495C36.3321 56.1843 36.2426 56.1658 36.1878 56.1043C35.9525 55.8387 35.6047 55.6722 35.2355 55.6478C34.5354 55.5982 33.9219 56.0577 33.8339 56.6875C33.8265 56.74 33.7969 56.7866 33.7525 56.8162C33.7081 56.8458 33.6541 56.8547 33.6015 56.8406C33.4624 56.8029 33.3211 56.7785 33.182 56.7696C32.123 56.6926 31.1928 57.4319 31.1277 58.4035C31.1218 58.4997 31.0404 58.5745 30.9442 58.5745Z" fill="#472B29"/>
<path d="M51.1446 54.7028C49.8874 54.11 48.4333 54.5296 47.8968 55.6404C47.8302 55.778 47.7806 55.9208 47.748 56.0651" fill="#FDFCEF"/>
<path d="M47.7488 56.2494C47.7355 56.2494 47.7214 56.2479 47.7074 56.2449C47.6075 56.222 47.5453 56.1228 47.5682 56.0237C47.6045 55.8638 47.6593 55.7077 47.7303 55.5604C48.3097 54.3609 49.8763 53.9014 51.2238 54.5363C51.3163 54.5799 51.3563 54.6902 51.3126 54.7827C51.2697 54.8752 51.1587 54.9144 51.0662 54.8715C49.9015 54.3217 48.5547 54.7043 48.0633 55.7225C48.0041 55.8446 47.959 55.9741 47.9286 56.1073C47.9094 56.1909 47.8332 56.2494 47.7488 56.2494Z" fill="#472B29"/>
<path d="M26.5927 45.6474H19.1698C18.9656 45.6474 18.7998 45.4817 18.7998 45.2774C18.7998 45.0732 18.9656 44.9074 19.1698 44.9074H26.5927C26.797 44.9074 26.9627 45.0732 26.9627 45.2774C26.9627 45.4817 26.797 45.6474 26.5927 45.6474ZM28.7239 45.6474H27.6539C27.4497 45.6474 27.2839 45.4817 27.2839 45.2774C27.2839 45.0732 27.4497 44.9074 27.6539 44.9074H28.7239C28.9282 44.9074 29.0939 45.0732 29.0939 45.2774C29.0939 45.4817 28.9289 45.6474 28.7239 45.6474ZM31.7246 45.6474H29.8406C29.6364 45.6474 29.4706 45.4817 29.4706 45.2774C29.4706 45.0732 29.6364 44.9074 29.8406 44.9074H31.7246C31.9289 44.9074 32.0946 45.0732 32.0946 45.2774C32.0946 45.4817 31.9289 45.6474 31.7246 45.6474ZM31.7246 47.0275H24.6088C24.4046 47.0275 24.2388 46.8618 24.2388 46.6575C24.2388 46.4533 24.4046 46.2875 24.6088 46.2875H31.7246C31.9289 46.2875 32.0946 46.4533 32.0946 46.6575C32.0946 46.8618 31.9289 47.0275 31.7246 47.0275ZM23.3271 47.0275H22.8979C22.6937 47.0275 22.5279 46.8618 22.5279 46.6575C22.5279 46.4533 22.6937 46.2875 22.8979 46.2875H23.3271C23.5314 46.2875 23.6971 46.4533 23.6971 46.6575C23.6971 46.8618 23.5321 47.0275 23.3271 47.0275ZM21.5681 47.0275H20.49C20.2857 47.0275 20.12 46.8618 20.12 46.6575C20.12 46.4533 20.2857 46.2875 20.49 46.2875H21.5681C21.7724 46.2875 21.9381 46.4533 21.9381 46.6575C21.9381 46.8618 21.7731 47.0275 21.5681 47.0275ZM28.3288 44.2673H24.6088C24.4046 44.2673 24.2388 44.1016 24.2388 43.8973C24.2388 43.6931 24.4046 43.5273 24.6088 43.5273H28.3288C28.533 43.5273 28.6988 43.6931 28.6988 43.8973C28.6988 44.1016 28.5338 44.2673 28.3288 44.2673ZM28.3288 42.8872H27.3986C27.1944 42.8872 27.0286 42.7215 27.0286 42.5172C27.0286 42.313 27.1944 42.1472 27.3986 42.1472H28.3288C28.533 42.1472 28.6988 42.313 28.6988 42.5172C28.6988 42.7215 28.5338 42.8872 28.3288 42.8872ZM25.9105 48.4076H24.6088C24.4046 48.4076 24.2388 48.2419 24.2388 48.0376C24.2388 47.8334 24.4046 47.6676 24.6088 47.6676H25.9105C26.1147 47.6676 26.2805 47.8334 26.2805 48.0376C26.2805 48.2419 26.1147 48.4076 25.9105 48.4076Z" fill="white"/>
<path d="M76.9917 47.2887C78.3851 47.2887 79.5943 47.2887 79.6113 47.2887C81.1727 47.2887 82.4388 46.0499 82.4388 44.5218C82.4388 43.1884 81.4753 42.0761 80.1929 41.8134C80.2077 41.6965 80.2181 41.5789 80.2181 41.4582C80.2181 39.8754 78.9068 38.5922 77.2899 38.5922C76.3353 38.5922 75.4895 39.0414 74.9552 39.734C74.8183 37.9721 73.2103 36.6127 71.3292 36.8384C69.9535 37.0034 68.8154 38.0439 68.5623 39.3774C68.4809 39.8051 68.4898 40.2202 68.5705 40.6095C68.202 40.221 67.6766 39.976 67.092 39.976C66.0219 39.976 65.148 40.7915 65.0792 41.8216C64.593 41.7165 64.0646 41.7232 63.5081 41.9274C62.444 42.3181 61.6863 43.2986 61.6419 44.4108C61.579 45.9893 62.868 47.2887 64.4672 47.2887C64.5885 47.2887 65.0155 47.2887 65.1139 47.2887H70.9851M72.198 47.2887H72.4644H72.198Z" fill="#FDFCEF"/>
<path d="M79.611 47.6595H76.9914C76.7872 47.6595 76.6214 47.4937 76.6214 47.2895C76.6214 47.0852 76.7872 46.9195 76.9914 46.9195H79.611C80.966 46.9195 82.0686 45.8442 82.0686 44.5219C82.0686 43.3941 81.2486 42.4077 80.1179 42.1768C79.9285 42.1383 79.8005 41.96 79.8249 41.7676C79.8382 41.6662 79.8471 41.5633 79.8471 41.459C79.8471 40.0826 78.6993 38.963 77.2889 38.963C76.4808 38.963 75.7364 39.3263 75.2465 39.9605C75.1533 40.0819 74.9956 40.1314 74.8476 40.0885C74.7011 40.0449 74.5968 39.9154 74.5849 39.7629C74.5265 39.0089 74.1668 38.3251 73.5719 37.8367C72.9584 37.3328 72.1762 37.11 71.3719 37.2062C70.1538 37.352 69.1474 38.2733 68.9239 39.4469C68.8544 39.8125 68.8573 40.1788 68.9313 40.5347C68.9646 40.6968 68.8869 40.8611 68.7404 40.9373C68.5939 41.0135 68.4148 40.9847 68.3001 40.864C67.9834 40.5296 67.5535 40.346 67.0902 40.346C66.2252 40.346 65.5029 41.0054 65.4467 41.8468C65.4393 41.9541 65.386 42.0532 65.3002 42.1176C65.2143 42.1827 65.1055 42.2064 64.999 42.1835C64.5261 42.0806 64.0799 42.1109 63.6337 42.2752C62.6998 42.6186 62.0471 43.4829 62.0094 44.4264C61.9835 45.0739 62.2188 45.6903 62.6717 46.161C63.1416 46.6501 63.7787 46.9195 64.4647 46.9195H70.9826C71.1869 46.9195 71.3526 47.0852 71.3526 47.2895C71.3526 47.4937 71.1869 47.6595 70.9826 47.6595H64.4647C63.5878 47.6595 62.7398 47.3006 62.1374 46.6738C61.5439 46.0559 61.2361 45.2471 61.2701 44.3968C61.3197 43.158 62.167 42.0258 63.3784 41.5811C63.8298 41.4153 64.2975 41.3547 64.7696 41.4005C65.0241 40.3675 65.975 39.6068 67.0895 39.6068C67.4543 39.6068 67.8117 39.6904 68.1358 39.8458C68.1425 39.6675 68.1625 39.4884 68.1965 39.3093C68.4792 37.8219 69.7483 36.6557 71.2831 36.4721C72.2895 36.353 73.2692 36.6335 74.0403 37.2654C74.5938 37.7198 74.986 38.3088 75.1843 38.9689C75.7697 38.4894 76.5052 38.2237 77.2874 38.2237C79.1063 38.2237 80.5856 39.6756 80.5856 41.4597C80.5856 41.4849 80.5856 41.5101 80.5849 41.536C81.8902 41.9467 82.8071 43.1551 82.8071 44.5233C82.8086 46.252 81.3737 47.6595 79.611 47.6595ZM72.4641 47.6595H72.1984C71.9942 47.6595 71.8284 47.4937 71.8284 47.2895C71.8284 47.0852 71.9942 46.9195 72.1984 46.9195H72.4641C72.6683 46.9195 72.8341 47.0852 72.8341 47.2895C72.8341 47.4937 72.6683 47.6595 72.4641 47.6595Z" fill="#472B29"/>
<path d="M78.3472 43.3645C78.3338 43.3645 78.3205 43.363 78.3065 43.3601C78.2066 43.3379 78.1444 43.2387 78.1666 43.1388C78.1947 43.0152 78.2362 42.8961 78.2917 42.7844C78.7386 41.8793 79.9744 41.5456 81.0459 42.0399C81.1384 42.0828 81.1791 42.1931 81.1362 42.2856C81.0933 42.3781 80.983 42.4188 80.8905 42.3759C79.9996 41.9637 78.9828 42.2212 78.6239 42.9486C78.581 43.0345 78.5492 43.1262 78.5285 43.2202C78.5085 43.3061 78.4323 43.3645 78.3472 43.3645Z" fill="#472B29"/>
<path d="M74.53 47.6595H73.7108C73.5066 47.6595 73.3408 47.4937 73.3408 47.2895C73.3408 47.0852 73.5066 46.9195 73.7108 46.9195H74.53C74.7342 46.9195 74.9 47.0852 74.9 47.2895C74.9 47.4937 74.7342 47.6595 74.53 47.6595Z" fill="#472B29"/>
<path d="M65.9442 26.2024H58.522C58.3177 26.2024 58.152 26.0366 58.152 25.8324C58.152 25.6282 58.3177 25.4624 58.522 25.4624H65.9442C66.1484 25.4624 66.3142 25.6282 66.3142 25.8324C66.3142 26.0366 66.1491 26.2024 65.9442 26.2024ZM68.0769 26.2024H67.0068C66.8026 26.2024 66.6368 26.0366 66.6368 25.8324C66.6368 25.6282 66.8026 25.4624 67.0068 25.4624H68.0769C68.2811 25.4624 68.4469 25.6282 68.4469 25.8324C68.4469 26.0366 68.2811 26.2024 68.0769 26.2024ZM71.0768 26.2024H69.1928C68.9885 26.2024 68.8228 26.0366 68.8228 25.8324C68.8228 25.6282 68.9885 25.4624 69.1928 25.4624H71.0768C71.2811 25.4624 71.4468 25.6282 71.4468 25.8324C71.4468 26.0366 71.2811 26.2024 71.0768 26.2024ZM69.5776 23.4422H62.4617C62.2575 23.4422 62.0917 23.2764 62.0917 23.0722C62.0917 22.868 62.2575 22.7022 62.4617 22.7022H69.5783C69.7826 22.7022 69.9483 22.868 69.9483 23.0722C69.9483 23.2764 69.7826 23.4422 69.5776 23.4422ZM61.1801 23.4422H60.7509C60.5466 23.4422 60.3809 23.2764 60.3809 23.0722C60.3809 22.868 60.5466 22.7022 60.7509 22.7022H61.1801C61.3843 22.7022 61.5501 22.868 61.5501 23.0722C61.5501 23.2764 61.385 23.4422 61.1801 23.4422ZM59.4211 23.4422H58.3436C58.1394 23.4422 57.9736 23.2764 57.9736 23.0722C57.9736 22.868 58.1394 22.7022 58.3436 22.7022H59.4211C59.6253 22.7022 59.7911 22.868 59.7911 23.0722C59.7911 23.2764 59.6261 23.4422 59.4211 23.4422ZM67.681 24.8223H63.961C63.7567 24.8223 63.591 24.6565 63.591 24.4523C63.591 24.2481 63.7567 24.0823 63.961 24.0823H67.681C67.8852 24.0823 68.051 24.2481 68.051 24.4523C68.051 24.6565 67.8852 24.8223 67.681 24.8223Z" fill="white"/>
<path d="M67.6812 23.4422H66.7511C66.5468 23.4422 66.3811 23.2764 66.3811 23.0722C66.3811 22.868 66.5468 22.7022 66.7511 22.7022H67.6812C67.8855 22.7022 68.0512 22.868 68.0512 23.0722C68.0512 23.2764 67.8855 23.4422 67.6812 23.4422ZM62.8846 24.8223H61.5829C61.3787 24.8223 61.2129 24.6565 61.2129 24.4523C61.2129 24.2481 61.3787 24.0823 61.5829 24.0823H62.8846C63.0888 24.0823 63.2546 24.2481 63.2546 24.4523C63.2546 24.6565 63.0888 24.8223 62.8846 24.8223Z" fill="white"/>
<path d="M42.211 26.2587C40.0592 26.2587 37.9956 27.1135 36.474 28.635C34.9525 30.1566 34.0977 32.2202 34.0977 34.372C34.0977 36.5238 34.9525 38.5875 36.474 40.109C37.9956 41.6306 40.0592 42.4854 42.211 42.4854C44.3628 42.4854 46.4265 41.6306 47.948 40.109C49.4696 38.5875 50.3244 36.5238 50.3244 34.372C50.3244 32.2202 49.4696 30.1566 47.948 28.635C46.4265 27.1135 44.3628 26.2587 42.211 26.2587Z" fill="#FFCE00"/>
<path d="M42.2111 42.8547C37.5336 42.8547 33.7285 39.0488 33.7285 34.372C33.7285 29.6945 37.5343 25.8887 42.2111 25.8887C46.8887 25.8887 50.6945 29.6945 50.6945 34.372C50.6945 39.0496 46.8894 42.8547 42.2111 42.8547ZM42.2111 26.6287C37.9413 26.6287 34.4685 30.1022 34.4685 34.372C34.4685 38.6418 37.9421 42.1147 42.2111 42.1147C46.4809 42.1147 49.9545 38.6411 49.9545 34.372C49.9545 30.1022 46.4809 26.6287 42.2111 26.6287Z" fill="#472B29"/>
<path d="M47.1752 29.7189C45.8521 27.1963 43.4034 28.9848 43.8319 30.8704C44.1701 32.3518 45.7966 34.4542 45.7966 34.4542C46.0312 34.372 48.2963 33.5543 49.3774 32.4858C50.7516 31.1257 49.6475 28.3018 47.1752 29.7189Z" fill="#EE3E54"/>
<path d="M45.7961 34.7494C45.7058 34.7494 45.6193 34.7087 45.5623 34.6347C45.4942 34.5466 43.8928 32.4635 43.5428 30.9362C43.2957 29.8462 43.9121 28.6585 44.9163 28.2877C45.8087 27.9599 46.6797 28.3454 47.2894 29.3237C48.5045 28.7436 49.3992 29.1343 49.8484 29.7248C50.4966 30.5773 50.3782 31.91 49.5842 32.6952C48.4572 33.8096 46.1528 34.6414 45.8938 34.7324C45.862 34.7442 45.8287 34.7494 45.7961 34.7494ZM45.5275 28.768C45.3936 28.768 45.2581 28.7931 45.1212 28.8435C44.4789 29.0803 43.9136 29.8972 44.12 30.8045C44.3857 31.9663 45.5157 33.575 45.9005 34.0997C46.505 33.871 48.2833 33.1495 49.1683 32.2748C49.8299 31.6214 49.7914 30.6283 49.3777 30.0837C48.9448 29.5139 48.1952 29.4747 47.322 29.9757C47.2517 30.0149 47.1681 30.0245 47.0919 30.003C47.0149 29.9808 46.9498 29.9276 46.9128 29.8565C46.5406 29.1469 46.0507 28.768 45.5275 28.768Z" fill="#472B29"/>
<path d="M37.2477 29.7189C38.5716 27.1963 41.0203 28.9848 40.5903 30.8704C40.2529 32.3518 38.6264 34.4542 38.6264 34.4542C38.3918 34.372 36.1266 33.5543 35.0462 32.4858C33.6713 31.1257 34.7761 28.3018 37.2477 29.7189Z" fill="#EE3E54"/>
<path d="M38.6264 34.7494C38.5938 34.7494 38.5605 34.7442 38.5279 34.7331C38.2689 34.6421 35.9668 33.8126 34.8376 32.6967C34.0435 31.9108 33.9251 30.578 34.5741 29.7256C35.024 29.135 35.9194 28.7451 37.133 29.3245C37.8434 28.1841 38.8091 28.0302 39.507 28.2885C40.5119 28.6592 41.1276 29.8469 40.8797 30.9362C40.5319 32.4636 38.929 34.5467 38.8609 34.6347C38.8032 34.7087 38.7159 34.7494 38.6264 34.7494ZM35.9809 29.6264C35.5983 29.6264 35.2764 29.7796 35.0455 30.083C34.6311 30.6276 34.5934 31.6207 35.2542 32.2749C36.1407 33.151 37.9174 33.871 38.522 34.0997C38.9076 33.575 40.0375 31.9663 40.3017 30.8045C40.5082 29.8972 39.9436 29.0803 39.3012 28.8435C38.6286 28.5948 37.9774 28.9656 37.5097 29.8565C37.4727 29.9276 37.4076 29.9801 37.3306 30.0031C37.2544 30.026 37.1708 30.0156 37.1005 29.9757C36.6935 29.7426 36.3146 29.6264 35.9809 29.6264Z" fill="#472B29"/>
<path d="M39.2644 36.0023C39.0616 35.9349 38.8707 36.1547 38.9299 36.39C39.2784 37.7753 40.6208 38.8083 42.2273 38.8083C43.8339 38.8083 45.1762 37.7753 45.5248 36.39C45.584 36.1547 45.393 35.9349 45.1903 36.0023C44.2993 36.2975 43.2937 36.464 42.2281 36.464C41.1617 36.464 40.1553 36.2975 39.2644 36.0023Z" fill="#961B30"/>
<path d="M42.2264 38.9563C40.5755 38.9563 39.1606 37.9159 38.7861 36.4263C38.7417 36.2509 38.7935 36.0689 38.9208 35.9512C39.0303 35.8498 39.1746 35.8173 39.3115 35.8617C40.2203 36.1628 41.2015 36.316 42.2271 36.316C43.2535 36.316 44.234 36.1628 45.1427 35.8617C45.2782 35.8165 45.4247 35.8498 45.5335 35.9512C45.66 36.0689 45.7118 36.2509 45.6674 36.4263C45.293 37.9159 43.8773 38.9563 42.2264 38.9563ZM39.1894 36.1377C39.1606 36.1377 39.1376 36.1532 39.1214 36.1673C39.0858 36.2006 39.0511 36.2694 39.0725 36.353C39.4144 37.7109 40.7109 38.6596 42.2264 38.6596C43.7419 38.6596 45.0384 37.7117 45.3803 36.353C45.401 36.2694 45.367 36.2006 45.3314 36.1673C45.3107 36.148 45.2782 36.1273 45.2352 36.1421C44.2969 36.4537 43.2846 36.6113 42.2264 36.6113C41.1689 36.6113 40.1566 36.4537 39.2176 36.1421C39.2079 36.1392 39.1983 36.1377 39.1894 36.1377Z" fill="#472B29"/>
<path d="M42.2261 37.1315C41.4669 37.1315 40.8135 37.6429 40.5264 38.3747C41.034 38.65 41.6119 38.8076 42.2261 38.8076C42.8411 38.8076 43.419 38.65 43.9259 38.3747C43.6388 37.6429 42.9861 37.1315 42.2261 37.1315Z" fill="#EE3E54"/>
<path d="M42.2263 38.9564C41.6121 38.9564 41.0002 38.8002 40.4563 38.505L40.3408 38.4428L40.3889 38.3207C40.7079 37.5082 41.4286 36.9835 42.2263 36.9835C43.0241 36.9835 43.7448 37.5082 44.0638 38.3207L44.1119 38.4428L43.9964 38.505C43.4533 38.8002 42.8413 38.9564 42.2263 38.9564ZM40.7167 38.3066C41.6654 38.7758 42.7887 38.7758 43.7352 38.3066C43.4407 37.6784 42.8605 37.2795 42.2256 37.2795C41.5907 37.2795 41.012 37.6784 40.7167 38.3066Z" fill="#472B29"/>
<path d="M71.2973 50.709C71.2973 49.3378 70.1755 48.216 68.8042 48.216H67.9007C69.1195 48.0554 70.0711 47.0164 70.0711 45.7562C70.0711 44.385 68.9493 43.2632 67.578 43.2632H59.7074C59.7244 41.6078 60.2291 40.9025 60.7441 39.3064C61.4753 37.0398 62.233 34.6148 61.627 32.3097C61.3176 31.1338 60.4186 29.9261 59.2338 29.9994C58.0986 30.0689 57.1862 32.4495 57.1862 32.4495C57.1862 32.4495 51.4246 44.109 49.3408 44.5382L40.8604 44.5996V63.1736H49.34H49.6871H50.2998H65.4209C66.7922 63.1736 68.2818 62.0007 68.2818 60.6295C68.2818 59.2582 67.8141 58.2052 66.4429 58.2052L67.709 58.1875C69.0802 58.1875 70.2021 57.0656 70.2021 55.6944C70.2021 54.3232 69.0802 53.2013 67.709 53.2013H68.8035C70.1755 53.2021 71.2973 52.0802 71.2973 50.709Z" fill="#FDFCEE"/>
<path d="M65.4221 63.6916H40.8608C40.5744 63.6916 40.3428 63.4599 40.3428 63.1736V44.5988C40.3428 44.3139 40.5729 44.083 40.8571 44.0808L49.2761 44.0201C50.4652 43.659 53.9765 37.776 56.7219 32.2194C56.8751 31.8138 57.8046 29.5679 59.2024 29.4821C60.7024 29.3837 61.7695 30.8148 62.1284 32.1779C62.7848 34.6732 61.9626 37.2188 61.2374 39.4654C61.0909 39.9205 60.9451 40.3046 60.8104 40.6583C60.5337 41.3857 60.3213 41.9459 60.2503 42.7444H67.5792C69.2398 42.7444 70.5903 44.0956 70.5903 45.7554C70.5903 46.5591 70.2662 47.2998 69.7341 47.8437C70.941 48.2367 71.8157 49.3718 71.8157 50.7083C71.8157 52.0136 70.9803 53.1281 69.8162 53.5447C70.3742 54.0915 70.7213 54.853 70.7213 55.6944C70.7213 57.1418 69.6949 58.3539 68.3318 58.6403C68.613 59.0806 68.8002 59.717 68.8002 60.6287C68.801 62.3536 66.9843 63.6916 65.4221 63.6916ZM41.3788 62.6556H65.4221C66.4766 62.6556 67.765 61.7209 67.765 60.6294C67.765 58.7232 66.8059 58.7232 66.4448 58.7232C66.1599 58.7232 65.929 58.4931 65.9268 58.2089C65.9253 57.924 66.1532 57.6916 66.4374 57.6872L67.7035 57.6694C68.7995 57.6694 69.6853 56.7837 69.6853 55.6944C69.6853 54.6051 68.7995 53.7201 67.7109 53.7201C67.4246 53.7201 67.1929 53.4884 67.1929 53.2021C67.1929 52.9157 67.4246 52.6841 67.7109 52.6841H68.8054C69.8947 52.6841 70.7797 51.7983 70.7797 50.709C70.7797 49.6197 69.8939 48.7347 68.8054 48.7347H67.9026C67.6295 48.7347 67.4038 48.523 67.3853 48.2507C67.3676 47.9784 67.5644 47.7394 67.8345 47.7031C68.815 47.5736 69.5543 46.7367 69.5543 45.7569C69.5543 44.6676 68.6685 43.7819 67.58 43.7819H59.7078C59.5695 43.7819 59.437 43.7264 59.3393 43.6279C59.2424 43.5295 59.1884 43.3971 59.1891 43.2579C59.2024 41.9726 59.4984 41.1933 59.8418 40.2913C59.9705 39.9524 60.1104 39.5838 60.2517 39.148C60.9333 37.0368 61.7051 34.6443 61.1264 32.4421C60.8637 31.4438 60.1415 30.4678 59.2653 30.5166C58.7414 30.5484 58.0021 31.7672 57.6699 32.6345C56.2728 35.4672 51.6085 44.5996 49.4448 45.045C49.4115 45.0517 49.3782 45.0554 49.3441 45.0561L41.3788 45.1131V62.6556Z" fill="#472B29"/>
<path d="M41.3545 44.991H49.607V62.6393H41.3545V44.991Z" fill="#78A1D1"/>
<path d="M49.6056 58.792C49.4524 58.792 49.3281 58.6677 49.3281 58.5145V44.5463C49.3281 44.3931 49.4524 44.2688 49.6056 44.2688C49.7588 44.2688 49.8831 44.3931 49.8831 44.5463V58.5145C49.8831 58.6677 49.7588 58.792 49.6056 58.792ZM63.0714 48.3092H52.9956C52.8424 48.3092 52.7181 48.1849 52.7181 48.0317C52.7181 47.8785 52.8424 47.7542 52.9956 47.7542H63.0714C63.2246 47.7542 63.3489 47.8785 63.3489 48.0317C63.3489 48.1849 63.2246 48.3092 63.0714 48.3092ZM63.0714 53.4426H55.5722C55.4191 53.4426 55.2947 53.3183 55.2947 53.1651C55.2947 53.0119 55.4191 52.8876 55.5722 52.8876H63.0714C63.2246 52.8876 63.3489 53.0119 63.3489 53.1651C63.3489 53.3183 63.2246 53.4426 63.0714 53.4426ZM63.0714 58.24H58.0335C57.8803 58.24 57.756 58.1157 57.756 57.9625C57.756 57.8093 57.8803 57.685 58.0335 57.685H63.0714C63.2246 57.685 63.3489 57.8093 63.3489 57.9625C63.3489 58.1157 63.2246 58.24 63.0714 58.24ZM49.6056 60.5081C49.4524 60.5081 49.3281 60.3838 49.3281 60.2306V59.3115C49.3281 59.1583 49.4524 59.034 49.6056 59.034C49.7588 59.034 49.8831 59.1583 49.8831 59.3115V60.2306C49.8831 60.3838 49.7588 60.5081 49.6056 60.5081ZM49.6056 61.5204C49.4524 61.5204 49.3281 61.3961 49.3281 61.2429V61.069C49.3281 60.9158 49.4524 60.7915 49.6056 60.7915C49.7588 60.7915 49.8831 60.9158 49.8831 61.069V61.2429C49.8831 61.3961 49.7588 61.5204 49.6056 61.5204ZM54.796 53.4426H53.9176C53.7644 53.4426 53.6401 53.3183 53.6401 53.1651C53.6401 53.0119 53.7644 52.8876 53.9176 52.8876H54.796C54.9492 52.8876 55.0735 53.0119 55.0735 53.1651C55.0735 53.3183 54.9492 53.4426 54.796 53.4426ZM53.202 53.4426H52.9164C52.7632 53.4426 52.6389 53.3183 52.6389 53.1651C52.6389 53.0119 52.7632 52.8876 52.9164 52.8876H53.202C53.3552 52.8876 53.4795 53.0119 53.4795 53.1651C53.4795 53.3183 53.3552 53.4426 53.202 53.4426Z" fill="#472B29"/>
<path d="M45.1413 58.0549C44.9763 58.0549 44.8129 58.0874 44.6604 58.1506C44.508 58.2137 44.3695 58.3063 44.2528 58.423C44.1361 58.5396 44.0436 58.6782 43.9804 58.8306C43.9173 58.983 43.8848 59.1464 43.8848 59.3115C43.8848 59.4765 43.9173 59.6399 43.9804 59.7923C44.0436 59.9447 44.1361 60.0833 44.2528 60.1999C44.3695 60.3166 44.508 60.4092 44.6604 60.4723C44.8129 60.5355 44.9763 60.568 45.1413 60.568C45.3063 60.568 45.4697 60.5355 45.6221 60.4723C45.7746 60.4092 45.9131 60.3166 46.0298 60.1999C46.1465 60.0833 46.239 59.9447 46.3022 59.7923C46.3653 59.6399 46.3978 59.4765 46.3978 59.3115C46.3978 59.1464 46.3653 58.983 46.3022 58.8306C46.239 58.6782 46.1465 58.5396 46.0298 58.423C45.9131 58.3063 45.7746 58.2137 45.6221 58.1506C45.4697 58.0874 45.3063 58.0549 45.1413 58.0549Z" fill="#657FBE"/>
<path d="M45.1416 60.827C44.3062 60.827 43.6261 60.147 43.6261 59.3115C43.6261 58.476 44.3062 57.796 45.1416 57.796C45.9771 57.796 46.6572 58.476 46.6572 59.3115C46.6572 60.147 45.9771 60.827 45.1416 60.827ZM45.1416 58.314C44.5911 58.314 44.1441 58.7609 44.1441 59.3115C44.1441 59.8621 44.5911 60.309 45.1416 60.309C45.6922 60.309 46.1392 59.8621 46.1392 59.3115C46.1392 58.7609 45.6922 58.314 45.1416 58.314ZM40.692 48.1242C40.6654 48.1242 40.6395 48.1131 40.621 48.0909C40.5884 48.0517 40.5936 47.9932 40.6328 47.9606L44.4719 44.772C44.5112 44.7394 44.5689 44.7439 44.6022 44.7838C44.6347 44.823 44.6296 44.8815 44.5903 44.9141L40.7512 48.1027C40.7335 48.1175 40.7127 48.1242 40.692 48.1242ZM41.1952 49.801C41.1686 49.801 41.1427 49.7899 41.1242 49.7677C41.0916 49.7285 41.0968 49.67 41.136 49.6375L46.9628 44.7979C47.0013 44.7646 47.0597 44.7698 47.093 44.8097C47.1256 44.8489 47.1204 44.9074 47.0812 44.94L41.2544 49.7796C41.2374 49.7944 41.2159 49.801 41.1952 49.801ZM45.6197 48.3262C45.593 48.3262 45.5671 48.3151 45.5486 48.2929C45.5161 48.2537 45.5213 48.1952 45.5605 48.1627L49.4647 44.92C49.5039 44.8874 49.5617 44.8919 49.595 44.9318C49.6275 44.971 49.6223 45.0295 49.5831 45.0621L45.6789 48.3047C45.6619 48.3195 45.6411 48.3262 45.6197 48.3262ZM48.257 48.617C48.2304 48.617 48.2045 48.6059 48.186 48.5837C48.1534 48.5445 48.1586 48.486 48.1978 48.4535L49.6416 47.2539C49.6808 47.2206 49.7385 47.2258 49.7718 47.2658C49.8044 47.305 49.7992 47.3635 49.76 47.396L48.3162 48.5956C48.2992 48.6096 48.2778 48.617 48.257 48.617Z" fill="#472B29"/>
</svg>
