<svg width="100" height="94" viewBox="0 0 100 94" fill="none" xmlns="http://www.w3.org/2000/svg">
<path d="M98.1364 34.9577C103.553 53.3372 94.4407 74.3071 79.3555 84.8571C64.2706 95.4829 43.1364 95.6135 26.1762 84.7312C9.13977 73.7735 -3.72311 51.7271 1.38925 33.2067C6.57782 14.7617 29.8174 -0.157886 51.3341 0.31529C72.9266 0.787997 92.7958 16.5777 98.1364 34.9577Z" fill="#FFFBF3"/>
<path d="M77.5393 51.9654C78.3799 50.3707 78.8602 48.5585 78.8602 46.6308C78.8602 41.7312 75.7825 37.5606 71.4594 35.9163C71.4594 35.9111 71.4602 35.9067 71.4602 35.9008C71.4602 27.3175 64.5034 20.3608 55.9202 20.3608C48.68 20.3608 42.6142 25.3195 40.8885 32.021C39.7963 31.6621 38.633 31.4608 37.4202 31.4608C31.7281 31.4608 27.0431 35.7476 26.4023 41.2673C22.5513 42.082 19.6602 45.4978 19.6602 49.5908C19.6602 54.2905 23.4704 58.1008 28.1702 58.1008C28.3011 58.1008 28.4306 58.0919 28.5587 58.0838C28.5564 58.214 28.5402 58.3405 28.5402 58.4708C28.5402 66.8483 35.3326 73.6408 43.7102 73.6408C48.4735 73.6408 52.7197 71.4415 55.5021 68.0057C57.113 69.6522 59.3538 70.6808 61.8402 70.6808C65.2819 70.6808 68.2582 68.719 69.7337 65.8567C70.5122 66.1054 71.3403 66.2408 72.2002 66.2408C76.6957 66.2408 80.3402 62.5963 80.3402 58.1008C80.3409 55.6506 79.2531 53.458 77.5393 51.9654Z" fill="#C7EDE6"/>
<path d="M24.4009 47.7408H17.0712C16.8669 47.7408 16.7012 47.575 16.7012 47.3708C16.7012 47.1666 16.8669 47.0008 17.0712 47.0008H24.4009C24.6051 47.0008 24.7709 47.1666 24.7709 47.3708C24.7709 47.575 24.6059 47.7408 24.4009 47.7408Z" fill="white"/>
<path d="M26.6911 47.7408H25.9511C25.7468 47.7408 25.5811 47.575 25.5811 47.3708C25.5811 47.1666 25.7468 47.0008 25.9511 47.0008H26.6911C26.8953 47.0008 27.0611 47.1666 27.0611 47.3708C27.0611 47.575 26.896 47.7408 26.6911 47.7408Z" fill="white"/>
<path d="M30.3837 49.2208H23.7304C23.5261 49.2208 23.3604 49.055 23.3604 48.8508C23.3604 48.6465 23.5261 48.4808 23.7304 48.4808H30.3837C30.5879 48.4808 30.7537 48.6465 30.7537 48.8508C30.7537 49.055 30.5879 49.2208 30.3837 49.2208Z" fill="white"/>
<path d="M22.2506 49.2208H21.5106C21.3064 49.2208 21.1406 49.055 21.1406 48.8508C21.1406 48.6465 21.3064 48.4808 21.5106 48.4808H22.2506C22.4549 48.4808 22.6206 48.6465 22.6206 48.8508C22.6206 49.055 22.4556 49.2208 22.2506 49.2208Z" fill="white"/>
<path d="M20.0307 49.2208H18.5507C18.3464 49.2208 18.1807 49.055 18.1807 48.8508C18.1807 48.6465 18.3464 48.4808 18.5507 48.4808H20.0307C20.2349 48.4808 20.4007 48.6465 20.4007 48.8508C20.4007 49.055 20.2356 49.2208 20.0307 49.2208Z" fill="white"/>
<path d="M24.4711 50.7008H22.9911C22.7869 50.7008 22.6211 50.535 22.6211 50.3308C22.6211 50.1265 22.7869 49.9608 22.9911 49.9608H24.4711C24.6753 49.9608 24.8411 50.1265 24.8411 50.3308C24.8411 50.535 24.6753 50.7008 24.4711 50.7008Z" fill="white"/>
<path d="M26.6911 44.0408C26.5601 44.0408 26.082 44.0408 25.9511 44.0408C25.7468 44.0408 25.5811 44.2066 25.5811 44.4108C25.5811 44.6151 25.7468 44.7808 25.9511 44.7808C26.082 44.7808 26.5601 44.7808 26.6911 44.7808C26.8953 44.7808 27.0611 44.6151 27.0611 44.4108C27.0611 44.2066 26.8953 44.0408 26.6911 44.0408Z" fill="white"/>
<path d="M26.6911 45.5208C26.5601 45.5208 23.1221 45.5208 22.9911 45.5208C22.7869 45.5208 22.6211 45.6866 22.6211 45.8908C22.6211 46.0951 22.7869 46.2608 22.9911 46.2608C23.1221 46.2608 26.5601 46.2608 26.6911 46.2608C26.8953 46.2608 27.0611 46.0951 27.0611 45.8908C27.0611 45.6866 26.8953 45.5208 26.6911 45.5208Z" fill="white"/>
<path d="M30.3908 47.0008C30.2598 47.0008 28.3018 47.0008 28.1708 47.0008C27.9665 47.0008 27.8008 47.1666 27.8008 47.3708C27.8008 47.575 27.9665 47.7408 28.1708 47.7408C28.3018 47.7408 30.2598 47.7408 30.3908 47.7408C30.595 47.7408 30.7608 47.575 30.7608 47.3708C30.7608 47.1666 30.595 47.0008 30.3908 47.0008Z" fill="white"/>
<path d="M66.6509 27.7608H59.2509C59.0466 27.7608 58.8809 27.5951 58.8809 27.3908C58.8809 27.1866 59.0466 27.0208 59.2509 27.0208H66.6509C66.8551 27.0208 67.0209 27.1866 67.0209 27.3908C67.0209 27.5951 66.8551 27.7608 66.6509 27.7608Z" fill="white"/>
<path d="M69.6107 27.7608H68.1307C67.9265 27.7608 67.7607 27.5951 67.7607 27.3908C67.7607 27.1866 67.9265 27.0208 68.1307 27.0208H69.6107C69.815 27.0208 69.9807 27.1866 69.9807 27.3908C69.9807 27.5951 69.815 27.7608 69.6107 27.7608Z" fill="white"/>
<path d="M73.311 29.2408H65.911C65.7068 29.2408 65.541 29.075 65.541 28.8708C65.541 28.6666 65.7068 28.5008 65.911 28.5008H73.311C73.5153 28.5008 73.681 28.6666 73.681 28.8708C73.681 29.075 73.516 29.2408 73.311 29.2408Z" fill="white"/>
<path d="M64.4303 29.2408H63.6903C63.4861 29.2408 63.3203 29.075 63.3203 28.8708C63.3203 28.6666 63.4861 28.5008 63.6903 28.5008H64.4303C64.6346 28.5008 64.8003 28.6666 64.8003 28.8708C64.8003 29.075 64.6346 29.2408 64.4303 29.2408Z" fill="white"/>
<path d="M62.1179 29.2408H60.7304C60.5261 29.2408 60.3604 29.075 60.3604 28.8708C60.3604 28.6666 60.5261 28.5008 60.7304 28.5008H62.1179C62.3221 28.5008 62.4879 28.6666 62.4879 28.8708C62.4879 29.075 62.3221 29.2408 62.1179 29.2408Z" fill="white"/>
<path d="M68.8708 26.2808H65.1708C64.9665 26.2808 64.8008 26.115 64.8008 25.9108C64.8008 25.7065 64.9665 25.5408 65.1708 25.5408H68.8708C69.075 25.5408 69.2408 25.7065 69.2408 25.9108C69.2408 26.115 69.0758 26.2808 68.8708 26.2808Z" fill="white"/>
<path d="M66.6508 30.7208H65.1708C64.9665 30.7208 64.8008 30.555 64.8008 30.3508C64.8008 30.1465 64.9665 29.9808 65.1708 29.9808H66.6508C66.855 29.9808 67.0208 30.1465 67.0208 30.3508C67.0208 30.555 66.855 30.7208 66.6508 30.7208Z" fill="white"/>
<path d="M40.7507 66.6108C40.7507 66.6108 41.9102 66.6108 43.3407 66.6108C44.7711 66.6108 45.9307 65.4512 45.9307 64.0208C45.9307 62.7028 44.9428 61.6269 43.67 61.4641C43.6907 61.3309 43.7107 61.1984 43.7107 61.0608C43.7107 59.6304 42.5511 58.4708 41.1207 58.4708C40.357 58.4708 39.6784 58.8075 39.2048 59.3329C38.9206 57.995 37.7337 56.9908 36.3107 56.9908C34.676 56.9908 33.3507 58.3161 33.3507 59.9508C33.3507 60.0921 33.3736 60.2268 33.3921 60.363C33.0754 60.1084 32.6787 59.9508 32.2407 59.9508C31.3319 59.9508 30.5794 60.6072 30.424 61.4715C30.2915 61.4508 30.1583 61.4308 30.0207 61.4308C28.5902 61.4308 27.4307 62.5904 27.4307 64.0208C27.4307 65.4512 28.5902 66.6108 30.0207 66.6108C31.4511 66.6108 35.5707 66.6108 35.5707 66.6108V66.9808H40.7507V66.6108Z" fill="#FDFCEF"/>
<path d="M42.0461 63.2807C41.9432 63.2807 41.8604 63.1978 41.8604 63.095C41.8604 62.19 42.5967 61.4544 43.5009 61.4544C43.5268 61.4611 44.0463 61.4537 44.4222 61.555C44.5199 61.5817 44.5791 61.6831 44.5525 61.7807C44.5251 61.8806 44.4245 61.9384 44.3253 61.9117C43.9967 61.8222 43.5113 61.8222 43.5017 61.8237C42.8002 61.8237 42.2296 62.3942 42.2296 63.0957C42.2311 63.1978 42.1482 63.2807 42.0461 63.2807Z" fill="#472B29"/>
<path d="M37.0507 66.9808C37.255 66.9808 37.4207 66.8151 37.4207 66.6108C37.4207 66.4064 37.255 66.2408 37.0507 66.2408C36.8463 66.2408 36.6807 66.4064 36.6807 66.6108C36.6807 66.8151 36.8463 66.9808 37.0507 66.9808Z" fill="#472B29"/>
<path d="M43.3403 66.9809H40.7503C40.5461 66.9809 40.3803 66.8152 40.3803 66.6109C40.3803 66.4067 40.5461 66.2409 40.7503 66.2409H43.3403C44.565 66.2409 45.5603 65.2441 45.5603 64.0209C45.5603 62.9139 44.7278 61.9726 43.6237 61.8313C43.5238 61.8172 43.4343 61.7661 43.3751 61.6862C43.3152 61.6063 43.2892 61.5057 43.3048 61.4072C43.3218 61.2925 43.3403 61.1793 43.3403 61.0609C43.3403 59.8362 42.345 58.8409 41.1203 58.8409C40.4921 58.8409 39.9089 59.1036 39.4783 59.5809C39.3858 59.6838 39.2407 59.7267 39.1083 59.6904C38.9728 59.6542 38.8707 59.5461 38.8419 59.41C38.5895 58.223 37.5246 57.3609 36.3103 57.3609C34.8829 57.3609 33.7203 58.522 33.7203 59.9509C33.7203 60.0567 33.7359 60.1581 33.7507 60.2595C33.7721 60.4105 33.704 60.5844 33.5708 60.6591C33.4384 60.7353 33.2778 60.7471 33.1594 60.6524C32.89 60.4356 32.5726 60.3209 32.2396 60.3209C31.5255 60.3209 30.9135 60.8322 30.787 61.5375C30.7514 61.735 30.5679 61.8668 30.3659 61.8372C30.2527 61.8194 30.138 61.8009 30.0196 61.8009C28.7964 61.8009 27.7996 62.7962 27.7996 64.0209C27.7996 65.2441 28.7964 66.2409 30.0196 66.2409H35.5696C35.7738 66.2409 35.9396 66.4067 35.9396 66.6109C35.9396 66.8152 35.7738 66.9809 35.5696 66.9809H30.0196C28.3879 66.9809 27.0596 65.6526 27.0596 64.0209C27.0596 62.3877 28.3879 61.0609 30.0196 61.0609C30.0632 61.0609 30.1054 61.0616 30.1491 61.0646C30.4547 60.1877 31.2857 59.5809 32.2396 59.5809C32.4978 59.5809 32.7494 59.6261 32.9877 59.7141C33.1098 57.9877 34.5536 56.6209 36.3096 56.6209C37.6645 56.6209 38.8752 57.4549 39.3828 58.6729C39.886 58.3052 40.4935 58.1009 41.1196 58.1009C42.7528 58.1009 44.0796 59.4277 44.0796 61.0609C44.0796 61.0964 44.0788 61.1312 44.0766 61.1652C45.3664 61.4968 46.2996 62.666 46.2996 64.0209C46.3003 65.6526 44.9727 66.9809 43.3403 66.9809Z" fill="#472B29"/>
<path d="M39.2711 66.2408C39.1535 66.2408 38.6488 66.2408 38.5311 66.2408C38.3269 66.2408 38.1611 66.4065 38.1611 66.6108C38.1611 66.815 38.3269 66.9808 38.5311 66.9808C38.6488 66.9808 39.1535 66.9808 39.2711 66.9808C39.4754 66.9808 39.6411 66.815 39.6411 66.6108C39.6411 66.4065 39.4754 66.2408 39.2711 66.2408Z" fill="#472B29"/>
<path d="M63.5438 34.301C63.5438 34.301 62.6255 33.6106 62.6255 32.027C62.6255 30.4353 63.5438 29.7537 63.5438 29.7537H40.9161C39.6485 29.7537 38.6191 30.772 38.6191 32.027C38.6191 33.2828 39.6485 34.301 40.9161 34.301H63.5438Z" fill="#FDFCEF"/>
<path d="M60.7873 62.7628H40.9161C39.6485 62.7628 38.6191 61.7335 38.6191 60.4659V31.9788C38.6191 33.2479 39.6485 34.1981 40.9161 34.1981H63.5446V60.0063C63.5438 61.5285 62.3095 62.7628 60.7873 62.7628Z" fill="#8889B9"/>
<path d="M42.6026 34.1973H40.9161C39.6485 34.1973 38.6191 33.2472 38.6191 31.9781V60.4651C38.6191 61.7327 39.6485 62.7621 40.9161 62.7621H42.6026V34.1973Z" fill="#6667AD"/>
<path d="M55.5547 62.9146V65.8709L57.031 64.8852L58.5073 65.8709V62.9146H55.5547Z" fill="#F1BC19"/>
<path fill-rule="evenodd" clip-rule="evenodd" d="M63.2327 34.7153C63.1646 34.6642 62.1079 33.8384 62.1079 32.0269C62.1079 31.3453 62.2559 30.8044 62.4453 30.3907L62.5045 30.2716H40.9165C39.9286 30.2716 39.1376 31.0641 39.1376 32.0269C39.1376 32.3133 38.9045 32.5449 38.6196 32.5449C38.3332 32.5449 38.1016 32.3133 38.1016 32.0269C38.1016 30.481 39.3677 29.2356 40.9165 29.2356H63.545C64.0415 29.2356 64.2524 29.8742 63.8528 30.1702C63.9239 30.1177 63.1446 30.6638 63.1446 32.0269C63.1446 33.3833 63.9239 33.939 63.8558 33.888C64.0844 34.0597 64.1303 34.3845 63.9586 34.6132C63.7862 34.8418 63.4614 34.887 63.2327 34.7153Z" fill="#472B29"/>
<path fill-rule="evenodd" clip-rule="evenodd" d="M38.1016 60.4658V31.9788C38.1016 31.2973 39.1376 31.2973 39.1376 31.9788C39.1376 32.9386 39.9101 33.6801 40.9165 33.6801H63.545C63.8299 33.6801 64.063 33.9132 64.063 34.1981V60.0063C64.063 61.8149 62.5956 63.2808 60.7885 63.2808H40.9165C39.3625 63.2808 38.1016 62.0198 38.1016 60.4658ZM63.0262 60.0056V34.7153H40.9165C40.3423 34.7153 39.8028 34.5525 39.3529 34.2661L39.1376 34.0974V60.4651C39.1376 61.4478 39.9338 62.2441 40.9165 62.2441H60.7877C62.0243 62.2448 63.0262 61.2428 63.0262 60.0056Z" fill="#472B29"/>
<path fill-rule="evenodd" clip-rule="evenodd" d="M42.2295 57.1269V34.6058C42.2295 34.5044 42.3124 34.4215 42.4152 34.4215C42.5166 34.4215 42.5995 34.5044 42.5995 34.6058V57.1262C42.5995 57.229 42.5166 57.3119 42.4152 57.3119C42.3124 57.3119 42.2295 57.229 42.2295 57.1269Z" fill="#472B29"/>
<path fill-rule="evenodd" clip-rule="evenodd" d="M42.2295 60.827V58.6047C42.2295 58.5034 42.3124 58.4205 42.4152 58.4205C42.5166 58.4205 42.5995 58.5034 42.5995 58.6047V60.827C42.5995 60.9298 42.5166 61.0127 42.4152 61.0127C42.3124 61.012 42.2295 60.9291 42.2295 60.827Z" fill="#472B29"/>
<path fill-rule="evenodd" clip-rule="evenodd" d="M41.1191 32.0158C41.1191 31.9144 41.202 31.8315 41.3049 31.8315H62.5525C62.6539 31.8315 62.7368 31.9144 62.7368 32.0158C62.7368 32.1187 62.6539 32.2015 62.5525 32.2015H41.3049C41.202 32.2015 41.1191 32.1187 41.1191 32.0158Z" fill="#472B29"/>
<path fill-rule="evenodd" clip-rule="evenodd" d="M44.0791 32.7558C44.0791 32.6544 44.162 32.5715 44.2648 32.5715H62.756C62.8573 32.5715 62.9402 32.6544 62.9402 32.7558C62.9402 32.8587 62.8573 32.9415 62.756 32.9415H44.2648C44.162 32.9415 44.0791 32.8587 44.0791 32.7558Z" fill="#472B29"/>
<path fill-rule="evenodd" clip-rule="evenodd" d="M55.1846 65.8708V62.9145C55.1846 62.711 55.3503 62.5445 55.5546 62.5445C55.7581 62.5445 55.9246 62.711 55.9246 62.9145V65.1789L56.8244 64.578C56.9487 64.4944 57.1115 64.4944 57.2358 64.578L58.1364 65.1789V62.9145C58.1364 62.711 58.3022 62.5445 58.5064 62.5445C58.7099 62.5445 58.8764 62.711 58.8764 62.9145V65.8708C58.8764 66.1661 58.5456 66.3422 58.3 66.1786L57.0301 65.3299L55.7596 66.1786C55.5139 66.3422 55.1846 66.1653 55.1846 65.8708Z" fill="#472B29"/>
<path fill-rule="evenodd" clip-rule="evenodd" d="M44.0791 31.278C44.0791 31.1766 44.162 31.0938 44.2648 31.0938H62.756C62.8573 31.0938 62.9402 31.1766 62.9402 31.278C62.9402 31.3809 62.8573 31.4638 62.756 31.4638H44.2648C44.162 31.4638 44.0791 31.3809 44.0791 31.278Z" fill="#472B29"/>
<path fill-rule="evenodd" clip-rule="evenodd" d="M48.1783 54.7175C47.5959 54.5303 47.2732 53.9028 47.4642 53.3204L51.2951 41.4797C51.4431 41.0216 51.8694 40.7101 52.3519 40.7101H52.8314C53.3131 40.7101 53.7394 41.0216 53.8859 41.4797L57.7154 53.3204C57.9041 53.9035 57.5844 54.5303 57.0013 54.7175C56.4182 54.9062 55.7914 54.5866 55.6042 54.0034L54.8945 51.8108H50.2836L49.5754 54.0034C49.3882 54.5851 48.7606 54.9077 48.1783 54.7175ZM48.8716 53.7748L49.6627 51.3269C49.7123 51.1737 49.8544 51.0701 50.0149 51.0701H55.1631C55.323 51.0701 55.465 51.1737 55.5146 51.3269L56.3072 53.7748C56.3701 53.9694 56.5787 54.076 56.7726 54.0138C56.9672 53.9509 57.0738 53.7422 57.0116 53.5483L53.1821 41.7076C53.1318 41.5537 52.9897 41.4501 52.8306 41.4501H52.3511C52.1891 41.4501 52.047 41.5537 51.9981 41.7076L48.1672 53.5483C48.105 53.7415 48.2108 53.9509 48.4062 54.0138C48.5993 54.076 48.8087 53.9701 48.8716 53.7748ZM50.1415 49.8469L52.2379 43.3696C52.3474 43.0292 52.8321 43.0292 52.9416 43.3696L55.0366 49.8469C55.1143 50.0859 54.9359 50.3301 54.6851 50.3301H50.4937C50.2421 50.3308 50.0638 50.0859 50.1415 49.8469ZM54.176 49.5908L52.5894 44.6861L51.0021 49.5908H54.176Z" fill="#472B29"/>
<path fill-rule="evenodd" clip-rule="evenodd" d="M48.2932 54.3654C47.9047 54.2403 47.6901 53.8215 47.8166 53.4337L51.6476 41.593C51.746 41.2873 52.0302 41.0801 52.3521 41.0801H52.8316C53.152 41.0801 53.4362 41.2873 53.5353 41.593L57.3648 53.4337C57.4899 53.8222 57.2768 54.2396 56.8883 54.3654C56.4998 54.4904 56.0824 54.2773 55.9566 53.8888L52.5911 43.4837L49.2248 53.8888C49.099 54.2773 48.6809 54.4912 48.2932 54.3654Z" fill="#FDFCEF"/>
<path fill-rule="evenodd" clip-rule="evenodd" d="M49.2607 50.7008C49.2607 50.2931 49.5923 49.9608 50.0007 49.9608H55.1807C55.5885 49.9608 55.9207 50.2931 55.9207 50.7008C55.9207 51.1093 55.5885 51.4408 55.1807 51.4408H50.0007C49.5923 51.4408 49.2607 51.1093 49.2607 50.7008Z" fill="#FDFCEF"/>
<path d="M73.5878 46.6308C73.5878 46.6308 76.2814 46.6308 78.1203 46.6308C79.9592 46.6308 81.4503 45.1397 81.4503 43.3008C81.4503 41.5744 80.1323 40.1714 78.4496 40.0041C78.4651 39.8702 78.4903 39.7385 78.4903 39.6008C78.4903 37.7619 76.9992 36.2708 75.1603 36.2708C74.0954 36.2708 73.1601 36.7777 72.5503 37.5555C72.4467 35.6048 70.8461 34.0508 68.8703 34.0508C66.8271 34.0508 65.1703 35.7077 65.1703 37.7508C65.1703 38.0801 65.2273 38.3939 65.3087 38.6988C64.8343 38.1245 64.1247 37.7508 63.3203 37.7508C62.0023 37.7508 60.9279 38.7387 60.7636 40.0115C60.6296 39.996 60.4979 39.9708 60.3603 39.9708C58.5214 39.9708 57.0303 41.4619 57.0303 43.3008C57.0303 45.1397 58.5214 46.6308 60.3603 46.6308C62.1992 46.6308 67.3903 46.6308 67.3903 46.6308H71.3678V47.0008H73.5878V46.6308Z" fill="#FDFCEF"/>
<path d="M68.8711 33.6807C66.6267 33.6807 64.8011 35.5063 64.8011 37.7507C64.8011 37.7626 64.8011 37.7737 64.8011 37.7855C64.3564 37.5228 63.8473 37.3807 63.3211 37.3807C61.9662 37.3807 60.797 38.3139 60.467 39.6044C60.4314 39.6015 60.3967 39.6007 60.3611 39.6007C58.321 39.6007 56.6611 41.2605 56.6611 43.3007C56.6611 45.3409 58.321 47.0007 60.3611 47.0007H71.3686C71.5729 47.0007 71.7386 46.835 71.7386 46.6307C71.7386 46.4265 71.5729 46.2607 71.3686 46.2607H60.3611C58.7294 46.2607 57.4011 44.9324 57.4011 43.3007C57.4011 41.6675 58.7294 40.3407 60.3611 40.3407C60.4477 40.3407 60.5321 40.3533 60.615 40.3644L60.7193 40.3785C60.7348 40.3807 60.7496 40.3814 60.7659 40.3814C60.9472 40.3814 61.1071 40.2453 61.1322 40.058C61.2736 38.954 62.2148 38.1215 63.3219 38.1215C63.9768 38.1215 64.5969 38.4182 65.0246 38.9355C65.0964 39.022 65.203 39.0694 65.3095 39.0694C65.368 39.0694 65.425 39.0568 65.4782 39.028C65.6329 38.9488 65.7113 38.7727 65.6669 38.6047C65.5818 38.282 65.5419 38.0119 65.5419 37.7515C65.5419 35.9155 67.0359 34.4215 68.8719 34.4215C70.6338 34.4215 72.0887 35.8067 72.1834 37.5761C72.1915 37.73 72.2936 37.8625 72.4409 37.9098C72.4786 37.9217 72.5156 37.9276 72.5534 37.9276C72.6651 37.9276 72.7724 37.8765 72.8435 37.7855C73.4147 37.0581 74.2583 36.6422 75.1619 36.6422C76.7951 36.6422 78.1219 37.969 78.1219 39.6022C78.1219 39.6888 78.1093 39.7717 78.0982 39.856L78.0841 39.9604C78.0723 40.0588 78.0997 40.1587 78.1618 40.2364C78.224 40.3133 78.3158 40.3637 78.4134 40.3725C79.9349 40.5242 81.0811 41.7845 81.0811 43.3022C81.0811 44.9339 79.7543 46.2622 78.1211 46.2622H73.5886C73.3844 46.2622 73.2186 46.428 73.2186 46.6322C73.2186 46.8364 73.3844 47.0022 73.5886 47.0022H78.1211C80.1613 47.0022 81.8211 45.3424 81.8211 43.3022C81.8211 41.5284 80.5713 40.0366 78.8589 39.6932C78.8597 39.6629 78.8611 39.6333 78.8611 39.6022C78.8611 37.562 77.2013 35.9022 75.1611 35.9022C74.2909 35.9022 73.4643 36.21 72.8057 36.7636C72.3625 34.9831 70.7611 33.6807 68.8711 33.6807Z" fill="#472B29"/>
<path d="M67.7606 38.8608C66.7224 38.8608 65.8299 39.6 65.605 40.5931C65.3334 40.4281 65.0241 40.3408 64.7081 40.3408C63.8194 40.3408 63.0823 41.0046 62.9676 41.8711C62.8167 41.8363 62.6746 41.8208 62.5355 41.8208C61.404 41.8208 60.4546 42.7088 60.3754 43.8425C60.3687 43.9438 60.4457 44.0341 60.5463 44.0408C60.5515 44.0408 60.5552 44.0408 60.5604 44.0408C60.6559 44.0408 60.738 43.966 60.7447 43.8691C60.8098 42.9286 61.5964 42.1908 62.5347 42.1908C62.7042 42.1908 62.8818 42.2211 63.0801 42.2848C63.0971 42.2899 63.1134 42.2929 63.1304 42.2929C63.1711 42.2929 63.2111 42.2781 63.2459 42.2522C63.2932 42.2189 63.3206 42.1575 63.3206 42.0983C63.3206 41.3339 63.9429 40.7108 64.7081 40.7108C65.0396 40.7108 65.363 40.8351 65.6198 41.0608C65.6546 41.0904 65.6975 41.1074 65.7411 41.1074C65.7648 41.1074 65.7885 41.1022 65.81 41.0934C65.8751 41.0667 65.9195 41.0068 65.9247 40.9365C66.0016 39.9797 66.8075 39.2308 67.7606 39.2308C67.9145 39.2308 68.0751 39.2552 68.266 39.31C68.283 39.3151 68.3008 39.3181 68.3171 39.3181C68.3977 39.3181 68.4703 39.2641 68.4939 39.1827C68.5228 39.0843 68.4651 38.9821 68.3667 38.954C68.1432 38.8904 67.95 38.8608 67.7606 38.8608Z" fill="#472B29"/>
<path d="M78.0339 39.9708C77.0534 39.9708 76.1779 40.6345 75.9078 41.5847C75.879 41.6831 75.9367 41.786 76.0351 41.8134C76.0529 41.8185 76.0699 41.82 76.0862 41.82C76.1661 41.82 76.2401 41.7667 76.2638 41.6846C76.4887 40.8935 77.2169 40.34 78.0339 40.34C78.1204 40.34 78.2048 40.3496 78.2877 40.3615C78.2966 40.3622 78.3047 40.3637 78.3136 40.3637C78.4031 40.3637 78.483 40.2956 78.4964 40.2031C78.5104 40.1017 78.4394 40.0085 78.3373 39.9952C78.2381 39.9826 78.1375 39.9708 78.0339 39.9708Z" fill="#472B29"/>
</svg>
