<svg width="100" height="94" viewBox="0 0 100 94" fill="none" xmlns="http://www.w3.org/2000/svg">
<path d="M98.1364 35.1453C103.553 53.5248 94.4407 74.4947 79.3555 85.0448C64.2706 95.6705 43.1364 95.8012 26.1762 84.9189C9.13977 73.9612 -3.72311 51.9148 1.38925 33.3944C6.57782 14.9493 29.8174 0.0297668 51.3341 0.502943C72.9266 0.97565 92.7958 16.7653 98.1364 35.1453Z" fill="#FFFBF3"/>
<path d="M77.5393 51.9655C78.3792 50.3708 78.8602 48.5578 78.8602 46.6301C78.8602 41.7306 75.7825 37.56 71.4594 35.9164C71.4594 35.9112 71.4602 35.9061 71.4602 35.9001C71.4602 27.3176 64.5027 20.3601 55.9202 20.3601C48.68 20.3601 42.6142 25.3189 40.8885 32.0203C39.7963 31.6614 38.6323 31.4601 37.4202 31.4601C31.7281 31.4601 27.0431 35.747 26.4016 41.2666C22.5506 42.0814 19.6602 45.4972 19.6602 49.5901C19.6602 54.2899 23.4704 58.1001 28.1702 58.1001C28.3011 58.1001 28.4306 58.0913 28.5594 58.0839C28.5564 58.2134 28.5402 58.3399 28.5402 58.4701C28.5402 66.8484 35.3319 73.6401 43.7102 73.6401C48.4735 73.6401 52.7197 71.4409 55.5013 68.0058C57.113 69.6523 59.3538 70.6801 61.8402 70.6801C65.2812 70.6801 68.2589 68.7191 69.733 65.8568C70.5115 66.1047 71.3395 66.2401 72.2002 66.2401C76.6957 66.2401 80.3402 62.5956 80.3402 58.1001C80.3402 55.65 79.2524 53.4581 77.5393 51.9655Z" fill="#C7EDE6"/>
<path d="M68.8703 54.7701V55.1401H71.0903V54.7701C72.48 54.7701 74.1865 54.7701 75.1603 54.7701C76.9992 54.7701 78.4903 53.279 78.4903 51.4401C78.4903 49.7137 77.1716 48.3106 75.4896 48.1434C75.5059 48.0095 75.5303 47.8785 75.5303 47.7401C75.5303 45.9012 74.0392 44.4101 72.2003 44.4101C71.1362 44.4101 70.2001 44.9177 69.5903 45.6947C69.4867 43.7441 67.8869 42.1901 65.9103 42.1901C63.8672 42.1901 62.2103 43.847 62.2103 45.8901C62.2103 46.2201 62.2673 46.5339 62.3487 46.8388C61.8736 46.2638 61.164 45.8901 60.3603 45.8901C59.0424 45.8901 57.9672 46.878 57.8036 48.1508C57.6697 48.1345 57.5387 48.1101 57.4003 48.1101C55.5614 48.1101 54.0703 49.6012 54.0703 51.4401C54.0703 53.279 55.5614 54.7701 57.4003 54.7701C59.2392 54.7701 64.4303 54.7701 64.4303 54.7701H68.8703Z" fill="#FDFCEF"/>
<path d="M64.8004 47.0002C63.7622 47.0002 62.8697 47.7394 62.6448 48.7325C62.3732 48.5682 62.0631 48.4802 61.7479 48.4802C60.8584 48.4802 60.1214 49.1439 60.0067 50.0105C59.8565 49.9764 59.7136 49.9602 59.5738 49.9602C58.4423 49.9602 57.4936 50.8482 57.4145 51.9818C57.4078 52.084 57.4848 52.1728 57.5861 52.1802C57.5906 52.1802 57.595 52.1802 57.5995 52.1802C57.6957 52.1802 57.7771 52.1054 57.7837 52.0085C57.8496 51.0679 58.6355 50.3302 59.5738 50.3302C59.7432 50.3302 59.9216 50.3612 60.1199 50.4241C60.1362 50.4293 60.1532 50.4315 60.1695 50.4315C60.2102 50.4315 60.2509 50.4167 60.2849 50.3916C60.3323 50.3575 60.3604 50.2969 60.3604 50.2377C60.3604 49.4725 60.9827 48.8502 61.7479 48.8502C62.0787 48.8502 62.4028 48.9745 62.6588 49.2002C62.6936 49.2305 62.7373 49.2468 62.7809 49.2468C62.8046 49.2468 62.8276 49.2424 62.8498 49.2327C62.9149 49.2068 62.9593 49.1462 62.9645 49.0759C63.0414 48.119 63.8473 47.3702 64.8004 47.3702C64.9543 47.3702 65.1149 47.3953 65.3051 47.4493C65.3221 47.4545 65.3399 47.4567 65.3569 47.4567C65.4375 47.4567 65.5101 47.4027 65.5337 47.3221C65.5619 47.2236 65.5049 47.1215 65.4065 47.0934C65.183 47.0298 64.9898 47.0002 64.8004 47.0002ZM75.0738 48.1102C74.0926 48.1102 73.2179 48.7739 72.9471 49.7248C72.9189 49.8233 72.9759 49.9254 73.0743 49.9535C73.0921 49.9579 73.1091 49.9602 73.1254 49.9602C73.2061 49.9602 73.2801 49.9069 73.303 49.8255C73.5287 49.0337 74.2569 48.4802 75.0738 48.4802C75.1604 48.4802 75.244 48.4905 75.3269 48.5016C75.3358 48.5031 75.3439 48.5038 75.3528 48.5038C75.4423 48.5038 75.5223 48.4358 75.5348 48.3433C75.5489 48.2419 75.4779 48.1486 75.3765 48.1353C75.2773 48.122 75.1767 48.1102 75.0738 48.1102Z" fill="#472B29"/>
<path d="M75.898 47.8312C75.8995 47.8008 75.9002 47.7705 75.9002 47.7402C75.9002 45.7 74.2404 44.0402 72.2002 44.0402C71.33 44.0402 70.5034 44.348 69.8448 44.9015C69.4023 43.1226 67.8009 41.8202 65.9102 41.8202C63.6658 41.8202 61.8402 43.6457 61.8402 45.8902C61.8402 45.902 61.8402 45.9131 61.8402 45.9249C61.3947 45.6622 60.8856 45.5202 60.3602 45.5202C59.0053 45.5202 57.8361 46.4533 57.5053 47.7439C57.4705 47.7416 57.4357 47.7402 57.4002 47.7402C55.36 47.7402 53.7002 49.4 53.7002 51.4402C53.7002 53.4803 55.36 55.1402 57.4002 55.1402H68.8702C69.0744 55.1402 69.2402 54.9744 69.2402 54.7702C69.2402 54.5659 69.0744 54.4002 68.8702 54.4002H57.4002C55.7678 54.4002 54.4402 53.0726 54.4402 51.4402C54.4402 49.8077 55.7678 48.4802 57.4002 48.4802C57.4868 48.4802 57.5704 48.4927 57.654 48.5038L57.7584 48.5179C57.7739 48.5201 57.7887 48.5209 57.8042 48.5209C57.9863 48.5209 58.1461 48.384 58.1705 48.1975C58.3119 47.0927 59.2532 46.2602 60.3602 46.2602C61.0151 46.2602 61.6352 46.5569 62.0629 47.0742C62.1355 47.1615 62.2413 47.2088 62.3486 47.2088C62.4056 47.2088 62.464 47.1955 62.5173 47.1674C62.541 47.1548 62.5595 47.1371 62.5795 47.12C62.5795 47.12 62.5795 46.0093 62.5795 45.8902C62.5795 44.0542 64.0735 42.5602 65.9095 42.5602C67.6714 42.5602 69.1262 43.9454 69.2202 45.7148C69.2284 45.8687 69.3312 46.0012 69.4785 46.0478C69.5155 46.0596 69.5532 46.0655 69.591 46.0655C69.702 46.0655 69.81 46.0145 69.881 45.9235C70.4523 45.1968 71.2967 44.7802 72.2002 44.7802C73.8326 44.7802 75.1602 46.1077 75.1602 47.7402C75.1602 47.8267 75.1476 47.9104 75.1365 47.994L75.1225 48.0983C75.1106 48.1975 75.1387 48.2966 75.2009 48.3743C75.2631 48.452 75.3541 48.5016 75.4525 48.5112C76.9739 48.6629 78.1202 49.9224 78.1202 51.4402C78.1202 53.0726 76.7926 54.4002 75.1602 54.4002H71.0902C70.886 54.4002 70.7202 54.5659 70.7202 54.7702C70.7202 54.9744 70.886 55.1402 71.0902 55.1402H75.1602C77.2004 55.1402 78.8602 53.4803 78.8602 51.4402C78.8602 49.6664 77.6103 48.1745 75.898 47.8312Z" fill="#472B29"/>
<path d="M24.4702 47.7402H17.0702C16.866 47.7402 16.7002 47.5744 16.7002 47.3702C16.7002 47.1659 16.866 47.0002 17.0702 47.0002H24.4702C24.6744 47.0002 24.8402 47.1659 24.8402 47.3702C24.8402 47.5744 24.6752 47.7402 24.4702 47.7402ZM26.6902 47.7402H25.9502C25.746 47.7402 25.5802 47.5744 25.5802 47.3702C25.5802 47.1659 25.746 47.0002 25.9502 47.0002H26.6902C26.8944 47.0002 27.0602 47.1659 27.0602 47.3702C27.0602 47.5744 26.8952 47.7402 26.6902 47.7402ZM30.3835 49.2202H23.7302C23.526 49.2202 23.3602 49.0544 23.3602 48.8502C23.3602 48.6459 23.526 48.4802 23.7302 48.4802H30.3835C30.5878 48.4802 30.7535 48.6459 30.7535 48.8502C30.7535 49.0544 30.5878 49.2202 30.3835 49.2202ZM22.2502 49.2202H21.5102C21.306 49.2202 21.1402 49.0544 21.1402 48.8502C21.1402 48.6459 21.306 48.4802 21.5102 48.4802H22.2502C22.4544 48.4802 22.6202 48.6459 22.6202 48.8502C22.6202 49.0544 22.4552 49.2202 22.2502 49.2202ZM20.0302 49.2202H18.5502C18.346 49.2202 18.1802 49.0544 18.1802 48.8502C18.1802 48.6459 18.346 48.4802 18.5502 48.4802H20.0302C20.2344 48.4802 20.4002 48.6459 20.4002 48.8502C20.4002 49.0544 20.2352 49.2202 20.0302 49.2202ZM24.4702 50.7002H22.9902C22.786 50.7002 22.6202 50.5344 22.6202 50.3302C22.6202 50.1259 22.786 49.9602 22.9902 49.9602H24.4702C24.6744 49.9602 24.8402 50.1259 24.8402 50.3302C24.8402 50.5344 24.6744 50.7002 24.4702 50.7002ZM26.6902 44.0402C26.5592 44.0402 26.0812 44.0402 25.9502 44.0402C25.746 44.0402 25.5802 44.2059 25.5802 44.4102C25.5802 44.6144 25.746 44.7802 25.9502 44.7802C26.0812 44.7802 26.5592 44.7802 26.6902 44.7802C26.8944 44.7802 27.0602 44.6144 27.0602 44.4102C27.0602 44.2059 26.8944 44.0402 26.6902 44.0402ZM26.6902 45.5202C26.5592 45.5202 23.1212 45.5202 22.9902 45.5202C22.786 45.5202 22.6202 45.6859 22.6202 45.8902C22.6202 46.0944 22.786 46.2602 22.9902 46.2602C23.1212 46.2602 26.5592 46.2602 26.6902 46.2602C26.8944 46.2602 27.0602 46.0944 27.0602 45.8902C27.0602 45.6859 26.8944 45.5202 26.6902 45.5202ZM30.3902 47.0002C30.2592 47.0002 28.3012 47.0002 28.1702 47.0002C27.966 47.0002 27.8002 47.1659 27.8002 47.3702C27.8002 47.5744 27.966 47.7402 28.1702 47.7402C28.3012 47.7402 30.2592 47.7402 30.3902 47.7402C30.5944 47.7402 30.7602 47.5744 30.7602 47.3702C30.7602 47.1659 30.5944 47.0002 30.3902 47.0002Z" fill="white"/>
<path d="M62.9497 24.8001H55.5497C55.3454 24.8001 55.1797 24.6343 55.1797 24.4301C55.1797 24.2259 55.3454 24.0601 55.5497 24.0601H62.9497C63.1539 24.0601 63.3197 24.2259 63.3197 24.4301C63.3197 24.6343 63.1539 24.8001 62.9497 24.8001ZM67.3897 24.8001H64.4297C64.2254 24.8001 64.0597 24.6343 64.0597 24.4301C64.0597 24.2259 64.2254 24.0601 64.4297 24.0601H67.3897C67.5939 24.0601 67.7597 24.2259 67.7597 24.4301C67.7597 24.6343 67.5939 24.8001 67.3897 24.8001ZM69.6097 26.2801H62.2097C62.0054 26.2801 61.8397 26.1143 61.8397 25.9101C61.8397 25.7059 62.0054 25.5401 62.2097 25.5401H69.6097C69.8139 25.5401 69.9797 25.7059 69.9797 25.9101C69.9797 26.1143 69.8147 26.2801 69.6097 26.2801ZM60.7297 26.2801H59.9897C59.7854 26.2801 59.6197 26.1143 59.6197 25.9101C59.6197 25.7059 59.7854 25.5401 59.9897 25.5401H60.7297C60.9339 25.5401 61.0997 25.7059 61.0997 25.9101C61.0997 26.1143 60.9339 26.2801 60.7297 26.2801ZM58.4875 26.2801H57.0297C56.8254 26.2801 56.6597 26.1143 56.6597 25.9101C56.6597 25.7059 56.8254 25.5401 57.0297 25.5401H58.4875C58.6917 25.5401 58.8575 25.7059 58.8575 25.9101C58.8575 26.1143 58.6917 26.2801 58.4875 26.2801ZM65.1697 23.3201H61.4697C61.2654 23.3201 61.0997 23.1543 61.0997 22.9501C61.0997 22.7459 61.2654 22.5801 61.4697 22.5801H65.1697C65.3739 22.5801 65.5397 22.7459 65.5397 22.9501C65.5397 23.1543 65.3747 23.3201 65.1697 23.3201ZM62.9497 27.7601H61.4697C61.2654 27.7601 61.0997 27.5943 61.0997 27.3901C61.0997 27.1859 61.2654 27.0201 61.4697 27.0201H62.9497C63.1539 27.0201 63.3197 27.1859 63.3197 27.3901C63.3197 27.5943 63.1539 27.7601 62.9497 27.7601Z" fill="white"/>
<path d="M62.224 63.1691H41.86C40.6974 63.1691 39.751 62.2234 39.751 61.0601C39.751 59.8969 40.6967 58.9511 41.86 58.9511H62.2329L61.9665 59.2575C61.527 59.7637 61.285 60.403 61.285 61.0601C61.285 61.7165 61.5247 62.3574 61.9606 62.8635L62.224 63.1691Z" fill="#E1E0D8"/>
<path d="M39.751 59.2316V32.9401C39.751 31.7769 40.6967 30.8311 41.86 30.8311H61.1C62.2625 30.8311 63.209 31.7769 63.209 32.9401V58.2851H41.86C41.1977 58.2851 40.5746 58.5212 40.0566 58.9674L39.751 59.2316Z" fill="#BD977C"/>
<path d="M46.3 30.8311H41.86C40.6974 30.8311 39.751 31.7769 39.751 32.9401V59.2316L40.0566 58.9682C40.5739 58.5212 41.1977 58.2859 41.86 58.2859H46.3V30.8311Z" fill="#9F8066"/>
<path d="M63.7637 59.1591C63.9375 59.1317 64.0604 58.9741 64.0604 58.7987V32.9401C64.0604 31.3055 62.7351 29.9801 61.1004 29.9801H41.8604C40.2257 29.9801 38.9004 31.3055 38.9004 32.9401V61.0601C38.9004 61.4686 38.9833 61.8579 39.1328 62.2123C39.2822 62.5668 39.4991 62.8857 39.7669 63.1529C39.9009 63.2868 40.0474 63.4082 40.205 63.514C40.5203 63.7271 40.8777 63.8803 41.2632 63.9595C41.4564 63.9994 41.6562 64.0201 41.8604 64.0201C41.9248 64.0201 63.4943 64.0201 63.5424 64.0201C63.828 64.0201 64.0597 63.7885 64.0604 63.5029C64.0604 63.5007 64.0589 63.4977 64.0589 63.4955C64.0552 63.218 63.8562 62.9938 63.5861 62.9249C62.7543 62.7133 62.1364 61.9578 62.1364 61.0601C62.1364 60.1004 62.8431 59.3019 63.7637 59.1591ZM41.8604 31.0161H61.1004C62.163 31.0161 63.0244 31.8775 63.0244 32.9401V58.1001C63.0244 58.1001 43.3626 58.1001 41.8604 58.1001C41.1219 58.1001 40.4551 58.3806 39.9364 58.8276V32.9401C39.9364 31.8775 40.7978 31.0161 41.8604 31.0161ZM41.8604 62.9841C40.7992 62.9841 39.9364 62.1213 39.9364 61.0601C39.9364 59.999 40.7992 59.1361 41.8604 59.1361H61.8278C61.3786 59.6527 61.1004 60.3209 61.1004 61.0601C61.1004 61.7972 61.3749 62.4661 61.8211 62.9841H41.8604Z" fill="#472B29"/>
<path d="M46.0226 50.7001C45.8694 50.7001 45.7451 50.5758 45.7451 50.4226V42.8376C45.7451 42.6844 45.8694 42.5601 46.0226 42.5601C46.1758 42.5601 46.3001 42.6844 46.3001 42.8376V50.4226C46.3001 50.5758 46.1758 50.7001 46.0226 50.7001ZM46.0226 54.4001C45.8694 54.4001 45.7451 54.2758 45.7451 54.1226V53.1976C45.7451 53.0444 45.8694 52.9201 46.0226 52.9201C46.1758 52.9201 46.3001 53.0444 46.3001 53.1976V54.1226C46.3001 54.2758 46.1758 54.4001 46.0226 54.4001ZM46.0226 56.6201C45.8694 56.6201 45.7451 56.4958 45.7451 56.3426V55.4176C45.7451 55.2644 45.8694 55.1401 46.0226 55.1401C46.1758 55.1401 46.3001 55.2644 46.3001 55.4176V56.3426C46.3001 56.4958 46.1758 56.6201 46.0226 56.6201ZM61.5626 61.0601H47.3176C47.1644 61.0601 47.0401 60.9358 47.0401 60.7826C47.0401 60.6294 47.1644 60.5051 47.3176 60.5051H61.5626C61.7158 60.5051 61.8401 60.6294 61.8401 60.7826C61.8401 60.9358 61.7158 61.0601 61.5626 61.0601ZM61.5626 62.3551H52.4976C52.3444 62.3551 52.2201 62.2308 52.2201 62.0776C52.2201 61.9244 52.3444 61.8001 52.4976 61.8001H61.5626C61.7158 61.8001 61.8401 61.9244 61.8401 62.0776C61.8401 62.2308 61.7158 62.3551 61.5626 62.3551ZM51.2026 62.3551H50.2776C50.1244 62.3551 50.0001 62.2308 50.0001 62.0776C50.0001 61.9244 50.1244 61.8001 50.2776 61.8001H51.2026C51.3558 61.8001 51.4801 61.9244 51.4801 62.0776C51.4801 62.2308 51.3558 62.3551 51.2026 62.3551Z" fill="#472B29"/>
<path d="M42.7842 29.4252H50.5542V44.5952L46.6692 42.8377L42.7842 44.5952V29.4252Z" fill="#EE3E54"/>
<path d="M50.4621 44.7801C50.4244 44.7801 50.3859 44.7727 50.3511 44.7565L46.6696 43.141L42.9881 44.7572C42.903 44.7949 42.8031 44.7868 42.7254 44.7357C42.6462 44.6839 42.5996 44.5959 42.5996 44.5026V29.5176C42.5996 29.3645 42.7239 29.2401 42.8771 29.2401H50.4621C50.6153 29.2401 50.7396 29.3645 50.7396 29.5176V44.5026C50.7396 44.5959 50.693 44.6839 50.6138 44.735C50.5687 44.7646 50.5146 44.7801 50.4621 44.7801ZM46.6696 42.5601C46.7081 42.5601 46.7458 42.5683 46.7806 42.5838L50.1846 44.0779V29.7951H43.1546V44.0779L46.5586 42.5838C46.5934 42.5683 46.6311 42.5601 46.6696 42.5601Z" fill="#472B29"/>
<path d="M40.7497 64.3902C40.7497 64.3902 41.9093 64.3902 43.3397 64.3902C44.7701 64.3902 45.9297 63.2306 45.9297 61.8002C45.9297 60.4822 44.9418 59.407 43.669 59.2435C43.6897 59.111 43.7097 58.9786 43.7097 58.8402C43.7097 57.4098 42.5501 56.2502 41.1197 56.2502C40.356 56.2502 39.6767 56.5869 39.2031 57.1123C38.9189 55.7744 37.7327 54.7702 36.3097 54.7702C34.675 54.7702 33.3497 56.0955 33.3497 57.7302C33.3497 57.8715 33.3719 58.0069 33.3911 58.1431C33.0744 57.8885 32.6778 57.7302 32.2397 57.7302C31.331 57.7302 30.5784 58.3866 30.423 59.2509C30.2905 59.2302 30.1581 59.2102 30.0197 59.2102C28.5893 59.2102 27.4297 60.3698 27.4297 61.8002C27.4297 63.2306 28.5893 64.3902 30.0197 64.3902C31.4501 64.3902 35.5697 64.3902 35.5697 64.3902V64.7602H40.7497V64.3902Z" fill="#FDFCEF"/>
<path d="M42.0447 61.0602C41.9426 61.0602 41.8597 60.9773 41.8597 60.8752C41.8597 59.9702 42.596 59.2339 43.501 59.2339C43.5262 59.2405 44.0464 59.2331 44.4216 59.3345C44.52 59.3611 44.5784 59.4625 44.5518 59.5609C44.5252 59.6601 44.4238 59.7186 44.3254 59.6912C43.9968 59.6024 43.5114 59.6024 43.5017 59.6039C42.8002 59.6039 42.2297 60.1744 42.2297 60.8752C42.2297 60.9773 42.1468 61.0602 42.0447 61.0602ZM37.0497 64.0202C36.9516 64.0202 36.8574 64.0592 36.7881 64.1285C36.7187 64.1979 36.6797 64.292 36.6797 64.3902C36.6797 64.4883 36.7187 64.5824 36.7881 64.6518C36.8574 64.7212 36.9516 64.7602 37.0497 64.7602C37.1478 64.7602 37.2419 64.7212 37.3113 64.6518C37.3807 64.5824 37.4197 64.4883 37.4197 64.3902C37.4197 64.292 37.3807 64.1979 37.3113 64.1285C37.2419 64.0592 37.1478 64.0202 37.0497 64.0202Z" fill="#472B29"/>
<path d="M43.3396 64.7602H40.7496C40.5453 64.7602 40.3796 64.5944 40.3796 64.3902C40.3796 64.1859 40.5453 64.0202 40.7496 64.0202H43.3396C44.5635 64.0202 45.5596 63.0241 45.5596 61.8002C45.5596 60.6931 44.7271 59.7519 43.6222 59.6105C43.5231 59.5972 43.4336 59.5454 43.3736 59.4655C43.3137 59.3856 43.2885 59.2849 43.3041 59.1865C43.3211 59.0725 43.3396 58.9586 43.3396 58.8402C43.3396 57.6162 42.3435 56.6202 41.1196 56.6202C40.4906 56.6202 39.9074 56.8829 39.4775 57.3602C39.385 57.463 39.24 57.5067 39.1075 57.4697C38.9728 57.4334 38.87 57.3254 38.8411 57.1892C38.5888 56.0023 37.5239 55.1402 36.3096 55.1402C34.8814 55.1402 33.7196 56.302 33.7196 57.7302C33.7196 57.836 33.7351 57.9374 33.7499 58.0395C33.7714 58.1897 33.7033 58.3636 33.5708 58.4391C33.4384 58.5146 33.2778 58.5264 33.1594 58.4317C32.8893 58.2149 32.5718 58.1002 32.2396 58.1002C31.5247 58.1002 30.9135 58.6115 30.787 59.3167C30.7514 59.5143 30.5679 59.6468 30.3659 59.6164C30.2519 59.5987 30.138 59.5802 30.0196 59.5802C28.7956 59.5802 27.7996 60.5762 27.7996 61.8002C27.7996 63.0241 28.7956 64.0202 30.0196 64.0202H35.5696C35.7738 64.0202 35.9396 64.1859 35.9396 64.3902C35.9396 64.5944 35.7738 64.7602 35.5696 64.7602H30.0196C28.3871 64.7602 27.0596 63.4326 27.0596 61.8002C27.0596 60.1677 28.3871 58.8402 30.0196 58.8402C30.0632 58.8402 30.1054 58.8417 30.1483 58.8446C30.4547 57.967 31.2857 57.3602 32.2396 57.3602C32.4978 57.3602 32.7494 57.4053 32.9877 57.4934C33.1098 55.767 34.5528 54.4002 36.3096 54.4002C37.6645 54.4002 38.8744 55.2342 39.3828 56.4529C39.886 56.0844 40.4943 55.8802 41.1196 55.8802C42.752 55.8802 44.0796 57.2077 44.0796 58.8402C44.0796 58.8757 44.0788 58.9105 44.0766 58.9453C45.3664 59.2768 46.2996 60.4452 46.2996 61.8002C46.2996 63.4326 44.972 64.7602 43.3396 64.7602Z" fill="#472B29"/>
<path d="M39.2692 64.0202C39.1515 64.0202 38.6468 64.0202 38.5292 64.0202C38.3249 64.0202 38.1592 64.1859 38.1592 64.3902C38.1592 64.5944 38.3249 64.7602 38.5292 64.7602C38.6468 64.7602 39.1515 64.7602 39.2692 64.7602C39.4734 64.7602 39.6392 64.5944 39.6392 64.3902C39.6392 64.1859 39.4734 64.0202 39.2692 64.0202Z" fill="#472B29"/>
</svg>
