<svg width="100" height="94" viewBox="0 0 100 94" fill="none" xmlns="http://www.w3.org/2000/svg">
<path d="M98.1364 35.1452C103.553 53.5248 94.4407 74.4947 79.3555 85.0447C64.2706 95.6705 43.1364 95.8011 26.1762 84.9188C9.13977 73.9611 -3.72311 51.9147 1.38925 33.3943C6.57782 14.9492 29.8174 0.0297057 51.3341 0.502882C72.9266 0.975589 92.7958 16.7652 98.1364 35.1452Z" fill="#E6F6FD"/>
<path d="M77.6561 51.7936C78.4996 50.192 78.9827 48.3711 78.9827 46.4351C78.9827 41.5143 75.8917 37.3256 71.5499 35.675C71.5499 35.6698 71.5506 35.6646 71.5506 35.6586C71.5506 27.0389 64.563 20.0513 55.9434 20.0513C48.6719 20.0513 42.5798 25.0315 40.8467 31.762C39.7497 31.4015 38.5806 31.1994 37.3633 31.1994C31.6465 31.1994 26.9413 35.5048 26.297 41.0483C22.4293 41.8666 19.5264 45.2972 19.5264 49.4079C19.5264 54.128 23.3531 57.9547 28.0732 57.9547C28.2048 57.9547 28.3348 57.9458 28.4641 57.9384C28.4612 58.0684 28.4448 58.1955 28.4448 58.3263C28.4448 66.7409 35.2659 73.562 43.6805 73.562C48.4645 73.562 52.729 71.3532 55.5227 67.9033C57.1414 69.5569 59.3918 70.5892 61.889 70.5892C65.3449 70.5892 68.3355 68.6197 69.816 65.745C70.5979 65.994 71.4295 66.13 72.2938 66.13C76.8088 66.13 80.4691 62.4697 80.4691 57.9547C80.4691 55.494 79.3766 53.2926 77.6561 51.7936Z" fill="#C7EDE6"/>
<path d="M38.013 40.4895C38.013 40.4895 40.7182 40.4895 42.5651 40.4895C44.412 40.4895 45.9095 38.992 45.9095 37.1451C45.9095 35.4112 44.5851 34.0021 42.8958 33.8341C42.9122 33.6996 42.9367 33.5681 42.9367 33.4291C42.9367 31.5822 41.4391 30.0847 39.5923 30.0847C38.5236 30.0847 37.5834 30.5945 36.971 31.3749C36.867 29.4158 35.2602 27.8551 33.2751 27.8551C31.2231 27.8551 29.559 29.5191 29.559 31.5711C29.559 31.9026 29.6163 32.2177 29.698 32.5239C29.2209 31.9464 28.5081 31.5711 27.701 31.5711C26.3774 31.5711 25.2975 32.5633 25.1333 33.8416C24.9987 33.8252 24.8672 33.8007 24.7282 33.8007C22.8813 33.8007 21.3838 35.2983 21.3838 37.1451C21.3838 38.992 22.8813 40.4895 24.7282 40.4895C26.5751 40.4895 31.7886 40.4895 31.7886 40.4895H35.7834V40.8611H38.013V40.4895Z" fill="#FDFCEF"/>
<path d="M33.2746 27.4834C31.0204 27.4834 29.187 29.3169 29.187 31.571C29.187 31.5829 29.187 31.594 29.187 31.6059C28.7396 31.3421 28.2282 31.1994 27.7006 31.1994C26.3397 31.1994 25.1655 32.1366 24.8333 33.4327C24.7983 33.4305 24.7634 33.429 24.7277 33.429C22.6787 33.429 21.0117 35.096 21.0117 37.145C21.0117 39.194 22.6787 40.861 24.7277 40.861H35.7829C35.988 40.861 36.1545 40.6946 36.1545 40.4894C36.1545 40.2843 35.988 40.1178 35.7829 40.1178H24.7277C23.0882 40.1178 21.7549 38.7845 21.7549 37.145C21.7549 35.5055 23.0882 34.1722 24.7277 34.1722C24.8147 34.1722 24.8987 34.1848 24.9827 34.196L25.0874 34.2101C25.1031 34.2123 25.1179 34.2131 25.1335 34.2131C25.3164 34.2131 25.4769 34.0756 25.5014 33.8883C25.6434 32.7787 26.5887 31.9426 27.7006 31.9426C28.3583 31.9426 28.9811 32.2406 29.4107 32.7601C29.4835 32.8478 29.5898 32.8954 29.6975 32.8954C29.7555 32.8954 29.8135 32.882 29.867 32.8538C30.0223 32.7742 30.1004 32.5966 30.0558 32.4279C29.9703 32.1046 29.9302 31.8326 29.9302 31.571C29.9302 29.7271 31.4307 28.2266 33.2746 28.2266C35.0442 28.2266 36.5053 29.6179 36.5997 31.3949C36.6079 31.5494 36.7112 31.6825 36.8591 31.7293C36.8962 31.7412 36.9341 31.7471 36.972 31.7471C37.0835 31.7471 37.192 31.6958 37.2634 31.6044C37.8364 30.8746 38.6844 30.4562 39.5918 30.4562C41.2313 30.4562 42.5646 31.7895 42.5646 33.429C42.5646 33.516 42.552 33.5999 42.5409 33.6839L42.5267 33.7887C42.5148 33.8883 42.5431 33.9879 42.6055 34.0659C42.6679 34.144 42.7594 34.1938 42.8582 34.2034C44.3862 34.3558 45.5375 35.6207 45.5375 37.145C45.5375 38.7845 44.2041 40.1178 42.5646 40.1178H38.0125C37.8074 40.1178 37.6409 40.2843 37.6409 40.4894C37.6409 40.6946 37.8074 40.861 38.0125 40.861H42.5646C44.6136 40.861 46.2807 39.194 46.2807 37.145C46.2807 35.3636 45.0254 33.8653 43.3056 33.5204C43.3071 33.4899 43.3078 33.4595 43.3078 33.429C43.3078 31.38 41.6408 29.713 39.5918 29.713C38.7178 29.713 37.8877 30.0222 37.2262 30.5781C36.7818 28.7914 35.1735 27.4834 33.2746 27.4834Z" fill="#472B29"/>
<path d="M32.1605 32.6859C31.1178 32.6859 30.2215 33.4283 29.9956 34.4257C29.7228 34.2607 29.4114 34.1723 29.0948 34.1723C28.2015 34.1723 27.4612 34.8389 27.346 35.7092C27.1952 35.675 27.0517 35.6587 26.9113 35.6587C25.7749 35.6587 24.8221 36.5505 24.7426 37.6891C24.7359 37.7917 24.8132 37.8809 24.915 37.8883C24.9195 37.8883 24.9239 37.8883 24.9284 37.8883C25.025 37.8883 25.1068 37.8132 25.1135 37.7159C25.1796 36.7713 25.9689 36.0303 26.9113 36.0303C27.0815 36.0303 27.2606 36.0615 27.4597 36.1247C27.4761 36.1299 27.4932 36.1321 27.5095 36.1321C27.5504 36.1321 27.5913 36.1173 27.6255 36.092C27.673 36.0578 27.7013 35.9969 27.7013 35.9374C27.7013 35.1689 28.3263 34.5439 29.0948 34.5439C29.427 34.5439 29.7525 34.6688 30.0097 34.8954C30.0446 34.9259 30.0885 34.9422 30.1323 34.9422C30.1561 34.9422 30.1791 34.9378 30.2014 34.9281C30.2668 34.9021 30.3114 34.8412 30.3166 34.7706C30.3939 33.8096 31.2033 33.0575 32.1605 33.0575C32.3151 33.0575 32.4764 33.0828 32.6674 33.137C32.6845 33.1422 32.7023 33.1444 32.7194 33.1444C32.8004 33.1444 32.8732 33.0902 32.897 33.0092C32.9253 32.9103 32.868 32.8078 32.7692 32.7795C32.5447 32.7156 32.3508 32.6859 32.1605 32.6859Z" fill="#472B29"/>
<path d="M42.4781 33.8007C41.4927 33.8007 40.6142 34.4673 40.3422 35.4224C40.3139 35.5212 40.3712 35.6238 40.47 35.652C40.4878 35.6565 40.5049 35.6587 40.5213 35.6587C40.6023 35.6587 40.6766 35.6052 40.6997 35.5234C40.9263 34.7282 41.6576 34.1723 42.4781 34.1723C42.5651 34.1723 42.6491 34.1827 42.7323 34.1938C42.7412 34.1953 42.7494 34.1961 42.7583 34.1961C42.8483 34.1961 42.9285 34.1277 42.9412 34.0348C42.9553 33.933 42.8839 33.8393 42.7821 33.826C42.6825 33.8126 42.5814 33.8007 42.4781 33.8007Z" fill="#472B29"/>
<path d="M32.4616 68.3598H25.1001C24.895 68.3598 24.7285 68.1933 24.7285 67.9881C24.7285 67.783 24.895 67.6165 25.1001 67.6165H32.4616C32.6667 67.6165 32.8332 67.783 32.8332 67.9881C32.8332 68.1933 32.6674 68.3598 32.4616 68.3598Z" fill="white"/>
<path d="M34.7613 68.3597H34.0181C33.813 68.3597 33.6465 68.1932 33.6465 67.9881C33.6465 67.783 33.813 67.6165 34.0181 67.6165H34.7613C34.9664 67.6165 35.1329 67.783 35.1329 67.9881C35.1329 68.1932 34.9672 68.3597 34.7613 68.3597Z" fill="white"/>
<path d="M38.4707 69.8461H31.7886C31.5835 69.8461 31.417 69.6796 31.417 69.4745C31.417 69.2694 31.5835 69.1029 31.7886 69.1029H38.4707C38.6759 69.1029 38.8423 69.2694 38.8423 69.4745C38.8423 69.6796 38.6759 69.8461 38.4707 69.8461Z" fill="white"/>
<path d="M30.3023 69.8461H29.5591C29.354 69.8461 29.1875 69.6796 29.1875 69.4745C29.1875 69.2694 29.354 69.1029 29.5591 69.1029H30.3023C30.5074 69.1029 30.6739 69.2694 30.6739 69.4745C30.6739 69.6796 30.5082 69.8461 30.3023 69.8461Z" fill="white"/>
<path d="M28.0729 69.8461H26.5864C26.3813 69.8461 26.2148 69.6796 26.2148 69.4745C26.2148 69.2694 26.3813 69.1029 26.5864 69.1029H28.0729C28.278 69.1029 28.4445 69.2694 28.4445 69.4745C28.4445 69.6796 28.2787 69.8461 28.0729 69.8461Z" fill="white"/>
<path d="M32.5318 71.3324H31.0454C30.8403 71.3324 30.6738 71.1659 30.6738 70.9608C30.6738 70.7557 30.8403 70.5892 31.0454 70.5892H32.5318C32.737 70.5892 32.9034 70.7557 32.9034 70.9608C32.9034 71.1659 32.737 71.3324 32.5318 71.3324Z" fill="white"/>
<path d="M34.7613 64.6437C34.6297 64.6437 34.1496 64.6437 34.0181 64.6437C33.813 64.6437 33.6465 64.8102 33.6465 65.0153C33.6465 65.2204 33.813 65.3869 34.0181 65.3869C34.1496 65.3869 34.6297 65.3869 34.7613 65.3869C34.9664 65.3869 35.1329 65.2204 35.1329 65.0153C35.1329 64.8102 34.9664 64.6437 34.7613 64.6437Z" fill="white"/>
<path d="M34.7615 66.13C34.6299 66.13 31.177 66.13 31.0454 66.13C30.8403 66.13 30.6738 66.2965 30.6738 66.5016C30.6738 66.7067 30.8403 66.8732 31.0454 66.8732C31.177 66.8732 34.6299 66.8732 34.7615 66.8732C34.9666 66.8732 35.1331 66.7067 35.1331 66.5016C35.1331 66.2965 34.9666 66.13 34.7615 66.13Z" fill="white"/>
<path d="M38.4772 67.6165C38.3456 67.6165 36.3791 67.6165 36.2476 67.6165C36.0425 67.6165 35.876 67.783 35.876 67.9881C35.876 68.1932 36.0425 68.3597 36.2476 68.3597C36.3791 68.3597 38.3456 68.3597 38.4772 68.3597C38.6823 68.3597 38.8488 68.1932 38.8488 67.9881C38.8488 67.783 38.6823 67.6165 38.4772 67.6165Z" fill="white"/>
<path d="M66.7197 27.4835H59.2876C59.0825 27.4835 58.916 27.317 58.916 27.1119C58.916 26.9067 59.0825 26.7403 59.2876 26.7403H66.7197C66.9248 26.7403 67.0913 26.9067 67.0913 27.1119C67.0913 27.317 66.9248 27.4835 66.7197 27.4835Z" fill="white"/>
<path d="M69.692 27.4835H68.2056C68.0005 27.4835 67.834 27.3171 67.834 27.1119C67.834 26.9068 68.0005 26.7403 68.2056 26.7403H69.692C69.8971 26.7403 70.0636 26.9068 70.0636 27.1119C70.0636 27.3171 69.8971 27.4835 69.692 27.4835Z" fill="white"/>
<path d="M73.4081 28.9699H65.9761C65.771 28.9699 65.6045 28.8034 65.6045 28.5983C65.6045 28.3931 65.771 28.2267 65.9761 28.2267H73.4081C73.6133 28.2267 73.7797 28.3931 73.7797 28.5983C73.7797 28.8034 73.614 28.9699 73.4081 28.9699Z" fill="white"/>
<path d="M64.4898 28.9699H63.7466C63.5415 28.9699 63.375 28.8034 63.375 28.5983C63.375 28.3931 63.5415 28.2267 63.7466 28.2267H64.4898C64.6949 28.2267 64.8614 28.3931 64.8614 28.5983C64.8614 28.8034 64.6949 28.9699 64.4898 28.9699Z" fill="white"/>
<path d="M62.1675 28.9699H60.7739C60.5688 28.9699 60.4023 28.8034 60.4023 28.5983C60.4023 28.3931 60.5688 28.2267 60.7739 28.2267H62.1675C62.3726 28.2267 62.5391 28.3931 62.5391 28.5983C62.5391 28.8034 62.3726 28.9699 62.1675 28.9699Z" fill="white"/>
<path d="M68.949 25.997H65.2329C65.0278 25.997 64.8613 25.8305 64.8613 25.6254C64.8613 25.4203 65.0278 25.2538 65.2329 25.2538H68.949C69.1541 25.2538 69.3206 25.4203 69.3206 25.6254C69.3206 25.8305 69.1548 25.997 68.949 25.997Z" fill="white"/>
<path d="M66.7193 30.4562H65.2329C65.0278 30.4562 64.8613 30.2897 64.8613 30.0846C64.8613 29.8795 65.0278 29.713 65.2329 29.713H66.7193C66.9245 29.713 67.0909 29.8795 67.0909 30.0846C67.0909 30.2897 66.9245 30.4562 66.7193 30.4562Z" fill="white"/>
<path d="M74.1511 50.1511C74.1511 50.1511 75.3157 50.1511 76.7523 50.1511C78.1889 50.1511 79.3535 48.9865 79.3535 47.5499C79.3535 46.2263 78.3614 45.1464 77.083 44.9821C77.1039 44.8491 77.1239 44.7161 77.1239 44.5771C77.1239 43.1405 75.9593 41.9759 74.5227 41.9759C73.7557 41.9759 73.0735 42.314 72.5978 42.8417C72.3124 41.498 71.1211 40.4895 69.6919 40.4895C68.0501 40.4895 66.7191 41.8205 66.7191 43.4623C66.7191 43.6042 66.7414 43.7402 66.7607 43.877C66.4426 43.6213 66.0442 43.4623 65.6043 43.4623C64.6916 43.4623 63.9358 44.1215 63.7797 44.9896C63.6467 44.9688 63.5136 44.9487 63.3747 44.9487C61.938 44.9487 60.7734 46.1133 60.7734 47.5499C60.7734 48.9865 61.938 50.1511 63.3747 50.1511C64.8113 50.1511 68.9487 50.1511 68.9487 50.1511V50.5227H74.1511V50.1511Z" fill="#FDFCEF"/>
<path d="M75.4524 46.8067C75.3498 46.8067 75.2666 46.7235 75.2666 46.6209C75.2666 45.712 76.0061 44.9725 76.915 44.9725C76.9403 44.9792 77.4628 44.9717 77.8396 45.0735C77.9384 45.1003 77.9971 45.2021 77.9704 45.301C77.9436 45.4006 77.8418 45.4593 77.743 45.4318C77.413 45.3426 76.9254 45.3426 76.9158 45.3441C76.2112 45.3441 75.6382 45.9171 75.6382 46.6209C75.6382 46.7235 75.555 46.8067 75.4524 46.8067Z" fill="#472B29"/>
<path d="M70.4351 50.5228C70.6403 50.5228 70.8067 50.3565 70.8067 50.1512C70.8067 49.946 70.6403 49.7796 70.4351 49.7796C70.2298 49.7796 70.0635 49.946 70.0635 50.1512C70.0635 50.3565 70.2298 50.5228 70.4351 50.5228Z" fill="#472B29"/>
<path d="M76.7528 50.5227H74.1516C73.9465 50.5227 73.78 50.3562 73.78 50.1511C73.78 49.9459 73.9465 49.7794 74.1516 49.7794H76.7528C77.9821 49.7794 78.9824 48.7791 78.9824 47.5498C78.9824 46.438 78.1463 45.4926 77.0367 45.3507C76.9372 45.3373 76.8472 45.2853 76.787 45.205C76.7268 45.1248 76.7016 45.0237 76.7172 44.9248C76.7343 44.8104 76.7528 44.6959 76.7528 44.577C76.7528 43.3478 75.7525 42.3474 74.5232 42.3474C73.8915 42.3474 73.3059 42.6112 72.8741 43.0906C72.7811 43.1939 72.6355 43.2378 72.5024 43.2006C72.3672 43.1642 72.2639 43.0557 72.2349 42.9189C71.9815 41.7268 70.912 40.861 69.6924 40.861C68.258 40.861 67.0912 42.0278 67.0912 43.4622C67.0912 43.5685 67.1068 43.6703 67.1217 43.7729C67.1432 43.9237 67.0748 44.0984 66.9418 44.1742C66.8088 44.25 66.6475 44.2619 66.5286 44.1668C66.2573 43.949 65.9385 43.8338 65.6048 43.8338C64.8868 43.8338 64.273 44.3474 64.1459 45.0556C64.1102 45.2541 63.9259 45.3871 63.723 45.3566C63.6085 45.3388 63.4941 45.3202 63.3752 45.3202C62.1459 45.3202 61.1455 46.3206 61.1455 47.5498C61.1455 48.7791 62.1459 49.7794 63.3752 49.7794H68.9492C69.1543 49.7794 69.3208 49.9459 69.3208 50.1511C69.3208 50.3562 69.1543 50.5227 68.9492 50.5227H63.3752C61.7357 50.5227 60.4023 49.1893 60.4023 47.5498C60.4023 45.9103 61.7357 44.577 63.3752 44.577C63.419 44.577 63.4614 44.5785 63.5045 44.5815C63.8122 43.7 64.6468 43.0906 65.6048 43.0906C65.8642 43.0906 66.1168 43.1359 66.3562 43.2244C66.4788 41.4905 67.928 40.1178 69.6924 40.1178C71.0532 40.1178 72.2683 40.9554 72.7789 42.1794C73.2843 41.8093 73.8952 41.6042 74.5232 41.6042C76.1627 41.6042 77.496 42.9375 77.496 44.577C77.496 44.6127 77.4953 44.6476 77.4931 44.6826C78.7885 45.0155 79.7256 46.189 79.7256 47.5498C79.7256 49.1893 78.3923 50.5227 76.7528 50.5227Z" fill="#472B29"/>
<path d="M72.6656 49.7795C72.5474 49.7795 72.0406 49.7795 71.9224 49.7795C71.7173 49.7795 71.5508 49.946 71.5508 50.1511C71.5508 50.3562 71.7173 50.5227 71.9224 50.5227C72.0406 50.5227 72.5474 50.5227 72.6656 50.5227C72.8707 50.5227 73.0372 50.3562 73.0372 50.1511C73.0372 49.946 72.8707 49.7795 72.6656 49.7795Z" fill="#472B29"/>
<path d="M50.6841 62.637C50.0323 62.637 49.431 62.3464 49.0357 61.8403C48.6938 61.4018 48.1981 61.1506 47.6748 61.1506H32.5937C32.2318 61.1506 31.9375 60.8563 31.9375 60.4944V38.3216C31.9375 37.9597 32.2318 37.6654 32.5937 37.6654H68.1434C68.5054 37.6654 68.7997 37.9597 68.7997 38.3216V60.4944C68.7997 60.8563 68.5054 61.1506 68.1434 61.1506H53.6941C53.1708 61.1506 52.6751 61.4018 52.3333 61.8403C51.9364 62.3464 51.3359 62.637 50.6841 62.637Z" fill="#EE3E54"/>
<path d="M68.1439 38.1855C68.219 38.1855 68.2799 38.2472 68.2799 38.3223V60.4943C68.2799 60.5694 68.219 60.631 68.1439 60.631H53.6938C53.0093 60.631 52.3642 60.9551 51.9227 61.5207C51.6262 61.8997 51.1751 62.1174 50.6846 62.1174C50.194 62.1174 49.7422 61.8997 49.4456 61.5199C49.0042 60.9551 48.3591 60.631 47.6746 60.631H32.5935C32.5184 60.631 32.4575 60.5694 32.4575 60.4943V38.3215C32.4575 38.2465 32.5184 38.1848 32.5935 38.1848H68.1439M68.1439 37.1451H32.5935C31.9439 37.1451 31.417 37.672 31.417 38.3215V60.4935C31.417 61.1439 31.9439 61.6708 32.5935 61.6708H47.6738C48.0514 61.6708 48.3925 61.8625 48.6251 62.1598C49.0978 62.7655 49.8425 63.1572 50.6838 63.1572C51.5251 63.1572 52.2698 62.7655 52.7425 62.1598C52.9751 61.8625 53.3155 61.6708 53.6938 61.6708H68.1439C68.7935 61.6708 69.3204 61.1439 69.3204 60.4943V38.3215C69.3204 37.672 68.7935 37.1451 68.1439 37.1451Z" fill="#472B29"/>
<path d="M34.8545 58.1778C34.4754 58.1778 34.167 57.8693 34.167 57.4903V34.6368C34.167 34.2577 34.4754 33.9493 34.8545 33.9493H42.5533C45.1307 33.9493 48.3325 34.4406 50.1682 35.1176C50.351 35.186 50.5435 35.2209 50.7404 35.2209C50.9374 35.2209 51.1299 35.186 51.3135 35.1176C53.1477 34.4406 56.3501 33.9493 58.9276 33.9493H65.8832C66.2623 33.9493 66.5707 34.2577 66.5707 34.6368V57.4903C66.5707 57.8693 66.2623 58.1778 65.8832 58.1778H34.8545Z" fill="#FDFCEF"/>
<path d="M65.883 34.4695C65.9751 34.4695 66.0502 34.5446 66.0502 34.6368V57.4903C66.0502 57.5824 65.9751 57.6575 65.883 57.6575H51.4834H49.997H34.8542C34.762 57.6575 34.687 57.5824 34.687 57.4903V34.6368C34.687 34.5446 34.762 34.4695 34.8542 34.4695H42.5538C45.0368 34.4695 48.2326 34.9586 49.9888 35.6066C50.2296 35.6958 50.483 35.7404 50.7402 35.7404C50.9973 35.7404 51.2508 35.6951 51.4923 35.6066C53.2477 34.9578 56.4443 34.4695 58.9266 34.4695H65.883ZM65.883 33.429H58.9266C56.1797 33.429 52.9215 33.9701 51.1318 34.6308C51.0055 34.6776 50.8732 34.7007 50.7402 34.7007C50.6071 34.7007 50.4741 34.6776 50.3485 34.6308C48.5589 33.9701 45.2999 33.429 42.5538 33.429H34.8542C34.1875 33.429 33.6465 33.9701 33.6465 34.6368V57.4903C33.6465 58.1569 34.1875 58.698 34.8542 58.698H49.997H51.4834H65.883C66.5496 58.698 67.0907 58.1569 67.0907 57.4903V34.6368C67.0907 33.9701 66.5496 33.429 65.883 33.429Z" fill="#472B29"/>
<path d="M67.1074 57.6085V60.944H68.8361V58.4676C68.7871 58.4803 68.7365 58.4862 68.6882 58.5011C68.2594 58.0715 67.7124 57.766 67.1074 57.6085Z" fill="#D7CCC8"/>
<path d="M70.1419 53.2169C69.2099 53.2169 68.4548 53.9958 68.4548 54.9575V54.0872C68.4548 53.1263 67.6997 52.3467 66.7677 52.3467C65.8357 52.3467 65.0806 53.1255 65.0806 54.0872V53.2169C65.0806 52.256 64.3255 51.4764 63.3936 51.4764C62.4616 51.4764 61.3921 51.9773 61.3921 52.9382V47.1472C61.3921 46.1862 61.0384 45.3204 60.1071 45.3204C59.1759 45.3204 58.6363 46.0881 58.6363 47.0491V58.9456L55.9987 56.6134C55.3402 55.9334 54.2722 55.9334 53.613 56.6134C52.9545 57.2934 52.9545 58.3949 53.613 59.0749L58.3331 63.9444C58.3331 63.9444 60.6392 66.2691 62.55 66.2691H66.5804C69.3526 66.2691 71.6164 64.0506 71.8089 61.2413C71.8156 61.1774 71.8274 61.1142 71.8274 61.0481V60.8549V56.1526V54.956C71.8289 53.9958 71.0738 53.2169 70.1419 53.2169Z" fill="#F6CCA4"/>
<path d="M66.5806 66.7901H62.5502C60.447 66.7901 58.0643 64.4126 57.9632 64.3115L53.2394 59.4368C52.3877 58.5591 52.3877 57.1299 53.2394 56.2514C54.0747 55.3915 55.5366 55.3901 56.372 56.2514L58.1163 57.7913V47.0491C58.1163 45.7247 58.9353 44.8001 60.1081 44.8001C61.2214 44.8001 61.9133 45.6994 61.9133 47.1472V51.3173C62.3525 51.0795 62.8802 50.9561 63.3945 50.9561C64.2945 50.9561 65.0704 51.5105 65.4138 52.3035C65.7876 52.0048 66.2581 51.8256 66.7679 51.8256C67.6679 51.8256 68.4438 52.3801 68.7872 53.1731C69.1618 52.8743 69.6322 52.6952 70.1421 52.6952C71.3594 52.6952 72.3494 53.7089 72.3494 54.956V61.0466C72.3494 61.1179 72.3412 61.1863 72.333 61.2554C72.1175 64.3687 69.5921 66.7901 66.5806 66.7901ZM54.8068 56.6245C54.4976 56.6245 54.2063 56.7494 53.9863 56.9761C53.5225 57.4554 53.5225 58.2343 53.9863 58.7129L58.7071 63.5831C59.3032 64.1829 61.1656 65.7496 62.551 65.7496H66.5814C69.0473 65.7496 71.1171 63.7541 71.2911 61.2071C71.2918 61.196 71.3 61.132 71.3007 61.1216L71.3089 60.8563V54.9583C71.3089 54.2857 70.7857 53.7379 70.1428 53.7379C69.4999 53.7379 68.9767 54.2849 68.9767 54.9583C68.9767 55.2459 68.7441 55.4785 68.4565 55.4785C68.1689 55.4785 67.9362 55.2459 67.9362 54.9583V54.088C67.9362 53.4154 67.413 52.8676 66.7694 52.8676C66.1265 52.8676 65.6033 53.4146 65.6033 54.088C65.6033 54.3756 65.3707 54.6082 65.0831 54.6082C64.7955 54.6082 64.5628 54.3756 64.5628 54.088V53.2177C64.5628 52.5451 64.0396 51.9973 63.3967 51.9973C62.7992 51.9973 61.9155 52.2961 61.9155 52.939C61.9155 53.2266 61.6829 53.4592 61.3953 53.4592C61.1077 53.4592 60.875 53.2266 60.875 52.939V47.1479C60.875 46.6604 60.7755 45.8414 60.111 45.8414C59.4095 45.8414 59.1605 46.4924 59.1605 47.0498V58.9463C59.1605 59.1507 59.0408 59.3365 58.8543 59.4205C58.667 59.5052 58.4492 59.471 58.2954 59.3365L55.6578 57.0043C55.4058 56.7494 55.1152 56.6245 54.8068 56.6245Z" fill="#472B29"/>
<path d="M50.3687 40.1179C50.1635 40.1179 49.9971 39.9514 49.9971 39.7463V35.6587C49.9971 35.4535 50.1635 35.287 50.3687 35.287C50.5738 35.287 50.7403 35.4535 50.7403 35.6587V39.7463C50.7403 39.9514 50.5738 40.1179 50.3687 40.1179Z" fill="#472B29"/>
<path d="M50.3687 45.3203C50.1635 45.3203 49.9971 45.1539 49.9971 44.9487V41.6043C49.9971 41.3992 50.1635 41.2327 50.3687 41.2327C50.5738 41.2327 50.7403 41.3992 50.7403 41.6043V44.9487C50.7403 45.1539 50.5738 45.3203 50.3687 45.3203Z" fill="#472B29"/>
<path d="M50.3687 55.7252C50.1635 55.7252 49.9971 55.5587 49.9971 55.3536V46.8067C49.9971 46.6016 50.1635 46.4351 50.3687 46.4351C50.5738 46.4351 50.7403 46.6016 50.7403 46.8067V55.3536C50.7403 55.5587 50.5738 55.7252 50.3687 55.7252Z" fill="#472B29"/>
<path d="M48.5106 38.6315C48.4749 38.6315 48.4385 38.6263 48.4028 38.6158C46.0335 37.8964 42.8265 37.8883 42.7946 37.8883L41.1684 37.8756C40.9633 37.8741 40.7983 37.7062 40.7998 37.501C40.8013 37.2974 40.9678 37.1324 41.1714 37.1324C41.1714 37.1324 41.1729 37.1324 41.1744 37.1324L42.7975 37.145C42.9306 37.145 46.1442 37.154 48.6183 37.9039C48.8145 37.9633 48.926 38.1707 48.8658 38.3676C48.8175 38.5282 48.6703 38.6315 48.5106 38.6315Z" fill="#472B29"/>
<path d="M39.6854 37.8653C39.6854 37.8653 39.6839 37.8653 39.6824 37.8653L36.6167 37.8422C36.4116 37.8407 36.2466 37.6728 36.2481 37.4677C36.2495 37.264 36.416 37.099 36.6197 37.099C36.6197 37.099 36.6211 37.099 36.6226 37.099L39.6883 37.1221C39.8935 37.1236 40.0585 37.2915 40.057 37.4966C40.0562 37.7003 39.8898 37.8653 39.6854 37.8653Z" fill="#472B29"/>
<path d="M48.5107 41.6043C48.475 41.6043 48.4386 41.5991 48.4029 41.5887C47.7526 41.391 46.9782 41.2298 46.1005 41.1071C45.8976 41.0789 45.7556 40.8909 45.7839 40.688C45.8121 40.4851 46.0001 40.3424 46.203 40.3714C47.1186 40.4992 47.931 40.6694 48.6177 40.8782C48.8146 40.9377 48.9254 41.145 48.8652 41.342C48.8176 41.501 48.6705 41.6043 48.5107 41.6043Z" fill="#472B29"/>
<path d="M44.4255 40.9303C44.4166 40.9303 44.4077 40.9303 44.3988 40.9295C43.4638 40.8619 42.8016 40.8612 42.7949 40.8612L36.6167 40.8143C36.4116 40.8129 36.2466 40.6449 36.2481 40.4398C36.2495 40.2361 36.416 40.0711 36.6197 40.0711C36.6197 40.0711 36.6211 40.0711 36.6226 40.0711L42.7979 40.118C42.7853 40.1417 43.4809 40.1172 44.4515 40.1878C44.6559 40.2034 44.8105 40.3811 44.7956 40.5854C44.7815 40.7809 44.6188 40.9303 44.4255 40.9303Z" fill="#472B29"/>
<path d="M48.5114 44.5771C48.4757 44.5771 48.4393 44.5719 48.4036 44.5615C46.0343 43.842 42.8274 43.8339 42.7954 43.8339C42.5903 43.8339 42.4238 43.6674 42.4238 43.4623C42.4238 43.2571 42.5903 43.0907 42.7954 43.0907C42.9314 43.0907 46.1451 43.0996 48.6192 43.8495C48.8154 43.9089 48.9269 44.1163 48.8667 44.3132C48.8184 44.4738 48.6712 44.5771 48.5114 44.5771Z" fill="#472B29"/>
<path d="M41.4505 43.8235C41.4505 43.8235 41.449 43.8235 41.4475 43.8235L36.6167 43.7871C36.4116 43.7856 36.2466 43.6176 36.2481 43.4125C36.2495 43.2089 36.416 43.0439 36.6197 43.0439C36.6197 43.0439 36.6211 43.0439 36.6226 43.0439L41.4535 43.0803C41.6586 43.0818 41.8236 43.2498 41.8221 43.4549C41.8213 43.6593 41.6549 43.8235 41.4505 43.8235Z" fill="#472B29"/>
<path d="M48.511 47.5499C48.4753 47.5499 48.4389 47.5447 48.4032 47.5343C47.0766 47.1323 45.4928 46.9539 44.3988 46.8751C44.1937 46.8595 44.0398 46.6819 44.0547 46.4775C44.0696 46.2739 44.2487 46.1185 44.4516 46.1334C45.5842 46.2152 47.226 46.4002 48.6187 46.8231C48.8149 46.8825 48.9264 47.0899 48.8662 47.2869C48.8179 47.4466 48.6707 47.5499 48.511 47.5499Z" fill="#472B29"/>
<path d="M42.7949 46.8067C42.7949 46.8067 42.7935 46.8067 42.792 46.8067L36.6167 46.7598C36.4116 46.7583 36.2466 46.5904 36.2481 46.3853C36.2495 46.1816 36.416 46.0166 36.6197 46.0166C36.6197 46.0166 36.6211 46.0166 36.6226 46.0166L42.7979 46.0635C43.003 46.0649 43.168 46.2329 43.1665 46.438C43.1651 46.6417 42.9986 46.8067 42.7949 46.8067Z" fill="#472B29"/>
<path d="M48.5111 50.5228C48.4754 50.5228 48.439 50.5176 48.4033 50.5072C47.9277 50.3638 47.3807 50.2367 46.7772 50.1304C46.575 50.0947 46.4398 49.9022 46.4754 49.7008C46.5111 49.4987 46.7029 49.3589 46.9057 49.3991C47.539 49.5098 48.1149 49.6436 48.6188 49.7959C48.815 49.8554 48.9265 50.0628 48.8663 50.259C48.818 50.4195 48.6709 50.5228 48.5111 50.5228Z" fill="#472B29"/>
<path d="M45.637 49.9624C45.6222 49.9624 45.6081 49.9616 45.5932 49.9601C44.0756 49.7818 42.8077 49.7795 42.795 49.7795L40.7505 49.7639C40.5453 49.7624 40.3804 49.5945 40.3818 49.3893C40.3833 49.1857 40.5498 49.0207 40.7534 49.0207C40.7534 49.0207 40.7549 49.0207 40.7564 49.0207L42.798 49.0363C42.8485 49.0363 44.1164 49.0386 45.6801 49.2214C45.8838 49.2452 46.0302 49.4302 46.0057 49.6346C45.9841 49.8234 45.8228 49.9624 45.637 49.9624Z" fill="#472B29"/>
<path d="M39.2677 49.7527C39.2677 49.7527 39.2662 49.7527 39.2647 49.7527L36.6167 49.7334C36.4116 49.7319 36.2466 49.564 36.2481 49.3588C36.2495 49.1552 36.416 48.9902 36.6197 48.9902C36.6197 48.9902 36.6211 48.9902 36.6226 48.9902L39.2707 49.0095C39.4758 49.011 39.6408 49.179 39.6393 49.3841C39.6378 49.5877 39.4713 49.7527 39.2677 49.7527Z" fill="#472B29"/>
<path d="M48.5109 53.4955C48.4752 53.4955 48.4388 53.4903 48.4031 53.4799C47.078 53.0778 45.4957 52.8995 44.4017 52.8207C44.1966 52.8051 44.0428 52.6275 44.0576 52.4231C44.0725 52.2187 44.2568 52.0686 44.4545 52.079C45.5864 52.1607 47.2274 52.3458 48.6187 52.7687C48.8156 52.8281 48.9264 53.0355 48.8662 53.2324C48.8179 53.3922 48.6707 53.4955 48.5109 53.4955Z" fill="#472B29"/>
<path d="M42.7949 52.7523C42.7949 52.7523 42.7935 52.7523 42.792 52.7523L36.6167 52.7055C36.4116 52.704 36.2466 52.536 36.2481 52.3309C36.2495 52.1273 36.416 51.9623 36.6197 51.9623C36.6197 51.9623 36.6211 51.9623 36.6226 51.9623L42.7979 52.0091C43.003 52.0106 43.168 52.1786 43.1665 52.3837C43.1651 52.5873 42.9986 52.7523 42.7949 52.7523Z" fill="#472B29"/>
<path d="M52.2265 38.6314C52.0668 38.6314 51.9196 38.5281 51.8706 38.3683C51.8111 38.1714 51.9218 37.964 52.118 37.9045C54.5929 37.1539 57.8073 37.145 57.9425 37.145L59.562 37.1324H59.5649C59.7686 37.1324 59.9351 37.2973 59.9365 37.501C59.938 37.7061 59.773 37.8741 59.5679 37.8756L57.9455 37.8882C57.9106 37.8882 54.7014 37.8979 52.3343 38.6158C52.2986 38.6262 52.2622 38.6314 52.2265 38.6314Z" fill="#472B29"/>
<path d="M61.0513 37.8653C60.8477 37.8653 60.6812 37.7003 60.6797 37.4967C60.6782 37.2916 60.8432 37.1236 61.0483 37.1221L64.1148 37.0991H64.1178C64.3214 37.0991 64.4879 37.2641 64.4894 37.4677C64.4908 37.6728 64.3259 37.8408 64.1207 37.8423L61.0543 37.8653H61.0513Z" fill="#472B29"/>
<path d="M52.2265 41.6043C52.0668 41.6043 51.9196 41.501 51.8706 41.3412C51.8111 41.1442 51.9218 40.9369 52.118 40.8774C52.8055 40.6693 53.6178 40.4984 54.5327 40.3705C54.7304 40.3453 54.9236 40.4828 54.9519 40.6871C54.9801 40.89 54.8389 41.0781 54.6353 41.1063C53.7583 41.2289 52.9839 41.391 52.3336 41.5879C52.2986 41.5991 52.2622 41.6043 52.2265 41.6043Z" fill="#472B29"/>
<path d="M56.3125 40.9303C56.1193 40.9303 55.9565 40.7809 55.9424 40.5854C55.9275 40.3811 56.0821 40.2027 56.2865 40.1878C57.2489 40.1187 57.9156 40.118 57.9431 40.118L64.1154 40.0711H64.1184C64.322 40.0711 64.4885 40.2361 64.49 40.4398C64.4915 40.6449 64.3265 40.8129 64.1214 40.8143L57.9461 40.8612C57.9364 40.8612 57.2735 40.8619 56.34 40.9295C56.3303 40.9303 56.3222 40.9303 56.3125 40.9303Z" fill="#472B29"/>
<path d="M52.2265 44.5771C52.0668 44.5771 51.9196 44.4738 51.8706 44.314C51.8111 44.1171 51.9218 43.9097 52.118 43.8503C54.5929 43.0996 57.8073 43.0907 57.9425 43.0907C58.1477 43.0907 58.3141 43.2572 58.3141 43.4623C58.3141 43.6675 58.1477 43.8339 57.9425 43.8339C57.9106 43.8339 54.7014 43.8436 52.3343 44.5615C52.2986 44.5719 52.2622 44.5771 52.2265 44.5771Z" fill="#472B29"/>
<path d="M59.2867 43.8235C59.083 43.8235 58.9165 43.6585 58.915 43.4549C58.9136 43.2498 59.0786 43.0818 59.2837 43.0803L64.1152 43.0439H64.1182C64.3219 43.0439 64.4883 43.2089 64.4898 43.4125C64.4913 43.6176 64.3263 43.7856 64.1212 43.7871L59.2896 43.8235H59.2867Z" fill="#472B29"/>
<path d="M52.2265 47.5499C52.0668 47.5499 51.9196 47.4466 51.8706 47.2868C51.8111 47.0898 51.9218 46.8825 52.118 46.823C53.5108 46.4009 55.1533 46.2158 56.2852 46.1333C56.4866 46.1192 56.6679 46.273 56.6828 46.4774C56.6977 46.6818 56.5431 46.8602 56.3387 46.875C55.2432 46.9531 53.6602 47.1322 52.3336 47.5343C52.2986 47.5447 52.2622 47.5499 52.2265 47.5499Z" fill="#472B29"/>
<path d="M52.2265 50.5227C52.0668 50.5227 51.9196 50.4194 51.8705 50.2589C51.8111 50.0626 51.9218 49.8553 52.1188 49.7958C52.6227 49.6435 53.1987 49.5097 53.8319 49.399C54.0236 49.3581 54.2258 49.4978 54.2614 49.7007C54.2971 49.9021 54.1618 50.0946 53.9597 50.1303C53.3562 50.2366 52.8092 50.3629 52.3336 50.5071C52.2986 50.5175 52.2622 50.5227 52.2265 50.5227Z" fill="#472B29"/>
<path d="M52.2265 53.4955C52.0668 53.4955 51.9196 53.3922 51.8706 53.2324C51.8111 53.0355 51.9218 52.8281 52.118 52.7687C53.5093 52.3465 55.1503 52.1607 56.2822 52.079C56.4873 52.07 56.665 52.2179 56.6798 52.4231C56.6947 52.6274 56.5401 52.8058 56.3357 52.8207C55.2417 52.8987 53.6594 53.0778 52.3343 53.4799C52.2986 53.4903 52.2622 53.4955 52.2265 53.4955Z" fill="#472B29"/>
<path d="M69.6926 60.7418C69.5901 60.7418 69.5068 60.6585 69.5068 60.556V59.0696C69.5068 58.967 69.5901 58.8838 69.6926 58.8838C69.7952 58.8838 69.8784 58.967 69.8784 59.0696V60.556C69.8784 60.6585 69.7952 60.7418 69.6926 60.7418Z" fill="#472B29"/>
<path d="M68.0089 64.0989C67.945 64.0989 67.8833 64.0662 67.8483 64.0067C67.7971 63.9183 67.8268 63.8046 67.9152 63.7525C68.6079 63.3482 69.12 62.6355 69.3563 61.7466C69.3823 61.6485 69.4864 61.5891 69.5837 61.6151C69.6826 61.6411 69.742 61.7429 69.7153 61.8425C69.4529 62.8265 68.8807 63.6195 68.1025 64.0736C68.0728 64.0907 68.0408 64.0989 68.0089 64.0989Z" fill="#472B29"/>
<path d="M66.7192 64.4578H63.7463C63.6438 64.4578 63.5605 64.3745 63.5605 64.272C63.5605 64.1694 63.6438 64.0862 63.7463 64.0862H66.7192C66.8217 64.0862 66.905 64.1694 66.905 64.272C66.905 64.3745 66.8217 64.4578 66.7192 64.4578Z" fill="#472B29"/>
</svg>
