<svg width="20" height="20" viewBox="0 0 20 20" fill="none" xmlns="http://www.w3.org/2000/svg">
<path d="M10.2392 2H9.7674C8.9288 2.0302 8.094 2.1828 7.3032 2.465C6.6004 2.7176 5.934 3.07 5.328 3.5064C4.2814 4.2684 3.4092 5.276 2.836 6.439C2.4562 7.198 2.2026 8.0194 2.0844 8.8598C2.0302 9.2228 2.0124 9.5896 2 9.956V10.1898C2.0254 10.984 2.155 11.7768 2.4096 12.5306C2.7998 13.709 3.4772 14.7884 4.3546 15.6654C5.2664 16.5772 6.4016 17.2652 7.6352 17.643C8.373 17.8744 9.1458 17.9856 9.9182 18H10.103C11.0406 17.9836 11.978 17.812 12.8534 17.4738C13.3984 17.2702 13.9144 16.995 14.4026 16.68C15.3372 16.9928 16.2722 17.3044 17.2066 17.6174C17.307 17.6534 17.4212 17.699 17.524 17.6442C17.6442 17.5934 17.7024 17.447 17.6548 17.3262C17.3308 16.3508 17.0052 15.3756 16.6806 14.4002C17.5278 13.1312 17.9842 11.6112 18 10.0868V9.6678C17.9576 8.7392 17.762 7.8158 17.4044 6.9568C17.0196 6.0202 16.451 5.1612 15.7448 4.436C15.0726 3.7268 14.2596 3.1548 13.3746 2.7426C12.3954 2.2822 11.3192 2.04 10.2392 2ZM12.154 2.8244C12.9888 3.079 13.782 3.4742 14.4804 3.9988C15.1678 4.5118 15.7674 5.1428 16.243 5.857C17.0244 7.024 17.4686 8.4152 17.4958 9.8202C17.4854 10.0828 17.488 10.3458 17.4648 10.608C17.3682 11.8304 16.966 13.0294 16.297 14.0578C16.24 14.154 16.1456 14.2404 16.1454 14.3596C16.1464 14.4464 16.1862 14.5262 16.2108 14.608C16.4778 15.4086 16.7452 16.2092 17.0122 17.0098C16.2058 16.7416 15.3996 16.4728 14.5932 16.2046C14.5114 16.1784 14.4294 16.14 14.3412 16.1476C14.264 16.1498 14.2026 16.2026 14.1404 16.242C12.8976 17.0748 11.3972 17.5168 9.9014 17.4874C9.4684 17.4772 9.0342 17.4438 8.6094 17.3556C7.8314 17.212 7.0788 16.937 6.3864 16.5546C5.746 16.2032 5.163 15.7504 4.6496 15.2316C3.5454 14.1064 2.808 12.6258 2.5866 11.064C2.5288 10.6324 2.492 10.195 2.525 9.7598C2.5408 9.2546 2.6058 8.7508 2.7234 8.2592C3.0614 6.8308 3.835 5.5096 4.9126 4.5136C6.011 3.4862 7.4274 2.8024 8.9164 2.5876C9.9958 2.4322 11.1094 2.509 12.154 2.8244Z" fill="#1897A6" stroke="#1897A6" stroke-width="0.3"/>
<path d="M10.1014 3.04096C9.99856 2.99416 9.86835 3.02996 9.80175 3.12056C9.75656 3.17556 9.74536 3.24915 9.74636 3.31836C9.74695 4.09056 9.74656 4.86276 9.74656 5.63476C8.86376 5.63516 7.98096 5.63496 7.09816 5.63496C7.32716 5.00336 7.60515 4.38316 7.99415 3.83256C8.02936 3.78136 8.06475 3.72496 8.06355 3.66036C8.06815 3.55635 7.99935 3.45956 7.90856 3.41436C7.82436 3.38256 7.71975 3.38896 7.65035 3.45056C7.59735 3.49856 7.56295 3.56256 7.52175 3.62016C7.10176 4.23896 6.80295 4.93036 6.55976 5.63516C5.98075 5.63456 5.40175 5.63536 4.82275 5.63476C4.75515 5.63536 4.68655 5.62996 4.61996 5.64396C4.48696 5.67636 4.39895 5.82796 4.43935 5.95936C4.46775 6.07396 4.58655 6.15096 4.70216 6.14496C5.26935 6.14516 5.83636 6.14496 6.40355 6.14496C6.07956 7.31656 5.92595 8.53076 5.90096 9.74496C5.04795 9.74456 4.19495 9.74556 3.34195 9.74436C3.26555 9.74216 3.18235 9.74795 3.12195 9.80096C3.02075 9.87836 2.99355 10.0336 3.06515 10.1398C3.11635 10.2162 3.20895 10.2596 3.30035 10.255C4.16715 10.255 5.03395 10.255 5.90096 10.255C5.92196 11.2786 6.03315 12.302 6.26555 13.2998C6.30635 13.4862 6.35795 13.6698 6.40376 13.855C5.82975 13.8556 5.25555 13.8536 4.68175 13.856C4.52855 13.8526 4.40156 14.0102 4.43456 14.1592C4.45436 14.283 4.57855 14.3716 4.70135 14.365C5.32055 14.365 5.93995 14.3652 6.55935 14.3648C6.80935 15.1028 7.12875 15.8246 7.57895 16.4638C7.62795 16.5404 7.70876 16.6 7.80216 16.6032C7.93316 16.6062 8.06075 16.4958 8.06295 16.3622C8.06955 16.285 8.02915 16.2156 7.98656 16.155C7.60236 15.6072 7.32055 14.9942 7.09816 14.365C7.98096 14.365 8.86376 14.365 9.74656 14.365C9.74716 15.1506 9.74555 15.9362 9.74735 16.7218C9.74115 16.8674 9.87976 16.9938 10.0236 16.9784C10.153 16.9706 10.2618 16.8524 10.2568 16.7224C10.2584 15.9366 10.257 15.1508 10.2574 14.3652C11.1404 14.365 12.0232 14.365 12.906 14.365C12.693 14.9676 12.4276 15.556 12.067 16.0854C12.0152 16.1638 11.9434 16.2398 11.942 16.3394C11.9306 16.4946 12.0918 16.6334 12.2438 16.5974C12.3274 16.5826 12.39 16.5192 12.4348 16.4512C12.8818 15.8164 13.1968 15.098 13.4442 14.3648C14.0636 14.3652 14.683 14.365 15.3024 14.365C15.4328 14.3738 15.5628 14.2726 15.5728 14.1396C15.5956 13.9946 15.4672 13.853 15.3218 13.8558C14.748 13.8538 14.1742 13.8556 13.6006 13.855C13.925 12.6836 14.08 11.4692 14.103 10.255C14.9764 10.2546 15.8498 10.2558 16.7232 10.2544C16.8516 10.2578 16.9724 10.152 16.9788 10.0224C16.997 9.87836 16.8674 9.74116 16.7234 9.74556C15.8502 9.74396 14.9768 9.74536 14.1034 9.74496C14.0824 8.53056 13.9242 7.31636 13.6004 6.14496C14.1676 6.14496 14.7348 6.14496 15.3018 6.14496C15.3632 6.14576 15.4258 6.13116 15.4742 6.09216C15.5848 6.01576 15.6078 5.84396 15.5246 5.73916C15.474 5.66936 15.3878 5.63156 15.3024 5.63496C14.683 5.63496 14.0638 5.63476 13.4444 5.63516C13.1906 4.88336 12.8618 4.15036 12.4006 3.50156C12.3532 3.43036 12.268 3.38736 12.1822 3.39636C12.0398 3.39816 11.9234 3.54476 11.944 3.68356C11.9496 3.73856 11.9796 3.78676 12.0094 3.83176C12.3982 4.38276 12.6804 5.00176 12.9062 5.63496C12.0232 5.63496 11.1404 5.63496 10.2574 5.63496C10.257 4.84956 10.2582 4.06416 10.257 3.27896C10.2596 3.17736 10.1948 3.07996 10.1014 3.04096ZM13.0708 6.14516C13.4098 7.31356 13.5704 8.52976 13.5924 9.74476C12.4808 9.74496 11.3692 9.74496 10.2576 9.74476C10.2574 8.54495 10.2574 7.34496 10.2574 6.14516C11.1952 6.14496 12.133 6.14476 13.0708 6.14516ZM9.74656 6.14496C9.74656 7.34496 9.74676 8.54495 9.74656 9.74476C8.63496 9.74496 7.52335 9.74496 6.41195 9.74476C6.43775 8.52995 6.59396 7.31376 6.93336 6.14516C7.87115 6.14476 8.80875 6.14496 9.74656 6.14496ZM13.5922 10.2552C13.5692 11.4702 13.4102 12.6864 13.071 13.8548C12.1332 13.855 11.1952 13.855 10.2574 13.855C10.2576 12.655 10.2574 11.455 10.2576 10.2552C11.3692 10.255 12.4808 10.255 13.5922 10.2552ZM9.74656 10.2552C9.74676 11.455 9.74656 12.655 9.74656 13.8548C8.80875 13.855 7.87115 13.855 6.93336 13.8548C6.59776 12.6854 6.43456 11.4704 6.41175 10.2552C7.52335 10.255 8.63496 10.255 9.74656 10.2552Z" fill="#1897A6" stroke="#1897A6" stroke-width="0.3"/>
</svg>
