<svg width="24" height="24" viewBox="0 0 24 24" fill="none" xmlns="http://www.w3.org/2000/svg">
<path fill-rule="evenodd" clip-rule="evenodd" d="M12.4755 1.96353C12.3259 1.50288 11.6741 1.50288 11.5245 1.96353L11.3676 2.44631C11.3007 2.65232 11.1087 2.7918 10.8921 2.7918H10.3845C9.90009 2.7918 9.69871 3.41161 10.0906 3.69631L10.5012 3.99469C10.6765 4.12201 10.7498 4.34769 10.6829 4.5537L10.526 5.03648C10.3763 5.49714 10.9036 5.8802 11.2954 5.5955L11.7061 5.29713C11.8814 5.1698 12.1186 5.1698 12.2939 5.29713L12.7046 5.5955C13.0964 5.8802 13.6237 5.49714 13.474 5.03648L13.3171 4.5537C13.2502 4.34769 13.3235 4.12201 13.4988 3.99469L13.9094 3.69631C14.3013 3.41161 14.0999 2.7918 13.6155 2.7918H13.1079C12.8913 2.7918 12.6993 2.65232 12.6324 2.44631L12.4755 1.96353ZM11 8.00001C9.89543 8.00001 9 8.89544 9 10V20C9 21.1046 9.89543 22 11 22H13C14.1046 22 15 21.1046 15 20V10C15 8.89544 14.1046 8.00001 13 8.00001H11ZM18 14C16.8954 14 16 14.8954 16 16V20C16 21.1046 16.8954 22 18 22H20C21.1046 22 22 21.1046 22 20V16C22 14.8954 21.1046 14 20 14H18ZM2 14C2 12.8954 2.89543 12 4 12H6C7.10457 12 8 12.8954 8 14V20C8 21.1046 7.10457 22 6 22H4C2.89543 22 2 21.1046 2 20V14Z" fill="#9A469B"/>
</svg>
