<svg width="36" height="36" viewBox="0 0 36 36" fill="none" xmlns="http://www.w3.org/2000/svg">
<path d="M34.8 0.400391C34.5969 0.400391 34.3813 0.469141 34.225 0.625391C33.4938 1.35664 32.8188 2.08164 32.175 2.77539C32.3594 2.93789 32.5438 3.09414 32.725 3.27539C32.9281 3.47852 33.1375 3.68477 33.325 3.90039C33.9656 3.20977 34.6437 2.50664 35.375 1.77539C35.6875 1.46289 35.6875 0.937891 35.375 0.625391C35.2188 0.469141 35.0031 0.400391 34.8 0.400391ZM24.85 0.775391C24.5375 0.772266 24.2156 0.775391 23.9 0.800391C22.0156 0.950391 20.1344 1.66602 18.625 3.17539C18.5656 3.23477 18.5156 3.30039 18.475 3.37539C16.7344 5.21914 16.3125 7.18789 15.8 9.67539C15.5313 10.9816 15.225 12.4816 14.65 14.2254C15.1688 14.3473 15.6844 14.4785 16.2 14.6254C16.7719 12.8566 17.075 11.3316 17.35 10.0004C17.8344 7.64102 18.2094 5.93789 19.7 4.40039C19.7281 4.37852 19.7531 4.35352 19.775 4.32539C21.4125 2.68789 23.5063 2.18789 25.6 2.42539C27.6938 2.66289 29.7344 3.68477 31.025 4.97539C32.3594 6.30977 33.5281 8.20977 33.85 10.2004C34.1719 12.191 33.7438 14.2566 31.8 16.2004C31.7812 16.216 31.7656 16.2316 31.75 16.2504C31.7375 16.2629 31.7125 16.2629 31.7 16.2754C31.6906 16.2848 31.6844 16.291 31.675 16.3004C29.8406 18.0504 27.5656 18.3285 25.05 17.9504C24.8594 18.4785 24.675 18.9785 24.525 19.4754C27.5312 19.9754 30.3906 19.716 32.75 17.4754C32.7531 17.4723 32.7719 17.4785 32.775 17.4754C32.8219 17.4379 32.8625 17.3973 32.9 17.3504C32.9094 17.341 32.9156 17.3348 32.925 17.3254C35.1969 15.0535 35.8156 12.366 35.425 9.95039C35.0344 7.53477 33.7156 5.36602 32.175 3.82539C30.5906 2.24102 28.25 1.10664 25.775 0.825391C25.4656 0.791015 25.1625 0.778515 24.85 0.775391ZM30.05 5.15039C23.5594 12.8098 22.3281 18.0504 21.3 22.4004C20.5594 25.5316 19.975 28.0254 17.475 30.5254C15.1406 32.8566 10.5875 32.716 7.45 30.4504C7.10625 30.8473 6.7375 31.2473 6.375 31.6504C8.275 33.0723 10.625 33.8254 12.85 33.8254C15.05 33.8254 17.1375 33.1129 18.6 31.6504C21.4219 28.8285 22.0813 26.0191 22.85 22.7754C23.8313 18.6254 25.025 13.6379 31.175 6.32539C30.9438 6.03789 30.7063 5.75664 30.475 5.52539C30.3469 5.39727 30.1969 5.27227 30.05 5.15039ZM10.075 14.4504C7.85 14.5066 5.75 15.2004 3.9 17.0504C0.846875 20.1035 1.55625 25.6879 4.15 29.3504C4.52188 28.9316 4.89688 28.5379 5.25 28.1254C3.25 25.0535 2.6625 20.5379 5.025 18.1754C8.5625 14.6379 13.425 16.1973 18.55 17.8504C19.5063 18.1598 20.4438 18.4754 21.4 18.7504C21.5469 18.2598 21.7156 17.7473 21.9 17.2254C20.9563 16.9535 19.9969 16.6629 19.025 16.3504C16.0125 15.3785 12.9375 14.3785 10.075 14.4504ZM13.475 17.2254C11.5594 21.441 7.94688 26.9035 0.625 34.2254C0.3125 34.5379 0.3125 35.0629 0.625 35.3754C0.78125 35.5316 0.99375 35.6004 1.2 35.6004C1.40625 35.6004 1.61875 35.5316 1.775 35.3754C9.41563 27.7348 13.1 22.0223 15.05 17.6254C14.5125 17.4785 13.9938 17.3379 13.475 17.2254Z" fill="#EF437B"/>
</svg>
