<svg width="26" height="26" viewBox="0 0 26 26" fill="none" xmlns="http://www.w3.org/2000/svg">
<path d="M7.66667 1H3.66667C2.95942 1 2.28115 1.28095 1.78105 1.78105C1.28095 2.28115 1 2.95942 1 3.66667V7.66667M25 7.66667V3.66667C25 2.95942 24.719 2.28115 24.219 1.78105C23.7189 1.28095 23.0406 1 22.3333 1H18.3333M18.3333 25H22.3333C23.0406 25 23.7189 24.719 24.219 24.219C24.719 23.7189 25 23.0406 25 22.3333V18.3333M1 18.3333V22.3333C1 23.0406 1.28095 23.7189 1.78105 24.219C2.28115 24.719 2.95942 25 3.66667 25H7.66667" stroke="#9A469B" stroke-width="1.5" stroke-linecap="round" stroke-linejoin="round"/>
</svg>
