<svg width="26" height="26" viewBox="0 0 26 26" fill="none" xmlns="http://www.w3.org/2000/svg">
<path d="M7.66667 1V5C7.66667 5.70724 7.38572 6.38552 6.88562 6.88562C6.38552 7.38572 5.70724 7.66667 5 7.66667H1M25 7.66667H21C20.2928 7.66667 19.6145 7.38572 19.1144 6.88562C18.6143 6.38552 18.3333 5.70724 18.3333 5V1M18.3333 25V21C18.3333 20.2928 18.6143 19.6145 19.1144 19.1144C19.6145 18.6143 20.2928 18.3333 21 18.3333H25M1 18.3333H5C5.70724 18.3333 6.38552 18.6143 6.88562 19.1144C7.38572 19.6145 7.66667 20.2928 7.66667 21V25" stroke="#9A469B" stroke-width="1.5" stroke-linecap="round" stroke-linejoin="round"/>
</svg>
