<svg width="229" height="165" viewBox="0 0 229 165" fill="none" xmlns="http://www.w3.org/2000/svg">
<circle cx="117" cy="80" r="80" fill="#E4E7EC"/>
<circle cx="33" cy="20" r="8" fill="#F2F4F7"/>
<circle cx="205" cy="126" r="6" fill="#F2F4F7"/>
<circle cx="32" cy="138" r="10" fill="#F2F4F7"/>
<circle cx="217" cy="38" r="10" fill="#F2F4F7"/>
<circle cx="198" cy="11" r="7" fill="#F2F4F7"/>
<g filter="url(#filter0_dd_13150_21934)">
<path d="M63.0793 124.214L115.531 99.7554C118.164 98.5274 119.303 95.397 118.075 92.7636L87.0998 26.3362L66.1244 18.7018L23.2097 38.7133C20.5762 39.9413 19.4369 43.0716 20.6649 45.7051L56.0875 121.669C57.3155 124.302 60.4458 125.442 63.0793 124.214Z" fill="url(#paint0_linear_13150_21934)"/>
<path d="M66.125 18.7017L87.1004 26.3361L72.7955 33.0066L66.125 18.7017Z" fill="#D0D5DD"/>
</g>
<g filter="url(#filter1_dd_13150_21934)">
<path d="M88.1519 106.339H146.025C148.931 106.339 151.287 103.984 151.287 101.078V27.7837L135.503 12H88.1519C85.2462 12 82.8906 14.3555 82.8906 17.2612V101.078C82.8906 103.984 85.2462 106.339 88.1519 106.339Z" fill="url(#paint1_linear_13150_21934)"/>
<path d="M135.504 12L151.288 27.7837H135.504V12Z" fill="#D0D5DD"/>
</g>
<g filter="url(#filter2_dd_13150_21934)">
<path d="M117.912 99.724L170.364 124.182C172.997 125.41 176.127 124.271 177.356 121.638L208.331 55.2103L200.697 34.2349L157.782 14.2235C155.149 12.9955 152.018 14.1348 150.79 16.7683L115.368 92.7322C114.14 95.3657 115.279 98.496 117.912 99.724Z" fill="url(#paint2_linear_13150_21934)"/>
<path d="M200.697 34.2349L208.332 55.2102L194.027 48.5398L200.697 34.2349Z" fill="#D0D5DD"/>
</g>
<g filter="url(#filter3_b_13150_21934)">
<rect x="89" y="88" width="56" height="56" rx="28" fill="#344054" fill-opacity="0.4"/>
<path d="M127.5 126.5L122.425 121.425M125.167 114.833C125.167 119.988 120.988 124.167 115.833 124.167C110.679 124.167 106.5 119.988 106.5 114.833C106.5 109.679 110.679 105.5 115.833 105.5C120.988 105.5 125.167 109.679 125.167 114.833Z" stroke="white" stroke-width="2.33333" stroke-linecap="round" stroke-linejoin="round"/>
</g>
<defs>
<filter id="filter0_dd_13150_21934" x="-1.55859" y="12.0312" width="141.857" height="154.406" filterUnits="userSpaceOnUse" color-interpolation-filters="sRGB">
<feFlood flood-opacity="0" result="BackgroundImageFix"/>
<feColorMatrix in="SourceAlpha" type="matrix" values="0 0 0 0 0 0 0 0 0 0 0 0 0 0 0 0 0 0 127 0" result="hardAlpha"/>
<feMorphology radius="4" operator="erode" in="SourceAlpha" result="effect1_dropShadow_13150_21934"/>
<feOffset dy="8"/>
<feGaussianBlur stdDeviation="4"/>
<feColorMatrix type="matrix" values="0 0 0 0 0.0627451 0 0 0 0 0.0941176 0 0 0 0 0.156863 0 0 0 0.04 0"/>
<feBlend mode="normal" in2="BackgroundImageFix" result="effect1_dropShadow_13150_21934"/>
<feColorMatrix in="SourceAlpha" type="matrix" values="0 0 0 0 0 0 0 0 0 0 0 0 0 0 0 0 0 0 127 0" result="hardAlpha"/>
<feMorphology radius="4" operator="erode" in="SourceAlpha" result="effect2_dropShadow_13150_21934"/>
<feOffset dy="20"/>
<feGaussianBlur stdDeviation="12"/>
<feColorMatrix type="matrix" values="0 0 0 0 0.0627451 0 0 0 0 0.0941176 0 0 0 0 0.156863 0 0 0 0.1 0"/>
<feBlend mode="normal" in2="effect1_dropShadow_13150_21934" result="effect2_dropShadow_13150_21934"/>
<feBlend mode="normal" in="SourceGraphic" in2="effect2_dropShadow_13150_21934" result="shape"/>
</filter>
<filter id="filter1_dd_13150_21934" x="62.8906" y="12" width="108.396" height="134.339" filterUnits="userSpaceOnUse" color-interpolation-filters="sRGB">
<feFlood flood-opacity="0" result="BackgroundImageFix"/>
<feColorMatrix in="SourceAlpha" type="matrix" values="0 0 0 0 0 0 0 0 0 0 0 0 0 0 0 0 0 0 127 0" result="hardAlpha"/>
<feMorphology radius="4" operator="erode" in="SourceAlpha" result="effect1_dropShadow_13150_21934"/>
<feOffset dy="8"/>
<feGaussianBlur stdDeviation="4"/>
<feColorMatrix type="matrix" values="0 0 0 0 0.0627451 0 0 0 0 0.0941176 0 0 0 0 0.156863 0 0 0 0.04 0"/>
<feBlend mode="normal" in2="BackgroundImageFix" result="effect1_dropShadow_13150_21934"/>
<feColorMatrix in="SourceAlpha" type="matrix" values="0 0 0 0 0 0 0 0 0 0 0 0 0 0 0 0 0 0 127 0" result="hardAlpha"/>
<feMorphology radius="4" operator="erode" in="SourceAlpha" result="effect2_dropShadow_13150_21934"/>
<feOffset dy="20"/>
<feGaussianBlur stdDeviation="12"/>
<feColorMatrix type="matrix" values="0 0 0 0 0.0627451 0 0 0 0 0.0941176 0 0 0 0 0.156863 0 0 0 0.1 0"/>
<feBlend mode="normal" in2="effect1_dropShadow_13150_21934" result="effect2_dropShadow_13150_21934"/>
<feBlend mode="normal" in="SourceGraphic" in2="effect2_dropShadow_13150_21934" result="shape"/>
</filter>
<filter id="filter2_dd_13150_21934" x="93.1445" y="12" width="141.857" height="154.406" filterUnits="userSpaceOnUse" color-interpolation-filters="sRGB">
<feFlood flood-opacity="0" result="BackgroundImageFix"/>
<feColorMatrix in="SourceAlpha" type="matrix" values="0 0 0 0 0 0 0 0 0 0 0 0 0 0 0 0 0 0 127 0" result="hardAlpha"/>
<feMorphology radius="4" operator="erode" in="SourceAlpha" result="effect1_dropShadow_13150_21934"/>
<feOffset dy="8"/>
<feGaussianBlur stdDeviation="4"/>
<feColorMatrix type="matrix" values="0 0 0 0 0.0627451 0 0 0 0 0.0941176 0 0 0 0 0.156863 0 0 0 0.04 0"/>
<feBlend mode="normal" in2="BackgroundImageFix" result="effect1_dropShadow_13150_21934"/>
<feColorMatrix in="SourceAlpha" type="matrix" values="0 0 0 0 0 0 0 0 0 0 0 0 0 0 0 0 0 0 127 0" result="hardAlpha"/>
<feMorphology radius="4" operator="erode" in="SourceAlpha" result="effect2_dropShadow_13150_21934"/>
<feOffset dy="20"/>
<feGaussianBlur stdDeviation="12"/>
<feColorMatrix type="matrix" values="0 0 0 0 0.0627451 0 0 0 0 0.0941176 0 0 0 0 0.156863 0 0 0 0.1 0"/>
<feBlend mode="normal" in2="effect1_dropShadow_13150_21934" result="effect2_dropShadow_13150_21934"/>
<feBlend mode="normal" in="SourceGraphic" in2="effect2_dropShadow_13150_21934" result="shape"/>
</filter>
<filter id="filter3_b_13150_21934" x="81" y="80" width="72" height="72" filterUnits="userSpaceOnUse" color-interpolation-filters="sRGB">
<feFlood flood-opacity="0" result="BackgroundImageFix"/>
<feGaussianBlur in="BackgroundImageFix" stdDeviation="4"/>
<feComposite in2="SourceAlpha" operator="in" result="effect1_backgroundBlur_13150_21934"/>
<feBlend mode="normal" in="SourceGraphic" in2="effect1_backgroundBlur_13150_21934" result="shape"/>
</filter>
<linearGradient id="paint0_linear_13150_21934" x1="59.9977" y1="124.419" x2="18.1982" y2="49.009" gradientUnits="userSpaceOnUse">
<stop stop-color="#E4E7EC"/>
<stop offset="1" stop-color="#F9FAFB"/>
</linearGradient>
<linearGradient id="paint1_linear_13150_21934" x1="85.2725" y1="105.223" x2="79.2587" y2="19.2131" gradientUnits="userSpaceOnUse">
<stop stop-color="#E4E7EC"/>
<stop offset="1" stop-color="#F9FAFB"/>
</linearGradient>
<linearGradient id="paint2_linear_13150_21934" x1="115.775" y1="97.4951" x2="146.674" y2="17.0024" gradientUnits="userSpaceOnUse">
<stop stop-color="#E4E7EC"/>
<stop offset="1" stop-color="#F9FAFB"/>
</linearGradient>
</defs>
</svg>
