<svg width="19" height="18" viewBox="0 0 19 18" fill="none" xmlns="http://www.w3.org/2000/svg">
<g clip-path="url(#clip0_21428_88802)">
<path d="M1.62803 14.6521H17.036C17.7518 14.6521 18.332 14.0719 18.332 13.3561V4.64414C18.332 3.92839 17.7518 3.34814 17.036 3.34814H1.62803C0.912279 3.34814 0.332031 3.92839 0.332031 4.64414V13.3561C0.332031 14.0719 0.912279 14.6521 1.62803 14.6521Z" fill="#FF0000"/>
<path d="M6.74218 7.20215V10.7893H5.54472L4.64792 7.83517H4.59518V10.7893H3.86719V7.20215H5.09634L5.96145 10.1563H6.01419V7.20215H6.74218Z" fill="white"/>
<path d="M8.25143 7.83517V8.67394H9.52803V9.29641H8.25143V10.1563H9.84457V10.7893H7.52344V7.20215H9.84457V7.83517H8.25143Z" fill="white"/>
<path d="M10.1562 7.20215H10.9211L11.3643 10.1668H11.4434L12.087 7.20215H12.931L13.5746 10.1668H13.6537L14.0968 7.20215H14.8617L14.1759 10.7893H13.0734L12.509 8.06201L11.9445 10.7893H10.842L10.1562 7.20215Z" fill="white"/>
</g>
<defs>
<clipPath id="clip0_21428_88802">
<rect width="18" height="18" fill="white" transform="translate(0.332031)"/>
</clipPath>
</defs>
</svg>
