<svg width="182" height="152" viewBox="0 0 182 152" fill="none" xmlns="http://www.w3.org/2000/svg">
<path d="M86.4645 150C127.251 150 160.318 116.933 160.318 76C160.318 35.0669 127.251 2 86.4645 2C45.6778 2 12.6113 35.0669 12.6113 76C12.6113 116.933 45.6778 150 86.4645 150Z" fill="#9A469B" fill-opacity="0.1" stroke="#9A469B" stroke-width="2.91336" stroke-miterlimit="10"/>
<path d="M168.769 45.5552C172.068 45.5552 174.742 42.8813 174.742 39.5828C174.742 36.2843 172.068 33.6104 168.769 33.6104C165.471 33.6104 162.797 36.2843 162.797 39.5828C162.797 42.8813 165.471 45.5552 168.769 45.5552Z" fill="#F1F3F9"/>
<path d="M177.508 22.1028C179.761 22.1028 181.587 20.2767 181.587 18.0241C181.587 15.7714 179.761 13.9453 177.508 13.9453C175.256 13.9453 173.43 15.7714 173.43 18.0241C173.43 20.2767 175.256 22.1028 177.508 22.1028Z" fill="#F1F3F9"/>
<path d="M7.51423 49.7795C9.76682 49.7795 11.5929 47.9534 11.5929 45.7008C11.5929 43.4482 9.76682 41.6221 7.51423 41.6221C5.26163 41.6221 3.43555 43.4482 3.43555 45.7008C3.43555 47.9534 5.26163 49.7795 7.51423 49.7795Z" fill="#EAEEF9"/>
<path d="M15.0864 138.491C19.2698 138.491 22.6611 135.1 22.6611 130.917C22.6611 126.733 19.2698 123.342 15.0864 123.342C10.903 123.342 7.51172 126.733 7.51172 130.917C7.51172 135.1 10.903 138.491 15.0864 138.491Z" fill="#F1F3F9"/>
<path d="M154.93 46.4292H28.6363C25.8686 46.4292 23.6836 44.2442 23.6836 41.4764V13.0709C23.6836 10.3032 25.8686 8.11816 28.6363 8.11816H154.784C157.552 8.11816 159.737 10.3032 159.737 13.0709V41.4764C159.882 44.2442 157.552 46.4292 154.93 46.4292Z" fill="#EF437B" stroke="#EF437B" stroke-width="2.91336" stroke-miterlimit="10"/>
<path d="M54.2739 27.2006C54.2739 30.4053 52.8172 33.3187 50.6322 35.3581C48.7385 37.1061 46.1165 38.1258 43.3489 38.1258C40.5812 38.1258 37.9592 37.1061 36.0655 35.3581C33.7348 33.3187 32.4238 30.4053 32.4238 27.2006C32.4238 21.2281 37.3765 16.2754 43.3489 16.2754C49.3212 16.2754 54.2739 21.2281 54.2739 27.2006Z" fill="#FDA504"/>
<path d="M50.6351 35.3587C48.7414 37.1068 46.1194 38.1265 43.3517 38.1265C40.584 38.1265 37.962 37.1068 36.0684 35.3587C36.9424 35.0674 37.962 34.6304 39.273 34.0477C39.5644 33.902 39.8557 33.6107 40.0014 33.3194C40.147 33.1737 40.147 32.8824 40.147 32.7367V29.969L40.0014 29.8233C39.71 29.532 39.5644 29.095 39.5644 28.6579L39.273 28.5123C38.5447 28.658 38.6904 27.9296 38.399 26.4729C38.399 25.8902 38.399 25.7446 38.6904 25.5989L38.9817 25.3076C37.6707 22.2485 38.2534 20.3548 39.71 19.6265C39.273 18.6068 39.273 18.3154 39.273 18.3154C39.273 18.3154 42.1864 18.7524 43.0604 18.6068C44.3714 18.3154 46.2651 18.6068 46.9934 20.3548C48.1587 20.7918 48.5957 21.5202 48.7414 22.3942C48.8871 23.7052 48.1587 25.1619 48.0131 25.5989C48.1587 25.7446 48.3044 25.8902 48.1587 26.3272C48.0131 27.6383 48.0131 28.5123 47.2847 28.3666L46.7021 29.6776C46.7021 29.8233 46.7021 29.8233 46.7021 29.969C46.7021 30.1146 46.7021 30.5517 46.7021 32.8824C46.7021 33.1737 46.8477 33.465 46.8477 33.6107C46.9934 33.902 47.2847 34.0477 47.4304 34.1934C48.7414 34.6304 49.7611 35.0674 50.6351 35.3587Z" fill="white"/>
<path d="M48.0488 25.7446C48.0488 25.4413 47.8972 24.9865 47.7456 24.6833V24.5317C47.1392 23.3187 45.9262 22.8639 44.7133 22.8639C41.6811 22.7123 41.3779 23.3187 40.3166 22.409C40.6198 22.8639 40.6198 23.622 40.165 24.5317C39.8617 25.1381 39.2553 25.4414 38.6488 25.593C37.2843 22.409 37.8908 20.438 39.4069 19.68C38.952 18.6187 38.952 18.3154 38.952 18.3154C38.952 18.3154 41.9843 18.7703 42.894 18.6187C44.2585 18.3154 46.2295 18.6187 46.9875 20.438C48.2004 20.8929 48.6553 21.651 48.8069 22.5607C48.9585 23.622 48.2004 25.1381 48.0488 25.7446Z" fill="#1E210D"/>
<path d="M46.8483 33.6116V34.1943H40.002V33.466C40.1476 33.3203 40.1476 33.0289 40.1476 32.8833V30.1156L40.002 29.9699V29.8242C40.1476 30.1156 40.2933 30.2612 40.5846 30.5526L42.7696 32.0093C43.2066 32.4463 43.935 32.4463 44.5176 32.0093L46.557 30.2612L46.7026 30.1156C46.7026 30.2612 46.7026 30.6982 46.7026 33.0289C46.557 33.1746 46.7026 33.3203 46.8483 33.6116Z" fill="url(#paint0_linear_16136_35476)"/>
<path d="M90.11 23.9959H62.1419C61.4136 23.9959 60.9766 23.4132 60.9766 22.8305V19.1888C60.9766 18.4604 61.5592 18.0234 62.1419 18.0234H90.11C90.8383 18.0234 91.2753 18.6061 91.2753 19.1888V22.8305C91.2753 23.5589 90.8383 23.9959 90.11 23.9959Z" fill="white"/>
<path d="M123.322 36.3777H62.1419C61.4136 36.3777 60.9766 35.795 60.9766 35.2124V31.5706C60.9766 30.8423 61.5592 30.4053 62.1419 30.4053H123.322C124.05 30.4053 124.487 30.9879 124.487 31.5706V35.2124C124.487 35.9407 123.905 36.3777 123.322 36.3777Z" fill="white"/>
<path d="M154.93 141.988H28.6363C25.8686 141.988 23.6836 139.803 23.6836 137.035V108.63C23.6836 105.862 25.8686 103.677 28.6363 103.677H154.784C157.552 103.677 159.737 105.862 159.737 108.63V137.035C159.882 139.803 157.552 141.988 154.93 141.988Z" fill="#C2D52E" stroke="#C2D52E" stroke-width="2.91336" stroke-miterlimit="10"/>
<path d="M54.2739 122.758C54.2739 125.963 52.8172 128.876 50.6322 130.916C48.7385 132.664 46.1165 133.683 43.3489 133.683C40.5812 133.683 37.9592 132.664 36.0655 130.916C33.7348 128.876 32.4238 125.963 32.4238 122.758C32.4238 116.786 37.3765 111.833 43.3489 111.833C49.3212 111.833 54.2739 116.786 54.2739 122.758Z" fill="#58C0BF"/>
<path d="M50.6351 130.914C48.7414 132.662 46.1194 133.682 43.3517 133.682C40.584 133.682 37.962 132.662 36.0684 130.914C36.9424 130.623 37.962 130.186 39.273 129.603C39.5644 129.458 39.8557 129.166 40.0014 128.875C40.147 128.729 40.147 128.438 40.147 128.292V125.525L40.0014 125.379C39.71 125.088 39.5644 124.651 39.5644 124.214L39.273 124.068C38.5447 124.214 38.6904 123.485 38.399 122.029C38.399 121.446 38.399 121.3 38.6904 121.155L38.9817 120.863C37.6707 117.804 38.2534 115.91 39.71 115.182C39.273 114.162 39.273 113.871 39.273 113.871C39.273 113.871 42.1864 114.308 43.0604 114.162C44.3714 113.871 46.2651 114.162 46.9934 115.91C48.1587 116.347 48.5957 117.076 48.7414 117.95C48.8871 119.261 48.1587 120.718 48.0131 121.155C48.1587 121.3 48.3044 121.446 48.1587 121.883C48.0131 123.194 48.0131 124.068 47.2847 123.922L46.7021 125.088C46.7021 125.233 46.7021 125.233 46.7021 125.379C46.7021 125.525 46.7021 125.962 46.7021 128.292C46.7021 128.584 46.8477 128.875 46.8477 129.021C46.9934 129.312 47.2847 129.458 47.4304 129.603C48.7414 130.332 49.7611 130.623 50.6351 130.914Z" fill="white"/>
<path d="M48.0488 121.3C48.0488 120.997 47.8972 120.542 47.7456 120.239V120.087C47.1392 118.874 45.9262 118.42 44.7133 118.42C41.6811 118.268 41.3779 118.874 40.3166 117.965C40.6198 118.42 40.6198 119.178 40.165 120.087C39.8617 120.694 39.2553 120.997 38.6488 121.149C37.2843 117.965 37.8908 115.994 39.4069 115.236C38.952 114.174 38.952 113.871 38.952 113.871C38.952 113.871 41.9843 114.326 42.894 114.174C44.2585 113.871 46.2295 114.174 46.9875 115.994C48.2004 116.449 48.6553 117.207 48.8069 118.116C48.9585 119.329 48.2004 120.694 48.0488 121.3Z" fill="#1E210D"/>
<path d="M46.8483 129.167V129.75H40.002V129.022C40.1476 128.876 40.1476 128.585 40.1476 128.439V125.671L40.002 125.526V125.38C40.1476 125.671 40.2933 125.817 40.5846 126.108L42.7696 127.565C43.2066 128.002 43.935 128.002 44.5176 127.565L46.557 125.817L46.7026 125.671C46.7026 125.817 46.7026 126.254 46.7026 128.585C46.557 128.73 46.7026 129.022 46.8483 129.167Z" fill="url(#paint1_linear_16136_35476)"/>
<path d="M90.11 119.7H62.1419C61.4136 119.7 60.9766 119.117 60.9766 118.535V114.893C60.9766 114.165 61.5592 113.728 62.1419 113.728H90.11C90.8383 113.728 91.2753 114.31 91.2753 114.893V118.535C91.2753 119.117 90.8383 119.7 90.11 119.7Z" fill="white"/>
<path d="M123.322 132.082H62.1419C61.4136 132.082 60.9766 131.499 60.9766 130.916V127.275C60.9766 126.546 61.5592 126.109 62.1419 126.109H123.322C124.05 126.109 124.487 126.692 124.487 127.275V130.916C124.487 131.499 123.905 132.082 123.322 132.082Z" fill="white"/>
<path d="M133.514 94.2085H7.36674C4.59907 94.2085 2.41406 92.0234 2.41406 89.2557V60.8502C2.41406 58.0825 4.59907 55.8975 7.36674 55.8975H133.514C136.282 55.8975 138.467 58.0825 138.467 60.8502V89.2557C138.613 92.0234 136.282 94.2085 133.514 94.2085Z" fill="#1897A6" stroke="#1897A6" stroke-width="2.91336" stroke-miterlimit="10"/>
<path d="M68.8404 71.7781H40.8724C40.144 71.7781 39.707 71.1954 39.707 70.6127V66.971C39.707 66.2427 40.2897 65.8057 40.8724 65.8057H68.8404C69.5688 65.8057 70.0058 66.3883 70.0058 66.971V70.6127C70.0058 71.3411 69.5688 71.7781 68.8404 71.7781Z" fill="white"/>
<path d="M102.053 84.3054H40.8724C40.144 84.3054 39.707 83.7228 39.707 83.1401V79.4984C39.707 78.77 40.2897 78.333 40.8724 78.333H101.907C102.635 78.333 103.072 78.9157 103.072 79.4984V83.1401C103.218 83.7228 102.635 84.3054 102.053 84.3054Z" fill="white"/>
<path d="M33.15 74.9818C33.15 78.0409 31.839 80.8086 29.7997 82.848C29.654 82.9937 29.654 82.9937 29.5083 83.1393C27.6147 84.8874 24.9927 85.907 22.225 85.907C19.4573 85.907 16.981 84.8874 15.0873 83.285C15.0873 83.285 15.0873 83.285 14.9416 83.285C12.611 81.2456 11.1543 78.3322 11.1543 74.9818C11.1543 69.0094 16.107 64.0566 22.0793 64.0566C28.1973 64.0566 33.15 69.0094 33.15 74.9818Z" fill="#C2D52E"/>
<path d="M29.7557 83.0693C29.3126 82.0352 28.574 81.1489 27.3922 80.558C26.8013 80.2626 26.3581 80.1148 25.6195 80.1148H25.1764C24.1423 80.1148 23.9946 79.9671 23.9946 79.9671V78.1945C25.1764 77.3081 26.0627 76.1263 26.3581 74.7968C27.0968 74.6491 27.5399 74.0582 27.3922 73.3196C27.3922 73.0242 27.0968 72.7287 27.0968 72.4333C27.0968 72.2855 27.0968 72.1378 27.0968 71.9901C27.0968 71.8424 27.0968 71.8424 27.0968 71.6946C27.0968 71.5469 27.0968 71.5469 27.0968 71.3992C27.0968 70.8083 26.949 70.3651 26.5059 69.7742C25.6195 68.1493 23.8469 67.1152 21.9265 67.1152C21.4834 67.1152 21.1879 67.1152 20.7448 67.263C20.0062 67.4107 19.4153 67.7061 18.8244 68.1493C18.6767 68.297 18.6767 68.297 18.529 68.4447C18.529 68.4447 18.529 68.4447 18.3812 68.5925C17.7904 69.1834 17.3472 69.922 17.0517 70.6606C16.7563 71.3992 16.7563 72.2855 16.7563 73.1719C16.7563 73.1719 16.7563 73.1719 16.7563 73.3196C16.7563 73.4673 16.7563 73.4673 16.7563 73.615C16.7563 73.615 16.7563 73.7628 16.6086 73.7628C16.904 73.4673 16.7563 73.9105 16.904 74.2059C17.1995 74.9445 17.6426 74.7968 18.2335 75.24C18.2335 75.24 18.2335 75.24 18.0858 75.24L17.4949 75.3877C14.2451 76.4218 13.9496 79.8194 17.1995 80.558C16.904 80.7057 16.7563 80.8535 16.6086 80.8535C15.7223 81.5921 15.1314 82.4784 14.8359 83.3648C16.7563 84.9897 19.2676 86.0238 22.0742 86.0238C24.8809 86.0238 27.5399 84.9897 29.4603 83.217C29.608 83.3648 29.7557 83.217 29.7557 83.0693C29.9034 83.0693 29.9034 83.0693 29.7557 83.0693ZM20.597 79.524C20.4493 79.3762 20.3016 79.2285 20.3016 79.2285C20.1539 79.0808 20.0062 79.0808 19.8584 78.9331C19.8584 78.9331 19.7107 78.9331 19.7107 78.7853C19.2676 78.4899 18.8244 78.1945 18.6767 77.7513C18.6767 77.6036 18.8244 77.3081 19.1198 77.0127C19.2676 77.1604 19.4153 77.3081 19.563 77.6036C19.7107 77.7513 19.8584 77.899 20.0062 78.0467C20.1539 78.0467 20.3016 78.1945 20.3016 78.3422C20.3016 78.3422 20.3016 78.3422 20.4493 78.3422C20.4493 78.3422 20.4493 78.3422 20.597 78.3422V79.524Z" fill="white"/>
<path d="M25.3571 80.0304C25.2114 80.6131 24.9201 81.0501 24.9201 81.0501L19.3848 80.1761L19.6761 78.7194C19.6761 78.7194 19.8218 78.7194 19.8218 78.8651C19.9674 79.0107 20.1131 79.0107 20.2588 79.1564C20.4044 79.1564 20.4044 79.3021 20.5501 79.4477V78.4281C20.5501 78.4281 20.5501 78.4281 20.4044 78.4281C21.2784 78.8651 22.4438 79.1564 24.0461 78.1367V79.8848C24.1918 79.8848 24.3374 80.0304 25.3571 80.0304Z" fill="url(#paint2_linear_16136_35476)"/>
<path d="M24.2076 71.907C25.2468 71.907 26.286 71.7585 27.1767 71.4616C27.1767 71.4616 27.1767 71.3131 27.3252 71.1647C27.1767 70.7193 27.0283 70.1255 26.7314 69.5316C25.8406 67.8986 24.0591 66.8594 22.1292 66.8594C21.6838 66.8594 21.2566 66.8911 20.661 67.0396C19.8682 67.2819 19.5002 67.4948 19.3124 67.6086C19.3124 67.6086 18.8785 67.9004 18.5662 68.1955C18.254 68.4906 17.5271 69.5316 17.2301 70.2739C16.9332 71.1647 16.6937 71.9218 16.8421 72.8125C16.9906 72.8125 17.2301 72.6493 17.3786 72.6493C18.5662 72.0554 19.457 71.3131 19.9024 70.1255C21.09 71.1647 22.5746 71.7585 24.2076 71.907Z" fill="#1E210D"/>
<path d="M19.168 77.167C19.3136 77.3127 19.4593 77.4583 19.605 77.604C19.4593 77.4583 19.3136 77.3127 19.168 77.167Z" fill="#3973F4"/>
<path d="M21.2062 82.5569C20.7692 83.1396 20.0408 83.1396 19.3125 83.1396C20.0408 82.4112 19.6038 80.2262 17.2732 80.5175C13.9228 79.9349 14.3598 76.4388 17.5645 75.4191L18.1472 75.2734C18.1472 75.2734 18.1472 75.2734 18.2928 75.4191C18.5842 76.1475 18.8755 76.5845 19.3125 77.1671C18.0015 78.3325 19.8952 78.6238 20.7692 79.4978C21.3518 79.7892 21.9345 81.6829 21.2062 82.5569Z" fill="#1E210D"/>
<defs>
<linearGradient id="paint0_linear_16136_35476" x1="43.4272" y1="34.2209" x2="43.4272" y2="31.8134" gradientUnits="userSpaceOnUse">
<stop stop-color="white"/>
<stop offset="1" stop-color="#E2E5EC"/>
</linearGradient>
<linearGradient id="paint1_linear_16136_35476" x1="43.4272" y1="129.777" x2="43.4272" y2="127.369" gradientUnits="userSpaceOnUse">
<stop stop-color="white"/>
<stop offset="1" stop-color="#E2E5EC"/>
</linearGradient>
<linearGradient id="paint2_linear_16136_35476" x1="22.3727" y1="81.0678" x2="22.3727" y2="79.4629" gradientUnits="userSpaceOnUse">
<stop stop-color="white"/>
<stop offset="1" stop-color="#E2E5EC"/>
</linearGradient>
</defs>
</svg>
