<svg width="186" height="183" viewBox="0 0 186 183" fill="none" xmlns="http://www.w3.org/2000/svg">
<path d="M88.8071 147.999C123.944 147.999 152.431 119.513 152.431 84.2507C152.431 48.9881 123.819 20.502 88.8071 20.502C53.6698 20.502 25.1836 48.9881 25.1836 84.2507C25.1836 119.513 53.6698 147.999 88.8071 147.999Z" fill="#C2D52E"/>
<path d="M148.29 42.464C151.131 42.464 153.435 40.1604 153.435 37.3189C153.435 34.4774 151.131 32.1738 148.29 32.1738C145.448 32.1738 143.145 34.4774 143.145 37.3189C143.145 40.1604 145.448 42.464 148.29 42.464Z" fill="#FDA504"/>
<path d="M155.814 22.3848C157.755 22.3848 159.328 20.8117 159.328 18.8711C159.328 16.9306 157.755 15.3574 155.814 15.3574C153.874 15.3574 152.301 16.9306 152.301 18.8711C152.301 20.8117 153.874 22.3848 155.814 22.3848Z" fill="#FDA504"/>
<path d="M28.5704 42.338C30.5109 42.338 32.0841 40.7648 32.0841 38.8243C32.0841 36.8837 30.5109 35.3105 28.5704 35.3105C26.6298 35.3105 25.0566 36.8837 25.0566 38.8243C25.0566 40.7648 26.6298 42.338 28.5704 42.338Z" fill="#FDA504"/>
<path d="M7.11142 110.102C10.7153 110.102 13.6369 107.18 13.6369 103.576C13.6369 99.9723 10.7153 97.0508 7.11142 97.0508C3.5075 97.0508 0.585938 99.9723 0.585938 103.576C0.585938 107.18 3.5075 110.102 7.11142 110.102Z" fill="#FDA504"/>
<path d="M185.768 64.2365H179.543V58.0107H174.206V64.2365H167.98V69.7507H174.206V75.9764H179.543V69.7507H185.768V64.2365Z" fill="#1897A6"/>
<path d="M82.7411 5.32208H77.419V0H72.8573V5.32208H67.5352V10.0359H72.8573V15.358H77.419V10.0359H82.7411V5.32208Z" fill="#1897A6"/>
<path d="M20.1013 58.4192H15.5541V53.8721H11.6566V58.4192H7.10938V62.4467H11.6566V66.9939H15.5541V62.4467H20.1013V58.4192Z" fill="#1897A6"/>
<g filter="url(#filter0_d_13760_117815)">
<path d="M133.556 71.9573L120.99 41.2731C118.75 35.8182 112.905 32.7011 107.158 33.9674L74.7205 40.9809C71.993 41.5654 69.6552 43.4162 68.2914 45.8514L37.4123 104.687C36.146 107.122 37.0227 110.239 39.5554 111.506L95.4689 140.924C97.9042 142.19 101.021 141.313 102.288 138.781L133.167 79.9449C134.53 77.5097 134.628 74.5874 133.556 71.9573ZM102.482 59.5862C98.4886 57.5406 96.9301 52.5727 99.0731 48.5789C101.119 44.5851 106.087 43.0265 110.08 45.1695C114.074 47.2152 115.633 52.1831 113.49 56.1769C111.444 60.1707 106.476 61.7292 102.482 59.5862Z" fill="#EF437B"/>
</g>
<path d="M106.475 52.0861C131.9 38.9358 141.933 19.3564 128.685 10.8817C115.437 2.40702 102.384 10.8817 99.0723 35.5264" stroke="#9A469B" stroke-width="6.27449" stroke-miterlimit="10" stroke-linecap="round" stroke-linejoin="round"/>
<path d="M99.8413 94.5383C101.561 95.4904 103.852 94.8322 104.804 93.1123C105.756 91.3924 105.098 89.1021 103.378 88.15C101.658 87.1979 99.3675 87.856 98.4154 89.576C97.3953 91.4187 97.9986 93.5182 99.8413 94.5383Z" fill="white"/>
<path d="M90.0413 99.0322L88.4443 98.1481C88.7251 94.4516 85.7745 91.3737 82.1328 91.2838C80.7551 91.1631 79.2282 91.6019 78.1248 92.4355L76.5277 91.5514C79.9873 88.4911 85.4981 88.9737 88.3675 92.4882C89.6794 94.1774 90.4604 96.5357 90.0413 99.0322Z" fill="white"/>
<path d="M75.2691 80.9367C76.989 81.8888 79.2793 81.2307 80.2314 79.5108C81.1835 77.7908 80.5254 75.5006 78.8055 74.5485C77.0855 73.5964 74.7952 74.2545 73.8431 75.9744C72.9459 77.8852 73.5492 79.9846 75.2691 80.9367Z" fill="white"/>
<defs>
<filter id="filter0_d_13760_117815" x="9.23013" y="19.8826" width="152.661" height="163.027" filterUnits="userSpaceOnUse" color-interpolation-filters="sRGB">
<feFlood flood-opacity="0" result="BackgroundImageFix"/>
<feColorMatrix in="SourceAlpha" type="matrix" values="0 0 0 0 0 0 0 0 0 0 0 0 0 0 0 0 0 0 127 0" result="hardAlpha"/>
<feOffset dy="13.8039"/>
<feGaussianBlur stdDeviation="13.8039"/>
<feColorMatrix type="matrix" values="0 0 0 0 0.397708 0 0 0 0 0.47749 0 0 0 0 0.575 0 0 0 0.27 0"/>
<feBlend mode="normal" in2="BackgroundImageFix" result="effect1_dropShadow_13760_117815"/>
<feBlend mode="normal" in="SourceGraphic" in2="effect1_dropShadow_13760_117815" result="shape"/>
</filter>
</defs>
</svg>
