<svg width="16" height="16" viewBox="0 0 16 16" fill="none" xmlns="http://www.w3.org/2000/svg">
<path d="M7.9987 4.03558V13.535M3.33203 5.50309C4.17588 5.63378 5.11722 5.85105 5.9987 6.19192M3.33203 8.16976C3.75836 8.23578 4.20956 8.32391 4.66536 8.4389M2.66158 2.00751C4.1405 2.17463 6.12745 2.62421 7.54325 3.6163C7.81535 3.80697 8.18204 3.80697 8.45415 3.6163C9.86995 2.62421 11.8569 2.17463 13.3358 2.00751C14.0677 1.92481 14.6654 2.53602 14.6654 3.29012V10.8C14.6654 11.5541 14.0677 12.1655 13.3358 12.2482C11.8569 12.4153 9.86995 12.8649 8.45415 13.857C8.18204 14.0477 7.81535 14.0477 7.54325 13.857C6.12745 12.8649 4.1405 12.4153 2.66158 12.2482C1.92965 12.1655 1.33203 11.5541 1.33203 10.8V3.29012C1.33203 2.53602 1.92965 1.92481 2.66158 2.00751Z" stroke="#344054" stroke-linecap="round"/>
</svg>
