<svg width="103" height="102" viewBox="0 0 103 102" fill="none" xmlns="http://www.w3.org/2000/svg">
<circle cx="51.5" cy="51" r="50" fill="#FFFBF3" stroke="#EF437B" stroke-width="2"/>
<path d="M51.5002 67.6666H38.8335C36.6244 67.6666 34.8335 65.8757 34.8335 63.6666V38.3333C34.8335 36.1241 36.6244 34.3333 38.8335 34.3333H64.1668C66.376 34.3333 68.1668 36.1241 68.1668 38.3333V54.3333" stroke="#EF437B" stroke-width="2.5" stroke-linecap="round"/>
<path d="M44.8335 34.3333H58.1668V48.5857C58.1668 49.4766 57.0897 49.9228 56.4597 49.2928L52.2073 45.0404C51.8167 44.6498 51.1836 44.6498 50.7931 45.0404L46.5406 49.2928C45.9106 49.9228 44.8335 49.4766 44.8335 48.5857V34.3333Z" stroke="#EF437B" stroke-width="2.5" stroke-linejoin="round"/>
<path d="M56.5 64.3333L59.9195 67.0689C60.3374 67.4032 60.9444 67.3493 61.2968 66.9466L66.5 61" stroke="#EF437B" stroke-width="2.5" stroke-linecap="round" stroke-linejoin="round"/>
</svg>
