<svg width="56" height="56" viewBox="0 0 56 56" fill="none" xmlns="http://www.w3.org/2000/svg">
<rect x="4" y="4" width="48" height="48" rx="24" fill="#FFEDCD"/>
<rect x="4" y="4" width="48" height="48" rx="24" stroke="#FFE3AF" stroke-width="8"/>
<path d="M32.5 25.3999L23.5 20.2099M19.27 22.9599L28 28.0099L36.73 22.9599M28 38.0799V27.9999M37 31.9999V23.9999C36.9996 23.6492 36.9071 23.3047 36.7315 23.0011C36.556 22.6974 36.3037 22.4453 36 22.2699L29 18.2699C28.696 18.0944 28.3511 18.002 28 18.002C27.6489 18.002 27.304 18.0944 27 18.2699L20 22.2699C19.6963 22.4453 19.444 22.6974 19.2685 23.0011C19.0929 23.3047 19.0004 23.6492 19 23.9999V31.9999C19.0004 32.3506 19.0929 32.6951 19.2685 32.9987C19.444 33.3024 19.6963 33.5545 20 33.7299L27 37.7299C27.304 37.9054 27.6489 37.9979 28 37.9979C28.3511 37.9979 28.696 37.9054 29 37.7299L36 33.7299C36.3037 33.5545 36.556 33.3024 36.7315 32.9987C36.9071 32.6951 36.9996 32.3506 37 31.9999Z" stroke="#FDA504" stroke-width="2" stroke-linecap="round" stroke-linejoin="round"/>
</svg>
