<svg width="20" height="20" viewBox="0 0 20 20" fill="none" xmlns="http://www.w3.org/2000/svg">
<path d="M11.6667 15.8333V5.83333M11.6667 15.8333H13.3333M11.6667 15.8333H7.49999M11.6667 5.83333C11.6667 3.99238 10.1743 2.5 8.33332 2.5H4.99999C3.15904 2.5 1.66666 3.99238 1.66666 5.83333V12.5C1.66666 14.0544 2.73055 15.3602 4.16986 15.7291M11.6667 5.83333H14.3409C14.7643 5.83333 15.1719 5.9945 15.4808 6.2841L17.8066 8.46449C18.1426 8.77957 18.3333 9.2197 18.3333 9.68039V14.1667C18.3333 15.0871 17.5871 15.8333 16.6667 15.8333M16.6667 15.8333C16.6667 16.7538 15.9205 17.5 15 17.5C14.0795 17.5 13.3333 16.7538 13.3333 15.8333M16.6667 15.8333C16.6667 14.9129 15.9205 14.1667 15 14.1667C14.0795 14.1667 13.3333 14.9129 13.3333 15.8333M7.49999 15.8333C7.49999 16.7538 6.7538 17.5 5.83332 17.5C4.91285 17.5 4.16666 16.7538 4.16666 15.8333C4.16666 15.7983 4.16773 15.7636 4.16986 15.7291M7.49999 15.8333C7.49999 14.9129 6.7538 14.1667 5.83332 14.1667C4.94784 14.1667 4.22364 14.8572 4.16986 15.7291" stroke="#868E96" stroke-width="1.5"/>
<path d="M8.33335 6.66675L6.66669 6.66675" stroke="#868E96" stroke-width="1.5" stroke-linecap="round" stroke-linejoin="round"/>
<path d="M8.33333 10L5 10" stroke="#868E96" stroke-width="1.5" stroke-linecap="round" stroke-linejoin="round"/>
</svg>
