<svg width="56" height="56" viewBox="0 0 56 56" fill="none" xmlns="http://www.w3.org/2000/svg">
<rect x="4" y="4" width="48" height="48" rx="24" fill="#FFEDCD"/>
<rect x="4" y="4" width="48" height="48" rx="24" stroke="#FFE3AF" stroke-width="8"/>
<path d="M18 24C18 21.7909 19.7909 20 22 20H34C36.2091 20 38 21.7909 38 24V32C38 34.2091 36.2091 36 34 36H22C19.7909 36 18 34.2091 18 32V24Z" stroke="#FDA504" stroke-width="2" stroke-linejoin="round"/>
<path d="M30 28C30 29.1046 29.1046 30 28 30C26.8954 30 26 29.1046 26 28C26 26.8954 26.8954 26 28 26C29.1046 26 30 26.8954 30 28Z" stroke="#FDA504" stroke-width="2"/>
<path d="M22.5 23.5C22.5 24.0523 22.0523 24.5 21.5 24.5C20.9477 24.5 20.5 24.0523 20.5 23.5C20.5 22.9477 20.9477 22.5 21.5 22.5C22.0523 22.5 22.5 22.9477 22.5 23.5Z" fill="#FDA504"/>
<path d="M35.5 23.5C35.5 24.0523 35.0523 24.5 34.5 24.5C33.9477 24.5 33.5 24.0523 33.5 23.5C33.5 22.9477 33.9477 22.5 34.5 22.5C35.0523 22.5 35.5 22.9477 35.5 23.5Z" fill="#FDA504"/>
<path d="M22.5 32.5C22.5 33.0523 22.0523 33.5 21.5 33.5C20.9477 33.5 20.5 33.0523 20.5 32.5C20.5 31.9477 20.9477 31.5 21.5 31.5C22.0523 31.5 22.5 31.9477 22.5 32.5Z" fill="#FDA504"/>
<path d="M35.5 32.5C35.5 33.0523 35.0523 33.5 34.5 33.5C33.9477 33.5 33.5 33.0523 33.5 32.5C33.5 31.9477 33.9477 31.5 34.5 31.5C35.0523 31.5 35.5 31.9477 35.5 32.5Z" fill="#FDA504"/>
</svg>
