<svg width="16" height="16" viewBox="0 0 16 16" fill="none" xmlns="http://www.w3.org/2000/svg">
<path d="M7.56641 6.09473H10.2357" stroke="#344054" stroke-miterlimit="10" stroke-linecap="round" stroke-linejoin="round"/>
<path d="M5.625 6.09473H5.807" stroke="#344054" stroke-miterlimit="10" stroke-linecap="round" stroke-linejoin="round"/>
<path d="M7.56641 9.37109H10.2357" stroke="#344054" stroke-miterlimit="10" stroke-linecap="round" stroke-linejoin="round"/>
<path d="M5.625 9.37109H5.807" stroke="#344054" stroke-miterlimit="10" stroke-linecap="round" stroke-linejoin="round"/>
<path d="M11.6299 13.0716L11.1446 12.829C10.8412 12.7076 10.5379 12.7076 10.2346 12.829L8.77861 13.375C8.23262 13.6176 7.62597 13.6176 7.01931 13.375L5.62401 12.829C5.32068 12.7076 4.95668 12.7076 4.71402 12.829L4.2287 13.0716C3.74337 13.3143 3.13672 12.9503 3.13672 12.3437V4.45713C3.13672 2.87983 3.98604 1.90918 5.56334 1.90918H10.2346C11.8119 1.90918 12.6612 2.87983 12.6612 4.45713V12.3437C12.7219 12.8896 12.1152 13.3143 11.6299 13.0716Z" stroke="#344054" stroke-miterlimit="10" stroke-linecap="round" stroke-linejoin="round"/>
</svg>
