<svg width="20" height="20" viewBox="0 0 20 20" fill="none" xmlns="http://www.w3.org/2000/svg">
<g clip-path="url(#clip0_15603_53149)">
<path d="M7.49999 12.5001L8.56244 13.5625C9.30613 14.3062 10.5443 14.1836 11.1277 13.3085L13.3333 10.0001M13.4836 18.3334H6.51636C4.59241 18.3334 3.03274 16.8451 3.03274 15.0091V10.9443C3.03274 10.3541 2.78705 9.78807 2.34973 9.37074C1.33649 8.40383 1.46821 6.80179 2.62708 5.99751L7.95102 2.30258C9.17256 1.4548 10.8274 1.4548 12.049 2.30258L17.3729 5.99751C18.5318 6.80179 18.6635 8.40383 17.6502 9.37074C17.2129 9.78807 16.9672 10.3541 16.9672 10.9443V15.0091C16.9672 16.8451 15.4076 18.3334 13.4836 18.3334Z" stroke="#868E96" stroke-width="1.5" stroke-linecap="round" stroke-linejoin="round"/>
</g>
<defs>
<clipPath id="clip0_15603_53149">
<rect width="20" height="20" fill="white"/>
</clipPath>
</defs>
</svg>
