<svg width="171" height="159" viewBox="0 0 171 159" fill="none" xmlns="http://www.w3.org/2000/svg">
<g clip-path="url(#clip0_15088_42762)">
<path d="M18.0832 148.759C21.3522 148.759 24.0023 146.107 24.0023 142.835C24.0023 139.563 21.3522 136.911 18.0832 136.911C14.8141 136.911 12.1641 139.563 12.1641 142.835C12.1641 146.107 14.8141 148.759 18.0832 148.759Z" fill="#34B715"/>
<path d="M36.756 159C38.9037 159 40.6448 157.258 40.6448 155.108C40.6448 152.959 38.9037 151.216 36.756 151.216C34.6083 151.216 32.8672 152.959 32.8672 155.108C32.8672 157.258 34.6083 159 36.756 159Z" fill="#34B715"/>
<path d="M6.04194 35.4864C9.37881 35.4864 12.0839 32.7792 12.0839 29.4398C12.0839 26.1003 9.37881 23.3931 6.04194 23.3931C2.70507 23.3931 0 26.1003 0 29.4398C0 32.7792 2.70507 35.4864 6.04194 35.4864Z" fill="#34B715"/>
<path d="M19.8006 18.4445C22.0162 18.4445 23.8122 16.6471 23.8122 14.4298C23.8122 12.2125 22.0162 10.415 19.8006 10.415C17.5851 10.415 15.7891 12.2125 15.7891 14.4298C15.7891 16.6471 17.5851 18.4445 19.8006 18.4445Z" fill="#34B715"/>
<path d="M166.189 32.8893C168.848 32.8893 171.003 30.7323 171.003 28.0716C171.003 25.4109 168.848 23.2539 166.189 23.2539C163.53 23.2539 161.375 25.4109 161.375 28.0716C161.375 30.7323 163.53 32.8893 166.189 32.8893Z" fill="#34B715"/>
<path d="M159.42 13.3382C162.013 10.7433 162.013 6.53604 159.42 3.94111C156.828 1.34618 152.624 1.34618 150.031 3.94111C147.438 6.53604 147.438 10.7433 150.031 13.3382C152.624 15.9331 156.828 15.9331 159.42 13.3382Z" fill="#34B715"/>
<path d="M163.112 133.442C164.493 132.06 164.493 129.819 163.112 128.437C161.731 127.054 159.491 127.054 158.11 128.437C156.729 129.819 156.729 132.06 158.11 133.442C159.491 134.825 161.731 134.825 163.112 133.442Z" fill="#34B715"/>
<path d="M142.164 153.569C144.299 151.432 144.299 147.967 142.164 145.829C140.028 143.692 136.565 143.692 134.43 145.829C132.294 147.967 132.294 151.432 134.43 153.569C136.565 155.707 140.028 155.707 142.164 153.569Z" fill="#34B715"/>
<path d="M169.119 117.405C170.743 115.78 170.743 113.144 169.119 111.519C167.495 109.893 164.862 109.893 163.238 111.519C161.614 113.144 161.614 115.78 163.238 117.405C164.862 119.03 167.495 119.03 169.119 117.405Z" fill="#34B715"/>
<path d="M86.2953 152.429C128.354 152.429 162.45 118.307 162.45 76.2145C162.45 34.1224 128.354 0 86.2953 0C44.2362 0 10.1406 34.1224 10.1406 76.2145C10.1406 118.307 44.2362 152.429 86.2953 152.429Z" fill="#34B715"/>
<g filter="url(#filter0_d_15088_42762)">
<path d="M86.2971 136.911C119.792 136.911 146.946 109.736 146.946 76.2144C146.946 42.6927 119.792 15.5181 86.2971 15.5181C52.8018 15.5181 25.6484 42.6927 25.6484 76.2144C25.6484 109.736 52.8018 136.911 86.2971 136.911Z" fill="#FFF8EE"/>
</g>
<g filter="url(#filter1_i_15088_42762)">
<path d="M117.108 55.8465C114.005 52.7413 108.97 52.7413 105.867 55.8465L77.7205 84.0152L68.6657 74.9534C65.6038 71.8891 60.618 71.7007 57.466 74.683C54.1995 77.7719 54.1503 82.9255 57.3023 86.0882L71.1464 99.9431C74.7732 103.573 80.6514 103.573 84.2782 99.9431L88.9529 95.2647L117.1 67.096C120.219 63.9907 120.219 58.9518 117.108 55.8465Z" fill="#34B715"/>
</g>
</g>
<defs>
<filter id="filter0_d_15088_42762" x="10.6484" y="0.518066" width="151.297" height="151.393" filterUnits="userSpaceOnUse" color-interpolation-filters="sRGB">
<feFlood flood-opacity="0" result="BackgroundImageFix"/>
<feColorMatrix in="SourceAlpha" type="matrix" values="0 0 0 0 0 0 0 0 0 0 0 0 0 0 0 0 0 0 127 0" result="hardAlpha"/>
<feOffset/>
<feGaussianBlur stdDeviation="7.5"/>
<feComposite in2="hardAlpha" operator="out"/>
<feColorMatrix type="matrix" values="0 0 0 0 0 0 0 0 0 0 0 0 0 0 0 0 0 0 0.25 0"/>
<feBlend mode="normal" in2="BackgroundImageFix" result="effect1_dropShadow_15088_42762"/>
<feBlend mode="normal" in="SourceGraphic" in2="effect1_dropShadow_15088_42762" result="shape"/>
</filter>
<filter id="filter1_i_15088_42762" x="54.9766" y="53.5176" width="64.4609" height="53.1479" filterUnits="userSpaceOnUse" color-interpolation-filters="sRGB">
<feFlood flood-opacity="0" result="BackgroundImageFix"/>
<feBlend mode="normal" in="SourceGraphic" in2="BackgroundImageFix" result="shape"/>
<feColorMatrix in="SourceAlpha" type="matrix" values="0 0 0 0 0 0 0 0 0 0 0 0 0 0 0 0 0 0 127 0" result="hardAlpha"/>
<feOffset dy="4"/>
<feGaussianBlur stdDeviation="2"/>
<feComposite in2="hardAlpha" operator="arithmetic" k2="-1" k3="1"/>
<feColorMatrix type="matrix" values="0 0 0 0 0 0 0 0 0 0 0 0 0 0 0 0 0 0 0.25 0"/>
<feBlend mode="normal" in2="shape" result="effect1_innerShadow_15088_42762"/>
</filter>
<clipPath id="clip0_15088_42762">
<rect width="171" height="159" fill="white"/>
</clipPath>
</defs>
</svg>
