<svg width="20" height="21" viewBox="0 0 20 21" fill="none" xmlns="http://www.w3.org/2000/svg">
<g clip-path="url(#clip0_21954_122411)">
<path d="M4.16667 3.83301H7.5L9.16667 7.99967L7.08333 9.24968C7.9758 11.0593 9.44039 12.5239 11.25 13.4163L12.5 11.333L16.6667 12.9997V16.333C16.6667 16.775 16.4911 17.199 16.1785 17.5115C15.866 17.8241 15.442 17.9997 15 17.9997C11.7494 17.8021 8.68346 16.4218 6.38069 14.119C4.07792 11.8162 2.69754 8.75029 2.5 5.49967C2.5 5.05765 2.67559 4.63372 2.98816 4.32116C3.30072 4.0086 3.72464 3.83301 4.16667 3.83301" stroke="#9A469B" stroke-width="1.5" stroke-linecap="round" stroke-linejoin="round"/>
</g>
<defs>
<clipPath id="clip0_21954_122411">
<rect width="20" height="20" fill="white" transform="translate(0 0.5)"/>
</clipPath>
</defs>
</svg>
