<svg width="27" height="27" viewBox="0 0 27 27" fill="none" xmlns="http://www.w3.org/2000/svg">
<path d="M16.5583 5.83341C17.6979 6.05574 18.7451 6.61305 19.5661 7.43401C20.387 8.25496 20.9443 9.30222 21.1667 10.4417M16.5583 1.16675C18.9258 1.42976 21.1335 2.48995 22.819 4.17326C24.5044 5.85656 25.5673 8.06293 25.8333 10.4301M24.6667 19.7401V23.2401C24.668 23.565 24.6014 23.8866 24.4713 24.1843C24.3411 24.482 24.1502 24.7493 23.9108 24.9689C23.6713 25.1886 23.3887 25.3558 23.0809 25.4599C22.7731 25.564 22.4469 25.6027 22.1233 25.5734C18.5333 25.1833 15.0848 23.9566 12.055 21.9917C9.23614 20.2005 6.84623 17.8106 5.055 14.9917C3.08331 11.9482 1.85629 8.48291 1.47334 4.87675C1.44418 4.55413 1.48252 4.22897 1.58592 3.92198C1.68932 3.61498 1.8555 3.33289 2.0739 3.09364C2.29229 2.85439 2.55811 2.66324 2.85443 2.53236C3.15074 2.40147 3.47107 2.33372 3.795 2.33341H7.295C7.86119 2.32784 8.41009 2.52834 8.83939 2.89754C9.26869 3.26673 9.54909 3.77944 9.62834 4.34008C9.77606 5.46016 10.05 6.55993 10.445 7.61841C10.602 8.03599 10.6359 8.48981 10.5429 8.92611C10.4498 9.3624 10.2337 9.76288 9.92 10.0801L8.43834 11.5617C10.0992 14.4826 12.5175 16.9009 15.4383 18.5617L16.92 17.0801C17.2372 16.7664 17.6377 16.5502 18.074 16.4572C18.5103 16.3641 18.9641 16.3981 19.3817 16.5551C20.4402 16.9501 21.5399 17.224 22.66 17.3717C23.2267 17.4517 23.7443 17.7372 24.1143 18.1738C24.4843 18.6105 24.6809 19.1679 24.6667 19.7401Z" stroke="#EF437B" stroke-width="1.5" stroke-linecap="round" stroke-linejoin="round"/>
</svg>
