<svg width="24" height="24" viewBox="0 0 24 24" fill="none" xmlns="http://www.w3.org/2000/svg">
<g clip-path="url(#clip0_22927_84012)">
<path fill-rule="evenodd" clip-rule="evenodd" d="M17.6471 18.1856C17.6471 18.4618 17.8709 18.6856 18.1471 18.6856H23.2941C23.684 18.6856 24 18.3696 24 17.9798V5.97973C24 5.5899 23.684 5.27386 23.2941 5.27386H18.1471C17.8709 5.27386 17.6471 5.49771 17.6471 5.77386V18.1856ZM19.0588 9.15622C19.0588 10.1298 19.8493 10.9209 20.8235 10.9209C21.7972 10.9209 22.5883 10.1305 22.5883 9.15622C22.5883 8.18259 21.7978 7.39152 20.8235 7.39152C19.8499 7.39152 19.0588 8.18196 19.0588 9.15622ZM18.7059 13.7411C18.7059 13.9379 18.8667 14.0974 19.0597 14.0974H22.5873C22.7828 14.0974 22.9412 13.9409 22.9412 13.7411V13.0419C22.9412 12.8451 22.7803 12.6856 22.5873 12.6856H19.0597C18.8643 12.6856 18.7059 12.8421 18.7059 13.0419V13.7411ZM19.4118 16.2117C19.4118 16.4085 19.5717 16.568 19.7637 16.568H21.8834C22.0777 16.568 22.2353 16.4115 22.2353 16.2117V15.5125C22.2353 15.3157 22.0754 15.1562 21.8834 15.1562H19.7637C19.5693 15.1562 19.4118 15.3127 19.4118 15.5125V16.2117ZM8.47059 4.21503C8.08076 4.21503 7.76472 4.53107 7.76472 4.9209V19.0386C7.76472 19.4284 8.08076 19.7444 8.47059 19.7444H15.5294C15.9192 19.7444 16.2353 19.4284 16.2353 19.0386V4.92094C16.2353 4.53111 15.9192 4.21507 15.5294 4.21507L8.47059 4.21503ZM9.88234 8.45034C9.88234 9.61865 10.8309 10.568 12 10.568C13.1683 10.568 14.1177 9.6194 14.1177 8.45034C14.1177 7.28203 13.1691 6.33269 12 6.33269C10.8317 6.33269 9.88234 7.28129 9.88234 8.45034ZM9.52942 13.7411C9.52942 13.9379 9.68821 14.0974 9.88478 14.0974H14.1153C14.3115 14.0974 14.4706 13.9409 14.4706 13.7411V13.0419C14.4706 12.8451 14.3118 12.6856 14.1153 12.6856H9.88478C9.68853 12.6856 9.52942 12.8421 9.52942 13.0419V13.7411ZM10.5883 16.2117C10.5883 16.4085 10.7481 16.568 10.9401 16.568H13.0599C13.2542 16.568 13.4118 16.4115 13.4118 16.2117V15.5125C13.4118 15.3157 13.2519 15.1562 13.0599 15.1562H10.9401C10.7458 15.1562 10.5882 15.3127 10.5882 15.5125L10.5883 16.2117ZM0.705873 5.27386C0.316043 5.27386 0 5.5899 0 5.97973V17.9797C0 18.3696 0.316043 18.6856 0.705873 18.6856H5.85294C6.12908 18.6856 6.35294 18.4617 6.35294 18.1856V5.77386C6.35294 5.49771 6.12908 5.27386 5.85294 5.27386H0.705873ZM1.41175 9.15622C1.41175 10.1298 2.20219 10.9209 3.17645 10.9209C4.15008 10.9209 4.94115 10.1305 4.94115 9.15622C4.94115 8.18259 4.15071 7.39152 3.17645 7.39152C2.20282 7.39152 1.41175 8.18196 1.41175 9.15622ZM1.05883 13.7411C1.05883 13.9379 1.21966 14.0974 1.41265 14.0974H4.94029C5.13567 14.0974 5.29411 13.9409 5.29411 13.7411V13.0419C5.29411 12.8451 5.13327 12.6856 4.94029 12.6856H1.41265C1.21726 12.6856 1.05883 12.8421 1.05883 13.0419V13.7411ZM1.7647 16.2117C1.7647 16.4085 1.92459 16.568 2.1166 16.568H4.23634C4.43066 16.568 4.58823 16.4115 4.58823 16.2117V15.5125C4.58823 15.3157 4.42834 15.1562 4.23634 15.1562H2.1166C1.92227 15.1562 1.7647 15.3127 1.7647 15.5125V16.2117Z" fill="#9A469B"/>
</g>
<defs>
<clipPath id="clip0_22927_84012">
<rect width="24" height="24" fill="white"/>
</clipPath>
</defs>
</svg>
