<svg width="23" height="24" viewBox="0 0 23 24" fill="none" xmlns="http://www.w3.org/2000/svg">
<path d="M11.2824 1.44896C11.1639 1.44466 11.0462 1.46974 10.9397 1.52198C10.8332 1.57421 10.7414 1.65197 10.6722 1.74833C10.6031 1.84469 10.5589 1.95666 10.5436 2.07424C10.5282 2.19183 10.5422 2.31139 10.5842 2.42227C11.0335 3.6578 11.1189 4.56079 10.895 5.40676C10.7054 6.12299 10.2512 6.85159 9.49676 7.68187L9.03538 7.22048C8.61097 6.79608 8.02127 6.66803 7.48744 6.78718C6.95362 6.90632 6.47563 7.27358 6.27174 7.83816L1.48008 21.0995C1.43382 21.2278 1.42504 21.3667 1.45479 21.4999C1.48453 21.633 1.55156 21.755 1.64804 21.8515C1.74452 21.948 1.86647 22.015 1.99963 22.0447C2.1328 22.0745 2.27168 22.0657 2.40004 22.0194L15.6623 17.2278V17.2287C16.7918 16.8216 17.1274 15.3143 16.279 14.4651C16.279 14.4648 16.279 14.4644 16.279 14.4641L15.813 13.9981C16.6451 13.2412 17.3753 12.7861 18.0927 12.5961C18.9387 12.3722 19.8417 12.4576 21.0772 12.9068C21.1661 12.9396 21.2605 12.9544 21.3552 12.9506C21.4498 12.9467 21.5427 12.9242 21.6286 12.8843C21.7144 12.8444 21.7916 12.7879 21.8556 12.7181C21.9196 12.6483 21.9692 12.5666 22.0015 12.4775C22.0338 12.3885 22.0482 12.294 22.0438 12.1994C22.0395 12.1048 22.0165 12.012 21.9762 11.9263C21.9359 11.8407 21.879 11.7638 21.8089 11.7001C21.7388 11.6365 21.6568 11.5873 21.5676 11.5554C20.8677 11.3009 20.2048 11.1346 19.5677 11.0716C18.9306 11.0086 18.3193 11.0488 17.724 11.2064C16.691 11.4798 15.754 12.0843 14.7891 12.9742L12.7368 10.9219C12.9467 10.8403 13.1615 10.8257 13.4742 10.8002C14.0276 10.755 14.887 10.645 15.6295 9.90269C16.3724 9.15979 16.4816 8.30099 16.527 7.74738C16.5724 7.19377 16.5536 6.94576 17.009 6.4905C17.4645 6.03522 17.7131 6.05399 18.2668 6.00853C18.8205 5.96307 19.6795 5.85302 20.4221 5.11009C20.5259 5.00905 20.5967 4.87902 20.6253 4.73705C20.6539 4.59507 20.639 4.44777 20.5824 4.31444C20.5259 4.18111 20.4303 4.06796 20.3084 3.98984C20.1865 3.91171 20.0437 3.87225 19.899 3.87661C19.7126 3.88229 19.5358 3.96014 19.4058 4.09373C18.9505 4.5492 18.7025 4.53025 18.1489 4.57571C17.5953 4.62117 16.7356 4.73152 15.9927 5.47415C15.2497 6.21681 15.1406 7.07584 15.0951 7.62946C15.0497 8.18308 15.0687 8.43084 14.6132 8.88634C14.1583 9.34103 13.9107 9.32215 13.3572 9.36738C12.922 9.40294 12.2974 9.483 11.6895 9.87462L10.5206 8.70571C11.4081 7.74242 12.0108 6.80686 12.2838 5.7755C12.5989 4.58501 12.4447 3.33175 11.9356 1.93187C11.8882 1.79489 11.8004 1.67547 11.6838 1.58929C11.5672 1.50311 11.4273 1.45419 11.2824 1.44896ZM14.8537 2.41665C14.699 2.41665 14.5441 2.47542 14.426 2.59353L14.0722 2.94729C13.836 3.18352 13.836 3.56645 14.0722 3.80268L14.426 4.15644C14.6622 4.39219 15.0452 4.39219 15.2814 4.15644L15.6351 3.80268C15.8714 3.56645 15.8714 3.18352 15.6351 2.94729L15.2814 2.59353C15.1633 2.47542 15.0083 2.41665 14.8537 2.41665ZM7.18703 3.85415C7.03238 3.85415 6.87745 3.91292 6.75933 4.03103L6.40557 4.38479C6.16934 4.62102 6.16934 5.00395 6.40557 5.24018L6.75933 5.59394C6.99556 5.82969 7.37849 5.82969 7.61472 5.59394L7.96848 5.24018C8.20471 5.00395 8.20471 4.62102 7.96848 4.38479L7.61472 4.03103C7.49661 3.91292 7.34168 3.85415 7.18703 3.85415ZM4.31203 6.0104C4.15738 6.0104 4.00245 6.06917 3.88433 6.18728L3.53057 6.54104C3.29435 6.77727 3.29435 7.1602 3.53057 7.39643L3.88433 7.75019C4.12056 7.98594 4.50349 7.98594 4.73972 7.75019L5.09348 7.39643C5.32971 7.1602 5.32971 6.77727 5.09348 6.54104L4.73972 6.18728C4.62161 6.06917 4.46668 6.0104 4.31203 6.0104ZM7.79347 8.15542C7.86556 8.13933 7.94607 8.16577 8.01808 8.23778C8.01839 8.23778 8.01871 8.23778 8.01902 8.23778L15.2627 15.4814C15.4062 15.6259 15.3663 15.8064 15.1747 15.8754C15.1744 15.8757 15.1741 15.8761 15.1738 15.8764L3.35182 20.1477L7.62314 8.32575C7.65788 8.22956 7.72139 8.17152 7.79347 8.15542ZM19.1662 8.16665C19.0115 8.16665 18.8566 8.22542 18.7385 8.34353L18.3847 8.69729C18.1485 8.93352 18.1485 9.31645 18.3847 9.55268L18.7385 9.90644C18.9747 10.1422 19.3577 10.1422 19.5939 9.90644L19.9476 9.55268C20.1839 9.31645 20.1839 8.93352 19.9476 8.69729L19.5939 8.34353C19.4758 8.22542 19.3208 8.16665 19.1662 8.16665ZM19.1662 14.3958C19.0115 14.3958 18.8566 14.4546 18.7385 14.5727L18.3847 14.9265C18.1485 15.1627 18.1485 15.5456 18.3847 15.7818L18.7385 16.1356C18.9747 16.3714 19.3577 16.3714 19.5939 16.1356L19.9476 15.7818C20.1839 15.5456 20.1839 15.1627 19.9476 14.9265L19.5939 14.5727C19.4758 14.4546 19.3208 14.3958 19.1662 14.3958ZM17.7287 17.75C17.574 17.75 17.4191 17.8088 17.301 17.9269L16.9472 18.2806C16.711 18.5169 16.711 18.8998 16.9472 19.136L17.301 19.4898C17.5372 19.7255 17.9202 19.7255 18.1564 19.4898L18.5101 19.136C18.7464 18.8998 18.7464 18.5169 18.5101 18.2806L18.1564 17.9269C18.0383 17.8088 17.8833 17.75 17.7287 17.75Z" fill="#EF437B"/>
</svg>
