<svg width="343" height="343" viewBox="0 0 343 343" fill="none" xmlns="http://www.w3.org/2000/svg">
<path d="M299.147 194.518C303.046 187.123 305.269 178.72 305.269 169.785C305.269 147.075 291 127.74 270.969 120.128C270.969 120.101 270.969 120.074 270.969 120.05C270.969 80.2684 238.72 48.0195 198.939 48.0195C165.377 48.0195 137.268 70.9971 129.266 102.069C124.203 100.406 118.804 99.4695 113.189 99.4695C86.809 99.4695 65.0902 119.34 62.113 144.931C44.2667 148.697 30.8691 164.533 30.8691 183.505C30.8691 205.292 48.5268 222.95 70.3141 222.95C70.9178 222.95 71.5215 222.908 72.1218 222.871C72.108 223.471 72.0291 224.061 72.0291 224.665C72.0291 263.492 103.517 294.98 142.344 294.98C164.423 294.98 184.108 284.782 196.998 268.867C204.472 276.488 214.858 281.26 226.379 281.26C242.322 281.26 256.138 272.177 262.957 258.896C266.575 260.048 270.407 260.68 274.399 260.68C295.233 260.68 312.129 243.783 312.129 222.95C312.129 211.586 307.09 201.433 299.147 194.518Z" fill="#C7EDE6"/>
<path d="M233.24 123.48H213.517C204.997 126.052 198.082 119.137 198.082 110.617C198.082 102.618 204.191 96.1083 211.991 95.3434C211.912 94.7123 211.802 94.112 211.802 93.4672C211.802 84.9471 218.717 78.0322 227.237 78.0322C232.166 78.0322 236.508 80.392 239.335 83.9798C239.818 74.9486 247.227 67.7422 256.392 67.7422C265.866 67.7422 273.542 75.4185 273.542 84.8922C273.542 86.4185 273.274 87.8797 272.897 89.286C275.096 86.6209 278.392 84.8922 282.117 84.8922C288.226 84.8922 293.21 89.4747 293.961 95.3708C294.592 95.2919 295.192 95.1822 295.837 95.1822C304.357 95.1822 311.272 102.097 311.272 110.617C311.272 119.137 304.357 126.052 295.837 123.48H243.53V126.91H233.24V123.48Z" fill="#FDFCEF"/>
<path d="M255.536 65.1699C265.932 65.1699 274.401 73.6386 274.401 84.0349C274.401 84.0898 274.401 84.1413 274.401 84.1961C276.466 82.9751 278.822 82.3199 281.261 82.3199C287.544 82.3199 292.957 86.6486 294.497 92.6236C294.658 92.6236 294.819 92.6099 294.981 92.6099C305.607 92.6099 314.021 102.337 311.771 113.351C310.121 121.415 302.537 126.91 294.312 126.91H243.959C243.009 126.91 242.244 126.145 242.244 125.195C242.244 124.245 243.009 123.48 243.959 123.48H294.446C301.024 123.48 307.095 119.086 308.406 112.627C310.2 103.812 303.487 96.0399 294.981 96.0399C294.579 96.0399 294.192 96.0948 293.801 96.1463L293.317 96.2149C293.249 96.2286 293.183 96.2286 293.101 96.2286C292.257 96.2286 291.52 95.5975 291.413 94.7262C290.762 89.6087 286.392 85.7499 281.261 85.7499C278.218 85.7499 275.351 87.1288 273.368 89.5298C273.032 89.9311 272.538 90.1472 272.041 90.1472C271.773 90.1472 271.506 90.0923 271.262 89.9585C270.539 89.5847 270.178 88.7649 270.391 87.9897C270.94 85.9386 271.074 84.3333 270.888 82.6835C270.072 75.381 264.176 69.2722 256.86 68.6548C248.11 67.9174 240.646 74.5784 240.193 83.2186C240.152 83.9286 239.686 84.546 239 84.7587C238.825 84.8135 238.65 84.8375 238.478 84.8375C237.957 84.8375 237.46 84.6112 237.123 84.1824C234.486 80.8176 230.576 78.8899 226.381 78.8899C218.811 78.8899 212.661 85.0399 212.661 92.6099C212.661 93.0112 212.716 93.3988 212.767 93.7898L212.836 94.2735C212.891 94.7297 212.757 95.1996 212.475 95.546C212.181 95.9062 211.765 96.136 211.309 96.1908C203.242 96.9935 197.442 104.526 199.291 112.871C200.683 119.234 206.737 123.48 213.251 123.48H233.669C234.62 123.48 235.384 124.245 235.384 125.195C235.384 126.145 234.62 126.91 233.669 126.91H213.302C204.833 126.91 197.157 121.069 195.751 112.72C194.17 103.233 200.361 94.8051 209.244 93.025C209.231 92.8912 209.231 92.7437 209.231 92.6099C209.231 83.15 216.921 75.4599 226.381 75.4599C230.414 75.4599 234.246 76.8799 237.302 79.4524C239.35 71.2136 246.772 65.1699 255.536 65.1699Z" fill="#472B29"/>
<path d="M258.108 90.0371C262.916 90.0371 267.056 93.4671 268.103 98.0633C269.361 97.2984 270.795 96.8971 272.256 96.8971C276.383 96.8971 279.799 99.9772 280.324 103.983C281.02 103.836 281.689 103.757 282.334 103.757C287.585 103.757 291.982 107.87 292.342 113.121C292.37 113.605 292.02 114.006 291.553 114.047C291.526 114.047 291.512 114.047 291.485 114.047C291.042 114.047 290.669 113.697 290.627 113.244C290.332 108.888 286.69 105.472 282.334 105.472C281.555 105.472 280.725 105.606 279.802 105.901C279.734 105.928 279.655 105.942 279.576 105.942C279.387 105.942 279.202 105.873 279.041 105.753C278.825 105.592 278.691 105.311 278.691 105.03C278.691 101.493 275.81 98.5984 272.26 98.5984C270.733 98.5984 269.217 99.1746 268.041 100.234C267.88 100.368 267.681 100.451 267.478 100.451C267.358 100.451 267.252 100.423 267.156 100.382C266.847 100.262 266.648 99.9807 266.621 99.6583C266.271 95.2233 262.536 91.7384 258.125 91.7384C257.401 91.7384 256.663 91.8584 255.779 92.1123C255.7 92.1397 255.617 92.1397 255.538 92.1397C255.165 92.1397 254.828 91.8996 254.722 91.5223C254.588 91.0661 254.856 90.5859 255.312 90.4624C256.338 90.1709 257.223 90.0371 258.108 90.0371ZM210.489 95.1821C215.03 95.1821 219.091 98.2622 220.35 102.673C220.47 103.129 220.216 103.599 219.76 103.733C219.681 103.747 219.599 103.761 219.52 103.761C219.146 103.761 218.81 103.52 218.704 103.143C217.658 99.4593 214.282 96.9005 210.489 96.9005C210.088 96.9005 209.7 96.9554 209.323 97.0069C209.281 97.0069 209.244 97.0069 209.203 97.0069C208.788 97.0069 208.414 96.6982 208.359 96.2694C208.29 95.7995 208.613 95.3708 209.096 95.3056C209.552 95.237 210.009 95.1821 210.489 95.1821Z" fill="#472B29"/>
<path d="M155.743 78.89H121.766C120.816 78.89 120.051 78.1251 120.051 77.175C120.051 76.2249 120.816 75.46 121.766 75.46H155.743C156.68 75.46 157.458 76.2249 157.458 77.175C157.458 78.1251 156.697 78.89 155.743 78.89Z" fill="white"/>
<path d="M166.356 78.89H162.926C161.976 78.89 161.211 78.1251 161.211 77.175C161.211 76.2249 161.976 75.46 162.926 75.46H166.356C167.306 75.46 168.071 76.2249 168.071 77.175C168.071 78.1251 167.306 78.89 166.356 78.89Z" fill="white"/>
<path d="M183.477 85.7503H152.635C151.685 85.7503 150.92 84.9854 150.92 84.0353C150.92 83.0852 151.685 82.3203 152.635 82.3203H183.477C184.414 82.3203 185.192 83.0852 185.192 84.0353C185.192 84.9854 184.417 85.7503 183.477 85.7503Z" fill="white"/>
<path d="M145.776 85.7503H142.346C141.396 85.7503 140.631 84.9854 140.631 84.0353C140.631 83.0852 141.396 82.3203 142.346 82.3203H145.776C146.726 82.3203 147.491 83.0852 147.491 84.0353C147.491 84.9854 146.726 85.7503 145.776 85.7503Z" fill="white"/>
<path d="M135.485 85.7503H128.625C127.675 85.7503 126.91 84.9854 126.91 84.0353C126.91 83.0852 127.675 82.3203 128.625 82.3203H135.485C136.435 82.3203 137.2 83.0852 137.2 84.0353C137.2 84.9854 136.435 85.7503 135.485 85.7503Z" fill="white"/>
<path d="M156.065 92.6097H149.205C148.255 92.6097 147.49 91.8448 147.49 90.8947C147.49 89.9446 148.255 89.1797 149.205 89.1797H156.065C157.015 89.1797 157.78 89.9446 157.78 90.8947C157.78 91.8448 157.015 92.6097 156.065 92.6097Z" fill="white"/>
<path d="M166.356 61.7402C165.752 61.7402 163.53 61.7402 162.926 61.7402C161.976 61.7402 161.211 62.5051 161.211 63.4552C161.211 64.4053 161.976 65.1702 162.926 65.1702C163.53 65.1702 165.752 65.1702 166.356 65.1702C167.306 65.1702 168.071 64.4053 168.071 63.4552C168.071 62.5051 167.306 61.7402 166.356 61.7402Z" fill="white"/>
<path d="M166.355 68.5996C165.752 68.5996 149.809 68.5996 149.205 68.5996C148.255 68.5996 147.49 69.3645 147.49 70.3146C147.49 71.2647 148.255 72.0296 149.205 72.0296C149.809 72.0296 165.752 72.0296 166.355 72.0296C167.305 72.0296 168.07 71.2647 168.07 70.3146C168.07 69.3645 167.305 68.5996 166.355 68.5996Z" fill="white"/>
<path d="M183.505 75.46C182.901 75.46 173.819 75.46 173.215 75.46C172.265 75.46 171.5 76.2249 171.5 77.175C171.5 78.1251 172.265 78.89 173.215 78.89C173.819 78.89 182.901 78.89 183.505 78.89C184.455 78.89 185.22 78.1251 185.22 77.175C185.22 76.2249 184.455 75.46 183.505 75.46Z" fill="white"/>
<path d="M305.271 212.66H270.971C270.021 212.66 269.256 211.896 269.256 210.945C269.256 209.995 270.021 209.23 270.971 209.23H305.271C306.221 209.23 306.986 209.995 306.986 210.945C306.986 211.896 306.221 212.66 305.271 212.66Z" fill="white"/>
<path d="M318.989 212.66H312.129C311.179 212.66 310.414 211.896 310.414 210.945C310.414 209.995 311.179 209.23 312.129 209.23H318.989C319.939 209.23 320.704 209.995 320.704 210.945C320.704 211.896 319.939 212.66 318.989 212.66Z" fill="white"/>
<path d="M336.14 219.52H301.84C300.89 219.52 300.125 218.755 300.125 217.805C300.125 216.855 300.89 216.09 301.84 216.09H336.14C337.09 216.09 337.855 216.855 337.855 217.805C337.855 218.755 337.09 219.52 336.14 219.52Z" fill="white"/>
<path d="M294.981 219.52H291.551C290.601 219.52 289.836 218.755 289.836 217.805C289.836 216.855 290.601 216.09 291.551 216.09H294.981C295.931 216.09 296.696 216.855 296.696 217.805C296.696 218.755 295.931 219.52 294.981 219.52Z" fill="white"/>
<path d="M284.261 219.52H277.83C276.88 219.52 276.115 218.755 276.115 217.805C276.115 216.855 276.88 216.09 277.83 216.09H284.261C285.212 216.09 285.976 216.855 285.976 217.805C285.976 218.755 285.212 219.52 284.261 219.52Z" fill="white"/>
<path d="M315.56 205.8H298.41C297.46 205.8 296.695 205.035 296.695 204.085C296.695 203.135 297.46 202.37 298.41 202.37H315.56C316.51 202.37 317.275 203.135 317.275 204.085C317.275 205.035 316.51 205.8 315.56 205.8Z" fill="white"/>
<path d="M305.27 226.38H298.41C297.46 226.38 296.695 225.615 296.695 224.665C296.695 223.715 297.46 222.95 298.41 222.95H305.27C306.22 222.95 306.985 223.715 306.985 224.665C306.985 225.615 306.22 226.38 305.27 226.38Z" fill="white"/>
<path d="M176.646 240.717C172.156 240.717 167.882 239.016 164.613 235.932C162.401 233.857 159.643 232.715 156.827 232.715H101.254C97.8106 232.715 95.0117 229.916 95.0117 226.472V127.699C95.0117 124.255 97.8106 121.47 101.254 121.47H252.037C255.481 121.47 258.28 124.258 258.28 127.699V226.472C258.28 229.916 255.481 232.715 252.037 232.715H196.461C193.648 232.715 190.887 233.854 188.675 235.932C185.409 239.016 181.136 240.717 176.646 240.717Z" fill="#EA5167"/>
<path d="M252.036 123.867C254.152 123.867 255.881 125.582 255.881 127.699V226.472C255.881 228.589 254.152 230.304 252.036 230.304H196.459C193.029 230.304 189.678 231.683 187.027 234.19C184.201 236.841 180.517 238.316 176.644 238.316C172.772 238.316 169.088 236.855 166.262 234.19C163.61 231.686 160.259 230.304 156.829 230.304H101.253C99.1367 230.304 97.4079 228.589 97.4079 226.472V127.699C97.4079 125.582 99.1367 123.867 101.253 123.867H252.036ZM252.036 119.072H101.253C96.4818 119.072 92.6094 122.931 92.6094 127.702V226.476C92.6094 231.247 96.4818 235.119 101.253 235.119H156.829C159.134 235.119 161.292 236.111 162.966 237.692C166.543 241.053 171.338 243.118 176.644 243.118C181.951 243.118 186.746 241.053 190.323 237.692C191.997 236.111 194.155 235.119 196.459 235.119H252.036C256.807 235.119 260.679 231.247 260.679 226.476V127.699C260.679 122.931 256.807 119.072 252.036 119.072Z" fill="#472B29"/>
<path d="M176.646 211.106C170.012 211.106 164.641 216.478 164.641 223.111C164.641 229.745 170.012 235.116 176.646 235.116C183.279 235.116 188.651 229.745 188.651 223.111C188.651 216.478 183.279 211.106 176.646 211.106Z" fill="#472B29"/>
<path d="M104.521 220.713V127.527L110.027 113.66C111.059 111.046 113.563 109.372 116.43 109.372C140.468 109.413 161.676 113.714 174.62 121.151L175.183 121.473H178.05L178.558 121.206C192.439 114.105 214.103 109.698 236.518 109.413C239.626 109.413 242.294 111.207 243.406 113.982L248.767 127.527V220.713H104.521Z" fill="#FFFEF4"/>
<path d="M116.417 106.972L116.431 111.767C139.704 111.808 161.007 116.095 173.427 123.223L174.539 123.868H178.624L179.656 123.346C193.215 116.394 214.491 112.093 236.601 111.811C238.639 111.811 240.432 113.019 241.17 114.868L246.356 127.984V218.303H106.933V127.98L112.253 114.542C112.922 112.854 114.558 111.767 116.421 111.767L116.417 106.972ZM116.417 106.972C112.627 106.972 109.197 109.235 107.787 112.772L102.121 127.068V223.108H251.165V127.068L245.632 113.094C244.157 109.397 240.58 107.013 236.601 107.013C236.56 107.013 236.522 107.013 236.481 107.013C215.754 107.267 192.923 111.153 177.461 119.073H175.815C160.997 110.553 137.735 107.013 116.445 106.975C116.431 106.972 116.431 106.972 116.417 106.972Z" fill="#472B29"/>
<path d="M239.256 207.031L176.751 210.101L114.034 207.031L107.469 218.367H245.821L239.256 207.031Z" fill="#BEBACB"/>
<path d="M176.645 212.821C176.243 212.821 175.856 212.687 175.533 212.42C175.142 212.084 174.93 211.6 174.93 211.106V174.059C174.93 173.122 175.695 172.344 176.645 172.344C177.595 172.344 178.36 173.122 178.36 174.059V209.096C196.381 206.256 218.007 204.942 238.344 205.412V109.935C238.344 108.985 239.122 108.22 240.059 108.22C241.009 108.22 241.774 108.985 241.774 109.935V207.182C241.774 207.638 241.585 208.094 241.266 208.413C240.93 208.736 240.477 208.911 240.021 208.897C218.624 208.266 195.633 209.7 176.926 212.797C176.833 212.821 176.737 212.821 176.645 212.821Z" fill="#472B29"/>
<path d="M176.645 213.49C176.552 213.49 176.456 213.49 176.363 213.462C157.646 210.327 134.654 208.894 113.268 209.511C112.798 209.456 112.356 209.35 112.023 209.027C111.687 208.705 111.502 208.263 111.502 207.796V109.935C111.502 108.985 112.281 108.22 113.217 108.22C114.167 108.22 114.932 108.985 114.932 109.935V206.043C135.258 205.536 156.895 206.887 174.93 209.768V191.212C174.93 190.276 175.694 189.497 176.645 189.497C177.595 189.497 178.36 190.276 178.36 191.212V211.778C178.36 212.286 178.143 212.77 177.756 213.092C177.433 213.356 177.046 213.49 176.645 213.49Z" fill="#472B29"/>
<path d="M79.7483 258.965C79.7483 258.965 74.3769 258.965 67.7433 258.965C61.1097 258.965 55.7383 253.594 55.7383 246.96C55.7383 240.851 60.3208 235.867 66.2169 235.116C66.1243 234.499 66.0283 233.885 66.0283 233.24C66.0283 226.606 71.3997 221.235 78.0333 221.235C81.5696 221.235 84.7184 222.789 86.917 225.228C88.2307 219.023 93.7358 214.375 100.328 214.375C107.912 214.375 114.048 220.511 114.048 228.095C114.048 228.75 113.942 229.381 113.86 230.012C115.321 228.832 117.17 228.095 119.193 228.095C123.402 228.095 126.897 231.137 127.607 235.144C128.224 235.051 128.838 234.955 129.483 234.955C136.117 234.955 141.488 240.326 141.488 246.96C141.488 253.594 136.117 258.965 129.483 258.965C122.85 258.965 103.758 258.965 103.758 258.965V260.68H79.7483V258.965Z" fill="#FDFCEF"/>
<path d="M73.7446 243.53C74.2145 243.53 74.6021 243.143 74.6021 242.673C74.6021 238.478 71.1858 235.062 66.9909 235.062C66.8709 235.089 64.4733 235.062 62.7308 235.531C62.2747 235.651 61.9934 236.121 62.1272 236.578C62.2472 237.047 62.7171 237.315 63.1733 237.181C64.6997 236.78 66.9532 236.78 66.9909 236.78C70.246 236.78 72.8871 239.431 72.8871 242.676C72.8871 243.143 73.2747 243.53 73.7446 243.53ZM96.8971 257.25C95.947 257.25 95.1821 258.015 95.1821 258.965C95.1821 259.915 95.947 260.68 96.8971 260.68C97.8472 260.68 98.6121 259.915 98.6121 258.965C98.6121 258.015 97.8472 257.25 96.8971 257.25Z" fill="#472B29"/>
<path d="M67.7434 260.68H79.7484C80.6985 260.68 81.4634 259.915 81.4634 258.965C81.4634 258.015 80.6985 257.25 79.7484 257.25H67.7434C62.0771 257.25 57.4534 252.627 57.4534 246.96C57.4534 241.829 61.3122 237.459 66.4297 236.804C66.8997 236.749 67.301 236.509 67.5822 236.135C67.8635 235.775 67.9835 235.305 67.9047 234.849C67.8223 234.31 67.7434 233.789 67.7434 233.24C67.7434 227.574 72.3671 222.95 78.0334 222.95C80.9558 222.95 83.6483 224.168 85.6446 226.38C86.0734 226.864 86.7422 227.063 87.3596 226.888C87.9907 226.713 88.4572 226.219 88.591 225.588C89.7709 220.083 94.6998 216.09 100.328 216.09C106.948 216.09 112.333 221.475 112.333 228.095C112.333 228.593 112.265 229.059 112.2 229.529C112.093 230.225 112.416 231.031 113.016 231.378C113.633 231.728 114.381 231.779 114.933 231.35C116.178 230.345 117.653 229.81 119.193 229.81C122.503 229.81 125.343 232.18 125.933 235.452C126.095 236.365 126.938 236.979 127.875 236.845C128.41 236.749 128.935 236.67 129.483 236.67C135.15 236.67 139.773 241.294 139.773 246.96C139.773 252.627 135.15 257.25 129.483 257.25H103.758C102.808 257.25 102.043 258.015 102.043 258.965C102.043 259.915 102.808 260.68 103.758 260.68H129.483C137.053 260.68 143.203 254.53 143.203 246.96C143.203 239.39 137.053 233.24 129.483 233.24C129.281 233.24 129.082 233.254 128.88 233.268C127.46 229.193 123.615 226.38 119.193 226.38C118 226.38 116.834 226.596 115.722 226.998C115.16 218.999 108.475 212.66 100.328 212.66C94.0447 212.66 88.4435 216.533 86.0871 222.172C83.7547 220.47 80.9284 219.52 78.0334 219.52C70.4634 219.52 64.3134 225.67 64.3134 233.24C64.3134 233.401 64.3134 233.563 64.3272 233.724C58.3521 235.264 54.0234 240.676 54.0234 246.96C54.0234 254.53 60.1734 260.68 67.7434 260.68Z" fill="#472B29"/>
<path d="M86.6076 257.25C87.1564 257.25 89.4888 257.25 90.0376 257.25C90.9877 257.25 91.7526 258.015 91.7526 258.965C91.7526 259.915 90.9877 260.68 90.0376 260.68C89.4888 260.68 87.1564 260.68 86.6076 260.68C85.6575 260.68 84.8926 259.915 84.8926 258.965C84.8926 258.015 85.6575 257.25 86.6076 257.25Z" fill="#472B29"/>
<path d="M174.93 123.48V145.775C174.93 146.726 175.695 147.49 176.645 147.49C177.595 147.49 178.36 146.726 178.36 145.775V123.48H174.93Z" fill="#472B29"/>
<path d="M169.785 129.482C169.655 129.482 169.524 129.451 169.401 129.393C161.416 125.4 151.496 122.495 139.913 120.753C139.443 120.681 139.124 120.249 139.193 119.779C139.261 119.305 139.694 118.969 140.167 119.058C151.928 120.828 162.023 123.785 170.169 127.856C170.595 128.069 170.763 128.583 170.553 129.005C170.402 129.307 170.097 129.482 169.785 129.482Z" fill="#472B29"/>
<path d="M169.786 201.512C169.724 201.512 169.662 201.505 169.597 201.492C154.388 198.082 140.703 198.082 121.766 198.082C121.292 198.082 120.908 197.698 120.908 197.225C120.908 196.751 121.292 196.367 121.766 196.367C140.816 196.367 154.577 196.367 169.974 199.818C170.437 199.921 170.726 200.38 170.623 200.843C170.533 201.241 170.18 201.512 169.786 201.512Z" fill="#472B29"/>
<path d="M121.766 132.913C121.292 132.913 120.908 132.528 120.908 132.055V118.335C120.908 117.862 121.292 117.478 121.766 117.478C121.817 117.478 126.849 117.488 134.083 118.27C134.553 118.325 134.896 118.747 134.844 119.217C134.793 119.686 134.333 120.009 133.901 119.978C128.488 119.388 124.338 119.241 122.623 119.203V132.055C122.623 132.528 122.239 132.913 121.766 132.913Z" fill="#472B29"/>
<path d="M121.766 167.212C121.292 167.212 120.908 166.828 120.908 166.355V142.345C120.908 141.871 121.292 141.487 121.766 141.487C122.239 141.487 122.623 141.871 122.623 142.345V166.355C122.623 166.828 122.239 167.212 121.766 167.212Z" fill="#472B29"/>
<path d="M121.766 198.082C121.292 198.082 120.908 197.698 120.908 197.225V186.935C120.908 186.461 121.292 186.077 121.766 186.077C122.239 186.077 122.623 186.461 122.623 186.935V197.225C122.623 197.698 122.239 198.082 121.766 198.082Z" fill="#472B29"/>
<path d="M183.504 129.483C183.192 129.483 182.887 129.308 182.736 129.006C182.523 128.584 182.695 128.069 183.12 127.857C191.026 123.905 201.68 120.781 213.122 119.059C213.599 119.001 214.028 119.309 214.096 119.779C214.168 120.249 213.846 120.685 213.376 120.753C202.108 122.451 191.637 125.518 183.888 129.393C183.765 129.452 183.634 129.483 183.504 129.483Z" fill="#472B29"/>
<path d="M186.936 201.513C186.541 201.513 186.188 201.242 186.099 200.844C185.996 200.381 186.287 199.921 186.747 199.819C190.342 199.016 193.871 198.385 197.541 197.894C198.001 197.86 198.443 198.158 198.505 198.632C198.57 199.102 198.238 199.534 197.771 199.596C194.149 200.079 190.668 200.697 187.124 201.492C187.059 201.506 186.997 201.513 186.936 201.513Z" fill="#472B29"/>
<path d="M231.525 132.912C231.052 132.912 230.668 132.528 230.668 132.055V119.206C228.953 119.243 224.802 119.391 219.39 119.981C218.961 120.022 218.498 119.689 218.447 119.219C218.395 118.746 218.735 118.324 219.208 118.273C226.442 117.487 231.477 117.48 231.525 117.48C231.998 117.48 232.383 117.865 232.383 118.338V132.058C232.383 132.528 231.998 132.912 231.525 132.912Z" fill="#472B29"/>
<path d="M231.525 170.643C231.052 170.643 230.668 170.259 230.668 169.785V145.775C230.668 145.302 231.052 144.918 231.525 144.918C231.999 144.918 232.383 145.302 232.383 145.775V169.785C232.383 170.259 231.999 170.643 231.525 170.643Z" fill="#472B29"/>
</svg>
