<svg width="22" height="20" viewBox="0 0 22 20" fill="none" xmlns="http://www.w3.org/2000/svg">
<path d="M9 7.25C8.58579 7.25 8.25 7.58579 8.25 8C8.25 8.4142 8.58579 8.75 9 8.75V7.25ZM6.25 6C6.25 6.41421 6.58579 6.75 7 6.75C7.41421 6.75 7.75 6.41421 7.75 6H6.25ZM8.77778 1.75H9.8889V0.25H8.77778V1.75ZM1.75 12.25V8.875H0.25V12.25H1.75ZM0.25 12.25C0.25 13.898 1.57195 15.25 3.22222 15.25V13.75C2.41789 13.75 1.75 13.0872 1.75 12.25H0.25ZM15.8056 7.75C15.8056 11.0725 13.1478 13.75 9.8889 13.75V15.25C13.9938 15.25 17.3056 11.8833 17.3056 7.75H15.8056ZM8.77778 0.25C4.05926 0.25 0.25 4.12036 0.25 8.875H1.75C1.75 4.93116 4.9052 1.75 8.77778 1.75V0.25ZM21.75 16.75V13.375H20.25V16.75H21.75ZM12.1111 19.75H18.7778V18.25H12.1111V19.75ZM20.25 16.75C20.25 17.5872 19.5821 18.25 18.7778 18.25V19.75C20.428 19.75 21.75 18.398 21.75 16.75H20.25ZM16.0653 6.85694C18.528 7.96287 20.25 10.4631 20.25 13.375H21.75C21.75 9.8592 19.6691 6.83102 16.6798 5.48858L16.0653 6.85694ZM9.8889 1.75C12.6728 1.75 15.018 3.70302 15.6427 6.34532L17.1025 6.00019C16.3242 2.70829 13.3959 0.25 9.8889 0.25V1.75ZM15.6427 6.34532C15.749 6.79515 15.8056 7.26538 15.8056 7.75H17.3056C17.3056 7.14839 17.2354 6.56235 17.1025 6.00019L15.6427 6.34532ZM5.1157 14.7472C6.13109 17.6559 8.87481 19.75 12.1111 19.75V18.25C9.542 18.25 7.34688 16.5875 6.53189 14.2528L5.1157 14.7472ZM9.8889 13.75H5.82379V15.25H9.8889V13.75ZM5.82379 13.75H3.22222V15.25H5.82379V13.75ZM10.25 6C10.25 6.69036 9.6904 7.25 9 7.25V8.75C10.5188 8.75 11.75 7.51878 11.75 6H10.25ZM7.75 6C7.75 5.30964 8.30964 4.75 9 4.75V3.25C7.48122 3.25 6.25 4.48122 6.25 6H7.75ZM9 4.75C9.6904 4.75 10.25 5.30964 10.25 6H11.75C11.75 4.48122 10.5188 3.25 9 3.25V4.75Z" fill="white"/>
<path d="M10 11C10 11.5523 9.5523 12 9 12C8.44772 12 8 11.5523 8 11C8 10.4477 8.44772 10 9 10C9.5523 10 10 10.4477 10 11Z" fill="white"/>
</svg>
