<svg width="35" height="39" viewBox="0 0 35 39" fill="none" xmlns="http://www.w3.org/2000/svg">
<path d="M20.9296 0.599609H0.601562V37.3996H19.0016V37.3196C18.5856 36.8556 18.2096 36.3436 17.8976 35.7996H2.20156V2.19961H19.8016V10.1996H27.8016V18.9996H29.4016V9.07161L20.9296 0.599609ZM21.4016 8.59961V3.32761L26.6736 8.59961H21.4016ZM11.0016 18.1996H6.20156V13.3996H11.0016V18.1996ZM7.80156 16.5996H9.40156V14.9996H7.80156V16.5996ZM11.0016 24.5996H6.20156V19.7996H11.0016V24.5996ZM7.80156 22.9996H9.40156V21.3996H7.80156V22.9996ZM11.0016 30.9996H6.20156V26.1996H11.0016V30.9996ZM7.80156 29.3996H9.40156V27.7996H7.80156V29.3996ZM23.8016 16.5996H12.6016V14.9996H23.8016V16.5996ZM12.6016 27.7996H17.1536C16.9696 28.3116 16.8256 28.8476 16.7376 29.3996H12.6016V27.7996ZM23.0016 21.3996V21.9596C22.2656 22.2156 21.5696 22.5676 20.9216 22.9996H12.6016V21.3996H23.0016ZM27.0016 23.0396V22.1996H27.8016V20.5996H24.6016V22.1996H25.4016V23.0396C21.3696 23.4396 18.2016 26.8636 18.2016 30.9996C18.2016 35.4076 21.7936 38.9996 26.2016 38.9996C30.6096 38.9996 34.2016 35.4076 34.2016 30.9996C34.2016 26.8636 31.0336 23.4396 27.0016 23.0396ZM26.2016 37.3996C22.6736 37.3996 19.8016 34.5276 19.8016 30.9996C19.8016 27.4716 22.6736 24.5996 26.2016 24.5996C29.7296 24.5996 32.6016 27.4716 32.6016 30.9996C32.6016 34.5276 29.7296 37.3996 26.2016 37.3996ZM33.636 25.9084L31.3736 23.646L32.5048 22.5148L34.7672 24.7772L33.636 25.9084ZM23.4816 34.0396L22.5216 32.7596L25.4016 30.5996V26.1996H27.0016V31.3996L23.4816 34.0396Z" fill="#EF437B"/>
</svg>
