<svg width="19" height="20" viewBox="0 0 19 20" fill="none" xmlns="http://www.w3.org/2000/svg">
<path d="M9.5 0C8.196 0 7.09659 0.837 6.68359 2H2.5C1.395 2 0.5 2.895 0.5 4V18C0.5 19.105 1.395 20 2.5 20H16.5C17.605 20 18.5 19.105 18.5 18V4C18.5 2.895 17.605 2 16.5 2H12.3164C11.9034 0.837 10.804 0 9.5 0ZM9.5 2C10.052 2 10.5 2.448 10.5 3C10.5 3.552 10.052 4 9.5 4H16.5V18H2.5V4H9.5C8.948 4 8.5 3.552 8.5 3C8.5 2.448 8.948 2 9.5 2ZM12.793 7.29297L8.5 11.5859L6.20703 9.29297L4.79297 10.707L8.5 14.4141L14.207 8.70703L12.793 7.29297Z" fill="#9A469B"/>
</svg>
