<svg width="16" height="16" viewBox="0 0 16 16" fill="none" xmlns="http://www.w3.org/2000/svg">
<path d="M6.68822 2.1811C7.22467 1.05096 8.77467 1.05096 9.31113 2.1811L10.2383 4.13428C10.4513 4.58306 10.8631 4.89412 11.3394 4.96609L13.4126 5.27929C14.6121 5.46052 15.0911 6.99319 14.2231 7.87288L12.723 9.39322C12.3783 9.74255 12.221 10.2459 12.3023 10.7391L12.6565 12.8859C12.8614 14.128 11.6074 15.0753 10.5345 14.4888L8.68023 13.4752C8.25417 13.2423 7.74518 13.2423 7.31912 13.4752L5.46485 14.4888C4.39194 15.0753 3.13796 14.128 3.34287 12.8859L3.697 10.7391C3.77837 10.2459 3.62108 9.74255 3.2764 9.39322L1.77626 7.87289C0.908252 6.99319 1.38723 5.46052 2.58678 5.27929L4.65992 4.96609C5.13627 4.89412 5.54805 4.58306 5.76108 4.13428L6.68822 2.1811Z" fill="#FDA504"/>
</svg>
