<svg width="16" height="17" viewBox="0 0 16 17" fill="none" xmlns="http://www.w3.org/2000/svg">
<path d="M8.00279 2.16651C7.90934 2.16593 7.8176 2.19154 7.73797 2.24045C7.65834 2.28936 7.59401 2.3596 7.55227 2.44321L5.83482 5.8781L1.7567 6.50571C1.66541 6.51981 1.57982 6.55892 1.50941 6.61871C1.439 6.67849 1.38652 6.75661 1.3578 6.84439C1.32908 6.93218 1.32523 7.02621 1.34669 7.11605C1.36814 7.20589 1.41406 7.28803 1.47935 7.35336L4.30032 10.1743L3.67206 14.257C3.65801 14.3484 3.66954 14.4418 3.70538 14.527C3.74122 14.6122 3.79996 14.6858 3.87509 14.7396C3.95022 14.7934 4.0388 14.8253 4.13098 14.8319C4.22317 14.8384 4.31536 14.8192 4.39732 14.7765L7.99953 12.897L11.6017 14.7765C11.6837 14.8192 11.7759 14.8384 11.8681 14.8319C11.9603 14.8253 12.0488 14.7934 12.124 14.7396C12.1991 14.6858 12.2579 14.6122 12.2937 14.527C12.3295 14.4418 12.3411 14.3484 12.327 14.257L11.6988 10.1743L14.5197 7.35336C14.585 7.28803 14.6309 7.20589 14.6524 7.11605C14.6738 7.02621 14.67 6.93218 14.6413 6.84439C14.6125 6.75661 14.5601 6.67849 14.4897 6.61871C14.4192 6.55892 14.3337 6.51981 14.2424 6.50571L10.1642 5.8781L8.4468 2.44321C8.40555 2.36059 8.34224 2.291 8.26387 2.24216C8.1855 2.19332 8.09513 2.16714 8.00279 2.16651ZM7.99953 3.78435L9.3856 6.55649C9.42131 6.62801 9.47364 6.68992 9.53821 6.73704C9.60277 6.78417 9.6777 6.81512 9.7567 6.82732L13.1148 7.34425L10.8127 9.64633C10.7571 9.70188 10.7155 9.76972 10.691 9.84437C10.6666 9.91903 10.6601 9.99839 10.6721 10.076L11.1883 13.4328L8.23065 11.8898C8.15924 11.8528 8.07996 11.8336 7.99953 11.8338V3.78435Z" fill="#FDA504"/>
</svg>
