<svg width="121" height="120" viewBox="0 0 121 120" fill="none" xmlns="http://www.w3.org/2000/svg">
<path d="M118.264 45.016C124.763 68.6838 113.829 95.6872 95.7266 109.273C77.6248 122.956 52.2637 123.124 31.9114 109.111C11.4677 95.0002 -3.96773 66.6105 2.1671 42.7613C8.39339 19.0091 36.2809 -0.203154 62.101 0.406166C88.012 1.01488 111.855 21.3476 118.264 45.016Z" fill="#FFF3DA"/>
<path d="M93.5487 66.9171C94.5566 64.8636 95.1338 62.529 95.1338 60.0466C95.1338 53.7373 91.4406 48.3667 86.2529 46.2503C86.2529 46.2436 86.2538 46.2369 86.2538 46.2293C86.2538 35.1774 77.9048 26.2181 67.6058 26.2181C58.9176 26.2181 51.6386 32.6036 49.5678 41.2332C48.2571 40.771 46.8603 40.5118 45.4058 40.5118C38.5753 40.5118 32.9533 46.0321 32.1834 53.1399C27.5623 54.189 24.0938 58.5877 24.0938 63.8583C24.0938 69.9102 28.6661 74.8168 34.3058 74.8168C34.4629 74.8168 34.6183 74.8054 34.7728 74.7958C34.7693 74.9626 34.7498 75.1256 34.7498 75.2933C34.7498 86.0822 42.8998 94.828 52.9538 94.828C58.6698 94.828 63.7652 91.996 67.1032 87.5725C69.0372 89.6928 71.7261 91.0164 74.7098 91.0164C78.839 91.0164 82.4123 88.4912 84.1812 84.8053C85.1154 85.1245 86.109 85.2989 87.1418 85.2989C92.5364 85.2989 96.9098 80.6058 96.9098 74.8168C96.9098 71.6617 95.6044 68.8392 93.5487 66.9171Z" fill="#C7EDE6"/>
<path d="M42.6307 56.2349C42.6307 56.2349 45.8631 56.2349 48.0697 56.2349C50.2764 56.2349 52.0657 54.3148 52.0657 51.9468C52.0657 49.7237 50.4833 47.9169 48.4649 47.7016C48.4844 47.5291 48.5137 47.3604 48.5137 47.1822C48.5137 44.8142 46.7244 42.8941 44.5177 42.8941C43.2408 42.8941 42.1175 43.5478 41.3858 44.5484C41.2614 42.0365 39.3416 40.0354 36.9697 40.0354C34.518 40.0354 32.5297 42.1689 32.5297 44.8C32.5297 45.225 32.5981 45.629 32.6958 46.0216C32.1257 45.2812 31.2741 44.8 30.3097 44.8C28.7282 44.8 27.4379 46.0721 27.2417 47.7111C27.081 47.6901 26.9238 47.6587 26.7577 47.6587C24.551 47.6587 22.7617 49.5788 22.7617 51.9468C22.7617 54.3148 24.551 56.2349 26.7577 56.2349C28.9644 56.2349 35.1937 56.2349 35.1937 56.2349H39.9667V56.7114H42.6307V56.2349Z" fill="#FDFCEF"/>
<path d="M36.9684 39.5589C34.2751 39.5589 32.0844 41.9098 32.0844 44.8C32.0844 44.8152 32.0844 44.8295 32.0844 44.8448C31.5498 44.5065 30.9389 44.3235 30.3084 44.3235C28.6825 44.3235 27.2794 45.5251 26.8825 47.187C26.8408 47.1842 26.799 47.1823 26.7564 47.1823C24.3082 47.1823 22.3164 49.3197 22.3164 51.9468C22.3164 54.574 24.3082 56.7114 26.7564 56.7114H39.9654C40.2105 56.7114 40.4094 56.498 40.4094 56.235C40.4094 55.972 40.2105 55.7585 39.9654 55.7585H26.7564C24.7975 55.7585 23.2044 54.049 23.2044 51.9468C23.2044 49.8447 24.7975 48.1352 26.7564 48.1352C26.8603 48.1352 26.9606 48.1514 27.061 48.1657L27.1862 48.1838C27.2048 48.1866 27.2226 48.1876 27.2413 48.1876C27.4597 48.1876 27.6515 48.0113 27.6808 47.7712C27.8504 46.3485 28.98 45.2764 30.3084 45.2764C31.0943 45.2764 31.8384 45.6585 32.3517 46.3246C32.4387 46.4371 32.5657 46.4981 32.6945 46.4981C32.7637 46.4981 32.833 46.4809 32.8969 46.4447C33.0825 46.3427 33.1758 46.115 33.1225 45.8987C33.0204 45.4842 32.9724 45.1354 32.9724 44.8C32.9724 42.4358 34.7653 40.5118 36.9684 40.5118C39.0827 40.5118 40.8286 42.2957 40.9413 44.5741C40.9511 44.7723 41.0745 44.9429 41.2512 45.0029C41.2956 45.0182 41.3409 45.0258 41.3862 45.0258C41.5194 45.0258 41.6491 44.9601 41.7343 44.8428C42.419 43.9071 43.4322 43.3706 44.5164 43.3706C46.4753 43.3706 48.0684 45.0801 48.0684 47.1823C48.0684 47.2938 48.0533 47.4014 48.04 47.5091L48.0231 47.6435C48.0089 47.7712 48.0427 47.8989 48.1173 47.9989C48.1919 48.099 48.3011 48.1628 48.4192 48.1752C50.2449 48.3705 51.6204 49.9924 51.6204 51.9468C51.6204 54.049 50.0274 55.7585 48.0684 55.7585H42.6294C42.3843 55.7585 42.1854 55.972 42.1854 56.235C42.1854 56.498 42.3843 56.7114 42.6294 56.7114H48.0684C50.5166 56.7114 52.5084 54.574 52.5084 51.9468C52.5084 49.6627 51.0086 47.7416 48.9538 47.2995C48.9555 47.2604 48.9564 47.2213 48.9564 47.1823C48.9564 44.5551 46.9646 42.4177 44.5164 42.4177C43.4721 42.4177 42.4802 42.8141 41.6899 43.5269C41.1589 41.2361 39.2373 39.5589 36.9684 39.5589Z" fill="#472B29"/>
<path d="M35.639 46.2293C34.3931 46.2293 33.3222 47.1813 33.0523 48.4601C32.7264 48.2486 32.3543 48.1352 31.976 48.1352C30.9086 48.1352 30.0242 48.9899 29.8865 50.1058C29.7063 50.062 29.5349 50.041 29.3671 50.041C28.0093 50.041 26.8709 51.1845 26.7759 52.6444C26.7679 52.7759 26.8602 52.8902 26.9819 52.8998C26.9872 52.8998 26.9925 52.8998 26.9979 52.8998C27.1133 52.8998 27.211 52.8035 27.219 52.6787C27.298 51.4675 28.2411 50.5175 29.3671 50.5175C29.5704 50.5175 29.7844 50.5575 30.0224 50.6385C30.0419 50.6452 30.0624 50.648 30.0819 50.648C30.1307 50.648 30.1796 50.629 30.2204 50.5966C30.2773 50.5527 30.311 50.4746 30.311 50.3983C30.311 49.413 31.0578 48.6116 31.976 48.6116C32.3729 48.6116 32.7619 48.7717 33.0691 49.0624C33.1109 49.1014 33.1633 49.1224 33.2157 49.1224C33.2441 49.1224 33.2716 49.1167 33.2982 49.1043C33.3764 49.0709 33.4297 48.9928 33.4359 48.9023C33.5282 47.6701 34.4953 46.7058 35.639 46.7058C35.8237 46.7058 36.0164 46.7382 36.2446 46.8078C36.265 46.8144 36.2864 46.8173 36.3068 46.8173C36.4036 46.8173 36.4906 46.7477 36.519 46.6439C36.5528 46.5171 36.4844 46.3856 36.3663 46.3494C36.0981 46.2675 35.8663 46.2293 35.639 46.2293Z" fill="#472B29"/>
<path d="M47.967 47.6587C46.7895 47.6587 45.7399 48.5135 45.4149 49.738C45.3811 49.8647 45.4495 49.9962 45.5676 50.0324C45.5889 50.0381 45.6093 50.041 45.6289 50.041C45.7257 50.041 45.8145 49.9724 45.842 49.8676C46.1128 48.8479 46.9866 48.1351 47.967 48.1351C48.0709 48.1351 48.1712 48.1485 48.2707 48.1628C48.2813 48.1647 48.2911 48.1656 48.3018 48.1656C48.4092 48.1656 48.5051 48.078 48.5202 47.9589C48.5371 47.8283 48.4518 47.7082 48.3302 47.6911C48.2112 47.6739 48.0904 47.6587 47.967 47.6587Z" fill="#472B29"/>
<path d="M44.8783 87.2047H36.0827C35.8376 87.2047 35.6387 86.9913 35.6387 86.7283C35.6387 86.4653 35.8376 86.2518 36.0827 86.2518H44.8783C45.1234 86.2518 45.3223 86.4653 45.3223 86.7283C45.3223 86.9913 45.1243 87.2047 44.8783 87.2047Z" fill="white"/>
<path d="M47.625 87.2047H46.737C46.4919 87.2047 46.293 86.9913 46.293 86.7283C46.293 86.4653 46.4919 86.2518 46.737 86.2518H47.625C47.8701 86.2518 48.069 86.4653 48.069 86.7283C48.069 86.9913 47.8709 87.2047 47.625 87.2047Z" fill="white"/>
<path d="M52.0589 89.1106H44.0749C43.8298 89.1106 43.6309 88.8971 43.6309 88.6341C43.6309 88.3711 43.8298 88.1577 44.0749 88.1577H52.0589C52.304 88.1577 52.5029 88.3711 52.5029 88.6341C52.5029 88.8971 52.304 89.1106 52.0589 89.1106Z" fill="white"/>
<path d="M42.2968 89.1106H41.4088C41.1638 89.1106 40.9648 88.8971 40.9648 88.6341C40.9648 88.3711 41.1638 88.1577 41.4088 88.1577H42.2968C42.5419 88.1577 42.7408 88.3711 42.7408 88.6341C42.7408 88.8971 42.5428 89.1106 42.2968 89.1106Z" fill="white"/>
<path d="M39.6341 89.1106H37.8581C37.613 89.1106 37.4141 88.8971 37.4141 88.6341C37.4141 88.3711 37.613 88.1577 37.8581 88.1577H39.6341C39.8792 88.1577 40.0781 88.3711 40.0781 88.6341C40.0781 88.8971 39.88 89.1106 39.6341 89.1106Z" fill="white"/>
<path d="M44.9602 91.0164H43.1842C42.9391 91.0164 42.7402 90.8029 42.7402 90.5399C42.7402 90.2769 42.9391 90.0635 43.1842 90.0635H44.9602C45.2053 90.0635 45.4042 90.2769 45.4042 90.5399C45.4042 90.8029 45.2053 91.0164 44.9602 91.0164Z" fill="white"/>
<path d="M47.625 82.4402C47.4678 82.4402 46.8941 82.4402 46.737 82.4402C46.4919 82.4402 46.293 82.6536 46.293 82.9166C46.293 83.1796 46.4919 83.3931 46.737 83.3931C46.8941 83.3931 47.4678 83.3931 47.625 83.3931C47.8701 83.3931 48.069 83.1796 48.069 82.9166C48.069 82.6536 47.8701 82.4402 47.625 82.4402Z" fill="white"/>
<path d="M47.6242 84.346C47.4671 84.346 43.3414 84.346 43.1842 84.346C42.9391 84.346 42.7402 84.5594 42.7402 84.8224C42.7402 85.0854 42.9391 85.2989 43.1842 85.2989C43.3414 85.2989 47.4671 85.2989 47.6242 85.2989C47.8693 85.2989 48.0682 85.0854 48.0682 84.8224C48.0682 84.5594 47.8693 84.346 47.6242 84.346Z" fill="white"/>
<path d="M52.067 86.2518C51.9098 86.2518 49.5602 86.2518 49.403 86.2518C49.1579 86.2518 48.959 86.4653 48.959 86.7283C48.959 86.9913 49.1579 87.2047 49.403 87.2047C49.5602 87.2047 51.9098 87.2047 52.067 87.2047C52.3121 87.2047 52.511 86.9913 52.511 86.7283C52.511 86.4653 52.3121 86.2518 52.067 86.2518Z" fill="white"/>
<path d="M88.4724 51.9468H79.5924C79.3473 51.9468 79.1484 51.7334 79.1484 51.4704C79.1484 51.2073 79.3473 50.9939 79.5924 50.9939H88.4724C88.7175 50.9939 88.9164 51.2073 88.9164 51.4704C88.9164 51.7334 88.7175 51.9468 88.4724 51.9468Z" fill="white"/>
<path d="M92.0247 51.9468H90.2487C90.0036 51.9468 89.8047 51.7334 89.8047 51.4704C89.8047 51.2073 90.0036 50.9939 90.2487 50.9939H92.0247C92.2698 50.9939 92.4687 51.2073 92.4687 51.4704C92.4687 51.7334 92.2698 51.9468 92.0247 51.9468Z" fill="white"/>
<path d="M96.4646 53.8527H87.5846C87.3395 53.8527 87.1406 53.6392 87.1406 53.3762C87.1406 53.1132 87.3395 52.8997 87.5846 52.8997H96.4646C96.7097 52.8997 96.9086 53.1132 96.9086 53.3762C96.9086 53.6392 96.7106 53.8527 96.4646 53.8527Z" fill="white"/>
<path d="M85.8105 53.8527H84.9225C84.6774 53.8527 84.4785 53.6392 84.4785 53.3762C84.4785 53.1132 84.6774 52.8997 84.9225 52.8997H85.8105C86.0556 52.8997 86.2545 53.1132 86.2545 53.3762C86.2545 53.6392 86.0556 53.8527 85.8105 53.8527Z" fill="white"/>
<path d="M83.0348 53.8527H81.3698C81.1247 53.8527 80.9258 53.6392 80.9258 53.3762C80.9258 53.1132 81.1247 52.8997 81.3698 52.8997H83.0348C83.2799 52.8997 83.4788 53.1132 83.4788 53.3762C83.4788 53.6392 83.2799 53.8527 83.0348 53.8527Z" fill="white"/>
<path d="M91.136 50.041H86.696C86.4509 50.041 86.252 49.8275 86.252 49.5645C86.252 49.3015 86.4509 49.0881 86.696 49.0881H91.136C91.381 49.0881 91.58 49.3015 91.58 49.5645C91.58 49.8275 91.3819 50.041 91.136 50.041Z" fill="white"/>
<path d="M88.472 55.7585H86.696C86.4509 55.7585 86.252 55.545 86.252 55.282C86.252 55.019 86.4509 54.8056 86.696 54.8056H88.472C88.717 54.8056 88.916 55.019 88.916 55.282C88.916 55.545 88.717 55.7585 88.472 55.7585Z" fill="white"/>
<path d="M60.9448 82.4402C59.3881 82.4402 57.843 82.2286 56.352 81.8141C56.114 81.7474 55.972 81.4872 56.0341 81.2328C56.0954 80.9793 56.3369 80.8231 56.5758 80.8917C58.5294 81.4367 60.61 81.613 62.6204 81.4015C62.8513 81.3901 63.0822 81.5682 63.1053 81.8303C63.1284 82.0914 62.9499 82.3249 62.7057 82.3506C62.1258 82.4097 61.5326 82.4402 60.9448 82.4402Z" fill="#472B29"/>
<path d="M76.6814 54.5397C76.5216 54.5397 76.3671 54.4463 76.2889 54.2843C74.3327 50.283 71.0959 47.1861 67.1772 45.5642C66.948 45.4689 66.8344 45.1935 66.9223 44.9486C67.0111 44.7018 67.2686 44.5789 67.4959 44.6751C71.6172 46.3808 75.0182 49.637 77.0739 53.8422C77.1885 54.0756 77.1041 54.3634 76.8874 54.4854C76.8217 54.5216 76.7516 54.5397 76.6814 54.5397Z" fill="#472B29"/>
<path d="M64.7451 44.7599C64.7141 44.7599 64.683 44.7561 64.651 44.7485C62.4559 44.2368 60.1222 44.1891 57.9155 44.6074C57.6767 44.6618 57.444 44.4817 57.4014 44.2215C57.3588 43.9633 57.5195 43.7155 57.761 43.6698C60.0823 43.2305 62.5314 43.281 64.8402 43.8184C65.0799 43.8747 65.2309 44.1281 65.1794 44.3854C65.1341 44.6074 64.9503 44.7599 64.7451 44.7599Z" fill="#472B29"/>
<path d="M46.7628 74.8559C46.6287 74.8559 46.4955 74.7911 46.4085 74.6672C44.9068 72.5317 43.8457 70.137 43.2587 67.548C43.201 67.2916 43.3466 67.0344 43.5846 66.9724C43.8253 66.9095 44.0632 67.0667 44.121 67.3221C44.6804 69.7835 45.6883 72.061 47.118 74.0916C47.2654 74.3022 47.2263 74.6005 47.0309 74.7596C46.9501 74.8244 46.8569 74.8559 46.7628 74.8559Z" fill="#472B29"/>
<path d="M53.5118 80.6944C53.4497 80.6944 53.3857 80.6801 53.3262 80.6506C51.5192 79.7567 49.8675 78.5541 48.42 77.0781C48.2416 76.898 48.2345 76.5959 48.4032 76.4053C48.571 76.2138 48.8534 76.2081 49.0301 76.3872C50.4092 77.7909 51.9791 78.9343 53.6974 79.7844C53.9203 79.8949 54.0171 80.1779 53.915 80.4161C53.8395 80.5924 53.6788 80.6944 53.5118 80.6944Z" fill="#472B29"/>
<path d="M42.4299 63.6677V61.7618H40.6992V58.4409C40.6992 55.7537 42.6777 53.5677 45.1081 53.5677H51.9191C54.3496 53.5677 56.328 55.7537 56.328 58.4409V61.7618H54.5973V63.6677H42.4299Z" fill="#F4989E"/>
<path d="M51.9196 54.2338C54.0082 54.2338 55.7069 56.1206 55.7069 58.44V61.0948H55.2194H53.9762V62.4289V63.0006H43.052V62.4289V61.0948H41.8088H41.3213V58.44C41.3213 56.1206 43.0201 54.2338 45.1086 54.2338H47.0001H47.54H47.865H49.1633H49.4883H50.0282H51.9196ZM51.9196 52.8997H50.0282H49.4883H49.1633H47.865H47.54H47.0001H45.1086C42.3301 52.8997 40.0781 55.3802 40.0781 58.44V62.4289H41.8088V64.3347H55.2203V62.4289H56.9501V58.44C56.9501 55.3802 54.6982 52.8997 51.9196 52.8997Z" fill="#472B29"/>
<path d="M48.556 55.4593C47.9628 55.4593 47.5073 55.2906 47.2018 54.959C46.7356 54.4539 46.7383 53.705 46.7383 53.6973V50.7938H50.2885V53.6888C50.2894 53.724 50.3205 54.4682 49.8791 54.9676C49.5897 55.2935 49.1448 55.4593 48.556 55.4593Z" fill="#FABF82"/>
<path d="M49.8433 51.2702V53.6878V53.7183L49.845 53.7488C49.845 53.7535 49.853 54.2986 49.5591 54.635C49.3575 54.8656 49.0201 54.9828 48.5548 54.9828C47.3622 54.9828 47.181 54.1785 47.1802 53.6887V51.2702H49.8433ZM50.7313 50.3173H46.293V53.6878C46.293 53.6878 46.2451 55.9348 48.5557 55.9348C50.8662 55.9348 50.7313 53.6878 50.7313 53.6878V50.3173Z" fill="#472B29"/>
<path d="M48.9589 51.9468C51.9239 51.9468 54.3295 49.3368 54.286 46.1455C54.2451 43.1114 51.8644 40.5566 49.037 40.5128C46.0631 40.4661 43.6309 43.0475 43.6309 46.2293C43.6309 49.3825 46.0205 51.9468 48.9589 51.9468Z" fill="#FABF82"/>
<path d="M48.9574 52.6139C45.6771 52.6139 43.0078 49.7494 43.0078 46.2293C43.0078 44.5074 43.6383 42.8941 44.7829 41.683C45.9267 40.4728 47.4283 39.8324 49.0444 39.8448C52.2315 39.8943 54.8608 42.7159 54.907 46.1359C54.9301 47.8569 54.3218 49.4816 53.1941 50.709C52.0654 51.9373 50.562 52.6139 48.9574 52.6139ZM48.9556 41.1789C47.7133 41.1789 46.5438 41.6934 45.6549 42.633C44.7501 43.5907 44.251 44.8676 44.251 46.2293C44.251 49.0147 46.3618 51.2798 48.9574 51.2798C50.2264 51.2798 51.4163 50.7442 52.3078 49.7732C53.1994 48.8022 53.6816 47.5167 53.662 46.155C53.6265 43.4964 51.5033 41.2179 49.0258 41.1798C49.0036 41.1789 48.9787 41.1789 48.9556 41.1789Z" fill="#472B29"/>
<path d="M48.9975 39.0805C46.1639 39.3331 43.1287 41.1074 43.2957 45.3355L43.7397 47.4205C43.4999 44.071 46.2873 44.1443 47.5279 44.0738C50.0977 44.1148 52.9837 44.5093 53.5272 43.847C54.3859 42.7083 54.7633 41.4581 54.3983 40.0354C52.3026 40.3927 51.6224 38.9929 48.9975 39.0805Z" fill="#472B29"/>
<path d="M43.1342 47.5691L42.6751 45.3641C42.4896 40.6643 45.9377 38.6832 48.9471 38.4164L48.9791 38.4145C50.3981 38.3449 51.287 38.7127 52.0746 39.0196C52.8126 39.3054 53.396 39.5284 54.3017 39.3769L54.8505 39.2826L54.9979 39.8581C55.3913 41.3914 55.0592 42.8751 54.0114 44.2663C53.4235 44.981 52.08 44.9448 49.5545 44.82C48.8867 44.7866 48.1914 44.7513 47.5183 44.7409L47.3274 44.7513C46.5451 44.7885 45.3649 44.8438 44.7708 45.5632C44.4405 45.9625 44.3029 46.5705 44.3597 47.37L43.1342 47.5691ZM49.0341 39.7466C46.6347 39.9648 44.1315 41.3561 43.9255 44.5798C44.8747 43.5307 46.3701 43.4611 47.2741 43.4182L47.4961 43.4068C48.2243 43.4173 48.9329 43.4525 49.614 43.4868C50.859 43.5507 52.7397 43.646 53.0825 43.3849C53.7245 42.5282 53.9972 41.6725 53.9004 40.7567C52.9786 40.7853 52.3144 40.528 51.6546 40.2726C50.938 39.9963 50.1965 39.7133 49.0341 39.7466Z" fill="#472B29"/>
<path d="M56.5071 59.0937H52.9551V63.8383H56.5071V59.0937Z" fill="#FABF82"/>
<path d="M56.5058 64.3147H52.9538C52.7087 64.3147 52.5098 64.1013 52.5098 63.8382V59.0937C52.5098 58.8307 52.7087 58.6172 52.9538 58.6172H56.5058C56.7509 58.6172 56.9498 58.8307 56.9498 59.0937V63.8382C56.9498 64.1022 56.7509 64.3147 56.5058 64.3147ZM53.3978 63.3618H56.0618V59.5701H53.3978V63.3618Z" fill="#472B29"/>
<path d="M44.0735 59.0937H40.5215V63.8383H44.0735V59.0937Z" fill="#FABF82"/>
<path d="M44.0741 64.3147H40.5221C40.277 64.3147 40.0781 64.1013 40.0781 63.8382V59.0937C40.0781 58.8307 40.277 58.6172 40.5221 58.6172H44.0741C44.3192 58.6172 44.5181 58.8307 44.5181 59.0937V63.8382C44.5181 64.1022 44.3192 64.3147 44.0741 64.3147ZM40.9661 63.3618H43.6301V59.5701H40.9661V63.3618Z" fill="#472B29"/>
<path d="M68.0334 81.7731V79.8673H66.3027V76.5454C66.3027 73.8591 68.2812 71.6731 70.7117 71.6731H77.5226C79.9531 71.6731 81.9315 73.8591 81.9315 76.5463V79.8673H80.2017V81.7731H68.0334Z" fill="#8889B9"/>
<path d="M77.5231 72.3392C79.6117 72.3392 81.3104 74.226 81.3104 76.5454V79.2002H80.8229H79.5797V80.5343V81.1061H68.6556V80.5343V79.2002H67.4124H66.9248V76.5454C66.9248 74.226 68.6236 72.3392 70.7122 72.3392H72.6036H73.1435H73.4685H74.7668H75.0918H75.6317H77.5231ZM77.5231 71.0052H75.6317H75.0918H74.7668H73.4685H73.1435H72.6036H70.7122C67.9336 71.0052 65.6816 73.4856 65.6816 76.5454V80.5343H67.4124V82.4402H80.8238V80.5343H82.5545V76.5454C82.5536 73.4856 80.3017 71.0052 77.5231 71.0052Z" fill="#472B29"/>
<path d="M74.0748 73.5647C73.486 73.5647 73.0411 73.3989 72.7525 73.072C72.3112 72.5736 72.3423 71.8285 72.3423 71.8208L72.3432 68.8983H75.8934V71.7932C75.8934 71.8094 75.896 72.5584 75.4298 73.0634C75.1235 73.396 74.6679 73.5647 74.0748 73.5647Z" fill="#FABF82"/>
<path d="M75.4482 69.3756V71.8037C75.4464 72.283 75.2661 73.0882 74.0735 73.0882C73.6144 73.0882 73.2788 72.9739 73.0772 72.749C72.77 72.4069 72.7842 71.8551 72.7842 71.8551L72.7859 71.8246V71.7941V69.3756H75.4482ZM76.3362 68.4227H71.8979V71.7932C71.8979 71.7932 71.7639 74.0402 74.0735 74.0402C76.3841 74.0402 76.3362 71.7932 76.3362 71.7932V68.4227Z" fill="#472B29"/>
<path d="M73.6734 70.0522C70.7084 70.0522 68.3028 67.4422 68.3463 64.2509C68.3871 61.2168 70.7679 58.662 73.5953 58.6182C76.5701 58.5724 79.0014 61.1539 79.0014 64.3347C79.0014 67.4879 76.6127 70.0522 73.6734 70.0522Z" fill="#FABF82"/>
<path d="M73.6729 70.7193C72.0683 70.7193 70.5649 70.0427 69.4362 68.8144C68.3085 67.587 67.7002 65.9623 67.7233 64.2414C67.7695 60.8213 70.3988 57.9998 73.5859 57.9502C75.2056 57.9197 76.7036 58.5782 77.8474 59.7884C78.992 60.9995 79.6225 62.6128 79.6225 64.3347C79.6225 67.8548 76.9532 70.7193 73.6729 70.7193ZM73.6747 59.2843C73.6516 59.2843 73.6276 59.2843 73.6036 59.2852C71.1261 59.3234 69.0029 61.6018 68.9674 64.2604C68.9487 65.6221 69.43 66.9067 70.3216 67.8786C71.2131 68.8506 72.4039 69.3852 73.672 69.3852C76.2676 69.3852 78.3784 67.1201 78.3784 64.3347C78.3784 62.973 77.8794 61.6961 76.9745 60.7394C76.0865 59.7989 74.917 59.2843 73.6747 59.2843Z" fill="#472B29"/>
<path d="M73.6313 57.1859C76.465 57.4385 79.5001 59.2128 79.3332 63.4409L78.8892 65.5259C79.129 62.1764 76.3415 62.2497 75.101 62.1792C72.5311 62.2202 69.6451 62.6147 69.1016 61.9524C68.243 60.8137 67.8656 59.5635 68.2305 58.1408C70.3262 58.4981 71.0073 57.0983 73.6313 57.1859Z" fill="#472B29"/>
<path d="M79.4971 65.6745L78.2707 65.4744C78.3276 64.6749 78.1899 64.067 77.8596 63.6677C77.2664 62.9492 76.0854 62.893 75.303 62.8558L75.0695 62.8444C74.439 62.8558 73.7437 62.8911 73.0759 62.9244C70.5513 63.055 69.2078 63.0874 68.6368 62.3917C67.5712 60.9795 67.2391 59.4958 67.6325 57.9626L67.7799 57.387L68.3287 57.4814C69.2362 57.6348 69.8178 57.4099 70.5558 57.124C71.3452 56.8191 72.2323 56.4636 73.6513 56.5189L73.6833 56.5208C76.6927 56.7876 80.14 58.7687 79.9553 63.4685L79.9402 63.5895L79.4971 65.6745ZM75.0935 61.5122L75.3581 61.5246C76.2621 61.5675 77.7566 61.637 78.7067 62.6862C78.4998 59.4625 75.9974 58.0712 73.5981 57.853C72.4392 57.8339 71.6933 58.1036 70.9794 58.38C70.3196 58.6363 69.6376 58.8888 68.7336 58.864C68.6377 59.7807 68.9147 60.6412 69.5879 61.5341C69.8951 61.7523 71.7759 61.657 73.0182 61.5941C73.6984 61.5589 74.407 61.5236 75.0935 61.5122Z" fill="#472B29"/>
<path d="M69.677 77.1991H66.125V81.9437H69.677V77.1991Z" fill="#FABF82"/>
<path d="M69.6776 82.4201H66.1256C65.8806 82.4201 65.6816 82.2067 65.6816 81.9437V77.1991C65.6816 76.9361 65.8806 76.7227 66.1256 76.7227H69.6776C69.9227 76.7227 70.1216 76.9361 70.1216 77.1991V81.9437C70.1216 82.2076 69.9227 82.4201 69.6776 82.4201ZM66.5696 81.4672H69.2336V77.6756H66.5696V81.4672Z" fill="#472B29"/>
<path d="M82.1086 77.1991H78.5566V81.9437H82.1086V77.1991Z" fill="#FABF82"/>
<path d="M82.1093 82.4201H78.5573C78.3122 82.4201 78.1133 82.2067 78.1133 81.9437V77.1991C78.1133 76.9361 78.3122 76.7227 78.5573 76.7227H82.1093C82.3544 76.7227 82.5533 76.9361 82.5533 77.1991V81.9437C82.5533 82.2076 82.3544 82.4201 82.1093 82.4201ZM79.0013 81.4672H81.6653V77.6756H79.0013V81.4672Z" fill="#472B29"/>
<path d="M87.5856 84.8224C87.5856 84.8224 88.9771 84.8224 90.6936 84.8224C92.4101 84.8224 93.8016 83.3292 93.8016 81.4872C93.8016 79.7901 92.6161 78.4055 91.0887 78.1949C91.1136 78.0243 91.1376 77.8537 91.1376 77.6755C91.1376 75.8336 89.7461 74.3403 88.0296 74.3403C87.1132 74.3403 86.298 74.7739 85.7297 75.4505C85.3887 73.7276 83.9652 72.4345 82.2576 72.4345C80.296 72.4345 78.7056 74.1412 78.7056 76.2462C78.7056 76.4282 78.7322 76.6026 78.7553 76.7779C78.3752 76.4501 77.8993 76.2462 77.3736 76.2462C76.2831 76.2462 75.38 77.0914 75.1935 78.2044C75.0346 78.1777 74.8756 78.152 74.7096 78.152C72.9931 78.152 71.6016 79.6452 71.6016 81.4872C71.6016 83.3292 72.9931 84.8224 74.7096 84.8224C76.4261 84.8224 81.3696 84.8224 81.3696 84.8224V85.2989H87.5856V84.8224Z" fill="#FDFCEF"/>
<path d="M89.1419 80.5343C89.0194 80.5343 88.9199 80.4276 88.9199 80.2961C88.9199 79.1307 89.8035 78.1825 90.8895 78.1825C90.9197 78.1911 91.544 78.1816 91.9942 78.3121C92.1123 78.3464 92.1824 78.477 92.1505 78.6037C92.1185 78.7314 91.9968 78.8067 91.8787 78.7714C91.4845 78.6571 90.9019 78.6571 90.8904 78.659C90.0486 78.659 89.3639 79.3937 89.3639 80.2961C89.3639 80.4276 89.2645 80.5343 89.1419 80.5343Z" fill="#472B29"/>
<path d="M83.1452 85.2989C83.3904 85.2989 83.5892 85.0856 83.5892 84.8224C83.5892 84.5593 83.3904 84.346 83.1452 84.346C82.9 84.346 82.7012 84.5593 82.7012 84.8224C82.7012 85.0856 82.9 85.2989 83.1452 85.2989Z" fill="#472B29"/>
<path d="M90.6942 85.2989H87.5862C87.3411 85.2989 87.1422 85.0854 87.1422 84.8224C87.1422 84.5594 87.3411 84.346 87.5862 84.346H90.6942C92.163 84.346 93.3582 83.0634 93.3582 81.4872C93.3582 80.0617 92.3592 78.8496 91.0334 78.6676C90.9144 78.6504 90.807 78.5837 90.7351 78.4808C90.6631 78.3779 90.6329 78.2483 90.6516 78.1215C90.672 77.9748 90.6942 77.828 90.6942 77.6756C90.6942 76.0994 89.499 74.8168 88.0302 74.8168C87.2754 74.8168 86.5757 75.1551 86.0597 75.7697C85.9487 75.9022 85.7747 75.9584 85.6157 75.9108C85.4541 75.8641 85.3307 75.7249 85.2961 75.5496C84.9932 74.0211 83.7154 72.911 82.2582 72.911C80.5444 72.911 79.1502 74.4071 79.1502 76.2462C79.1502 76.3825 79.1689 76.513 79.1866 76.6445C79.2124 76.838 79.1307 77.0619 78.9717 77.1591C78.8128 77.2563 78.6201 77.2715 78.478 77.1496C78.1539 76.8703 77.7729 76.7227 77.3742 76.7227C76.5164 76.7227 75.7829 77.3811 75.6311 78.2892C75.5884 78.5437 75.3682 78.7142 75.1258 78.6752C74.989 78.6523 74.8523 78.6285 74.7102 78.6285C73.2415 78.6285 72.0462 79.9111 72.0462 81.4872C72.0462 83.0634 73.2415 84.346 74.7102 84.346H81.3702C81.6153 84.346 81.8142 84.5594 81.8142 84.8224C81.8142 85.0854 81.6153 85.2989 81.3702 85.2989H74.7102C72.7513 85.2989 71.1582 83.5894 71.1582 81.4872C71.1582 79.3851 72.7513 77.6756 74.7102 77.6756C74.7626 77.6756 74.8132 77.6775 74.8647 77.6813C75.2324 76.5511 76.2296 75.7697 77.3742 75.7697C77.6841 75.7697 77.986 75.8279 78.272 75.9413C78.4185 73.7181 80.1501 71.9581 82.2582 71.9581C83.8841 71.9581 85.336 73.032 85.9461 74.6015C86.5499 74.1269 87.2799 73.8639 88.0302 73.8639C89.9891 73.8639 91.5822 75.5734 91.5822 77.6756C91.5822 77.7213 91.5813 77.7661 91.5787 77.8109C93.1265 78.2378 94.2462 79.7424 94.2462 81.4872C94.2462 83.5894 92.6531 85.2989 90.6942 85.2989Z" fill="#472B29"/>
<path d="M85.8105 84.346C85.6693 84.346 85.0637 84.346 84.9225 84.346C84.6774 84.346 84.4785 84.5594 84.4785 84.8224C84.4785 85.0854 84.6774 85.2989 84.9225 85.2989C85.0637 85.2989 85.6693 85.2989 85.8105 85.2989C86.0556 85.2989 86.2545 85.0854 86.2545 84.8224C86.2545 84.5594 86.0556 84.346 85.8105 84.346Z" fill="#472B29"/>
<path d="M70.3762 48.3106H62.802C62.3696 48.3106 62.0176 47.9331 62.0176 47.4688C62.0176 47.0045 62.3693 46.6271 62.802 46.6271H70.3795L70.2804 46.7494C70.1169 46.9514 70.0269 47.2066 70.0269 47.4688C70.0269 47.7308 70.1161 47.9866 70.2782 48.1886L70.3762 48.3106Z" fill="#E1E0D8"/>
<path d="M62.0176 46.739V36.2454C62.0176 35.7811 62.3693 35.4036 62.802 35.4036H69.9581C70.3905 35.4036 70.7425 35.7811 70.7425 36.2454V46.3612H62.802C62.5557 46.3612 62.3239 46.4555 62.1312 46.6336L62.0176 46.739Z" fill="#BD977C"/>
<path d="M64.4534 35.4036H62.802C62.3696 35.4036 62.0176 35.7811 62.0176 36.2454V46.739L62.1312 46.6339C62.3236 46.4555 62.5557 46.3615 62.802 46.3615H64.4534V35.4036Z" fill="#9F8066"/>
<path d="M70.9488 46.7101C71.0134 46.6991 71.0591 46.6362 71.0591 46.5662V36.2454C71.0591 35.5929 70.5662 35.0639 69.9582 35.0639H62.8021C62.1941 35.0639 61.7012 35.5929 61.7012 36.2454V47.4688C61.7012 47.6319 61.732 47.7872 61.7876 47.9287C61.8432 48.0702 61.9238 48.1975 62.0235 48.3041C62.0733 48.3575 62.1278 48.406 62.1864 48.4482C62.3037 48.5333 62.4366 48.5944 62.58 48.626C62.6518 48.642 62.7261 48.6502 62.8021 48.6502C62.8261 48.6502 70.8486 48.6502 70.8665 48.6502C70.9727 48.6502 71.0589 48.5578 71.0591 48.4438C71.0591 48.4429 71.0586 48.4417 71.0586 48.4408C71.0572 48.3301 70.9832 48.2406 70.8827 48.2131C70.5733 48.1286 70.3435 47.8271 70.3435 47.4688C70.3435 47.0858 70.6064 46.7671 70.9488 46.7101ZM62.8021 35.4774H69.9582C70.3534 35.4774 70.6738 35.8212 70.6738 36.2454V46.2874C70.6738 46.2874 63.3608 46.2874 62.8021 46.2874C62.5274 46.2874 62.2794 46.3993 62.0865 46.5777V36.2454C62.0865 35.8212 62.4069 35.4774 62.8021 35.4774ZM62.8021 48.2367C62.4074 48.2367 62.0865 47.8924 62.0865 47.4688C62.0865 47.0453 62.4074 46.7009 62.8021 46.7009H70.2287C70.0617 46.9071 69.9582 47.1738 69.9582 47.4688C69.9582 47.763 70.0603 48.03 70.2263 48.2367H62.8021Z" fill="#472B29"/>
<path d="M64.3493 43.3339C64.2923 43.3339 64.2461 43.2842 64.2461 43.2231V40.1957C64.2461 40.1346 64.2923 40.085 64.3493 40.085C64.4063 40.085 64.4525 40.1346 64.4525 40.1957V43.2231C64.4525 43.2842 64.4063 43.3339 64.3493 43.3339ZM64.3493 44.8106C64.2923 44.8106 64.2461 44.761 64.2461 44.6999V44.3307C64.2461 44.2695 64.2923 44.2199 64.3493 44.2199C64.4063 44.2199 64.4525 44.2695 64.4525 44.3307V44.6999C64.4525 44.761 64.4063 44.8106 64.3493 44.8106ZM64.3493 45.6967C64.2923 45.6967 64.2461 45.6471 64.2461 45.5859V45.2167C64.2461 45.1556 64.2923 45.106 64.3493 45.106C64.4063 45.106 64.4525 45.1556 64.4525 45.2167V45.5859C64.4525 45.6471 64.4063 45.6967 64.3493 45.6967ZM70.1292 47.4688H64.831C64.774 47.4688 64.7278 47.4192 64.7278 47.3581C64.7278 47.2969 64.774 47.2473 64.831 47.2473H70.1292C70.1862 47.2473 70.2324 47.2969 70.2324 47.3581C70.2324 47.4192 70.1862 47.4688 70.1292 47.4688ZM70.1292 47.9857H66.7576C66.7006 47.9857 66.6544 47.9361 66.6544 47.8749C66.6544 47.8138 66.7006 47.7642 66.7576 47.7642H70.1292C70.1862 47.7642 70.2324 47.8138 70.2324 47.8749C70.2324 47.9361 70.1862 47.9857 70.1292 47.9857ZM66.2759 47.9857H65.9319C65.8749 47.9857 65.8287 47.9361 65.8287 47.8749C65.8287 47.8138 65.8749 47.7642 65.9319 47.7642H66.2759C66.3329 47.7642 66.3792 47.8138 66.3792 47.8749C66.3792 47.9361 66.3329 47.9857 66.2759 47.9857Z" fill="#472B29"/>
<path d="M63.1445 34.8424H66.0345V40.8972L64.5895 40.1957L63.1445 40.8972V34.8424Z" fill="#EE3E54"/>
<path d="M66.0005 40.971C65.9865 40.971 65.9722 40.9681 65.9592 40.9616L64.59 40.3168L63.2207 40.9619C63.189 40.9769 63.1519 40.9737 63.123 40.9533C63.0935 40.9326 63.0762 40.8975 63.0762 40.8603V34.8793C63.0762 34.8182 63.1224 34.7686 63.1794 34.7686H66.0005C66.0575 34.7686 66.1037 34.8182 66.1037 34.8793V40.8603C66.1037 40.8975 66.0864 40.9326 66.057 40.953C66.0402 40.9648 66.0201 40.971 66.0005 40.971ZM64.59 40.085C64.6043 40.085 64.6183 40.0882 64.6312 40.0944L65.8973 40.6907V34.9901H63.2826V40.6907L64.5487 40.0944C64.5616 40.0882 64.5756 40.085 64.59 40.085Z" fill="#472B29"/>
</svg>
