<svg width="121" height="120" viewBox="0 0 121 120" fill="none" xmlns="http://www.w3.org/2000/svg">
<path d="M118.264 45.0159C124.763 68.6837 113.829 95.6871 95.7266 109.273C77.6248 122.956 52.2637 123.124 31.9115 109.111C11.4677 95.0001 -3.96773 66.6104 2.1671 42.7613C8.39339 19.0091 36.2809 -0.203202 62.101 0.406118C88.012 1.01484 111.855 21.3476 118.264 45.0159Z" fill="#FFF3DA"/>
<rect width="88.8001" height="95.2916" transform="translate(16.0977 11.5896)" fill="#FFF3DA"/>
<path d="M93.5448 65.6295C94.5527 63.576 95.1299 61.2413 95.1299 58.759C95.1299 52.4497 91.4367 47.0791 86.249 44.9626C86.249 44.956 86.2499 44.9493 86.2499 44.9417C86.2499 33.8898 77.9009 24.9304 67.6019 24.9304C58.9137 24.9304 51.6347 31.3159 49.5639 39.9455C48.2532 39.4834 46.8564 39.2242 45.4019 39.2242C38.5714 39.2242 32.9494 44.7444 32.1795 51.8522C27.5584 52.9014 24.0898 57.3 24.0898 62.5706C24.0898 68.6226 28.6622 73.5292 34.3019 73.5292C34.459 73.5292 34.6144 73.5177 34.7689 73.5082C34.7654 73.675 34.7459 73.8379 34.7459 74.0056C34.7459 84.7945 42.8959 93.5404 52.9499 93.5404C58.6659 93.5404 63.7613 90.7083 67.0993 86.2849C69.0333 88.4051 71.7222 89.7287 74.7059 89.7287C78.8351 89.7287 82.4084 87.2035 84.1773 83.5176C85.1115 83.8369 86.1051 84.0112 87.1379 84.0112C92.5325 84.0112 96.9059 79.3181 96.9059 73.5292C96.9059 70.3741 95.6005 67.5515 93.5448 65.6295Z" fill="#C7EDE6"/>
<path d="M87.0272 60.6648C87.0272 60.6648 90.2595 60.6648 92.4662 60.6648C94.6729 60.6648 96.4622 58.7447 96.4622 56.3767C96.4622 54.1535 94.8798 52.3468 92.8614 52.1314C92.8809 51.9589 92.9102 51.7903 92.9102 51.6121C92.9102 49.2441 91.1209 47.324 88.9142 47.324C87.6373 47.324 86.514 47.9777 85.7822 48.9782C85.6579 46.4663 83.7381 44.4652 81.3662 44.4652C78.9144 44.4652 76.9262 46.5988 76.9262 49.2298C76.9262 49.6548 76.9946 50.0588 77.0923 50.4514C76.5222 49.711 75.6706 49.2298 74.7062 49.2298C73.1247 49.2298 71.8344 50.5019 71.6382 52.141C71.4774 52.12 71.3203 52.0885 71.1542 52.0885C68.9475 52.0885 67.1582 54.0087 67.1582 56.3767C67.1582 58.7447 68.9475 60.6648 71.1542 60.6648C73.3609 60.6648 79.5902 60.6648 79.5902 60.6648H84.3632V61.1412H87.0272V60.6648Z" fill="#FDFCEF"/>
<path d="M81.3649 43.9888C78.6716 43.9888 76.4809 46.3396 76.4809 49.2298C76.4809 49.245 76.4809 49.2593 76.4809 49.2746C75.9463 48.9363 75.3354 48.7533 74.7049 48.7533C73.079 48.7533 71.6759 49.955 71.279 51.6169C71.2373 51.614 71.1955 51.6121 71.1529 51.6121C68.7047 51.6121 66.7129 53.7495 66.7129 56.3767C66.7129 59.0039 68.7047 61.1413 71.1529 61.1413H84.3619C84.607 61.1413 84.8059 60.9278 84.8059 60.6648C84.8059 60.4018 84.607 60.1883 84.3619 60.1883H71.1529C69.194 60.1883 67.6009 58.4788 67.6009 56.3767C67.6009 54.2745 69.194 52.565 71.1529 52.565C71.2568 52.565 71.3571 52.5812 71.4575 52.5955L71.5827 52.6136C71.6013 52.6165 71.6191 52.6174 71.6377 52.6174C71.8562 52.6174 72.048 52.4411 72.0773 52.201C72.2469 50.7783 73.3764 49.7063 74.7049 49.7063C75.4908 49.7063 76.2349 50.0884 76.7482 50.7545C76.8352 50.8669 76.9622 50.9279 77.091 50.9279C77.1602 50.9279 77.2295 50.9107 77.2934 50.8745C77.479 50.7726 77.5722 50.5448 77.519 50.3285C77.4168 49.914 77.3689 49.5652 77.3689 49.2298C77.3689 46.8656 79.1618 44.9417 81.3649 44.9417C83.4792 44.9417 85.225 46.7255 85.3378 49.004C85.3476 49.2022 85.471 49.3727 85.6477 49.4328C85.6921 49.448 85.7374 49.4556 85.7827 49.4556C85.9159 49.4556 86.0455 49.3899 86.1308 49.2727C86.8154 48.3369 87.8287 47.8004 88.9129 47.8004C90.8718 47.8004 92.4649 49.51 92.4649 51.6121C92.4649 51.7236 92.4498 51.8313 92.4365 51.9389L92.4196 52.0733C92.4054 52.201 92.4392 52.3287 92.5137 52.4287C92.5883 52.5288 92.6976 52.5926 92.8157 52.605C94.6414 52.8004 96.0169 54.4222 96.0169 56.3767C96.0169 58.4788 94.4238 60.1883 92.4649 60.1883H87.0259C86.7808 60.1883 86.5819 60.4018 86.5819 60.6648C86.5819 60.9278 86.7808 61.1413 87.0259 61.1413H92.4649C94.9131 61.1413 96.9049 59.0039 96.9049 56.3767C96.9049 54.0925 95.4051 52.1715 93.3502 51.7293C93.352 51.6902 93.3529 51.6512 93.3529 51.6121C93.3529 48.9849 91.3611 46.8475 88.9129 46.8475C87.8686 46.8475 86.8767 47.2439 86.0864 47.9567C85.5554 45.6659 83.6337 43.9888 81.3649 43.9888Z" fill="#472B29"/>
<path d="M80.0328 50.6592C78.7869 50.6592 77.716 51.6111 77.446 52.8899C77.1201 52.6784 76.748 52.565 76.3698 52.565C75.3024 52.565 74.4179 53.4198 74.2803 54.5356C74.1 54.4918 73.9286 54.4708 73.7617 54.4708C72.4039 54.4708 71.2655 55.6143 71.1705 57.0742C71.1616 57.2057 71.254 57.3201 71.3756 57.3296C71.381 57.3296 71.3863 57.3296 71.3916 57.3296C71.5071 57.3296 71.6047 57.2333 71.6127 57.1085C71.6918 55.8974 72.6348 54.9473 73.7608 54.9473C73.9642 54.9473 74.1782 54.9873 74.4162 55.0683C74.4357 55.075 74.4561 55.0778 74.4756 55.0778C74.5245 55.0778 74.5733 55.0588 74.6142 55.0264C74.671 54.9825 74.7048 54.9044 74.7048 54.8282C74.7048 53.8429 75.4516 53.0415 76.3698 53.0415C76.7667 53.0415 77.1556 53.2015 77.4629 53.4922C77.5046 53.5313 77.557 53.5522 77.6094 53.5522C77.6378 53.5522 77.6653 53.5465 77.692 53.5341C77.7701 53.5008 77.8234 53.4226 77.8296 53.3321C77.922 52.1 78.889 51.1356 80.0328 51.1356C80.2175 51.1356 80.4102 51.168 80.6384 51.2376C80.6588 51.2443 80.6801 51.2471 80.7005 51.2471C80.7973 51.2471 80.8843 51.1776 80.9128 51.0737C80.9465 50.947 80.8781 50.8154 80.76 50.7792C80.4919 50.6973 80.2601 50.6592 80.0328 50.6592ZM92.3609 52.0885C91.1834 52.0885 90.1338 52.9433 89.8088 54.1678C89.775 54.2945 89.8434 54.426 89.9615 54.4623C89.9828 54.468 90.0032 54.4708 90.0228 54.4708C90.1196 54.4708 90.2084 54.4022 90.2359 54.2974C90.5067 53.2778 91.3805 52.565 92.3609 52.565C92.4648 52.565 92.5651 52.5783 92.6646 52.5926C92.6752 52.5945 92.685 52.5955 92.6957 52.5955C92.8031 52.5955 92.899 52.5078 92.9141 52.3887C92.931 52.2582 92.8457 52.1381 92.7241 52.1209C92.6051 52.1038 92.4843 52.0885 92.3609 52.0885Z" fill="#472B29"/>
<path d="M29.7768 60.1883H20.9811C20.736 60.1883 20.5371 59.9749 20.5371 59.7119C20.5371 59.4489 20.736 59.2354 20.9811 59.2354H29.7768C30.0218 59.2354 30.2208 59.4489 30.2208 59.7119C30.2208 59.9749 30.0227 60.1883 29.7768 60.1883ZM32.5251 60.1883H31.6371C31.392 60.1883 31.1931 59.9749 31.1931 59.7119C31.1931 59.4489 31.392 59.2354 31.6371 59.2354H32.5251C32.7702 59.2354 32.9691 59.4489 32.9691 59.7119C32.9691 59.9749 32.7711 60.1883 32.5251 60.1883ZM36.9571 62.0942H28.9731C28.728 62.0942 28.5291 61.8807 28.5291 61.6177C28.5291 61.3547 28.728 61.1413 28.9731 61.1413H36.9571C37.2022 61.1413 37.4011 61.3547 37.4011 61.6177C37.4011 61.8807 37.2022 62.0942 36.9571 62.0942ZM27.1971 62.0942H26.3091C26.064 62.0942 25.8651 61.8807 25.8651 61.6177C25.8651 61.3547 26.064 61.1413 26.3091 61.1413H27.1971C27.4422 61.1413 27.6411 61.3547 27.6411 61.6177C27.6411 61.8807 27.4431 62.0942 27.1971 62.0942ZM24.5331 62.0942H22.7571C22.512 62.0942 22.3131 61.8807 22.3131 61.6177C22.3131 61.3547 22.512 61.1413 22.7571 61.1413H24.5331C24.7782 61.1413 24.9771 61.3547 24.9771 61.6177C24.9771 61.8807 24.7791 62.0942 24.5331 62.0942ZM29.8611 64H28.0851C27.84 64 27.6411 63.7866 27.6411 63.5236C27.6411 63.2605 27.84 63.0471 28.0851 63.0471H29.8611C30.1062 63.0471 30.3051 63.2605 30.3051 63.5236C30.3051 63.7866 30.1062 64 29.8611 64ZM32.5251 55.4238C32.3679 55.4238 31.7943 55.4238 31.6371 55.4238C31.392 55.4238 31.1931 55.6372 31.1931 55.9002C31.1931 56.1632 31.392 56.3767 31.6371 56.3767C31.7943 56.3767 32.3679 56.3767 32.5251 56.3767C32.7702 56.3767 32.9691 56.1632 32.9691 55.9002C32.9691 55.6372 32.7702 55.4238 32.5251 55.4238ZM32.5251 57.3296C32.3679 57.3296 28.2423 57.3296 28.0851 57.3296C27.84 57.3296 27.6411 57.543 27.6411 57.8061C27.6411 58.0691 27.84 58.2825 28.0851 58.2825C28.2423 58.2825 32.3679 58.2825 32.5251 58.2825C32.7702 58.2825 32.9691 58.0691 32.9691 57.8061C32.9691 57.543 32.7702 57.3296 32.5251 57.3296ZM36.9651 59.2354C36.8079 59.2354 34.4583 59.2354 34.3011 59.2354C34.056 59.2354 33.8571 59.4489 33.8571 59.7119C33.8571 59.9749 34.056 60.1883 34.3011 60.1883C34.4583 60.1883 36.8079 60.1883 36.9651 60.1883C37.2102 60.1883 37.4091 59.9749 37.4091 59.7119C37.4091 59.4489 37.2102 59.2354 36.9651 59.2354ZM80.4771 34.4596H71.5971C71.3521 34.4596 71.1531 34.2462 71.1531 33.9831C71.1531 33.7201 71.3521 33.5067 71.5971 33.5067H80.4771C80.7222 33.5067 80.9212 33.7201 80.9212 33.9831C80.9212 34.2462 80.7222 34.4596 80.4771 34.4596ZM84.0292 34.4596H82.2532C82.0081 34.4596 81.8092 34.2462 81.8092 33.9831C81.8092 33.7201 82.0081 33.5067 82.2532 33.5067H84.0292C84.2742 33.5067 84.4732 33.7201 84.4732 33.9831C84.4732 34.2462 84.2742 34.4596 84.0292 34.4596ZM88.4692 36.3654H79.5891C79.3441 36.3654 79.1451 36.152 79.1451 35.889C79.1451 35.626 79.3441 35.4125 79.5891 35.4125H88.4692C88.7142 35.4125 88.9132 35.626 88.9132 35.889C88.9132 36.152 88.7151 36.3654 88.4692 36.3654ZM77.8131 36.3654H76.9251C76.6801 36.3654 76.4811 36.152 76.4811 35.889C76.4811 35.626 76.6801 35.4125 76.9251 35.4125H77.8131C78.0582 35.4125 78.2571 35.626 78.2571 35.889C78.2571 36.152 78.0582 36.3654 77.8131 36.3654ZM75.0381 36.3654H73.3731C73.1281 36.3654 72.9291 36.152 72.9291 35.889C72.9291 35.626 73.1281 35.4125 73.3731 35.4125H75.0381C75.2832 35.4125 75.4821 35.626 75.4821 35.889C75.4821 36.152 75.2832 36.3654 75.0381 36.3654ZM83.1412 32.5538H78.7011C78.4561 32.5538 78.2571 32.3403 78.2571 32.0773C78.2571 31.8143 78.4561 31.6009 78.7011 31.6009H83.1412C83.3862 31.6009 83.5852 31.8143 83.5852 32.0773C83.5852 32.3403 83.3871 32.5538 83.1412 32.5538ZM80.4771 38.2713H78.7011C78.4561 38.2713 78.2571 38.0578 78.2571 37.7948C78.2571 37.5318 78.4561 37.3184 78.7011 37.3184H80.4771C80.7222 37.3184 80.9212 37.5318 80.9212 37.7948C80.9212 38.0578 80.7222 38.2713 80.4771 38.2713Z" fill="white"/>
<path d="M48.9551 79.5325C45.3809 79.5325 42.4727 76.4127 42.4727 72.5763V45.8946C42.4727 42.0591 45.38 38.9383 48.9551 38.9383H73.8191C77.3933 38.9383 80.3015 42.0582 80.3015 45.8946V72.5763C80.3015 76.4117 77.3942 79.5325 73.8191 79.5325H48.9551Z" fill="#FEFDEF"/>
<path d="M73.8196 39.6053C77.051 39.6053 79.6804 42.4269 79.6804 45.8946V72.5762C79.6804 76.0439 77.051 78.8655 73.8196 78.8655H48.9556C45.7241 78.8655 43.0948 76.0439 43.0948 72.5762V45.8946C43.0948 42.4269 45.7241 39.6053 48.9556 39.6053H73.8196ZM73.8196 38.2713H48.9556C45.0324 38.2713 41.8516 41.6846 41.8516 45.8946V72.5762C41.8516 76.7862 45.0324 80.1996 48.9556 80.1996H73.8196C77.7428 80.1996 80.9236 76.7862 80.9236 72.5762V45.8946C80.9236 41.6846 77.7428 38.2713 73.8196 38.2713Z" fill="#472B29"/>
<path d="M75.5393 45.8355H72.0983C71.8532 45.8355 71.6543 45.6221 71.6543 45.3591C71.6543 45.0961 71.8532 44.8826 72.0983 44.8826H75.5393C75.7844 44.8826 75.9833 45.0961 75.9833 45.3591C75.9833 45.6221 75.7844 45.8355 75.5393 45.8355Z" fill="#472B29"/>
<path d="M48.9546 74.423H42.7936C42.5485 74.423 42.3496 74.2096 42.3496 73.9466C42.3496 73.6836 42.5485 73.4701 42.7936 73.4701H48.9546C49.1996 73.4701 49.3986 73.6836 49.3986 73.9466C49.3986 74.2096 49.2005 74.423 48.9546 74.423Z" fill="#472B29"/>
<path d="M80.0313 74.423H51.6784C51.4333 74.423 51.2344 74.2096 51.2344 73.9466C51.2344 73.6836 51.4333 73.4701 51.6784 73.4701H80.0313C80.2764 73.4701 80.4753 73.6836 80.4753 73.9466C80.4753 74.2096 80.2764 74.423 80.0313 74.423Z" fill="#472B29"/>
<path d="M69.3328 45.8355H42.7487C42.5036 45.8355 42.3047 45.6221 42.3047 45.359C42.3047 45.096 42.5036 44.8826 42.7487 44.8826H69.3328C69.5779 44.8826 69.7768 45.096 69.7768 45.359C69.7768 45.6221 69.5787 45.8355 69.3328 45.8355Z" fill="#472B29"/>
<path d="M79.9778 45.8355H78.2018C77.9567 45.8355 77.7578 45.6221 77.7578 45.3591C77.7578 45.0961 77.9567 44.8826 78.2018 44.8826H79.9778C80.2229 44.8826 80.4218 45.0961 80.4218 45.3591C80.4218 45.6221 80.2229 45.8355 79.9778 45.8355Z" fill="#472B29"/>
<path d="M49.2327 41.191C48.9348 41.191 48.6491 41.318 48.4384 41.5441C48.2277 41.7701 48.1094 42.0767 48.1094 42.3964C48.1094 42.7161 48.2277 43.0228 48.4384 43.2488C48.6491 43.4749 48.9348 43.6019 49.2327 43.6019C49.5306 43.6019 49.8163 43.4749 50.027 43.2488C50.2377 43.0228 50.356 42.7161 50.356 42.3964C50.356 42.0767 50.2377 41.7701 50.027 41.5441C49.8163 41.318 49.5306 41.191 49.2327 41.191Z" fill="#EE3E54"/>
<path d="M49.2326 43.8868C48.4671 43.8868 47.8438 43.2179 47.8438 42.3965C47.8438 41.5741 48.4671 40.9061 49.2326 40.9061C49.998 40.9061 50.6214 41.575 50.6214 42.3965C50.6214 43.2179 49.998 43.8868 49.2326 43.8868ZM49.2326 41.4769C48.7602 41.4769 48.3757 41.8895 48.3757 42.3965C48.3757 42.9034 48.7602 43.316 49.2326 43.316C49.705 43.316 50.0895 42.9034 50.0895 42.3965C50.0895 41.8895 49.705 41.4769 49.2326 41.4769Z" fill="#472B29"/>
<path d="M53.1624 41.191C52.8645 41.191 52.5787 41.318 52.3681 41.5441C52.1574 41.7701 52.0391 42.0767 52.0391 42.3964C52.0391 42.7161 52.1574 43.0228 52.3681 43.2488C52.5787 43.4749 52.8645 43.6019 53.1624 43.6019C53.4603 43.6019 53.746 43.4749 53.9567 43.2488C54.1674 43.0228 54.2857 42.7161 54.2857 42.3964C54.2857 42.0767 54.1674 41.7701 53.9567 41.5441C53.746 41.318 53.4603 41.191 53.1624 41.191Z" fill="#F1BC19"/>
<path d="M53.1614 43.8868C52.3959 43.8868 51.7734 43.2179 51.7734 42.3965C51.7734 41.5741 52.3959 40.9061 53.1614 40.9061C53.9268 40.9061 54.5502 41.575 54.5502 42.3965C54.5502 43.2179 53.9268 43.8868 53.1614 43.8868ZM53.1614 41.4769C52.6899 41.4769 52.3054 41.8895 52.3054 42.3965C52.3054 42.9034 52.6899 43.316 53.1614 43.316C53.6338 43.316 54.0183 42.9034 54.0183 42.3965C54.0183 41.8895 53.6338 41.4769 53.1614 41.4769Z" fill="#472B29"/>
<path d="M57.0921 41.191C56.7941 41.191 56.5084 41.318 56.2978 41.5441C56.0871 41.7701 55.9688 42.0767 55.9688 42.3964C55.9688 42.7162 56.0871 43.0228 56.2978 43.2488C56.5084 43.4749 56.7941 43.6019 57.0921 43.6019C57.39 43.6019 57.6757 43.4749 57.8864 43.2488C58.097 43.0228 58.2154 42.7162 58.2154 42.3964C58.2154 42.0767 58.097 41.7701 57.8864 41.5441C57.6757 41.318 57.39 41.191 57.0921 41.191Z" fill="#88AE45"/>
<path d="M57.0939 43.8868C56.3285 43.8868 55.7051 43.2179 55.7051 42.3965C55.7051 41.5741 56.3285 40.9061 57.0939 40.9061C57.8594 40.9061 58.4819 41.575 58.4819 42.3965C58.4819 43.2179 57.8594 43.8868 57.0939 43.8868ZM57.0939 41.4769C56.6215 41.4769 56.237 41.8895 56.237 42.3965C56.237 42.9034 56.6215 43.316 57.0939 43.316C57.5654 43.316 57.9499 42.9034 57.9499 42.3965C57.9491 41.8895 57.5654 41.4769 57.0939 41.4769Z" fill="#472B29"/>
<path d="M48.5094 82.5819C48.5094 82.5819 49.9009 82.5819 51.6174 82.5819C53.3339 82.5819 54.7254 81.0887 54.7254 79.2467C54.7254 77.5495 53.5399 76.1649 52.0126 75.9543C52.0374 75.7838 52.0614 75.6132 52.0614 75.435C52.0614 73.593 50.6699 72.0998 48.9534 72.0998C48.037 72.0998 47.2218 72.5334 46.6535 73.21C46.3125 71.4871 44.889 70.194 43.1814 70.194C41.2198 70.194 39.6294 71.9006 39.6294 74.0056C39.6294 74.1876 39.656 74.362 39.6791 74.5374C39.2991 74.2096 38.8231 74.0056 38.2974 74.0056C37.2069 74.0056 36.3038 74.8509 36.1174 75.9639C35.9584 75.9372 35.7994 75.9115 35.6334 75.9115C33.9169 75.9115 32.5254 77.4047 32.5254 79.2467C32.5254 81.0887 33.9169 82.5819 35.6334 82.5819C37.3499 82.5819 42.2934 82.5819 42.2934 82.5819V83.0583H48.5094V82.5819Z" fill="#FDFCEF"/>
<path d="M50.063 78.2938C49.9405 78.2938 49.841 78.187 49.841 78.0555C49.841 76.8901 50.7246 75.942 51.8106 75.942C51.8408 75.9505 52.465 75.941 52.9153 76.0716C53.0334 76.1059 53.1035 76.2364 53.0716 76.3632C53.0396 76.4908 52.9179 76.5661 52.7998 76.5309C52.4056 76.4165 51.823 76.4165 51.8115 76.4184C50.9697 76.4184 50.285 77.1531 50.285 78.0555C50.285 78.187 50.1855 78.2938 50.063 78.2938ZM44.069 82.1054C43.9512 82.1054 43.8383 82.1556 43.755 82.245C43.6718 82.3343 43.625 82.4555 43.625 82.5819C43.625 82.7083 43.6718 82.8294 43.755 82.9188C43.8383 83.0081 43.9512 83.0583 44.069 83.0583C44.1868 83.0583 44.2997 83.0081 44.383 82.9188C44.4662 82.8294 44.513 82.7083 44.513 82.5819C44.513 82.4555 44.4662 82.3343 44.383 82.245C44.2997 82.1556 44.1868 82.1054 44.069 82.1054Z" fill="#472B29"/>
<path d="M51.618 83.0583H48.51C48.265 83.0583 48.066 82.8449 48.066 82.5819C48.066 82.3189 48.265 82.1054 48.51 82.1054H51.618C53.0868 82.1054 54.282 80.8228 54.282 79.2467C54.282 77.8211 53.283 76.609 51.9573 76.427C51.8383 76.4098 51.7308 76.3431 51.6589 76.2402C51.587 76.1373 51.5568 76.0077 51.5754 75.881C51.5958 75.7342 51.618 75.5875 51.618 75.435C51.618 73.8589 50.4228 72.5763 48.954 72.5763C48.1992 72.5763 47.4995 72.9145 46.9836 73.5292C46.8726 73.6616 46.6985 73.7179 46.5396 73.6702C46.378 73.6235 46.2545 73.4844 46.2199 73.3091C45.9171 71.7806 44.6392 70.6704 43.182 70.6704C41.4682 70.6704 40.074 72.1665 40.074 74.0056C40.074 74.1419 40.0927 74.2725 40.1104 74.404C40.1362 74.5974 40.0545 74.8213 39.8955 74.9185C39.7366 75.0157 39.5439 75.031 39.4018 74.909C39.0777 74.6298 38.6967 74.4821 38.298 74.4821C37.4402 74.4821 36.7067 75.1406 36.5549 76.0487C36.5123 76.3031 36.292 76.4737 36.0496 76.4346C35.9129 76.4118 35.7761 76.3879 35.634 76.3879C34.1653 76.3879 32.97 77.6706 32.97 79.2467C32.97 80.8228 34.1653 82.1054 35.634 82.1054H42.294C42.5391 82.1054 42.738 82.3189 42.738 82.5819C42.738 82.8449 42.5391 83.0583 42.294 83.0583H35.634C33.6751 83.0583 32.082 81.3488 32.082 79.2467C32.082 77.1445 33.6751 75.435 35.634 75.435C35.6864 75.435 35.737 75.4369 35.7885 75.4407C36.1562 74.3106 37.1534 73.5292 38.298 73.5292C38.6079 73.5292 38.9099 73.5873 39.1958 73.7007C39.3423 71.4776 41.0739 69.7175 43.182 69.7175C44.808 69.7175 46.2598 70.7914 46.8699 72.3609C47.4737 71.8863 48.2037 71.6233 48.954 71.6233C50.913 71.6233 52.506 73.3329 52.506 75.435C52.506 75.4808 52.5052 75.5255 52.5025 75.5703C54.0503 75.9972 55.17 77.5019 55.17 79.2467C55.17 81.3488 53.577 83.0583 51.618 83.0583Z" fill="#472B29"/>
<path d="M46.7343 82.1054C46.5932 82.1054 45.9875 82.1054 45.8463 82.1054C45.6013 82.1054 45.4023 82.3189 45.4023 82.5819C45.4023 82.8449 45.6013 83.0583 45.8463 83.0583C45.9875 83.0583 46.5932 83.0583 46.7343 83.0583C46.9794 83.0583 47.1783 82.8449 47.1783 82.5819C47.1783 82.3189 46.9794 82.1054 46.7343 82.1054Z" fill="#472B29"/>
<path d="M76.485 50.6001H52.5045C52.2595 50.6001 52.0605 50.3866 52.0605 50.1236C52.0605 49.8606 52.2595 49.6472 52.5045 49.6472H76.485C76.7301 49.6472 76.929 49.8606 76.929 50.1236C76.929 50.3866 76.7301 50.6001 76.485 50.6001Z" fill="#472B29"/>
<path d="M76.485 55.3647H52.5045C52.2595 55.3647 52.0605 55.1512 52.0605 54.8882C52.0605 54.6252 52.2595 54.4118 52.5045 54.4118H76.485C76.7301 54.4118 76.929 54.6252 76.929 54.8882C76.929 55.1512 76.7301 55.3647 76.485 55.3647Z" fill="#472B29"/>
<path d="M76.485 60.1292H52.5045C52.2595 60.1292 52.0605 59.9158 52.0605 59.6528C52.0605 59.3898 52.2595 59.1763 52.5045 59.1763H76.485C76.7301 59.1763 76.929 59.3898 76.929 59.6528C76.929 59.9158 76.7301 60.1292 76.485 60.1292Z" fill="#472B29"/>
<path d="M76.485 64.8938H52.5045C52.2595 64.8938 52.0605 64.6804 52.0605 64.4174C52.0605 64.1544 52.2595 63.9409 52.5045 63.9409H76.485C76.7301 63.9409 76.929 64.1544 76.929 64.4174C76.929 64.6804 76.7301 64.8938 76.485 64.8938Z" fill="#472B29"/>
<path d="M76.485 69.6584H52.5045C52.2595 69.6584 52.0605 69.445 52.0605 69.182C52.0605 68.919 52.2595 68.7055 52.5045 68.7055H76.485C76.7301 68.7055 76.929 68.919 76.929 69.182C76.929 69.445 76.7301 69.6584 76.485 69.6584Z" fill="#472B29"/>
<path d="M66.3231 85.9552C66.2095 85.9552 66.0958 85.9085 66.0088 85.8161C65.8356 85.6302 65.8356 85.3282 66.0088 85.1423L68.481 82.4885C68.6541 82.3027 68.9356 82.3027 69.1088 82.4885C69.2819 82.6743 69.2819 82.9764 69.1088 83.1622L66.6366 85.8161C66.5505 85.9094 66.4368 85.9552 66.3231 85.9552Z" fill="#472B29"/>
<path d="M55.7819 96.9147L55.6656 96.7898C54.7261 95.7817 54.7261 94.1312 55.6656 93.123L62.8477 85.4158C63.7872 84.4076 65.3252 84.4076 66.2647 85.4158L66.3811 85.5407C67.3206 86.5488 67.3206 88.1993 66.3811 89.2075L59.1989 96.9147C58.2594 97.9238 56.7214 97.9238 55.7819 96.9147Z" fill="#88AE45"/>
<path d="M57.4898 98.1497C56.758 98.1497 56.0254 97.8504 55.4678 97.252L55.3515 97.1272C54.237 95.9303 54.237 93.9835 55.3515 92.7866L62.5336 85.0795C63.6472 83.8836 65.4622 83.8816 66.5793 85.0795L66.6957 85.2043C67.2329 85.7808 67.5295 86.5527 67.5295 87.3741C67.5295 88.1964 67.2329 88.9674 66.6948 89.5448L59.5135 97.252C58.955 97.8504 58.2224 98.1497 57.4898 98.1497ZM56.0947 96.5783C56.8628 97.4035 58.1158 97.4016 58.8848 96.5783L66.0661 88.8711C66.4373 88.4737 66.6406 87.942 66.6406 87.3741C66.6406 86.8071 66.4373 86.2754 66.0661 85.878L65.9497 85.7532C65.1807 84.928 63.9304 84.928 63.1605 85.7532L55.9784 93.4604C55.2103 94.2856 55.2103 95.6282 55.9784 96.4535L56.0947 96.5783Z" fill="#472B29"/>
<path d="M66.0593 85.7503C65.2397 84.8708 63.9512 84.8126 63.1973 85.6217L63.0605 85.7684L63.3589 86.0886L66.0425 88.9683L66.1792 88.8216C66.9331 88.0125 66.8789 86.6308 66.0593 85.7503Z" fill="#D1DC82"/>
<path d="M66.0457 89.7116C65.9604 89.7116 65.8752 89.6764 65.8095 89.6068L62.6304 86.1944C62.5008 86.0553 62.5008 85.8285 62.6304 85.6894C62.7601 85.5502 62.9723 85.5502 63.102 85.6894L66.281 89.1017C66.4107 89.2409 66.4107 89.4677 66.281 89.6068C66.2171 89.6764 66.1309 89.7116 66.0457 89.7116Z" fill="#472B29"/>
<path opacity="0.74" d="M76.5879 65.0768C74.2688 65.0768 72.0447 66.0654 70.4048 67.8251C68.765 69.5848 67.8438 71.9715 67.8438 74.4601C67.8438 76.9488 68.765 79.3355 70.4048 81.0952C72.0447 82.8549 74.2688 83.8435 76.5879 83.8435C78.907 83.8435 81.1311 82.8549 82.7709 81.0952C84.4108 79.3355 85.332 76.9488 85.332 74.4601C85.332 71.9715 84.4108 69.5848 82.7709 67.8251C81.1311 66.0654 78.907 65.0768 76.5879 65.0768Z" fill="#77CBD2"/>
<path d="M84.341 66.1431C80.0484 61.5367 73.0882 61.5367 68.7956 66.1431C64.503 70.7495 64.503 78.2185 68.7956 82.8249C73.0882 87.4313 80.0484 87.4313 84.341 82.8249C88.6344 78.2185 88.6344 70.7495 84.341 66.1431ZM82.7514 81.1191C79.3371 84.7831 73.8004 84.7831 70.386 81.1191C66.9717 77.4552 66.9717 71.5138 70.386 67.8498C73.8004 64.1858 79.3371 64.1858 82.7514 67.8498C86.1658 71.5138 86.1658 77.4552 82.7514 81.1191Z" fill="#FDFCEF"/>
<path d="M76.5673 86.7499C73.6387 86.7499 70.7101 85.554 68.4812 83.1612C64.0226 78.3766 64.0226 70.5913 68.4812 65.8058C72.9407 61.0202 80.1957 61.0221 84.6544 65.8058C89.113 70.5904 89.113 78.3757 84.6544 83.1612C82.4246 85.554 79.496 86.7499 76.5673 86.7499ZM76.5673 63.171C73.866 63.171 71.1656 64.2735 69.109 66.4804C64.9958 70.8934 64.9958 78.0746 69.109 82.4885C73.2231 86.9014 79.9142 86.8995 84.0265 82.4885C88.1398 78.0755 88.1398 70.8943 84.0265 66.4804C81.9699 64.2744 79.2686 63.171 76.5673 63.171ZM76.5673 84.3438C74.1129 84.3438 71.8068 83.3185 70.0716 81.4565C68.3365 79.5945 67.381 77.1188 67.381 74.4849C67.381 71.8511 68.3365 69.3754 70.0716 67.5134C71.8068 65.6504 74.1138 64.6251 76.5673 64.6251C79.0209 64.6251 81.3288 65.6504 83.064 67.5134C84.7991 69.3754 85.7555 71.8511 85.7555 74.4849C85.7555 77.1188 84.7991 79.5945 83.064 81.4565C81.3288 83.3185 79.0218 84.3438 76.5673 84.3438ZM76.5673 65.578C74.3509 65.578 72.2659 66.5043 70.6994 68.1871C69.1312 69.869 68.269 72.1055 68.269 74.4849C68.269 76.8644 69.1321 79.1009 70.6994 80.7828C72.2668 82.4647 74.3509 83.3909 76.5673 83.3909C78.7847 83.3909 80.8688 82.4647 82.4361 80.7828C84.0035 79.1009 84.8675 76.8644 84.8675 74.4849C84.8675 72.1055 84.0035 69.869 82.4361 68.1871C80.8688 66.5043 78.7847 65.578 76.5673 65.578ZM56.9372 97.7189C56.8901 97.7189 56.8466 97.6865 56.8315 97.636L55.6087 93.5576C55.5901 93.4956 55.623 93.428 55.6807 93.4079C55.7384 93.3889 55.8014 93.4222 55.8201 93.4851L57.0429 97.5636C57.0615 97.6256 57.0287 97.6932 56.9709 97.7132C56.9594 97.717 56.9479 97.7189 56.9372 97.7189ZM57.7124 97.4359C57.6645 97.4359 57.6201 97.4026 57.6059 97.3511L56.2188 92.3531C56.201 92.2902 56.2357 92.2235 56.2934 92.2054C56.3564 92.1854 56.4151 92.2235 56.4319 92.2854L57.819 97.2835C57.8367 97.3463 57.8021 97.4131 57.7444 97.4312C57.7328 97.435 57.7222 97.4359 57.7124 97.4359Z" fill="#472B29"/>
<path d="M58.1781 95.6797C58.1301 95.6797 58.0857 95.6463 58.0715 95.5949L56.9109 91.4125C56.8932 91.3496 56.9278 91.2829 56.9855 91.2648C57.0503 91.2458 57.1072 91.2829 57.124 91.3449L58.2847 95.5272C58.3024 95.5901 58.2678 95.6568 58.2101 95.6749C58.1994 95.6787 58.1888 95.6797 58.1781 95.6797Z" fill="#472B29"/>
<path d="M58.6517 93.8463C58.6038 93.8463 58.5594 93.8129 58.5452 93.7615L57.7273 90.8132C57.7096 90.7503 57.7442 90.6836 57.8019 90.6655C57.865 90.6454 57.9236 90.6836 57.9404 90.7455L58.7583 93.6938C58.7761 93.7567 58.7414 93.8234 58.6837 93.8415C58.673 93.8444 58.6624 93.8463 58.6517 93.8463Z" fill="#472B29"/>
<path d="M47.9108 52.3249L45.6553 49.9064C45.4821 49.7206 45.4821 49.4185 45.6553 49.2327C45.8284 49.0469 46.1099 49.0469 46.2831 49.2327L47.814 50.8755L50.3466 47.2525C50.494 47.0419 50.7719 46.9981 50.9682 47.1563C51.1644 47.3145 51.2044 47.6127 51.057 47.8233L47.9108 52.3249Z" fill="#472B29"/>
<path d="M47.9108 60.9011L45.6553 58.4826C45.4821 58.2968 45.4821 57.9947 45.6553 57.8089C45.8284 57.6231 46.1099 57.6231 46.2831 57.8089L47.814 59.4517L50.3466 55.8287C50.494 55.6181 50.7719 55.5753 50.9682 55.7325C51.1644 55.8907 51.2044 56.1889 51.057 56.3995L47.9108 60.9011Z" fill="#472B29"/>
<path d="M47.9108 69.4774L45.6553 67.0589C45.4821 66.873 45.4821 66.571 45.6553 66.3851C45.8284 66.1993 46.1099 66.1993 46.2831 66.3851L47.814 68.028L50.3466 64.405C50.494 64.1934 50.7719 64.1525 50.9682 64.3087C51.1644 64.4669 51.2044 64.7652 51.057 64.9758L47.9108 69.4774Z" fill="#472B29"/>
</svg>
