<svg width="121" height="120" viewBox="0 0 121 120" fill="none" xmlns="http://www.w3.org/2000/svg">
<path d="M118.264 45.016C124.763 68.6838 113.829 95.6872 95.7266 109.273C77.6248 122.956 52.2637 123.124 31.9114 109.111C11.4677 95.0002 -3.96773 66.6105 2.1671 42.7613C8.39339 19.0091 36.2809 -0.203154 62.101 0.406166C88.012 1.01488 111.855 21.3476 118.264 45.016Z" fill="#FFF3DA"/>
<path d="M94.8709 66.1287C95.1373 65.5417 95.3735 64.9242 95.5777 64.2772C97.9158 56.873 94.3798 48.0033 86.9348 45.8621C86.1303 35.015 79.0263 27.5737 71.0032 26.3035C61.8204 24.8503 53.4083 31.11 50.6094 41.0594C47.2358 39.7768 43.9485 39.933 40.8502 41.876C39.4445 42.5736 38.1587 43.6027 37.0052 44.9568C35.3118 46.9446 34.2107 49.4536 33.7622 52.0989C33.098 52.2114 32.4453 52.3238 31.8299 52.5601C28.2424 53.9409 25.9789 56.7825 25.3582 61.063C24.9719 63.7283 25.7516 66.3869 26.1867 67.4609C27.905 71.7061 31.8894 74.1122 35.9378 73.4757C36.1394 73.4442 36.4324 73.5414 36.6056 73.6977C36.8196 80.4825 39.8894 86.483 44.4946 89.9106C51.8836 95.4109 61.3906 93.7166 67.3881 86.1743C69.958 88.9949 73.0163 90.3652 76.6091 89.8678C80.1816 89.3732 82.9557 87.2577 84.9794 83.8177C85.9145 84.0874 86.8007 84.4762 87.7171 84.5838C91.3064 85.005 94.1969 83.4556 96.3592 80.0098C96.4329 79.8917 96.5394 79.8012 96.6309 79.6973C96.9399 78.9369 97.2489 78.1764 97.558 77.416C97.6956 76.262 97.9389 75.1071 97.9513 73.955C97.986 70.8523 96.804 68.025 94.8709 66.1287Z" fill="#C8EDE6"/>
<path d="M49.674 78.8721C49.674 78.8721 60.0556 78.8721 60.1186 78.8721C62.5162 78.8721 64.4592 76.7861 64.4592 74.2133C64.4592 71.9691 62.9798 70.0957 61.0102 69.6545C61.0333 69.4582 61.0484 69.259 61.0484 69.0561C61.0484 66.3917 59.0353 64.2315 56.5524 64.2315C55.0863 64.2315 53.7881 64.9881 52.9675 66.1535C52.758 63.1871 50.2885 60.8991 47.3998 61.2784C45.2872 61.5557 43.5405 63.3081 43.1516 65.5532C43.0273 66.2736 43.0397 66.972 43.164 67.6277C42.5975 66.973 41.7912 66.5613 40.8934 66.5613C39.2506 66.5613 37.9088 67.9345 37.8032 69.6688C37.0572 69.4916 36.2456 69.503 35.3905 69.8479C33.7565 70.5064 32.5933 72.1569 32.5249 74.0284C32.4281 76.6861 34.4075 78.874 36.8628 78.874C37.0493 78.874 37.7046 78.874 37.8556 78.874H46.8714" fill="#FDFCEF"/>
<path d="M60.1189 79.3485H49.6743C49.4292 79.3485 49.2303 79.1351 49.2303 78.8721C49.2303 78.609 49.4292 78.3956 49.6743 78.3956H60.1189C62.267 78.3956 64.0155 76.5193 64.0155 74.2132C64.0155 72.2445 62.7137 70.5226 60.9199 70.1205C60.6935 70.07 60.5416 69.8422 60.5701 69.5964C60.5905 69.4191 60.6047 69.239 60.6047 69.0561C60.6047 66.6585 58.7869 64.7079 56.5527 64.7079C55.2749 64.7079 54.0974 65.3397 53.3222 66.4403C53.2112 66.5994 53.022 66.669 52.8427 66.6099C52.666 66.5537 52.539 66.3869 52.5257 66.1897C52.4333 64.8775 51.8339 63.6445 50.8829 62.8078C49.9211 61.9626 48.7046 61.5862 47.4552 61.751C45.5318 62.0035 43.9422 63.6025 43.5897 65.6399C43.4796 66.2764 43.4831 66.9139 43.6004 67.5323C43.6403 67.741 43.5453 67.9535 43.3686 68.0507C43.1919 68.1479 42.9752 68.107 42.8402 67.9516C42.3296 67.3618 41.6388 67.0378 40.8955 67.0378C39.5022 67.0378 38.3398 68.207 38.2484 69.7002C38.2395 69.8394 38.1756 69.967 38.0717 70.05C37.9678 70.1329 37.8346 70.1634 37.7094 70.1338C36.9634 69.9566 36.2557 70.009 35.5489 70.2929C34.0668 70.8895 33.0314 72.3979 32.971 74.0455C32.9293 75.1957 33.3146 76.2849 34.0561 77.112C34.7976 77.9391 35.7957 78.3956 36.8658 78.3956H46.8718C47.1168 78.3956 47.3158 78.609 47.3158 78.8721C47.3158 79.1351 47.1168 79.3485 46.8718 79.3485H36.8649C35.5515 79.3485 34.3261 78.7892 33.4159 77.7724C32.5057 76.7566 32.0324 75.4196 32.0839 74.0084C32.1576 71.9825 33.4248 70.1309 35.2372 69.401C35.9476 69.1151 36.6819 69.0208 37.4288 69.1161C37.7635 67.3799 39.2021 66.0839 40.8964 66.0839C41.5038 66.0839 42.0988 66.2545 42.6227 66.5699C42.6227 66.203 42.6538 65.8342 42.7177 65.4655C43.1404 63.0241 45.0442 61.1078 47.3486 60.8057C48.8413 60.6094 50.2977 61.0592 51.4467 62.0712C52.3383 62.8554 52.9705 63.9303 53.2565 65.1138C54.1551 64.241 55.3158 63.755 56.5545 63.755C59.278 63.755 61.4945 66.1335 61.4945 69.0561C61.4945 69.1352 61.4927 69.2142 61.4882 69.2933C63.4898 69.9337 64.9053 71.9396 64.9053 74.2142C64.9035 77.0444 62.7572 79.3485 60.1189 79.3485Z" fill="#472B29"/>
<path d="M47.1586 68.6101C45.5531 68.4967 44.1705 69.6869 44.0719 71.2678C44.0595 71.4641 44.0674 71.6575 44.0941 71.8453C43.7842 71.4698 43.326 71.2154 42.7994 71.1782C41.8359 71.1106 41.0038 71.7928 40.8831 72.7219C40.7081 72.6705 40.5252 72.6362 40.3361 72.6228C38.9312 72.5237 37.7218 73.5653 37.6348 74.9489" fill="#FDFCEF"/>
<path d="M37.6365 75.1862C37.6312 75.1862 37.6259 75.1862 37.6214 75.1862C37.4989 75.1776 37.4066 75.0642 37.4145 74.9327C37.5087 73.4214 38.8229 72.2827 40.352 72.3856C40.4719 72.3941 40.5927 72.4113 40.7144 72.4361C40.9568 71.5136 41.8332 70.8704 42.8154 70.9419C43.1928 70.9686 43.5462 71.0944 43.8481 71.3059C43.849 71.2878 43.8499 71.2697 43.8508 71.2525C43.9582 69.544 45.4474 68.2623 47.1737 68.3738C47.2962 68.3824 47.3886 68.4958 47.3806 68.6273C47.3726 68.7588 47.2705 68.8607 47.1444 68.8493C45.6756 68.7445 44.3845 69.8384 44.2939 71.2849C44.2823 71.4603 44.2894 71.6375 44.3143 71.811C44.3294 71.9158 44.2779 72.0177 44.1891 72.0635C44.1021 72.1083 43.9946 72.0844 43.9289 72.0054C43.6465 71.6633 43.2292 71.4489 42.7861 71.4174C41.946 71.3536 41.2099 71.9453 41.1042 72.7563C41.0953 72.8239 41.0598 72.8839 41.0065 72.9221C40.9532 72.9602 40.8884 72.9716 40.8254 72.9535C40.6584 72.9049 40.4888 72.8735 40.3219 72.862C39.0511 72.7629 37.9349 73.7149 37.8568 74.9661C37.8497 75.0899 37.752 75.1862 37.6365 75.1862Z" fill="#472B29"/>
<path d="M61.8748 70.2005C60.366 69.4372 58.6211 69.9775 57.9773 71.4079C57.8974 71.5851 57.8379 71.769 57.7988 71.9548" fill="#FDFCEF"/>
<path d="M57.8005 72.1921C57.7845 72.1921 57.7677 72.1902 57.7508 72.1864C57.6309 72.1569 57.5563 72.0292 57.5838 71.9015C57.6274 71.6956 57.6931 71.4946 57.7783 71.305C58.4736 69.7603 60.3535 69.1685 61.9706 69.9861C62.0816 70.0423 62.1295 70.1843 62.0771 70.3034C62.0256 70.4226 61.8924 70.4731 61.7814 70.4178C60.3837 69.7098 58.7675 70.2024 58.1779 71.5136C58.1069 71.6709 58.0527 71.8376 58.0163 72.0092C57.9932 72.1168 57.9017 72.1921 57.8005 72.1921Z" fill="#472B29"/>
<path d="M32.414 58.5397H23.5065C23.2614 58.5397 23.0625 58.3262 23.0625 58.0632C23.0625 57.8002 23.2614 57.5868 23.5065 57.5868H32.414C32.6591 57.5868 32.858 57.8002 32.858 58.0632C32.858 58.3262 32.6591 58.5397 32.414 58.5397ZM34.9715 58.5397H33.6874C33.4423 58.5397 33.2434 58.3262 33.2434 58.0632C33.2434 57.8002 33.4423 57.5868 33.6874 57.5868H34.9715C35.2166 57.5868 35.4155 57.8002 35.4155 58.0632C35.4155 58.3262 35.2175 58.5397 34.9715 58.5397ZM38.5723 58.5397H36.3115C36.0664 58.5397 35.8675 58.3262 35.8675 58.0632C35.8675 57.8002 36.0664 57.5868 36.3115 57.5868H38.5723C38.8174 57.5868 39.0163 57.8002 39.0163 58.0632C39.0163 58.3262 38.8174 58.5397 38.5723 58.5397ZM38.5723 60.3169H30.0333C29.7882 60.3169 29.5893 60.1034 29.5893 59.8404C29.5893 59.5774 29.7882 59.364 30.0333 59.364H38.5723C38.8174 59.364 39.0163 59.5774 39.0163 59.8404C39.0163 60.1034 38.8174 60.3169 38.5723 60.3169ZM28.4953 60.3169H27.9802C27.7352 60.3169 27.5362 60.1034 27.5362 59.8404C27.5362 59.5774 27.7352 59.364 27.9802 59.364H28.4953C28.7404 59.364 28.9393 59.5774 28.9393 59.8404C28.9393 60.1034 28.7413 60.3169 28.4953 60.3169ZM26.3845 60.3169H25.0907C24.8456 60.3169 24.6467 60.1034 24.6467 59.8404C24.6467 59.5774 24.8456 59.364 25.0907 59.364H26.3845C26.6296 59.364 26.8285 59.5774 26.8285 59.8404C26.8285 60.1034 26.6305 60.3169 26.3845 60.3169ZM34.4973 56.7625H30.0333C29.7882 56.7625 29.5893 56.5491 29.5893 56.2861C29.5893 56.023 29.7882 55.8096 30.0333 55.8096H34.4973C34.7424 55.8096 34.9413 56.023 34.9413 56.2861C34.9413 56.5491 34.7433 56.7625 34.4973 56.7625ZM34.4973 54.9853H33.3811C33.136 54.9853 32.9371 54.7719 32.9371 54.5089C32.9371 54.2459 33.136 54.0324 33.3811 54.0324H34.4973C34.7424 54.0324 34.9413 54.2459 34.9413 54.5089C34.9413 54.7719 34.7433 54.9853 34.4973 54.9853ZM31.5953 62.0941H30.0333C29.7882 62.0941 29.5893 61.8806 29.5893 61.6176C29.5893 61.3546 29.7882 61.1412 30.0333 61.1412H31.5953C31.8404 61.1412 32.0393 61.3546 32.0393 61.6176C32.0393 61.8806 31.8404 62.0941 31.5953 62.0941Z" fill="white"/>
<path d="M92.8931 60.6532C94.5652 60.6532 96.0162 60.6532 96.0367 60.6532C97.9103 60.6532 99.4297 59.0581 99.4297 57.0903C99.4297 55.3731 98.2735 53.9409 96.7346 53.6026C96.7524 53.4521 96.7648 53.3005 96.7648 53.1452C96.7648 51.1069 95.1913 49.4546 93.251 49.4546C92.1055 49.4546 91.0905 50.033 90.4494 50.9249C90.2851 48.656 88.3555 46.9055 86.0982 47.1962C84.4474 47.4087 83.0816 48.7485 82.7779 50.4656C82.6803 51.0164 82.6909 51.551 82.7877 52.0522C82.3455 51.5519 81.715 51.2365 81.0135 51.2365C79.7294 51.2365 78.6807 52.2866 78.5981 53.6131C78.0147 53.4778 77.3807 53.4864 76.7129 53.7494C75.4359 54.2525 74.5266 55.5151 74.4734 56.9474C74.3979 58.9799 75.9448 60.6532 77.8637 60.6532C78.0094 60.6532 78.5217 60.6532 78.6399 60.6532H85.6852M87.1407 60.6532H87.4604H87.1407Z" fill="#FDFCEF"/>
<path d="M96.0356 61.1307H92.8921C92.647 61.1307 92.4481 60.9172 92.4481 60.6542C92.4481 60.3912 92.647 60.1778 92.8921 60.1778H96.0356C97.6615 60.1778 98.9846 58.7932 98.9846 57.0903C98.9846 55.6381 98.0007 54.3678 96.6439 54.0705C96.4165 54.021 96.2629 53.7913 96.2922 53.5436C96.3082 53.413 96.3189 53.2806 96.3189 53.1462C96.3189 51.3738 94.9416 49.932 93.249 49.932C92.2793 49.932 91.386 50.3999 90.7982 51.2165C90.6863 51.3728 90.4971 51.4367 90.3195 51.3814C90.1437 51.3252 90.0185 51.1584 90.0043 50.9621C89.9341 49.9911 89.5026 49.1106 88.7886 48.4817C88.0525 47.8327 87.1138 47.5459 86.1486 47.6698C84.6869 47.8575 83.4793 49.0439 83.2111 50.5552C83.1276 51.026 83.1312 51.4976 83.22 51.956C83.2599 52.1647 83.1667 52.3762 82.9909 52.4744C82.815 52.5725 82.6001 52.5354 82.4625 52.38C82.0824 51.9493 81.5665 51.713 81.0106 51.713C79.9725 51.713 79.1059 52.5621 79.0384 53.6455C79.0295 53.7837 78.9656 53.9114 78.8625 53.9943C78.7595 54.0781 78.629 54.1086 78.5011 54.0791C77.9337 53.9466 77.3982 53.9857 76.8628 54.1973C75.7421 54.6394 74.9589 55.7524 74.9136 56.9674C74.8825 57.8012 75.1649 58.595 75.7084 59.201C76.2722 59.8309 77.0368 60.1778 77.86 60.1778H85.6815C85.9266 60.1778 86.1255 60.3912 86.1255 60.6542C86.1255 60.9172 85.9266 61.1307 85.6815 61.1307H77.86C76.8077 61.1307 75.7901 60.6685 75.0672 59.8614C74.3551 59.0657 73.9856 58.0242 74.0265 56.9293C74.086 55.3341 75.1028 53.8761 76.5564 53.3034C77.0981 53.09 77.6593 53.0118 78.2258 53.0709C78.5313 51.7406 79.6724 50.761 81.0097 50.761C81.4475 50.761 81.8764 50.8687 82.2654 51.0688C82.2734 50.8392 82.2973 50.6086 82.3382 50.378C82.6774 48.4626 84.2003 46.9608 86.042 46.7245C87.2497 46.5711 88.4254 46.9322 89.3507 47.746C90.0149 48.3311 90.4856 49.0896 90.7236 49.9396C91.426 49.3221 92.3086 48.98 93.2473 48.98C95.43 48.98 97.2051 50.8497 97.2051 53.1471C97.2051 53.1795 97.2051 53.2119 97.2042 53.2453C98.7706 53.7742 99.8709 55.3303 99.8709 57.0922C99.8726 59.3182 98.1508 61.1307 96.0356 61.1307ZM87.4593 61.1307H87.1405C86.8954 61.1307 86.6965 60.9172 86.6965 60.6542C86.6965 60.3912 86.8954 60.1778 87.1405 60.1778H87.4593C87.7044 60.1778 87.9033 60.3912 87.9033 60.6542C87.9033 60.9172 87.7044 61.1307 87.4593 61.1307Z" fill="#472B29"/>
<path d="M94.5189 55.5999C94.503 55.5999 94.487 55.598 94.4701 55.5942C94.3502 55.5656 94.2756 55.4379 94.3023 55.3093C94.336 55.1502 94.3857 54.9967 94.4523 54.8529C94.9887 53.6874 96.4717 53.2577 97.7575 53.8942C97.8685 53.9495 97.9173 54.0915 97.8658 54.2106C97.8143 54.3297 97.682 54.3821 97.571 54.3268C96.5018 53.7961 95.2817 54.1277 94.851 55.0644C94.7995 55.1749 94.7614 55.2931 94.7365 55.4141C94.7125 55.5247 94.6211 55.5999 94.5189 55.5999Z" fill="#472B29"/>
<path d="M89.9387 61.1307H88.9557C88.7106 61.1307 88.5117 60.9172 88.5117 60.6542C88.5117 60.3912 88.7106 60.1778 88.9557 60.1778H89.9387C90.1838 60.1778 90.3827 60.3912 90.3827 60.6542C90.3827 60.9172 90.1838 61.1307 89.9387 61.1307Z" fill="#472B29"/>
<path d="M79.633 33.4999H70.7264C70.4813 33.4999 70.2824 33.2865 70.2824 33.0234C70.2824 32.7604 70.4813 32.547 70.7264 32.547H79.633C79.8781 32.547 80.077 32.7604 80.077 33.0234C80.077 33.2865 79.879 33.4999 79.633 33.4999ZM82.1922 33.4999H80.9082C80.6631 33.4999 80.4642 33.2865 80.4642 33.0234C80.4642 32.7604 80.6631 32.547 80.9082 32.547H82.1922C82.4373 32.547 82.6362 32.7604 82.6362 33.0234C82.6362 33.2865 82.4373 33.4999 82.1922 33.4999ZM85.7922 33.4999H83.5313C83.2862 33.4999 83.0873 33.2865 83.0873 33.0234C83.0873 32.7604 83.2862 32.547 83.5313 32.547H85.7922C86.0373 32.547 86.2362 32.7604 86.2362 33.0234C86.2362 33.2865 86.0373 33.4999 85.7922 33.4999ZM83.9931 29.9455H75.4541C75.209 29.9455 75.0101 29.7321 75.0101 29.4691C75.0101 29.2061 75.209 28.9926 75.4541 28.9926H83.994C84.2391 28.9926 84.438 29.2061 84.438 29.4691C84.438 29.7321 84.2391 29.9455 83.9931 29.9455ZM73.9161 29.9455H73.401C73.1559 29.9455 72.957 29.7321 72.957 29.4691C72.957 29.2061 73.1559 28.9926 73.401 28.9926H73.9161C74.1612 28.9926 74.3601 29.2061 74.3601 29.4691C74.3601 29.7321 74.162 29.9455 73.9161 29.9455ZM71.8053 29.9455H70.5124C70.2673 29.9455 70.0684 29.7321 70.0684 29.4691C70.0684 29.2061 70.2673 28.9926 70.5124 28.9926H71.8053C72.0504 28.9926 72.2493 29.2061 72.2493 29.4691C72.2493 29.7321 72.0513 29.9455 71.8053 29.9455ZM81.7171 31.7227H77.2532C77.0081 31.7227 76.8092 31.5093 76.8092 31.2463C76.8092 30.9833 77.0081 30.7698 77.2532 30.7698H81.7171C81.9622 30.7698 82.1611 30.9833 82.1611 31.2463C82.1611 31.5093 81.9622 31.7227 81.7171 31.7227Z" fill="white"/>
<path d="M81.7171 29.9455H80.6009C80.3558 29.9455 80.1569 29.7321 80.1569 29.4691C80.1569 29.2061 80.3558 28.9926 80.6009 28.9926H81.7171C81.9622 28.9926 82.1611 29.2061 82.1611 29.4691C82.1611 29.7321 81.9622 29.9455 81.7171 29.9455ZM75.9611 31.7227H74.3991C74.154 31.7227 73.9551 31.5093 73.9551 31.2463C73.9551 30.9833 74.154 30.7698 74.3991 30.7698H75.9611C76.2062 30.7698 76.4051 30.9833 76.4051 31.2463C76.4051 31.5093 76.2062 31.7227 75.9611 31.7227Z" fill="white"/>
<path d="M51.156 33.5724C48.5738 33.5724 46.0974 34.6731 44.2715 36.6324C42.4457 38.5918 41.4199 41.2492 41.4199 44.0201C41.4199 46.7911 42.4457 49.4485 44.2715 51.4078C46.0974 53.3672 48.5738 54.4679 51.156 54.4679C53.7381 54.4679 56.2145 53.3672 58.0404 51.4078C59.8662 49.4485 60.892 46.7911 60.892 44.0201C60.892 41.2492 59.8662 38.5918 58.0404 36.6324C56.2145 34.6731 53.7381 33.5724 51.156 33.5724Z" fill="#FFCE00"/>
<path d="M51.1557 54.9434C45.5427 54.9434 40.9766 50.0425 40.9766 44.0201C40.9766 37.9967 45.5435 33.0959 51.1557 33.0959C56.7688 33.0959 61.3358 37.9967 61.3358 44.0201C61.3358 50.0435 56.7697 54.9434 51.1557 54.9434ZM51.1557 34.0488C46.0319 34.0488 41.8646 38.5218 41.8646 44.0201C41.8646 49.5184 46.0328 53.9905 51.1557 53.9905C56.2795 53.9905 60.4478 49.5175 60.4478 44.0201C60.4478 38.5218 56.2795 34.0488 51.1557 34.0488Z" fill="#472B29"/>
<path d="M57.1106 38.0282C55.5229 34.7797 52.5845 37.0829 53.0986 39.5109C53.5045 41.4187 55.4563 44.1259 55.4563 44.1259C55.7378 44.0201 58.4559 42.9671 59.7533 41.5911C61.4023 39.8397 60.0774 36.2033 57.1106 38.0282Z" fill="#EE3E54"/>
<path d="M55.4569 44.5061C55.3486 44.5061 55.2447 44.4536 55.1763 44.3583C55.0946 44.245 53.173 41.5625 52.7529 39.5957C52.4564 38.192 53.1961 36.6626 54.4011 36.1852C55.472 35.763 56.5172 36.2595 57.2489 37.5193C58.707 36.7722 59.7806 37.2753 60.3196 38.0358C61.0975 39.1335 60.9554 40.8497 60.0026 41.8608C58.6502 43.2958 55.8849 44.3669 55.5741 44.4841C55.5359 44.4994 55.496 44.5061 55.4569 44.5061ZM55.1346 36.8036C54.9738 36.8036 54.8113 36.836 54.6471 36.9008C53.8763 37.2058 53.1978 38.2578 53.4456 39.4261C53.7644 40.9221 55.1204 42.9938 55.5821 43.6694C56.3076 43.3749 58.4415 42.4458 59.5035 41.3195C60.2974 40.4781 60.2512 39.1993 59.7548 38.4979C59.2354 37.7642 58.3358 37.7137 57.288 38.3588C57.2036 38.4093 57.1033 38.4217 57.0118 38.394C56.9194 38.3655 56.8413 38.2968 56.7969 38.2054C56.3502 37.2915 55.7624 36.8036 55.1346 36.8036Z" fill="#472B29"/>
<path d="M45.2012 38.0282C46.7898 34.7797 49.7282 37.0829 49.2123 39.5109C48.8074 41.4187 46.8556 44.1259 46.8556 44.1259C46.5741 44.0201 43.8559 42.9671 42.5594 41.5911C40.9095 39.8397 42.2353 36.2033 45.2012 38.0282Z" fill="#EE3E54"/>
<path d="M46.8555 44.5061C46.8165 44.5061 46.7765 44.4994 46.7374 44.4852C46.4266 44.3679 43.6641 43.2997 42.309 41.8627C41.3562 40.8507 41.2141 39.1345 41.9929 38.0368C42.5328 37.2763 43.6072 36.7742 45.0636 37.5203C45.916 36.0518 47.0749 35.8536 47.9123 36.1862C49.1182 36.6636 49.857 38.193 49.5595 39.5957C49.1421 41.5626 47.2187 44.245 47.137 44.3584C47.0678 44.4537 46.963 44.5061 46.8555 44.5061ZM43.6809 37.9091C43.2218 37.9091 42.8356 38.1063 42.5585 38.497C42.0612 39.1984 42.0159 40.4772 42.8089 41.3196C43.8728 42.4478 46.0048 43.375 46.7303 43.6695C47.193 42.9938 48.549 40.9222 48.866 39.4261C49.1137 38.2578 48.4362 37.2058 47.6654 36.9009C46.8582 36.5807 46.0768 37.0581 45.5156 38.2054C45.4712 38.2969 45.393 38.3646 45.3007 38.3941C45.2092 38.4237 45.1089 38.4103 45.0245 38.3589C44.5361 38.0587 44.0814 37.9091 43.6809 37.9091Z" fill="#472B29"/>
<path d="M47.6176 46.1194C47.3743 46.0327 47.1452 46.3157 47.2163 46.6187C47.6345 48.4026 49.2453 49.7329 51.1732 49.7329C53.101 49.7329 54.7119 48.4026 55.1301 46.6187C55.2012 46.3157 54.9721 46.0327 54.7287 46.1194C53.6596 46.4996 52.4528 46.714 51.1741 46.714C49.8945 46.714 48.6868 46.4996 47.6176 46.1194Z" fill="#961B30"/>
<path d="M51.1725 49.9234C49.1913 49.9234 47.4935 48.5836 47.0442 46.6654C46.9909 46.4396 47.053 46.2052 47.2058 46.0537C47.3372 45.9231 47.5104 45.8812 47.6746 45.9383C48.7651 46.3262 49.9426 46.5234 51.1734 46.5234C52.405 46.5234 53.5816 46.3262 54.6721 45.9383C54.8346 45.8802 55.0104 45.9231 55.1409 46.0537C55.2928 46.2052 55.3549 46.4396 55.3017 46.6654C54.8523 48.5836 53.1536 49.9234 51.1725 49.9234ZM47.5281 46.2938C47.4935 46.2938 47.466 46.3138 47.4464 46.3319C47.4038 46.3748 47.3621 46.4634 47.3878 46.5711C47.7981 48.3197 49.3538 49.5413 51.1725 49.5413C52.9911 49.5413 54.5469 48.3206 54.9571 46.5711C54.982 46.4634 54.9411 46.3748 54.8985 46.3319C54.8737 46.3071 54.8346 46.2804 54.7831 46.2995C53.6571 46.7007 52.4423 46.9037 51.1725 46.9037C49.9035 46.9037 48.6887 46.7007 47.5619 46.2995C47.5503 46.2957 47.5388 46.2938 47.5281 46.2938Z" fill="#472B29"/>
<path d="M51.1725 47.5736C50.2615 47.5736 49.4774 48.232 49.1328 49.1745C49.742 49.529 50.4355 49.7319 51.1725 49.7319C51.9105 49.7319 52.604 49.529 53.2123 49.1745C52.8677 48.232 52.0845 47.5736 51.1725 47.5736Z" fill="#EE3E54"/>
<path d="M51.1728 49.9235C50.4357 49.9235 49.7014 49.7224 49.0487 49.3422L48.9102 49.2621L48.9679 49.1049C49.3506 48.0586 50.2155 47.383 51.1728 47.383C52.13 47.383 52.995 48.0586 53.3777 49.1049L53.4354 49.2621L53.2969 49.3422C52.6451 49.7224 51.9107 49.9235 51.1728 49.9235ZM49.3613 49.0868C50.4997 49.691 51.8477 49.691 52.9834 49.0868C52.63 48.2778 51.9338 47.7642 51.1719 47.7642C50.41 47.7642 49.7156 48.2778 49.3613 49.0868Z" fill="#472B29"/>
<path d="M86.0595 65.0577C86.0595 63.2919 84.7133 61.8473 83.0678 61.8473H81.9836C83.4461 61.6405 84.5881 60.3026 84.5881 58.6798C84.5881 56.914 83.2419 55.4694 81.5964 55.4694H72.1516C72.1721 53.3377 72.7777 52.4296 73.3957 50.3742C74.2731 47.4554 75.1824 44.3327 74.4551 41.3643C74.0839 39.8502 73.005 38.295 71.5833 38.3893C70.2211 38.4789 69.1262 41.5444 69.1262 41.5444C69.1262 41.5444 62.2123 56.5586 59.7116 57.1113L49.5352 57.1904V81.1086H59.7108H60.1272H60.8625H79.0079C80.6534 81.1086 82.4409 79.5982 82.4409 77.8325C82.4409 76.0667 81.8797 74.7107 80.2342 74.7107L81.7536 74.6878C83.3991 74.6878 84.7453 73.2432 84.7453 71.4775C84.7453 69.7117 83.3991 68.2671 81.7536 68.2671H83.0669C84.7133 68.268 86.0595 66.8234 86.0595 65.0577Z" fill="#FDFCEE"/>
<path d="M79.0093 81.7756H49.5357C49.192 81.7756 48.9141 81.4773 48.9141 81.1086V57.1894C48.9141 56.8225 49.1902 56.5252 49.5312 56.5224L59.634 56.4442C61.061 55.9792 65.2746 48.4035 68.5691 41.2481C68.7529 40.7259 69.8682 37.8338 71.5456 37.7232C73.3456 37.5965 74.6261 39.4394 75.0568 41.1947C75.8445 44.4079 74.8579 47.686 73.9876 50.579C73.8118 51.1651 73.6369 51.6596 73.4753 52.1151C73.1432 53.0518 72.8883 53.7732 72.8031 54.8014H81.5978C83.5905 54.8014 85.2111 56.5414 85.2111 58.6788C85.2111 59.7137 84.8221 60.6675 84.1837 61.3679C85.632 61.8739 86.6816 63.3357 86.6816 65.0567C86.6816 66.7376 85.6791 68.1727 84.2822 68.7092C84.9518 69.4134 85.3683 70.394 85.3683 71.4774C85.3683 73.3413 84.1366 74.9022 82.5009 75.271C82.8384 75.838 83.063 76.6575 83.063 77.8315C83.0639 80.0527 80.8839 81.7756 79.0093 81.7756ZM50.1573 80.4415H79.0093C80.2747 80.4415 81.8207 79.238 81.8207 77.8324C81.8207 75.3777 80.6699 75.3777 80.2365 75.3777C79.8946 75.3777 79.6176 75.0814 79.6149 74.7154C79.6131 74.3486 79.8866 74.0494 80.2276 74.0436L81.747 74.0208C83.0621 74.0208 84.1251 72.8801 84.1251 71.4774C84.1251 70.0747 83.0621 68.935 81.7559 68.935C81.4122 68.935 81.1343 68.6368 81.1343 68.268C81.1343 67.8992 81.4122 67.601 81.7559 67.601H83.0692C84.3764 67.601 85.4384 66.4603 85.4384 65.0576C85.4384 63.6549 84.3755 62.5153 83.0692 62.5153H81.9859C81.6582 62.5153 81.3874 62.2427 81.3652 61.892C81.3438 61.5414 81.5801 61.2336 81.9042 61.1869C83.0808 61.0201 83.9679 59.9424 83.9679 58.6807C83.9679 57.278 82.905 56.1374 81.5987 56.1374H72.1521C71.9861 56.1374 71.8271 56.0659 71.7099 55.9392C71.5936 55.8124 71.5288 55.6419 71.5297 55.4627C71.5456 53.8075 71.9008 52.8041 72.3129 51.6425C72.4674 51.206 72.6352 50.7315 72.8048 50.1702C73.6227 47.4515 74.5489 44.3708 73.8545 41.5349C73.5392 40.2494 72.6725 38.9925 71.6211 39.0554C70.9924 39.0964 70.1053 40.6658 69.7066 41.7827C68.0301 45.4304 62.433 57.1904 59.8365 57.764C59.7965 57.7726 59.7565 57.7774 59.7157 57.7783L50.1573 57.8517V80.4415Z" fill="#472B29"/>
<path d="M50.1289 57.6945H60.0319V80.4206H50.1289V57.6945Z" fill="#78A1D1"/>
<path d="M60.0283 75.4664C59.8445 75.4664 59.6953 75.3063 59.6953 75.109V57.1218C59.6953 56.9245 59.8445 56.7644 60.0283 56.7644C60.2121 56.7644 60.3613 56.9245 60.3613 57.1218V75.109C60.3613 75.3063 60.2121 75.4664 60.0283 75.4664ZM76.1873 61.9674H64.0962C63.9124 61.9674 63.7632 61.8073 63.7632 61.61C63.7632 61.4128 63.9124 61.2527 64.0962 61.2527H76.1873C76.3711 61.2527 76.5203 61.4128 76.5203 61.61C76.5203 61.8073 76.3711 61.9674 76.1873 61.9674ZM76.1873 68.5777H67.1883C67.0044 68.5777 66.8553 68.4177 66.8553 68.2204C66.8553 68.0231 67.0044 67.8631 67.1883 67.8631H76.1873C76.3711 67.8631 76.5203 68.0231 76.5203 68.2204C76.5203 68.4177 76.3711 68.5777 76.1873 68.5777ZM76.1873 74.7555H70.1418C69.9579 74.7555 69.8088 74.5954 69.8088 74.3982C69.8088 74.2009 69.9579 74.0408 70.1418 74.0408H76.1873C76.3711 74.0408 76.5203 74.2009 76.5203 74.3982C76.5203 74.5954 76.3711 74.7555 76.1873 74.7555ZM60.0283 77.6762C59.8445 77.6762 59.6953 77.5161 59.6953 77.3188V76.1353C59.6953 75.9381 59.8445 75.778 60.0283 75.778C60.2121 75.778 60.3613 75.9381 60.3613 76.1353V77.3188C60.3613 77.5161 60.2121 77.6762 60.0283 77.6762ZM60.0283 78.9798C59.8445 78.9798 59.6953 78.8197 59.6953 78.6224V78.3985C59.6953 78.2012 59.8445 78.0412 60.0283 78.0412C60.2121 78.0412 60.3613 78.2012 60.3613 78.3985V78.6224C60.3613 78.8197 60.2121 78.9798 60.0283 78.9798ZM66.2567 68.5777H65.2027C65.0189 68.5777 64.8697 68.4177 64.8697 68.2204C64.8697 68.0231 65.0189 67.8631 65.2027 67.8631H66.2567C66.4406 67.8631 66.5897 68.0231 66.5897 68.2204C66.5897 68.4177 66.4406 68.5777 66.2567 68.5777ZM64.344 68.5777H64.0012C63.8174 68.5777 63.6682 68.4177 63.6682 68.2204C63.6682 68.0231 63.8174 67.8631 64.0012 67.8631H64.344C64.5278 67.8631 64.677 68.0231 64.677 68.2204C64.677 68.4177 64.5278 68.5777 64.344 68.5777Z" fill="#472B29"/>
<path d="M54.6738 74.5172C54.4758 74.5172 54.2798 74.559 54.0968 74.6403C53.9139 74.7217 53.7477 74.8408 53.6076 74.9911C53.4676 75.1413 53.3566 75.3197 53.2808 75.516C53.205 75.7123 53.166 75.9227 53.166 76.1352C53.166 76.3477 53.205 76.5581 53.2808 76.7544C53.3566 76.9507 53.4676 77.1291 53.6076 77.2794C53.7477 77.4296 53.9139 77.5488 54.0968 77.6301C54.2798 77.7114 54.4758 77.7533 54.6738 77.7533C54.8719 77.7533 55.0679 77.7114 55.2509 77.6301C55.4338 77.5488 55.6 77.4296 55.74 77.2794C55.88 77.1291 55.9911 76.9507 56.0669 76.7544C56.1427 76.5581 56.1817 76.3477 56.1817 76.1352C56.1817 75.9227 56.1427 75.7123 56.0669 75.516C55.9911 75.3197 55.88 75.1413 55.74 74.9911C55.6 74.8408 55.4338 74.7217 55.2509 74.6403C55.0679 74.559 54.8719 74.5172 54.6738 74.5172Z" fill="#657FBE"/>
<path d="M54.6731 78.0869C53.6706 78.0869 52.8545 77.2111 52.8545 76.1353C52.8545 75.0594 53.6706 74.1837 54.6731 74.1837C55.6757 74.1837 56.4917 75.0594 56.4917 76.1353C56.4917 77.2111 55.6757 78.0869 54.6731 78.0869ZM54.6731 74.8508C54.0124 74.8508 53.4761 75.4263 53.4761 76.1353C53.4761 76.8443 54.0124 77.4198 54.6731 77.4198C55.3338 77.4198 55.8701 76.8443 55.8701 76.1353C55.8701 75.4263 55.3338 74.8508 54.6731 74.8508ZM49.3336 61.7291C49.3016 61.7291 49.2705 61.7148 49.2483 61.6862C49.2092 61.6357 49.2154 61.5604 49.2625 61.5185L53.8695 57.4124C53.9165 57.3705 53.9858 57.3762 54.0258 57.4276C54.0648 57.4781 54.0586 57.5534 54.0115 57.5953L49.4046 61.7015C49.3833 61.7205 49.3584 61.7291 49.3336 61.7291ZM49.9374 63.8884C49.9054 63.8884 49.8743 63.8741 49.8521 63.8455C49.8131 63.795 49.8193 63.7197 49.8664 63.6778L56.8585 57.4457C56.9046 57.4029 56.9748 57.4095 57.0148 57.461C57.0538 57.5115 57.0476 57.5868 57.0006 57.6287L50.0084 63.8608C49.988 63.8798 49.9623 63.8884 49.9374 63.8884ZM55.2468 61.9892C55.2148 61.9892 55.1837 61.975 55.1615 61.9464C55.1224 61.8959 55.1286 61.8206 55.1757 61.7787L59.8608 57.603C59.9079 57.561 59.9771 57.5668 60.0171 57.6182C60.0562 57.6687 60.0499 57.744 60.0029 57.7859L55.3178 61.9616C55.2974 61.9807 55.2725 61.9892 55.2468 61.9892ZM58.4116 62.3637C58.3796 62.3637 58.3485 62.3494 58.3263 62.3209C58.2873 62.2704 58.2935 62.1951 58.3405 62.1531L60.073 60.6085C60.1201 60.5656 60.1894 60.5723 60.2293 60.6237C60.2684 60.6742 60.2622 60.7495 60.2151 60.7914L58.4826 62.3361C58.4622 62.3542 58.4364 62.3637 58.4116 62.3637Z" fill="#472B29"/>
</svg>
