<svg width="121" height="120" viewBox="0 0 121 120" fill="none" xmlns="http://www.w3.org/2000/svg">
<path d="M118.264 45.016C124.763 68.6838 113.829 95.6872 95.7266 109.273C77.6248 122.956 52.2637 123.124 31.9114 109.111C11.4677 95.0002 -3.96773 66.6105 2.1671 42.7613C8.39339 19.0091 36.2809 -0.203154 62.101 0.406166C88.012 1.01488 111.855 21.3476 118.264 45.016Z" fill="#FFF3DA"/>
<path d="M93.5487 66.6757C94.5575 64.6231 95.1338 62.2865 95.1338 59.8051C95.1338 53.4959 91.4406 48.1253 86.2529 46.0088L86.2538 45.9879C86.2538 34.9359 77.9048 25.9766 67.6058 25.9766C58.9176 25.9766 51.6386 32.3621 49.5678 40.9917C48.2571 40.5286 46.8612 40.2704 45.4058 40.2704C38.5753 40.2704 32.9542 45.7906 32.1834 52.8984C27.5623 53.9476 24.0938 58.3462 24.0938 63.6168C24.0938 69.6697 28.6652 74.5754 34.3058 74.5754C34.4638 74.5754 34.6183 74.5639 34.7728 74.5553C34.7684 74.7211 34.7498 74.8841 34.7498 75.0518C34.7498 85.8407 42.8998 94.5866 52.9538 94.5866C58.6707 94.5866 63.7661 91.7536 67.1032 87.332C69.0372 89.4513 71.727 90.7749 74.7098 90.7749C78.839 90.7749 82.4123 88.2497 84.1812 84.5638C85.1154 84.8821 86.109 85.0574 87.1418 85.0574C92.5364 85.0574 96.9098 80.3643 96.9098 74.5754C96.9098 71.4193 95.6044 68.5977 93.5487 66.6757Z" fill="#C7EDE6"/>
<path d="M85.3661 90.7749H90.4721C92.6788 91.4896 94.4681 89.5695 94.4681 87.2015C94.4681 84.9783 92.8857 83.1716 90.8672 82.9562C90.8859 82.7838 90.9161 82.6151 90.9161 82.4369C90.9161 80.0689 89.1268 78.1488 86.9201 78.1488C85.6431 78.1488 84.5198 78.8034 83.789 79.8021C83.6638 77.2902 81.7439 75.29 79.3721 75.29C76.9194 75.29 74.9321 77.4227 74.9321 80.0546C74.9321 80.4796 75.0004 80.8837 75.0981 81.2763C74.528 80.5358 73.6764 80.0546 72.7121 80.0546C71.1314 80.0546 69.8403 81.3268 69.644 82.9658C69.4833 82.9458 69.3261 82.9134 69.1601 82.9134C66.9534 82.9134 65.1641 84.8335 65.1641 87.2015C65.1641 89.5695 66.9534 91.4896 69.1601 90.7749H77.5961H82.7021V91.7278H85.3661V90.7749Z" fill="#FDFCEF"/>
<path d="M79.5934 74.5754C76.901 74.5754 74.7094 76.9262 74.7094 79.8164V79.8612C74.174 79.5229 73.5639 79.34 72.9334 79.34C71.3075 79.34 69.9053 80.5416 69.5075 82.2035L69.3814 82.1987C66.6295 82.1987 64.4539 84.8993 65.0364 87.961C65.4627 90.2013 67.4243 91.7279 69.5555 91.7279H82.5904C82.8355 91.7279 83.0344 91.5144 83.0344 91.2514C83.0344 90.9884 82.8355 90.775 82.5904 90.775H69.5199C67.815 90.775 66.2459 89.5543 65.9058 87.7609C65.4405 85.3128 67.1801 83.1516 69.3814 83.1516C69.4853 83.1516 69.5857 83.1678 69.686 83.1821L69.8121 83.2002L69.8672 83.204C70.0856 83.204 70.2774 83.0277 70.3067 82.7876C70.4754 81.3649 71.605 80.2929 72.9334 80.2929C73.7193 80.2929 74.4634 80.674 74.9767 81.3411C75.0646 81.4535 75.1907 81.5145 75.3204 81.5145L75.5228 81.4611C75.7084 81.3592 75.8017 81.1314 75.7493 80.9161C75.6072 80.3434 75.5708 79.8984 75.6187 79.44C75.8319 77.4132 77.3592 75.716 79.2533 75.5445C81.5186 75.3396 83.4491 77.1911 83.5672 79.5906C83.5779 79.7888 83.7004 79.9594 83.8771 80.0184L84.0121 80.0413C84.1453 80.0413 84.275 79.9756 84.3602 79.8583C85.044 78.9235 86.0572 78.387 87.1414 78.387C89.0995 78.387 90.6934 80.0966 90.6934 82.1987C90.6934 82.3102 90.6774 82.4179 90.665 82.5256L90.6473 82.6609C90.633 82.7886 90.6668 82.9163 90.7423 83.0163C90.816 83.1154 90.9252 83.1802 91.0442 83.1926C93.1337 83.4156 94.6335 85.5082 94.1557 87.8285C93.7934 89.5943 92.2252 90.775 90.5398 90.775H85.2544C85.0093 90.775 84.8104 90.9884 84.8104 91.2514C84.8104 91.5144 85.0093 91.7279 85.2544 91.7279H90.5274C92.7181 91.7279 94.7072 90.1041 95.0686 87.7847C95.4789 85.1518 93.8751 82.8105 91.577 82.315L91.5814 82.1987C91.5814 79.5715 89.5896 77.4341 87.1414 77.4341C86.0963 77.4341 85.1052 77.8296 84.314 78.5433C83.7839 76.2525 81.8632 74.5754 79.5934 74.5754Z" fill="#472B29"/>
<path d="M78.0394 81.484C76.7935 81.484 75.7235 82.435 75.4527 83.7148C75.1268 83.5032 74.7547 83.3898 74.3764 83.3898C73.309 83.3898 72.4246 84.2437 72.2869 85.3595C72.1067 85.3166 71.9353 85.2957 71.7675 85.2957C70.4097 85.2957 69.2713 86.4392 69.1763 87.899C69.1683 88.0305 69.2597 88.1439 69.3823 88.1535L69.3983 88.1544C69.5137 88.1544 69.6105 88.0582 69.6194 87.9333C69.6984 86.7222 70.6415 85.7721 71.7675 85.7721C71.9708 85.7721 72.1848 85.8112 72.4228 85.8932L72.4814 85.9036L72.619 85.8522L72.7105 85.653C72.7105 84.6677 73.4573 83.8663 74.3755 83.8663C74.7724 83.8663 75.1614 84.0264 75.4686 84.317L75.6152 84.3771L75.6986 84.359C75.7768 84.3256 75.8292 84.2475 75.8363 84.1569C75.9268 82.9248 76.8939 81.9605 78.0376 81.9605C78.2223 81.9605 78.4159 81.9929 78.6432 82.0615L78.7054 82.072C78.8013 82.072 78.8892 82.0024 78.9167 81.8976C78.9505 81.7708 78.8821 81.6393 78.764 81.6031C78.4985 81.5221 78.2667 81.484 78.0394 81.484ZM90.3675 82.9134C89.19 82.9134 88.1404 83.7672 87.8163 84.9926C87.7825 85.1194 87.8509 85.2509 87.969 85.2871L88.0294 85.2957C88.1253 85.2957 88.215 85.2271 88.2425 85.1222C88.5134 84.1017 89.3872 83.3898 90.3675 83.3898C90.4714 83.3898 90.5718 83.4032 90.6712 83.4165L90.7023 83.4194C90.8097 83.4194 90.9056 83.3317 90.9207 83.2126C90.9376 83.0821 90.8524 82.962 90.7298 82.9448C90.6108 82.9286 90.4909 82.9134 90.3675 82.9134Z" fill="#472B29"/>
<path d="M78.6205 38.3645H69.8248C69.5797 38.3645 69.3808 38.1511 69.3808 37.8881C69.3808 37.6251 69.5797 37.4116 69.8248 37.4116H78.6205C78.8647 37.4116 79.0645 37.6251 79.0645 37.8881C79.0645 38.1511 78.8665 38.3645 78.6205 38.3645ZM81.3688 38.3645H80.4808C80.2357 38.3645 80.0368 38.1511 80.0368 37.8881C80.0368 37.6251 80.2357 37.4116 80.4808 37.4116H81.3688C81.6139 37.4116 81.8128 37.6251 81.8128 37.8881C81.8128 38.1511 81.6148 38.3645 81.3688 38.3645ZM85.8008 40.2704H77.8168C77.5717 40.2704 77.3728 40.0569 77.3728 39.7939C77.3728 39.5309 77.5717 39.3174 77.8168 39.3174H85.8008C86.045 39.3174 86.2448 39.5309 86.2448 39.7939C86.2448 40.0569 86.0459 40.2704 85.8008 40.2704ZM76.0408 40.2704H75.1528C74.9077 40.2704 74.7088 40.0569 74.7088 39.7939C74.7088 39.5309 74.9077 39.3174 75.1528 39.3174H76.0408C76.2859 39.3174 76.4848 39.5309 76.4848 39.7939C76.4848 40.0569 76.2868 40.2704 76.0408 40.2704ZM73.3768 40.2704H71.6008C71.3557 40.2704 71.1568 40.0569 71.1568 39.7939C71.1568 39.5309 71.3557 39.3174 71.6008 39.3174H73.3768C73.6219 39.3174 73.8208 39.5309 73.8208 39.7939C73.8208 40.0569 73.6228 40.2704 73.3768 40.2704ZM78.7048 42.1762H76.9288C76.6837 42.1762 76.4848 41.9627 76.4848 41.6997C76.4848 41.4367 76.6837 41.2233 76.9288 41.2233H78.7048C78.9499 41.2233 79.1488 41.4367 79.1488 41.6997C79.1488 41.9627 78.9499 42.1762 78.7048 42.1762ZM81.3688 33.5999C81.2117 33.5999 80.638 33.5999 80.4808 33.5999C80.2357 33.5999 80.0368 33.8134 80.0368 34.0764C80.0368 34.3394 80.2357 34.5529 80.4808 34.5529C80.638 34.5529 81.2117 34.5529 81.3688 34.5529C81.6139 34.5529 81.8128 34.3394 81.8128 34.0764C81.8128 33.8134 81.6139 33.5999 81.3688 33.5999ZM81.3688 35.5058C81.2117 35.5058 77.086 35.5058 76.9288 35.5058C76.6837 35.5058 76.4848 35.7192 76.4848 35.9822C76.4848 36.2452 76.6837 36.4587 76.9288 36.4587C77.086 36.4587 81.2117 36.4587 81.3688 36.4587C81.6139 36.4587 81.8128 36.2452 81.8128 35.9822C81.8128 35.7192 81.6139 35.5058 81.3688 35.5058ZM85.8088 37.4116C85.6517 37.4116 83.302 37.4116 83.1448 37.4116C82.8997 37.4116 82.7008 37.6251 82.7008 37.8881C82.7008 38.1511 82.8997 38.3645 83.1448 38.3645C83.302 38.3645 85.6517 38.3645 85.8088 38.3645C86.0539 38.3645 86.2528 38.1511 86.2528 37.8881C86.2528 37.6251 86.0539 37.4116 85.8088 37.4116ZM48.9568 88.8691H40.0768C39.8317 88.8691 39.6328 88.6556 39.6328 88.3926C39.6328 88.1296 39.8317 87.9162 40.0768 87.9162H48.9568C49.2019 87.9162 49.4008 88.1296 49.4008 88.3926C49.4008 88.6556 49.2019 88.8691 48.9568 88.8691ZM52.5088 88.8691H50.7328C50.4877 88.8691 50.2888 88.6556 50.2888 88.3926C50.2888 88.1296 50.4877 87.9162 50.7328 87.9162H52.5088C52.7539 87.9162 52.9528 88.1296 52.9528 88.3926C52.9528 88.6556 52.7539 88.8691 52.5088 88.8691ZM56.9488 90.7749H48.0688C47.8237 90.7749 47.6248 90.5615 47.6248 90.2985C47.6248 90.0355 47.8237 89.822 48.0688 89.822H56.9488C57.1939 89.822 57.3928 90.0355 57.3928 90.2985C57.3928 90.5615 57.1948 90.7749 56.9488 90.7749ZM46.2928 90.7749H45.4048C45.1597 90.7749 44.9608 90.5615 44.9608 90.2985C44.9608 90.0355 45.1597 89.822 45.4048 89.822H46.2928C46.5379 89.822 46.7368 90.0355 46.7368 90.2985C46.7368 90.5615 46.5379 90.7749 46.2928 90.7749ZM43.5178 90.7749H41.8528C41.6077 90.7749 41.4088 90.5615 41.4088 90.2985C41.4088 90.0355 41.6077 89.822 41.8528 89.822H43.5178C43.7629 89.822 43.9618 90.0355 43.9618 90.2985C43.9618 90.5615 43.7629 90.7749 43.5178 90.7749ZM51.6208 86.9633H47.1808C46.9357 86.9633 46.7368 86.7498 46.7368 86.4868C46.7368 86.2238 46.9357 86.0103 47.1808 86.0103H51.6208C51.8659 86.0103 52.0648 86.2238 52.0648 86.4868C52.0648 86.7498 51.8668 86.9633 51.6208 86.9633ZM48.9568 92.6808H47.1808C46.9357 92.6808 46.7368 92.4673 46.7368 92.2043C46.7368 91.9413 46.9357 91.7278 47.1808 91.7278H48.9568C49.2019 91.7278 49.4008 91.9413 49.4008 92.2043C49.4008 92.4673 49.2019 92.6808 48.9568 92.6808Z" fill="white"/>
<path d="M41.6289 56.8959V76.3754H42.8721V56.8959" fill="#472B29"/>
<path d="M37.1348 55.9735L61.426 44.0697L85.7173 55.9716L61.426 67.8764L37.1348 55.9735Z" fill="#97AEC7"/>
<path d="M61.4271 44.8034L84.223 55.9716L61.4271 67.1426L38.6312 55.9735L61.4271 44.8034ZM61.4271 43.3369L35.6387 55.9735L61.4271 68.6091L87.2155 55.9706L61.4271 43.3369Z" fill="#472B29"/>
<path d="M47.8027 69.5526V57.6773L47.8498 57.5534C48.4465 55.9773 53.7914 54.2783 61.3891 54.2783C68.9869 54.2783 74.3318 55.9773 74.9285 57.5534L74.9756 57.6773V69.5526H47.8027Z" fill="#B0C1D4"/>
<path d="M61.3896 54.9453C69.3 54.9453 73.9646 56.7777 74.3536 57.804L74.3545 57.8069V68.8855H48.4248V57.8069L48.4257 57.804C48.8147 56.7777 53.4793 54.9453 61.3896 54.9453ZM61.3896 53.6112C54.077 53.6112 48.0599 55.2264 47.274 57.3019H47.1816V70.2196H75.5977V57.3019H75.5053C74.7194 55.2264 68.7023 53.6112 61.3896 53.6112Z" fill="#472B29"/>
<path d="M61.3891 66.6662C59.6049 66.6662 57.8382 66.7722 56.1898 66.9781C54.5415 67.184 53.0437 67.4858 51.7821 67.8663C50.5205 68.2468 49.5197 68.6985 48.8369 69.1956C48.1542 69.6928 47.8027 70.2256 47.8027 70.7637C47.8027 71.3018 48.1542 71.8346 48.8369 72.3318C49.5197 72.8289 50.5205 73.2806 51.7821 73.6611C53.0437 74.0416 54.5415 74.3434 56.1898 74.5493C57.8382 74.7553 59.6049 74.8612 61.3891 74.8612C63.1733 74.8612 64.9401 74.7553 66.5884 74.5493C68.2368 74.3434 69.7346 74.0416 70.9962 73.6611C72.2578 73.2806 73.2586 72.8289 73.9414 72.3318C74.6241 71.8346 74.9756 71.3018 74.9756 70.7637C74.9756 70.2256 74.6241 69.6928 73.9414 69.1956C73.2586 68.6985 72.2578 68.2468 70.9962 67.8663C69.7346 67.4858 68.2368 67.184 66.5884 66.9781C64.9401 66.7722 63.1733 66.6662 61.3891 66.6662Z" fill="#66798F"/>
<path d="M61.3896 67.3332C69.9438 67.3332 74.3545 69.7374 74.3545 70.7637C74.3545 71.79 69.9438 74.1942 61.3896 74.1942C52.8355 74.1942 48.4248 71.789 48.4248 70.7637C48.4248 69.7384 52.8355 67.3332 61.3896 67.3332ZM61.3896 65.9991C53.5424 65.9991 47.1816 68.1317 47.1816 70.7637C47.1816 73.3957 53.5424 75.5283 61.3896 75.5283C69.2369 75.5283 75.5977 73.3957 75.5977 70.7637C75.5977 68.1317 69.2369 65.9991 61.3896 65.9991Z" fill="#472B29"/>
<path d="M40.4309 77.9963L40.0659 77.1463C39.8875 76.7556 39.7969 76.3526 39.7969 75.9485C39.7969 74.4381 40.9415 73.2098 42.349 73.2098C43.7565 73.2098 44.9011 74.4381 44.9011 75.9485C44.9011 76.5079 44.7422 77.0472 44.4402 77.5113L44.4136 77.5523L42.3206 82.1053L40.4309 77.9963Z" fill="#ECAD6F"/>
<path d="M42.3495 73.8778C43.4142 73.8778 44.2809 74.8069 44.2809 75.9495C44.2809 76.3707 44.1601 76.7795 43.9319 77.1301L43.8777 77.2121L43.836 77.3026L42.3202 80.5987L41.4819 78.7739H41.5006L40.6241 76.8528C40.4874 76.5536 40.4181 76.2496 40.4181 75.9495C40.4181 74.806 41.2839 73.8778 42.3495 73.8778ZM42.3495 72.5428C40.5957 72.5428 39.1758 74.0684 39.1758 75.9485C39.1758 76.485 39.3019 76.9872 39.5079 77.4389H39.483L42.3211 83.6128L44.9513 77.8925C45.3101 77.3407 45.5241 76.6727 45.5241 75.9485C45.5232 74.0684 44.1015 72.5428 42.3495 72.5428Z" fill="#472B29"/>
<path d="M38.3013 42.1762C38.3013 42.1762 36.6878 42.1762 34.9713 42.1762C33.2548 42.1762 31.8633 40.683 31.8633 38.841C31.8633 37.1448 33.0488 35.7593 34.5761 35.5487C34.5513 35.3781 34.5273 35.2075 34.5273 35.0293C34.5273 33.1874 35.9188 31.6941 37.6353 31.6941C38.5517 31.6941 39.366 32.1277 39.9352 32.8043C40.2771 31.0814 41.6997 29.7883 43.4073 29.7883C45.3689 29.7883 46.9593 31.495 46.9593 33.6C46.9593 33.782 46.9327 33.9564 46.9087 34.1317C47.2896 33.8039 47.7656 33.6 48.2913 33.6C49.3826 33.6 50.284 34.4462 50.4713 35.5582C50.6303 35.5306 50.7892 35.5058 50.9553 35.5058C52.6718 35.5058 54.0633 36.999 54.0633 38.841C54.0633 40.683 52.6718 42.1762 50.9553 42.1762C49.2388 42.1762 44.5173 42.1762 44.5173 42.1762V43.1291H38.3013V42.1762Z" fill="#FDFCEF"/>
<path d="M36.528 37.8881C36.6505 37.8881 36.75 37.7814 36.75 37.6499C36.75 36.4835 35.8664 35.5354 34.7804 35.5354C34.7502 35.5439 34.126 35.5344 33.6757 35.665C33.5576 35.6993 33.4875 35.8298 33.5194 35.9575C33.5505 36.0852 33.6722 36.1605 33.7912 36.1252C34.1854 36.0118 34.768 36.0118 34.7786 36.0128C35.6205 36.0128 36.306 36.7475 36.306 37.6508C36.306 37.7814 36.4046 37.8881 36.528 37.8881ZM42.3 42.1762C42.1822 42.1762 42.0693 42.2264 41.986 42.3158C41.9028 42.4051 41.856 42.5263 41.856 42.6527C41.856 42.7791 41.9028 42.9003 41.986 42.9896C42.0693 43.079 42.1822 43.1292 42.3 43.1292C42.4178 43.1292 42.5307 43.079 42.614 42.9896C42.6972 42.9003 42.744 42.7791 42.744 42.6527C42.744 42.5263 42.6972 42.4051 42.614 42.3158C42.5307 42.2264 42.4178 42.1762 42.3 42.1762Z" fill="#472B29"/>
<path d="M31.5691 40.42C32.0176 42.0704 33.5263 43.1291 35.1282 43.1291H38.0799C38.325 43.1291 38.5239 42.9157 38.5239 42.6527C38.5239 42.3897 38.325 42.1762 38.0799 42.1762H35.0643C33.9614 42.1762 32.902 41.5082 32.5015 40.4047C31.832 38.558 32.9775 36.7265 34.6318 36.4978C34.7508 36.4806 34.8592 36.4139 34.9311 36.311C35.003 36.209 35.0323 36.0785 35.0146 35.9518C34.9941 35.805 34.9719 35.6583 34.9719 35.5058C34.9719 33.9297 36.1672 32.647 37.6359 32.647C38.3907 32.647 39.0905 32.9844 39.6073 33.6C39.7183 33.7324 39.8924 33.7877 40.0513 33.74C40.2129 33.6933 40.3364 33.5542 40.371 33.3789C40.6738 31.8504 41.9507 30.7412 43.4079 30.7412C45.1218 30.7412 46.516 32.2373 46.516 34.0764C46.516 34.2136 46.4973 34.3432 46.4795 34.4747C46.4538 34.6682 46.5355 34.8921 46.6944 34.9893C46.8534 35.0865 47.0461 35.1008 47.1882 34.9798C47.5123 34.7006 47.8941 34.5529 48.292 34.5529C49.1498 34.5529 49.8832 35.2113 50.0351 36.1195C50.0786 36.3739 50.2979 36.5445 50.5404 36.5054C50.6771 36.4825 50.8139 36.4587 50.956 36.4587C52.7053 36.4587 54.0666 38.2769 53.4832 40.2456C53.1316 41.431 52.0304 42.1762 50.8707 42.1762H44.2959C44.0509 42.1762 43.8519 42.3897 43.8519 42.6527C43.8519 42.9157 44.0509 43.1291 44.2959 43.1291H50.8174C52.5224 43.1291 54.0915 41.9084 54.4316 40.1151C54.8969 37.667 53.1573 35.5058 50.956 35.5058L50.8014 35.5115C50.4338 34.3814 49.4366 33.6 48.292 33.6C47.982 33.6 47.681 33.659 47.3942 33.7715C47.2477 31.5493 45.5161 29.7883 43.4079 29.7883C41.782 29.7883 40.3301 30.8622 39.7201 32.4317C39.1162 31.9562 38.3863 31.6941 37.6359 31.6941C35.6779 31.6941 34.0839 33.4037 34.0839 35.5058L34.0875 35.6411C32.22 36.1566 30.9759 38.2397 31.5691 40.42Z" fill="#472B29"/>
<path d="M39.8561 42.1762C39.9973 42.1762 40.6029 42.1762 40.7441 42.1762C40.9892 42.1762 41.1881 42.3897 41.1881 42.6527C41.1881 42.9157 40.9892 43.1291 40.7441 43.1291C40.6029 43.1291 39.9973 43.1291 39.8561 43.1291C39.611 43.1291 39.4121 42.9157 39.4121 42.6527C39.4121 42.3897 39.611 42.1762 39.8561 42.1762ZM68.479 64.6679C69.9629 64.969 71.4094 65.3692 72.7938 65.8638C73.0265 65.9467 73.2778 65.8123 73.355 65.5627C73.4323 65.313 73.3071 65.0433 73.0744 64.9604C71.6501 64.4506 70.1653 64.0409 68.6442 63.7312C68.4035 63.6826 68.1709 63.8522 68.1256 64.1104C68.0794 64.3696 68.2384 64.6183 68.479 64.6679ZM64.0843 64.0647C64.8764 64.1228 65.6641 64.2076 66.4446 64.3172C66.6879 64.3515 66.9108 64.1676 66.9428 63.9075C66.9748 63.6464 66.8034 63.4072 66.5609 63.3729C65.7617 63.2595 64.9554 63.1728 64.1447 63.1137C63.8996 63.0956 63.6883 63.2938 63.6714 63.5568C63.6554 63.8198 63.8401 64.0475 64.0843 64.0647ZM49.9864 65.8638C53.5189 64.6012 57.4554 63.9656 61.3919 63.9656C61.5775 63.9656 61.7631 63.9665 61.9478 63.9704C62.1929 63.9742 62.3945 63.7645 62.3989 63.5015C62.4024 63.2385 62.2071 63.0222 61.962 63.0174C61.7711 63.0146 61.5819 63.0127 61.3919 63.0127C57.3666 63.0127 53.3404 63.6607 49.7058 64.9595C49.4732 65.0424 49.3471 65.3121 49.4252 65.5617C49.5025 65.8123 49.7538 65.9467 49.9864 65.8638Z" fill="#472B29"/>
</svg>
