<svg width="22" height="22" viewBox="0 0 22 22" fill="none" xmlns="http://www.w3.org/2000/svg">
<path d="M8.25016 16.5C8.25016 14.9812 9.48138 13.75 11.0002 13.75C12.5189 13.75 13.7502 14.9812 13.7502 16.5V20.1666H8.25016V16.5Z" stroke="#868E96" stroke-width="1.5"/>
<path d="M1.8335 7.3333C1.8335 6.32078 2.65431 5.49997 3.66683 5.49997H5.77373C6.19003 5.49997 6.59393 5.35828 6.91901 5.09823L9.85489 2.74952C10.5245 2.21387 11.4759 2.21386 12.1454 2.74952L15.0813 5.09823C15.4064 5.35828 15.8103 5.49997 16.2266 5.49997H18.3335C19.346 5.49997 20.1668 6.32078 20.1668 7.3333V18.3333C20.1668 19.3458 19.346 20.1666 18.3335 20.1666H3.66683C2.65431 20.1666 1.8335 19.3458 1.8335 18.3333V7.3333Z" stroke="#868E96" stroke-width="1.5"/>
<path d="M12.8335 9.16663C12.8335 8.15411 12.0127 7.3333 11.0002 7.3333C9.98764 7.3333 9.16683 8.15411 9.16683 9.16663C9.16683 10.1792 9.98764 11 11.0002 11C12.0127 11 12.8335 10.1792 12.8335 9.16663Z" stroke="#868E96" stroke-width="1.5"/>
</svg>
