<svg width="121" height="120" viewBox="0 0 121 120" fill="none" xmlns="http://www.w3.org/2000/svg">
<path d="M118.264 45.016C124.763 68.6838 113.829 95.6872 95.7266 109.273C77.6248 122.956 52.2637 123.124 31.9114 109.111C11.4677 95.0002 -3.96773 66.6105 2.1671 42.7613C8.39339 19.0091 36.2809 -0.203156 62.101 0.406164C88.012 1.01488 111.855 21.3476 118.264 45.016Z" fill="#FFF3DA"/>
<rect width="88.8001" height="95.2916" transform="translate(16.1016 12.6358)" fill="#FFF3DA"/>
<path d="M33.6715 49.0477H29.2253C28.9802 49.0477 28.7812 48.8342 28.7812 48.5712C28.7812 48.3082 28.9802 48.0948 29.2253 48.0948H33.6715C33.9166 48.0948 34.1155 48.3082 34.1155 48.5712C34.1155 48.8342 33.9166 49.0477 33.6715 49.0477ZM33.6715 47.2781H32.5597C32.3146 47.2781 32.1157 47.0647 32.1157 46.8017C32.1157 46.5386 32.3146 46.3252 32.5597 46.3252H33.6715C33.9166 46.3252 34.1155 46.5386 34.1155 46.8017C34.1155 47.0647 33.9166 47.2781 33.6715 47.2781ZM30.781 54.3573H29.2253C28.9802 54.3573 28.7812 54.1439 28.7812 53.8809C28.7812 53.6179 28.9802 53.4044 29.2253 53.4044H30.781C31.0261 53.4044 31.225 53.6179 31.225 53.8809C31.225 54.1439 31.0261 54.3573 30.781 54.3573Z" fill="white"/>
<path d="M93.5662 65.5713C93.8326 64.9843 94.0688 64.3668 94.273 63.7197C96.6111 56.3156 93.0751 47.4458 85.6301 45.3046C84.8256 34.4576 77.7216 27.0153 69.6985 25.746C60.5157 24.2928 52.1037 30.5525 49.3047 40.5019C45.9312 39.2193 42.6438 39.3756 39.5455 41.3186C38.1398 42.0161 36.854 43.0453 35.7005 44.3994C34.0071 46.3871 32.906 48.8962 32.4575 51.5415C31.7933 51.6539 31.1406 51.7664 30.5252 52.0027C26.9377 53.3835 24.6742 56.225 24.0535 60.5056C23.6672 63.1709 24.4469 65.8295 24.882 66.9034C26.6003 71.1487 30.5847 73.5548 34.6331 72.9182C34.8347 72.8868 35.1277 72.984 35.3009 73.1403C35.5149 79.925 38.5847 85.9255 43.1899 89.3532C50.579 94.8534 60.0859 93.1591 66.0834 85.6168C68.6533 88.4374 71.7116 89.8077 75.3044 89.3103C78.8769 88.8157 81.651 86.7003 83.6747 83.2602C84.6098 83.5299 85.496 83.9187 86.4124 84.0264C90.0017 84.4476 92.8922 82.8981 95.0545 79.4524C95.1282 79.3342 95.2347 79.2437 95.3262 79.1398C95.6352 78.3794 95.9442 77.619 96.2533 76.8586C96.3909 75.7046 96.6342 74.5496 96.6467 73.3976C96.6813 70.2949 95.4994 67.4666 93.5662 65.5713Z" fill="#C8EDE6"/>
<path d="M81.5254 45.438C81.5254 45.438 71.1438 45.438 71.0808 45.438C68.6832 45.438 66.7402 43.3521 66.7402 40.7792C66.7402 38.5351 68.2196 36.6617 70.1892 36.2205C70.1661 36.0242 70.151 35.825 70.151 35.622C70.151 32.9577 72.1641 30.7974 74.647 30.7974C76.1131 30.7974 77.4113 31.554 78.2318 32.7195C78.4414 29.753 80.9109 27.4651 83.7996 27.8443C85.9122 28.1216 87.6589 29.8741 88.0478 32.1191C88.1721 32.8395 88.1597 33.538 88.0354 34.1936C88.6019 33.539 89.4082 33.1273 90.306 33.1273C91.9488 33.1273 93.2906 34.5005 93.3962 36.2348C94.1422 36.0575 94.9538 36.069 95.8089 36.4139C97.4429 37.0724 98.6061 38.7228 98.6745 40.5944C98.7713 43.252 96.7919 45.4399 94.3366 45.4399C94.1501 45.4399 93.4948 45.4399 93.3438 45.4399H84.3298" fill="#FDFCEF"/>
<path d="M71.0795 45.9145H81.5241C81.7692 45.9145 81.9681 45.701 81.9681 45.438C81.9681 45.175 81.7692 44.9616 81.5241 44.9616H71.0795C68.9305 44.9616 67.182 43.0853 67.182 40.7792C67.182 38.8105 68.4838 37.0886 70.2776 36.6864C70.504 36.6359 70.6559 36.4072 70.6275 36.1604C70.6071 35.9832 70.5928 35.804 70.5928 35.622C70.5928 33.2235 72.4106 31.2739 74.6439 31.2739C75.9209 31.2739 77.0992 31.9057 77.8745 33.0063C77.9855 33.1645 78.1746 33.2321 78.354 33.1759C78.5307 33.1197 78.6577 32.9529 78.671 32.7557C78.7633 31.4435 79.3627 30.2104 80.3138 29.3738C81.2755 28.5276 82.4947 28.1521 83.7415 28.317C85.6649 28.5705 87.2544 30.1685 87.6069 32.2058C87.717 32.8414 87.7135 33.478 87.5954 34.0983C87.5563 34.308 87.6504 34.5195 87.828 34.6167C88.0056 34.7158 88.2214 34.6739 88.3564 34.5176C88.867 33.9287 89.5579 33.6038 90.3011 33.6038C91.6944 33.6038 92.8568 34.7739 92.9483 36.2662C92.9571 36.4053 93.0211 36.5321 93.125 36.615C93.2289 36.6998 93.363 36.7293 93.4873 36.6998C94.2341 36.5235 94.9409 36.574 95.6478 36.8589C97.1299 37.4564 98.1653 38.9639 98.2256 40.6115C98.2674 41.7617 97.882 42.8509 97.1414 43.678C96.3999 44.5061 95.4018 44.9625 94.3318 44.9625H84.3249C84.0798 44.9625 83.8809 45.176 83.8809 45.439C83.8809 45.702 84.0798 45.9154 84.3249 45.9154H94.3335C95.6469 45.9154 96.8714 45.3551 97.7825 44.3393C98.6927 43.3235 99.166 41.9866 99.1145 40.5753C99.0408 38.5494 97.7737 36.6979 95.9621 35.9679C95.2517 35.6811 94.5182 35.5887 93.7705 35.683C93.4358 33.9468 91.9963 32.6508 90.3029 32.6508C89.6955 32.6508 89.1005 32.8224 88.5766 33.1368C88.5766 32.769 88.5456 32.4012 88.4825 32.0324C88.0589 29.591 86.1551 27.6747 83.8516 27.3717C82.3606 27.1763 80.9034 27.6252 79.7526 28.6372C78.8619 29.4214 78.2288 30.4963 77.9428 31.6798C77.0442 30.807 75.8836 30.321 74.6448 30.321C71.9213 30.321 69.7057 32.6994 69.7057 35.622C69.7057 35.7011 69.7075 35.7802 69.712 35.8584C67.7104 36.4997 66.2949 38.5037 66.2949 40.7792C66.294 43.6122 68.4403 45.9145 71.0795 45.9145Z" fill="#472B29"/>
<path d="M84.0391 35.177C85.6446 35.0636 87.0272 36.2538 87.1258 37.8347C87.1382 38.031 87.1302 38.2245 87.1035 38.4122C87.4135 38.0367 87.8717 37.7823 88.3983 37.7451C89.3617 37.6775 90.1938 38.3598 90.3146 39.2889C90.4895 39.2374 90.6724 39.2031 90.8616 39.1898C92.2664 39.0907 93.4758 40.1322 93.5629 41.5158" fill="#FDFCEF"/>
<path d="M93.5627 41.7531C93.568 41.7531 93.5734 41.7531 93.5778 41.7522C93.7003 41.7436 93.7927 41.6302 93.7847 41.4987C93.6897 39.9864 92.3745 38.841 90.8472 38.9506C90.7255 38.9592 90.6048 38.9754 90.484 39.0011C90.2407 38.0787 89.3687 37.4335 88.383 37.5079C88.0056 37.5336 87.6522 37.6594 87.3494 37.8719C87.3494 37.8538 87.3476 37.8366 87.3467 37.8185C87.2401 36.108 85.7598 34.8073 84.0238 34.9398C83.9012 34.9483 83.8089 35.0617 83.8169 35.1932C83.8249 35.3247 83.927 35.4362 84.0531 35.4143C85.5192 35.3143 86.813 36.4025 86.9036 37.8509C86.9142 38.0263 86.9071 38.2035 86.8832 38.3779C86.8681 38.4817 86.9196 38.5847 87.0084 38.6294C87.0972 38.6742 87.2028 38.6504 87.2685 38.5713C87.5554 38.2235 87.9612 38.0148 88.4114 37.9834C89.2559 37.951 89.9876 38.5132 90.0933 39.3213C90.1022 39.3889 90.1377 39.4499 90.191 39.488C90.2442 39.5252 90.3091 39.5366 90.3721 39.5185C90.5382 39.4699 90.7069 39.4394 90.8756 39.4261C92.1543 39.3384 93.2617 40.2799 93.3398 41.5311C93.3496 41.6569 93.4473 41.7531 93.5627 41.7531Z" fill="#472B29"/>
<path d="M69.3203 36.7665C70.829 36.0032 72.5739 36.5435 73.2177 37.9738C73.2977 38.1511 73.3572 38.335 73.3962 38.5208" fill="#FDFCEF"/>
<path d="M73.3955 38.759C73.4115 38.759 73.4284 38.7571 73.4452 38.7533C73.5642 38.7238 73.6397 38.5961 73.6122 38.4674C73.5687 38.2607 73.5029 38.0596 73.4177 37.87C72.7224 36.3253 70.8407 35.7364 69.2254 36.5502C69.1144 36.6073 69.0665 36.7484 69.1189 36.8675C69.1713 36.9876 69.3045 37.0352 69.4146 36.9818C70.8123 36.2729 72.4285 36.7655 73.0181 38.0767C73.0891 38.234 73.1433 38.4007 73.1797 38.5732C73.2028 38.6847 73.2943 38.759 73.3955 38.759Z" fill="#472B29"/>
<path d="M59.5225 32.647H50.6159C50.3708 32.647 50.1719 32.4336 50.1719 32.1706C50.1719 31.9076 50.3708 31.6941 50.6159 31.6941H59.5225C59.7676 31.6941 59.9665 31.9076 59.9665 32.1706C59.9665 32.4336 59.7685 32.647 59.5225 32.647ZM62.5248 32.1706C62.5248 31.9076 62.3259 31.6941 62.0808 31.6941H60.7968C60.5517 31.6941 60.3528 31.9076 60.3528 32.1706C60.3528 32.4336 60.5517 32.647 60.7968 32.647H62.0808C62.3268 32.647 62.5248 32.4336 62.5248 32.1706ZM66.1257 32.1706C66.1257 31.9076 65.9268 31.6941 65.6817 31.6941H63.4208C63.1758 31.6941 62.9768 31.9076 62.9768 32.1706C62.9768 32.4336 63.1758 32.647 63.4208 32.647H65.6817C65.9277 32.647 66.1257 32.4336 66.1257 32.1706ZM66.1257 34.0764C66.1257 33.8134 65.9268 33.6 65.6817 33.6H57.1427C56.8976 33.6 56.6987 33.8134 56.6987 34.0764C56.6987 34.3394 56.8976 34.5529 57.1427 34.5529H65.6817C65.9277 34.5529 66.1257 34.3394 66.1257 34.0764ZM56.0487 34.0764C56.0487 33.8134 55.8498 33.6 55.6047 33.6H55.0896C54.8445 33.6 54.6456 33.8134 54.6456 34.0764C54.6456 34.3394 54.8445 34.5529 55.0896 34.5529H55.6047C55.8498 34.5529 56.0487 34.3394 56.0487 34.0764ZM53.9388 34.0764C53.9388 33.8134 53.7399 33.6 53.4948 33.6H52.201C51.9559 33.6 51.757 33.8134 51.757 34.0764C51.757 34.3394 51.9559 34.5529 52.201 34.5529H53.4948C53.7399 34.5529 53.9388 34.3394 53.9388 34.0764ZM62.0507 30.2647C62.0507 30.0017 61.8517 29.7883 61.6067 29.7883H57.1427C56.8976 29.7883 56.6987 30.0017 56.6987 30.2647C56.6987 30.5277 56.8976 30.7412 57.1427 30.7412H61.6067C61.8526 30.7412 62.0507 30.5277 62.0507 30.2647ZM62.0507 28.3589C62.0507 28.0959 61.8517 27.8825 61.6067 27.8825H60.4904C60.2454 27.8825 60.0464 28.0959 60.0464 28.3589C60.0464 28.6219 60.2454 28.8354 60.4904 28.8354H61.6067C61.8526 28.8354 62.0507 28.6219 62.0507 28.3589ZM59.1478 35.9822C59.1478 35.7192 58.9489 35.5058 58.7038 35.5058H57.1427C56.8976 35.5058 56.6987 35.7192 56.6987 35.9822C56.6987 36.2452 56.8976 36.4587 57.1427 36.4587H58.7038C58.9498 36.4587 59.1478 36.2452 59.1478 35.9822ZM93.1289 72.6695H84.2223C83.9772 72.6695 83.7783 72.4561 83.7783 72.1931C83.7783 71.9301 83.9772 71.7166 84.2223 71.7166H93.1298C93.3749 71.7166 93.5738 71.9301 93.5738 72.1931C93.5738 72.4561 93.3749 72.6695 93.1289 72.6695ZM96.1312 72.1931C96.1312 71.9301 95.9323 71.7166 95.6872 71.7166H94.4032C94.1581 71.7166 93.9592 71.9301 93.9592 72.1931C93.9592 72.4561 94.1581 72.6695 94.4032 72.6695H95.6872C95.9332 72.6695 96.1312 72.4561 96.1312 72.1931ZM99.7321 72.1931C99.7321 71.9301 99.5332 71.7166 99.2881 71.7166H97.0272C96.7821 71.7166 96.5832 71.9301 96.5832 72.1931C96.5832 72.4561 96.7821 72.6695 97.0272 72.6695H99.2881C99.5332 72.6695 99.7321 72.4561 99.7321 72.1931ZM97.933 68.3814C97.933 68.1184 97.7341 67.9049 97.489 67.9049H88.95C88.7049 67.9049 88.506 68.1184 88.506 68.3814C88.506 68.6444 88.7049 68.8579 88.95 68.8579H97.489C97.7341 68.8579 97.933 68.6444 97.933 68.3814ZM87.856 68.3814C87.856 68.1184 87.657 67.9049 87.412 67.9049H86.8969C86.6518 67.9049 86.4529 68.1184 86.4529 68.3814C86.4529 68.6444 86.6518 68.8579 86.8969 68.8579H87.412C87.6579 68.8579 87.856 68.6444 87.856 68.3814ZM85.7452 68.3814C85.7452 68.1184 85.5463 67.9049 85.3012 67.9049H84.0082C83.7632 67.9049 83.5642 68.1184 83.5642 68.3814C83.5642 68.6444 83.7632 68.8579 84.0082 68.8579H85.3012C85.5472 68.8579 85.7452 68.6444 85.7452 68.3814ZM95.657 70.2872C95.657 70.0242 95.4581 69.8108 95.213 69.8108H90.7491C90.504 69.8108 90.3051 70.0242 90.3051 70.2872C90.3051 70.5502 90.504 70.7637 90.7491 70.7637H95.213C95.4581 70.7637 95.657 70.5502 95.657 70.2872ZM95.657 68.3814C95.657 68.1184 95.4581 67.9049 95.213 67.9049H94.0968C93.8517 67.9049 93.6528 68.1184 93.6528 68.3814C93.6528 68.6444 93.8517 68.8579 94.0968 68.8579H95.213C95.4581 68.8579 95.657 68.6444 95.657 68.3814ZM89.9001 70.2872C89.9001 70.0242 89.7012 69.8108 89.4561 69.8108H87.895C87.6499 69.8108 87.451 70.0242 87.451 70.2872C87.451 70.5502 87.6499 70.7637 87.895 70.7637H89.4561C89.7021 70.7637 89.9001 70.5502 89.9001 70.2872Z" fill="white"/>
<path d="M42.901 75.8018C44.5731 75.8018 46.0241 75.8018 46.0445 75.8018C47.9182 75.8018 49.4375 74.2066 49.4375 72.2388C49.4375 70.5216 48.2814 69.0894 46.7425 68.7511C46.7602 68.6006 46.7726 68.449 46.7726 68.2937C46.7726 66.2554 45.1991 64.6031 43.2588 64.6031C42.1133 64.6031 41.0983 65.1815 40.4572 66.0734C40.2929 63.8045 38.3633 62.054 36.106 62.3447C34.4552 62.5572 33.0894 63.897 32.7857 65.6141C32.6881 66.1649 32.6987 66.6995 32.7955 67.2007C32.3533 66.7004 31.7228 66.385 31.0213 66.385C29.7372 66.385 28.6885 67.4351 28.6059 68.7616C28.0225 68.6263 27.3885 68.6349 26.7207 68.8979C25.4438 69.401 24.5344 70.6636 24.4812 72.0959C24.4057 74.1284 25.9526 75.8018 27.8716 75.8018C28.0172 75.8018 28.5296 75.8018 28.6477 75.8018H35.6931M37.1494 75.8018H37.4691H37.1494Z" fill="#FDFCEF"/>
<path d="M46.0445 76.2792H42.9009C42.6559 76.2792 42.4569 76.0657 42.4569 75.8027C42.4569 75.5397 42.6559 75.3263 42.9009 75.3263H46.0445C47.6704 75.3263 48.9935 73.9417 48.9935 72.2398C48.9935 70.7875 48.0096 69.5163 46.6527 69.219C46.4254 69.1685 46.2718 68.9389 46.3011 68.6911C46.3171 68.5606 46.3277 68.4291 46.3277 68.2937C46.3277 66.5213 44.9505 65.0795 43.2579 65.0795C42.2882 65.0795 41.3949 65.5474 40.807 66.365C40.6952 66.5213 40.5042 66.5852 40.3284 66.5308C40.1526 66.4737 40.0274 66.3079 40.0132 66.1116C39.943 65.1396 39.5114 64.2591 38.7975 63.6302C38.0613 62.9822 37.1236 62.6973 36.1575 62.8173C34.6958 63.005 33.4881 64.1914 33.2209 65.7018C33.1374 66.1735 33.14 66.6452 33.2288 67.1045C33.2688 67.3132 33.1756 67.5247 32.9997 67.6238C32.8248 67.721 32.609 67.6839 32.4723 67.5285C32.0922 67.0988 31.5763 66.8615 31.0204 66.8615C29.9823 66.8615 29.1156 67.7105 29.0481 68.7931C29.0393 68.9322 28.9753 69.058 28.8723 69.1418C28.7693 69.2247 28.6379 69.2562 28.5118 69.2266C27.9444 69.0951 27.408 69.1333 26.8725 69.3458C25.7519 69.787 24.9687 70.9 24.9234 72.114C24.8923 72.9487 25.1747 73.7425 25.7181 74.3495C26.282 74.9784 27.0466 75.3253 27.8698 75.3253H35.6904C35.9355 75.3253 36.1344 75.5388 36.1344 75.8018C36.1344 76.0648 35.9355 76.2782 35.6904 76.2782H27.8698C26.8175 76.2782 25.7998 75.8161 25.0779 75.0099C24.3648 74.2133 23.9954 73.1717 24.0363 72.0768C24.0958 70.4807 25.1125 69.0237 26.5662 68.45C27.1079 68.2356 27.6673 68.1603 28.2356 68.2175C28.5411 66.8872 29.6822 65.9076 31.0195 65.9076C31.4573 65.9076 31.8871 66.0153 32.2751 66.2154C32.2831 65.9848 32.308 65.7542 32.3488 65.5227C32.6872 63.6082 34.2101 62.1065 36.0518 61.8701C37.2639 61.711 38.4361 62.0779 39.3605 62.8907C40.0247 63.4748 40.4954 64.2334 40.7333 65.0843C41.4357 64.4668 42.3193 64.1247 43.257 64.1247C45.4397 64.1247 47.2149 65.9943 47.2149 68.2918C47.2149 68.3242 47.2149 68.3566 47.214 68.39C48.7804 68.9188 49.8806 70.475 49.8806 72.2379C49.8815 74.4667 48.1606 76.2792 46.0445 76.2792ZM37.469 76.2792H37.1494C36.9043 76.2792 36.7054 76.0657 36.7054 75.8027C36.7054 75.5397 36.9043 75.3263 37.1494 75.3263H37.469C37.7141 75.3263 37.913 75.5397 37.913 75.8027C37.913 76.0657 37.7141 76.2792 37.469 76.2792Z" fill="#472B29"/>
<path d="M44.5277 70.7484C44.5118 70.7484 44.4958 70.7465 44.4789 70.7427C44.359 70.7141 44.2835 70.5864 44.3111 70.4578C44.3439 70.3015 44.3945 70.1481 44.462 70.0014C44.9984 68.835 46.4796 68.4033 47.7672 69.0418C47.8782 69.097 47.927 69.2381 47.8755 69.3572C47.824 69.4772 47.6917 69.5278 47.5807 69.4734C46.5142 68.9436 45.2923 69.2752 44.8607 70.211C44.8092 70.3234 44.7702 70.4416 44.7453 70.5607C44.7213 70.6732 44.6299 70.7484 44.5277 70.7484ZM39.9465 76.2792H38.9635C38.7184 76.2792 38.5195 76.0657 38.5195 75.8027C38.5195 75.5397 38.7184 75.3263 38.9635 75.3263H39.9465C40.1916 75.3263 40.3905 75.5397 40.3905 75.8027C40.3905 76.0657 40.1925 76.2792 39.9465 76.2792Z" fill="#472B29"/>
<path d="M47.3789 65.3321C46.6338 65.3321 46.0273 64.6812 46.0273 63.8817V41.4358C46.0273 40.6353 46.6338 39.9854 47.3789 39.9854H77.1757C77.9208 39.9854 78.5273 40.6363 78.5273 41.4358V63.8817C78.5273 64.6822 77.9208 65.3321 77.1757 65.3321H47.3789Z" fill="#67BA8C"/>
<path d="M77.1762 40.6515C77.5723 40.6515 77.9071 41.0108 77.9071 41.4358V63.8817C77.9071 64.3067 77.5723 64.666 77.1762 64.666H47.3803C46.9842 64.666 46.6495 64.3067 46.6495 63.8817V41.4358C46.6495 41.0108 46.9842 40.6515 47.3803 40.6515H77.1762ZM77.1762 39.3175H47.3803C46.2943 39.3175 45.4062 40.2704 45.4062 41.4358V63.8817C45.4062 65.0462 46.2943 65.9991 47.3803 65.9991H77.1762C78.2623 65.9991 79.1503 65.0462 79.1503 63.8808V41.4358C79.1503 40.2704 78.2623 39.3175 77.1762 39.3175Z" fill="#472B29"/>
<path d="M46.2924 67.2379C45.1664 67.2379 44.25 66.2554 44.25 65.0462C44.25 63.8369 45.1664 62.8545 46.2924 62.8545H78.2604C79.3864 62.8545 80.3028 63.8369 80.3028 65.0462C80.3028 66.2554 79.3864 67.2379 78.2604 67.2379H46.2924Z" fill="#ECAD6F"/>
<path d="M78.2629 63.5215C79.0461 63.5215 79.6837 64.2057 79.6837 65.0462C79.6837 65.8866 79.0461 66.5708 78.2629 66.5708H46.2949C45.5116 66.5708 44.8741 65.8866 44.8741 65.0462C44.8741 64.2057 45.5116 63.5215 46.2949 63.5215H78.2629ZM78.2629 62.1874H46.2949C44.8297 62.1874 43.6309 63.4739 43.6309 65.0462C43.6309 66.6185 44.8297 67.9049 46.2949 67.9049H78.2629C79.7281 67.9049 80.9269 66.6185 80.9269 65.0462C80.9269 63.4739 79.7281 62.1874 78.2629 62.1874Z" fill="#472B29"/>
<path d="M46.7377 42.8433C45.8427 42.8433 44.9844 43.2248 44.3516 43.9038C43.7188 44.5829 43.3633 45.504 43.3633 46.4643C43.3633 47.4247 43.7188 48.3457 44.3516 49.0248C44.9844 49.7039 45.8427 50.0854 46.7377 50.0854C47.6326 50.0854 48.4909 49.7039 49.1237 49.0248C49.7566 48.3457 50.1121 47.4247 50.1121 46.4643C50.1121 45.504 49.7566 44.5829 49.1237 43.9038C48.4909 43.2248 47.6326 42.8433 46.7377 42.8433Z" fill="#FDDBBC"/>
<path d="M46.7362 43.5103C48.2538 43.5103 49.489 44.8358 49.489 46.4643C49.489 48.0929 48.2538 49.4184 46.7362 49.4184C45.2186 49.4184 43.9834 48.0929 43.9834 46.4643C43.9834 44.8358 45.2186 43.5103 46.7362 43.5103ZM46.7362 42.1762C44.5296 42.1762 42.7402 44.0963 42.7402 46.4643C42.7402 48.8323 44.5296 50.7525 46.7362 50.7525C48.9429 50.7525 50.7322 48.8323 50.7322 46.4643C50.7322 44.0963 48.9429 42.1762 46.7362 42.1762Z" fill="#472B29"/>
<path d="M58.7253 70.4778C57.9481 70.4778 57.2028 70.8091 56.6532 71.3989C56.1037 71.9886 55.7949 72.7884 55.7949 73.6224C55.7949 74.4564 56.1037 75.2563 56.6532 75.846C57.2028 76.4358 57.9481 76.7671 58.7253 76.7671C59.5025 76.7671 60.2479 76.4358 60.7974 75.846C61.347 75.2563 61.6557 74.4564 61.6557 73.6224C61.6557 72.7884 61.347 71.9886 60.7974 71.3989C60.2479 70.8091 59.5025 70.4778 58.7253 70.4778Z" fill="#FDDBBC"/>
<path d="M58.7239 71.1449C59.9973 71.1449 61.0327 72.2569 61.0327 73.6224C61.0327 74.988 59.9973 76.1 58.7239 76.1C57.4505 76.1 56.4151 74.988 56.4151 73.6224C56.4151 72.2569 57.4505 71.1449 58.7239 71.1449ZM58.7239 69.8108C56.7623 69.8108 55.1719 71.5174 55.1719 73.6224C55.1719 75.7274 56.7623 77.4341 58.7239 77.4341C60.6855 77.4341 62.2759 75.7274 62.2759 73.6224C62.2759 71.5174 60.6855 69.8108 58.7239 69.8108Z" fill="#472B29"/>
<path d="M49.4065 82.0081C48.5061 82.0081 47.7611 81.2229 47.7451 80.2566L47.4432 68.2194C47.4343 67.8573 47.1537 67.5466 46.8171 67.5466C46.6448 67.5466 46.4797 67.6238 46.3616 67.7591C46.2444 67.8954 46.1813 68.0965 46.1937 68.2813L45.811 80.2471C45.7897 81.221 45.0376 82.009 44.1362 82.009C43.7091 82.009 43.3095 81.8299 43.0129 81.504C42.7163 81.1771 42.5583 80.7445 42.5689 80.2862L42.8371 68.2184C42.8415 68.0221 42.7643 67.8335 42.6275 67.7029C42.513 67.5943 42.3665 67.5352 42.2155 67.5352C42.1853 67.5352 42.1551 67.5381 42.1249 67.5428C42.0379 67.5571 41.9677 67.5695 41.894 67.5695C41.0007 67.5695 40.2734 66.79 40.2734 65.8304V57.1665C40.2743 57.1541 40.2876 57.0512 40.2885 57.0388C40.3534 55.3083 42.045 51.5767 46.6599 51.5767C46.6599 51.5767 46.8491 51.5824 46.8651 51.5834C49.4341 51.6129 50.9179 52.1008 51.7135 52.5048C51.9071 52.5878 52.0252 52.6535 52.1229 52.7316L55.9866 55.7791C56.0932 55.8629 56.2228 55.9087 56.3551 55.9087H59.8352C60.7285 55.9087 61.4558 56.6882 61.4558 57.6477C61.4558 58.6073 60.7285 59.3868 59.8352 59.3868H55.7983C55.6225 59.3868 55.444 59.3506 55.2522 59.2763C55.2238 59.2648 55.1954 59.2563 55.1652 59.2496C54.9317 59.1972 54.7212 59.099 54.5383 58.9551L51.6807 56.7005C51.5715 56.6138 51.4427 56.57 51.3122 56.57C51.2163 56.57 51.1204 56.5938 51.0316 56.6415C50.822 56.7549 50.6906 56.9855 50.6906 57.237V62.4609C50.6906 62.8106 50.7092 63.735 50.7217 64.3572L50.9881 80.2814C50.9952 80.7407 50.8353 81.1743 50.5352 81.5011C50.235 81.828 49.8354 82.0081 49.4065 82.0081Z" fill="#48BED8"/>
<path d="M46.678 52.2428H46.6798L46.8121 52.2457C46.8361 52.2476 46.8583 52.2485 46.8778 52.2485C49.3154 52.2762 50.7087 52.7298 51.4475 53.1052C51.4741 53.1185 51.5008 53.1309 51.5274 53.1424C51.6286 53.1843 51.7032 53.2253 51.7547 53.2662L55.6184 56.3146C55.8315 56.4833 56.0899 56.5738 56.3546 56.5738H59.8346C60.3861 56.5738 60.8345 57.055 60.8345 57.6458C60.8345 58.2367 60.3861 58.7188 59.8346 58.7188H55.7978C55.6966 58.7188 55.5882 58.695 55.4639 58.6474C55.4071 58.6254 55.3494 58.6073 55.2907 58.594C55.1442 58.5616 55.0155 58.5016 54.9071 58.4158L52.0487 56.1612C51.8311 55.9897 51.5727 55.902 51.3125 55.902C51.1207 55.902 50.9289 55.9497 50.7513 56.0459C50.333 56.2727 50.0693 56.733 50.0693 57.2361V62.46C50.0693 62.8183 50.0879 63.776 50.1004 64.4039L50.1093 64.8909L50.3659 80.2929C50.3703 80.5721 50.2727 80.8351 50.0915 81.0342C49.9103 81.2324 49.667 81.342 49.406 81.342C48.8519 81.342 48.3759 80.8398 48.3661 80.2338L48.0642 68.2385C48.0642 67.5019 47.503 66.8806 46.8166 66.8806C46.4738 66.8806 46.1452 67.033 45.9108 67.2998C45.7021 67.5371 45.5813 67.864 45.5707 68.1908L45.1888 80.2376C45.1755 80.836 44.6933 81.342 44.1357 81.342C43.8773 81.342 43.6357 81.2334 43.4572 81.0371C43.2788 80.8408 43.1829 80.5787 43.1891 80.3014L43.4572 68.2337C43.4661 67.8401 43.2983 67.4657 43.0239 67.2046C42.7957 66.9873 42.4929 66.872 42.1892 66.872C42.1279 66.872 42.0658 66.8767 42.0054 66.8863C41.9672 66.892 41.929 66.9006 41.8944 66.9025C41.3429 66.9025 40.8945 66.4213 40.8945 65.8304V57.2208C40.8998 57.1761 40.9051 57.1322 40.9078 57.0865C40.9087 57.0703 40.9096 57.0541 40.9105 57.0379C40.946 56.085 42.0791 52.2428 46.678 52.2428ZM46.8272 50.9078C46.8148 50.9078 46.8032 50.9116 46.7908 50.9116C46.7446 50.9116 46.7056 50.9078 46.6585 50.9078C41.4761 50.9078 39.7339 55.1873 39.6673 56.9826C39.6628 57.0436 39.6504 57.1027 39.6504 57.1646V65.8285C39.6504 67.1521 40.6592 68.2347 41.8935 68.2347C42.0036 68.2347 42.1093 68.2165 42.2149 68.1994L41.9468 80.2671C41.9175 81.5907 42.9022 82.6732 44.1357 82.6732C45.3691 82.6732 46.4027 81.5907 46.4321 80.2671L46.813 68.2337C46.8121 68.2204 46.8148 68.2118 46.8166 68.2118C46.8192 68.2118 46.821 68.2194 46.821 68.2356L47.1229 80.2671C47.1451 81.5907 48.1725 82.6732 49.406 82.6732C50.6394 82.6732 51.6304 81.5907 51.6082 80.2671L51.3516 64.8651C51.3454 64.4916 51.3116 62.9364 51.3116 62.4581V57.2342L54.1701 59.4888C54.4365 59.6984 54.7331 59.8299 55.0377 59.8985C55.2756 59.9919 55.5296 60.051 55.7969 60.051H59.8338C61.0672 60.051 62.0768 58.9685 62.0768 57.6439C62.0768 56.3203 61.0681 55.2378 59.8338 55.2378H56.3537L52.4909 52.1914C52.3302 52.0646 52.157 51.9741 51.9785 51.8998C51.11 51.4586 49.5321 50.9449 46.8903 50.9144C46.8689 50.9144 46.8485 50.9078 46.8272 50.9078Z" fill="#472B29"/>
<path d="M48.5143 56.4699H45.8503C45.6052 56.4699 45.4062 56.2565 45.4062 55.9935C45.4062 55.7305 45.6052 55.517 45.8503 55.517H48.5143C48.7593 55.517 48.9583 55.7305 48.9583 55.9935C48.9583 56.2565 48.7593 56.4699 48.5143 56.4699Z" fill="#472B29"/>
<path d="M43.1842 67.905C42.9391 67.905 42.7402 67.6915 42.7402 67.4285V56.9464C42.7402 56.6834 42.9391 56.47 43.1842 56.47C43.4293 56.47 43.6282 56.6834 43.6282 56.9464V67.4285C43.6282 67.6915 43.4293 67.905 43.1842 67.905Z" fill="#472B29"/>
<path d="M76.0419 52.6583C75.7968 52.6583 75.5979 52.4448 75.5979 52.1818V43.6056H72.3229C72.0778 43.6056 71.8789 43.3921 71.8789 43.1291C71.8789 42.8661 72.0778 42.6527 72.3229 42.6527H76.0419C76.2869 42.6527 76.4859 42.8661 76.4859 43.1291V52.1818C76.4859 52.4448 76.2869 52.6583 76.0419 52.6583Z" fill="#472B29"/>
<path d="M76.0417 59.3287C75.7966 59.3287 75.5977 59.1152 75.5977 58.8522V54.5641C75.5977 54.3011 75.7966 54.0877 76.0417 54.0877C76.2867 54.0877 76.4857 54.3011 76.4857 54.5641V58.8522C76.4857 59.1152 76.2867 59.3287 76.0417 59.3287Z" fill="#472B29"/>
<path d="M61.133 57.2513C61.0078 57.2513 60.8826 57.1942 60.7955 57.0836C60.6366 56.8835 60.6588 56.5833 60.8453 56.4118L69.7341 48.2853C69.9197 48.1148 70.2012 48.1386 70.3602 48.3397C70.5191 48.5398 70.4969 48.8399 70.3105 49.0115L61.4216 57.1379C61.3372 57.2142 61.2351 57.2513 61.133 57.2513Z" fill="#472B29"/>
<path d="M69.3817 43.6056H51.6217C51.3766 43.6056 51.1777 43.3921 51.1777 43.1291C51.1777 42.8661 51.3766 42.6527 51.6217 42.6527H69.3817C69.6268 42.6527 69.8257 42.8661 69.8257 43.1291C69.8257 43.3921 69.6268 43.6056 69.3817 43.6056Z" fill="#472B29"/>
<path d="M54.9062 81.5316V81.2458C54.9062 78.9864 56.6192 77.1482 58.7247 77.1482C60.8301 77.1482 62.5431 78.9864 62.5431 81.2458V81.5316H54.9062Z" fill="#6673A7"/>
<path d="M58.7252 77.8153C60.368 77.8153 61.7248 79.1522 61.9024 80.8646H55.5479C55.7255 79.1513 57.0824 77.8153 58.7252 77.8153ZM58.7252 76.4812C56.2734 76.4812 54.2852 78.6148 54.2852 81.2458V82.1987H63.1652V81.2458C63.1652 78.6148 61.1769 76.4812 58.7252 76.4812Z" fill="#472B29"/>
<path d="M67.6062 70.4778C66.829 70.4778 66.0836 70.8091 65.5341 71.3989C64.9845 71.9886 64.6758 72.7884 64.6758 73.6224C64.6758 74.4564 64.9845 75.2563 65.5341 75.846C66.0836 76.4358 66.829 76.7671 67.6062 76.7671C68.3834 76.7671 69.1287 76.4358 69.6783 75.846C70.2278 75.2563 70.5366 74.4564 70.5366 73.6224C70.5366 72.7884 70.2278 71.9886 69.6783 71.3989C69.1287 70.8091 68.3834 70.4778 67.6062 70.4778Z" fill="#FDDBBC"/>
<path d="M67.6067 71.1449C68.8801 71.1449 69.9155 72.2569 69.9155 73.6224C69.9155 74.988 68.8801 76.1 67.6067 76.1C66.3333 76.1 65.2979 74.988 65.2979 73.6224C65.2979 72.2569 66.3333 71.1449 67.6067 71.1449ZM67.6067 69.8108C65.6451 69.8108 64.0547 71.5174 64.0547 73.6224C64.0547 75.7274 65.6451 77.4341 67.6067 77.4341C69.5683 77.4341 71.1587 75.7274 71.1587 73.6224C71.1587 71.5174 69.5683 69.8108 67.6067 69.8108Z" fill="#472B29"/>
<path d="M63.7852 81.5317V81.2458C63.7852 78.9864 65.4981 77.1482 67.6036 77.1482C69.709 77.1482 71.422 78.9864 71.422 81.2458V81.5317H63.7852Z" fill="#6673A7"/>
<path d="M67.6041 77.8153C69.2469 77.8153 70.6037 79.1522 70.7813 80.8646H64.4268C64.6044 79.1513 65.9613 77.8153 67.6041 77.8153ZM67.6041 76.4812C65.1523 76.4812 63.1641 78.6148 63.1641 81.2458V82.1987H72.0441V81.2458C72.0441 78.6148 70.0558 76.4812 67.6041 76.4812Z" fill="#472B29"/>
<path d="M76.4851 70.4778C75.7079 70.4778 74.9625 70.8091 74.413 71.3989C73.8634 71.9886 73.5547 72.7884 73.5547 73.6224C73.5547 74.4564 73.8634 75.2563 74.413 75.846C74.9625 76.4358 75.7079 76.7671 76.4851 76.7671C77.2623 76.7671 78.0076 76.4358 78.5572 75.846C79.1068 75.2563 79.4155 74.4564 79.4155 73.6224C79.4155 72.7884 79.1068 71.9886 78.5572 71.3989C78.0076 70.8091 77.2623 70.4778 76.4851 70.4778Z" fill="#FDDBBC"/>
<path d="M76.4856 71.1449C77.759 71.1449 78.7944 72.2569 78.7944 73.6224C78.7944 74.988 77.759 76.1 76.4856 76.1C75.2122 76.1 74.1768 74.988 74.1768 73.6224C74.1768 72.2569 75.2122 71.1449 76.4856 71.1449ZM76.4856 69.8108C74.524 69.8108 72.9336 71.5174 72.9336 73.6224C72.9336 75.7274 74.524 77.4341 76.4856 77.4341C78.4472 77.4341 80.0376 75.7274 80.0376 73.6224C80.0376 71.5174 78.4472 69.8108 76.4856 69.8108Z" fill="#472B29"/>
<path d="M72.666 81.5317V81.2458C72.666 78.9864 74.379 77.1482 76.4844 77.1482C78.5899 77.1482 80.3028 78.9864 80.3028 81.2458V81.5317H72.666Z" fill="#6673A7"/>
<path d="M76.4849 77.8153C78.1277 77.8153 79.4846 79.1522 79.6622 80.8646H73.3077C73.4853 79.1513 74.8421 77.8153 76.4849 77.8153ZM76.4849 76.4812C74.0332 76.4812 72.0449 78.6148 72.0449 81.2458V82.1987H80.9249V81.2458C80.9249 78.6148 78.9367 76.4812 76.4849 76.4812Z" fill="#472B29"/>
</svg>
