<svg width="121" height="120" viewBox="0 0 121 120" fill="none" xmlns="http://www.w3.org/2000/svg">
<path d="M118.264 45.0159C124.763 68.6836 113.829 95.6871 95.7266 109.273C77.6248 122.956 52.2637 123.124 31.9114 109.11C11.4677 95.0001 -3.96773 66.6104 2.1671 42.7612C8.39339 19.009 36.2809 -0.203276 62.101 0.406044C88.012 1.01476 111.855 21.3475 118.264 45.0159Z" fill="#FFF3DA"/>
<rect width="88.8001" height="95.2916" transform="translate(16.1016 12.8774)" fill="#FFF3DA"/>
<path d="M93.5487 66.9173C94.5575 64.8638 95.1338 62.5301 95.1338 60.0477C95.1338 53.7385 91.4406 48.3679 86.2529 46.2505C86.2529 46.2438 86.2538 46.2381 86.2538 46.2305C86.2538 35.1776 77.9057 26.2192 67.6058 26.2192C58.9176 26.2192 51.6386 32.6047 49.5678 41.2343C48.2571 40.7722 46.8612 40.513 45.4058 40.513C38.5753 40.513 32.9533 46.0332 32.1843 53.141C27.5632 54.1902 24.0938 58.5888 24.0938 63.8594C24.0938 69.9114 28.6661 74.818 34.3058 74.818C34.4629 74.818 34.6183 74.8065 34.772 74.796C34.7693 74.9637 34.7498 75.1267 34.7498 75.2944C34.7498 86.0824 42.9007 94.8292 52.9538 94.8292C58.6698 94.8292 63.7652 91.9971 67.1041 87.5727C69.0372 89.693 71.7261 91.0175 74.7098 91.0175C78.8399 91.0175 82.4114 88.4914 84.1821 84.8055C85.1163 85.1257 86.1099 85.3 87.1418 85.3C92.5364 85.3 96.9098 80.6069 96.9098 74.818C96.9107 71.6628 95.6053 68.8394 93.5487 66.9173Z" fill="#C7EDE6"/>
<path d="M29.7826 61.4771H20.987C20.7419 61.4771 20.543 61.2637 20.543 61.0007C20.543 60.7376 20.7419 60.5242 20.987 60.5242H29.7826C30.0277 60.5242 30.2266 60.7376 30.2266 61.0007C30.2266 61.2637 30.0286 61.4771 29.7826 61.4771Z" fill="white"/>
<path d="M32.5312 61.4771H31.6432C31.3981 61.4771 31.1992 61.2637 31.1992 61.0007C31.1992 60.7376 31.3981 60.5242 31.6432 60.5242H32.5312C32.7763 60.5242 32.9752 60.7376 32.9752 61.0007C32.9752 61.2637 32.7772 61.4771 32.5312 61.4771Z" fill="white"/>
<path d="M36.9612 63.3829H28.9772C28.7321 63.3829 28.5332 63.1695 28.5332 62.9065C28.5332 62.6435 28.7321 62.43 28.9772 62.43H36.9612C37.2063 62.43 37.4052 62.6435 37.4052 62.9065C37.4052 63.1695 37.2063 63.3829 36.9612 63.3829Z" fill="white"/>
<path d="M27.2031 63.383H26.3151C26.07 63.383 25.8711 63.1695 25.8711 62.9065C25.8711 62.6435 26.07 62.43 26.3151 62.43H27.2031C27.4482 62.43 27.6471 62.6435 27.6471 62.9065C27.6471 63.1695 27.4491 63.383 27.2031 63.383Z" fill="white"/>
<path d="M24.5403 63.383H22.7643C22.5192 63.383 22.3203 63.1695 22.3203 62.9065C22.3203 62.6435 22.5192 62.43 22.7643 62.43H24.5403C24.7854 62.43 24.9843 62.6435 24.9843 62.9065C24.9843 63.1695 24.7863 63.383 24.5403 63.383Z" fill="white"/>
<path d="M29.8665 65.2887H28.0905C27.8454 65.2887 27.6465 65.0753 27.6465 64.8123C27.6465 64.5493 27.8454 64.3358 28.0905 64.3358H29.8665C30.1116 64.3358 30.3105 64.5493 30.3105 64.8123C30.3105 65.0753 30.1116 65.2887 29.8665 65.2887Z" fill="white"/>
<path d="M32.5312 56.7126C32.374 56.7126 31.8004 56.7126 31.6432 56.7126C31.3981 56.7126 31.1992 56.926 31.1992 57.189C31.1992 57.452 31.3981 57.6655 31.6432 57.6655C31.8004 57.6655 32.374 57.6655 32.5312 57.6655C32.7763 57.6655 32.9752 57.452 32.9752 57.189C32.9752 56.926 32.7763 56.7126 32.5312 56.7126Z" fill="white"/>
<path d="M32.5305 58.6184C32.3733 58.6184 28.2477 58.6184 28.0905 58.6184C27.8454 58.6184 27.6465 58.8318 27.6465 59.0949C27.6465 59.3579 27.8454 59.5713 28.0905 59.5713C28.2477 59.5713 32.3733 59.5713 32.5305 59.5713C32.7756 59.5713 32.9745 59.3579 32.9745 59.0949C32.9745 58.8318 32.7756 58.6184 32.5305 58.6184Z" fill="white"/>
<path d="M36.9713 60.5242C36.8141 60.5242 34.4645 60.5242 34.3073 60.5242C34.0622 60.5242 33.8633 60.7377 33.8633 61.0007C33.8633 61.2637 34.0622 61.4771 34.3073 61.4771C34.4645 61.4771 36.8141 61.4771 36.9713 61.4771C37.2164 61.4771 37.4153 61.2637 37.4153 61.0007C37.4153 60.7377 37.2164 60.5242 36.9713 60.5242Z" fill="white"/>
<path d="M80.4822 35.7484H71.6022C71.3571 35.7484 71.1582 35.5349 71.1582 35.2719C71.1582 35.0089 71.3571 34.7955 71.6022 34.7955H80.4822C80.7273 34.7955 80.9262 35.0089 80.9262 35.2719C80.9262 35.5349 80.7273 35.7484 80.4822 35.7484Z" fill="white"/>
<path d="M84.0325 35.7484H82.2565C82.0114 35.7484 81.8125 35.5349 81.8125 35.2719C81.8125 35.0089 82.0114 34.7955 82.2565 34.7955H84.0325C84.2776 34.7955 84.4765 35.0089 84.4765 35.2719C84.4765 35.5349 84.2776 35.7484 84.0325 35.7484Z" fill="white"/>
<path d="M88.4744 37.6542H79.5944C79.3493 37.6542 79.1504 37.4408 79.1504 37.1778C79.1504 36.9147 79.3493 36.7013 79.5944 36.7013H88.4744C88.7195 36.7013 88.9184 36.9147 88.9184 37.1778C88.9184 37.4408 88.7204 37.6542 88.4744 37.6542Z" fill="white"/>
<path d="M77.8183 37.6542H76.9303C76.6852 37.6542 76.4863 37.4408 76.4863 37.1778C76.4863 36.9147 76.6852 36.7013 76.9303 36.7013H77.8183C78.0634 36.7013 78.2623 36.9147 78.2623 37.1778C78.2623 37.4408 78.0634 37.6542 77.8183 37.6542Z" fill="white"/>
<path d="M75.0426 37.6542H73.3776C73.1325 37.6542 72.9336 37.4408 72.9336 37.1778C72.9336 36.9147 73.1325 36.7013 73.3776 36.7013H75.0426C75.2877 36.7013 75.4866 36.9147 75.4866 37.1778C75.4866 37.4408 75.2877 37.6542 75.0426 37.6542Z" fill="white"/>
<path d="M83.1457 33.8426H78.7057C78.4606 33.8426 78.2617 33.6291 78.2617 33.3661C78.2617 33.1031 78.4606 32.8896 78.7057 32.8896H83.1457C83.3908 32.8896 83.5897 33.1031 83.5897 33.3661C83.5897 33.6291 83.3917 33.8426 83.1457 33.8426Z" fill="white"/>
<path d="M80.4817 39.56H78.7057C78.4606 39.56 78.2617 39.3466 78.2617 39.0836C78.2617 38.8206 78.4606 38.6071 78.7057 38.6071H80.4817C80.7268 38.6071 80.9257 38.8206 80.9257 39.0836C80.9257 39.3466 80.7268 39.56 80.4817 39.56Z" fill="white"/>
<path d="M49.4039 85.7765C49.4039 85.7765 50.7954 85.7765 52.5119 85.7765C54.2284 85.7765 55.6199 84.2833 55.6199 82.4413C55.6199 80.7442 54.4345 79.3586 52.9071 79.149C52.932 78.9774 52.9559 78.8069 52.9559 78.6296C52.9559 76.7876 51.5644 75.2944 49.8479 75.2944C48.9315 75.2944 48.1172 75.728 47.5489 76.4046C47.2079 74.6817 45.7836 73.3886 44.0759 73.3886C42.1143 73.3886 40.5239 75.0953 40.5239 77.2003C40.5239 77.3823 40.5515 77.5557 40.5737 77.731C40.1936 77.4032 39.7176 77.2003 39.1919 77.2003C38.1015 77.2003 37.1984 78.0455 37.0119 79.1585C36.8529 79.1318 36.6931 79.1061 36.5279 79.1061C34.8114 79.1061 33.4199 80.5993 33.4199 82.4413C33.4199 84.2833 34.8114 85.7765 36.5279 85.7765C38.2444 85.7765 43.1879 85.7765 43.1879 85.7765V86.253H49.4039V85.7765Z" fill="#FDFCEF"/>
<path d="M50.9553 81.4883C50.8319 81.4883 50.7324 81.3815 50.7324 81.2491C50.7324 80.0837 51.616 79.1365 52.7011 79.1365C52.7322 79.1451 53.3556 79.1355 53.8067 79.2661C53.9239 79.3004 53.9949 79.4309 53.963 79.5567C53.9301 79.6854 53.8093 79.7597 53.6904 79.7254C53.2961 79.6101 52.7135 79.6101 52.702 79.612C51.8602 79.612 51.1755 80.3467 51.1755 81.25C51.1773 81.3815 51.0779 81.4883 50.9553 81.4883Z" fill="#472B29"/>
<path d="M44.9635 86.2529C45.2087 86.2529 45.4075 86.0396 45.4075 85.7765C45.4075 85.5133 45.2087 85.3 44.9635 85.3C44.7183 85.3 44.5195 85.5133 44.5195 85.7765C44.5195 86.0396 44.7183 86.2529 44.9635 86.2529Z" fill="#472B29"/>
<path d="M52.5096 86.2531H49.4016C49.1565 86.2531 48.9576 86.0396 48.9576 85.7766C48.9576 85.5136 49.1565 85.3002 49.4016 85.3002H52.5096C53.9792 85.3002 55.1736 84.0166 55.1736 82.4414C55.1736 81.0159 54.1746 79.8038 52.8497 79.6217C52.7298 79.6036 52.6223 79.5379 52.5513 79.435C52.4794 79.3321 52.4483 79.2025 52.4669 79.0757C52.4874 78.928 52.5096 78.7822 52.5096 78.6298C52.5096 77.0527 51.3152 75.771 49.8456 75.771C49.0916 75.771 48.3919 76.1093 47.8751 76.7239C47.7641 76.8564 47.59 76.9117 47.4311 76.865C47.2686 76.8183 47.146 76.6791 47.1114 76.5038C46.8086 74.9753 45.5308 73.8652 44.0736 73.8652C42.3606 73.8652 40.9655 75.3603 40.9655 77.2004C40.9655 77.3367 40.9842 77.4672 41.002 77.5978C41.0277 77.7921 40.946 78.0161 40.7862 78.1123C40.6272 78.2105 40.4345 78.2257 40.2924 78.1037C39.9692 77.8245 39.5883 77.6768 39.1887 77.6768C38.3317 77.6768 37.5974 78.3353 37.4455 79.2434C37.4029 79.4979 37.1827 79.6675 36.9402 79.6294C36.8044 79.6065 36.6667 79.5827 36.5247 79.5827C35.0568 79.5827 33.8607 80.8643 33.8607 82.4414C33.8607 84.0166 35.0568 85.3002 36.5247 85.3002H43.1847C43.4298 85.3002 43.6287 85.5136 43.6287 85.7766C43.6287 86.0396 43.4298 86.2531 43.1847 86.2531H36.5247C34.5666 86.2531 32.9727 84.5426 32.9727 82.4414C32.9727 80.3383 34.5666 78.6298 36.5247 78.6298C36.5771 78.6298 36.6277 78.6307 36.6801 78.6345C37.0468 77.5053 38.044 76.7239 39.1887 76.7239C39.4986 76.7239 39.8005 76.7821 40.0864 76.8955C40.2329 74.6723 41.9654 72.9123 44.0727 72.9123C45.6986 72.9123 47.1514 73.9862 47.7605 75.5547C48.3644 75.0811 49.0934 74.8181 49.8447 74.8181C51.8045 74.8181 53.3967 76.5267 53.3967 78.6298C53.3967 78.6755 53.3958 78.7203 53.3931 78.7641C54.9409 79.191 56.0607 80.6966 56.0607 82.4414C56.0616 84.5426 54.4685 86.2531 52.5096 86.2531Z" fill="#472B29"/>
<path d="M47.625 85.3C47.4838 85.3 46.8782 85.3 46.737 85.3C46.4919 85.3 46.293 85.5135 46.293 85.7765C46.293 86.0395 46.4919 86.2529 46.737 86.2529C46.8782 86.2529 47.4838 86.2529 47.625 86.2529C47.8701 86.2529 48.069 86.0395 48.069 85.7765C48.069 85.5135 47.8701 85.3 47.625 85.3Z" fill="#472B29"/>
<path d="M76.7534 44.1704C76.7534 44.1704 75.6514 43.2813 75.6514 41.2421C75.6514 39.1924 76.7534 38.3147 76.7534 38.3147H49.6001C48.079 38.3147 46.8438 39.6259 46.8438 41.2421C46.8438 42.8592 48.079 44.1704 49.6001 44.1704H76.7534Z" fill="#FDFCEF"/>
<path d="M73.4456 80.8214H49.6001C48.079 80.8214 46.8438 79.4958 46.8438 77.8635V41.18C46.8438 42.8143 48.079 44.0378 49.6001 44.0378H76.7543V77.2717C76.7534 79.2319 75.2722 80.8214 73.4456 80.8214Z" fill="#8889B9"/>
<path d="M51.6239 44.0369H49.6001C48.079 44.0369 46.8438 42.8133 46.8438 41.1791V77.8626C46.8438 79.4949 48.079 80.8204 49.6001 80.8204H51.6239V44.0369Z" fill="#6667AD"/>
<path d="M67.168 81.0168V84.8237L68.9395 83.5544L70.7111 84.8237V81.0168H67.168Z" fill="#F1BC19"/>
<path fill-rule="evenodd" clip-rule="evenodd" d="M76.38 44.7039C76.2984 44.6381 75.0303 43.5747 75.0303 41.2419C75.0303 40.3643 75.2079 39.6677 75.4352 39.135L75.5063 38.9816H49.6006C48.4151 38.9816 47.4659 40.0022 47.4659 41.2419C47.4659 41.6107 47.1861 41.909 46.8443 41.909C46.5006 41.909 46.2227 41.6107 46.2227 41.2419C46.2227 39.2513 47.742 37.6475 49.6006 37.6475H76.7548C77.3506 37.6475 77.6037 38.4699 77.1242 38.8511C77.2094 38.7834 76.2744 39.4867 76.2744 41.2419C76.2744 42.9886 77.2094 43.7043 77.1277 43.6385C77.4021 43.8596 77.4572 44.2779 77.2512 44.5724C77.0443 44.8668 76.6544 44.925 76.38 44.7039Z" fill="#472B29"/>
<path fill-rule="evenodd" clip-rule="evenodd" d="M46.2227 77.8635V41.18C46.2227 40.3024 47.4659 40.3024 47.4659 41.18C47.4659 42.4159 48.3929 43.3708 49.6006 43.3708H76.7548C77.0967 43.3708 77.3764 43.6709 77.3764 44.0378V77.2717C77.3764 79.6006 75.6155 81.4884 73.447 81.4884H49.6006C47.7358 81.4884 46.2227 79.8646 46.2227 77.8635ZM76.1323 77.2708V44.7039H49.6006C48.9115 44.7039 48.2642 44.4943 47.7243 44.1255L47.4659 43.9082V77.8625C47.4659 79.128 48.4213 80.1533 49.6006 80.1533H73.4461C74.9299 80.1543 76.1323 78.864 76.1323 77.2708Z" fill="#472B29"/>
<path fill-rule="evenodd" clip-rule="evenodd" d="M51.1758 73.5639V44.5629C51.1758 44.4323 51.2752 44.3256 51.3987 44.3256C51.5203 44.3256 51.6198 44.4323 51.6198 44.5629V73.563C51.6198 73.6954 51.5203 73.8021 51.3987 73.8021C51.2752 73.8021 51.1758 73.6954 51.1758 73.5639Z" fill="#472B29"/>
<path fill-rule="evenodd" clip-rule="evenodd" d="M51.1758 78.3285V75.4669C51.1758 75.3363 51.2752 75.2296 51.3987 75.2296C51.5203 75.2296 51.6198 75.3363 51.6198 75.4669V78.3285C51.6198 78.4609 51.5203 78.5677 51.3987 78.5677C51.2752 78.5667 51.1758 78.46 51.1758 78.3285Z" fill="#472B29"/>
<path fill-rule="evenodd" clip-rule="evenodd" d="M49.8438 41.2277C49.8438 41.0971 49.9432 40.9904 50.0666 40.9904H75.5638C75.6855 40.9904 75.7849 41.0971 75.7849 41.2277C75.7849 41.3601 75.6855 41.4668 75.5638 41.4668H50.0666C49.9432 41.4668 49.8438 41.3601 49.8438 41.2277Z" fill="#472B29"/>
<path fill-rule="evenodd" clip-rule="evenodd" d="M53.3984 42.1806C53.3984 42.05 53.4979 41.9433 53.6213 41.9433H75.8107C75.9323 41.9433 76.0318 42.05 76.0318 42.1806C76.0318 42.313 75.9323 42.4197 75.8107 42.4197H53.6213C53.4979 42.4197 53.3984 42.313 53.3984 42.1806Z" fill="#472B29"/>
<path fill-rule="evenodd" clip-rule="evenodd" d="M66.7227 84.8236V81.0167C66.7227 80.7546 66.9216 80.5402 67.1667 80.5402C67.4109 80.5402 67.6107 80.7546 67.6107 81.0167V83.9326L68.6905 83.1588C68.8396 83.0511 69.035 83.0511 69.1842 83.1588L70.2649 83.9326V81.0167C70.2649 80.7546 70.4638 80.5402 70.7089 80.5402C70.9531 80.5402 71.1529 80.7546 71.1529 81.0167V84.8236C71.1529 85.2038 70.756 85.4306 70.4611 85.22L68.9373 84.127L67.4126 85.22C67.1178 85.4306 66.7227 85.2028 66.7227 84.8236Z" fill="#472B29"/>
<path fill-rule="evenodd" clip-rule="evenodd" d="M53.3984 40.2776C53.3984 40.147 53.4979 40.0403 53.6213 40.0403H75.8107C75.9323 40.0403 76.0318 40.147 76.0318 40.2776C76.0318 40.41 75.9323 40.5168 75.8107 40.5168H53.6213C53.4979 40.5168 53.3984 40.41 53.3984 40.2776Z" fill="#472B29"/>
<path fill-rule="evenodd" clip-rule="evenodd" d="M58.3135 70.4612C57.6147 70.2201 57.2275 69.412 57.4566 68.6621L62.0538 53.4145C62.2314 52.8246 62.7429 52.4235 63.3219 52.4235H63.8973C64.4754 52.4235 64.9869 52.8246 65.1627 53.4145L69.7581 68.6621C69.9845 69.413 69.6009 70.2201 68.9012 70.4612C68.2014 70.7042 67.4493 70.2925 67.2246 69.5416L66.373 66.7182H60.8399L59.9901 69.5416C59.7654 70.2906 59.0124 70.7061 58.3135 70.4612ZM59.1456 69.2472L60.0949 66.0949C60.1544 65.8977 60.3248 65.7643 60.5175 65.7643H66.6954C66.8872 65.7643 67.0577 65.8977 67.1172 66.0949L68.0682 69.2472C68.1437 69.4978 68.3941 69.635 68.6268 69.555C68.8603 69.474 68.9882 69.2053 68.9136 68.9556L64.3182 53.708C64.2578 53.5098 64.0873 53.3764 63.8964 53.3764H63.321C63.1265 53.3764 62.956 53.5098 62.8974 53.708L58.3002 68.9556C58.2256 69.2043 58.3526 69.474 58.587 69.555C58.8188 69.635 59.0701 69.4988 59.1456 69.2472ZM60.6694 64.1891L63.1851 55.8482C63.3165 55.4099 63.8982 55.4099 64.0296 55.8482L66.5435 64.1891C66.6368 64.4969 66.4227 64.8114 66.1217 64.8114H61.0921C60.7902 64.8123 60.5762 64.4969 60.6694 64.1891ZM65.5108 63.8594L63.6069 57.5435L61.7021 63.8594H65.5108Z" fill="#472B29"/>
<path fill-rule="evenodd" clip-rule="evenodd" d="M58.4553 70.0077C57.9891 69.8467 57.7316 69.3073 57.8835 68.808L62.4806 53.5604C62.5987 53.1668 62.9397 52.9 63.326 52.9H63.9014C64.2859 52.9 64.6269 53.1668 64.7459 53.5604L69.3413 68.808C69.4914 69.3083 69.2357 69.8457 68.7695 70.0077C68.3033 70.1688 67.8024 69.8943 67.6515 69.3941L63.6128 55.9951L59.5733 69.3941C59.4224 69.8943 58.9206 70.1697 58.4553 70.0077Z" fill="#FDFCEF"/>
<path fill-rule="evenodd" clip-rule="evenodd" d="M59.6133 65.2888C59.6133 64.7637 60.0111 64.3359 60.5013 64.3359H66.7173C67.2066 64.3359 67.6053 64.7637 67.6053 65.2888C67.6053 65.8148 67.2066 66.2417 66.7173 66.2417H60.5013C60.0111 66.2417 59.6133 65.8148 59.6133 65.2888Z" fill="#FDFCEF"/>
<path d="M88.8085 60.0478C88.8085 60.0478 92.0408 60.0478 94.2475 60.0478C96.4541 60.0478 98.2435 58.1277 98.2435 55.7597C98.2435 53.5365 96.6619 51.7298 94.6426 51.5144C94.6613 51.342 94.6915 51.1723 94.6915 50.9951C94.6915 48.6271 92.9021 46.707 90.6955 46.707C89.4176 46.707 88.2952 47.3597 87.5635 48.3612C87.4392 45.8494 85.5184 43.8482 83.1475 43.8482C80.6957 43.8482 78.7075 45.9818 78.7075 48.6128C78.7075 49.0369 78.7758 49.4409 78.8735 49.8335C78.3043 49.094 77.4527 48.6128 76.4875 48.6128C74.9059 48.6128 73.6166 49.885 73.4194 51.524C73.2587 51.504 73.1006 51.4716 72.9355 51.4716C70.7288 51.4716 68.9395 53.3917 68.9395 55.7597C68.9395 58.1277 70.7288 60.0478 72.9355 60.0478C75.1421 60.0478 81.3715 60.0478 81.3715 60.0478H86.1445V60.5243H88.8085V60.0478Z" fill="#FDFCEF"/>
<path d="M83.1461 43.3716C80.4528 43.3716 78.2621 45.7225 78.2621 48.6127C78.2621 48.6279 78.2621 48.6422 78.2621 48.6574C77.7285 48.3192 77.1175 48.1362 76.4861 48.1362C74.8602 48.1362 73.4572 49.3378 73.0611 50.9997C73.0185 50.9959 72.9768 50.9949 72.9341 50.9949C70.4859 50.9949 68.4941 53.1323 68.4941 55.7595C68.4941 58.3867 70.4859 60.5241 72.9341 60.5241H86.1432C86.3882 60.5241 86.5872 60.3107 86.5872 60.0476C86.5872 59.7846 86.3882 59.5712 86.1432 59.5712H72.9341C70.9761 59.5712 69.3821 57.8607 69.3821 55.7595C69.3821 53.6564 70.9761 51.9479 72.9341 51.9479C73.038 51.9479 73.1393 51.9641 73.2387 51.9784L73.3639 51.9965C73.3826 51.9993 73.4003 52.0003 73.4199 52.0003C73.6374 52.0003 73.8292 51.8249 73.8594 51.5838C74.029 50.1621 75.1586 49.0901 76.487 49.0901C77.2729 49.0901 78.0171 49.4722 78.5303 50.1383C78.6165 50.2498 78.7443 50.3108 78.8722 50.3108C78.9424 50.3108 79.0107 50.2946 79.0747 50.2574C79.2603 50.1554 79.3544 49.9286 79.3011 49.7123C79.199 49.2968 79.151 48.949 79.151 48.6136C79.151 46.2494 80.9439 44.3255 83.147 44.3255C85.2614 44.3255 87.0072 46.1093 87.1208 48.3878C87.1306 48.586 87.2531 48.7565 87.4299 48.8175C87.4751 48.8328 87.5195 48.8404 87.5648 48.8404C87.6989 48.8404 87.8277 48.7747 87.9129 48.6574C88.5985 47.7207 89.6108 47.1852 90.695 47.1852C92.6549 47.1852 94.247 48.8938 94.247 50.9969C94.247 51.1083 94.2319 51.2151 94.2186 51.3237L94.2018 51.4581C94.1875 51.5848 94.2204 51.7134 94.295 51.8135C94.3696 51.9126 94.4797 51.9774 94.5969 51.9888C96.4226 52.1842 97.7982 53.807 97.7982 55.7614C97.7982 57.8626 96.206 59.5731 94.2462 59.5731H88.8072C88.5621 59.5731 88.3632 59.7866 88.3632 60.0496C88.3632 60.3126 88.5621 60.526 88.8072 60.526H94.2462C96.6944 60.526 98.6862 58.3886 98.6862 55.7614C98.6862 53.4773 97.1863 51.5562 95.1315 51.1141C95.1324 51.075 95.1342 51.0369 95.1342 50.9969C95.1342 48.3697 93.1424 46.2323 90.6942 46.2323C89.6499 46.2323 88.658 46.6287 87.8676 47.3415C87.3357 45.0487 85.4141 43.3716 83.1461 43.3716Z" fill="#472B29"/>
<path d="M81.8139 50.0421C80.568 50.0421 79.4971 50.9941 79.2271 52.2729C78.9013 52.0604 78.5301 51.948 78.1509 51.948C77.0844 51.948 76.2 52.8027 76.0623 53.9186C75.8812 53.8738 75.7107 53.8538 75.5437 53.8538C74.186 53.8538 73.0467 54.9973 72.9517 56.4572C72.9437 56.5877 73.036 56.704 73.1568 56.7125C73.163 56.7125 73.1674 56.7125 73.1737 56.7125C73.2882 56.7125 73.3868 56.6163 73.3948 56.4915C73.4729 55.2803 74.4169 54.3302 75.5428 54.3302C75.7462 54.3302 75.9593 54.3693 76.1973 54.4513C76.2177 54.4579 76.2373 54.4618 76.2577 54.4618C76.3065 54.4618 76.3545 54.4427 76.3962 54.4093C76.453 54.3665 76.4859 54.2874 76.4859 54.2111C76.4859 53.2268 77.2327 52.4244 78.1509 52.4244C78.5487 52.4244 78.9368 52.5845 79.2449 52.8751C79.2866 52.9133 79.3382 52.9352 79.3905 52.9352C79.419 52.9352 79.4474 52.9285 79.4731 52.9171C79.5513 52.8828 79.6045 52.8056 79.6108 52.7151C79.7031 51.4829 80.6702 50.5186 81.8139 50.5186C81.9986 50.5186 82.1913 50.55 82.4204 50.6205C82.4408 50.6272 82.4621 50.631 82.4817 50.631C82.5785 50.631 82.6655 50.5615 82.6939 50.4566C82.7285 50.3299 82.6593 50.1984 82.5412 50.1622C82.273 50.0802 82.0412 50.0421 81.8139 50.0421Z" fill="#472B29"/>
<path d="M94.1422 51.4715C92.9656 51.4715 91.9151 52.3262 91.591 53.5498C91.5563 53.6765 91.6256 53.809 91.7437 53.8442C91.765 53.8509 91.7854 53.8528 91.805 53.8528C91.9009 53.8528 91.9897 53.7842 92.0181 53.6784C92.288 52.6597 93.1618 51.947 94.1422 51.947C94.2461 51.947 94.3473 51.9593 94.4468 51.9746C94.4574 51.9755 94.4672 51.9775 94.4779 51.9775C94.5853 51.9775 94.6812 51.8898 94.6972 51.7707C94.7141 51.6401 94.6288 51.5201 94.5063 51.5029C94.3873 51.4867 94.2665 51.4715 94.1422 51.4715Z" fill="#472B29"/>
</svg>
