<svg width="21" height="21" viewBox="0 0 21 21" fill="none" xmlns="http://www.w3.org/2000/svg">
<path d="M10.3132 18.6248C5.60482 18.6248 1.77148 14.7915 1.77148 10.0832C1.77148 5.37484 5.60482 1.5415 10.3132 1.5415C15.0215 1.5415 18.8548 5.37484 18.8548 10.0832C18.8548 14.7915 15.0215 18.6248 10.3132 18.6248ZM10.3132 2.7915C6.28815 2.7915 3.02148 6.0665 3.02148 10.0832C3.02148 14.0998 6.28815 17.3748 10.3132 17.3748C14.3382 17.3748 17.6048 14.0998 17.6048 10.0832C17.6048 6.0665 14.3382 2.7915 10.3132 2.7915Z" fill="#ADB5BD"/>
<path d="M19.0632 19.458C18.9049 19.458 18.7465 19.3997 18.6215 19.2747L16.9549 17.608C16.8386 17.4904 16.7734 17.3317 16.7734 17.1664C16.7734 17.001 16.8386 16.8423 16.9549 16.7247C17.1965 16.483 17.5965 16.483 17.8382 16.7247L19.5049 18.3914C19.7465 18.633 19.7465 19.033 19.5049 19.2747C19.3799 19.3997 19.2215 19.458 19.0632 19.458V19.458Z" fill="#ADB5BD"/>
</svg>
