<svg width="16" height="16" viewBox="0 0 16 16" fill="none" xmlns="http://www.w3.org/2000/svg">
<path d="M15.3346 1.99987C14.6962 2.45019 13.9894 2.79461 13.2413 3.01987C12.8398 2.55821 12.3062 2.231 11.7127 2.08249C11.1191 1.93397 10.4943 1.97133 9.92269 2.1895C9.35108 2.40768 8.86026 2.79614 8.51662 3.30235C8.17298 3.80856 7.9931 4.40809 8.0013 5.01987V5.68653C6.82972 5.71691 5.66882 5.45708 4.62197 4.93017C3.57513 4.40325 2.67485 3.62562 2.0013 2.66653C2.0013 2.66653 -0.665365 8.66653 5.33464 11.3332C3.96165 12.2652 2.32607 12.7325 0.667969 12.6665C6.66797 15.9999 14.0013 12.6665 14.0013 4.99987C14.0007 4.81417 13.9828 4.62893 13.948 4.44653C14.6284 3.77553 15.1085 2.92834 15.3346 1.99987Z" fill="white"/>
</svg>
