<svg width="16" height="16" viewBox="0 0 16 16" fill="none" xmlns="http://www.w3.org/2000/svg">
<path d="M10.6654 5.3335C11.7262 5.3335 12.7436 5.75492 13.4938 6.50507C14.2439 7.25521 14.6654 8.27263 14.6654 9.3335V14.0002H11.9987V9.3335C11.9987 8.97987 11.8582 8.64074 11.6082 8.39069C11.3581 8.14064 11.019 8.00016 10.6654 8.00016C10.3117 8.00016 9.9726 8.14064 9.72256 8.39069C9.47251 8.64074 9.33203 8.97987 9.33203 9.3335V14.0002H6.66536V9.3335C6.66536 8.27263 7.08679 7.25521 7.83694 6.50507C8.58708 5.75492 9.6045 5.3335 10.6654 5.3335Z" fill="white"/>
<path d="M3.9987 6.00016H1.33203V14.0002H3.9987V6.00016Z" fill="white"/>
<path d="M2.66536 4.00016C3.40174 4.00016 3.9987 3.40321 3.9987 2.66683C3.9987 1.93045 3.40174 1.3335 2.66536 1.3335C1.92898 1.3335 1.33203 1.93045 1.33203 2.66683C1.33203 3.40321 1.92898 4.00016 2.66536 4.00016Z" fill="white"/>
<path d="M10.6654 5.3335C11.7262 5.3335 12.7436 5.75492 13.4938 6.50507C14.2439 7.25521 14.6654 8.27263 14.6654 9.3335V14.0002H11.9987V9.3335C11.9987 8.97987 11.8582 8.64074 11.6082 8.39069C11.3581 8.14064 11.019 8.00016 10.6654 8.00016C10.3117 8.00016 9.9726 8.14064 9.72256 8.39069C9.47251 8.64074 9.33203 8.97987 9.33203 9.3335V14.0002H6.66536V9.3335C6.66536 8.27263 7.08679 7.25521 7.83694 6.50507C8.58708 5.75492 9.6045 5.3335 10.6654 5.3335Z" stroke="#EF437B" stroke-width="1.5" stroke-linecap="round" stroke-linejoin="round"/>
<path d="M3.9987 6.00016H1.33203V14.0002H3.9987V6.00016Z" stroke="#EF437B" stroke-width="1.5" stroke-linecap="round" stroke-linejoin="round"/>
<path d="M2.66536 4.00016C3.40174 4.00016 3.9987 3.40321 3.9987 2.66683C3.9987 1.93045 3.40174 1.3335 2.66536 1.3335C1.92898 1.3335 1.33203 1.93045 1.33203 2.66683C1.33203 3.40321 1.92898 4.00016 2.66536 4.00016Z" stroke="#EF437B" stroke-width="1.5" stroke-linecap="round" stroke-linejoin="round"/>
</svg>
