<svg width="16" height="16" viewBox="0 0 16 16" fill="none" xmlns="http://www.w3.org/2000/svg">
<path d="M7.8246 14.5706C7.8246 14.5706 12.9393 13.0219 12.9393 8.7526C12.9393 4.48327 13.1246 4.15261 12.7146 3.73861C12.3046 3.32461 8.49526 2 7.8246 2C7.15393 2 3.34529 3.32794 2.93462 3.73861C2.52396 4.14927 2.71001 4.4826 2.71001 8.7526C2.71001 13.0226 7.8246 14.5706 7.8246 14.5706Z" stroke="#344054" stroke-linecap="round" stroke-linejoin="round"/>
<path d="M6.09375 8.08284L7.35498 9.34603L9.95508 6.74609" stroke="#344054" stroke-linecap="round" stroke-linejoin="round"/>
<path d="M7.8246 14.5706C7.8246 14.5706 12.9393 13.0219 12.9393 8.7526C12.9393 4.48327 13.1246 4.15261 12.7146 3.73861C12.3046 3.32461 8.49526 2 7.8246 2C7.15393 2 3.34529 3.32794 2.93462 3.73861C2.52396 4.14927 2.71001 4.4826 2.71001 8.7526C2.71001 13.0226 7.8246 14.5706 7.8246 14.5706Z" stroke="#344054" stroke-linecap="round" stroke-linejoin="round"/>
<path d="M6.09375 8.08284L7.35498 9.34603L9.95508 6.74609" stroke="#344054" stroke-linecap="round" stroke-linejoin="round"/>
</svg>
