<svg width="38" height="38" viewBox="0 0 38 38" fill="none" xmlns="http://www.w3.org/2000/svg">
<path d="M18.2016 0.599609V7.79961C18.2001 7.90562 18.2196 8.01087 18.2592 8.10924C18.2987 8.20762 18.3574 8.29716 18.4318 8.37265C18.5063 8.44815 18.595 8.5081 18.6928 8.54901C18.7906 8.58993 18.8955 8.611 19.0016 8.611C19.1076 8.611 19.2125 8.58993 19.3104 8.54901C19.4082 8.5081 19.4969 8.44815 19.5713 8.37265C19.6457 8.29716 19.7044 8.20762 19.7439 8.10924C19.7835 8.01087 19.8031 7.90562 19.8016 7.79961V2.2793C28.7094 2.70466 35.8016 9.98596 35.8016 18.9996C35.8016 28.2881 28.2901 35.7996 19.0016 35.7996C9.71306 35.7996 2.20156 28.2881 2.20156 18.9996C2.20156 14.5683 3.91288 10.5469 6.71094 7.54492C6.78546 7.46863 6.84399 7.37821 6.88306 7.27897C6.92214 7.17974 6.94098 7.07369 6.93847 6.96707C6.93597 6.86044 6.91218 6.7554 6.86849 6.6581C6.8248 6.56081 6.7621 6.47323 6.68408 6.40052C6.60605 6.32781 6.51428 6.27143 6.41415 6.2347C6.31402 6.19797 6.20756 6.18163 6.10103 6.18664C5.99449 6.19165 5.89004 6.21791 5.7938 6.26388C5.69756 6.30984 5.61148 6.37458 5.54063 6.4543C2.47789 9.74028 0.601562 14.1557 0.601562 18.9996C0.601562 29.1527 8.84847 37.3996 19.0016 37.3996C29.1547 37.3996 37.4016 29.1527 37.4016 18.9996C37.4016 8.84728 29.1547 0.599609 19.0016 0.599609H18.2016ZM10.2016 10.1996C10.2016 10.1996 16.3671 19.7589 17.3047 20.6965C18.2423 21.6341 19.7616 21.6333 20.6984 20.6965C21.636 19.7597 21.636 18.2403 20.6984 17.3027C19.7608 16.3651 10.2016 10.1996 10.2016 10.1996Z" fill="#EF437B"/>
</svg>
