<svg width="32" height="32" viewBox="0 0 32 32" fill="none" xmlns="http://www.w3.org/2000/svg">
<path d="M28.9813 5.99065C28.7216 5.99822 28.475 6.10656 28.2938 6.29273L11.0008 23.5857L3.70784 16.2927C3.61569 16.1968 3.50532 16.1201 3.3832 16.0674C3.26107 16.0146 3.12964 15.9867 2.9966 15.9853C2.86356 15.984 2.73158 16.0092 2.60841 16.0595C2.48523 16.1098 2.37333 16.1841 2.27925 16.2782C2.18517 16.3723 2.11081 16.4842 2.06052 16.6074C2.01023 16.7305 1.98503 16.8625 1.98638 16.9956C1.98773 17.1286 2.01562 17.26 2.0684 17.3822C2.12118 17.5043 2.1978 17.6146 2.29378 17.7068L10.2938 25.7068C10.4813 25.8943 10.7356 25.9996 11.0008 25.9996C11.266 25.9996 11.5203 25.8943 11.7078 25.7068L29.7078 7.70679C29.8521 7.56629 29.9506 7.38551 29.9904 7.1881C30.0302 6.9907 30.0095 6.78587 29.931 6.60043C29.8525 6.41498 29.7199 6.25756 29.5504 6.14876C29.3809 6.03996 29.1826 5.98485 28.9813 5.99065Z" fill="white"/>
</svg>
