<svg width="56" height="56" viewBox="0 0 56 56" fill="none" xmlns="http://www.w3.org/2000/svg">
<rect x="4" y="4" width="48" height="48" rx="24" fill="#FFEDCD"/>
<path d="M36 21V26.5" stroke="#FDA504" stroke-width="1.5" stroke-linecap="round"/>
<path d="M32.75 23V22.25H31.25V23H32.75ZM24.75 23V22.25H23.25V23H24.75ZM28 18L28.2633 17.2978C28.0936 17.2341 27.9064 17.2341 27.7367 17.2978L28 18ZM20 21L19.7367 20.2978C19.4439 20.4075 19.25 20.6874 19.25 21C19.25 21.3126 19.4439 21.5925 19.7367 21.7022L20 21ZM28 24L27.7367 24.7022C27.9064 24.7659 28.0936 24.7659 28.2633 24.7022L28 24ZM36 21L36.2633 21.7022C36.5561 21.5925 36.75 21.3126 36.75 21C36.75 20.6874 36.5561 20.4075 36.2633 20.2978L36 21ZM28.711 33.0059L28.1778 32.4785V32.4785L28.711 33.0059ZM30.2996 31.3996L30.8328 31.927L30.8328 31.927L30.2996 31.3996ZM31.238 31.1441L31.4496 30.4246L31.238 31.1441ZM25.7004 31.3996L26.2337 30.8722L25.7004 31.3996ZM27.289 33.0059L27.8222 32.4785L27.289 33.0059ZM24.762 31.1441L24.5504 30.4246L24.762 31.1441ZM35.25 38C35.25 38.4142 35.5858 38.75 36 38.75C36.4142 38.75 36.75 38.4142 36.75 38H35.25ZM19.25 38C19.25 38.4142 19.5858 38.75 20 38.75C20.4142 38.75 20.75 38.4142 20.75 38H19.25ZM31.25 23V25H32.75V23H31.25ZM24.75 25V23H23.25V25H24.75ZM28 28.25C26.2051 28.25 24.75 26.7949 24.75 25H23.25C23.25 27.6234 25.3766 29.75 28 29.75V28.25ZM31.25 25C31.25 26.7949 29.7949 28.25 28 28.25V29.75C30.6234 29.75 32.75 27.6234 32.75 25H31.25ZM27.7367 17.2978L19.7367 20.2978L20.2633 21.7022L28.2633 18.7022L27.7367 17.2978ZM28.2633 24.7022L36.2633 21.7022L35.7367 20.2978L27.7367 23.2978L28.2633 24.7022ZM27.7367 18.7022L35.7367 21.7022L36.2633 20.2978L28.2633 17.2978L27.7367 18.7022ZM28.2633 23.2978L20.2633 20.2978L19.7367 21.7022L27.7367 24.7022L28.2633 23.2978ZM29.2443 33.5332L30.8328 31.927L29.7663 30.8722L28.1778 32.4785L29.2443 33.5332ZM31.0264 31.8637C33.6994 32.6497 35.25 34.3265 35.25 36H36.75C36.75 33.3393 34.3869 31.2884 31.4496 30.4246L31.0264 31.8637ZM25.1672 31.927L26.7557 33.5332L27.8222 32.4785L26.2337 30.8722L25.1672 31.927ZM20.75 36C20.75 34.3265 22.3006 32.6497 24.9736 31.8637L24.5504 30.4246C21.6131 31.2884 19.25 33.3393 19.25 36H20.75ZM35.25 36V38H36.75V36H35.25ZM19.25 36V38H20.75V36H19.25ZM26.2337 30.8722C25.8103 30.444 25.1711 30.2421 24.5504 30.4246L24.9736 31.8637C25.0226 31.8493 25.0998 31.8589 25.1672 31.927L26.2337 30.8722ZM30.8328 31.927C30.9002 31.8589 30.9774 31.8493 31.0264 31.8637L31.4496 30.4246C30.8289 30.2421 30.1897 30.444 29.7663 30.8722L30.8328 31.927ZM28.1778 32.4785C28.0799 32.5774 27.9201 32.5774 27.8222 32.4785L26.7557 33.5332C27.4407 34.2259 28.5593 34.2259 29.2443 33.5332L28.1778 32.4785Z" fill="#FDA504"/>
<rect x="4" y="4" width="48" height="48" rx="24" stroke="#FFE3AF" stroke-width="8"/>
</svg>
