<svg width="20" height="20" viewBox="0 0 20 20" fill="none" xmlns="http://www.w3.org/2000/svg">
<path d="M12.0833 12.9167L12.9167 13.7501M13.3333 3.33341H14.1667C16.0076 3.33341 17.5 4.8258 17.5 6.66675V15.0001C17.5 16.841 16.0076 18.3334 14.1667 18.3334H5.83333C3.99238 18.3334 2.5 16.841 2.5 15.0001V6.66675C2.5 4.8258 3.99238 3.33341 5.83333 3.33341H6.66667M13.3333 3.33341C13.3333 4.25389 12.5871 5.00008 11.6667 5.00008H8.33333C7.41286 5.00008 6.66667 4.25389 6.66667 3.33341M13.3333 3.33341C13.3333 2.41294 12.5871 1.66675 11.6667 1.66675H8.33333C7.41286 1.66675 6.66667 2.41294 6.66667 3.33341M12.5 10.8334C12.5 12.2141 11.3807 13.3334 10 13.3334C8.61929 13.3334 7.5 12.2141 7.5 10.8334C7.5 9.4527 8.61929 8.33342 10 8.33342C11.3807 8.33342 12.5 9.4527 12.5 10.8334Z" stroke="#868E96" stroke-width="1.5" stroke-linecap="round"/>
</svg>
