<svg width="80" height="80" viewBox="0 0 80 80" fill="none" xmlns="http://www.w3.org/2000/svg">
<circle opacity="0.1" cx="40" cy="40" r="40" fill="#9A469B"/>
<g clip-path="url(#clip0_10766_30887)">
<path d="M27.5 56.5996C27.5 56.5996 25 56.5996 25 54.0996C25 51.5996 27.5 44.0996 40 44.0996C52.5 44.0996 55 51.5996 55 54.0996C55 56.5996 52.5 56.5996 52.5 56.5996H27.5ZM40 41.5996C41.9891 41.5996 43.8968 40.8094 45.3033 39.4029C46.7098 37.9964 47.5 36.0887 47.5 34.0996C47.5 32.1105 46.7098 30.2028 45.3033 28.7963C43.8968 27.3898 41.9891 26.5996 40 26.5996C38.0109 26.5996 36.1032 27.3898 34.6967 28.7963C33.2902 30.2028 32.5 32.1105 32.5 34.0996C32.5 36.0887 33.2902 37.9964 34.6967 39.4029C36.1032 40.8094 38.0109 41.5996 40 41.5996Z" fill="#9A469B"/>
</g>
<defs>
<clipPath id="clip0_10766_30887">
<rect width="40" height="40" fill="white" transform="translate(20 20)"/>
</clipPath>
</defs>
</svg>
