<svg width="30" height="30" viewBox="0 0 30 30" fill="none" xmlns="http://www.w3.org/2000/svg">
<g clip-path="url(#clip0_11291_24520)">
<path d="M5 8.74962H25" stroke="#516F90" stroke-width="1.5" stroke-linecap="round" stroke-linejoin="round"/>
<path d="M12.5 13.7504V21.2504" stroke="#516F90" stroke-width="1.5" stroke-linecap="round" stroke-linejoin="round"/>
<path d="M17.5 13.7504V21.2504" stroke="#516F90" stroke-width="1.5" stroke-linecap="round" stroke-linejoin="round"/>
<path d="M6.25 8.74962L7.5 23.7496C7.5 24.4127 7.76339 25.0485 8.23223 25.5174C8.70107 25.9862 9.33696 26.2496 10 26.2496H20C20.663 26.2496 21.2989 25.9862 21.7678 25.5174C22.2366 25.0485 22.5 24.4127 22.5 23.7496L23.75 8.74962" stroke="#516F90" stroke-width="1.5" stroke-linecap="round" stroke-linejoin="round"/>
<path d="M11.25 8.75V5C11.25 4.66848 11.3817 4.35054 11.6161 4.11612C11.8505 3.8817 12.1685 3.75 12.5 3.75H17.5C17.8315 3.75 18.1495 3.8817 18.3839 4.11612C18.6183 4.35054 18.75 4.66848 18.75 5V8.75" stroke="#516F90" stroke-width="1.5" stroke-linecap="round" stroke-linejoin="round"/>
</g>
<defs>
<clipPath id="clip0_11291_24520">
<rect width="30" height="30" fill="white"/>
</clipPath>
</defs>
</svg>
