<svg width="17" height="14" viewBox="0 0 17 14" fill="none" xmlns="http://www.w3.org/2000/svg">
<path d="M16.5015 2.05721C15.908 2.32258 15.2816 2.48845 14.6222 2.58796C15.2816 2.1899 15.8091 1.55962 16.0399 0.796659C15.4135 1.16155 14.7211 1.42693 13.9628 1.59279C13.3693 0.962521 12.5121 0.564453 11.5889 0.564453C9.80854 0.564453 8.35785 2.02403 8.35785 3.81534C8.35785 4.08072 8.39082 4.31292 8.45676 4.54513C5.78617 4.41244 3.37934 3.11872 1.7638 1.12838C1.50004 1.62597 1.33519 2.15672 1.33519 2.75382C1.33519 3.88168 1.89568 4.87685 2.78588 5.47395C2.25835 5.44078 1.7638 5.30809 1.30222 5.07588V5.10906C1.30222 6.70133 2.4232 8.02822 3.90687 8.32677C3.6431 8.39311 3.34637 8.42629 3.04964 8.42629C2.85182 8.42629 2.62103 8.39311 2.4232 8.35994C2.85182 9.65366 4.03875 10.6157 5.45647 10.6157C4.33548 11.4781 2.95073 12.0089 1.4341 12.0089C1.17034 12.0089 0.906573 12.0089 0.675781 11.9757C2.12647 12.9045 3.80796 13.4353 5.65429 13.4353C11.6219 13.4353 14.886 8.45946 14.886 4.14706C14.886 4.01437 14.886 3.84851 14.886 3.71582C15.5124 3.28458 16.0729 2.72065 16.5015 2.05721Z" fill="#27272A"/>
</svg>
