<svg width="22" height="22" viewBox="0 0 22 22" fill="none" xmlns="http://www.w3.org/2000/svg">
<path d="M12.6667 18.5H11.0001C9.15913 18.5 7.66675 17.0076 7.66675 15.1667V6.83333C7.66675 4.99238 9.15913 3.5 11.0001 3.5H16.0001C17.841 3.5 19.3334 4.99238 19.3334 6.83333V12.6667M2.66675 6.83333H5.16675M11.0001 6.83333H16.0001M11.0001 10.1667H16.0001M11.0001 13.5H13.5001M14.3334 16.8333L15.7941 18.0019C16.1423 18.2805 16.6482 18.2355 16.9418 17.8999L19.3334 15.1667M3.91675 18.5L4.50008 17.7222C4.93282 17.1452 5.16675 16.4435 5.16675 15.7222V4.75C5.16675 4.05964 4.6071 3.5 3.91675 3.5C3.22639 3.5 2.66675 4.05964 2.66675 4.75V15.7222C2.66675 16.4435 2.90067 17.1452 3.33341 17.7222L3.91675 18.5Z" stroke="#868E96" stroke-width="1.5" stroke-linecap="round" stroke-linejoin="round"/>
<rect x="19.5845" y="-0.0698997" width="3" height="27.53" rx="1.5" transform="rotate(45 19.5845 -0.0698997)" fill="#868E96" stroke="#F2F7FB"/>
</svg>
