<svg width="46" height="47" viewBox="0 0 46 47" fill="none" xmlns="http://www.w3.org/2000/svg">
<rect x="3" y="3.5" width="40" height="40" rx="20" fill="#F2F4F7"/>
<rect x="3" y="3.5" width="40" height="40" rx="20" stroke="#F9FAFB" stroke-width="6"/>
<g clip-path="url(#clip0_23062_72279)">
<path d="M26.3326 26.8334L22.9992 23.5M22.9992 23.5L19.6659 26.8334M22.9992 23.5V31M29.9909 28.825C30.8037 28.3819 31.4458 27.6808 31.8158 26.8322C32.1858 25.9837 32.2627 25.0361 32.0344 24.1389C31.8061 23.2418 31.2855 22.4463 30.5548 21.8779C29.8241 21.3095 28.925 21.0006 27.9992 21H26.9492C26.697 20.0244 26.2269 19.1186 25.5742 18.3509C24.9215 17.5831 24.1033 16.9732 23.181 16.5672C22.2587 16.1612 21.2564 15.9695 20.2493 16.0066C19.2423 16.0437 18.2568 16.3086 17.3669 16.7814C16.477 17.2542 15.7058 17.9226 15.1114 18.7363C14.517 19.5501 14.1148 20.488 13.9351 21.4795C13.7553 22.4711 13.8027 23.4905 14.0736 24.4611C14.3445 25.4317 14.8319 26.3282 15.4992 27.0834" stroke="#475467" stroke-width="1.66667" stroke-linecap="round" stroke-linejoin="round"/>
</g>
<defs>
<clipPath id="clip0_23062_72279">
<rect width="20" height="20" fill="white" transform="translate(13 13.5)"/>
</clipPath>
</defs>
</svg>
