<svg width="80" height="80" viewBox="0 0 80 80" fill="none" xmlns="http://www.w3.org/2000/svg">
<circle opacity="0.1" cx="40" cy="40" r="40" fill="#FDA504"/>
<path d="M40.0009 25.0049C39.3449 25.0049 38.6954 25.1341 38.0894 25.3851C37.4833 25.6361 36.9327 26.0041 36.4689 26.4679C36.005 26.9317 35.6371 27.4824 35.3861 28.0884C35.1351 28.6944 35.0059 29.3439 35.0059 29.9999C35.0059 30.6558 35.1351 31.3054 35.3861 31.9114C35.6371 32.5174 36.005 33.0681 36.4689 33.5319C36.9327 33.9957 37.4833 34.3636 38.0894 34.6147C38.6954 34.8657 39.3449 34.9949 40.0009 34.9949C41.3256 34.9949 42.5961 34.4686 43.5329 33.5319C44.4696 32.5951 44.9959 31.3246 44.9959 29.9999C44.9959 28.6751 44.4696 27.4046 43.5329 26.4679C42.5961 25.5311 41.3256 25.0049 40.0009 25.0049Z" fill="#FDA504"/>
<path d="M51.25 27.5C50.2554 27.5 49.3016 27.8951 48.5983 28.5983C47.8951 29.3016 47.5 30.2554 47.5 31.25C47.5 32.2446 47.8951 33.1984 48.5983 33.9017C49.3016 34.6049 50.2554 35 51.25 35C52.2446 35 53.1984 34.6049 53.9017 33.9017C54.6049 33.1984 55 32.2446 55 31.25C55 30.2554 54.6049 29.3016 53.9017 28.5983C53.1984 27.8951 52.2446 27.5 51.25 27.5Z" fill="#FDA504"/>
<path d="M28.75 27.5C27.7554 27.5 26.8016 27.8951 26.0983 28.5983C25.3951 29.3016 25 30.2554 25 31.25C25 32.2446 25.3951 33.1984 26.0983 33.9017C26.8016 34.6049 27.7554 35 28.75 35C29.7446 35 30.6984 34.6049 31.4017 33.9017C32.1049 33.1984 32.5 32.2446 32.5 31.25C32.5 30.2554 32.1049 29.3016 31.4017 28.5983C30.6984 27.8951 29.7446 27.5 28.75 27.5Z" fill="#FDA504"/>
<path d="M32.5 39.9825C32.5046 39.3225 32.7701 38.6911 33.2384 38.226C33.7067 37.761 34.34 37.5 35 37.5H45C45.663 37.5 46.2989 37.7634 46.7678 38.2322C47.2366 38.7011 47.5 39.337 47.5 40V47.5C47.4998 48.2868 47.3767 49.0687 47.135 49.8175C46.5814 51.5143 45.4411 52.9581 43.9188 53.8897C42.3965 54.8214 40.5919 55.1798 38.8291 54.9007C37.0663 54.6215 35.4607 53.7231 34.3007 52.3667C33.1407 51.0103 32.5023 49.2848 32.5 47.5V40V39.9825Z" fill="#FDA504"/>
<path d="M30 40C30 39.0875 30.2425 38.235 30.67 37.5H25C24.337 37.5 23.7011 37.7634 23.2322 38.2322C22.7634 38.7011 22.5 39.337 22.5 40V46.25C22.4997 47.2733 22.7506 48.281 23.2307 49.1846C23.7108 50.0882 24.4054 50.8602 25.2536 51.4326C26.1018 52.005 27.0775 52.3605 28.0951 52.4677C29.1128 52.5749 30.1412 52.4306 31.09 52.0475C30.3704 50.6389 29.9968 49.0792 30 47.4975V40Z" fill="#FDA504"/>
<path d="M50.0002 40V47.5C50.0002 49.1375 49.6077 50.6825 48.9102 52.0475C49.859 52.4306 50.8874 52.5749 51.905 52.4677C52.9226 52.3605 53.8984 52.005 54.7466 51.4326C55.5947 50.8602 56.2894 50.0882 56.7695 49.1846C57.2496 48.281 57.5005 47.2733 57.5002 46.25V40C57.5002 39.337 57.2368 38.7011 56.7679 38.2322C56.2991 37.7634 55.6632 37.5 55.0002 37.5H49.3302C49.7552 38.235 50.0002 39.0875 50.0002 40Z" fill="#FDA504"/>
</svg>
