<svg width="22" height="22" viewBox="0 0 22 22" fill="none" xmlns="http://www.w3.org/2000/svg">
<path fill-rule="evenodd" clip-rule="evenodd" d="M9.09474 2.35702C10.2737 1.65883 11.7263 1.65883 12.9053 2.35702L17.3447 4.98609C18.5237 5.68428 19.25 6.97459 19.25 8.37097V13.6291C19.25 15.0255 18.5237 16.3158 17.3447 17.014L16.7759 17.3508L12.9053 19.6431C11.7263 20.3413 10.2737 20.3413 9.09474 19.6431L5.22405 17.3508L4.65526 17.014C3.47628 16.3158 2.75 15.0255 2.75 13.6291V8.37097C2.75 6.97459 3.47628 5.68428 4.65526 4.98609L9.09474 2.35702ZM14.7539 13.9371C13.7711 13.2524 12.4512 12.8334 11 12.8334C9.54884 12.8334 8.22895 13.2524 7.2461 13.9371C6.77441 14.2657 6.87319 14.9406 7.36613 15.2364L10.5284 17.1337C10.8187 17.3079 11.1813 17.3079 11.4716 17.1337L14.6339 15.2364C15.1268 14.9406 15.2256 14.2657 14.7539 13.9371ZM11 5.50004C12.5188 5.50004 13.75 6.73126 13.75 8.25004C13.75 9.76882 12.5188 11 11 11C9.48122 11 8.25 9.76882 8.25 8.25004C8.25 6.73126 9.48122 5.50004 11 5.50004Z" fill="#868E96"/>
</svg>
