<svg width="28" height="29" viewBox="0 0 28 29" fill="none" xmlns="http://www.w3.org/2000/svg">
<path fill-rule="evenodd" clip-rule="evenodd" d="M13.9987 26.1666C20.442 26.1666 25.6654 20.9433 25.6654 14.5C25.6654 8.05666 20.442 2.83331 13.9987 2.83331C7.55538 2.83331 2.33203 8.05666 2.33203 14.5C2.33203 20.9433 7.55538 26.1666 13.9987 26.1666ZM19.3561 11.5372C19.6527 11.1558 19.584 10.606 19.2026 10.3093C18.8211 10.0127 18.2714 10.0814 17.9747 10.4628L13.2999 16.4733C13.1959 16.607 13.0004 16.6243 12.8745 16.5111L9.91738 13.8496C9.55819 13.5264 9.00493 13.5555 8.68166 13.9147C8.35838 14.2739 8.3875 14.8271 8.74669 15.1504L11.7038 17.8118C12.5848 18.6047 13.9536 18.4833 14.6812 17.5477L19.3561 11.5372Z" fill="#EF437B"/>
</svg>
