<svg width="16" height="16" viewBox="0 0 16 16" fill="none" xmlns="http://www.w3.org/2000/svg">
<path d="M14.0983 11.2863H11.3996C11.161 11.2909 10.924 11.2479 10.7022 11.1598C10.4805 11.0717 10.2786 10.9402 10.1083 10.7731C9.93799 10.606 9.80265 10.4067 9.71029 10.1867C9.61792 9.96671 9.57031 9.73062 9.57031 9.49203C9.57031 9.25344 9.61792 9.01719 9.71029 8.79721C9.80265 8.57722 9.93799 8.37786 10.1083 8.21078C10.2786 8.04371 10.4805 7.91233 10.7022 7.82423C10.924 7.73612 11.161 7.693 11.3996 7.6976H14.0983" stroke="#344054" stroke-linecap="round" stroke-linejoin="round"/>
<path d="M11.7079 9.45117H11.5" stroke="#344054" stroke-linecap="round" stroke-linejoin="round"/>
<path d="M4.81546 3.70218L10.5774 3.67679C11.0369 3.67477 11.4923 3.76341 11.9175 3.93737C12.3428 4.11133 12.7296 4.36733 13.0559 4.69079C13.3822 5.01425 13.6415 5.39875 13.8192 5.82246C13.9969 6.24617 14.0894 6.70074 14.0914 7.16019L14.1094 11.2782C14.1115 11.7377 14.0231 12.1931 13.8492 12.6184C13.6752 13.0437 13.4192 13.4305 13.0957 13.7569C12.7723 14.0832 12.3876 14.3426 11.9639 14.5202C11.5401 14.6979 11.0856 14.7903 10.6261 14.7922L4.86413 14.8176C3.93627 14.8215 3.04482 14.4566 2.38585 13.8034C1.72689 13.1502 1.35436 12.262 1.35013 11.3342L1.33206 7.21618C1.32816 6.28833 1.69293 5.39696 2.34614 4.73799C2.99936 4.07902 3.88761 3.70642 4.81546 3.70218V3.70218Z" stroke="#344054" stroke-linecap="round" stroke-linejoin="round"/>
<path d="M4.36719 6.71484H7.33382" stroke="#344054" stroke-linecap="round" stroke-linejoin="round"/>
<path d="M2.32834 4.75547C2.315 3.42214 2.93171 2.30801 4.28504 2.10801L9.48499 1.36208C10.965 1.14208 11.931 2.1954 12.1517 3.68207L12.205 4.00873" stroke="#344054" stroke-linecap="round" stroke-linejoin="round"/>
</svg>
