<svg width="24" height="24" viewBox="0 0 24 24" fill="none" xmlns="http://www.w3.org/2000/svg">
<path d="M22 12C22 10.609 21.228 9.3555 20.044 8.71C20.492 7.384 20.1695 5.8665 19.1515 4.8485C18.1335 3.8305 16.6165 3.509 15.29 3.956C14.6445 2.772 13.391 2 12 2C10.609 2 9.3555 2.772 8.71 3.956C7.383 3.5075 5.866 3.8305 4.8485 4.8485C3.8305 5.8665 3.5075 7.384 3.956 8.71C2.772 9.3555 2 10.609 2 12C2 13.391 2.772 14.6445 3.956 15.29C3.508 16.616 3.8305 18.1335 4.8485 19.1515C5.867 20.1695 7.385 20.4925 8.71 20.044C9.3555 21.228 10.609 22 12 22C13.391 22 14.6445 21.228 15.29 20.044C16.6165 20.4925 18.1335 20.169 19.1515 19.1515C20.1695 18.1335 20.4925 16.616 20.044 15.29C21.228 14.6445 22 13.391 22 12ZM16.2805 10.2805L11.2805 15.2805C11.134 15.427 10.942 15.5 10.75 15.5C10.558 15.5 10.366 15.427 10.2195 15.2805L7.7195 12.7805C7.4265 12.488 7.4265 12.0125 7.7195 11.72C8.0125 11.427 8.487 11.427 8.78 11.72L10.7495 13.6895L15.219 9.22C15.512 8.927 15.9865 8.927 16.2795 9.22C16.573 9.5125 16.573 9.9875 16.2805 10.2805Z" fill="white"/>
</svg>
