<svg width="100" height="100" viewBox="0 0 100 100" fill="none" xmlns="http://www.w3.org/2000/svg">
<path d="M87.215 56.71C88.35 54.555 89 52.105 89 49.5C89 42.879 84.841 37.243 78.999 35.022C78.999 35.015 79 35.008 79 35C79 23.402 69.598 14 58 14C48.216 14 40.019 20.701 37.687 29.757C36.211 29.272 34.638 29 33 29C25.308 29 18.977 34.793 18.11 42.252C12.906 43.353 9 47.969 9 53.5C9 59.851 14.149 65 20.5 65C20.677 65 20.852 64.988 21.026 64.978C21.022 65.153 21 65.324 21 65.5C21 76.822 30.178 86 41.5 86C47.937 86 53.675 83.028 57.434 78.386C59.612 80.611 62.64 82 66 82C70.65 82 74.674 79.35 76.666 75.482C77.718 75.817 78.837 76 80 76C86.075 76 91 71.075 91 65C91 61.689 89.53 58.727 87.215 56.71Z" fill="#C7EDE6"/>
<path d="M83.405 69H73.5C73.224 69 73 68.776 73 68.5C73 68.224 73.224 68 73.5 68H83.405C83.681 68 83.905 68.224 83.905 68.5C83.905 68.776 83.682 69 83.405 69ZM86.5 69H85.5C85.224 69 85 68.776 85 68.5C85 68.224 85.224 68 85.5 68H86.5C86.776 68 87 68.224 87 68.5C87 68.776 86.777 69 86.5 69ZM91.491 71H82.5C82.224 71 82 70.776 82 70.5C82 70.224 82.224 70 82.5 70H91.491C91.767 70 91.991 70.224 91.991 70.5C91.991 70.776 91.767 71 91.491 71ZM80.5 71H79.5C79.224 71 79 70.776 79 70.5C79 70.224 79.224 70 79.5 70H80.5C80.776 70 81 70.224 81 70.5C81 70.776 80.777 71 80.5 71ZM77.5 71H75.5C75.224 71 75 70.776 75 70.5C75 70.224 75.224 70 75.5 70H77.5C77.776 70 78 70.224 78 70.5C78 70.776 77.777 71 77.5 71ZM83.5 73H81.5C81.224 73 81 72.776 81 72.5C81 72.224 81.224 72 81.5 72H83.5C83.776 72 84 72.224 84 72.5C84 72.776 83.776 73 83.5 73ZM79.5 66C79.323 66 78.677 66 78.5 66C78.224 66 78 66.224 78 66.5C78 66.776 78.224 67 78.5 67C78.677 67 79.323 67 79.5 67C79.776 67 80 66.776 80 66.5C80 66.224 79.776 66 79.5 66ZM86.5 66C86.323 66 81.677 66 81.5 66C81.224 66 81 66.224 81 66.5C81 66.776 81.224 67 81.5 67C81.677 67 86.323 67 86.5 67C86.776 67 87 66.776 87 66.5C87 66.224 86.776 66 86.5 66ZM91.5 68C91.323 68 88.677 68 88.5 68C88.224 68 88 68.224 88 68.5C88 68.776 88.224 69 88.5 69C88.677 69 91.323 69 91.5 69C91.776 69 92 68.776 92 68.5C92 68.224 91.776 68 91.5 68Z" fill="white"/>
<path d="M48.5 22H38.5C38.224 22 38 21.776 38 21.5C38 21.224 38.224 21 38.5 21H48.5C48.776 21 49 21.224 49 21.5C49 21.776 48.776 22 48.5 22ZM52.5 22H50.5C50.224 22 50 21.776 50 21.5C50 21.224 50.224 21 50.5 21H52.5C52.776 21 53 21.224 53 21.5C53 21.776 52.776 22 52.5 22ZM57.5 24H47.5C47.224 24 47 23.776 47 23.5C47 23.224 47.224 23 47.5 23H57.5C57.776 23 58 23.224 58 23.5C58 23.776 57.777 24 57.5 24ZM45.5 24H44.5C44.224 24 44 23.776 44 23.5C44 23.224 44.224 23 44.5 23H45.5C45.776 23 46 23.224 46 23.5C46 23.776 45.776 24 45.5 24ZM42.375 24H40.5C40.224 24 40 23.776 40 23.5C40 23.224 40.224 23 40.5 23H42.375C42.651 23 42.875 23.224 42.875 23.5C42.875 23.776 42.651 24 42.375 24ZM51.5 20H46.5C46.224 20 46 19.776 46 19.5C46 19.224 46.224 19 46.5 19H51.5C51.776 19 52 19.224 52 19.5C52 19.776 51.777 20 51.5 20ZM48.5 26H46.5C46.224 26 46 25.776 46 25.5C46 25.224 46.224 25 46.5 25H48.5C48.776 25 49 25.224 49 25.5C49 25.776 48.776 26 48.5 26Z" fill="white"/>
<path d="M82.5 40.5C82.5 40.5 84.067 40.5 86 40.5C87.933 40.5 89.5 38.933 89.5 37C89.5 35.219 88.165 33.766 86.445 33.545C86.473 33.366 86.5 33.187 86.5 33C86.5 31.067 84.933 29.5 83 29.5C81.968 29.5 81.05 29.955 80.41 30.665C80.026 28.857 78.423 27.5 76.5 27.5C74.291 27.5 72.5 29.291 72.5 31.5C72.5 31.691 72.53 31.874 72.556 32.058C72.128 31.714 71.592 31.5 71 31.5C69.772 31.5 68.755 32.387 68.545 33.555C68.366 33.527 68.187 33.5 68 33.5C66.067 33.5 64.5 35.067 64.5 37C64.5 38.933 66.067 40.5 68 40.5C69.933 40.5 75.5 40.5 75.5 40.5V41H82.5V40.5Z" fill="#FDFCEF"/>
<path d="M84.25 36C84.112 36 84 35.888 84 35.75C84 34.527 84.995 33.532 86.218 33.532C86.252 33.541 86.955 33.531 87.462 33.668C87.595 33.704 87.674 33.841 87.638 33.974C87.602 34.108 87.465 34.187 87.332 34.15C86.888 34.03 86.232 34.03 86.219 34.032C85.271 34.032 84.5 34.803 84.5 35.75C84.5 35.888 84.388 36 84.25 36ZM77.5 40C77.224 40 77 40.224 77 40.5C77 40.776 77.224 41 77.5 41C77.776 41 78 40.776 78 40.5C78 40.224 77.776 40 77.5 40Z" fill="#472B29"/>
<path d="M86 41H82.5C82.224 41 82 40.776 82 40.5C82 40.224 82.224 40 82.5 40H86C87.654 40 89 38.654 89 37C89 35.504 87.875 34.232 86.382 34.041C86.248 34.023 86.127 33.953 86.046 33.845C85.965 33.737 85.931 33.601 85.952 33.468C85.975 33.314 86 33.16 86 33C86 31.346 84.654 30 83 30C82.15 30 81.362 30.355 80.781 31C80.656 31.139 80.46 31.198 80.281 31.148C80.099 31.099 79.96 30.953 79.921 30.769C79.58 29.165 78.141 28 76.5 28C74.57 28 73 29.57 73 31.5C73 31.643 73.021 31.78 73.041 31.918C73.07 32.121 72.978 32.356 72.799 32.458C72.62 32.56 72.403 32.576 72.243 32.448C71.878 32.155 71.449 32 71 32C70.034 32 69.208 32.691 69.037 33.644C68.989 33.911 68.741 34.09 68.468 34.049C68.314 34.025 68.16 34 68 34C66.346 34 65 35.346 65 37C65 38.654 66.346 40 68 40H75.5C75.776 40 76 40.224 76 40.5C76 40.776 75.776 41 75.5 41H68C65.794 41 64 39.206 64 37C64 34.794 65.794 33 68 33C68.059 33 68.116 33.002 68.174 33.006C68.588 31.82 69.711 31 71 31C71.349 31 71.689 31.061 72.011 31.18C72.176 28.847 74.126 27 76.5 27C78.331 27 79.966 28.127 80.653 29.774C81.333 29.276 82.155 29 83 29C85.206 29 87 30.794 87 33C87 33.048 86.999 33.095 86.996 33.142C88.739 33.59 90 35.169 90 37C90 39.206 88.206 41 86 41Z" fill="#472B29"/>
<path d="M80.5 40C80.341 40 79.659 40 79.5 40C79.224 40 79 40.224 79 40.5C79 40.776 79.224 41 79.5 41C79.659 41 80.341 41 80.5 41C80.776 41 81 40.776 81 40.5C81 40.224 80.776 40 80.5 40Z" fill="#472B29"/>
<path d="M64.0002 38.7C57.7022 38.7 52.9482 43.1029 50.0012 46.9329C47.0542 43.1039 42.2982 38.7 36.0002 38.7C28.6672 38.7 22.7002 44.666 22.7002 52C22.7002 59.334 28.6672 65.3 36.0002 65.3C42.2982 65.3 47.0542 60.897 50.0012 57.067C52.9482 60.897 57.7022 65.3 64.0002 65.3C71.3332 65.3 77.3002 59.334 77.3002 52C77.3002 44.666 71.3332 38.7 64.0002 38.7ZM46.4642 52.4C44.6172 55.126 40.8022 59.7 36.0002 59.7C31.7542 59.7 28.3002 56.246 28.3002 52C28.3002 47.754 31.7542 44.2999 36.0002 44.2999C40.7632 44.2999 44.6002 48.8819 46.4632 51.6129L46.7312 52.006L46.4642 52.4ZM64.0002 59.7C59.1982 59.7 55.3832 55.127 53.5362 52.4L53.2692 52.006L53.5372 51.6129C55.4002 48.8819 59.2372 44.2999 64.0002 44.2999C68.2462 44.2999 71.7002 47.754 71.7002 52C71.7002 56.246 68.2462 59.7 64.0002 59.7Z" fill="#F1BC19"/>
<path d="M64 38C57.773 38 53.027 42.091 50.001 45.806C46.975 42.091 42.228 38 36 38C28.28 38 22 44.28 22 52C22 59.72 28.28 66 36 66C42.228 66 46.975 61.909 50.001 58.194C53.027 61.909 57.773 66 64 66C71.72 66 78 59.72 78 52C78 44.28 71.72 38 64 38ZM64 64.6C57.956 64.6 53.361 60.282 50.567 56.654C49.746 55.495 49.246 54.688 48.668 53.755C48.282 53.132 47.87 52.465 47.316 51.623L47.315 51.624C47.313 51.62 47.312 51.616 47.309 51.612L47.04 51.219C45.1 48.374 41.084 43.6 36 43.6C31.368 43.6 27.6 47.369 27.6 52C27.6 56.631 31.369 60.4 36 60.4C40.85 60.4 44.685 56.134 46.713 53.268C46.994 53.71 47.243 54.111 47.478 54.491C47.972 55.289 48.455 56.062 49.131 57.039C46.312 60.581 41.833 64.6 36 64.6C29.053 64.6 23.4 58.948 23.4 52C23.4 45.052 29.053 39.4 36 39.4C42.052 39.4 46.651 43.727 49.445 47.358C50.383 48.595 51.044 49.715 51.629 50.703C51.82 51.026 52.957 52.792 52.957 52.792C54.881 55.634 58.875 60.4 64 60.4C68.632 60.4 72.4 56.631 72.4 52C72.4 47.369 68.631 43.6 64 43.6C59.184 43.6 55.33 47.88 53.287 50.75C53.142 50.512 52.994 50.264 52.834 49.993C52.327 49.134 51.697 48.085 50.878 46.954C53.696 43.413 58.172 39.4 64 39.4C70.947 39.4 76.6 45.052 76.6 52C76.6 58.948 70.947 64.6 64 64.6ZM45.885 52.007C44.115 54.619 40.479 59 36 59C32.14 59 29 55.86 29 52C29 48.14 32.14 45 36 45C40.44 45 44.099 49.39 45.885 52.007ZM54.115 52.008C55.901 49.39 59.559 45 64 45C67.86 45 71 48.14 71 52C71 55.86 67.86 59 64 59C59.522 59 55.885 54.62 54.115 52.008Z" fill="#472B29"/>
<path d="M34.2503 41.6649C34.1303 41.6649 34.0233 41.5779 34.0033 41.4559C33.9813 41.3199 34.0733 41.1909 34.2093 41.1689C34.7873 41.0729 35.2753 41.0239 35.7443 41.0129C35.8883 41.0119 35.9973 41.1189 36.0003 41.2569C36.0033 41.3949 35.8943 41.5089 35.7563 41.5129C35.3113 41.5229 34.8453 41.5709 34.2913 41.6619C34.2773 41.6639 34.2643 41.6649 34.2503 41.6649Z" fill="#472B29"/>
<path d="M35.75 62.987C35.748 62.987 35.746 62.987 35.744 62.987C29.82 62.85 25 57.921 25 52C25 49.493 25.87 47.04 27.449 45.092C27.537 44.985 27.695 44.969 27.801 45.055C27.908 45.142 27.925 45.3 27.838 45.407C26.33 47.266 25.5 49.607 25.5 52C25.5 57.652 30.101 62.356 35.756 62.487C35.894 62.49 36.003 62.605 36 62.743C35.997 62.879 35.886 62.987 35.75 62.987Z" fill="#472B29"/>
<path d="M30.2501 43.1921C30.1681 43.1921 30.0871 43.1511 30.0391 43.0761C29.9651 42.9591 29.9991 42.8051 30.1161 42.7311C30.9291 42.2141 31.7901 41.8101 32.6751 41.5291C32.8041 41.4881 32.9461 41.5601 32.9881 41.6921C33.0301 41.8241 32.9571 41.9641 32.8251 42.0061C31.9821 42.2741 31.1601 42.6601 30.3841 43.1531C30.3431 43.1801 30.2961 43.1921 30.2501 43.1921Z" fill="#472B29"/>
<path d="M64.2501 62.987C64.1141 62.987 64.0031 62.879 64.0001 62.743C63.9971 62.605 64.1061 62.491 64.2441 62.487C64.6891 62.477 65.1551 62.429 65.7091 62.338C65.8441 62.316 65.9751 62.407 65.9971 62.544C66.0191 62.68 65.9271 62.809 65.7911 62.831C65.2131 62.927 64.7251 62.976 64.2561 62.987C64.2541 62.987 64.2521 62.987 64.2501 62.987Z" fill="#472B29"/>
<path d="M72.3561 59C72.3001 59 72.2451 58.982 72.1991 58.944C72.0921 58.857 72.0751 58.699 72.1621 58.592C73.6701 56.733 74.5001 54.392 74.5001 52C74.5001 46.348 69.8991 41.643 64.2441 41.513C64.1061 41.51 63.9971 41.395 64.0001 41.257C64.0041 41.119 64.1121 41.009 64.2561 41.013C70.1801 41.149 75.0001 46.079 75.0001 52C75.0001 54.506 74.1301 56.959 72.5511 58.907C72.5011 58.968 72.4291 59 72.3561 59Z" fill="#472B29"/>
<path d="M67.2499 62.482C67.1439 62.482 67.0459 62.414 67.0119 62.308C66.9699 62.176 67.0429 62.036 67.1749 61.994C68.0179 61.726 68.8399 61.34 69.6159 60.847C69.7289 60.773 69.8859 60.806 69.9609 60.924C70.0349 61.041 70.0009 61.195 69.8839 61.269C69.0709 61.786 68.2099 62.19 67.3249 62.471C67.3009 62.479 67.2749 62.482 67.2499 62.482Z" fill="#472B29"/>
<path d="M25 74H19.25C16.765 74.75 14.75 72.735 14.75 70.25C14.75 67.917 16.532 66.021 18.805 65.795C18.783 65.614 18.75 65.437 18.75 65.25C18.75 62.765 20.765 60.75 23.25 60.75C24.688 60.75 25.953 61.436 26.777 62.486C26.917 59.85 29.079 57.75 31.75 57.75C34.511 57.75 36.75 59.989 36.75 62.75C36.75 63.196 36.673 63.62 36.563 64.032C37.205 63.255 38.163 62.75 39.25 62.75C41.031 62.75 42.484 64.085 42.705 65.805C42.886 65.783 43.063 65.75 43.25 65.75C45.735 65.75 47.75 67.765 47.75 70.25C47.75 72.735 45.735 74.75 43.25 74H33.75H28V75H25V74Z" fill="#FDFCEF"/>
<path d="M31.5002 57C34.5332 57 37.0002 59.467 37.0002 62.5C37.0002 62.516 37.0002 62.531 37.0002 62.547C37.6022 62.192 38.2902 62 39.0002 62C40.8312 62 42.4112 63.261 42.8582 65.005C42.9052 65.002 42.9522 65 43.0002 65C46.0992 65 48.5492 67.834 47.8932 71.047C47.4132 73.398 45.2042 75 42.8042 75H28.1252C27.8492 75 27.6252 74.776 27.6252 74.5C27.6252 74.224 27.8492 74 28.1252 74H42.8432C44.7632 74 46.5302 72.718 46.9142 70.837C47.4392 68.267 45.4792 66 43.0002 66C42.8832 66 42.7702 66.017 42.6572 66.032L42.5162 66.051C42.4952 66.054 42.4752 66.055 42.4542 66.055C42.2082 66.055 41.9922 65.87 41.9592 65.618C41.7682 64.125 40.4962 63 39.0002 63C38.1152 63 37.2772 63.401 36.6992 64.1C36.6012 64.218 36.4582 64.282 36.3132 64.282C36.2352 64.282 36.1572 64.264 36.0852 64.226C35.8762 64.119 35.7712 63.88 35.8312 63.653C35.9912 63.053 36.0332 62.584 35.9782 62.104C35.7382 59.977 34.0192 58.195 31.8862 58.016C29.3352 57.801 27.1612 59.744 27.0272 62.262C27.0162 62.47 26.8772 62.649 26.6782 62.712C26.6282 62.728 26.5772 62.736 26.5262 62.736C26.3762 62.736 26.2302 62.667 26.1342 62.544C25.3622 61.563 24.2212 61 23.0002 61C20.7942 61 19.0002 62.794 19.0002 65C19.0002 65.117 19.0172 65.23 19.0322 65.343L19.0512 65.484C19.0672 65.618 19.0292 65.752 18.9452 65.857C18.8612 65.962 18.7382 66.029 18.6052 66.042C16.2532 66.276 14.5632 68.471 15.1012 70.907C15.5092 72.76 17.2752 74 19.1732 74H25.1252C25.4012 74 25.6252 74.224 25.6252 74.5C25.6252 74.776 25.4012 75 25.1252 75H19.1872C16.7202 75 14.4792 73.296 14.0722 70.862C13.6102 68.099 15.4162 65.642 18.0032 65.122C18.0012 65.082 18.0002 65.041 18.0002 65C18.0002 62.243 20.2432 60 23.0002 60C24.1762 60 25.2932 60.416 26.1832 61.164C26.7812 58.76 28.9452 57 31.5002 57Z" fill="#472B29"/>
<path d="M33.2504 64.25C32.9944 64.25 32.7334 64.29 32.4334 64.374C32.3004 64.412 32.2234 64.55 32.2614 64.683C32.2934 64.792 32.3914 64.865 32.5004 64.865C32.5234 64.865 32.5474 64.862 32.5704 64.855C32.8274 64.782 33.0444 64.748 33.2524 64.748C34.5404 64.748 35.6294 65.761 35.7314 67.053C35.7384 67.148 35.7984 67.23 35.8864 67.265C35.9164 67.278 35.9474 67.284 35.9794 67.284C36.0384 67.284 36.0974 67.262 36.1444 67.221C36.4904 66.916 36.9284 66.748 37.3754 66.748C38.4094 66.748 39.2504 67.589 39.2504 68.623C39.2504 68.703 39.2884 68.785 39.3524 68.832C39.3984 68.866 39.4534 68.886 39.5084 68.886C39.5304 68.886 39.5534 68.883 39.5754 68.876C39.8434 68.791 40.0844 68.749 40.3134 68.749C41.5814 68.749 42.6434 69.746 42.7324 71.017C42.7414 71.148 42.8514 71.249 42.9814 71.249C42.9874 71.249 42.9934 71.249 42.9994 71.249C43.1374 71.239 43.2404 71.12 43.2314 70.982C43.1244 69.45 41.8424 68.25 40.3134 68.25C40.1244 68.25 39.9314 68.273 39.7284 68.318C39.5734 67.147 38.5774 66.25 37.3754 66.25C36.9494 66.25 36.5304 66.369 36.1634 66.591C35.8594 65.249 34.6534 64.25 33.2504 64.25ZM19.1254 65.499C18.9864 65.499 18.8504 65.515 18.7174 65.534C18.5804 65.552 18.4844 65.678 18.5034 65.815C18.5204 65.94 18.6284 66.032 18.7494 66.032C18.7614 66.032 18.7724 66.031 18.7844 66.029C18.8964 66.014 19.0094 66 19.1264 66C20.2304 66 21.2144 66.747 21.5194 67.818C21.5504 67.928 21.6504 68 21.7594 68C21.7814 68 21.8044 67.997 21.8274 67.99C21.9604 67.952 22.0374 67.814 21.9994 67.681C21.6334 66.396 20.4514 65.499 19.1254 65.499Z" fill="#472B29"/>
</svg>
