<svg width="111" height="111" viewBox="0 0 111 111" fill="none" xmlns="http://www.w3.org/2000/svg">
<path d="M96.933 62.9912C98.1815 60.6208 98.8965 57.9258 98.8965 55.0602C98.8965 47.7772 94.3216 41.5776 87.8954 39.1345C87.8954 39.1268 87.8965 39.1191 87.8965 39.1103C87.8965 26.3525 77.5543 16.0103 64.7965 16.0103C54.0341 16.0103 45.0174 23.3814 42.4522 33.343C40.8286 32.8095 39.0983 32.5103 37.2965 32.5103C28.8353 32.5103 21.8712 38.8826 20.9175 47.0875C15.1931 48.2985 10.8965 53.3762 10.8965 59.4603C10.8965 66.4464 16.5604 72.1102 23.5465 72.1102C23.7412 72.1102 23.9337 72.097 24.1251 72.086C24.1207 72.2785 24.0965 72.4666 24.0965 72.6602C24.0965 85.1144 34.1923 95.2103 46.6465 95.2103C53.7272 95.2103 60.039 91.941 64.1739 86.8348C66.5697 89.2823 69.9005 90.8102 73.5965 90.8102C78.7115 90.8102 83.1379 87.8952 85.3291 83.6404C86.4863 84.0089 87.7172 84.2103 88.9965 84.2103C95.679 84.2103 101.096 78.7927 101.096 72.1102C101.096 68.4682 99.4795 65.2099 96.933 62.9912Z" fill="#C7EDE6"/>
<path d="M84.0459 34.1595V34.7095H87.3459V34.1595C87.3459 34.1595 92.0121 34.1595 93.3959 34.1595C96.1294 34.1595 98.3459 31.943 98.3459 29.2095C98.3459 26.6432 96.3857 24.5576 93.8854 24.309C93.9096 24.1099 93.9459 23.9152 93.9459 23.7095C93.9459 20.976 91.7294 18.7595 88.9959 18.7595C87.4141 18.7595 86.0226 19.5141 85.1162 20.6691C84.9622 17.7695 82.584 15.4595 79.6459 15.4595C76.6088 15.4595 74.1459 17.9224 74.1459 20.9595C74.1459 21.4501 74.2306 21.9165 74.3516 22.3697C73.6454 21.515 72.5905 20.9595 71.3959 20.9595C69.4368 20.9595 67.8385 22.428 67.5954 24.32C67.3963 24.2958 67.2016 24.2595 66.9959 24.2595C64.2624 24.2595 62.0459 26.476 62.0459 29.2095C62.0459 31.943 64.2624 34.1595 66.9959 34.1595C69.7294 34.1595 77.4459 34.1595 77.4459 34.1595H84.0459Z" fill="#FDFCEF"/>
<path d="M79.6461 14.9099C76.3098 14.9099 73.5961 17.6236 73.5961 20.9599C73.5961 20.9775 73.5961 20.994 73.5961 21.0116C72.9339 20.6211 72.1771 20.4099 71.3961 20.4099C69.382 20.4099 67.644 21.797 67.1523 23.7154C67.1006 23.7121 67.0489 23.7099 66.9961 23.7099C63.9634 23.7099 61.4961 26.1772 61.4961 29.2099C61.4961 32.2426 63.9634 34.7099 66.9961 34.7099H84.0461C84.3497 34.7099 84.5961 34.4635 84.5961 34.1599C84.5961 33.8563 84.3497 33.6099 84.0461 33.6099H66.9961C64.5695 33.6099 62.5961 31.6365 62.5961 29.2099C62.5961 26.7833 64.5695 24.8099 66.9961 24.8099C67.1248 24.8099 67.2491 24.8286 67.3734 24.8451L67.5285 24.866C67.5516 24.8693 67.5736 24.8704 67.5967 24.8704C67.8673 24.8704 68.1049 24.6669 68.1412 24.3897C68.3513 22.7474 69.7505 21.5099 71.3961 21.5099C72.3696 21.5099 73.2914 21.951 73.9272 22.7199C74.035 22.8497 74.1923 22.9201 74.3518 22.9201C74.4376 22.9201 74.5234 22.9003 74.6026 22.8585C74.8325 22.7408 74.948 22.4779 74.882 22.2282C74.7555 21.7497 74.6961 21.3471 74.6961 20.9599C74.6961 18.2308 76.917 16.0099 79.6461 16.0099C82.2652 16.0099 84.4278 18.0691 84.5675 20.6992C84.5796 20.928 84.7325 21.1249 84.9514 21.1942C85.0064 21.2118 85.0625 21.2206 85.1186 21.2206C85.2836 21.2206 85.4442 21.1447 85.5498 21.0094C86.3979 19.9292 87.653 19.3099 88.9961 19.3099C91.4227 19.3099 93.3961 21.2833 93.3961 23.7099C93.3961 23.8386 93.3774 23.9629 93.3609 24.0872L93.34 24.2423C93.3224 24.3897 93.3642 24.5371 93.4566 24.6526C93.549 24.7681 93.6843 24.8418 93.8306 24.8561C96.0922 25.0816 97.7961 26.9538 97.7961 29.2099C97.7961 31.6365 95.8227 33.6099 93.3961 33.6099H87.3461C87.0425 33.6099 86.7961 33.8563 86.7961 34.1599C86.7961 34.4635 87.0425 34.7099 87.3461 34.7099H93.3961C96.4288 34.7099 98.8961 32.2426 98.8961 29.2099C98.8961 26.5732 97.0382 24.3556 94.4928 23.8452C94.495 23.8001 94.4961 23.755 94.4961 23.7099C94.4961 20.6772 92.0288 18.2099 88.9961 18.2099C87.7025 18.2099 86.4738 18.6675 85.4948 19.4903C84.837 16.8459 82.4566 14.9099 79.6461 14.9099Z" fill="#472B29"/>
<path d="M77.9963 22.6099C76.453 22.6099 75.1264 23.7088 74.792 25.185C74.3883 24.9408 73.9274 24.8099 73.4588 24.8099C72.1366 24.8099 71.041 25.7966 70.8705 27.0847C70.6472 27.0341 70.4349 27.0099 70.227 27.0099C68.5451 27.0099 67.1349 28.3299 67.0172 30.0151C67.0073 30.1669 67.1217 30.2989 67.2724 30.3099C67.279 30.3099 67.2856 30.3099 67.2922 30.3099C67.4352 30.3099 67.5562 30.1988 67.5661 30.0547C67.664 28.6566 68.8322 27.5599 70.227 27.5599C70.4789 27.5599 70.744 27.6061 71.0388 27.6996C71.063 27.7073 71.0883 27.7106 71.1125 27.7106C71.173 27.7106 71.2335 27.6886 71.2841 27.6512C71.3545 27.6006 71.3963 27.5104 71.3963 27.4224C71.3963 26.285 72.3214 25.3599 73.4588 25.3599C73.9505 25.3599 74.4323 25.5447 74.8129 25.8802C74.8646 25.9253 74.9295 25.9495 74.9944 25.9495C75.0296 25.9495 75.0637 25.9429 75.0967 25.9286C75.1935 25.8901 75.2595 25.7999 75.2672 25.6954C75.3816 24.2731 76.5795 23.1599 77.9963 23.1599C78.2251 23.1599 78.4638 23.1973 78.7465 23.2776C78.7718 23.2853 78.7982 23.2886 78.8235 23.2886C78.9434 23.2886 79.0512 23.2083 79.0864 23.0884C79.1282 22.9421 79.0435 22.7903 78.8972 22.7485C78.565 22.6539 78.2779 22.6099 77.9963 22.6099ZM93.2676 24.2599C91.809 24.2599 90.5088 25.2466 90.1062 26.6601C90.0644 26.8064 90.1491 26.9582 90.2954 27C90.3218 27.0066 90.3471 27.0099 90.3713 27.0099C90.4912 27.0099 90.6012 26.9307 90.6353 26.8097C90.9708 25.6327 92.0532 24.8099 93.2676 24.8099C93.3963 24.8099 93.5206 24.8253 93.6438 24.8418C93.657 24.844 93.6691 24.8451 93.6823 24.8451C93.8154 24.8451 93.9342 24.7439 93.9529 24.6064C93.9738 24.4557 93.8682 24.3171 93.7175 24.2973C93.5701 24.2775 93.4205 24.2599 93.2676 24.2599Z" fill="#472B29"/>
<path d="M18.0461 56.7095H7.04609C6.74249 56.7095 6.49609 56.4631 6.49609 56.1595C6.49609 55.8559 6.74249 55.6095 7.04609 55.6095H18.0461C18.3497 55.6095 18.5961 55.8559 18.5961 56.1595C18.5961 56.4631 18.3508 56.7095 18.0461 56.7095ZM21.3461 56.7095H20.2461C19.9425 56.7095 19.6961 56.4631 19.6961 56.1595C19.6961 55.8559 19.9425 55.6095 20.2461 55.6095H21.3461C21.6497 55.6095 21.8961 55.8559 21.8961 56.1595C21.8961 56.4631 21.6508 56.7095 21.3461 56.7095ZM26.8362 58.9095H16.9461C16.6425 58.9095 16.3961 58.6631 16.3961 58.3595C16.3961 58.0559 16.6425 57.8095 16.9461 57.8095H26.8362C27.1398 57.8095 27.3862 58.0559 27.3862 58.3595C27.3862 58.6631 27.1398 58.9095 26.8362 58.9095ZM14.7461 58.9095H13.6461C13.3425 58.9095 13.0961 58.6631 13.0961 58.3595C13.0961 58.0559 13.3425 57.8095 13.6461 57.8095H14.7461C15.0497 57.8095 15.2961 58.0559 15.2961 58.3595C15.2961 58.6631 15.0508 58.9095 14.7461 58.9095ZM11.4461 58.9095H9.24609C8.94249 58.9095 8.69609 58.6631 8.69609 58.3595C8.69609 58.0559 8.94249 57.8095 9.24609 57.8095H11.4461C11.7497 57.8095 11.9961 58.0559 11.9961 58.3595C11.9961 58.6631 11.7508 58.9095 11.4461 58.9095ZM18.0461 61.1095H15.8461C15.5425 61.1095 15.2961 60.8631 15.2961 60.5595C15.2961 60.2559 15.5425 60.0095 15.8461 60.0095H18.0461C18.3497 60.0095 18.5961 60.2559 18.5961 60.5595C18.5961 60.8631 18.3497 61.1095 18.0461 61.1095ZM21.3461 51.2095C21.1514 51.2095 20.4408 51.2095 20.2461 51.2095C19.9425 51.2095 19.6961 51.4559 19.6961 51.7595C19.6961 52.0631 19.9425 52.3095 20.2461 52.3095C20.4408 52.3095 21.1514 52.3095 21.3461 52.3095C21.6497 52.3095 21.8961 52.0631 21.8961 51.7595C21.8961 51.4559 21.6497 51.2095 21.3461 51.2095ZM21.3461 53.4095C21.1514 53.4095 16.0408 53.4095 15.8461 53.4095C15.5425 53.4095 15.2961 53.6559 15.2961 53.9595C15.2961 54.2631 15.5425 54.5095 15.8461 54.5095C16.0408 54.5095 21.1514 54.5095 21.3461 54.5095C21.6497 54.5095 21.8961 54.2631 21.8961 53.9595C21.8961 53.6559 21.6497 53.4095 21.3461 53.4095ZM26.8461 55.6095C26.6514 55.6095 23.7408 55.6095 23.5461 55.6095C23.2425 55.6095 22.9961 55.8559 22.9961 56.1595C22.9961 56.4631 23.2425 56.7095 23.5461 56.7095C23.7408 56.7095 26.6514 56.7095 26.8461 56.7095C27.1497 56.7095 27.3961 56.4631 27.3961 56.1595C27.3961 55.8559 27.1497 55.6095 26.8461 55.6095ZM93.9461 67.7095H82.9461C82.6425 67.7095 82.3961 67.4631 82.3961 67.1595C82.3961 66.8559 82.6425 66.6095 82.9461 66.6095H93.9461C94.2497 66.6095 94.4961 66.8559 94.4961 67.1595C94.4961 67.4631 94.2497 67.7095 93.9461 67.7095ZM98.3461 67.7095H96.1461C95.8425 67.7095 95.5961 67.4631 95.5961 67.1595C95.5961 66.8559 95.8425 66.6095 96.1461 66.6095H98.3461C98.6497 66.6095 98.8961 66.8559 98.8961 67.1595C98.8961 67.4631 98.6497 67.7095 98.3461 67.7095ZM103.846 69.9095H92.8461C92.5425 69.9095 92.2961 69.6631 92.2961 69.3595C92.2961 69.0559 92.5425 68.8095 92.8461 68.8095H103.846C104.15 68.8095 104.396 69.0559 104.396 69.3595C104.396 69.6631 104.151 69.9095 103.846 69.9095ZM90.6461 69.9095H89.5461C89.2425 69.9095 88.9961 69.6631 88.9961 69.3595C88.9961 69.0559 89.2425 68.8095 89.5461 68.8095H90.6461C90.9497 68.8095 91.1961 69.0559 91.1961 69.3595C91.1961 69.6631 90.9497 69.9095 90.6461 69.9095ZM87.3131 69.9095H85.1461C84.8425 69.9095 84.5961 69.6631 84.5961 69.3595C84.5961 69.0559 84.8425 68.8095 85.1461 68.8095H87.3131C87.6167 68.8095 87.8631 69.0559 87.8631 69.3595C87.8631 69.6631 87.6167 69.9095 87.3131 69.9095ZM97.2461 65.5095H91.7461C91.4425 65.5095 91.1961 65.2631 91.1961 64.9595C91.1961 64.6559 91.4425 64.4095 91.7461 64.4095H97.2461C97.5497 64.4095 97.7961 64.6559 97.7961 64.9595C97.7961 65.2631 97.5508 65.5095 97.2461 65.5095ZM93.9461 72.1095H91.7461C91.4425 72.1095 91.1961 71.8631 91.1961 71.5595C91.1961 71.2559 91.4425 71.0095 91.7461 71.0095H93.9461C94.2497 71.0095 94.4961 71.2559 94.4961 71.5595C94.4961 71.8631 94.2497 72.1095 93.9461 72.1095Z" fill="white"/>
<path d="M36.3331 65.8394C35.4685 65.8394 34.7656 65.1365 34.7656 64.2719V55.7469C34.7656 54.8823 35.4685 54.1794 36.3331 54.1794H44.8581C45.7227 54.1794 46.4256 54.8823 46.4256 55.7469V64.2719C46.4256 65.1365 45.7227 65.8394 44.8581 65.8394H36.3331Z" fill="#FDDBBC"/>
<path d="M44.8586 54.9499C45.2986 54.9499 45.6561 55.3074 45.6561 55.7474V64.2724C45.6561 64.7124 45.2986 65.0699 44.8586 65.0699H36.3336C35.8936 65.0699 35.5361 64.7124 35.5361 64.2724V55.7474C35.5361 55.3074 35.8936 54.9499 36.3336 54.9499H44.8586ZM44.8586 53.4099H36.3336C35.0422 53.4099 33.9961 54.456 33.9961 55.7474V64.2724C33.9961 65.5638 35.0422 66.6099 36.3336 66.6099H44.8586C46.15 66.6099 47.1961 65.5638 47.1961 64.2724V55.7474C47.1961 54.456 46.15 53.4099 44.8586 53.4099Z" fill="#472B29"/>
<path d="M36.3331 81.2393C35.4685 81.2393 34.7656 80.5364 34.7656 79.6718V71.1468C34.7656 70.2822 35.4685 69.5793 36.3331 69.5793H44.8581C45.7227 69.5793 46.4256 70.2822 46.4256 71.1468V79.6718C46.4256 80.5364 45.7227 81.2393 44.8581 81.2393H36.3331Z" fill="#FDDBBC"/>
<path d="M44.8586 70.3498C45.2986 70.3498 45.6561 70.7073 45.6561 71.1473V79.6723C45.6561 80.1123 45.2986 80.4698 44.8586 80.4698H36.3336C35.8936 80.4698 35.5361 80.1123 35.5361 79.6723V71.1473C35.5361 70.7073 35.8936 70.3498 36.3336 70.3498H44.8586ZM44.8586 68.8098H36.3336C35.0422 68.8098 33.9961 69.8559 33.9961 71.1473V79.6723C33.9961 80.9637 35.0422 82.0098 36.3336 82.0098H44.8586C46.15 82.0098 47.1961 80.9637 47.1961 79.6723V71.1473C47.1961 69.8559 46.15 68.8098 44.8586 68.8098Z" fill="#472B29"/>
<path d="M36.3331 50.4398C35.4685 50.4398 34.7656 49.7369 34.7656 48.8723V40.3473C34.7656 39.4827 35.4685 38.7798 36.3331 38.7798H44.8581C45.7227 38.7798 46.4256 39.4827 46.4256 40.3473V48.8723C46.4256 49.7369 45.7227 50.4398 44.8581 50.4398H36.3331Z" fill="#FDDBBC"/>
<path d="M44.8586 39.5503C45.2986 39.5503 45.6561 39.9078 45.6561 40.3478V48.8728C45.6561 49.3128 45.2986 49.6703 44.8586 49.6703H36.3336C35.8936 49.6703 35.5361 49.3128 35.5361 48.8728V40.3478C35.5361 39.9078 35.8936 39.5503 36.3336 39.5503H44.8586ZM44.8586 38.0103H36.3336C35.0422 38.0103 33.9961 39.0564 33.9961 40.3478V48.8728C33.9961 50.1642 35.0422 51.2103 36.3336 51.2103H44.8586C46.15 51.2103 47.1961 50.1642 47.1961 48.8728V40.3478C47.1961 39.0564 46.15 38.0103 44.8586 38.0103Z" fill="#472B29"/>
<path d="M42.0134 46.8099H39.1787C38.7464 46.8099 38.3955 46.459 38.3955 46.0278V43.192C38.3955 42.7597 38.7453 42.4099 39.1776 42.4099H42.0134C42.4457 42.4099 42.7955 42.7597 42.7955 43.192V46.0278C42.7955 46.459 42.4446 46.8099 42.0134 46.8099Z" fill="#78A2D2"/>
<path d="M42.0125 47.3599H39.1789C38.4441 47.3599 37.8457 46.7615 37.8457 46.0267V43.192C37.8457 42.4572 38.443 41.8599 39.1778 41.8599H42.0136C42.7484 41.8599 43.3457 42.4572 43.3457 43.192V46.0267C43.3457 46.7615 42.7473 47.3599 42.0125 47.3599ZM39.1778 42.9599C39.0502 42.9599 38.9457 43.0644 38.9457 43.192V46.0267C38.9457 46.1554 39.0502 46.2599 39.1789 46.2599H42.0125C42.1412 46.2599 42.2457 46.1554 42.2457 46.0267V43.192C42.2457 43.0644 42.1412 42.9599 42.0136 42.9599H39.1778Z" fill="#472B29"/>
<path d="M42.0134 62.2103H39.1787C38.7464 62.2103 38.3955 61.8594 38.3955 61.4282V58.5924C38.3955 58.1601 38.7453 57.8103 39.1776 57.8103H42.0134C42.4457 57.8103 42.7955 58.1601 42.7955 58.5924V61.4282C42.7955 61.8594 42.4446 62.2103 42.0134 62.2103Z" fill="#78A2D2"/>
<path d="M42.0125 62.7603H39.1789C38.4441 62.7603 37.8457 62.1619 37.8457 61.4271V58.5924C37.8457 57.8576 38.443 57.2603 39.1778 57.2603H42.0136C42.7484 57.2603 43.3457 57.8576 43.3457 58.5924V61.4271C43.3457 62.1619 42.7473 62.7603 42.0125 62.7603ZM39.1778 58.3603C39.0502 58.3603 38.9457 58.4648 38.9457 58.5924V61.4271C38.9457 61.5558 39.0502 61.6603 39.1789 61.6603H42.0125C42.1412 61.6603 42.2457 61.5558 42.2457 61.4271V58.5924C42.2457 58.4648 42.1412 58.3603 42.0136 58.3603H39.1778Z" fill="#472B29"/>
<path d="M52.3183 48.239C51.7386 48.239 51.2656 47.766 51.2656 47.1863V42.0317C51.2656 41.452 51.7386 40.979 52.3183 40.979H78.3729C78.9526 40.979 79.4256 41.452 79.4256 42.0317V47.1863C79.4256 47.766 78.9526 48.239 78.3729 48.239H52.3183Z" fill="#84A7D7"/>
<path d="M78.3734 41.7495C78.5296 41.7495 78.6561 41.876 78.6561 42.0322V47.1868C78.6561 47.343 78.5296 47.4695 78.3734 47.4695H52.3188C52.1626 47.4695 52.0361 47.343 52.0361 47.1868V42.0322C52.0361 41.876 52.1626 41.7495 52.3188 41.7495H78.3734ZM78.3734 40.2095H52.3188C51.3123 40.2095 50.4961 41.0257 50.4961 42.0322V47.1868C50.4961 48.1933 51.3123 49.0095 52.3188 49.0095H78.3734C79.3799 49.0095 80.1961 48.1933 80.1961 47.1868V42.0322C80.1961 41.0257 79.3799 40.2095 78.3734 40.2095Z" fill="#472B29"/>
<path d="M52.3183 63.6394C51.7386 63.6394 51.2656 63.1664 51.2656 62.5867V57.4321C51.2656 56.8524 51.7386 56.3794 52.3183 56.3794H78.3729C78.9526 56.3794 79.4256 56.8524 79.4256 57.4321V62.5867C79.4256 63.1664 78.9526 63.6394 78.3729 63.6394H52.3183Z" fill="#84A7D7"/>
<path d="M78.3734 57.1499C78.5296 57.1499 78.6561 57.2764 78.6561 57.4326V62.5872C78.6561 62.7434 78.5296 62.8699 78.3734 62.8699H52.3188C52.1626 62.8699 52.0361 62.7434 52.0361 62.5872V57.4326C52.0361 57.2764 52.1626 57.1499 52.3188 57.1499H78.3734ZM78.3734 55.6099H52.3188C51.3123 55.6099 50.4961 56.4261 50.4961 57.4326V62.5872C50.4961 63.5937 51.3123 64.4099 52.3188 64.4099H78.3734C79.3799 64.4099 80.1961 63.5937 80.1961 62.5872V57.4326C80.1961 56.4261 79.3799 55.6099 78.3734 55.6099Z" fill="#472B29"/>
<path d="M52.3183 79.0398C51.7386 79.0398 51.2656 78.5668 51.2656 77.9871V72.8325C51.2656 72.2528 51.7386 71.7798 52.3183 71.7798H78.3729C78.9526 71.7798 79.4256 72.2528 79.4256 72.8325V77.9871C79.4256 78.5668 78.9526 79.0398 78.3729 79.0398H52.3183Z" fill="#84A7D7"/>
<path d="M78.3734 72.5503C78.5296 72.5503 78.6561 72.6768 78.6561 72.833V77.9876C78.6561 78.1438 78.5296 78.2703 78.3734 78.2703H52.3188C52.1626 78.2703 52.0361 78.1438 52.0361 77.9876V72.833C52.0361 72.6768 52.1626 72.5503 52.3188 72.5503H78.3734ZM78.3734 71.0103H52.3188C51.3123 71.0103 50.4961 71.8265 50.4961 72.833V77.9876C50.4961 78.9941 51.3123 79.8103 52.3188 79.8103H78.3734C79.3799 79.8103 80.1961 78.9941 80.1961 77.9876V72.833C80.1961 71.8265 79.3799 71.0103 78.3734 71.0103Z" fill="#472B29"/>
<path d="M79.6465 45.4353H62.0465C61.8947 45.4353 61.7715 45.3121 61.7715 45.1603C61.7715 45.0085 61.8947 44.8853 62.0465 44.8853H79.6465C79.7983 44.8853 79.9215 45.0085 79.9215 45.1603C79.9215 45.3121 79.7983 45.4353 79.6465 45.4353Z" fill="#472B29"/>
<path d="M59.8459 45.4353H55.4459C55.2941 45.4353 55.1709 45.3121 55.1709 45.1603C55.1709 45.0085 55.2941 44.8853 55.4459 44.8853H59.8459C59.9977 44.8853 60.1209 45.0085 60.1209 45.1603C60.1209 45.3121 59.9977 45.4353 59.8459 45.4353Z" fill="#472B29"/>
<path d="M67.5461 76.2348H63.1461C62.9943 76.2348 62.8711 76.1116 62.8711 75.9598C62.8711 75.808 62.9943 75.6848 63.1461 75.6848H67.5461C67.6979 75.6848 67.8211 75.808 67.8211 75.9598C67.8211 76.1116 67.6979 76.2348 67.5461 76.2348Z" fill="#472B29"/>
<path d="M79.6457 76.2351H69.7457C69.5939 76.2351 69.4707 76.1119 69.4707 75.9601C69.4707 75.8083 69.5939 75.6851 69.7457 75.6851H79.6457C79.7975 75.6851 79.9207 75.8083 79.9207 75.9601C79.9207 76.1119 79.7975 76.2351 79.6457 76.2351Z" fill="#472B29"/>
<path d="M33.4455 88.0595C33.4455 88.0595 35.1692 88.0595 37.2955 88.0595C39.4218 88.0595 41.1455 86.3358 41.1455 84.2095C41.1455 82.2504 39.677 80.6521 37.785 80.409C37.8158 80.2121 37.8455 80.0152 37.8455 79.8095C37.8455 77.6832 36.1218 75.9595 33.9955 75.9595C32.8603 75.9595 31.8505 76.46 31.1465 77.241C30.7241 75.2522 28.9608 73.7595 26.8455 73.7595C24.4156 73.7595 22.4455 75.7296 22.4455 78.1595C22.4455 78.3696 22.4785 78.5709 22.5071 78.7733C22.0363 78.3949 21.4467 78.1595 20.7955 78.1595C19.4447 78.1595 18.326 79.1352 18.095 80.42C17.8981 80.3892 17.7012 80.3595 17.4955 80.3595C15.3692 80.3595 13.6455 82.0832 13.6455 84.2095C13.6455 86.3358 15.3692 88.0595 17.4955 88.0595C19.6218 88.0595 25.7455 88.0595 25.7455 88.0595V88.6095H33.4455V88.0595Z" fill="#FDFCEF"/>
<path d="M35.3715 83.1098C35.2197 83.1098 35.0965 82.9866 35.0965 82.8348C35.0965 81.4895 36.191 80.395 37.5363 80.395C37.5737 80.4049 38.347 80.3939 38.9047 80.5446C39.051 80.5842 39.1379 80.7349 39.0983 80.8812C39.0587 81.0286 38.908 81.1155 38.7617 81.0748C38.2733 80.9428 37.5517 80.9428 37.5374 80.945C36.4946 80.945 35.6465 81.7931 35.6465 82.8348C35.6465 82.9866 35.5233 83.1098 35.3715 83.1098ZM27.9465 87.5098C27.8006 87.5098 27.6607 87.5678 27.5576 87.6709C27.4544 87.7741 27.3965 87.914 27.3965 88.0598C27.3965 88.2057 27.4544 88.3456 27.5576 88.4487C27.6607 88.5519 27.8006 88.6098 27.9465 88.6098C28.0924 88.6098 28.2322 88.5519 28.3354 88.4487C28.4385 88.3456 28.4965 88.2057 28.4965 88.0598C28.4965 87.914 28.4385 87.7741 28.3354 87.6709C28.2322 87.5678 28.0924 87.5098 27.9465 87.5098Z" fill="#472B29"/>
<path d="M37.2957 88.6095H33.4457C33.1421 88.6095 32.8957 88.3631 32.8957 88.0595C32.8957 87.7559 33.1421 87.5095 33.4457 87.5095H37.2957C39.1151 87.5095 40.5957 86.0289 40.5957 84.2095C40.5957 82.5639 39.3582 81.1647 37.7159 80.9546C37.5685 80.9348 37.4354 80.8578 37.3463 80.739C37.2572 80.6202 37.2198 80.4706 37.2429 80.3243C37.2682 80.1549 37.2957 79.9855 37.2957 79.8095C37.2957 77.9901 35.8151 76.5095 33.9957 76.5095C33.0607 76.5095 32.1939 76.9 31.5548 77.6095C31.4173 77.7624 31.2017 77.8273 31.0048 77.7723C30.8046 77.7184 30.6517 77.5578 30.6088 77.3554C30.2337 75.591 28.6508 74.3095 26.8457 74.3095C24.7227 74.3095 22.9957 76.0365 22.9957 78.1595C22.9957 78.3168 23.0188 78.4675 23.0408 78.6193C23.0727 78.8426 22.9715 79.1011 22.7746 79.2133C22.5777 79.3255 22.339 79.3431 22.163 79.2023C21.7615 78.88 21.2896 78.7095 20.7957 78.7095C19.7331 78.7095 18.8245 79.4696 18.6364 80.5179C18.5836 80.8116 18.3108 81.0085 18.0105 80.9634C17.8411 80.937 17.6717 80.9095 17.4957 80.9095C15.6763 80.9095 14.1957 82.3901 14.1957 84.2095C14.1957 86.0289 15.6763 87.5095 17.4957 87.5095H25.7457C26.0493 87.5095 26.2957 87.7559 26.2957 88.0595C26.2957 88.3631 26.0493 88.6095 25.7457 88.6095H17.4957C15.0691 88.6095 13.0957 86.6361 13.0957 84.2095C13.0957 81.7829 15.0691 79.8095 17.4957 79.8095C17.5606 79.8095 17.6233 79.8117 17.6871 79.8161C18.1425 78.5115 19.3778 77.6095 20.7957 77.6095C21.1796 77.6095 21.5536 77.6766 21.9078 77.8075C22.0893 75.2412 24.2343 73.2095 26.8457 73.2095C28.8598 73.2095 30.6583 74.4492 31.414 76.2609C32.162 75.7131 33.0662 75.4095 33.9957 75.4095C36.4223 75.4095 38.3957 77.3829 38.3957 79.8095C38.3957 79.8623 38.3946 79.914 38.3913 79.9657C40.3086 80.4585 41.6957 82.1954 41.6957 84.2095C41.6957 86.6361 39.7223 88.6095 37.2957 88.6095Z" fill="#472B29"/>
<path d="M31.2457 87.5093C31.0708 87.5093 30.3206 87.5093 30.1457 87.5093C29.8421 87.5093 29.5957 87.7557 29.5957 88.0593C29.5957 88.3629 29.8421 88.6093 30.1457 88.6093C30.3206 88.6093 31.0708 88.6093 31.2457 88.6093C31.5493 88.6093 31.7957 88.3629 31.7957 88.0593C31.7957 87.7557 31.5493 87.5093 31.2457 87.5093Z" fill="#472B29"/>
</svg>
