<svg width="111" height="111" viewBox="0 0 111 111" fill="none" xmlns="http://www.w3.org/2000/svg">
<path d="M96.6898 62.9912C97.9383 60.6208 98.6533 57.9258 98.6533 55.0602C98.6533 47.7772 94.0784 41.5776 87.6522 39.1345C87.6522 39.1268 87.6533 39.1191 87.6533 39.1103C87.6533 26.3525 77.3111 16.0103 64.5533 16.0103C53.7909 16.0103 44.7742 23.3814 42.209 33.343C40.5854 32.8095 38.8551 32.5103 37.0533 32.5103C28.5921 32.5103 21.628 38.8826 20.6743 47.0875C14.9499 48.2985 10.6533 53.3762 10.6533 59.4603C10.6533 66.4464 16.3172 72.1102 23.3033 72.1102C23.498 72.1102 23.6905 72.097 23.8819 72.086C23.8775 72.2785 23.8533 72.4666 23.8533 72.6602C23.8533 85.1144 33.9491 95.2103 46.4033 95.2103C53.484 95.2103 59.7958 91.941 63.9307 86.8348C66.3265 89.2823 69.6573 90.8102 73.3533 90.8102C78.4683 90.8102 82.8947 87.8952 85.0859 83.6404C86.2431 84.0089 87.474 84.2103 88.7533 84.2103C95.4358 84.2103 100.853 78.7927 100.853 72.1102C100.853 68.4682 99.2363 65.2099 96.6898 62.9912Z" fill="#C7EDE6"/>
<path d="M18.798 55.6099H7.90254C7.59894 55.6099 7.35254 55.3635 7.35254 55.0599C7.35254 54.7563 7.59894 54.5099 7.90254 54.5099H18.798C19.1016 54.5099 19.348 54.7563 19.348 55.0599C19.348 55.3635 19.1027 55.6099 18.798 55.6099ZM22.2025 55.6099H21.1025C20.7989 55.6099 20.5525 55.3635 20.5525 55.0599C20.5525 54.7563 20.7989 54.5099 21.1025 54.5099H22.2025C22.5061 54.5099 22.7525 54.7563 22.7525 55.0599C22.7525 55.3635 22.5072 55.6099 22.2025 55.6099ZM27.6926 57.8099H17.8025C17.4989 57.8099 17.2525 57.5635 17.2525 57.2599C17.2525 56.9563 17.4989 56.7099 17.8025 56.7099H27.6926C27.9962 56.7099 28.2426 56.9563 28.2426 57.2599C28.2426 57.5635 27.9962 57.8099 27.6926 57.8099ZM15.6025 57.8099H14.5025C14.1989 57.8099 13.9525 57.5635 13.9525 57.2599C13.9525 56.9563 14.1989 56.7099 14.5025 56.7099H15.6025C15.9061 56.7099 16.1525 56.9563 16.1525 57.2599C16.1525 57.5635 15.9072 57.8099 15.6025 57.8099ZM12.3025 57.8099H10.1025C9.79894 57.8099 9.55254 57.5635 9.55254 57.2599C9.55254 56.9563 9.79894 56.7099 10.1025 56.7099H12.3025C12.6061 56.7099 12.8525 56.9563 12.8525 57.2599C12.8525 57.5635 12.6072 57.8099 12.3025 57.8099ZM18.9025 60.0099H16.7025C16.3989 60.0099 16.1525 59.7635 16.1525 59.4599C16.1525 59.1563 16.3989 58.9099 16.7025 58.9099H18.9025C19.2061 58.9099 19.4525 59.1563 19.4525 59.4599C19.4525 59.7635 19.2061 60.0099 18.9025 60.0099ZM22.2025 50.1099C22.0078 50.1099 21.2972 50.1099 21.1025 50.1099C20.7989 50.1099 20.5525 50.3563 20.5525 50.6599C20.5525 50.9635 20.7989 51.2099 21.1025 51.2099C21.2972 51.2099 22.0078 51.2099 22.2025 51.2099C22.5061 51.2099 22.7525 50.9635 22.7525 50.6599C22.7525 50.3563 22.5061 50.1099 22.2025 50.1099ZM22.2025 52.3099C22.0078 52.3099 16.8972 52.3099 16.7025 52.3099C16.3989 52.3099 16.1525 52.5563 16.1525 52.8599C16.1525 53.1635 16.3989 53.4099 16.7025 53.4099C16.8972 53.4099 22.0078 53.4099 22.2025 53.4099C22.5061 53.4099 22.7525 53.1635 22.7525 52.8599C22.7525 52.5563 22.5061 52.3099 22.2025 52.3099ZM27.7025 54.5099C27.5078 54.5099 24.5972 54.5099 24.4025 54.5099C24.0989 54.5099 23.8525 54.7563 23.8525 55.0599C23.8525 55.3635 24.0989 55.6099 24.4025 55.6099C24.5972 55.6099 27.5078 55.6099 27.7025 55.6099C28.0061 55.6099 28.2525 55.3635 28.2525 55.0599C28.2525 54.7563 28.0061 54.5099 27.7025 54.5099ZM94.2525 73.2099H83.2525C82.9489 73.2099 82.7025 72.9635 82.7025 72.6599C82.7025 72.3563 82.9489 72.1099 83.2525 72.1099H94.2525C94.5561 72.1099 94.8025 72.3563 94.8025 72.6599C94.8025 72.9635 94.5561 73.2099 94.2525 73.2099ZM98.6525 73.2099H96.4525C96.1489 73.2099 95.9025 72.9635 95.9025 72.6599C95.9025 72.3563 96.1489 72.1099 96.4525 72.1099H98.6525C98.9561 72.1099 99.2025 72.3563 99.2025 72.6599C99.2025 72.9635 98.9561 73.2099 98.6525 73.2099ZM104.153 75.4099H93.1525C92.8489 75.4099 92.6025 75.1635 92.6025 74.8599C92.6025 74.5563 92.8489 74.3099 93.1525 74.3099H104.153C104.456 74.3099 104.703 74.5563 104.703 74.8599C104.703 75.1635 104.457 75.4099 104.153 75.4099ZM90.9525 75.4099H89.8525C89.5489 75.4099 89.3025 75.1635 89.3025 74.8599C89.3025 74.5563 89.5489 74.3099 89.8525 74.3099H90.9525C91.2561 74.3099 91.5025 74.5563 91.5025 74.8599C91.5025 75.1635 91.2561 75.4099 90.9525 75.4099ZM87.515 75.4099H85.4525C85.1489 75.4099 84.9025 75.1635 84.9025 74.8599C84.9025 74.5563 85.1489 74.3099 85.4525 74.3099H87.515C87.8186 74.3099 88.065 74.5563 88.065 74.8599C88.065 75.1635 87.8186 75.4099 87.515 75.4099ZM97.5525 71.0099H92.0525C91.7489 71.0099 91.5025 70.7635 91.5025 70.4599C91.5025 70.1563 91.7489 69.9099 92.0525 69.9099H97.5525C97.8561 69.9099 98.1025 70.1563 98.1025 70.4599C98.1025 70.7635 97.8572 71.0099 97.5525 71.0099ZM94.2525 77.6099H92.0525C91.7489 77.6099 91.5025 77.3635 91.5025 77.0599C91.5025 76.7563 91.7489 76.5099 92.0525 76.5099H94.2525C94.5561 76.5099 94.8025 76.7563 94.8025 77.0599C94.8025 77.3635 94.5561 77.6099 94.2525 77.6099Z" fill="white"/>
<path d="M50.2525 44.6099H56.5775C59.311 45.4349 61.5275 43.2184 61.5275 40.4849C61.5275 37.9186 59.5673 35.833 57.067 35.5844C57.0912 35.3853 57.1275 35.1906 57.1275 34.9849C57.1275 32.2514 54.911 30.0349 52.1775 30.0349C50.5957 30.0349 49.2042 30.7895 48.2978 31.9445C48.1438 29.0449 45.7656 26.7349 42.8275 26.7349C39.7904 26.7349 37.3275 29.1978 37.3275 32.2349C37.3275 32.7255 37.4122 33.1919 37.5332 33.6451C36.827 32.7904 35.7732 32.2349 34.5775 32.2349C32.6184 32.2349 31.0201 33.7034 30.777 35.5954C30.5779 35.5712 30.3832 35.5349 30.1775 35.5349C27.444 35.5349 25.2275 37.7514 25.2275 40.4849C25.2275 43.2184 27.444 45.4349 30.1775 44.6099H40.6275H46.9525V45.7099H50.2525V44.6099Z" fill="#FDFCEF"/>
<path d="M43.1031 25.9099C39.7668 25.9099 37.0531 28.6236 37.0531 31.9599C37.0531 31.9775 37.0531 31.994 37.0531 32.0116C36.3909 31.6211 35.6341 31.4099 34.8531 31.4099C32.839 31.4099 31.101 32.797 30.6093 34.7154C30.5576 34.7121 30.5059 34.7099 30.4531 34.7099C27.0442 34.7099 24.3492 37.8273 25.0708 41.3616C25.5988 43.9477 28.0287 45.7099 30.6687 45.7099H46.8156C47.1192 45.7099 47.3656 45.4635 47.3656 45.1599C47.3656 44.8563 47.1192 44.6099 46.8156 44.6099H30.6258C28.5138 44.6099 26.5701 43.1997 26.1477 41.1306C25.5702 38.3036 27.7262 35.8099 30.4531 35.8099C30.5818 35.8099 30.7061 35.8286 30.8304 35.8451L30.9855 35.866C31.0086 35.8693 31.0306 35.8704 31.0537 35.8704C31.3243 35.8704 31.5619 35.6669 31.5982 35.3897C31.8083 33.7474 33.2075 32.5099 34.8531 32.5099C35.8266 32.5099 36.7484 32.951 37.3842 33.7199C37.492 33.8497 37.6493 33.9201 37.8088 33.9201C37.8946 33.9201 37.9804 33.9003 38.0596 33.8585C38.2895 33.7408 38.405 33.4779 38.339 33.2282C38.163 32.5682 38.1168 32.0523 38.1773 31.5243C38.4413 29.1846 40.3322 27.2244 42.6785 27.0275C45.4846 26.791 47.876 28.9283 48.0234 31.6981C48.0355 31.9269 48.1884 32.1238 48.4073 32.1931C48.4623 32.2107 48.5184 32.2195 48.5745 32.2195C48.7395 32.2195 48.9001 32.1436 49.0057 32.0083C49.8549 30.9292 51.11 30.3099 52.4531 30.3099C54.8797 30.3099 56.8531 32.2833 56.8531 34.7099C56.8531 34.8386 56.8344 34.9629 56.8179 35.0872L56.797 35.2423C56.7794 35.3897 56.8212 35.5371 56.9136 35.6526C57.006 35.7681 57.1413 35.8418 57.2876 35.8561C59.8748 36.1135 61.7338 38.528 61.142 41.2076C60.6932 43.2459 58.7506 44.6099 56.6628 44.6099H50.1156C49.812 44.6099 49.5656 44.8563 49.5656 45.1599C49.5656 45.4635 49.812 45.7099 50.1156 45.7099H56.6474C59.3611 45.7099 61.8262 43.8355 62.2739 41.1581C62.7821 38.1188 60.7955 35.4161 57.9498 34.8441C57.952 34.8001 57.9531 34.755 57.9531 34.7099C57.9531 31.6772 55.4858 29.2099 52.4531 29.2099C51.1595 29.2099 49.9308 29.6675 48.9518 30.4903C48.294 27.8459 45.9136 25.9099 43.1031 25.9099Z" fill="#472B29"/>
<path d="M41.1779 33.8853C39.6346 33.8853 38.308 34.9842 37.9736 36.4604C37.5699 36.2162 37.109 36.0853 36.6404 36.0853C35.3182 36.0853 34.2226 37.072 34.0521 38.3601C33.8288 38.3106 33.6165 38.2853 33.4086 38.2853C31.7267 38.2853 30.3165 39.6053 30.1988 41.2905C30.1889 41.4423 30.3022 41.5732 30.454 41.5842C30.4606 41.5842 30.4672 41.5842 30.4738 41.5842C30.6168 41.5842 30.7378 41.4731 30.7477 41.329C30.8456 39.9309 32.0138 38.8342 33.4086 38.8342C33.6605 38.8342 33.9256 38.8804 34.2204 38.9739C34.2446 38.9816 34.2699 38.9849 34.2941 38.9849C34.3546 38.9849 34.4151 38.9629 34.4657 38.9255C34.5361 38.8738 34.5779 38.7836 34.5779 38.6956C34.5779 37.5582 35.503 36.6331 36.6404 36.6331C37.1321 36.6331 37.6139 36.8179 37.9945 37.1534C38.0462 37.1985 38.1111 37.2227 38.176 37.2227C38.2112 37.2227 38.2453 37.2161 38.2783 37.2018C38.3751 37.1633 38.4411 37.0731 38.4488 36.9686C38.561 35.5474 39.7589 34.4331 41.1757 34.4331C41.4045 34.4331 41.6432 34.4705 41.9259 34.5508C41.9512 34.5585 41.9776 34.5618 42.0029 34.5618C42.1228 34.5618 42.2306 34.4815 42.2658 34.3616C42.3076 34.2153 42.2229 34.0635 42.0766 34.0217C41.7466 33.9293 41.4595 33.8853 41.1779 33.8853ZM56.4492 35.5353C54.9906 35.5353 53.6904 36.522 53.2878 37.9355C53.246 38.0818 53.3307 38.2336 53.477 38.2754C53.5023 38.2831 53.5276 38.2864 53.5518 38.2864C53.6717 38.2864 53.7817 38.2072 53.8158 38.0862C54.1513 36.9081 55.2337 36.0864 56.4481 36.0864C56.5768 36.0864 56.7011 36.1018 56.8243 36.1183C56.8375 36.1205 56.8496 36.1216 56.8628 36.1216C56.9959 36.1216 57.1147 36.0204 57.1334 35.8829C57.1543 35.7322 57.0487 35.5936 56.898 35.5738C56.7517 35.5529 56.6021 35.5353 56.4492 35.5353Z" fill="#472B29"/>
<path d="M37.2243 82.3402C36.9471 82.3402 36.7227 82.1158 36.7227 81.8386V71.1818C36.7227 70.9046 36.9471 70.6802 37.2243 70.6802H42.3811C42.6583 70.6802 42.8827 70.9046 42.8827 71.1818V81.8386C42.8827 82.1158 42.6583 82.3402 42.3811 82.3402H37.2243Z" fill="#D38B5D"/>
<path d="M42.1131 71.4499V81.5699H37.4931V71.4499H42.1131ZM42.3815 69.9099H37.2247C36.5229 69.9099 35.9531 70.4797 35.9531 71.1815V81.8383C35.9531 82.5401 36.5229 83.1099 37.2247 83.1099H42.3815C43.0833 83.1099 43.6531 82.5401 43.6531 81.8383V71.1815C43.6531 70.4797 43.0833 69.9099 42.3815 69.9099Z" fill="#472B29"/>
<path d="M70.0868 82.3402C69.8855 82.3402 69.7227 82.1774 69.7227 81.9761V71.0443C69.7227 70.843 69.8855 70.6802 70.0868 70.6802H75.5186C75.7199 70.6802 75.8827 70.843 75.8827 71.0443V81.9761C75.8827 82.1774 75.7199 82.3402 75.5186 82.3402H70.0868Z" fill="#D38B5D"/>
<path d="M75.1131 71.4499V81.5699H70.4931V71.4499H75.1131ZM75.519 69.9099H70.0872C69.4613 69.9099 68.9531 70.4181 68.9531 71.044V81.9758C68.9531 82.6017 69.4613 83.1099 70.0872 83.1099H75.519C76.1449 83.1099 76.6531 82.6017 76.6531 81.9758V71.044C76.6531 70.4181 76.1449 69.9099 75.519 69.9099Z" fill="#472B29"/>
<path d="M38.9322 64.6736C38.8871 64.6736 38.8442 64.6626 38.8035 64.6417L32.8998 61.4462C32.8129 61.3989 32.781 61.3241 32.7678 61.2845C32.7557 61.2438 32.7436 61.1624 32.7909 61.0755L45.9337 36.7919C45.992 36.6863 46.0954 36.6489 46.1757 36.6489C46.2208 36.6489 46.2637 36.6599 46.3044 36.6808L52.2081 39.8763C52.3412 39.9478 52.3896 40.115 52.3181 40.2481L39.1742 64.5306C39.1159 64.6362 39.0114 64.6736 38.9322 64.6736Z" fill="#F9E65C"/>
<path d="M46.3736 37.5934L51.4039 40.3159L38.733 63.7272L33.7027 61.0047L46.3736 37.5934ZM46.1745 35.8774C45.8038 35.8774 45.4452 36.0754 45.256 36.4241L32.1121 60.7077C31.8382 61.2137 32.0263 61.8484 32.5334 62.1223L38.4371 65.3178C38.5955 65.4036 38.7649 65.4443 38.9332 65.4443C39.3039 65.4443 39.6625 65.2463 39.8517 64.8976L52.9956 40.6129C53.2695 40.1069 53.0814 39.4722 52.5743 39.1983L46.6706 36.0028C46.5122 35.9181 46.3417 35.8774 46.1745 35.8774Z" fill="#472B29"/>
<path d="M53.534 64.7394C53.3624 64.7394 53.2227 64.5997 53.2227 64.4281V34.6907C53.2227 34.5191 53.3624 34.3794 53.534 34.3794H60.1703C60.3419 34.3794 60.4816 34.5191 60.4816 34.6907V64.427C60.4816 64.5986 60.3419 64.7383 60.1703 64.7383L53.534 64.7394Z" fill="#78CDD4"/>
<path d="M59.7131 35.1499V63.9699H53.9931V35.1499H59.7131ZM60.1718 33.6099H53.5344C52.9371 33.6099 52.4531 34.0939 52.4531 34.6912V64.4275C52.4531 65.0259 52.9371 65.5099 53.5344 65.5099H60.1718C60.7691 65.5099 61.2531 65.0259 61.2531 64.4286V34.6912C61.2531 34.0939 60.7691 33.6099 60.1718 33.6099Z" fill="#472B29"/>
<path d="M69.8412 64.7403C69.7763 64.7403 69.7246 64.6875 69.7246 64.6237V37.798C69.7246 37.7331 69.7774 37.6814 69.8412 37.6814H74.6669C74.7318 37.6814 74.7835 37.7342 74.7835 37.798V64.6237C74.7835 64.6886 74.7307 64.7403 74.6669 64.7403H69.8412Z" fill="#AFABD4"/>
<path d="M74.0131 38.4499V63.9699H70.4931V38.4499H74.0131ZM74.6665 36.9099H69.8397C69.3502 36.9099 68.9531 37.307 68.9531 37.7965V64.6233C68.9531 65.1128 69.3502 65.5099 69.8397 65.5099H74.6665C75.156 65.5099 75.5531 65.1128 75.5531 64.6233V37.7965C75.5531 37.307 75.156 36.9099 74.6665 36.9099Z" fill="#472B29"/>
<path d="M61.3948 64.7394C61.1352 64.7394 60.9229 64.5282 60.9229 64.2675V29.3513C60.9229 29.0917 61.1341 28.8794 61.3948 28.8794H68.8109C69.0705 28.8794 69.2829 29.0906 69.2829 29.3513V64.2675C69.2829 64.5271 69.0716 64.7394 68.8109 64.7394H61.3948Z" fill="#EA5167"/>
<path d="M68.5133 29.6499V63.9699H61.6933V29.6499H68.5133ZM68.8114 28.1099H61.3952C60.7099 28.1099 60.1533 28.6654 60.1533 29.3518V64.2669C60.1533 64.9544 60.7099 65.5099 61.3952 65.5099H68.8114C69.4967 65.5099 70.0533 64.9544 70.0533 64.268V29.3518C70.0533 28.6654 69.4967 28.1099 68.8114 28.1099Z" fill="#472B29"/>
<path d="M32.7282 71.3403C32.5038 71.3403 32.3223 71.1588 32.3223 70.9344V65.5873C32.3223 65.3629 32.5038 65.1814 32.7282 65.1814H78.7753C78.9997 65.1814 79.1812 65.3629 79.1812 65.5873V70.9344C79.1812 71.1588 78.9997 71.3403 78.7753 71.3403H32.7282Z" fill="#D38B5D"/>
<path d="M78.4127 65.9499V70.5699H33.0927V65.9499H78.4127ZM78.7757 64.4099H32.7297C32.0796 64.4099 31.5527 64.9368 31.5527 65.5869V70.9329C31.5527 71.583 32.0796 72.1099 32.7297 72.1099H78.7757C79.4258 72.1099 79.9527 71.583 79.9527 70.9329V65.5869C79.9527 64.9368 79.4258 64.4099 78.7757 64.4099Z" fill="#472B29"/>
<path d="M62.9033 33.6103H60.7033C60.3997 33.6103 60.1533 33.3639 60.1533 33.0603C60.1533 32.7567 60.3997 32.5103 60.7033 32.5103H62.9033C63.2069 32.5103 63.4533 32.7567 63.4533 33.0603C63.4533 33.3639 63.2069 33.6103 62.9033 33.6103Z" fill="#472B29"/>
<path d="M69.5027 33.6103H65.1027C64.7991 33.6103 64.5527 33.3639 64.5527 33.0603C64.5527 32.7567 64.7991 32.5103 65.1027 32.5103H69.5027C69.8063 32.5103 70.0527 32.7567 70.0527 33.0603C70.0527 33.3639 69.8063 33.6103 69.5027 33.6103Z" fill="#472B29"/>
<path d="M36.5027 68.8095H32.1027C31.7991 68.8095 31.5527 68.5631 31.5527 68.2595C31.5527 67.9559 31.7991 67.7095 32.1027 67.7095H36.5027C36.8063 67.7095 37.0527 67.9559 37.0527 68.2595C37.0527 68.5631 36.8063 68.8095 36.5027 68.8095Z" fill="#472B29"/>
<path d="M42.0029 68.8095H39.8029C39.4993 68.8095 39.2529 68.5631 39.2529 68.2595C39.2529 67.9559 39.4993 67.7095 39.8029 67.7095H42.0029C42.3065 67.7095 42.5529 67.9559 42.5529 68.2595C42.5529 68.5631 42.3065 68.8095 42.0029 68.8095Z" fill="#472B29"/>
<path d="M75.0029 68.8095H45.3029C44.9993 68.8095 44.7529 68.5631 44.7529 68.2595C44.7529 67.9559 44.9993 67.7095 45.3029 67.7095H75.0029C75.3065 67.7095 75.5529 67.9559 75.5529 68.2595C75.5529 68.5631 75.3065 68.8095 75.0029 68.8095Z" fill="#472B29"/>
<path d="M62.9033 61.1103H60.7033C60.3997 61.1103 60.1533 60.8639 60.1533 60.5603C60.1533 60.2567 60.3997 60.0103 60.7033 60.0103H62.9033C63.2069 60.0103 63.4533 60.2567 63.4533 60.5603C63.4533 60.8639 63.2069 61.1103 62.9033 61.1103Z" fill="#472B29"/>
<path d="M69.5027 61.1103H65.1027C64.7991 61.1103 64.5527 60.8639 64.5527 60.5603C64.5527 60.2567 64.7991 60.0103 65.1027 60.0103H69.5027C69.8063 60.0103 70.0527 60.2567 70.0527 60.5603C70.0527 60.8639 69.8063 61.1103 69.5027 61.1103Z" fill="#472B29"/>
<path d="M60.7029 38.0099H56.3029C55.9993 38.0099 55.7529 37.7635 55.7529 37.4599C55.7529 37.1563 55.9993 36.9099 56.3029 36.9099H60.7029C61.0065 36.9099 61.2529 37.1563 61.2529 37.4599C61.2529 37.7635 61.0065 38.0099 60.7029 38.0099Z" fill="#472B29"/>
<path d="M48.273 41.7971C48.1839 41.7971 48.0948 41.7751 48.0112 41.73L44.1403 39.6356C43.8741 39.4915 43.774 39.1571 43.9192 38.8898C44.0633 38.6214 44.3988 38.5246 44.665 38.6687L48.5359 40.7631C48.8021 40.9072 48.9022 41.2416 48.757 41.5089C48.658 41.6937 48.4677 41.7971 48.273 41.7971Z" fill="#472B29"/>
<path d="M37.8012 61.1451C37.7121 61.1451 37.623 61.1231 37.5394 61.078L33.6696 58.9847C33.4034 58.8406 33.3033 58.5062 33.4485 58.2389C33.5926 57.9705 33.927 57.8748 34.1943 58.0178L38.0641 60.1111C38.3303 60.2552 38.4304 60.5896 38.2852 60.8569C38.1851 61.0417 37.9948 61.1451 37.8012 61.1451Z" fill="#472B29"/>
<path d="M75.0033 41.3095H71.7033C71.3997 41.3095 71.1533 41.0631 71.1533 40.7595C71.1533 40.4559 71.3997 40.2095 71.7033 40.2095H75.0033C75.3069 40.2095 75.5533 40.4559 75.5533 40.7595C75.5533 41.0631 75.3069 41.3095 75.0033 41.3095Z" fill="#472B29"/>
<path d="M75.0033 62.2099H71.7033C71.3997 62.2099 71.1533 61.9635 71.1533 61.6599C71.1533 61.3563 71.3997 61.1099 71.7033 61.1099H75.0033C75.3069 61.1099 75.5533 61.3563 75.5533 61.6599C75.5533 61.9635 75.3069 62.2099 75.0033 62.2099Z" fill="#472B29"/>
<path d="M60.7029 62.2099H56.3029C55.9993 62.2099 55.7529 61.9635 55.7529 61.6599C55.7529 61.3563 55.9993 61.1099 56.3029 61.1099H60.7029C61.0065 61.1099 61.2529 61.3563 61.2529 61.6599C61.2529 61.9635 61.0065 62.2099 60.7029 62.2099Z" fill="#472B29"/>
<path d="M75.8279 57.26C75.8279 57.26 74.1042 57.26 71.9779 57.26C69.8516 57.26 68.1279 55.5363 68.1279 53.41C68.1279 51.4509 69.5964 49.8526 71.4884 49.6095C71.4576 49.4126 71.4279 49.2157 71.4279 49.01C71.4279 46.8837 73.1516 45.16 75.2779 45.16C76.4131 45.16 77.4229 45.6605 78.1269 46.4415C78.5493 44.4527 80.3126 42.96 82.4279 42.96C84.8578 42.96 86.8279 44.9301 86.8279 47.36C86.8279 47.5701 86.7949 47.7714 86.7663 47.9738C87.2371 47.5954 87.8278 47.36 88.4779 47.36C89.8287 47.36 90.9474 48.3357 91.1784 49.6205C91.3753 49.5897 91.5722 49.56 91.7779 49.56C93.9042 49.56 95.6279 51.2837 95.6279 53.41C95.6279 55.5363 93.9042 57.26 91.7779 57.26C89.6516 57.26 83.5279 57.26 83.5279 57.26V57.81H75.8279V57.26Z" fill="#FDFCEF"/>
<path d="M73.9034 52.3103C74.0552 52.3103 74.1784 52.1871 74.1784 52.0353C74.1784 50.69 73.0839 49.5955 71.7386 49.5955C71.7012 49.6054 70.9279 49.5944 70.3702 49.7451C70.2239 49.7847 70.137 49.9354 70.1766 50.0817C70.2162 50.2291 70.3669 50.316 70.5132 50.2753C71.0016 50.1433 71.7232 50.1433 71.7375 50.1455C72.7803 50.1455 73.6284 50.9936 73.6284 52.0353C73.6284 52.1871 73.7516 52.3103 73.9034 52.3103ZM81.3284 56.7103C81.1825 56.7103 81.0426 56.7682 80.9395 56.8713C80.8363 56.9745 80.7784 57.1144 80.7784 57.2603C80.7784 57.4061 80.8363 57.546 80.9395 57.6492C81.0426 57.7523 81.1825 57.8103 81.3284 57.8103C81.4742 57.8103 81.6141 57.7523 81.7173 57.6492C81.8204 57.546 81.8784 57.4061 81.8784 57.2603C81.8784 57.1144 81.8204 56.9745 81.7173 56.8713C81.6141 56.7682 81.4742 56.7103 81.3284 56.7103Z" fill="#472B29"/>
<path d="M71.9781 57.8099H75.8281C76.1317 57.8099 76.3781 57.5635 76.3781 57.2599C76.3781 56.9563 76.1317 56.7099 75.8281 56.7099H71.9781C70.1587 56.7099 68.6781 55.2293 68.6781 53.4099C68.6781 51.7643 69.9156 50.3651 71.5579 50.155C71.7053 50.1352 71.8384 50.0582 71.9275 49.9394C72.0166 49.8206 72.054 49.671 72.0309 49.5247C72.0056 49.3553 71.9781 49.1859 71.9781 49.0099C71.9781 47.1905 73.4587 45.7099 75.2781 45.7099C76.2131 45.7099 77.0799 46.1004 77.719 46.8099C77.8565 46.9628 78.0721 47.0277 78.269 46.9727C78.4692 46.9188 78.6221 46.7582 78.665 46.5558C79.0401 44.7914 80.623 43.5099 82.4281 43.5099C84.5511 43.5099 86.2781 45.2369 86.2781 47.3599C86.2781 47.5172 86.255 47.6679 86.233 47.8197C86.2011 48.043 86.3023 48.3015 86.4992 48.4137C86.6961 48.5259 86.9348 48.5435 87.1108 48.4027C87.5123 48.0804 87.9842 47.9099 88.4781 47.9099C89.5407 47.9099 90.4493 48.67 90.6374 49.7183C90.6902 50.012 90.963 50.2089 91.2633 50.1638C91.4327 50.1374 91.6021 50.1099 91.7781 50.1099C93.5975 50.1099 95.0781 51.5905 95.0781 53.4099C95.0781 55.2293 93.5975 56.7099 91.7781 56.7099H83.5281C83.2245 56.7099 82.9781 56.9563 82.9781 57.2599C82.9781 57.5635 83.2245 57.8099 83.5281 57.8099H91.7781C94.2047 57.8099 96.1781 55.8365 96.1781 53.4099C96.1781 50.9833 94.2047 49.0099 91.7781 49.0099C91.7132 49.0099 91.6505 49.0121 91.5867 49.0165C91.1313 47.7119 89.896 46.8099 88.4781 46.8099C88.0942 46.8099 87.7202 46.877 87.366 47.0079C87.1845 44.4416 85.0395 42.4099 82.4281 42.4099C80.414 42.4099 78.6155 43.6496 77.8598 45.4613C77.1118 44.9135 76.2076 44.6099 75.2781 44.6099C72.8515 44.6099 70.8781 46.5833 70.8781 49.0099C70.8781 49.0627 70.8792 49.1144 70.8825 49.1661C68.9652 49.6589 67.5781 51.3958 67.5781 53.4099C67.5781 55.8365 69.5515 57.8099 71.9781 57.8099Z" fill="#472B29"/>
<path d="M78.0285 56.7097C78.2034 56.7097 78.9536 56.7097 79.1285 56.7097C79.4321 56.7097 79.6785 56.9561 79.6785 57.2597C79.6785 57.5633 79.4321 57.8097 79.1285 57.8097C78.9536 57.8097 78.2034 57.8097 78.0285 57.8097C77.7249 57.8097 77.4785 57.5633 77.4785 57.2597C77.4785 56.9561 77.7249 56.7097 78.0285 56.7097Z" fill="#472B29"/>
</svg>
