<svg width="110" height="111" viewBox="0 0 110 111" fill="none" xmlns="http://www.w3.org/2000/svg">
<path d="M97.5965 61.8293C97.9265 61.1517 98.2191 60.4389 98.4721 59.692C101.368 51.1451 96.9882 40.9062 87.7658 38.4345C86.7692 25.9132 77.9692 17.3222 68.0307 15.857C56.6556 14.1795 46.2353 21.4054 42.7681 32.8905C38.5892 31.4099 34.517 31.5903 30.6791 33.8332C28.9378 34.6384 27.345 35.8264 25.9161 37.3895C23.8184 39.6841 22.4544 42.5804 21.8989 45.634C21.0761 45.7638 20.2676 45.8936 19.5053 46.1664C15.0613 47.7603 12.2574 51.0405 11.4885 55.9817C11.01 59.0584 11.9758 62.1274 12.5148 63.3671C14.6433 68.2676 19.579 71.0451 24.5939 70.3103C24.8436 70.274 25.2066 70.3862 25.4211 70.5666C25.6862 78.3986 29.4889 85.3253 35.1935 89.282C44.3466 95.6312 56.1232 93.6754 63.5526 84.9689C66.736 88.2249 70.5244 89.8067 74.975 89.2325C79.4003 88.6616 82.8367 86.2196 85.3436 82.2486C86.5019 82.5599 87.5997 83.0087 88.7349 83.133C93.1811 83.6192 96.7913 81.8515 99.4401 77.853C100.454 76.3229 101.414 74.3396 101.412 70.8636C101.414 67.282 99.9912 64.0172 97.5965 61.8293Z" fill="#C7EDE6"/>
<path d="M79.1869 55.4152C79.1869 55.4152 92.047 55.4152 92.1251 55.4152C95.0951 55.4152 97.5019 53.0073 97.5019 50.0373C97.5019 47.4468 95.6693 45.2842 93.2295 44.7749C93.2581 44.5483 93.2768 44.3184 93.2768 44.0841C93.2768 41.0085 90.7831 38.5148 87.7075 38.5148C85.8914 38.5148 84.2832 39.3882 83.2668 40.7335C83.0072 37.3092 79.9481 34.6681 76.3698 35.1059C73.7529 35.426 71.5892 37.4489 71.1074 40.0405C70.9534 40.8721 70.9688 41.6784 71.1228 42.4352C70.421 41.6795 69.4222 41.2043 68.3101 41.2043C66.2751 41.2043 64.613 42.7894 64.4821 44.7914C63.5581 44.5868 62.5527 44.6 61.4934 44.9982C59.4694 45.7583 58.0284 47.6635 57.9437 49.8239C57.8238 52.8918 60.2757 55.4174 63.3172 55.4174C63.5482 55.4174 64.36 55.4174 64.547 55.4174H75.7131" fill="#FDFCEF"/>
<path d="M92.1254 55.9648H79.1872C78.8836 55.9648 78.6372 55.7184 78.6372 55.4148C78.6372 55.1112 78.8836 54.8648 79.1872 54.8648H92.1254C94.7863 54.8648 96.9522 52.6989 96.9522 50.0369C96.9522 47.7632 95.3396 45.7766 93.1176 45.3124C92.8371 45.2541 92.649 44.9901 92.6842 44.7052C92.7095 44.5006 92.7271 44.2938 92.7271 44.0837C92.7271 41.315 90.4754 39.0644 87.7078 39.0644C86.1249 39.0644 84.6663 39.7937 83.706 41.0642C83.5685 41.2468 83.332 41.3249 83.112 41.26C82.892 41.1951 82.7358 41.0026 82.7182 40.7749C82.6027 39.2602 81.8613 37.8368 80.6821 36.871C79.4908 35.8942 77.986 35.463 76.4361 35.6511C74.0535 35.9437 72.0845 37.7884 71.6478 40.1402C71.5114 40.875 71.5158 41.6109 71.661 42.3248C71.7105 42.5668 71.5928 42.811 71.3739 42.9232C71.1561 43.0376 70.8866 42.9892 70.7194 42.8088C70.0869 42.129 69.2311 41.7539 68.3104 41.7539C66.5845 41.7539 65.1446 43.1036 65.0313 44.8262C65.0203 44.9868 64.9411 45.1342 64.8124 45.2299C64.6837 45.3267 64.5176 45.3608 64.3636 45.3278C63.4396 45.1254 62.5629 45.1837 61.6873 45.5115C59.8514 46.2012 58.5677 47.9414 58.494 49.8433C58.4423 51.171 58.9197 52.4294 59.8382 53.3842C60.7567 54.339 61.992 54.8659 63.3175 54.8659H75.7134C76.017 54.8659 76.2634 55.1123 76.2634 55.4159C76.2634 55.7195 76.017 55.9659 75.7134 55.9659H63.3197C61.6928 55.9659 60.1759 55.3202 59.0473 54.1465C57.9198 52.975 57.3335 51.4306 57.3973 49.8015C57.4886 47.4629 59.0583 45.3256 61.3034 44.483C62.1834 44.153 63.0931 44.0441 64.0182 44.1541C64.4318 42.1499 66.2149 40.6539 68.3137 40.6539C69.0661 40.6539 69.8031 40.8519 70.4521 41.2149C70.4521 40.7914 70.4906 40.3657 70.5698 39.94C71.0934 37.1218 73.4518 34.9097 76.3063 34.5599C78.1521 34.3344 79.9583 34.8525 81.3828 36.0207C82.4872 36.9249 83.2704 38.1657 83.6257 39.533C84.7389 38.5254 86.1766 37.9644 87.71 37.9644C91.0837 37.9644 93.8293 40.71 93.8293 44.0837C93.8293 44.175 93.8271 44.2663 93.8216 44.3565C96.301 45.0968 98.0544 47.4101 98.0544 50.0369C98.0522 53.3061 95.3935 55.9648 92.1254 55.9648Z" fill="#472B29"/>
<path d="M89.2539 47.7053C89.2341 47.7053 89.2132 47.7031 89.1923 47.6987C89.0449 47.6646 88.9514 47.5172 88.9855 47.3687C89.0394 47.1311 89.1208 46.8979 89.2264 46.679C90.0888 44.8959 92.4175 44.2161 94.4195 45.1555C94.557 45.2215 94.6164 45.3843 94.5515 45.5218C94.4866 45.6593 94.3227 45.7165 94.1852 45.6538C92.4538 44.8365 90.4518 45.4052 89.7214 46.9166C89.6334 47.0992 89.5663 47.2928 89.5212 47.4897C89.4926 47.6184 89.3793 47.7053 89.2539 47.7053Z" fill="#472B29"/>
<path d="M20.2275 53.0691H9.19453C8.89093 53.0691 8.64453 52.8227 8.64453 52.5191C8.64453 52.2155 8.89093 51.9691 9.19453 51.9691H20.2275C20.5311 51.9691 20.7775 52.2155 20.7775 52.5191C20.7775 52.8227 20.5311 53.0691 20.2275 53.0691ZM23.3966 53.0691H21.806C21.5024 53.0691 21.256 52.8227 21.256 52.5191C21.256 52.2155 21.5024 51.9691 21.806 51.9691H23.3966C23.7002 51.9691 23.9466 52.2155 23.9466 52.5191C23.9466 52.8227 23.7013 53.0691 23.3966 53.0691ZM27.8571 53.0691H25.0565C24.7529 53.0691 24.5065 52.8227 24.5065 52.5191C24.5065 52.2155 24.7529 51.9691 25.0565 51.9691H27.8571C28.1607 51.9691 28.4071 52.2155 28.4071 52.5191C28.4071 52.8227 28.1607 53.0691 27.8571 53.0691ZM27.8571 55.1206H17.2784C16.9748 55.1206 16.7284 54.8742 16.7284 54.5706C16.7284 54.267 16.9748 54.0206 17.2784 54.0206H27.8571C28.1607 54.0206 28.4071 54.267 28.4071 54.5706C28.4071 54.8742 28.1607 55.1206 27.8571 55.1206ZM15.3743 55.1206H14.7363C14.4327 55.1206 14.1863 54.8742 14.1863 54.5706C14.1863 54.267 14.4327 54.0206 14.7363 54.0206H15.3743C15.6779 54.0206 15.9243 54.267 15.9243 54.5706C15.9243 54.8742 15.6779 55.1206 15.3743 55.1206ZM12.7596 55.1206H11.158C10.8544 55.1206 10.608 54.8742 10.608 54.5706C10.608 54.267 10.8544 54.0206 11.158 54.0206H12.7596C13.0632 54.0206 13.3096 54.267 13.3096 54.5706C13.3096 54.8742 13.0632 55.1206 12.7596 55.1206ZM22.8092 51.0176H17.2784C16.9748 51.0176 16.7284 50.7712 16.7284 50.4676C16.7284 50.164 16.9748 49.9176 17.2784 49.9176H22.8092C23.1128 49.9176 23.3592 50.164 23.3592 50.4676C23.3592 50.7712 23.1128 51.0176 22.8092 51.0176ZM22.8092 48.9661H21.4265C21.1229 48.9661 20.8765 48.7197 20.8765 48.4161C20.8765 48.1125 21.1229 47.8661 21.4265 47.8661H22.8092C23.1128 47.8661 23.3592 48.1125 23.3592 48.4161C23.3592 48.7197 23.1128 48.9661 22.8092 48.9661ZM19.2133 57.171H17.2784C16.9748 57.171 16.7284 56.9246 16.7284 56.621C16.7284 56.3174 16.9748 56.071 17.2784 56.071H19.2133C19.5169 56.071 19.7633 56.3174 19.7633 56.621C19.7633 56.9246 19.5169 57.171 19.2133 57.171ZM78.7233 24.1644H67.6892C67.3856 24.1644 67.1392 23.918 67.1392 23.6144C67.1392 23.3108 67.3856 23.0644 67.6892 23.0644H78.7233C79.0269 23.0644 79.2733 23.3108 79.2733 23.6144C79.2733 23.918 79.0269 24.1644 78.7233 24.1644ZM81.8924 24.1644H80.3018C79.9982 24.1644 79.7518 23.918 79.7518 23.6144C79.7518 23.3108 79.9982 23.0644 80.3018 23.0644H81.8924C82.196 23.0644 82.4424 23.3108 82.4424 23.6144C82.4424 23.918 82.196 24.1644 81.8924 24.1644ZM86.3529 24.1644H83.5523C83.2487 24.1644 83.0023 23.918 83.0023 23.6144C83.0023 23.3108 83.2487 23.0644 83.5523 23.0644H86.3529C86.6565 23.0644 86.9029 23.3108 86.9029 23.6144C86.9029 23.918 86.6565 24.1644 86.3529 24.1644ZM84.1243 20.0614H73.5467C73.2431 20.0614 72.9967 19.815 72.9967 19.5114C72.9967 19.2078 73.2431 18.9614 73.5467 18.9614H84.1243C84.4279 18.9614 84.6743 19.2078 84.6743 19.5114C84.6743 19.815 84.4279 20.0614 84.1243 20.0614ZM71.6415 20.0614H71.0035C70.6999 20.0614 70.4535 19.815 70.4535 19.5114C70.4535 19.2078 70.6999 18.9614 71.0035 18.9614H71.6415C71.9451 18.9614 72.1915 19.2078 72.1915 19.5114C72.1915 19.815 71.9451 20.0614 71.6415 20.0614ZM69.0268 20.0614H67.4241C67.1205 20.0614 66.8741 19.815 66.8741 19.5114C66.8741 19.2078 67.1205 18.9614 67.4241 18.9614H69.0268C69.3304 18.9614 69.5768 19.2078 69.5768 19.5114C69.5768 19.815 69.3315 20.0614 69.0268 20.0614ZM81.305 22.1129H75.7753C75.4717 22.1129 75.2253 21.8665 75.2253 21.5629C75.2253 21.2593 75.4717 21.0129 75.7753 21.0129H81.305C81.6086 21.0129 81.855 21.2593 81.855 21.5629C81.855 21.8665 81.6086 22.1129 81.305 22.1129Z" fill="white"/>
<path d="M81.3055 20.0614H79.9228C79.6192 20.0614 79.3728 19.815 79.3728 19.5114C79.3728 19.2078 79.6192 18.9614 79.9228 18.9614H81.3055C81.6091 18.9614 81.8555 19.2078 81.8555 19.5114C81.8555 19.815 81.6091 20.0614 81.3055 20.0614ZM74.1742 22.1129H72.2404C71.9368 22.1129 71.6904 21.8665 71.6904 21.5629C71.6904 21.2593 71.9368 21.0129 72.2404 21.0129H74.1742C74.4778 21.0129 74.7242 21.2593 74.7242 21.5629C74.7242 21.8665 74.4778 22.1129 74.1742 22.1129Z" fill="white"/>
<path d="M56.5898 79.7134V84.8977L58.6633 83.1696L60.7368 84.8977V79.7134H56.5898Z" fill="#F1BC19"/>
<path d="M60.738 85.4475C60.6115 85.4475 60.4861 85.4046 60.386 85.3199L58.6645 83.8855L56.943 85.3199C56.7791 85.4585 56.5503 85.4849 56.3578 85.3958C56.1642 85.3045 56.041 85.1109 56.041 84.8975V79.7132C56.041 79.4096 56.2874 79.1632 56.591 79.1632H60.7391C61.0427 79.1632 61.2891 79.4096 61.2891 79.7132V84.8975C61.2891 85.1109 61.1659 85.3045 60.9723 85.3958C60.8964 85.431 60.8161 85.4475 60.738 85.4475ZM58.6634 82.6194C58.7888 82.6194 58.9142 82.6623 59.0154 82.747L60.1869 83.7238V80.2632H57.1388V83.7238L58.3103 82.747C58.4137 82.6623 58.5391 82.6194 58.6634 82.6194ZM40.3715 76.6695C40.1438 76.6695 39.959 76.4847 39.959 76.257V74.1835C39.959 73.9558 40.1438 73.771 40.3715 73.771C40.5992 73.771 40.784 73.9558 40.784 74.1835V76.257C40.784 76.4847 40.5992 76.6695 40.3715 76.6695ZM40.3715 78.743C40.1438 78.743 39.959 78.5582 39.959 78.3305V77.6386C39.959 77.4109 40.1438 77.2261 40.3715 77.2261C40.5992 77.2261 40.784 77.4109 40.784 77.6386V78.3305C40.784 78.5582 40.5992 78.743 40.3715 78.743Z" fill="#472B29"/>
<path d="M38.6097 37.4605C37.5702 37.4605 36.6495 36.8907 36.0137 36.0063V76.5117C36.0137 78.5335 37.6527 80.1724 39.6745 80.1724H66.4287C69.8508 80.1724 72.6503 77.3729 72.6503 73.9508V37.4605H38.6097Z" fill="#88AE45"/>
<path d="M66.4293 80.9419H39.674C37.2309 80.9419 35.2432 78.9542 35.2432 76.5122V36.0069C35.2432 35.6725 35.4588 35.3766 35.7767 35.2743C36.0946 35.1687 36.4422 35.2864 36.638 35.5581C37.1638 36.2885 37.8634 36.6911 38.6092 36.6911H72.6498C73.0755 36.6911 73.4198 37.0354 73.4198 37.4611V73.9514C73.4209 77.8058 70.2848 80.9419 66.4293 80.9419ZM36.7843 37.735V76.5122C36.7843 78.105 38.0812 79.4019 39.674 79.4019H66.4293C69.4345 79.4019 71.8809 76.9566 71.8809 73.9514V38.2311H38.6103C37.9712 38.2311 37.3475 38.0584 36.7843 37.735Z" fill="#472B29"/>
<path d="M40.3711 79.3681H39.2436C37.8576 79.3681 36.7334 78.2439 36.7334 76.8579V32.3618H40.3711V79.3681Z" fill="#6F913D"/>
<path d="M40.3715 73.2133C40.1438 73.2133 39.959 73.0285 39.959 72.8008V32.7069C39.959 32.4792 40.1438 32.2944 40.3715 32.2944C40.5992 32.2944 40.784 32.4792 40.784 32.7069V72.8008C40.784 73.0285 40.5992 73.2133 40.3715 73.2133Z" fill="#472B29"/>
<path d="M39.0819 30.9263C37.2372 30.9263 35.7412 32.3816 35.7412 34.2043C35.7412 36.0149 37.2339 37.4823 39.0819 37.4823H72.6506C72.6506 37.4823 71.5319 35.7575 71.5319 34.1471C71.5319 32.5367 72.6506 30.9274 72.6506 30.9274L39.0819 30.9263Z" fill="#FDFCEF"/>
<path d="M72.6505 38.141H39.0818C36.8763 38.141 35.0811 36.3755 35.0811 34.203C35.0811 32.0316 36.8752 30.2661 39.0818 30.2661H72.6505C72.8958 30.2661 73.1202 30.4025 73.2346 30.6192C73.349 30.8359 73.3325 31.0999 73.1928 31.3012C73.1829 31.3155 72.1918 32.7675 72.1918 34.1447C72.1918 35.3063 72.9233 36.6879 73.2038 37.1224C73.3358 37.3259 73.3457 37.5833 73.2302 37.7956C73.1147 38.0079 72.8925 38.141 72.6505 38.141ZM39.0818 31.585C37.6034 31.585 36.4011 32.7587 36.4011 34.203C36.4011 35.6473 37.6034 36.8221 39.0818 36.8221H71.5494C71.2227 36.1115 70.8718 35.1215 70.8718 34.1447C70.8718 33.1943 71.204 32.2626 71.5252 31.585H39.0818ZM40.371 78.0512C40.1433 78.0512 39.9585 77.8664 39.9585 77.6387V74.1825C39.9585 73.9548 40.1433 73.77 40.371 73.77C40.5987 73.77 40.7835 73.9548 40.7835 74.1825V77.6387C40.7835 77.8675 40.5987 78.0512 40.371 78.0512Z" fill="#472B29"/>
<path d="M71.5968 32.8717H41.0498C40.9585 32.8717 40.8848 32.798 40.8848 32.7067C40.8848 32.6154 40.9585 32.5417 41.0498 32.5417H71.5968C71.6881 32.5417 71.7618 32.6154 71.7618 32.7067C71.7618 32.798 71.6881 32.8717 71.5968 32.8717ZM71.643 34.3578H38.5517C38.4604 34.3578 38.3867 34.2841 38.3867 34.1928C38.3867 34.1015 38.4604 34.0278 38.5517 34.0278H71.643C71.7343 34.0278 71.808 34.1015 71.808 34.1928C71.808 34.2841 71.7343 34.3578 71.643 34.3578ZM71.5968 35.9077H41.0498C40.9585 35.9077 40.8848 35.834 40.8848 35.7427C40.8848 35.6514 40.9585 35.5777 41.0498 35.5777H71.5968C71.6881 35.5777 71.7618 35.6514 71.7618 35.7427C71.7618 35.834 71.6881 35.9077 71.5968 35.9077Z" fill="#472B29"/>
<path d="M54.3907 59.6952C54.3907 59.6061 54.3907 59.5544 54.3907 59.5027C54.3907 56.382 54.3907 53.2602 54.3907 50.1395C54.3907 49.3376 54.4754 48.5478 54.7559 47.7899C55.3466 46.1949 56.6358 45.294 58.3364 45.2863C59.7719 45.2797 61.0171 45.7945 62.1094 46.6932C63.5306 47.8636 64.3589 49.3937 64.7175 51.1801C65.0618 52.8972 64.9771 54.6 64.4084 56.2621C63.7561 58.1662 62.5307 59.605 60.7861 60.6005C59.6487 61.2506 58.4189 61.6191 57.1198 61.761C57.0989 61.7632 57.078 61.7676 57.0472 61.7731C57.0472 63.8235 57.0472 65.8695 57.0472 67.9243C56.1573 67.9243 55.2784 67.9243 54.3885 67.9243C54.3885 65.8717 54.3885 63.8268 54.3885 61.7808C54.0651 61.7379 53.7527 61.706 53.4425 61.6543C51.5791 61.3397 49.9104 60.6192 48.564 59.2563C47.5454 58.2245 46.914 56.9782 46.6159 55.5658C46.2595 53.8751 46.298 52.1954 46.8524 50.5465C47.4365 48.8118 48.4837 47.4016 49.9126 46.2686C50.4681 45.8286 51.0676 45.4612 51.7133 45.1697C51.7782 45.14 51.8299 45.1092 51.8893 45.1961C52.227 45.6922 52.5713 46.1839 52.9134 46.6767C52.9233 46.691 52.9288 46.7075 52.9255 46.7009C52.5361 47.0122 52.1368 47.2993 51.7749 47.6282C50.4131 48.8613 49.5738 50.3848 49.323 52.2108C49.1316 53.6023 49.2482 54.9674 49.8103 56.2698C50.4857 57.8373 51.6484 58.879 53.2687 59.4037C53.6306 59.5192 54.0035 59.5951 54.3907 59.6952ZM57.045 59.7073C57.2177 59.6765 57.3684 59.6523 57.5191 59.6226C57.6093 59.605 57.6973 59.5797 57.7864 59.5566C59.5244 59.1034 60.7861 58.0639 61.5055 56.4227C62.2843 54.644 62.3558 52.8004 61.8388 50.9359C61.5748 49.9866 61.1304 49.1264 60.4484 48.4048C59.9853 47.9142 59.4485 47.5435 58.7687 47.4148C58.0713 47.2828 57.5565 47.5545 57.2793 48.2101C57.2408 48.3025 57.2067 48.3982 57.1792 48.495C57.0703 48.8822 57.0439 49.2782 57.0439 49.6786C57.045 52.9698 57.0439 56.261 57.0439 59.5522C57.045 59.5984 57.045 59.6457 57.045 59.7073Z" fill="#6F913D"/>
<path d="M46.22 84.1764C48.2913 84.1764 50.0887 84.1764 50.114 84.1764C52.435 84.1764 54.3171 82.335 54.3171 80.0635C54.3171 78.0813 52.8849 76.428 50.9786 76.0375C51.0006 75.8637 51.016 75.6888 51.016 75.5095C51.016 73.1566 49.0668 71.2492 46.6633 71.2492C45.2443 71.2492 43.987 71.9169 43.1928 72.9465C42.9893 70.3274 40.599 68.3067 37.8028 68.6422C35.7579 68.8875 34.0661 70.4341 33.6899 72.4163C33.5689 73.0521 33.5821 73.6692 33.702 74.2478C33.1542 73.6703 32.3732 73.3062 31.5042 73.3062C29.9136 73.3062 28.6145 74.5184 28.5122 76.0496C27.7895 75.8934 27.0041 75.9033 26.1769 76.2069C24.5951 76.7877 23.4687 78.2452 23.4027 79.8985C23.3092 82.2448 25.2254 84.1764 27.6025 84.1764C27.7829 84.1764 28.4176 84.1764 28.5639 84.1764H37.2913M39.0942 84.1764H39.4902H39.0942Z" fill="#FDFCEF"/>
<path d="M50.1138 84.7267H46.2198C45.9162 84.7267 45.6698 84.4803 45.6698 84.1767C45.6698 83.8731 45.9162 83.6267 46.2198 83.6267H50.1138C52.1279 83.6267 53.7669 82.0284 53.7669 80.0638C53.7669 78.3874 52.5481 76.9211 50.8673 76.5779C50.5857 76.5196 50.3954 76.2545 50.4317 75.9696C50.4515 75.8178 50.4647 75.666 50.4647 75.5098C50.4647 73.4638 48.7586 71.7995 46.662 71.7995C45.4619 71.7995 44.3553 72.3396 43.626 73.2823C43.4874 73.4627 43.2531 73.5354 43.0331 73.4738C42.8153 73.4078 42.6602 73.2163 42.6426 72.9897C42.5557 71.8677 42.0211 70.8513 41.1356 70.1253C40.2237 69.3773 39.0643 69.0463 37.8664 69.1871C36.0558 69.4038 34.5598 70.7732 34.2287 72.5178C34.1253 73.0612 34.1286 73.6057 34.2386 74.1359C34.2881 74.3768 34.1726 74.621 33.9548 74.7354C33.7392 74.8487 33.4697 74.8047 33.3014 74.6254C32.8306 74.1293 32.1915 73.8555 31.5029 73.8555C30.217 73.8555 29.1434 74.8356 29.0598 76.0863C29.0488 76.2469 28.9696 76.3931 28.842 76.4888C28.7144 76.5845 28.5527 76.6209 28.3943 76.5868C27.6947 76.4361 27.0314 76.479 26.3648 76.7243C24.9766 77.2325 24.0064 78.5173 23.9503 79.9198C23.9118 80.8823 24.2616 81.7986 24.9348 82.4993C25.6333 83.2253 26.5793 83.6256 27.6001 83.6256H37.2889C37.5925 83.6256 37.8389 83.872 37.8389 84.1756C37.8389 84.4792 37.5925 84.7256 37.2889 84.7256H27.6001C26.2966 84.7256 25.036 84.1922 24.1417 83.2616C23.2595 82.3431 22.8008 81.1407 22.8514 79.8768C22.9251 78.0332 24.1846 76.3513 25.9853 75.6902C26.6585 75.4438 27.3537 75.3503 28.0533 75.4218C28.4317 73.8862 29.8452 72.7544 31.5018 72.7544C32.0441 72.7544 32.5765 72.8786 33.0572 73.1096C33.0671 72.8445 33.0979 72.5784 33.1485 72.3111C33.5676 70.1012 35.4541 68.3664 37.7355 68.0936C39.2326 67.911 40.689 68.3335 41.8341 69.2718C42.6437 69.9362 43.2333 70.8261 43.5325 71.8073C44.4037 71.0934 45.4993 70.6973 46.662 70.6973C49.3658 70.6973 51.5647 72.8555 51.5647 75.5076C51.5647 75.545 51.5647 75.5824 51.5636 75.6209C53.504 76.2314 54.8669 78.0277 54.8669 80.0616C54.8669 82.6345 52.734 84.7267 50.1138 84.7267ZM39.49 84.7267H39.094C38.7904 84.7267 38.544 84.4803 38.544 84.1767C38.544 83.8731 38.7904 83.6267 39.094 83.6267H39.49C39.7936 83.6267 40.04 83.8731 40.04 84.1767C40.04 84.4803 39.7936 84.7267 39.49 84.7267Z" fill="#472B29"/>
<path d="M48.235 78.3436C48.2152 78.3436 48.1954 78.3414 48.1756 78.337C48.0271 78.304 47.9336 78.1566 47.9666 78.0081C48.0073 77.8266 48.07 77.6484 48.1525 77.4812C48.818 76.1348 50.655 75.6398 52.2467 76.3746C52.3842 76.4384 52.4447 76.6012 52.3809 76.7387C52.316 76.8773 52.1543 76.9367 52.0157 76.8729C50.6924 76.2613 49.1799 76.6441 48.6453 77.7243C48.5815 77.8519 48.5342 77.9883 48.5034 78.128C48.4759 78.2567 48.3615 78.3436 48.235 78.3436Z" fill="#472B29"/>
<path d="M42.5616 84.7272H41.3439C41.0403 84.7272 40.7939 84.4808 40.7939 84.1772C40.7939 83.8736 41.0403 83.6272 41.3439 83.6272H42.5616C42.8652 83.6272 43.1116 83.8736 43.1116 84.1772C43.1116 84.4808 42.8652 84.7272 42.5616 84.7272Z" fill="#472B29"/>
<path d="M77.4561 77.0418C78.5726 76.3532 79.0368 74.7571 78.7882 73.9343L78.4901 71.555C82.8945 69.3429 86.145 64.8813 86.145 59.6981C86.145 52.3248 79.8145 46.3254 72.2905 46.3254C64.7665 46.3254 58.667 52.3028 58.667 59.6761C58.667 64.8593 61.6865 69.3418 66.0909 71.5539L65.7928 73.9332C65.7928 75.317 66.7135 76.5017 67.9851 76.9252" fill="#F1BC19"/>
<path d="M77.4574 77.8122C77.1989 77.8122 76.947 77.6824 76.8018 77.4459C76.5785 77.084 76.6907 76.6099 77.0537 76.3866C77.882 75.8751 78.1977 74.6354 78.0536 74.1591C78.0404 74.1173 78.0316 74.0744 78.0272 74.0315L77.7291 71.6511C77.6884 71.3277 77.8556 71.0142 78.1471 70.8668C82.5394 68.6613 85.3774 64.2778 85.3774 59.6996C85.3774 52.7509 79.5078 47.0969 72.2929 47.0969C65.2056 47.0969 59.4405 52.741 59.4405 59.6787C59.4405 64.4131 62.1223 68.6998 66.4398 70.8679C66.7313 71.0153 66.8985 71.3288 66.8578 71.6522L66.5597 74.0326C66.5663 74.9566 67.2351 75.8652 68.2328 76.1985C68.6365 76.3327 68.8543 76.7694 68.719 77.1731C68.5837 77.5757 68.1492 77.7935 67.7444 77.6593C66.1186 77.117 65.0252 75.6199 65.0252 73.9369L65.2639 71.9899C60.7077 69.4874 57.8994 64.8179 57.8994 59.6787C57.8994 51.8918 64.3564 45.5569 72.2918 45.5569C80.3559 45.5569 86.9163 51.9017 86.9163 59.6996C86.9163 64.6826 83.9529 69.45 79.3219 71.9899L79.5463 73.784C79.8576 74.9676 79.2185 76.8618 77.8611 77.6989C77.7346 77.7748 77.5949 77.8122 77.4574 77.8122Z" fill="#472B29"/>
<path d="M70.6661 75.65C70.6573 75.65 70.6496 75.65 70.6408 75.6489C70.489 75.6346 70.3779 75.5015 70.3911 75.3508C70.6782 72.1718 70.4472 69.6264 69.6431 67.4231C68.7851 67.6497 67.8831 67.5287 67.2099 67.0513C66.6082 66.6234 66.243 66.0426 66.2078 65.4552C66.1792 64.9679 66.375 64.5169 66.7765 64.1539C66.9822 63.968 67.2 63.8547 67.4244 63.8173C67.9502 63.7381 68.5035 64.0615 68.9061 64.6951C69.3197 65.3463 69.6717 66.0184 69.9632 66.7257C70.1139 66.6575 70.2602 66.575 70.3988 66.4793C70.5913 66.3473 70.764 66.1977 70.918 66.0382C70.9147 66.0327 70.9103 66.0283 70.9059 66.0228C70.4296 65.4398 70.3416 64.6236 70.6419 63.5962C70.7728 63.1507 71.193 62.7228 71.6209 62.5996C71.9047 62.5182 72.172 62.5732 72.3733 62.7536C72.667 63.0132 72.7396 63.4367 72.5889 64.012C72.4349 64.6005 72.1621 65.3309 71.6825 65.9832C72.282 66.3616 73.1213 66.344 73.5041 66.3143C74.1058 66.2637 74.6844 65.9865 75.12 65.5421C74.3621 65.0449 74.0156 64.3717 74.1608 63.6424C74.2543 63.1749 74.6789 62.6777 75.1464 62.4852C75.461 62.3565 75.7657 62.3752 76.0088 62.538C76.3366 62.758 76.3784 63.1474 76.4081 63.4312C76.4785 64.0956 76.3157 64.7787 75.9538 65.3628C76.1683 65.4541 76.3905 65.5267 76.6127 65.5839C77.1165 64.6445 77.6412 63.9702 78.1351 63.7755C78.3694 63.6853 78.8204 63.6094 79.2142 64.1385C79.8082 64.9349 79.6509 65.4453 79.4155 65.7324C78.9799 66.2637 77.9393 66.3814 76.9108 66.2076C75.5897 68.9246 74.3049 73.6777 74.4655 75.1803C74.482 75.331 74.3731 75.4674 74.2213 75.4828C74.0816 75.5015 73.9353 75.3904 73.9188 75.2375C73.7571 73.7195 74.9451 68.9873 76.3575 66.0822C76.099 66.0107 75.8482 65.9205 75.6161 65.8138C75.0771 66.4155 74.3302 66.7961 73.547 66.8599C72.6472 66.9347 71.8706 66.7708 71.3261 66.4034C71.1435 66.5948 70.9378 66.773 70.7079 66.9314C70.533 67.0513 70.3504 67.1536 70.1612 67.2372C70.9917 69.5142 71.2326 72.1366 70.9378 75.3981C70.9268 75.5422 70.8069 75.65 70.6661 75.65ZM67.5916 64.3541C67.5652 64.3541 67.5388 64.3563 67.5124 64.3607C67.3947 64.3794 67.2715 64.4465 67.1461 64.5609C66.8689 64.8128 66.738 65.1021 66.7567 65.4222C66.782 65.8424 67.0625 66.2714 67.5278 66.6014C68.0437 66.9677 68.7576 67.0656 69.4407 66.9017C69.1635 66.2373 68.8313 65.6015 68.4419 64.9888C68.2417 64.6731 67.9194 64.3541 67.5916 64.3541ZM77.1781 65.6906C78.0119 65.8006 78.7522 65.6763 78.992 65.3848C79.1944 65.1373 78.9865 64.7501 78.7764 64.4674C78.5971 64.2287 78.4607 64.2397 78.3386 64.2881C77.9844 64.4267 77.584 64.9448 77.1781 65.6906ZM71.8728 63.1122C71.8453 63.1122 71.8123 63.1166 71.7738 63.1276C71.5241 63.1991 71.248 63.484 71.1699 63.7502C70.9367 64.5477 70.973 65.1692 71.2777 65.6026C71.6858 65.0306 71.9212 64.3904 72.0576 63.8712C72.1214 63.6248 72.1654 63.3025 72.0092 63.1628C71.9916 63.1485 71.952 63.1122 71.8728 63.1122ZM75.5512 62.9494C75.4929 62.9494 75.4291 62.9637 75.3576 62.9923C75.0595 63.1144 74.7603 63.462 74.702 63.7491C74.5744 64.386 75.0298 64.8337 75.4665 65.1087C75.7789 64.6203 75.923 64.045 75.8636 63.4895C75.8372 63.2365 75.8108 63.0649 75.7041 62.9934C75.659 62.9637 75.6084 62.9494 75.5512 62.9494Z" fill="#472B29"/>
<path d="M75.9947 80.4276H68.4949C67.6292 80.4276 66.9219 79.6994 66.9219 78.8106C66.9219 77.9207 67.6303 77.1936 68.4949 77.1936H76.3742C77.2399 77.1936 77.9472 77.9218 77.9472 78.8106C77.9472 79.2935 77.9472 79.2935 77.6183 79.7379" fill="#C29B67"/>
<path d="M75.9949 80.9779H68.4951C67.3247 80.9779 66.3721 80.0055 66.3721 78.8109C66.3721 77.6152 67.3247 76.6428 68.4951 76.6428H76.3744C77.5448 76.6428 78.4974 77.6152 78.4974 78.8109C78.4974 79.4335 78.4424 79.549 78.0607 80.0649C77.8803 80.3102 77.536 80.3608 77.2918 80.1804C77.0476 80 76.9959 79.6546 77.1774 79.4115C77.3985 79.1123 77.3985 79.1123 77.3985 78.8109C77.3985 78.2224 76.9398 77.7428 76.3755 77.7428H68.4962C67.9319 77.7428 67.4732 78.2224 67.4732 78.8109C67.4732 79.3994 67.9319 79.8779 68.4962 79.8779H75.996C76.2996 79.8779 76.546 80.1243 76.546 80.4279C76.546 80.7315 76.2985 80.9779 75.9949 80.9779Z" fill="#472B29"/>
<path d="M76.0271 83.662H69.3611C68.4712 83.662 67.7441 82.9338 67.7441 82.045C67.7441 81.1551 68.4723 80.428 69.3611 80.428H76.0271C76.917 80.428 77.6441 81.1562 77.6441 82.045C77.6441 82.9338 76.9159 83.662 76.0271 83.662Z" fill="#C29B67"/>
<path d="M76.0264 84.2123H69.3604C68.1658 84.2123 67.1934 83.2399 67.1934 82.0442C67.1934 80.8496 68.1658 79.8772 69.3604 79.8772H76.0264C77.221 79.8772 78.1934 80.8496 78.1934 82.0442C78.1945 83.2399 77.2221 84.2123 76.0264 84.2123ZM69.3604 80.9783C68.7719 80.9783 68.2934 81.4568 68.2934 82.0453C68.2934 82.6338 68.7719 83.1134 69.3604 83.1134H76.0264C76.6149 83.1134 77.0934 82.6338 77.0934 82.0453C77.0934 81.4568 76.6149 80.9783 76.0264 80.9783H69.3604Z" fill="#472B29"/>
<path d="M75.7994 83.9084C75.7994 85.4352 73.3651 85.8235 72.6391 85.8235C70.9308 85.8235 69.5459 84.9358 69.5459 83.8413" fill="#9F8066"/>
<path d="M72.6393 86.3735C70.5966 86.3735 68.9961 85.2614 68.9961 83.8413C68.9961 83.5377 69.2425 83.2913 69.5461 83.2913C69.8497 83.2913 70.0961 83.5377 70.0961 83.8413C70.0961 84.5178 71.1411 85.2735 72.6393 85.2735C73.1915 85.2735 75.2496 84.9314 75.2496 83.9095C75.2496 83.6059 75.496 83.3595 75.7996 83.3595C76.1032 83.3595 76.3496 83.6059 76.3496 83.9095C76.3485 85.7707 73.8493 86.3735 72.6393 86.3735Z" fill="#472B29"/>
<path d="M83.0752 60.0181C82.9234 60.0181 82.8002 59.8949 82.8002 59.7431C82.8002 58.84 82.6726 57.9435 82.4196 57.0811C82.3767 56.9348 82.4603 56.783 82.6055 56.739C82.7529 56.6939 82.9036 56.7797 82.9465 56.926C83.2138 57.839 83.3491 58.7861 83.3491 59.7431C83.3502 59.8949 83.227 60.0181 83.0752 60.0181ZM81.9994 55.5675C81.9004 55.5675 81.8036 55.5125 81.7552 55.4179C80.3461 52.6778 77.6676 50.7429 74.5887 50.2435C74.0596 50.1577 73.5151 50.1137 72.9684 50.1137C72.8166 50.1137 72.6934 49.9905 72.6934 49.8387C72.6934 49.6869 72.8166 49.5637 72.9684 49.5637C73.5437 49.5637 74.119 49.6099 74.6767 49.7001C77.9272 50.227 80.7553 52.2719 82.2436 55.1671C82.3129 55.3024 82.2601 55.4674 82.1248 55.5378C82.0852 55.5576 82.0423 55.5675 81.9994 55.5675Z" fill="#472B29"/>
</svg>
