<svg width="111" height="111" viewBox="0 0 111 111" fill="none" xmlns="http://www.w3.org/2000/svg">
<path d="M96.4579 61.4395C96.7879 60.7619 97.0805 60.0491 97.3335 59.3022C100.23 50.7552 95.8496 40.5164 86.6272 38.0447C85.6306 25.5234 76.8306 16.9324 66.8921 15.4672C55.517 13.7897 45.0967 21.0156 41.6295 32.5007C37.4506 31.0201 33.3784 31.2005 29.5405 33.4434C27.7992 34.2486 26.2064 35.4366 24.7775 36.9997C22.6798 39.2943 21.3158 42.1905 20.7603 45.2442C19.9375 45.374 19.129 45.5038 18.3667 45.7766C13.9227 47.3705 11.1188 50.6507 10.3499 55.5919C9.87137 58.6686 10.8372 61.7376 11.3762 62.9773C13.5047 67.8778 18.4404 70.6553 23.4553 69.9205C23.705 69.8842 24.068 69.9964 24.2825 70.1768C24.5476 78.0088 28.3503 84.9355 34.0549 88.8922C43.208 95.2414 54.9846 93.2856 62.414 84.5791C65.5974 87.8351 69.3858 89.4168 73.8364 88.8427C78.2617 88.2718 81.6981 85.8298 84.205 81.8587C85.3633 82.1701 86.4611 82.6189 87.5963 82.7432C92.0425 83.2294 95.623 81.4408 98.3015 77.4632C98.3928 77.3268 98.5248 77.2223 98.6381 77.1024C99.0209 76.2246 99.4037 75.3468 99.7865 74.469C99.957 73.1369 100.258 71.8037 100.274 70.4738C100.317 66.8922 98.8526 63.6274 96.4579 61.4395Z" fill="#C8EDE6"/>
<path d="M14.6885 58.6333H3.65547C3.35187 58.6333 3.10547 58.3869 3.10547 58.0833C3.10547 57.7797 3.35187 57.5333 3.65547 57.5333H14.6885C14.9921 57.5333 15.2385 57.7797 15.2385 58.0833C15.2385 58.3869 14.9932 58.6333 14.6885 58.6333ZM18.4076 58.0833C18.4076 57.7797 18.1612 57.5333 17.8576 57.5333H16.267C15.9634 57.5333 15.717 57.7797 15.717 58.0833C15.717 58.3869 15.9634 58.6333 16.267 58.6333H17.8576C18.1623 58.6333 18.4076 58.3869 18.4076 58.0833ZM22.8681 58.0833C22.8681 57.7797 22.6217 57.5333 22.3181 57.5333H19.5175C19.2139 57.5333 18.9675 57.7797 18.9675 58.0833C18.9675 58.3869 19.2139 58.6333 19.5175 58.6333H22.3181C22.6228 58.6333 22.8681 58.3869 22.8681 58.0833ZM22.8681 60.2833C22.8681 59.9797 22.6217 59.7333 22.3181 59.7333H11.7405C11.4369 59.7333 11.1905 59.9797 11.1905 60.2833C11.1905 60.5869 11.4369 60.8333 11.7405 60.8333H22.3181C22.6228 60.8333 22.8681 60.5869 22.8681 60.2833ZM10.3853 60.2833C10.3853 59.9797 10.1389 59.7333 9.83527 59.7333H9.19727C8.89367 59.7333 8.64727 59.9797 8.64727 60.2833C8.64727 60.5869 8.89367 60.8333 9.19727 60.8333H9.83527C10.1389 60.8333 10.3853 60.5869 10.3853 60.2833ZM7.77167 60.2833C7.77167 59.9797 7.52527 59.7333 7.22167 59.7333H5.61897C5.31537 59.7333 5.06897 59.9797 5.06897 60.2833C5.06897 60.5869 5.31537 60.8333 5.61897 60.8333H7.22167C7.52527 60.8333 7.77167 60.5869 7.77167 60.2833ZM17.8202 55.8833C17.8202 55.5797 17.5738 55.3333 17.2702 55.3333H11.7405C11.4369 55.3333 11.1905 55.5797 11.1905 55.8833C11.1905 56.1869 11.4369 56.4333 11.7405 56.4333H17.2702C17.5749 56.4333 17.8202 56.1869 17.8202 55.8833ZM17.8202 53.6833C17.8202 53.3797 17.5738 53.1333 17.2702 53.1333H15.8875C15.5839 53.1333 15.3375 53.3797 15.3375 53.6833C15.3375 53.9869 15.5839 54.2333 15.8875 54.2333H17.2702C17.5749 54.2333 17.8202 53.9869 17.8202 53.6833ZM14.2243 62.4833C14.2243 62.1797 13.9779 61.9333 13.6743 61.9333H11.7405C11.4369 61.9333 11.1905 62.1797 11.1905 62.4833C11.1905 62.7869 11.4369 63.0333 11.7405 63.0333H13.6743C13.979 63.0333 14.2243 62.7869 14.2243 62.4833ZM76.118 25.6333H65.085C64.7814 25.6333 64.535 25.3869 64.535 25.0833C64.535 24.7797 64.7814 24.5333 65.085 24.5333H76.1191C76.4227 24.5333 76.6691 24.7797 76.6691 25.0833C76.6691 25.3869 76.4227 25.6333 76.118 25.6333ZM79.8371 25.0833C79.8371 24.7797 79.5907 24.5333 79.2871 24.5333H77.6965C77.3929 24.5333 77.1465 24.7797 77.1465 25.0833C77.1465 25.3869 77.3929 25.6333 77.6965 25.6333H79.2871C79.5918 25.6333 79.8371 25.3869 79.8371 25.0833ZM84.2976 25.0833C84.2976 24.7797 84.0512 24.5333 83.7476 24.5333H80.947C80.6434 24.5333 80.397 24.7797 80.397 25.0833C80.397 25.3869 80.6434 25.6333 80.947 25.6333H83.7476C84.0512 25.6333 84.2976 25.3869 84.2976 25.0833ZM82.069 20.6833C82.069 20.3797 81.8226 20.1333 81.519 20.1333H70.9414C70.6378 20.1333 70.3914 20.3797 70.3914 20.6833C70.3914 20.9869 70.6378 21.2333 70.9414 21.2333H81.519C81.8226 21.2333 82.069 20.9869 82.069 20.6833ZM69.5862 20.6833C69.5862 20.3797 69.3398 20.1333 69.0362 20.1333H68.3982C68.0946 20.1333 67.8482 20.3797 67.8482 20.6833C67.8482 20.9869 68.0946 21.2333 68.3982 21.2333H69.0362C69.3409 21.2333 69.5862 20.9869 69.5862 20.6833ZM66.9715 20.6833C66.9715 20.3797 66.7251 20.1333 66.4215 20.1333H64.8199C64.5163 20.1333 64.2699 20.3797 64.2699 20.6833C64.2699 20.9869 64.5163 21.2333 64.8199 21.2333H66.4215C66.7262 21.2333 66.9715 20.9869 66.9715 20.6833ZM79.2497 22.8833C79.2497 22.5797 79.0033 22.3333 78.6997 22.3333H73.17C72.8664 22.3333 72.62 22.5797 72.62 22.8833C72.62 23.1869 72.8664 23.4333 73.17 23.4333H78.6997C79.0033 23.4333 79.2497 23.1869 79.2497 22.8833ZM79.2497 20.6833C79.2497 20.3797 79.0033 20.1333 78.6997 20.1333H77.317C77.0134 20.1333 76.767 20.3797 76.767 20.6833C76.767 20.9869 77.0134 21.2333 77.317 21.2333H78.6997C79.0033 21.2333 79.2497 20.9869 79.2497 20.6833ZM72.1184 22.8833C72.1184 22.5797 71.872 22.3333 71.5684 22.3333H69.6346C69.331 22.3333 69.0846 22.5797 69.0846 22.8833C69.0846 23.1869 69.331 23.4333 69.6346 23.4333H71.5684C71.8731 23.4333 72.1184 23.1869 72.1184 22.8833Z" fill="white"/>
<path d="M30.5707 43.6991C30.5707 43.6991 43.4308 43.6991 43.5089 43.6991C46.4789 43.6991 48.8857 41.2912 48.8857 38.3212C48.8857 35.7307 47.0531 33.5681 44.6133 33.0588C44.6419 32.8322 44.6606 32.6023 44.6606 32.368C44.6606 29.2924 42.1669 26.7987 39.0913 26.7987C37.2752 26.7987 35.667 27.6721 34.6506 29.0174C34.391 25.5931 31.3319 22.952 27.7536 23.3898C25.1367 23.7099 22.973 25.7328 22.4912 28.3244C22.3372 29.156 22.3526 29.9623 22.5066 30.7191C21.8048 29.9634 20.806 29.4882 19.6939 29.4882C17.6589 29.4882 15.9968 31.0733 15.8659 33.0753C14.9419 32.8707 13.9365 32.8839 12.8772 33.2821C10.8532 34.0422 9.41216 35.9474 9.32746 38.1078C9.20756 41.1757 11.6595 43.7013 14.701 43.7013C14.932 43.7013 15.7438 43.7013 15.9308 43.7013H27.0969" fill="#FDFCEF"/>
<path d="M43.5092 44.249H30.571C30.2674 44.249 30.021 44.0026 30.021 43.699C30.021 43.3954 30.2674 43.149 30.571 43.149H43.5092C46.1712 43.149 48.3371 40.9831 48.3371 38.3211C48.3371 36.0485 46.7245 34.0608 44.5025 33.5966C44.222 33.5383 44.0339 33.2743 44.0691 32.9894C44.0944 32.7848 44.112 32.578 44.112 32.3679C44.112 29.5992 41.8603 27.3486 39.0938 27.3486C37.512 27.3486 36.0523 28.0779 35.092 29.3484C34.9545 29.531 34.7202 29.6091 34.498 29.5442C34.2791 29.4793 34.1218 29.2868 34.1053 29.0591C33.9909 27.5444 33.2484 26.121 32.0703 25.1552C30.879 24.1784 29.3687 23.745 27.8243 23.9353C25.4417 24.2279 23.4727 26.0726 23.036 28.4244C22.8996 29.1581 22.904 29.8929 23.0503 30.609C23.0987 30.851 22.9821 31.0952 22.7621 31.2074C22.5421 31.3218 22.2748 31.2734 22.1076 31.093C21.4751 30.4132 20.6193 30.0381 19.6986 30.0381C17.9727 30.0381 16.5328 31.3889 16.4195 33.1115C16.4085 33.2721 16.3293 33.4184 16.2006 33.5141C16.0719 33.612 15.9058 33.6461 15.7518 33.612C14.8267 33.4085 13.9511 33.4668 13.0755 33.7957C11.2396 34.4854 9.95698 36.2256 9.88218 38.1275C9.83048 39.4552 10.3079 40.7125 11.2253 41.6673C12.1438 42.6232 13.3802 43.1501 14.7057 43.1501H27.1016C27.4052 43.1501 27.6516 43.3965 27.6516 43.7001C27.6516 44.0037 27.4052 44.2501 27.1016 44.2501H14.7035C13.0766 44.2501 11.5597 43.6033 10.4311 42.4307C9.30358 41.2581 8.71728 39.7148 8.78108 38.0857C8.87238 35.7471 10.4421 33.6098 12.6861 32.7672C13.5661 32.4361 14.4747 32.3294 15.4009 32.4383C15.8156 30.4341 17.5987 28.9381 19.6964 28.9381C20.4488 28.9381 21.1858 29.1361 21.8348 29.4991C21.8348 29.0745 21.8733 28.6499 21.9514 28.2242C22.4761 25.406 24.8345 23.1939 27.6879 22.8441C29.5348 22.6186 31.3399 23.1367 32.7655 24.3049C33.8688 25.2102 34.6531 26.451 35.0073 27.8172C36.1205 26.8096 37.5582 26.2486 39.0927 26.2486C42.4664 26.2486 45.2109 28.9942 45.2109 32.3679C45.2109 32.4592 45.2087 32.5505 45.2032 32.6407C47.6826 33.381 49.436 35.6943 49.436 38.3211C49.4371 41.5914 46.7784 44.249 43.5092 44.249Z" fill="#472B29"/>
<path d="M27.4547 31.8538C25.4659 31.7229 23.7532 33.0968 23.6311 34.9217C23.6157 35.1483 23.6256 35.3716 23.6586 35.5883C23.2747 35.1549 22.7071 34.8612 22.0548 34.8183C20.8613 34.7402 19.8306 35.5278 19.681 36.6003C19.4643 36.5409 19.2377 36.5013 19.0034 36.4859C17.2632 36.3715 15.765 37.5738 15.6572 39.171" fill="#FDFCEF"/>
<path d="M15.6584 39.4455C15.6518 39.4455 15.6452 39.4455 15.6397 39.4444C15.4879 39.4345 15.3735 39.3036 15.3834 39.1518C15.5011 37.4061 17.1302 36.0839 19.0222 36.2104C19.1729 36.2203 19.3225 36.239 19.4721 36.2687C19.7735 35.2039 20.8537 34.4592 22.0747 34.545C22.5422 34.5747 22.98 34.7199 23.3551 34.9652C23.3551 34.9443 23.3573 34.9245 23.3584 34.9036C23.4904 32.9291 25.3241 31.4276 27.4746 31.5805C27.6264 31.5904 27.7408 31.7213 27.7309 31.8731C27.721 32.0249 27.5945 32.1536 27.4383 32.1283C25.6222 32.0128 24.0195 33.269 23.9073 34.941C23.8941 35.1434 23.9029 35.348 23.9326 35.5493C23.9513 35.6692 23.8875 35.788 23.7775 35.8397C23.6675 35.8914 23.5366 35.8639 23.4552 35.7726C23.0999 35.3711 22.5972 35.1302 22.0395 35.0939C20.9934 35.0565 20.087 35.7055 19.9561 36.6383C19.9451 36.7164 19.9011 36.7868 19.8351 36.8308C19.7691 36.8737 19.6888 36.8869 19.6107 36.866C19.405 36.8099 19.196 36.7747 18.987 36.7593C17.403 36.6581 16.0313 37.7449 15.9345 39.1892C15.9224 39.3344 15.8014 39.4455 15.6584 39.4455Z" fill="#472B29"/>
<path d="M45.6867 33.6884C43.8178 32.8073 41.6563 33.431 40.8588 35.0821C40.7598 35.2867 40.6861 35.499 40.6377 35.7135" fill="#FDFCEF"/>
<path d="M40.6377 35.9892C40.6179 35.9892 40.597 35.987 40.5761 35.9826C40.4287 35.9485 40.3352 35.8011 40.3693 35.6526C40.4232 35.4139 40.5046 35.1818 40.6102 34.9629C41.4715 33.1798 43.8024 32.5 45.8033 33.4394C45.9408 33.5054 46.0002 33.6682 45.9353 33.8057C45.8704 33.9443 45.7054 33.9993 45.569 33.9377C43.8376 33.1193 41.8356 33.688 41.1052 35.2016C41.0172 35.3831 40.9501 35.5756 40.905 35.7747C40.8764 35.9034 40.7631 35.9892 40.6377 35.9892Z" fill="#472B29"/>
<path d="M46.6995 75.0738L30.3667 80.1844C30.2446 80.2218 30.1192 80.2416 29.996 80.2416C29.3195 80.2416 28.7695 79.6894 28.7695 79.0107V37.3559C28.7695 36.8158 29.116 36.3428 29.6319 36.1822L46.3321 30.955C46.4509 30.9187 46.5752 30.8989 46.6995 30.8989C46.8238 30.8989 46.9481 30.9187 47.0669 30.955L64.5734 36.433C64.8418 36.5166 65.1201 36.5595 65.4006 36.5595C65.6811 36.5595 65.9594 36.5166 66.2278 36.433L81.7323 31.5809C81.8544 31.5435 81.9798 31.5237 82.103 31.5237C82.7795 31.5237 83.3295 32.0759 83.3295 32.7546V74.4094C83.3295 74.9495 82.983 75.4225 82.4671 75.5831L65.4017 80.9247L46.6995 75.0738Z" fill="#81E9EF"/>
<path d="M46.7 31.6691C46.7462 31.6691 46.7924 31.6758 46.8375 31.6901L64.3429 37.1681C64.6861 37.2759 65.0414 37.3298 65.4011 37.3298C65.7608 37.3298 66.1161 37.2759 66.4582 37.1681L81.9627 32.316C82.01 32.3017 82.0573 32.2929 82.1035 32.2929C82.3235 32.2929 82.56 32.47 82.56 32.7549V74.4097C82.56 74.6121 82.4302 74.7881 82.2377 74.8485L65.4022 80.1187L47.1598 74.4097L46.7 74.2667L46.2402 74.4108L30.1373 79.451C30.09 79.4653 30.0427 79.4741 29.9965 79.4741C29.7765 79.4741 29.54 79.297 29.54 79.0121V37.3562C29.54 37.1538 29.6698 36.9777 29.8623 36.9173L46.5625 31.6901C46.6076 31.6758 46.6538 31.6691 46.7 31.6691ZM46.7 30.1292C46.4987 30.1292 46.2974 30.1589 46.1027 30.2205L29.4025 35.4477C28.5676 35.7084 28 36.4817 28 37.3562V79.011C28 80.1495 28.9317 81.013 29.9965 81.013C30.1945 81.013 30.3958 80.9833 30.5971 80.9206L46.7 75.8804L65.4 81.7335H65.4022L82.6975 76.3204C83.5324 76.0586 84.1 75.2853 84.1 74.4108V32.756C84.1 31.6175 83.1683 30.754 82.1035 30.754C81.9055 30.754 81.7042 30.7837 81.5029 30.8464L65.9984 35.6985C65.8037 35.759 65.6024 35.7898 65.4011 35.7898C65.1998 35.7898 64.9985 35.759 64.8038 35.6985L47.2973 30.2205C47.1026 30.1589 46.9013 30.1292 46.7 30.1292Z" fill="#472B29"/>
<path d="M46.6995 75.0738L30.3667 80.1844C30.2446 80.2218 30.1192 80.2416 29.996 80.2416C29.3195 80.2416 28.7695 79.6894 28.7695 79.0107V37.3559C28.7695 36.8158 29.116 36.3428 29.6319 36.1822L46.3321 30.955C46.4509 30.9187 46.5752 30.8989 46.6995 30.8989C46.8238 30.8989 46.9481 30.9187 47.0669 30.955L64.5734 36.433C64.8418 36.5166 65.1201 36.5595 65.4006 36.5595C65.6811 36.5595 65.9594 36.5166 66.2278 36.433L81.7323 31.5809C81.8544 31.5435 81.9798 31.5237 82.103 31.5237C82.7795 31.5237 83.3295 32.0759 83.3295 32.7546V74.4094C83.3295 74.9495 82.983 75.4225 82.4671 75.5831L65.4017 80.9247L46.6995 75.0738Z" fill="#56B5EF"/>
<path d="M46.7 31.6691C46.7462 31.6691 46.7924 31.6758 46.8375 31.6901L64.3429 37.1681C64.6861 37.2759 65.0414 37.3298 65.4011 37.3298C65.7608 37.3298 66.1161 37.2759 66.4582 37.1681L81.9627 32.316C82.01 32.3017 82.0573 32.2929 82.1035 32.2929C82.3235 32.2929 82.56 32.47 82.56 32.7549V74.4097C82.56 74.6121 82.4302 74.7881 82.2377 74.8485L65.4022 80.1187L47.1598 74.4097L46.7 74.2667L46.2402 74.4108L30.1373 79.451C30.09 79.4653 30.0427 79.4741 29.9965 79.4741C29.7765 79.4741 29.54 79.297 29.54 79.0121V37.3562C29.54 37.1538 29.6698 36.9777 29.8623 36.9173L46.5625 31.6901C46.6076 31.6758 46.6538 31.6691 46.7 31.6691ZM46.7 30.1292C46.4987 30.1292 46.2974 30.1589 46.1027 30.2205L29.4025 35.4477C28.5676 35.7084 28 36.4817 28 37.3562V79.011C28 80.1495 28.9317 81.013 29.9965 81.013C30.1945 81.013 30.3958 80.9833 30.5971 80.9206L46.7 75.8804L65.4 81.7335H65.4022L82.6975 76.3204C83.5324 76.0586 84.1 75.2853 84.1 74.4108V32.756C84.1 31.6175 83.1683 30.754 82.1035 30.754C81.9055 30.754 81.7042 30.7837 81.5029 30.8464L65.9984 35.6985C65.8037 35.759 65.6024 35.7898 65.4011 35.7898C65.1998 35.7898 64.9985 35.759 64.8038 35.6985L47.2973 30.2205C47.1026 30.1589 46.9013 30.1292 46.7 30.1292Z" fill="#472B29"/>
<path d="M46.1504 74.1392L64.8504 79.9923V37.4443L46.1504 31.5923V74.1392Z" fill="#81E9EF"/>
<path d="M62.7714 62.0358C62.58 61.6618 62.2445 61.4341 61.8815 61.4341H60.6297C60.3382 61.4341 60.0423 61.5925 59.8432 61.8543C59.5561 62.2338 59.4131 62.5495 59.588 65.0861C59.621 65.5778 59.8872 66.0013 60.27 66.1718C60.3866 66.2235 60.5098 66.2488 60.6297 66.2488C60.9025 66.2488 61.1709 66.119 61.3689 65.877L61.9046 65.228C62.0432 65.0619 62.1565 64.8694 62.25 64.6483L62.8176 63.27C62.9793 62.8762 62.9628 62.4087 62.7714 62.0358Z" fill="#00AC9C"/>
<path d="M60.6279 66.5242C60.4673 66.5242 60.3089 66.4901 60.1571 66.423C59.683 66.2129 59.3519 65.6959 59.3112 65.1041C59.1385 62.5851 59.2584 62.166 59.6214 61.6886C59.8733 61.3575 60.2495 61.1606 60.6268 61.1606H61.8797C62.3428 61.1606 62.7762 61.4488 63.0138 61.9119C63.2426 62.3585 63.2635 62.9063 63.0699 63.3771L62.5012 64.7554C62.3967 65.004 62.2658 65.2218 62.1129 65.4066L61.5772 66.0545C61.3341 66.3526 60.9865 66.5242 60.6279 66.5242ZM60.6279 61.7095C60.4233 61.7095 60.2066 61.8283 60.0603 62.0208C59.8425 62.3079 59.6841 62.5147 59.859 65.0667C59.8854 65.4572 60.09 65.7927 60.3793 65.9203C60.6499 66.0413 60.9502 65.9522 61.1537 65.7036L61.6905 65.0535C61.8104 64.9083 61.9094 64.7422 61.993 64.542L62.5606 63.1648C62.6926 62.8469 62.6783 62.4619 62.5243 62.1616C62.3791 61.8778 62.1382 61.7095 61.8797 61.7095H60.6279Z" fill="#472B29"/>
<path d="M76.4062 72.5211C76.6053 72.5211 76.8187 72.4771 77.0376 72.3891C77.1542 72.3407 77.2642 72.2703 77.361 72.1757L77.9748 71.5795C78.043 71.5124 78.1046 71.4365 78.1574 71.3496L78.527 70.7534C78.6634 70.5345 78.736 70.2661 78.736 69.9922V68.6513C78.736 68.1046 78.4489 67.6217 78.021 67.4479C77.5931 67.2763 77.1245 67.4545 76.8539 67.8901L76.5283 68.4148L75.4756 69.6908C75.3601 69.8305 75.2743 69.9999 75.2226 70.188C75.0158 70.9437 75.1082 71.6334 75.4734 72.0789C75.7143 72.3715 76.0388 72.5211 76.4062 72.5211Z" fill="#00AC9C"/>
<path d="M76.4082 72.7959C75.9506 72.7959 75.5546 72.6089 75.2631 72.2558C74.8396 71.7399 74.7296 70.96 74.9595 70.1185C75.0244 69.8886 75.1267 69.6873 75.2653 69.5179L76.3191 68.2419L76.6205 67.748C76.9648 67.1936 77.5731 66.9736 78.1242 67.1947C78.6555 67.4103 79.013 67.9966 79.013 68.6533V69.9942C79.013 70.3187 78.9239 70.6399 78.7611 70.8995L78.3937 71.4957C78.3299 71.5958 78.2562 71.6893 78.1704 71.7751L77.5533 72.3746C77.4334 72.4901 77.2959 72.5814 77.1441 72.6441C76.89 72.7442 76.6436 72.7959 76.4082 72.7959ZM77.6919 67.6589C77.462 67.6589 77.2398 67.7931 77.088 68.0373L76.7646 68.562L75.6888 69.8688C75.5986 69.9788 75.5304 70.1119 75.4886 70.2648C75.306 70.9314 75.3786 71.5309 75.6877 71.9071C75.9792 72.258 76.4181 72.3416 76.9373 72.1337C77.022 72.0996 77.1012 72.0468 77.1716 71.9786L77.7854 71.3824C77.8382 71.3296 77.8877 71.268 77.9273 71.2042L78.2947 70.6091C78.4036 70.4353 78.463 70.2164 78.463 69.9931V68.6522C78.463 68.2166 78.2452 67.836 77.9196 67.704C77.8448 67.6743 77.7667 67.6589 77.6919 67.6589Z" fill="#472B29"/>
<path d="M71.4766 56.7964C71.6592 57.2375 72.0266 57.496 72.4138 57.496C72.5425 57.496 72.6745 57.4663 72.8021 57.4047L73.5534 57.0395C73.8966 56.8745 74.1969 56.6006 74.4213 56.2486L75.2969 54.8824C75.7589 54.1619 75.8623 53.1917 75.5653 52.3524L75.1957 51.3074C75.045 50.8795 74.7128 50.5869 74.3311 50.544C73.9395 50.5055 73.5776 50.7167 73.3642 51.1028L72.5271 52.6274C72.4204 52.8419 72.2675 53.1235 72.1542 53.3094C71.7032 53.4183 71.052 53.6966 70.8133 54.3951C70.6373 54.9077 70.7374 55.4962 71.0377 55.8592C71.1103 55.9714 71.3193 56.4169 71.4766 56.7964Z" fill="#00AC9C"/>
<path d="M72.4137 57.7712C71.9 57.7712 71.4435 57.4379 71.2213 56.9022C71.0563 56.5018 70.8583 56.0893 70.8055 56.0079C70.4601 55.5943 70.349 54.8991 70.5536 54.3073C70.7571 53.7122 71.2598 53.2766 71.9759 53.0731C72.0771 52.9004 72.1948 52.6804 72.2817 52.5055L73.1243 50.971C73.3916 50.4826 73.8492 50.2241 74.3574 50.2692C74.8491 50.3253 75.2682 50.6872 75.4541 51.2152L75.8237 52.2602C76.1493 53.1765 76.0349 54.238 75.5267 55.03L74.6522 56.3962C74.4003 56.7911 74.0604 57.1002 73.671 57.2872L72.9208 57.6513C72.7591 57.7316 72.5886 57.7712 72.4137 57.7712ZM71.7306 56.691C71.9066 57.1211 72.3191 57.3279 72.681 57.1574L73.4323 56.7922C73.7304 56.6492 73.9922 56.4094 74.1891 56.1003L75.0647 54.7341C75.4838 54.0818 75.5762 53.204 75.3067 52.445L74.9371 51.3989C74.8216 51.0711 74.5774 50.8478 74.3002 50.817C74.0285 50.8115 73.7656 50.9479 73.6061 51.2361L72.769 52.7607C72.6634 52.973 72.5072 53.2623 72.3884 53.4548L72.329 53.5516L72.2179 53.578C71.8021 53.6792 71.2664 53.919 71.0728 54.4855C70.932 54.8969 71.0035 55.3886 71.2488 55.6834C71.3621 55.8561 71.5865 56.3434 71.7306 56.691Z" fill="#472B29"/>
<path d="M69.9595 58.6079C69.7978 59.082 69.8869 59.6276 70.1861 59.9906C71.2179 61.2424 71.5908 61.3436 71.9395 61.3436H73.9646C74.409 61.3436 74.805 61.0037 74.9513 60.4955C75.0976 59.9873 74.9645 59.4208 74.6191 59.0853L73.8876 58.3747C73.5213 58.0194 73.0626 57.8247 72.594 57.8247H70.9275C70.5029 57.8258 70.1212 58.1338 69.9595 58.6079Z" fill="#00AC9C"/>
<path d="M73.9639 61.6182H71.9387C71.4305 61.6182 70.9872 61.3938 69.9752 60.1662C69.6144 59.7295 69.5055 59.0838 69.6991 58.5195C69.9004 57.9321 70.3812 57.5504 70.9257 57.5493H72.5932C73.1333 57.5493 73.6613 57.7726 74.0782 58.1763L74.8097 58.8869C75.2266 59.2906 75.3883 59.966 75.2156 60.5699C75.0341 61.1969 74.5315 61.6182 73.9639 61.6182ZM70.9268 58.0993C70.621 58.1004 70.3437 58.3347 70.2183 58.6977C70.0885 59.0783 70.16 59.5282 70.3976 59.8164C71.4305 61.0693 71.7242 61.0693 71.9376 61.0693H73.9627C74.2828 61.0693 74.5732 60.8086 74.6855 60.4192C74.8042 60.0056 74.6997 59.5491 74.4258 59.284L73.6943 58.5734C73.3808 58.2687 72.9882 58.1004 72.5921 58.1004L70.9268 58.0993Z" fill="#472B29"/>
<path d="M53.7046 43.4734C53.8586 43.4734 54.0137 43.4349 54.1567 43.3601C54.4405 43.3337 55.194 43.3733 55.8716 43.4547C56.3578 43.5119 56.7747 43.1874 56.9463 42.6638L57.3511 41.4362C57.4677 41.0798 57.4468 40.6783 57.2906 40.3428C57.1344 40.0084 56.8638 39.7774 56.5514 39.7136L54.1215 39.223C53.5935 39.1152 53.0677 39.5244 52.9357 40.1668C52.6123 41.7343 52.3989 42.7694 53.1964 43.3161C53.3515 43.4228 53.5286 43.4734 53.7046 43.4734Z" fill="#00AC9C"/>
<path d="M53.705 43.7483C53.4652 43.7483 53.2364 43.6779 53.0406 43.5426C52.0935 42.8925 52.3333 41.7276 52.6666 40.1139C52.8272 39.3219 53.4916 38.8214 54.1769 38.9534L56.6068 39.444C57.0061 39.5254 57.3471 39.8103 57.5407 40.2261C57.7266 40.6254 57.753 41.0973 57.6133 41.5219L57.2085 42.7495C56.9896 43.415 56.4638 43.8044 55.8401 43.7285C55.1856 43.6482 54.5058 43.6086 54.2308 43.6306C54.0669 43.7076 53.8865 43.7483 53.705 43.7483ZM53.9525 39.4814C53.6104 39.4814 53.2958 39.7839 53.2067 40.2217C52.8679 41.8607 52.7337 42.6659 53.353 43.0894C53.5488 43.2236 53.8161 43.2302 54.0284 43.1169L54.1318 43.0861C54.4398 43.0553 55.2208 43.0993 55.9061 43.1829C56.2449 43.2313 56.5496 42.9926 56.6871 42.5779L57.0919 41.3503C57.1865 41.0621 57.1678 40.7288 57.0424 40.4582C56.9236 40.203 56.7245 40.0292 56.4979 39.983L54.068 39.4935C54.0295 39.4858 53.991 39.4814 53.9525 39.4814Z" fill="#472B29"/>
<path d="M72.1792 63.8706C72.0857 63.6858 71.9229 63.5736 71.7447 63.5681L68.8682 63.4933C68.7703 63.4812 68.701 63.5131 68.624 63.5593L68.2247 63.8024C67.6043 64.1797 66.7551 64.6978 66.0599 65.0608C65.7618 65.2104 65.6034 65.6086 65.6892 65.9892L66.2601 68.5885C66.3008 68.7733 66.4086 68.9251 66.5516 69.0032L67.3733 69.4476C67.4437 69.4773 67.5174 69.4927 67.5889 69.4927C67.7627 69.4927 67.931 69.4113 68.0509 69.2606L68.3347 68.9174C69.0134 68.0946 70.0716 67.9076 70.9153 68.4664L71.9031 69.1187C72.2023 69.3134 72.5807 69.1935 72.76 68.8459L73.5245 67.3884C73.6653 67.1332 73.6686 66.7988 73.5355 66.5414L72.1792 63.8706Z" fill="#00AC9C"/>
<path d="M67.5891 69.7687C67.4813 69.7687 67.3735 69.7467 67.269 69.7038L66.4209 69.2462C66.2064 69.1296 66.0502 68.9107 65.9919 68.6478L65.4199 66.0485C65.3055 65.5414 65.5233 65.0222 65.9369 64.8154C66.6255 64.4557 67.5011 63.9211 68.0808 63.5669L68.4801 63.3238C68.589 63.2589 68.7177 63.194 68.9003 63.2204L71.7515 63.2919C72.0331 63.3007 72.2828 63.4701 72.4225 63.7451L73.7788 66.4181C73.9537 66.7547 73.9482 67.1881 73.7634 67.5225L73.0022 68.9745C72.8757 69.2187 72.6612 69.3958 72.417 69.4596C72.1915 69.519 71.9539 69.4805 71.7526 69.3496L70.7637 68.694C70.0454 68.2177 69.1324 68.3805 68.5461 69.0911L68.2601 69.4354C68.0962 69.6466 67.8498 69.7687 67.5891 69.7687ZM68.8387 63.7682C68.8178 63.7682 68.8046 63.7737 68.765 63.7957L68.369 64.0377C67.7838 64.3941 66.8983 64.9342 66.1899 65.3049C66.0007 65.3995 65.9017 65.6723 65.96 65.9286L66.532 68.529C66.5551 68.6357 66.6134 68.7226 66.686 68.7622L67.5066 69.2066C67.5187 69.2099 67.5561 69.2176 67.5913 69.2176C67.6826 69.2176 67.7717 69.1714 67.8366 69.09L68.1259 68.7424C68.8948 67.8096 70.1048 67.5995 71.0706 68.2375L72.0573 68.8909C72.1266 68.936 72.2025 68.9514 72.2817 68.9294C72.3785 68.9041 72.4621 68.8293 72.5193 68.7215L73.2838 67.2629C73.3828 67.0836 73.3861 66.8482 73.2948 66.6711L71.9374 63.9959C71.8901 63.9024 71.8164 63.8452 71.7394 63.843L68.864 63.7693C68.853 63.7682 68.8453 63.7682 68.8387 63.7682Z" fill="#472B29"/>
<path d="M76.4939 45.4903C76.4158 45.3352 76.2882 45.2274 76.1419 45.1955L74.2939 44.7907H70.8421C70.555 44.7907 70.2745 44.6939 70.0292 44.5124L67.9788 42.9823C67.8699 42.9009 67.7401 42.8734 67.6103 42.8998L65.9042 43.2826C65.8635 43.2914 65.825 43.3057 65.7865 43.3255L64.087 44.2418C63.7372 44.4255 63.3456 44.6818 63.1322 44.8633C63.0453 44.9381 62.9804 45.0426 62.943 45.1625C62.8682 45.41 62.6713 45.5772 62.4513 45.5772C62.1631 45.5772 61.9288 45.2923 61.9288 44.9436V43.9041C61.9288 43.6291 61.7814 43.3838 61.5647 43.3002C61.3502 43.221 61.1137 43.3112 60.9806 43.5356C60.8992 43.6742 60.809 43.8172 60.7243 43.9393C60.6682 44.0185 60.6308 44.1142 60.6121 44.2165C60.5912 44.3342 60.5758 44.4739 60.5615 44.6191L60.5439 44.7775C60.4207 45.9028 60.2447 46.2647 59.819 46.2647H58.1239C57.9985 46.2647 57.8731 46.246 57.7488 46.2075L56.0053 45.6784C55.826 45.6278 55.6368 45.6894 55.507 45.8478L54.7249 46.8092C54.6589 46.8895 54.6127 46.9918 54.5885 47.1018L54.4554 47.7475C54.407 47.9752 54.2618 48.1523 54.0748 48.2095L52.4523 48.7012C52.4127 48.7133 52.372 48.7199 52.2928 48.7199C52.0409 48.7199 51.8242 48.9388 51.778 49.2402C51.7758 49.2589 51.7648 49.3546 51.7626 49.3711C51.7483 49.5592 51.8033 49.7462 51.9133 49.8804L53.1024 51.3225C53.2322 51.4798 53.285 51.713 53.2377 51.9286C53.1915 52.1453 53.0529 52.318 52.8747 52.3796L52.2906 52.5831C52.0387 52.6711 51.8792 52.9703 51.9166 53.2849L51.9815 53.8085C52.0354 54.3761 51.8748 54.9327 51.5404 55.3397L51.0608 55.9216C50.9354 56.0723 50.8815 56.2923 50.9189 56.5013L51.0993 57.5364C51.14 57.7707 51.2852 57.9566 51.4755 58.0182L52.1388 58.2338C52.1839 58.247 52.229 58.2547 52.2752 58.2547L53.3411 58.2536C53.5072 58.2536 53.6612 58.346 53.7613 58.5077L54.3674 59.4878C54.4356 59.5989 54.4719 59.732 54.4719 59.8706V61.8561C54.4719 61.9331 54.4829 62.0079 54.506 62.0805L54.957 63.5248C54.9889 63.6249 55.0395 63.7129 55.1066 63.7822L56.0229 64.7326C56.1175 64.8305 56.2385 64.8844 56.3628 64.8844H56.6202C56.7401 64.8844 56.8567 64.8349 56.9491 64.7436C57.1845 64.5115 57.4177 64.2794 57.5838 64.11C57.707 63.9835 57.7763 63.7954 57.7697 63.5996C57.7609 63.3345 57.7257 62.9561 57.6806 62.5733V61.3457C57.6806 61.2786 57.6894 61.2104 57.7081 61.1455L58.1426 59.5901L58.5485 58.6056C58.565 58.5671 58.5837 58.5308 58.6079 58.4956L59.3207 57.4154C59.4153 57.2691 59.533 57.1393 59.6672 57.0304L60.479 56.3737C60.567 56.3033 60.6352 56.1999 60.6737 56.0811L60.9575 55.222C61.0213 55.0328 61.1544 54.8887 61.3161 54.8403L62.1246 54.595C62.272 54.5532 62.4249 54.584 62.5459 54.683C62.6691 54.7831 62.7527 54.9426 62.7725 55.1186L62.9441 56.5772C62.954 56.6652 62.9793 56.7499 63.0189 56.8247L63.284 57.3373C63.3764 57.5177 63.5392 57.6299 63.7163 57.6343C63.7196 57.6343 63.724 57.6343 63.7273 57.6343C63.8989 57.6343 64.0606 57.532 64.1585 57.3593C65.4477 55.0889 65.814 55.2 66.0945 55.2836C66.3145 55.3496 66.4817 55.5608 66.5433 55.8523C66.595 56.1009 66.7655 56.2879 66.9767 56.3242C67.1835 56.3517 67.3925 56.2384 67.5003 56.0184C67.6499 55.7126 67.9535 55.398 68.3671 54.9734C68.4463 54.8931 68.5145 54.8227 68.6014 54.7149C68.674 54.6071 68.9083 54.1836 69.1954 53.6127C69.2317 53.5412 69.257 53.4609 69.2669 53.3773L69.29 53.198C69.3406 52.8064 69.4121 52.23 69.4253 51.9825C69.4253 51.7757 69.4242 51.2906 70.4186 51.1652C70.5792 51.1454 70.7233 51.0365 70.808 50.8704L71.4427 49.6395C71.4724 49.5834 71.4933 49.5218 71.5065 49.4569L71.6528 48.7463C71.8409 47.8377 72.5548 47.2349 73.3259 47.3339L73.6482 47.3768C73.9496 47.4164 74.2301 47.5605 74.4611 47.7915C74.6734 48.0049 74.9869 47.9796 75.175 47.7365C75.3686 47.4846 75.659 47.2822 76.0352 47.1293C76.1958 47.0633 76.3201 46.9104 76.3696 46.7146L76.5489 46.0073C76.5896 45.8324 76.572 45.6454 76.4939 45.4903Z" fill="#00AC9C"/>
<path d="M56.6193 65.1583H56.363C56.165 65.1583 55.9736 65.0747 55.8262 64.9229L54.9088 63.9714C54.8131 63.8724 54.7416 63.7503 54.6954 63.6084L54.2455 62.1608C54.2147 62.064 54.1993 61.9606 54.1993 61.8561V59.8695C54.1993 59.7826 54.1762 59.699 54.1344 59.6297L53.5294 58.6518C53.5019 58.6056 53.4392 58.5286 53.3435 58.5286L52.2765 58.5297C52.2061 58.5297 52.1324 58.5176 52.0598 58.4967L51.3943 58.2811C51.105 58.1854 50.8905 57.9192 50.8322 57.5837L50.6518 56.5486C50.6001 56.2593 50.6749 55.959 50.8542 55.7467L51.3327 55.1659C51.622 54.8161 51.7606 54.331 51.7122 53.8371L51.6495 53.319C51.5945 52.8746 51.8288 52.4555 52.2061 52.3235L52.7891 52.12C52.876 52.0914 52.9486 51.9935 52.9739 51.8714C53.0025 51.7383 52.9717 51.592 52.8947 51.4985L51.7067 50.0564C51.5505 49.8683 51.4735 49.612 51.4933 49.3513L51.5043 49.2556C51.5769 48.7617 51.9091 48.4449 52.2985 48.4449C52.3381 48.4449 52.3634 48.4427 52.3722 48.4394L53.9991 47.9466C54.0882 47.9202 54.163 47.8201 54.1894 47.6925L54.3225 47.0479C54.3566 46.8906 54.4237 46.7498 54.5172 46.6365L55.2971 45.6762C55.4951 45.4331 55.7943 45.3319 56.0847 45.4166L57.8326 45.9457C57.9294 45.9754 58.0284 45.9908 58.1285 45.9908H59.8236C59.9567 45.9908 60.1393 45.9908 60.2768 44.7489L60.2933 44.5894C60.3087 44.4409 60.3241 44.2935 60.3461 44.1692C60.3714 44.0262 60.4264 43.8931 60.5056 43.7809C60.5859 43.6654 60.6706 43.5279 60.7509 43.3937C60.9478 43.0593 61.324 42.913 61.6661 43.0417C61.9928 43.1693 62.2095 43.5158 62.2095 43.9041V44.9436C62.2095 45.135 62.325 45.3033 62.4581 45.3033C62.5538 45.3033 62.6473 45.2131 62.6858 45.0844C62.7386 44.9106 62.8332 44.7621 62.9597 44.6532C63.1929 44.4552 63.6065 44.1857 63.9651 43.9976L65.6613 43.0824C65.7284 43.0483 65.7911 43.0252 65.8538 43.012L67.5566 42.6303C67.7689 42.5852 67.9801 42.6336 68.1495 42.7612L70.1988 44.2913C70.3968 44.4376 70.6212 44.5146 70.8478 44.5146H74.2996L76.2059 44.926C76.4336 44.9755 76.6305 45.1361 76.7449 45.3671C76.8516 45.5794 76.878 45.8368 76.8175 46.0722L76.6371 46.7806C76.5678 47.0578 76.383 47.2833 76.1399 47.3823C75.8066 47.5176 75.5569 47.6925 75.3952 47.9026C75.2533 48.0863 75.0553 48.1952 74.8408 48.2073C74.6131 48.2238 74.4261 48.1402 74.2677 47.984C74.0796 47.7948 73.853 47.6782 73.6132 47.6463L73.2898 47.6034C72.6771 47.5275 72.0787 48.0379 71.9225 48.798L71.7762 49.5086C71.7575 49.5999 71.7267 49.6868 71.6838 49.7649L71.0535 50.9914C70.927 51.2378 70.7026 51.4028 70.4529 51.4325C69.7005 51.5282 69.7005 51.8087 69.7005 51.9759C69.6873 52.2465 69.6169 52.813 69.5641 53.2255L69.541 53.407C69.5278 53.5203 69.4937 53.6314 69.4398 53.7348C69.1802 54.2518 68.9217 54.727 68.8293 54.8634C68.7215 54.9987 68.6478 55.0757 68.562 55.1615C68.1814 55.552 67.88 55.8633 67.748 56.1339C67.5885 56.4562 67.2695 56.6366 66.9406 56.5915C66.6095 56.5354 66.3521 56.2659 66.2762 55.904C66.2366 55.7159 66.1376 55.5784 66.0188 55.5421C65.8835 55.5091 65.5821 55.4123 64.4007 57.4902C64.2522 57.7498 64.0025 57.9049 63.7308 57.9049C63.436 57.8983 63.1786 57.7267 63.0422 57.4572L62.7782 56.9457C62.7254 56.8456 62.6902 56.7312 62.6748 56.6058L62.5032 55.145C62.49 55.0394 62.4427 54.9448 62.3756 54.8898C62.325 54.8491 62.2645 54.8381 62.2073 54.8546L61.401 55.0988C61.3262 55.1219 61.258 55.2 61.2239 55.3045L60.939 56.1636C60.8829 56.3341 60.7839 56.4804 60.6541 56.5849L59.8445 57.2394C59.7312 57.3307 59.6355 57.4396 59.5563 57.5606L58.8424 58.6419C58.8259 58.665 58.8171 58.6848 58.8072 58.7068L58.4024 59.6924L57.9789 61.217C57.9668 61.2588 57.9602 61.3017 57.9602 61.3424V62.57C58.0042 62.9286 58.0405 63.3169 58.0493 63.5886C58.0581 63.8592 57.9624 64.1177 57.7853 64.2992C57.6192 64.4697 57.3838 64.704 57.1484 64.9361C56.9955 65.0791 56.8096 65.1583 56.6193 65.1583ZM55.8834 45.9358C55.8251 45.9358 55.7679 45.9655 55.7217 46.0227L54.9407 46.9841C54.9022 47.0303 54.8736 47.0908 54.8593 47.159L54.7273 47.8025C54.6591 48.1292 54.4413 48.3844 54.1575 48.4713L52.5339 48.963C52.4591 48.9872 52.3832 48.9927 52.2952 48.9927C52.1808 48.9927 52.0763 49.1159 52.051 49.2809L52.0367 49.4041C52.029 49.5086 52.062 49.6252 52.128 49.7033L53.316 51.1454C53.4997 51.3676 53.5723 51.6899 53.5085 51.9858C53.4425 52.2949 53.2346 52.5446 52.9662 52.637L52.3843 52.8405C52.2545 52.8856 52.1709 53.0649 52.1929 53.2497L52.2567 53.7744C52.3194 54.419 52.1368 55.0504 51.7562 55.5135L51.2744 56.0954C51.2007 56.1856 51.1677 56.3209 51.1919 56.4507L51.3723 57.4869C51.3954 57.6189 51.4702 57.7245 51.5637 57.7553L52.2259 57.9687L53.3435 57.9764C53.6031 57.9764 53.8484 58.1194 53.998 58.3603L54.6041 59.3404C54.6998 59.4988 54.7493 59.6803 54.7493 59.8673V61.8539C54.7493 61.9034 54.7559 61.9518 54.7702 61.9947L55.2201 63.4401C55.2399 63.4984 55.2685 63.5501 55.3048 63.5875L56.2211 64.5379C56.264 64.5819 56.3157 64.6072 56.3641 64.6072H56.6204C56.6809 64.6072 56.7282 64.5731 56.7579 64.5434C56.99 64.3146 57.2232 64.0825 57.3871 63.9142C57.4575 63.8416 57.4993 63.725 57.4949 63.6051C57.4861 63.3466 57.452 62.9759 57.408 62.6019L57.4058 61.3413C57.4058 61.25 57.419 61.1587 57.4432 61.0674L57.8777 59.512L58.2946 58.4956C58.3177 58.4395 58.3452 58.3878 58.3804 58.3361L59.091 57.2592C59.1999 57.092 59.3352 56.9402 59.4925 56.8126L60.3054 56.1548C60.3516 56.1185 60.389 56.0602 60.411 55.992L60.697 55.1307C60.7894 54.8546 60.9929 54.6467 61.2382 54.573L62.0456 54.3277C62.2821 54.2573 62.5285 54.3068 62.7188 54.4652C62.897 54.6104 63.0169 54.8359 63.0444 55.0823L63.216 56.542C63.2237 56.597 63.2391 56.6498 63.2611 56.6927L63.5273 57.2086C63.5724 57.2988 63.6461 57.3549 63.7209 57.3571C63.7968 57.3571 63.8705 57.3054 63.9178 57.2207C65.2114 54.9448 65.6855 54.8755 66.1695 55.0174C66.4896 55.1131 66.7283 55.4035 66.8108 55.7929C66.8394 55.9304 66.9241 56.0338 67.0187 56.0503C67.1078 56.0547 67.198 56.003 67.2508 55.8941C67.4213 55.5454 67.7502 55.2066 68.1671 54.7776C68.243 54.7017 68.3046 54.6368 68.3838 54.5378C68.4289 54.4696 68.6456 54.0813 68.947 53.484C68.9712 53.4367 68.9855 53.3905 68.9921 53.341L69.0152 53.1573C69.0636 52.7756 69.1362 52.2003 69.1472 51.9649C69.1472 51.746 69.1472 51.0431 70.3814 50.888C70.4507 50.8792 70.5167 50.8242 70.5596 50.7406L71.1932 49.5097C71.213 49.4745 71.2251 49.4382 71.2328 49.3986L71.3791 48.6858C71.5958 47.6408 72.4395 46.939 73.358 47.0578L73.6814 47.1007C74.0422 47.148 74.3788 47.3196 74.6527 47.5946C74.6967 47.6386 74.7506 47.6837 74.8012 47.6584C74.8573 47.6551 74.9123 47.6232 74.9563 47.566C75.1774 47.2778 75.5052 47.0446 75.9298 46.873C76.009 46.8411 76.0728 46.7564 76.0992 46.6475L76.2807 45.9369C76.3082 45.8269 76.2972 45.7092 76.2488 45.6124C76.2092 45.5332 76.1465 45.4771 76.0838 45.4628L74.2358 45.058L70.8434 45.0646C70.498 45.0646 70.1603 44.9502 69.8666 44.7324L67.8162 43.2012C67.7722 43.1693 67.7227 43.1561 67.6655 43.1682L65.966 43.5499L64.2192 44.4838C63.8936 44.6543 63.513 44.9007 63.3117 45.0723C63.2655 45.1108 63.2292 45.1713 63.2072 45.2417C63.0983 45.6069 62.7947 45.8533 62.4526 45.8533C62.0126 45.8533 61.654 45.4452 61.654 44.9436V43.9041C61.654 43.7446 61.5748 43.5983 61.4648 43.5554C61.3779 43.5213 61.2811 43.5686 61.2173 43.6742C61.1315 43.8194 61.038 43.9679 60.95 44.0955C60.917 44.1428 60.8939 44.2011 60.8818 44.2638C60.862 44.3749 60.8488 44.5069 60.8356 44.6455L60.818 44.8072C60.7124 45.7543 60.565 46.5386 59.8181 46.5386H58.123C57.9668 46.5386 57.8139 46.5155 57.6665 46.4693L55.9252 45.9424C55.912 45.938 55.8966 45.9358 55.8834 45.9358Z" fill="#472B29"/>
<path d="M46.3228 58.201L46.1116 57.9469C46.0137 57.8292 45.8817 57.7632 45.7442 57.7632H44.8708C44.5364 57.7632 44.2185 57.6378 43.9512 57.4013L42.4618 56.0901C42.2308 55.8855 41.9074 55.9449 41.7369 56.221L41.2485 57.0152L40.2651 59.0051C40.1936 59.1492 40.1727 59.3219 40.2057 59.4858L40.4301 60.5693C40.4576 60.6991 40.5181 60.8157 40.6028 60.9026L41.3585 61.6638C41.5708 61.8794 41.7336 62.1577 41.8271 62.4712L42.4717 64.625C42.552 64.8912 42.5817 65.1849 42.5586 65.4687L42.3628 67.7171C42.3419 67.9492 42.4277 68.1736 42.5861 68.3067C42.6752 68.3815 42.7786 68.4178 42.882 68.4178C42.9623 68.4178 43.0448 68.3958 43.1185 68.3485L43.2824 68.2517C43.4122 68.1769 43.5112 68.0427 43.5563 67.8766C43.8005 66.979 43.9688 66.3113 44.0117 66.0462C44.0799 65.4071 44.8026 64.1542 44.9852 63.9155L45.907 62.7968C45.9598 62.7319 46.0005 62.656 46.0269 62.5713C46.1336 62.2281 46.3063 61.4603 46.4647 60.6133C46.4735 60.5671 46.4779 60.5187 46.4779 60.4725L46.4768 58.6509C46.4779 58.4815 46.4218 58.3198 46.3228 58.201Z" fill="#00AC9C"/>
<path d="M42.8818 68.6939C42.708 68.6939 42.543 68.6323 42.4077 68.5168C42.1833 68.3298 42.0601 68.0141 42.0876 67.694L42.2845 65.4467C42.3054 65.1959 42.279 64.9407 42.2086 64.7064L41.564 62.5515C41.4837 62.2842 41.3451 62.0444 41.1625 61.8574L40.4068 61.0973C40.2847 60.9719 40.2 60.8102 40.1604 60.6287L39.9349 59.543C39.8898 59.3186 39.9184 59.0854 40.0163 58.8852L41.0019 56.8942L41.5013 56.078C41.6289 55.8712 41.8302 55.7337 42.0513 55.7007C42.268 55.6776 42.4759 55.7348 42.6442 55.8855L44.1314 57.1956C44.3481 57.387 44.6044 57.4882 44.8706 57.4882H45.744C45.9629 57.4882 46.1752 57.5916 46.3226 57.772L46.5338 58.025C46.6746 58.1944 46.7516 58.4166 46.7516 58.6509L46.7527 60.4725C46.7527 60.5374 46.7461 60.6034 46.734 60.665C46.5756 61.5131 46.4007 62.2919 46.2885 62.6538C46.2533 62.7704 46.1961 62.8782 46.1202 62.9717L45.1962 64.0915C45.0389 64.2983 44.3459 65.5105 44.2854 66.0759C44.2403 66.3553 44.0841 66.9801 43.8212 67.9492C43.7563 68.1879 43.6144 68.3815 43.4186 68.4915L43.258 68.5861C43.148 68.6554 43.0149 68.6939 42.8818 68.6939ZM42.1536 56.243C42.1459 56.243 42.1382 56.2441 42.1305 56.2452C42.0689 56.254 42.0117 56.2969 41.9699 56.3662L41.4826 57.1593L40.5102 59.1272C40.4673 59.2174 40.453 59.3285 40.475 59.4308L40.6994 60.5132C40.7159 60.5902 40.7511 60.6606 40.7995 60.7101L41.5552 61.4702C41.8016 61.7221 41.9864 62.04 42.0909 62.3931L42.7355 64.5469C42.8257 64.845 42.8598 65.1717 42.8334 65.4907L42.6365 67.7402C42.6233 67.881 42.6739 68.0196 42.763 68.0933C42.8312 68.1527 42.9071 68.1582 42.9753 68.1142L43.1425 68.0152C43.2118 67.9745 43.2646 67.8997 43.291 67.804C43.6133 66.6193 43.7134 66.1705 43.7398 66.0011C43.8168 65.2861 44.5868 63.9837 44.7672 63.7472L45.6967 62.6219C45.7253 62.5856 45.7495 62.5416 45.7649 62.4921C45.8705 62.1533 46.0432 61.3789 46.1961 60.5627C46.2027 60.533 46.2049 60.5022 46.2049 60.4725L46.2038 58.6509C46.2038 58.5453 46.1708 58.4452 46.1125 58.3748L45.9013 58.1229C45.8562 58.0679 45.8012 58.0382 45.7451 58.0382H44.8717C44.468 58.0382 44.0863 57.8897 43.7695 57.6081L42.2812 56.2969C42.2405 56.2617 42.1976 56.243 42.1536 56.243Z" fill="#472B29"/>
<path d="M47.5912 39.0321C47.545 38.9771 47.4933 38.9331 47.435 38.9023L46.214 38.2456C46.0677 38.1686 45.9016 38.1741 45.7619 38.2621C44.5937 38.9936 44.1647 39.3246 44.0338 39.4324C43.9876 39.4709 43.8908 39.5931 43.8567 39.647C43.6851 39.8439 43.5212 40.0275 40.0936 39.8449C39.8692 39.802 39.6481 40.0056 39.5744 40.2751C39.5326 40.4236 39.5095 40.5391 39.4985 40.7019C39.4996 40.8746 39.4303 41.0594 39.3126 41.2002C39.1773 41.3619 38.9991 41.4498 38.7186 41.4938C38.5756 41.5158 38.4469 41.6094 38.3622 41.7513C38.2786 41.8921 38.2456 42.0692 38.272 42.2418C38.3072 42.4652 38.2511 42.7269 38.1345 42.8919C37.5548 43.7048 36.7661 44.3957 36.3382 44.1394L35.0545 43.3617C34.9819 43.3166 34.9016 43.2946 34.8202 43.2946H32.3815C32.2517 43.2946 32.1274 43.3529 32.0306 43.4585L30.9229 44.6696C30.726 44.8852 30.693 45.2438 30.8459 45.5067C30.9988 45.7696 31.2936 45.8498 31.5235 45.6958L31.793 45.5177C32.2715 45.1525 32.904 45.1371 33.399 45.4792L34.1745 46.0182C34.3021 46.1073 34.4132 46.2118 34.5078 46.324L34.9269 46.8343C35.2217 47.1896 35.3845 47.6671 35.3845 48.1742V50.5172C35.3845 50.7823 35.5209 51.0199 35.7255 51.1112L36.4427 51.4335C36.6858 51.5435 36.9069 51.7305 37.0785 51.9747L37.524 52.6028C37.6142 52.7304 37.744 52.8096 37.8815 52.8217C37.8947 52.8228 37.9068 52.8228 37.92 52.8228C38.0443 52.8228 38.1664 52.7678 38.2621 52.6677C38.3248 52.6017 38.4018 52.5566 38.4865 52.5357L40.5127 52.0187C40.6062 51.9967 40.6997 52.0022 40.7844 52.0363L41.1056 52.1672C41.3608 52.2739 41.6413 52.1221 41.7513 51.824L41.8008 51.6898C41.8646 51.516 41.8602 51.3169 41.7898 51.1475L41.5951 50.6767C41.5313 50.5248 41.5225 50.3434 41.5709 50.1806C41.6182 50.0211 41.7183 49.8869 41.847 49.8165L43.9381 48.6637C43.9953 48.6329 44.0459 48.5889 44.0899 48.5361L44.6091 47.9091C44.7873 47.6946 44.8148 47.3569 44.674 47.105C44.5332 46.8509 44.4221 46.6727 44.3407 46.5473C44.1977 46.3306 43.9546 46.2502 43.7423 46.3514C43.6279 46.4043 43.4772 46.4857 43.3056 46.5968C43.1098 46.7167 42.8601 46.687 42.6984 46.5154C42.408 46.2085 42.4608 45.8499 42.8062 44.6905C42.8183 44.6487 42.8348 44.6102 42.8502 44.5793L43.4717 43.3275C43.4937 43.2813 43.5212 43.2407 43.5509 43.2033L44.1438 42.5037C44.3231 42.2892 44.6036 42.2595 44.8126 42.4432C45.0392 42.6412 45.2196 42.9085 45.334 43.2165L45.6849 44.1768C45.785 44.4507 46.0336 44.5992 46.2712 44.5398C46.5132 44.4782 46.6859 44.2186 46.6859 43.9194V43.6576C46.6859 43.4794 46.6859 43.2572 47.4647 41.8008C47.589 41.5676 47.7507 41.3761 47.9432 41.2276L48.2875 40.9714C48.4228 40.8691 48.5141 40.6964 48.5328 40.505C48.5515 40.3114 48.4954 40.1188 48.3821 39.9824L47.5912 39.0321Z" fill="#00AC9C"/>
<path d="M37.9213 53.0978C37.6408 53.0769 37.4373 52.9548 37.3009 52.7612L36.8565 52.1331C36.7124 51.9296 36.5309 51.7745 36.3307 51.6843L35.6146 51.362C35.3088 51.2267 35.1108 50.8945 35.1108 50.5161V48.1731C35.1108 47.7276 34.9711 47.3151 34.717 47.0093L34.2968 46.4956C34.2176 46.401 34.123 46.3141 34.0196 46.2426L33.2452 45.7036C32.8503 45.4308 32.3476 45.4418 31.9626 45.7355L31.6777 45.9247C31.5105 46.0369 31.3059 46.0743 31.1167 46.0292C30.9077 45.9819 30.7273 45.8444 30.6107 45.6442C30.3973 45.2746 30.4446 44.7873 30.7229 44.4815L31.8295 43.2704C31.9802 43.1076 32.176 43.0174 32.3839 43.0174H34.8204C34.9524 43.0174 35.0833 43.0548 35.1999 43.1263L36.4814 43.9029C36.6475 44.0041 37.2833 43.6081 37.9125 42.7314C37.9873 42.6247 38.0258 42.4355 38.0016 42.2826C37.9653 42.0472 38.0093 41.8074 38.127 41.6105C38.2524 41.3993 38.4537 41.2574 38.677 41.2211C38.9399 41.1815 39.0367 41.1023 39.1027 41.0231C39.1786 40.9318 39.2259 40.8097 39.2248 40.703C39.238 40.5061 39.2622 40.3708 39.3106 40.1992C39.4261 39.7746 39.7781 39.4919 40.1455 39.5744C43.1507 39.7306 43.5313 39.6008 43.6501 39.4655C43.6666 39.4358 43.781 39.2851 43.858 39.2202C44.034 39.075 44.4949 38.7307 45.6169 38.0278C45.8391 37.8903 46.1119 37.8782 46.344 38.0025L47.565 38.6603C47.653 38.7065 47.7322 38.7736 47.8026 38.855L47.8037 38.8561L48.5935 39.8054C48.7552 40.0023 48.8322 40.2663 48.8058 40.5314C48.7805 40.7998 48.6507 41.0407 48.4527 41.1914L48.1084 41.4477C47.9478 41.5709 47.8114 41.7359 47.708 41.9306C46.96 43.3265 46.96 43.5333 46.96 43.6565V43.9183C46.96 44.3484 46.7048 44.7125 46.3385 44.8049C45.9579 44.905 45.5762 44.6773 45.4266 44.2703L45.0757 43.3111C44.9789 43.0482 44.8249 42.8194 44.6324 42.6489C44.5906 42.6137 44.5642 42.6038 44.496 42.5972C44.4465 42.6016 44.397 42.6302 44.3563 42.6797L43.7612 43.3815C43.7447 43.4013 43.7315 43.4233 43.7216 43.4442L43.0979 44.7026C43.0902 44.7191 43.0792 44.7411 43.0726 44.7664C42.7283 45.9192 42.7283 46.1447 42.8999 46.3273C42.9703 46.4043 43.0781 46.4186 43.1639 46.3636C43.3454 46.2481 43.506 46.1612 43.6292 46.104C43.9636 45.9434 44.353 46.0655 44.5719 46.3977C44.6577 46.5297 44.7721 46.7123 44.9162 46.973C45.112 47.3261 45.0735 47.7837 44.8216 48.0862L44.3024 48.7121C44.2331 48.7946 44.1561 48.8595 44.0714 48.9068L41.9814 50.0585C41.9165 50.0937 41.8626 50.1696 41.8362 50.2609C41.8065 50.3621 41.812 50.4798 41.8505 50.5733L42.0463 51.0441C42.1442 51.2762 42.1497 51.5468 42.0617 51.7866L42.0144 51.9197C41.9308 52.1485 41.7658 52.3289 41.5645 52.4169C41.3841 52.4961 41.1861 52.4994 41.0035 52.4224L40.6845 52.2926C40.6548 52.2805 40.6196 52.2772 40.58 52.2882L38.5582 52.8041C38.523 52.8129 38.4911 52.8316 38.4658 52.8591C38.3118 53.0131 38.1204 53.0978 37.9213 53.0978ZM32.6182 44.9545C32.9416 44.9545 33.2683 45.0524 33.5565 45.2515L34.332 45.7916C34.4761 45.8917 34.6059 46.0105 34.7192 46.1458L35.1405 46.6595C35.476 47.061 35.6608 47.5989 35.6608 48.1731V50.5161C35.6608 50.6723 35.7334 50.8142 35.839 50.8604L36.5562 51.1838C36.8455 51.3136 37.104 51.5314 37.3053 51.8152L37.7497 52.4433C37.7926 52.5049 37.8498 52.5423 37.907 52.5478C37.9719 52.5478 38.0225 52.5225 38.0676 52.4774C38.1655 52.374 38.2898 52.3014 38.4251 52.2695L40.448 51.7536C40.6009 51.7184 40.7494 51.7283 40.888 51.7811L41.2125 51.9131C41.2554 51.9307 41.2972 51.9318 41.3423 51.912C41.4083 51.8845 41.4633 51.8174 41.4963 51.7305L41.5436 51.5974C41.5843 51.4863 41.5821 51.3587 41.5381 51.2542L41.3423 50.7823C41.2554 50.5744 41.2422 50.3269 41.3071 50.1047C41.3764 49.8726 41.5238 49.6801 41.7152 49.5767L43.8052 48.4239C43.8305 48.4096 43.8547 48.3887 43.8789 48.3601L44.397 47.7342C44.5026 47.6077 44.518 47.3899 44.4333 47.2392C44.2969 46.9928 44.1869 46.819 44.1088 46.6969C44.0582 46.621 43.968 46.5506 43.8602 46.6012C43.7513 46.6518 43.6127 46.7266 43.4532 46.83C43.1353 47.0214 42.7448 46.9697 42.4962 46.7046C42.076 46.2591 42.2146 45.7124 42.5424 44.6146C42.5578 44.5596 42.5809 44.5046 42.6018 44.4617L43.2244 43.2066C43.2486 43.1516 43.2871 43.0933 43.3355 43.0328L43.9339 42.3266C44.0692 42.166 44.2529 42.067 44.452 42.0505C44.6324 42.0318 44.8381 42.1 44.9932 42.2364C45.2561 42.4663 45.4629 42.7721 45.5905 43.123L45.9425 44.0822C45.9931 44.2186 46.0998 44.2912 46.2021 44.2736C46.3198 44.2439 46.4089 44.0921 46.4089 43.9205V43.6587C46.4089 43.4288 46.4089 43.1901 47.2207 41.6721C47.3626 41.4081 47.5485 41.1859 47.7751 41.0099L48.1216 40.7525C48.1942 40.6964 48.2459 40.5941 48.2569 40.4797C48.269 40.3598 48.2349 40.2388 48.1689 40.1574L47.3802 39.2092C47.356 39.1817 47.3296 39.1597 47.3043 39.1454L46.0844 38.4876C46.0217 38.4568 45.9623 38.4579 45.9095 38.4953C44.7721 39.2059 44.3409 39.5359 44.2078 39.6448C44.1869 39.6646 44.1132 39.757 44.089 39.7955C43.8129 40.1178 43.6435 40.3103 40.0784 40.12C39.986 40.1057 39.8826 40.1926 39.8397 40.3477C39.8023 40.4786 39.7836 40.5798 39.7726 40.7217C39.7748 40.9373 39.6846 41.1848 39.524 41.3773C39.3436 41.5929 39.1082 41.7128 38.7606 41.7667C38.699 41.7766 38.6418 41.8217 38.5989 41.8932C38.5472 41.9801 38.5274 42.0923 38.5439 42.199C38.589 42.4949 38.5175 42.8293 38.3591 43.0515C37.7266 43.9392 36.8235 44.7554 36.1965 44.3759L34.9106 43.5971C34.8809 43.5773 34.8501 43.5696 34.8193 43.5696H32.3806C32.3289 43.5696 32.2761 43.596 32.2321 43.6444L31.1255 44.8555C31.0089 44.9831 30.9902 45.2086 31.0826 45.3703C31.1222 45.4374 31.1772 45.4814 31.2366 45.4946C31.2828 45.5045 31.3279 45.4957 31.3708 45.4682L31.6414 45.2889C31.9318 45.0667 32.2739 44.9545 32.6182 44.9545Z" fill="#472B29"/>
<path d="M46.15 51.7584C45.9982 51.7584 45.875 51.6352 45.875 51.4834V31.6834C45.875 31.5316 45.9982 31.4084 46.15 31.4084C46.3018 31.4084 46.425 31.5316 46.425 31.6834V51.4834C46.425 51.6352 46.3018 51.7584 46.15 51.7584Z" fill="#472B29"/>
<path d="M46.15 66.0584C45.9982 66.0584 45.875 65.9352 45.875 65.7834V53.6834C45.875 53.5316 45.9982 53.4084 46.15 53.4084C46.3018 53.4084 46.425 53.5316 46.425 53.6834V65.7834C46.425 65.9352 46.3018 66.0584 46.15 66.0584Z" fill="#472B29"/>
<path d="M46.15 75.9585C45.9982 75.9585 45.875 75.8353 45.875 75.6835V67.9835C45.875 67.8317 45.9982 67.7085 46.15 67.7085C46.3018 67.7085 46.425 67.8317 46.425 67.9835V75.6835C46.425 75.8353 46.3018 75.9585 46.15 75.9585Z" fill="#472B29"/>
<path d="M64.8502 46.2584C64.6984 46.2584 64.5752 46.1352 64.5752 45.9834V37.1834C64.5752 37.0316 64.6984 36.9084 64.8502 36.9084C65.002 36.9084 65.1252 37.0316 65.1252 37.1834V45.9834C65.1252 46.1352 65.002 46.2584 64.8502 46.2584Z" fill="#472B29"/>
<path d="M64.8502 59.4584C64.6984 59.4584 64.5752 59.3352 64.5752 59.1834V48.1834C64.5752 48.0316 64.6984 47.9084 64.8502 47.9084C65.002 47.9084 65.1252 48.0316 65.1252 48.1834V59.1834C65.1252 59.3352 65.002 59.4584 64.8502 59.4584Z" fill="#472B29"/>
<path d="M64.8502 80.3589C64.6984 80.3589 64.5752 80.2357 64.5752 80.0839V61.3839C64.5752 61.2321 64.6984 61.1089 64.8502 61.1089C65.002 61.1089 65.1252 61.2321 65.1252 61.3839V80.0839C65.1252 80.2357 65.002 80.3589 64.8502 80.3589Z" fill="#472B29"/>
<path d="M64.85 40.3923C64.8214 40.3923 64.7906 40.3879 64.7631 40.378L46.15 34.174L32.235 38.7973C32.092 38.8457 31.9358 38.7687 31.8874 38.6235C31.839 38.4794 31.9171 38.3243 32.0612 38.2759L46.0631 33.624C46.1192 33.6042 46.1808 33.6042 46.2369 33.624L64.85 39.8269L74.0163 36.7711C74.1615 36.7238 74.3155 36.8008 74.3639 36.9449C74.4123 37.089 74.3342 37.2441 74.1901 37.2925L64.9369 40.378C64.9094 40.3879 64.8786 40.3923 64.85 40.3923Z" fill="#472B29"/>
<path d="M64.8497 78.1585C64.8222 78.1585 64.7947 78.1541 64.7683 78.1464L60.882 76.9408C60.7368 76.8957 60.6565 76.7406 60.7005 76.5965C60.7467 76.4513 60.9007 76.3721 61.0448 76.415L64.8497 77.5953L79.9747 72.9137V35.3652L77.4293 36.2133C77.2852 36.265 77.1301 36.1836 77.0817 36.0395C77.0333 35.8954 77.1114 35.7403 77.2555 35.6919L80.1639 34.7228C80.2453 34.6931 80.341 34.7074 80.4125 34.7602C80.4829 34.8119 80.5269 34.8955 80.5269 34.9835V73.1172C80.5269 73.2371 80.4488 73.3438 80.3333 73.3801L64.9333 78.1464C64.9047 78.1541 64.8772 78.1585 64.8497 78.1585Z" fill="#472B29"/>
<path d="M31.8502 77.0585C31.7919 77.0585 31.7358 77.0398 31.6885 77.0057C31.6181 76.9529 31.5752 76.8715 31.5752 76.7835V55.1278C31.5752 54.976 31.6984 54.8528 31.8502 54.8528C32.002 54.8528 32.1252 54.976 32.1252 55.1278V76.4084L46.2954 71.894C46.3515 71.8764 46.4076 71.8775 46.4604 71.8929L57.951 75.4558C58.0962 75.5009 58.1765 75.656 58.1325 75.8001C58.0863 75.9453 57.9312 76.0212 57.7882 75.9816L46.3801 72.4429L31.9338 77.0464C31.9063 77.0541 31.8777 77.0585 31.8502 77.0585Z" fill="#472B29"/>
<path d="M31.8502 52.996C31.6984 52.996 31.5752 52.8728 31.5752 52.721V47.9085C31.5752 47.7567 31.6984 47.6335 31.8502 47.6335C32.002 47.6335 32.1252 47.7567 32.1252 47.9085V52.721C32.1252 52.8728 32.002 52.996 31.8502 52.996Z" fill="#472B29"/>
<path d="M94.1956 67.7499C96.2669 67.7499 98.0643 67.7499 98.0896 67.7499C100.411 67.7499 102.293 65.9085 102.293 63.637C102.293 61.6548 100.86 60.0015 98.9542 59.611C98.9762 59.4372 98.9916 59.2623 98.9916 59.083C98.9916 56.7301 97.0424 54.8227 94.6389 54.8227C93.2199 54.8227 91.9626 55.4904 91.1684 56.52C90.9649 53.9009 88.5746 51.8802 85.7784 52.2157C83.7335 52.461 82.0417 54.0076 81.6655 55.9898C81.5445 56.6256 81.5577 57.2427 81.6776 57.8213C81.1298 57.2438 80.3488 56.8797 79.4798 56.8797C77.8892 56.8797 76.5901 58.0919 76.4878 59.6231C75.7651 59.4669 74.9797 59.4768 74.1525 59.7804C72.5707 60.3612 71.4443 61.8187 71.3783 63.472C71.2848 65.8183 73.201 67.7499 75.5781 67.7499C75.7585 67.7499 76.3932 67.7499 76.5395 67.7499H85.2669M87.0709 67.7499H87.4669H87.0709Z" fill="#FDFCEF"/>
<path d="M98.0894 68.3006H94.1954C93.8918 68.3006 93.6454 68.0542 93.6454 67.7506C93.6454 67.447 93.8918 67.2006 94.1954 67.2006H98.0894C100.104 67.2006 101.743 65.6023 101.743 63.6377C101.743 61.9613 100.524 60.4939 98.8429 60.1507C98.5613 60.0924 98.371 59.8273 98.4073 59.5413C98.4271 59.3906 98.4403 59.2388 98.4403 59.0826C98.4403 57.0366 96.7342 55.3723 94.6376 55.3723C93.4364 55.3723 92.3298 55.9124 91.6016 56.8562C91.463 57.0366 91.2265 57.1103 91.0087 57.0476C90.7909 56.9816 90.6358 56.7902 90.6182 56.5636C90.5313 55.4416 89.9967 54.4252 89.1123 53.6992C88.2004 52.9512 87.0388 52.6223 85.842 52.7609C84.0314 52.9776 82.5354 54.3471 82.2043 56.0906C82.1009 56.6351 82.1042 57.1796 82.2142 57.7098C82.2637 57.9507 82.1482 58.1949 81.9304 58.3093C81.7137 58.4215 81.4464 58.3786 81.277 58.1993C80.8062 57.7032 80.1671 57.4293 79.4785 57.4293C78.1926 57.4293 77.119 58.4094 77.0354 59.659C77.0244 59.8196 76.9452 59.9648 76.8176 60.0616C76.69 60.1573 76.5272 60.1936 76.371 60.1595C75.6681 60.0077 75.0037 60.0517 74.3404 60.297C72.9522 60.8063 71.982 62.0911 71.9259 63.4925C71.8874 64.4561 72.2372 65.3724 72.9104 66.0731C73.6089 66.7991 74.556 67.1995 75.5757 67.1995H85.2634C85.567 67.1995 85.8134 67.4459 85.8134 67.7495C85.8134 68.0531 85.567 68.2995 85.2634 68.2995H75.5757C74.2722 68.2995 73.0116 67.766 72.1173 66.8354C71.234 65.9158 70.7764 64.7135 70.827 63.4496C70.9007 61.6071 72.1602 59.9252 73.9609 59.263C74.6319 59.0155 75.3249 58.9286 76.0289 58.9946C76.4073 57.459 77.8208 56.3282 79.4774 56.3282C80.0197 56.3282 80.5521 56.4525 81.0328 56.6835C81.0427 56.4173 81.0735 56.1511 81.1241 55.8838C81.5432 53.6739 83.4297 51.9403 85.7111 51.6675C87.2126 51.4838 88.6646 51.9073 89.8097 52.8456C90.6325 53.5199 91.2155 54.3955 91.5103 55.3778C92.3804 54.665 93.4749 54.2701 94.6365 54.2701C97.3403 54.2701 99.5392 56.4283 99.5392 59.0804C99.5392 59.1178 99.5392 59.1552 99.5381 59.1937C101.479 59.8042 102.841 61.6005 102.841 63.6355C102.843 66.2084 100.711 68.3006 98.0894 68.3006ZM87.4667 68.3006H87.0707C86.7671 68.3006 86.5207 68.0542 86.5207 67.7506C86.5207 67.447 86.7671 67.2006 87.0707 67.2006H87.4667C87.7703 67.2006 88.0167 67.447 88.0167 67.7506C88.0167 68.0542 87.7703 68.3006 87.4667 68.3006Z" fill="#472B29"/>
<path d="M96.2119 61.9159C96.1921 61.9159 96.1723 61.9137 96.1514 61.9093C96.0029 61.8763 95.9094 61.7289 95.9435 61.5804C95.9842 61.4 96.0469 61.2229 96.1305 61.0535C96.7949 59.7071 98.6297 59.2088 100.225 59.9458C100.362 60.0096 100.423 60.1724 100.359 60.3099C100.295 60.4485 100.131 60.5068 99.9937 60.4441C98.6726 59.8325 97.159 60.2153 96.6244 61.2955C96.5606 61.4253 96.5122 61.5617 96.4814 61.6992C96.4517 61.829 96.3384 61.9159 96.2119 61.9159Z" fill="#472B29"/>
<path d="M90.5372 68.3007H89.3195C89.0159 68.3007 88.7695 68.0543 88.7695 67.7507C88.7695 67.4471 89.0159 67.2007 89.3195 67.2007H90.5372C90.8408 67.2007 91.0872 67.4471 91.0872 67.7507C91.0872 68.0543 90.8419 68.3007 90.5372 68.3007Z" fill="#472B29"/>
</svg>
